<svg xmlns="http://www.w3.org/2000/svg" width="386.116" height="291.054" viewBox="0 0 386.116 291.054">
  <g id="Grupo_89007" data-name="Grupo 89007" transform="translate(-202.5 -403.5)">
    <g id="Grupo_78524" data-name="Grupo 78524" transform="translate(203 404)">
      <path id="Trazado_114225" data-name="Trazado 114225" d="M1484.278,593.776c41.706,68.592,113.061,57.821,214.9,21.572s158.464-68.388,116.758-136.98-165.954-147.662-267.786-111.413S1442.574,525.185,1484.278,593.776Z" transform="translate(-1445.134 -354.427)" fill="none" stroke="#ef3c79" stroke-miterlimit="10" stroke-width="2"/>
      <path id="Trazado_114226" data-name="Trazado 114226" d="M1475,540.042c0,75.651,70.913,88.916,183.67,88.916s182.094-10.862,182.094-86.513S1771.428,355,1658.67,355,1475,464.391,1475,540.042Z" transform="translate(-1475 -355)" fill="#cedbef" stroke="rgba(0,0,0,0)" stroke-width="1"/>
      <path id="Trazado_114227" data-name="Trazado 114227" d="M1672.817,428.855c0,7.3,5.215,8.579,13.507,8.579s13.392-1.048,13.392-8.347S1694.616,411,1686.324,411,1672.817,421.556,1672.817,428.855Z" transform="translate(-1658.644 -343.712)" fill="#00cbae" stroke="rgba(0,0,0,0)" stroke-width="1"/>
      <path id="Trazado_114228" data-name="Trazado 114228" d="M1459.307,457.855c0,7.3,5.215,8.579,13.507,8.579s13.391-1.048,13.391-8.347S1481.106,440,1472.814,440,1459.307,450.556,1459.307,457.855Z" transform="translate(-1101.585 -337.867)" fill="#0d4aad" stroke="rgba(0,0,0,0)" stroke-width="1"/>
    </g>
    <g id="Grupo_89006" data-name="Grupo 89006" transform="translate(-100.844 282.107)">
      <g id="Grupo_88854" data-name="Grupo 88854">
        <path id="Trazado_121927" data-name="Trazado 121927" d="M505.151,166.128a198.079,198.079,0,0,0-65.423-9.378c-21.143.6-40.55,4.553-47.846,19.637C372,217.5,452.933,226.887,410.316,276.825s78.041,105.465,169.107,54.768C668.292,282.118,609.217,199.067,505.151,166.128Z" fill="#e9e2d7"/>
        <g id="Grupo_88823" data-name="Grupo 88823">
          <g id="Grupo_88822" data-name="Grupo 88822">
            <path id="Trazado_121928" data-name="Trazado 121928" d="M383.41,165.047a40.511,40.511,0,0,0-9.758-22.877c-2.647-2.76-5.164-3.828-7.086-3.008s-2.893,3.375-2.734,7.2a40.537,40.537,0,0,0,9.758,22.877c2.647,2.759,5.164,3.828,7.086,3.008S383.569,168.868,383.41,165.047Zm-4.54-11.583c3.791,8.888,3.666,16.261,1.184,17.321s-7.891-3.956-11.682-12.843-3.666-16.262-1.184-17.321S375.079,144.576,378.87,153.464Z" fill="#dbd2c4"/>
            <path id="Trazado_121929" data-name="Trazado 121929" d="M369.507,168.6A40.525,40.525,0,0,0,385.8,149.8c1.321-3.589,1.18-6.32-.4-7.689s-4.3-1.122-7.667.694A40.534,40.534,0,0,0,361.441,161.6c-1.321,3.589-1.18,6.319.4,7.688,1.345,1.166,3.518,1.16,6.212.011Q368.757,169,369.507,168.6Zm14.855-25.28c1.03.893,1.012,3.058-.05,5.941A38.994,38.994,0,0,1,368.754,167.2c-2.7,1.459-4.845,1.784-5.874.892-2.04-1.769.1-8.826,6.43-16.127a34.793,34.793,0,0,1,9.178-7.757q.705-.381,1.355-.658C381.9,142.671,383.512,142.578,384.362,143.315Z" fill="#dbd2c4"/>
            <path id="Trazado_121930" data-name="Trazado 121930" d="M391.581,156.6c.105-2.087-1.768-4.079-5.273-5.609a40.527,40.527,0,0,0-24.839-1.247c-3.642,1.172-5.7,2.966-5.808,5.053s1.768,4.08,5.273,5.61a40.527,40.527,0,0,0,24.839,1.247q.811-.263,1.516-.563C389.983,159.947,391.492,158.381,391.581,156.6Zm-29.626-5.345a38.987,38.987,0,0,1,23.719,1.19c2.815,1.229,4.391,2.715,4.323,4.076s-1.785,2.681-4.71,3.622a34.81,34.81,0,0,1-11.952,1.255c-9.65-.484-16.225-3.825-16.09-6.521.057-1.124,1.239-2.221,3.3-3.1Q361.192,151.5,361.955,151.259Z" fill="#dbd2c4"/>
          </g>
          <path id="Trazado_121931" data-name="Trazado 121931" d="M377.25,154.155a3.943,3.943,0,1,1-5.173-2.08A3.942,3.942,0,0,1,377.25,154.155Z" fill="#dbd2c4"/>
          <path id="Trazado_121932" data-name="Trazado 121932" d="M366.682,141.99a2.317,2.317,0,1,1-3.04-1.222A2.317,2.317,0,0,1,366.682,141.99Z" fill="#dbd2c4"/>
          <path id="Trazado_121933" data-name="Trazado 121933" d="M391.7,153.35a2.317,2.317,0,1,1-3.04-1.222A2.317,2.317,0,0,1,391.7,153.35Z" fill="#dbd2c4"/>
          <path id="Trazado_121934" data-name="Trazado 121934" d="M363.941,162.35a2.317,2.317,0,1,1-3.04-1.222A2.317,2.317,0,0,1,363.941,162.35Z" fill="#dbd2c4"/>
        </g>
        <g id="Grupo_88825" data-name="Grupo 88825">
          <g id="Grupo_88824" data-name="Grupo 88824">
            <path id="Trazado_121935" data-name="Trazado 121935" d="M657.11,258.7a40.537,40.537,0,0,0-9.758-22.877c-2.648-2.759-5.164-3.828-7.087-3.008s-2.893,3.376-2.733,7.2a40.519,40.519,0,0,0,9.757,22.877c2.648,2.76,5.165,3.828,7.087,3.008S657.269,262.519,657.11,258.7Zm-4.54-11.582c3.79,8.887,3.666,16.261,1.183,17.32s-7.89-3.955-11.681-12.843-3.667-16.261-1.184-17.32S648.779,238.227,652.57,247.115Z" fill="#dbd2c4"/>
            <path id="Trazado_121936" data-name="Trazado 121936" d="M643.207,262.246A40.524,40.524,0,0,0,659.5,243.455c1.322-3.589,1.18-6.319-.4-7.688s-4.3-1.123-7.667.694a40.515,40.515,0,0,0-16.293,18.79c-1.322,3.589-1.18,6.32.4,7.689,1.344,1.166,3.518,1.16,6.212.011Q642.457,262.65,643.207,262.246Zm14.855-25.28c1.03.892,1.011,3.058-.051,5.941a38.969,38.969,0,0,1-15.558,17.942c-2.7,1.46-4.844,1.785-5.874.892-2.039-1.768.1-8.826,6.43-16.126a34.837,34.837,0,0,1,9.179-7.758q.705-.379,1.355-.657C655.6,236.322,657.211,236.228,658.062,236.966Z" fill="#dbd2c4"/>
            <path id="Trazado_121937" data-name="Trazado 121937" d="M665.281,250.255c.1-2.087-1.768-4.08-5.273-5.61a40.519,40.519,0,0,0-24.84-1.246c-3.641,1.171-5.7,2.966-5.808,5.053s1.768,4.079,5.273,5.609a40.53,40.53,0,0,0,24.84,1.247q.811-.261,1.516-.562C663.683,253.6,665.192,252.032,665.281,250.255Zm-29.627-5.346a38.986,38.986,0,0,1,23.719,1.19c2.816,1.23,4.391,2.715,4.323,4.076s-1.785,2.681-4.709,3.622a34.786,34.786,0,0,1-11.952,1.255c-9.651-.484-16.225-3.825-16.09-6.52.057-1.125,1.238-2.222,3.3-3.1Q634.891,245.154,635.654,244.909Z" fill="#dbd2c4"/>
          </g>
          <path id="Trazado_121938" data-name="Trazado 121938" d="M650.95,247.8a3.943,3.943,0,1,1-5.174-2.079A3.944,3.944,0,0,1,650.95,247.8Z" fill="#dbd2c4"/>
          <path id="Trazado_121939" data-name="Trazado 121939" d="M640.381,235.641a2.316,2.316,0,1,1-3.039-1.223A2.316,2.316,0,0,1,640.381,235.641Z" fill="#dbd2c4"/>
          <path id="Trazado_121940" data-name="Trazado 121940" d="M665.4,247a2.317,2.317,0,1,1-3.04-1.222A2.318,2.318,0,0,1,665.4,247Z" fill="#dbd2c4"/>
          <path id="Trazado_121941" data-name="Trazado 121941" d="M637.64,256a2.316,2.316,0,1,1-3.039-1.221A2.317,2.317,0,0,1,637.64,256Z" fill="#dbd2c4"/>
        </g>
        <g id="Grupo_88839" data-name="Grupo 88839">
          <g id="Grupo_88827" data-name="Grupo 88827">
            <g id="Grupo_88826" data-name="Grupo 88826">
              <path id="Trazado_121942" data-name="Trazado 121942" d="M388.015,226.476a4.913,4.913,0,1,1-4.913-4.913A4.919,4.919,0,0,1,388.015,226.476Zm-1.638,0a3.276,3.276,0,1,0-3.275,3.275A3.279,3.279,0,0,0,386.377,226.476Z" fill="#dbd2c4"/>
            </g>
          </g>
          <g id="Grupo_88838" data-name="Grupo 88838">
            <g id="Grupo_88832" data-name="Grupo 88832">
              <g id="Grupo_88829" data-name="Grupo 88829">
                <g id="Grupo_88828" data-name="Grupo 88828">
                  <path id="Trazado_121943" data-name="Trazado 121943" d="M370.45,212.143a.729.729,0,0,0-.729.73v4.3a.729.729,0,0,0,1.459,0v-4.3A.73.73,0,0,0,370.45,212.143Z" fill="#dbd2c4"/>
                </g>
              </g>
              <g id="Grupo_88831" data-name="Grupo 88831">
                <g id="Grupo_88830" data-name="Grupo 88830">
                  <path id="Trazado_121944" data-name="Trazado 121944" d="M370.45,204.209a.729.729,0,0,0-.729.73v4.3a.729.729,0,0,0,1.459,0v-4.3A.73.73,0,0,0,370.45,204.209Z" fill="#dbd2c4"/>
                </g>
              </g>
            </g>
            <g id="Grupo_88837" data-name="Grupo 88837">
              <g id="Grupo_88834" data-name="Grupo 88834">
                <g id="Grupo_88833" data-name="Grupo 88833">
                  <path id="Trazado_121945" data-name="Trazado 121945" d="M368.632,210.325h-4.3a.73.73,0,0,0,0,1.46h4.3a.73.73,0,1,0,0-1.46Z" fill="#dbd2c4"/>
                </g>
              </g>
              <g id="Grupo_88836" data-name="Grupo 88836">
                <g id="Grupo_88835" data-name="Grupo 88835">
                  <path id="Trazado_121946" data-name="Trazado 121946" d="M376.566,210.325h-4.3a.73.73,0,1,0,0,1.46h4.3a.73.73,0,0,0,0-1.46Z" fill="#dbd2c4"/>
                </g>
              </g>
            </g>
          </g>
        </g>
        <g id="Grupo_88853" data-name="Grupo 88853">
          <g id="Grupo_88841" data-name="Grupo 88841">
            <g id="Grupo_88840" data-name="Grupo 88840">
              <path id="Trazado_121947" data-name="Trazado 121947" d="M540.4,146.678a4.913,4.913,0,1,1,4.913,4.913A4.919,4.919,0,0,1,540.4,146.678Zm1.638,0a3.275,3.275,0,1,0,3.275-3.276A3.279,3.279,0,0,0,542.039,146.678Z" fill="#dbd2c4"/>
            </g>
          </g>
          <g id="Grupo_88852" data-name="Grupo 88852">
            <g id="Grupo_88846" data-name="Grupo 88846">
              <g id="Grupo_88843" data-name="Grupo 88843">
                <g id="Grupo_88842" data-name="Grupo 88842">
                  <path id="Trazado_121948" data-name="Trazado 121948" d="M563,156.4a.73.73,0,0,0,.73-.73v-4.3a.73.73,0,0,0-1.46,0v4.3A.73.73,0,0,0,563,156.4Z" fill="#dbd2c4"/>
                </g>
              </g>
              <g id="Grupo_88845" data-name="Grupo 88845">
                <g id="Grupo_88844" data-name="Grupo 88844">
                  <path id="Trazado_121949" data-name="Trazado 121949" d="M563,164.336a.73.73,0,0,0,.73-.73v-4.3a.73.73,0,0,0-1.46,0v4.3A.73.73,0,0,0,563,164.336Z" fill="#dbd2c4"/>
                </g>
              </g>
            </g>
            <g id="Grupo_88851" data-name="Grupo 88851">
              <g id="Grupo_88848" data-name="Grupo 88848">
                <g id="Grupo_88847" data-name="Grupo 88847">
                  <path id="Trazado_121950" data-name="Trazado 121950" d="M564.818,158.22h4.3a.73.73,0,0,0,0-1.46h-4.3a.73.73,0,0,0,0,1.46Z" fill="#dbd2c4"/>
                </g>
              </g>
              <g id="Grupo_88850" data-name="Grupo 88850">
                <g id="Grupo_88849" data-name="Grupo 88849">
                  <path id="Trazado_121951" data-name="Trazado 121951" d="M556.884,158.22h4.3a.73.73,0,0,0,0-1.46h-4.3a.73.73,0,0,0,0,1.46Z" fill="#dbd2c4"/>
                </g>
              </g>
            </g>
          </g>
        </g>
      </g>
      <g id="Grupo_88857" data-name="Grupo 88857">
        <ellipse id="Elipse_4746" data-name="Elipse 4746" cx="55.935" cy="6.998" rx="55.935" ry="6.998" transform="translate(343.184 333.406)" fill="#dbd2c4"/>
        <g id="Grupo_88856" data-name="Grupo 88856">
          <g id="Grupo_88855" data-name="Grupo 88855">
            <path id="Trazado_121952" data-name="Trazado 121952" d="M417.835,245.533c.255.1.51.206.76.322q1.3.542,2.551,1.154a49.671,49.671,0,0,1,16.275,12.719c.043.053.089.1.133.154.468.561.924,1.137,1.364,1.717a.025.025,0,0,1,.009.014,50.009,50.009,0,0,1,6.7,11.879c.344.868.664,1.746.952,2.626a49.758,49.758,0,0,1-.561,33.229c-.157.44-.327.874-.5,1.306s-.353.863-.544,1.289a49.761,49.761,0,0,1-22.654,24.317c-.819.434-1.658.844-2.508,1.23a49.879,49.879,0,0,1-36.008,2.079c-.882-.28-1.761-.6-2.638-.938-.26-.09-.515-.193-.77-.3a49.865,49.865,0,0,1-27.089-26.276c-.379-.856-.731-1.727-1.061-2.6a49.834,49.834,0,0,1-.034-34.933c.157-.439.327-.873.5-1.3s.354-.864.545-1.289a49.844,49.844,0,0,1,24.264-25.13c.846-.4,1.705-.786,2.571-1.14A49.865,49.865,0,0,1,417.835,245.533Z" fill="#bb5915"/>
            <path id="Trazado_121953" data-name="Trazado 121953" d="M353.261,271.927l92.762,37.42c-.157.44-.327.874-.5,1.306s-.353.863-.544,1.289l-92.762-37.421c.157-.439.327-.873.5-1.3S353.07,272.352,353.261,271.927Z" fill="#352a24"/>
            <path id="Trazado_121954" data-name="Trazado 121954" d="M418.6,245.855q1.3.542,2.551,1.154l-37.339,92.559c-.882-.28-1.761-.6-2.638-.938Z" fill="#352a24"/>
            <path id="Trazado_121955" data-name="Trazado 121955" d="M380.1,245.657a45.624,45.624,0,0,1,3.184,38.38c-.162.437-.327.873-.5,1.305s-.358.861-.545,1.289a45.366,45.366,0,0,1-13.484,17.439,45.873,45.873,0,0,1-15.439,7.988c-.379-.856-.731-1.727-1.061-2.6a43.081,43.081,0,0,0,14.36-7.258,42.634,42.634,0,0,0,13.03-16.612c.187-.427.37-.856.545-1.288s.34-.868.5-1.306a42.848,42.848,0,0,0-3.161-36.193C378.371,246.394,379.23,246.011,380.1,245.657Z" fill="#352a24"/>
            <path id="Trazado_121956" data-name="Trazado 121956" d="M445.632,273.492c.344.868.664,1.746.952,2.626q-1.839.631-3.611,1.424a42.7,42.7,0,0,0-21.741,21.8c-.188.427-.371.855-.545,1.288s-.34.868-.5,1.306a42.631,42.631,0,0,0-2.611,15.32,43.128,43.128,0,0,0,4.749,19c-.819.434-1.658.844-2.508,1.23a45.95,45.95,0,0,1-5.009-19.173,45.409,45.409,0,0,1,2.785-17.422c.162-.437.327-.873.5-1.305s.358-.862.545-1.289a45.476,45.476,0,0,1,24.3-23.782Q444.274,273.962,445.632,273.492Z" fill="#352a24"/>
          </g>
          <path id="Trazado_121957" data-name="Trazado 121957" d="M438.927,261.613a50.009,50.009,0,0,1,6.7,11.879c.344.868.664,1.746.952,2.626a49.758,49.758,0,0,1-.561,33.229c-.157.44-.327.874-.5,1.306s-.353.863-.544,1.289a49.761,49.761,0,0,1-22.654,24.317c-.819.434-1.658.844-2.508,1.23a49.879,49.879,0,0,1-36.008,2.079c-.882-.28-1.761-.6-2.638-.938-.26-.09-.515-.193-.77-.3a49.865,49.865,0,0,1-27.089-26.276c-.379-.856-.731-1.727-1.061-2.6a49.936,49.936,0,0,1-2.464-25.919A120.846,120.846,0,0,0,366.609,302.2c.692.626,1.41,1.252,2.14,1.874,6.06,5.164,13.257,10.078,21.1,13.05.876.333,1.757.643,2.647.917a43.256,43.256,0,0,0,5.139,1.3,33.962,33.962,0,0,0,17.174-1.025q1.416-.462,2.768-1.055a38.606,38.606,0,0,0,14.056-10.7c.622-.745,1.226-1.507,1.8-2.291a48.757,48.757,0,0,0,9.544-26.725c.035-1.021.021-2.033-.032-3.024A24.794,24.794,0,0,0,438.927,261.613Z" fill="#bb5915" opacity="0.5" style="mix-blend-mode: multiply;isolation: isolate"/>
        </g>
      </g>
      <g id="Grupo_88892" data-name="Grupo 88892">
        <ellipse id="Elipse_4747" data-name="Elipse 4747" cx="81.461" cy="10.595" rx="81.461" ry="10.595" transform="translate(426.619 328.844)" fill="#dbd2c4"/>
        <g id="Grupo_88891" data-name="Grupo 88891">
          <g id="Grupo_88860" data-name="Grupo 88860">
            <g id="Grupo_88858" data-name="Grupo 88858">
              <rect id="Rectángulo_35575" data-name="Rectángulo 35575" width="24.478" height="37.719" rx="7.685" transform="translate(455.119 160.884)" fill="#2a4351"/>
            </g>
            <g id="Grupo_88859" data-name="Grupo 88859">
              <rect id="Rectángulo_35576" data-name="Rectángulo 35576" width="24.478" height="37.719" rx="7.685" transform="translate(536.013 160.884)" fill="#2a4351"/>
            </g>
          </g>
          <g id="Grupo_88861" data-name="Grupo 88861">
            <path id="Rectángulo_35577" data-name="Rectángulo 35577" d="M37.527,0H91.015a37.527,37.527,0,0,1,37.527,37.527V164.04a14.787,14.787,0,0,1-14.787,14.787H14.787A14.787,14.787,0,0,1,0,164.04V37.527A37.527,37.527,0,0,1,37.527,0Z" transform="translate(443.534 164.336)" fill="#416675"/>
          </g>
          <g id="Grupo_88865" data-name="Grupo 88865">
            <g id="Grupo_88862" data-name="Grupo 88862">
              <path id="Trazado_121958" data-name="Trazado 121958" d="M566.09,213.609a1,1,0,0,1-1-1c0-.652-.023-1.311-.057-1.96a1,1,0,0,1,2-.1c.036.68.056,1.371.06,2.053a1,1,0,0,1-1,1.009Z" fill="#2a4351"/>
            </g>
            <g id="Grupo_88863" data-name="Grupo 88863">
              <path id="Trazado_121959" data-name="Trazado 121959" d="M565.789,208.795a1,1,0,0,1-.995-.884c-.155-1.3-.375-2.6-.652-3.872a1,1,0,1,1,1.96-.428c.291,1.335.522,2.7.684,4.061a1,1,0,0,1-.877,1.116C565.869,208.792,565.829,208.795,565.789,208.795Zm-115.963-.038a1,1,0,0,1-1-1.123c.164-1.36.4-2.726.688-4.061a1,1,0,0,1,1.96.429c-.279,1.273-.5,2.576-.656,3.872A1,1,0,0,1,449.826,208.757Zm114.6-6.659a1,1,0,0,1-.964-.724c-.363-1.254-.791-2.5-1.273-3.715a1,1,0,0,1,1.865-.741c.505,1.27.954,2.582,1.336,3.9a1,1,0,0,1-.685,1.242A.965.965,0,0,1,564.43,202.1Zm-113.238-.036a1,1,0,0,1-.964-1.283c.382-1.313.832-2.624,1.339-3.9a1,1,0,0,1,1.864.742c-.483,1.213-.912,2.462-1.276,3.713A1,1,0,0,1,451.192,202.062ZM562,195.708a1,1,0,0,1-.906-.571c-.562-1.175-1.187-2.339-1.861-3.46a1,1,0,0,1,1.721-1.033c.7,1.175,1.362,2.4,1.95,3.629a1,1,0,0,1-.473,1.337A.989.989,0,0,1,562,195.708Zm-108.371-.028a1,1,0,0,1-.9-1.436c.591-1.235,1.248-2.455,1.953-3.627a1,1,0,0,1,1.719,1.035c-.672,1.117-1.3,2.28-1.863,3.458A1,1,0,0,1,453.627,195.68ZM558.561,189.8a1,1,0,0,1-.824-.43c-.745-1.071-1.551-2.118-2.4-3.114a1,1,0,0,1,1.531-1.3c.885,1.044,1.729,2.142,2.51,3.265a1,1,0,0,1-.822,1.576Zm-101.495-.023a1,1,0,0,1-.822-1.577c.782-1.122,1.627-2.22,2.512-3.263a1,1,0,0,1,1.53,1.3c-.844.994-1.65,2.042-2.4,3.112A1,1,0,0,1,457.066,189.776Zm97.15-5.255a1,1,0,0,1-.72-.3c-.907-.937-1.871-1.841-2.864-2.688a1,1,0,0,1,1.3-1.527c1.041.889,2.051,1.837,3,2.819a1,1,0,0,1-.721,1.7Zm-92.8-.019a1,1,0,0,1-.721-1.7c.953-.982,1.963-1.93,3-2.818a1,1,0,0,1,1.3,1.527c-.993.847-1.957,1.751-2.865,2.687A1,1,0,0,1,461.413,184.5Zm87.669-4.491a1,1,0,0,1-.6-.2c-1.047-.78-2.143-1.518-3.258-2.194a1,1,0,0,1,1.041-1.715c1.169.708,2.318,1.482,3.416,2.3a1,1,0,0,1-.6,1.808Zm-82.53-.017a1,1,0,0,1-.6-1.808c1.1-.817,2.248-1.59,3.418-2.3a1,1,0,0,1,1.039,1.717c-1.116.675-2.212,1.412-3.261,2.191A.993.993,0,0,1,466.552,179.994Zm76.738-3.607a1,1,0,0,1-.461-.112c-1.157-.6-2.358-1.151-3.569-1.637a1,1,0,0,1,.749-1.862c1.269.51,2.529,1.088,3.743,1.717a1,1,0,0,1-.462,1.894Zm-70.94-.015a1,1,0,0,1-.461-1.894c1.215-.628,2.475-1.205,3.745-1.715a1,1,0,1,1,.747,1.862c-1.211.486-2.412,1.036-3.57,1.635A1,1,0,0,1,472.35,176.372Zm64.64-2.622a.99.99,0,0,1-.31-.05c-1.239-.4-2.513-.751-3.788-1.035a1,1,0,1,1,.436-1.958c1.337.3,2.674.662,3.973,1.086a1,1,0,0,1-.311,1.957Zm-58.331-.013a1,1,0,0,1-.309-1.957c1.3-.422,2.637-.786,3.975-1.082a1,1,0,0,1,.433,1.959c-1.275.282-2.55.629-3.788,1.031A.986.986,0,0,1,478.659,173.737Zm51.684-1.566a1.136,1.136,0,0,1-.153-.011c-1.286-.2-2.6-.334-3.906-.408a1,1,0,1,1,.114-2c1.368.077,2.746.221,4.095.427a1,1,0,0,1-.15,2Zm-45.035-.006a1,1,0,0,1-.149-1.995c1.348-.205,2.726-.347,4.1-.423a1,1,0,1,1,.111,2c-1.306.073-2.62.208-3.906.4A.972.972,0,0,1,485.308,172.165Zm38.217-.48H519.5a1,1,0,1,1,0-2.006h4.026a1,1,0,0,1,0,2.006Zm-6.844,0h-4.025a1,1,0,0,1,0-2.006h4.025a1,1,0,0,1,0,2.006Zm-6.843,0h-4.025a1,1,0,0,1,0-2.006h4.025a1,1,0,1,1,0,2.006Zm-6.843,0H498.97a1,1,0,0,1,0-2.006h4.025a1,1,0,0,1,0,2.006Zm-6.843,0h-4.026a1,1,0,1,1,0-2.006h4.026a1,1,0,0,1,0,2.006Z" fill="#2a4351"/>
            </g>
            <g id="Grupo_88864" data-name="Grupo 88864">
              <path id="Trazado_121960" data-name="Trazado 121960" d="M449.52,213.609h-.006a1,1,0,0,1-1-1.009c0-.682.024-1.373.06-2.053a1,1,0,0,1,2,.1c-.033.649-.053,1.308-.056,1.96A1,1,0,0,1,449.52,213.609Z" fill="#2a4351"/>
            </g>
          </g>
          <g id="Grupo_88867" data-name="Grupo 88867">
            <g id="Grupo_88866" data-name="Grupo 88866">
              <path id="Trazado_121961" data-name="Trazado 121961" d="M489.817,167.15a20.148,20.148,0,0,1,35.977,0,9.575,9.575,0,0,0,8.263,0,27.777,27.777,0,0,0-52.5,0A9.581,9.581,0,0,0,489.817,167.15Z" fill="#e6972d"/>
            </g>
          </g>
          <g id="Grupo_88870" data-name="Grupo 88870">
            <g id="Grupo_88868" data-name="Grupo 88868">
              <rect id="Rectángulo_35578" data-name="Rectángulo 35578" width="1.117" height="10.387" transform="translate(501.529 171.626)" fill="#352a24"/>
            </g>
            <g id="Grupo_88869" data-name="Grupo 88869">
              <rect id="Rectángulo_35579" data-name="Rectángulo 35579" width="4.08" height="10.701" rx="1.167" transform="translate(500.047 180.943)" fill="#352a24"/>
            </g>
          </g>
          <g id="Grupo_88873" data-name="Grupo 88873">
            <g id="Grupo_88871" data-name="Grupo 88871">
              <rect id="Rectángulo_35580" data-name="Rectángulo 35580" width="1.117" height="10.387" transform="translate(512.965 171.626)" fill="#352a24"/>
            </g>
            <g id="Grupo_88872" data-name="Grupo 88872">
              <rect id="Rectángulo_35581" data-name="Rectángulo 35581" width="4.08" height="10.701" rx="1.167" transform="translate(511.484 180.943)" fill="#352a24"/>
            </g>
          </g>
          <g id="Grupo_88877" data-name="Grupo 88877">
            <g id="Grupo_88874" data-name="Grupo 88874">
              <rect id="Rectángulo_35582" data-name="Rectángulo 35582" width="101.525" height="75.378" rx="8.628" transform="translate(457.043 250.4)" fill="#2a4351"/>
            </g>
            <g id="Grupo_88875" data-name="Grupo 88875" opacity="0.3" style="mix-blend-mode: multiply;isolation: isolate">
              <rect id="Rectángulo_35583" data-name="Rectángulo 35583" width="101.525" height="10.714" transform="translate(457.043 271.468)" fill="#2a4351"/>
            </g>
            <g id="Grupo_88876" data-name="Grupo 88876">
              <path id="Rectángulo_35584" data-name="Rectángulo 35584" d="M7.068,0H98.3a7.068,7.068,0,0,1,7.068,7.068v14.88a2.762,2.762,0,0,1-2.762,2.762H2.762A2.762,2.762,0,0,1,0,21.949V7.068A7.068,7.068,0,0,1,7.068,0Z" transform="translate(455.119 249.88)" fill="#e6972d"/>
            </g>
          </g>
          <g id="Grupo_88878" data-name="Grupo 88878">
            <rect id="Rectángulo_35585" data-name="Rectángulo 35585" width="101.448" height="8.399" rx="2.402" transform="translate(457.081 205.297)" fill="#e6972d"/>
          </g>
          <g id="Grupo_88879" data-name="Grupo 88879">
            <path id="Trazado_121962" data-name="Trazado 121962" d="M554.679,210.5h-4.013a1,1,0,0,1,0-2.006h4.013a1,1,0,1,1,0,2.006Zm-6.822,0h-4.012a1,1,0,1,1,0-2.006h4.012a1,1,0,1,1,0,2.006Zm-6.821,0h-4.013a1,1,0,1,1,0-2.006h4.013a1,1,0,0,1,0,2.006Zm-6.822,0H530.2a1,1,0,0,1,0-2.006h4.013a1,1,0,0,1,0,2.006Zm-6.822,0h-4.013a1,1,0,1,1,0-2.006h4.013a1,1,0,0,1,0,2.006Zm-6.822,0h-4.013a1,1,0,0,1,0-2.006h4.013a1,1,0,0,1,0,2.006Zm-6.822,0h-4.013a1,1,0,0,1,0-2.006h4.013a1,1,0,0,1,0,2.006Zm-6.822,0h-4.013a1,1,0,0,1,0-2.006h4.013a1,1,0,0,1,0,2.006Zm-6.822,0h-4.012a1,1,0,1,1,0-2.006H500.1a1,1,0,1,1,0,2.006Zm-6.821,0H489.27a1,1,0,1,1,0-2.006h4.013a1,1,0,1,1,0,2.006Zm-6.822,0h-4.013a1,1,0,0,1,0-2.006h4.013a1,1,0,0,1,0,2.006Zm-6.822,0h-4.013a1,1,0,1,1,0-2.006h4.013a1,1,0,0,1,0,2.006Zm-6.822,0H468.8a1,1,0,0,1,0-2.006h4.013a1,1,0,1,1,0,2.006Zm-6.822,0h-4.013a1,1,0,0,1,0-2.006h4.013a1,1,0,0,1,0,2.006Z" fill="#c36a25"/>
          </g>
          <g id="Grupo_88880" data-name="Grupo 88880">
            <path id="Trazado_121963" data-name="Trazado 121963" d="M554.679,257.284h-4.013a1,1,0,0,1,0-2.006h4.013a1,1,0,1,1,0,2.006Zm-6.822,0h-4.012a1,1,0,1,1,0-2.006h4.012a1,1,0,1,1,0,2.006Zm-6.821,0h-4.013a1,1,0,1,1,0-2.006h4.013a1,1,0,0,1,0,2.006Zm-6.822,0H530.2a1,1,0,0,1,0-2.006h4.013a1,1,0,0,1,0,2.006Zm-6.822,0h-4.013a1,1,0,1,1,0-2.006h4.013a1,1,0,0,1,0,2.006Zm-6.822,0h-4.013a1,1,0,0,1,0-2.006h4.013a1,1,0,0,1,0,2.006Zm-6.822,0h-4.013a1,1,0,0,1,0-2.006h4.013a1,1,0,0,1,0,2.006Zm-6.822,0h-4.013a1,1,0,0,1,0-2.006h4.013a1,1,0,0,1,0,2.006Zm-6.822,0h-4.012a1,1,0,1,1,0-2.006H500.1a1,1,0,1,1,0,2.006Zm-6.821,0H489.27a1,1,0,1,1,0-2.006h4.013a1,1,0,1,1,0,2.006Zm-6.822,0h-4.013a1,1,0,0,1,0-2.006h4.013a1,1,0,0,1,0,2.006Zm-6.822,0h-4.013a1,1,0,1,1,0-2.006h4.013a1,1,0,0,1,0,2.006Zm-6.822,0H468.8a1,1,0,0,1,0-2.006h4.013a1,1,0,1,1,0,2.006Zm-6.822,0h-4.013a1,1,0,0,1,0-2.006h4.013a1,1,0,0,1,0,2.006Z" fill="#c36a25"/>
          </g>
          <g id="Grupo_88881" data-name="Grupo 88881">
            <path id="Trazado_121964" data-name="Trazado 121964" d="M509.938,221.631v23.333L521.6,233.3Z" fill="#2a4351"/>
          </g>
          <g id="Grupo_88882" data-name="Grupo 88882">
            <path id="Trazado_121965" data-name="Trazado 121965" d="M507.392,221.631v23.333L495.725,233.3Z" fill="#2a4351"/>
          </g>
          <g id="Grupo_88886" data-name="Grupo 88886">
            <g id="Grupo_88883" data-name="Grupo 88883">
              <path id="Trazado_121966" data-name="Trazado 121966" d="M572.076,257.286v61.606a19.139,19.139,0,0,0,19.142-19.142V276.427A19.139,19.139,0,0,0,572.076,257.286Z" fill="#2a4351"/>
            </g>
            <path id="Trazado_121967" data-name="Trazado 121967" d="M572.077,279.744V318.89a19.054,19.054,0,0,0,6.786-1.24v-37.9h-6.785" fill="#2a4351"/>
            <g id="Grupo_88884" data-name="Grupo 88884">
              <path id="Rectángulo_35586" data-name="Rectángulo 35586" d="M0,0H22.46a0,0,0,0,1,0,0V22.46a0,0,0,0,1,0,0H12.849A12.849,12.849,0,0,1,0,9.611V0A0,0,0,0,1,0,0Z" transform="translate(594.538 279.746) rotate(180)" fill="#e6972d"/>
            </g>
            <path id="Trazado_121968" data-name="Trazado 121968" d="M578.863,257.3v22.44h-6.786v-22.46h6.047C578.369,257.284,578.618,257.292,578.863,257.3Z" fill="#c36a25"/>
            <g id="Grupo_88885" data-name="Grupo 88885" opacity="0.3" style="mix-blend-mode: multiply;isolation: isolate">
              <rect id="Rectángulo_35587" data-name="Rectángulo 35587" width="19.141" height="5.646" transform="translate(572.076 279.746)" fill="#2a4351"/>
            </g>
          </g>
          <g id="Grupo_88890" data-name="Grupo 88890">
            <g id="Grupo_88887" data-name="Grupo 88887">
              <path id="Trazado_121969" data-name="Trazado 121969" d="M443.534,257.286v61.606a19.139,19.139,0,0,1-19.141-19.142V276.427A19.139,19.139,0,0,1,443.534,257.286Z" fill="#2a4351"/>
            </g>
            <path id="Trazado_121970" data-name="Trazado 121970" d="M443.534,279.744V318.89a19.05,19.05,0,0,1-6.786-1.24v-37.9h6.785" fill="#2a4351"/>
            <g id="Grupo_88888" data-name="Grupo 88888">
              <path id="Rectángulo_35588" data-name="Rectángulo 35588" d="M12.849,0H22.46a0,0,0,0,1,0,0V22.46a0,0,0,0,1,0,0H0a0,0,0,0,1,0,0V12.849A12.849,12.849,0,0,1,12.849,0Z" transform="translate(421.073 257.286)" fill="#e6972d"/>
            </g>
            <path id="Trazado_121971" data-name="Trazado 121971" d="M436.748,257.3v22.44h6.786v-22.46h-6.047C437.242,257.284,436.993,257.292,436.748,257.3Z" fill="#c36a25"/>
            <g id="Grupo_88889" data-name="Grupo 88889" opacity="0.3" style="mix-blend-mode: multiply;isolation: isolate">
              <rect id="Rectángulo_35589" data-name="Rectángulo 35589" width="19.141" height="5.646" transform="translate(424.393 279.746)" fill="#2a4351"/>
            </g>
          </g>
        </g>
      </g>
      <g id="Grupo_88925" data-name="Grupo 88925">
        <g id="Grupo_88924" data-name="Grupo 88924">
          <path id="Trazado_121972" data-name="Trazado 121972" d="M662.951,359.92,648.38,379.04a16.177,16.177,0,0,1-12.868,6.373H533.284l30.49-34.089,92.111-.712-5.69,8.265Z" fill="#dbd2c4"/>
          <g id="Grupo_88923" data-name="Grupo 88923">
            <g id="Grupo_88902" data-name="Grupo 88902">
              <g id="Grupo_88893" data-name="Grupo 88893">
                <path id="Trazado_121973" data-name="Trazado 121973" d="M661.075,351.021c-1.335,4.916-17.2,21.373-20.591,24.854a12.745,12.745,0,0,1-9.641,4.881c-.062.006-.124.009-.188.009H552.627a1.811,1.811,0,1,1,0-3.622h77.826a9.132,9.132,0,0,0,0-18.263H552.627a1.812,1.812,0,1,1,0-3.623h.113l-.3-.616L585.1,337.214h65.58S664.382,338.837,661.075,351.021Z" fill="#e6972d"/>
              </g>
              <path id="Trazado_121974" data-name="Trazado 121974" d="M639.313,364.018c-.034-.075-.071-.147-.108-.22a9.131,9.131,0,0,0-7.836-4.914q-.452-.045-.913-.045H552.627a1.815,1.815,0,0,1-1.814-1.732h79.643A9.149,9.149,0,0,1,639.313,364.018Z" opacity="0.2"/>
              <g id="Grupo_88894" data-name="Grupo 88894">
                <path id="Trazado_121975" data-name="Trazado 121975" d="M631.1,377.142H552.626V358.88H631.1a9.132,9.132,0,0,1,8.1,4.918h0a9.133,9.133,0,0,1,0,8.426h0A9.132,9.132,0,0,1,631.1,377.142Z" fill="#f0eae0"/>
              </g>
              <g id="Grupo_88901" data-name="Grupo 88901">
                <g id="Grupo_88896" data-name="Grupo 88896">
                  <g id="Grupo_88895" data-name="Grupo 88895">
                    <path id="Trazado_121976" data-name="Trazado 121976" d="M552.626,364.4h77.495a.609.609,0,1,0,0-1.218H552.626Z" fill="#b2a495"/>
                  </g>
                </g>
                <g id="Grupo_88898" data-name="Grupo 88898">
                  <g id="Grupo_88897" data-name="Grupo 88897">
                    <path id="Trazado_121977" data-name="Trazado 121977" d="M552.626,368.62h77.495a.609.609,0,1,0,0-1.218H552.626Z" fill="#b2a495"/>
                  </g>
                </g>
                <g id="Grupo_88900" data-name="Grupo 88900">
                  <g id="Grupo_88899" data-name="Grupo 88899">
                    <path id="Trazado_121978" data-name="Trazado 121978" d="M552.626,372.841h77.495a.609.609,0,1,0,0-1.219H552.626Z" fill="#b2a495"/>
                  </g>
                </g>
              </g>
            </g>
            <g id="Grupo_88912" data-name="Grupo 88912">
              <g id="Grupo_88903" data-name="Grupo 88903">
                <path id="Trazado_121979" data-name="Trazado 121979" d="M661.265,325.362c-1.4,5.155-18.771,23-20.992,25.268a12.743,12.743,0,0,1-9.43,4.617,1.669,1.669,0,0,1-.188.01H552.627a1.811,1.811,0,1,1,0-3.622h77.826a9.132,9.132,0,0,0,0-18.263H552.627a1.812,1.812,0,1,1,0-3.624h.378l-.378-.765,32.661-17.427h65.579S664.572,313.179,661.265,325.362Z" fill="#7a703b"/>
              </g>
              <path id="Trazado_121980" data-name="Trazado 121980" d="M639.31,338.5c-.033-.072-.069-.142-.1-.213a9.128,9.128,0,0,0-7.934-4.916c-.269-.024-.54-.036-.815-.036H552.627a1.813,1.813,0,0,1-1.814-1.732h79.643A9.152,9.152,0,0,1,639.31,338.5Z" opacity="0.2"/>
              <g id="Grupo_88904" data-name="Grupo 88904">
                <path id="Trazado_121981" data-name="Trazado 121981" d="M631.1,351.634H552.626V333.371H631.1a9.131,9.131,0,0,1,8.1,4.919h0a9.133,9.133,0,0,1,0,8.426h0A9.132,9.132,0,0,1,631.1,351.634Z" fill="#f0eae0"/>
              </g>
              <g id="Grupo_88911" data-name="Grupo 88911">
                <g id="Grupo_88906" data-name="Grupo 88906">
                  <g id="Grupo_88905" data-name="Grupo 88905">
                    <path id="Trazado_121982" data-name="Trazado 121982" d="M552.626,338.891h77.5a.609.609,0,1,0,0-1.218h-77.5Z" fill="#b2a495"/>
                  </g>
                </g>
                <g id="Grupo_88908" data-name="Grupo 88908">
                  <g id="Grupo_88907" data-name="Grupo 88907">
                    <path id="Trazado_121983" data-name="Trazado 121983" d="M552.626,343.112h77.5a.609.609,0,1,0,0-1.218h-77.5Z" fill="#b2a495"/>
                  </g>
                </g>
                <g id="Grupo_88910" data-name="Grupo 88910">
                  <g id="Grupo_88909" data-name="Grupo 88909">
                    <path id="Trazado_121984" data-name="Trazado 121984" d="M552.626,347.332h77.5a.609.609,0,1,0,0-1.218h-77.5Z" fill="#b2a495"/>
                  </g>
                </g>
              </g>
            </g>
            <g id="Grupo_88922" data-name="Grupo 88922">
              <g id="Grupo_88913" data-name="Grupo 88913">
                <path id="Trazado_121985" data-name="Trazado 121985" d="M631.1,326.126H552.626V307.863H631.1a9.132,9.132,0,0,1,8.1,4.918h0a9.133,9.133,0,0,1,0,8.426h0A9.131,9.131,0,0,1,631.1,326.126Z" fill="#f0eae0"/>
              </g>
              <g id="Grupo_88914" data-name="Grupo 88914">
                <path id="Trazado_121986" data-name="Trazado 121986" d="M660.164,301c-.948,3.479-9.138,12.708-15.059,19.054-.052.052-.1.112-.164.172-.083.09-.165.172-.239.254-1.837,1.963-3.42,3.613-4.465,4.689a.484.484,0,0,1-.06.059c-.62.643-1.038,1.068-1.18,1.217l-.052.053-.007.007a12.647,12.647,0,0,1-8.094,3.233,1.474,1.474,0,0,1-.187.015h-78.03a1.814,1.814,0,1,1,0-3.629h77.829a9.126,9.126,0,0,0,9.131-9.131,8.894,8.894,0,0,0-.373-2.576.026.026,0,0,0-.008-.022,9.147,9.147,0,0,0-8.75-6.533H552.627a1.816,1.816,0,0,1-1.815-1.733v-.074a1.829,1.829,0,0,1,.71-1.434l.007-.007a2.022,2.022,0,0,1,.538-.284l.022-.008,32.1-17.127h65.577S663.472,288.813,660.164,301Z" fill="#ba4310"/>
              </g>
              <path id="Trazado_121987" data-name="Trazado 121987" d="M572.915,301.15h44.563l3.667-3.667H578.79Z" fill="#961102"/>
              <path id="Trazado_121988" data-name="Trazado 121988" d="M639.587,315.259c0,.179-.007.358-.015.537a.539.539,0,0,0-.007.075,6.5,6.5,0,0,0-.351-1.456.026.026,0,0,0-.008-.022,9.147,9.147,0,0,0-8.75-6.533H552.627a1.816,1.816,0,0,1-1.815-1.733h79.644A9.145,9.145,0,0,1,639.587,315.259Z" opacity="0.2"/>
              <g id="Grupo_88921" data-name="Grupo 88921">
                <g id="Grupo_88916" data-name="Grupo 88916">
                  <g id="Grupo_88915" data-name="Grupo 88915">
                    <path id="Trazado_121989" data-name="Trazado 121989" d="M552.626,313.383h77.495a.609.609,0,1,0,0-1.218H552.626Z" fill="#b2a495"/>
                  </g>
                </g>
                <g id="Grupo_88918" data-name="Grupo 88918">
                  <g id="Grupo_88917" data-name="Grupo 88917">
                    <path id="Trazado_121990" data-name="Trazado 121990" d="M552.626,317.6h77.495a.609.609,0,1,0,0-1.219H552.626Z" fill="#b2a495"/>
                  </g>
                </g>
                <g id="Grupo_88920" data-name="Grupo 88920">
                  <g id="Grupo_88919" data-name="Grupo 88919">
                    <path id="Trazado_121991" data-name="Trazado 121991" d="M552.626,321.824h77.495a.609.609,0,1,0,0-1.218H552.626Z" fill="#b2a495"/>
                  </g>
                </g>
              </g>
            </g>
          </g>
        </g>
      </g>
      <g id="Grupo_88928" data-name="Grupo 88928">
        <path id="Trazado_121992" data-name="Trazado 121992" d="M423.837,373.9c0,2.292-21.713,4.149-48.5,4.149s-48.5-1.857-48.5-4.149,21.712-4.149,48.5-4.149S423.837,371.614,423.837,373.9Z" fill="#dbd2c4"/>
        <g id="Grupo_88927" data-name="Grupo 88927">
          <path id="Trazado_121993" data-name="Trazado 121993" d="M414.386,369.707l-78.41.049a39.206,39.206,0,0,1,78.41-.049Zm-14.2-11.56a27.673,27.673,0,0,0-50.031.031Z" fill="#db9034"/>
          <path id="Trazado_121994" data-name="Trazado 121994" d="M414.386,369.707l-78.41.049a39.206,39.206,0,0,1,78.41-.049ZM402.45,359.645a29.162,29.162,0,0,0-54.551.034Z" fill="#e6972d"/>
          <rect id="Rectángulo_35590" data-name="Rectángulo 35590" width="78.414" height="3.428" transform="translate(335.975 369.732)" fill="#db9034"/>
          <g id="Grupo_88926" data-name="Grupo 88926">
            <rect id="Rectángulo_35591" data-name="Rectángulo 35591" width="0.857" height="3.428" transform="translate(338.971 365.255)" fill="#242f58"/>
            <rect id="Rectángulo_35592" data-name="Rectángulo 35592" width="0.857" height="3.428" transform="translate(344.006 365.252)" fill="#242f58"/>
            <rect id="Rectángulo_35593" data-name="Rectángulo 35593" width="0.857" height="3.428" transform="translate(349.041 365.249)" fill="#242f58"/>
            <rect id="Rectángulo_35594" data-name="Rectángulo 35594" width="0.857" height="3.428" transform="translate(354.076 365.246)" fill="#242f58"/>
            <rect id="Rectángulo_35595" data-name="Rectángulo 35595" width="0.857" height="3.428" transform="translate(359.111 365.242)" fill="#242f58"/>
            <rect id="Rectángulo_35596" data-name="Rectángulo 35596" width="0.857" height="3.428" transform="translate(364.146 365.239)" fill="#242f58"/>
            <rect id="Rectángulo_35597" data-name="Rectángulo 35597" width="0.857" height="3.428" transform="translate(369.18 365.236)" fill="#242f58"/>
            <rect id="Rectángulo_35598" data-name="Rectángulo 35598" width="0.857" height="3.428" transform="translate(374.215 365.233)" fill="#242f58"/>
            <rect id="Rectángulo_35599" data-name="Rectángulo 35599" width="0.857" height="3.428" transform="translate(379.25 365.23)" fill="#242f58"/>
            <rect id="Rectángulo_35600" data-name="Rectángulo 35600" width="0.857" height="3.428" transform="translate(384.284 365.227)" fill="#242f58"/>
            <rect id="Rectángulo_35601" data-name="Rectángulo 35601" width="0.857" height="3.428" transform="translate(389.319 365.223)" fill="#242f58"/>
            <rect id="Rectángulo_35602" data-name="Rectángulo 35602" width="0.857" height="3.428" transform="translate(394.354 365.22)" fill="#242f58"/>
            <rect id="Rectángulo_35603" data-name="Rectángulo 35603" width="0.857" height="3.428" transform="translate(399.389 365.217)" fill="#242f58"/>
            <rect id="Rectángulo_35604" data-name="Rectángulo 35604" width="0.857" height="3.428" transform="translate(404.424 365.214)" fill="#242f58"/>
            <rect id="Rectángulo_35605" data-name="Rectángulo 35605" width="0.857" height="3.428" transform="translate(409.458 365.211)" fill="#242f58"/>
          </g>
        </g>
      </g>
      <g id="Grupo_88932" data-name="Grupo 88932">
        <path id="Trazado_121995" data-name="Trazado 121995" d="M540.62,389.051c0,2.662-27.75,4.821-61.98,4.821s-61.98-2.159-61.98-4.821,27.749-4.822,61.98-4.822S540.62,386.388,540.62,389.051Z" fill="#dbd2c4"/>
        <g id="Grupo_88931" data-name="Grupo 88931">
          <path id="Trazado_121996" data-name="Trazado 121996" d="M527.973,364.342c-.034-1.174-.146-2.343-.29-3.508.007.073-.085-.618-.1-.712-.037-.249-.075-.5-.113-.746-.1-.665-.21-1.329-.314-1.994-.033-.208-.064-.415-.1-.622l-60.976,9.486-41.1,18.638s1.428,4.635,9.673,4.353l33.815-19.04,59.508-5.427C527.98,364.627,527.977,364.485,527.973,364.342Z" fill="#352a24"/>
          <path id="Trazado_121997" data-name="Trazado 121997" d="M491.549,366.246l-59.9-9.319c-.161.795-.308,1.593-.429,2.395-.01.088-.05.387-.059.471-.031.289-.056.578-.077.867-.039.538-.06,1.076-.057,1.615,0,.5.024,1,.068,1.5.011.128.025.257.04.386.05.252.092.506.142.759l57.885,5.279,33.814,19.04c8.245.282,9.673-4.353,9.673-4.353Z" fill="#352a24"/>
          <path id="Trazado_121998" data-name="Trazado 121998" d="M473.97,358.242a19.708,19.708,0,0,0-11.161-4.565h0a50.7,50.7,0,0,0-9.759-.85H427.5a3.731,3.731,0,0,0-3.732,3.731v2.229a4.69,4.69,0,0,0,1.374,3.316l3.088,3.089s-.6,7.344,5.957,17.9v0a10.093,10.093,0,0,0,6.531,5.033,47.5,47.5,0,0,0,9.251.98,27.8,27.8,0,0,0,9.056-1.364,16.4,16.4,0,0,0,7.425-4.974,35.944,35.944,0,0,0,4.223-6.579h0S479.072,362.631,473.97,358.242Zm-9.1,23.215c-3.426,4.126-8.986,5.6-14.9,5.6a45.7,45.7,0,0,1-8.849-.94c-8.733-1.747-10.014-21.193-7.1-25.734s9.781-4.891,9.781-4.891a68.755,68.755,0,0,1,9.254-.615c4.716,0,10.365.508,14.744,2.448C476.194,361.044,470,375.285,464.873,381.457Z" fill="#352a24"/>
          <path id="Trazado_121999" data-name="Trazado 121999" d="M430.7,357.424c0,.328-.624.594-1.395.594s-1.4-.266-1.4-.594.625-.6,1.4-.6S430.7,357.1,430.7,357.424Z" fill="#f0eae0"/>
          <path id="Trazado_122000" data-name="Trazado 122000" d="M464.871,381.456c-3.424,4.128-8.984,5.6-14.9,5.6q-1.626,0-3.274-.142c-1.432-.12-2.867-.31-4.28-.558q-.652-.111-1.3-.242a7.239,7.239,0,0,1-4.1-2.574,12.679,12.679,0,0,1-1.387-2.031,26.865,26.865,0,0,1-2.838-10.034c-.48-4.715.007-9.2,1.219-11.094,2.909-4.541,9.779-4.889,9.779-4.889s2.232-.339,5.5-.513c1.141-.061,2.412-.1,3.757-.1a51.256,51.256,0,0,1,8.359.632,26.893,26.893,0,0,1,6.386,1.816,7.286,7.286,0,0,1,1.235.7,6.074,6.074,0,0,1,.925.79,6.711,6.711,0,0,1,1.687,3.154C473.079,367.833,468.68,376.87,464.871,381.456Z" fill="#f0eae0" opacity="0.5"/>
          <path id="Trazado_122001" data-name="Trazado 122001" d="M461.411,355.507l-25.775,26a26.865,26.865,0,0,1-2.838-10.034l16.5-16.5c1.141-.061,2.412-.1,3.757-.1A51.256,51.256,0,0,1,461.411,355.507Z" fill="#f0eae0" opacity="0.5"/>
          <path id="Trazado_122002" data-name="Trazado 122002" d="M471.644,361.964,446.7,386.913c-1.432-.12-2.867-.31-4.28-.558l27.542-27.545A6.711,6.711,0,0,1,471.644,361.964Z" fill="#f0eae0" opacity="0.5"/>
          <path id="Trazado_122003" data-name="Trazado 122003" d="M487.6,376.186h0a36,36,0,0,0,4.224,6.579,16.4,16.4,0,0,0,7.424,4.974A27.815,27.815,0,0,0,508.3,389.1a47.506,47.506,0,0,0,9.251-.98,10.093,10.093,0,0,0,6.531-5.033v0c6.552-10.556,5.956-17.9,5.956-17.9l3.089-3.089a4.69,4.69,0,0,0,1.374-3.316v-2.229a3.731,3.731,0,0,0-3.732-3.731H505.22a50.715,50.715,0,0,0-9.76.85h0a19.708,19.708,0,0,0-11.161,4.565C479.2,362.631,487.6,376.186,487.6,376.186Zm2.878-18.863c4.378-1.94,10.027-2.448,14.744-2.448a68.755,68.755,0,0,1,9.254.615s6.87.35,9.781,4.891,1.63,23.987-7.1,25.734a45.706,45.706,0,0,1-8.849.94c-5.919,0-11.479-1.472-14.9-5.6C488.275,375.285,482.077,361.044,490.476,357.323Z" fill="#352a24"/>
          <path id="Trazado_122004" data-name="Trazado 122004" d="M527.568,357.424c0,.328.624.594,1.4.594s1.394-.266,1.394-.594-.624-.6-1.394-.6S527.568,357.1,527.568,357.424Z" fill="#f0eae0"/>
          <g id="Grupo_88930" data-name="Grupo 88930" opacity="0.5">
            <g id="Grupo_88929" data-name="Grupo 88929">
              <path id="Trazado_122005" data-name="Trazado 122005" d="M521.249,383.539a7.242,7.242,0,0,1-4.1,2.574,45.511,45.511,0,0,1-8.85.942,27.284,27.284,0,0,1-7.108-.861,17.748,17.748,0,0,1-3.5-1.336,13.813,13.813,0,0,1-3.731-2.767c-.194-.206-.381-.416-.565-.635a28.036,28.036,0,0,1-1.683-2.267,36.418,36.418,0,0,1-4.251-8.624c-1.645-5.012-1.78-10.056,1.777-12.545a7.286,7.286,0,0,1,1.235-.7,34.623,34.623,0,0,1,12.21-2.393c.865-.039,1.716-.055,2.535-.055a68.62,68.62,0,0,1,9.253.616s.235.013.635.061c1.568.187,5.666.926,8.227,3.661a.735.735,0,0,1,.074.074,7.993,7.993,0,0,1,.845,1.093,6.952,6.952,0,0,1,.794,1.961C526.438,367.566,525.554,378.47,521.249,383.539Z" fill="#f0eae0"/>
            </g>
          </g>
          <path id="Trazado_122006" data-name="Trazado 122006" d="M515.108,355.552l-23.394,23.637a36.418,36.418,0,0,1-4.251-8.624l15.222-15.635c.865-.039,1.716-.055,2.535-.055a68.62,68.62,0,0,1,9.253.616S514.708,355.5,515.108,355.552Z" fill="#f0eae0" opacity="0.5"/>
          <path id="Trazado_122007" data-name="Trazado 122007" d="M525.048,362.341,501.2,386.194a17.748,17.748,0,0,1-3.5-1.336l25.642-25.645a.735.735,0,0,1,.074.074,7.993,7.993,0,0,1,.845,1.093A6.952,6.952,0,0,1,525.048,362.341Z" fill="#f0eae0" opacity="0.5"/>
          <path id="Trazado_122008" data-name="Trazado 122008" d="M468.212,354.875a21.688,21.688,0,0,0,10.226,3.143,22.113,22.113,0,0,0,10.984-2.894s-5.911,4-5.424,7.312.9,8.529.9,8.529-3.028-4.091-5.857-4.091-5.576,3.9-5.576,3.9S472.812,358.531,468.212,354.875Z" fill="#352a24"/>
        </g>
      </g>
      <g id="Grupo_89005" data-name="Grupo 89005">
        <g id="Grupo_88937" data-name="Grupo 88937">
          <g id="Grupo_88936" data-name="Grupo 88936">
            <g id="Grupo_88935" data-name="Grupo 88935">
              <g id="Grupo_88934" data-name="Grupo 88934">
                <g id="Grupo_88933" data-name="Grupo 88933">
                  <path id="Trazado_122009" data-name="Trazado 122009" d="M649.977,179.77a31.838,31.838,0,1,1-31.838-31.838A31.838,31.838,0,0,1,649.977,179.77Z" fill="#d9d5be"/>
                </g>
              </g>
            </g>
          </g>
        </g>
        <g id="Grupo_88942" data-name="Grupo 88942">
          <g id="Grupo_88941" data-name="Grupo 88941">
            <g id="Grupo_88940" data-name="Grupo 88940">
              <g id="Grupo_88939" data-name="Grupo 88939">
                <g id="Grupo_88938" data-name="Grupo 88938">
                  <path id="Trazado_122010" data-name="Trazado 122010" d="M649.977,176.523a31.838,31.838,0,1,1-31.838-31.838A31.838,31.838,0,0,1,649.977,176.523Z" fill="#352a24"/>
                </g>
              </g>
            </g>
          </g>
        </g>
        <g id="Grupo_88945" data-name="Grupo 88945">
          <g id="Grupo_88944" data-name="Grupo 88944">
            <g id="Grupo_88943" data-name="Grupo 88943">
              <circle id="Elipse_4748" data-name="Elipse 4748" cx="29.329" cy="29.329" r="29.329" transform="translate(581.547 156.994) rotate(-16.911)" fill="#f0eae0"/>
            </g>
          </g>
        </g>
        <g id="Grupo_88950" data-name="Grupo 88950">
          <g id="Grupo_88949" data-name="Grupo 88949">
            <g id="Grupo_88948" data-name="Grupo 88948">
              <g id="Grupo_88947" data-name="Grupo 88947">
                <g id="Grupo_88946" data-name="Grupo 88946">
                  <path id="Trazado_122011" data-name="Trazado 122011" d="M647.468,176.523q0,.843-.047,1.675a29.33,29.33,0,0,0-58.564,0q-.047-.832-.047-1.675a29.329,29.329,0,0,1,58.658,0Z" fill="#dbd2c4"/>
                </g>
              </g>
            </g>
          </g>
        </g>
        <g id="Grupo_88961" data-name="Grupo 88961">
          <g id="Grupo_88955" data-name="Grupo 88955">
            <g id="Grupo_88954" data-name="Grupo 88954">
              <g id="Grupo_88953" data-name="Grupo 88953">
                <g id="Grupo_88952" data-name="Grupo 88952">
                  <g id="Grupo_88951" data-name="Grupo 88951">
                    <rect id="Rectángulo_35606" data-name="Rectángulo 35606" width="1.098" height="6.117" transform="translate(617.12 149.861)" fill="#352a24"/>
                  </g>
                </g>
              </g>
            </g>
          </g>
          <g id="Grupo_88960" data-name="Grupo 88960">
            <g id="Grupo_88959" data-name="Grupo 88959">
              <g id="Grupo_88958" data-name="Grupo 88958">
                <g id="Grupo_88957" data-name="Grupo 88957">
                  <g id="Grupo_88956" data-name="Grupo 88956">
                    <rect id="Rectángulo_35607" data-name="Rectángulo 35607" width="1.098" height="6.117" transform="translate(617.12 196.912)" fill="#352a24"/>
                  </g>
                </g>
              </g>
            </g>
          </g>
        </g>
        <g id="Grupo_88972" data-name="Grupo 88972">
          <g id="Grupo_88966" data-name="Grupo 88966">
            <g id="Grupo_88965" data-name="Grupo 88965">
              <g id="Grupo_88964" data-name="Grupo 88964">
                <g id="Grupo_88963" data-name="Grupo 88963">
                  <g id="Grupo_88962" data-name="Grupo 88962">
                    <rect id="Rectángulo_35608" data-name="Rectángulo 35608" width="6.117" height="1.098" transform="translate(591.084 175.896)" fill="#352a24"/>
                  </g>
                </g>
              </g>
            </g>
          </g>
          <g id="Grupo_88971" data-name="Grupo 88971">
            <g id="Grupo_88970" data-name="Grupo 88970">
              <g id="Grupo_88969" data-name="Grupo 88969">
                <g id="Grupo_88968" data-name="Grupo 88968">
                  <g id="Grupo_88967" data-name="Grupo 88967">
                    <rect id="Rectángulo_35609" data-name="Rectángulo 35609" width="6.117" height="1.098" transform="translate(638.136 175.896)" fill="#352a24"/>
                  </g>
                </g>
              </g>
            </g>
          </g>
        </g>
        <g id="Grupo_88983" data-name="Grupo 88983">
          <g id="Grupo_88977" data-name="Grupo 88977">
            <g id="Grupo_88976" data-name="Grupo 88976">
              <g id="Grupo_88975" data-name="Grupo 88975">
                <g id="Grupo_88974" data-name="Grupo 88974">
                  <g id="Grupo_88973" data-name="Grupo 88973">
                    <rect id="Rectángulo_35610" data-name="Rectángulo 35610" width="6.117" height="1.098" transform="matrix(0.707, -0.707, 0.707, 0.707, 631.753, 161.584)" fill="#352a24"/>
                  </g>
                </g>
              </g>
            </g>
          </g>
          <g id="Grupo_88982" data-name="Grupo 88982">
            <g id="Grupo_88981" data-name="Grupo 88981">
              <g id="Grupo_88980" data-name="Grupo 88980">
                <g id="Grupo_88979" data-name="Grupo 88979">
                  <g id="Grupo_88978" data-name="Grupo 88978">
                    <rect id="Rectángulo_35611" data-name="Rectángulo 35611" width="6.117" height="1.098" transform="matrix(0.707, -0.707, 0.707, 0.707, 598.483, 194.855)" fill="#352a24"/>
                  </g>
                </g>
              </g>
            </g>
          </g>
        </g>
        <g id="Grupo_88994" data-name="Grupo 88994">
          <g id="Grupo_88988" data-name="Grupo 88988">
            <g id="Grupo_88987" data-name="Grupo 88987">
              <g id="Grupo_88986" data-name="Grupo 88986">
                <g id="Grupo_88985" data-name="Grupo 88985">
                  <g id="Grupo_88984" data-name="Grupo 88984">
                    <rect id="Rectángulo_35612" data-name="Rectángulo 35612" width="1.098" height="6.117" transform="translate(598.483 158.035) rotate(-44.996)" fill="#352a24"/>
                  </g>
                </g>
              </g>
            </g>
          </g>
          <g id="Grupo_88993" data-name="Grupo 88993">
            <g id="Grupo_88992" data-name="Grupo 88992">
              <g id="Grupo_88991" data-name="Grupo 88991">
                <g id="Grupo_88990" data-name="Grupo 88990">
                  <g id="Grupo_88989" data-name="Grupo 88989">
                    <rect id="Rectángulo_35613" data-name="Rectángulo 35613" width="1.098" height="6.117" transform="matrix(0.707, -0.707, 0.707, 0.707, 631.753, 191.306)" fill="#352a24"/>
                  </g>
                </g>
              </g>
            </g>
          </g>
        </g>
        <g id="Grupo_88999" data-name="Grupo 88999">
          <g id="Grupo_88998" data-name="Grupo 88998">
            <g id="Grupo_88997" data-name="Grupo 88997">
              <g id="Grupo_88996" data-name="Grupo 88996">
                <g id="Grupo_88995" data-name="Grupo 88995">
                  <path id="Trazado_122012" data-name="Trazado 122012" d="M627.052,180.736l-9.932-3.911.344-.876,9.933,3.911a.471.471,0,0,1,.266.61h0A.472.472,0,0,1,627.052,180.736Z" fill="#bb5915"/>
                </g>
              </g>
            </g>
          </g>
        </g>
        <g id="Grupo_89004" data-name="Grupo 89004">
          <g id="Grupo_89003" data-name="Grupo 89003">
            <g id="Grupo_89002" data-name="Grupo 89002">
              <g id="Grupo_89001" data-name="Grupo 89001">
                <g id="Grupo_89000" data-name="Grupo 89000">
                  <path id="Trazado_122013" data-name="Trazado 122013" d="M617.764,177.146H601.5a.471.471,0,0,1-.471-.471h0a.47.47,0,0,1,.471-.47H617.2V162.927h.941V176.77A.375.375,0,0,1,617.764,177.146Z" fill="#352a24"/>
                </g>
              </g>
            </g>
          </g>
        </g>
      </g>
    </g>
  </g>
</svg>
