<svg xmlns="http://www.w3.org/2000/svg" width="400.997" height="378.409" viewBox="0 0 400.997 378.409">
  <g id="Grupo_137420" data-name="Grupo 137420" transform="translate(-180 -415.75)">
    <g id="Grupo_78625" data-name="Grupo 78625" transform="translate(192.591 416.25)">
      <path id="Trazado_114225" data-name="Trazado 114225" d="M1484.177,664.955c41.538,89.285,112.607,75.265,214.033,28.08s157.828-89.021,116.29-178.306S1649.212,322.519,1547.788,369.7,1442.641,575.67,1484.177,664.955Z" transform="translate(-1440.858 -353.395)" fill="none" stroke="#ef3c79" stroke-miterlimit="10" stroke-width="2"/>
      <path id="Trazado_114226" data-name="Trazado 114226" d="M1475,595.867c0,98.474,70.351,115.741,182.214,115.741s180.65-14.139,180.65-112.613S1769.078,355,1657.214,355,1475,497.393,1475,595.867Z" transform="translate(-1475 -355)" fill="#e6d3d9" stroke="rgba(0,0,0,0)" stroke-width="1"/>
      <path id="Trazado_114227" data-name="Trazado 114227" d="M1672.817,434.242c0,9.5,6.788,11.167,17.582,11.167s17.432-1.364,17.432-10.865S1701.192,411,1690.4,411,1672.817,424.74,1672.817,434.242Z" transform="translate(-1615.627 -380.555)" fill="#00cbae" stroke="rgba(0,0,0,0)" stroke-width="1"/>
      <path id="Trazado_114228" data-name="Trazado 114228" d="M1459.307,463.242c0,9.5,6.789,11.168,17.582,11.168s17.432-1.364,17.432-10.866S1487.682,440,1476.889,440,1459.307,453.74,1459.307,463.242Z" transform="translate(-1106.911 -307.054)" fill="#0d4aad" stroke="rgba(0,0,0,0)" stroke-width="1"/>
    </g>
    <g id="Grupo_88363" data-name="Grupo 88363" transform="translate(180 483.563)">
      <g id="CtRHaZ" transform="translate(17.04 9.005)">
        <g id="Grupo_88356" data-name="Grupo 88356" transform="translate(0 0)">
          <path id="Trazado_121705" data-name="Trazado 121705" d="M4398.512,3293.021a1,1,0,0,0,1.578.919,1.046,1.046,0,0,1,1.472.011.878.878,0,0,0,1.17-.015.927.927,0,0,0,.362-1.118.966.966,0,0,1,.408-1.334.955.955,0,0,0,.368-1.21.927.927,0,0,0-.982-.653c-.664.061-.941-.241-1.1-.826a.925.925,0,0,0-.956-.689.9.9,0,0,0-.944.694c-.166.68-.573.794-1.207.842a.952.952,0,0,0-.716,1.6C4398.567,3291.816,4398.924,3292.313,4398.512,3293.021Zm76-48.035a.839.839,0,0,0,.663-.278c.713-.975,1.375-1.04,2.162-.034a.908.908,0,0,0,1.409.039.934.934,0,0,0,.068-1.413c-.588-.654-1.217-1.271-1.863-1.869a.921.921,0,0,0-1.339-.024c-.672.62-1.308,1.281-1.937,1.944a.935.935,0,0,0-.114,1.091A.956.956,0,0,0,4474.509,3244.985Z" transform="translate(-4397.682 -3214.324)" fill="#fefefe"/>
          <path id="Trazado_121706" data-name="Trazado 121706" d="M4450.049,3337.34c-.455-.021-.911-.062-1.369-.063q-14.427-.007-28.854-.006c-.007-4.406-.026-8.811-.012-13.217a15.6,15.6,0,0,1,.222-2.311,25.877,25.877,0,0,1,20.948-21.852c.89-.178,1.075.131,1.218.879a7.963,7.963,0,0,0,12.105,5.2,8.252,8.252,0,0,0,3.8-7.253,21.382,21.382,0,0,1,4.7,1.019c-.169.826.278,1.246.983,1.5a20.974,20.974,0,0,1,3.705,1.782c7.133,4.365,11.441,10.67,12.519,18.966.659,5.069.206,10.2.224,15.307q-14.776,0-29.56-.007C4450.47,3337.286,4450.259,3337.321,4450.049,3337.34Z" transform="translate(-4407.874 -3240.852)" fill="#8282fe"/>
          <path id="Trazado_121707" data-name="Trazado 121707" d="M4482.574,3213.791a16.43,16.43,0,0,1-7.419,7.809c-.44.222-.41.413-.193.8a6.462,6.462,0,0,1-6.451,9.606c-.7-.094-.8.243-.957.771-1.819,6.008-5.225,10.786-10.837,13.821a.839.839,0,0,0-.518.91c.044.595.041,1.194.056,1.793a8.25,8.25,0,0,1-3.8,7.253,7.963,7.963,0,0,1-12.1-5.2c-.143-.747-.329-1.057-1.218-.878a25.876,25.876,0,0,0-20.947,21.851,15.682,15.682,0,0,0-.222,2.312c-.014,4.406,0,8.811.011,13.216-.134.664-.478,1.116-1.217,1.022a1.031,1.031,0,0,1-.938-1.187c.1-4.986-.224-9.979.193-14.96a30.2,30.2,0,0,1,1.949-7.72,29.22,29.22,0,0,1,8.63-11.153,27.994,27.994,0,0,1,12.818-5.589c.333-.054.759.024.737-.521-.018-.4.133-.817-.39-1.084a21.875,21.875,0,0,1-8.47-8.045,23.121,23.121,0,0,1-2.508-5.936c-.161-.541-.332-.716-.92-.68-3.526.211-5.647-1.157-7.051-4.482a6.46,6.46,0,0,1,1.754-6.587,1.16,1.16,0,0,0,.386-.931,34.747,34.747,0,0,1,.524-7.459,16.079,16.079,0,0,1,1.08-3.656,26.367,26.367,0,0,1,3.724-6.368,25.8,25.8,0,0,1,14.234-9,25.107,25.107,0,0,1,8.916-.443c.791.1,1.23.455,1.252,1.269-.243.815-.85.94-1.583.846a23.411,23.411,0,0,0-5.478-.047,23.093,23.093,0,0,0-20.522,22.256c-.015.625-.288,1.411.133,1.822.257.251,1.055-.016,1.6-.107.589-.1,1.3.444,1.7,0a4.91,4.91,0,0,0,.614-1.766.542.542,0,0,1,.031-.1c.307-.547.167-.851-.478-.9a4.369,4.369,0,0,1-.517-.1c-.723-.149-1.333-.458-1.144-1.326.183-.839.806-.926,1.564-.752a34.384,34.384,0,0,0,5.533.8,32.738,32.738,0,0,0,17.554-3.6.871.871,0,0,0,.554-1.129,15.387,15.387,0,0,1,.086-6.186,16.834,16.834,0,0,1,4.75-8.417,17.1,17.1,0,0,1,9.831-4.154,16.1,16.1,0,0,1,16.835,13.947A18.116,18.116,0,0,1,4482.574,3213.791Zm-14.026,13.125c-.084.762-.145,1.528-.26,2.287-.075.5.1.654.593.712a4.256,4.256,0,0,0,4.736-4.053,3.862,3.862,0,0,0-.617-2.586.818.818,0,0,0-1.1-.448c-1.1.292-2.695.063-3.239.734C4468.1,3224.257,4468.545,3225.765,4468.548,3226.916Zm-11.075-7.4.007.005a18.271,18.271,0,0,1-3.812-4.973c-.7-1.432-.727-1.448-2.146-.729a46.519,46.519,0,0,1-7.671,2.714c-.348.025-.7.019-1.042.077a35.012,35.012,0,0,1-9.351.422c-2.007-.2-2.007-.194-2.542,1.83-2.177,8.147-.892,15.6,4.761,21.993a16.278,16.278,0,0,0,20.887,3.4c6.923-4.148,10.42-12.462,9.807-20.456a.547.547,0,0,0-.567-.592,23.943,23.943,0,0,1-3.881-.95l.015.007-.175-.115a22.109,22.109,0,0,1-4.1-2.489Zm-15.124,30.675a5.84,5.84,0,0,0,11.658,0V3247.9c-.059-.015-.1-.035-.127-.029-.271.061-.543.118-.812.19a18.061,18.061,0,0,1-8.754.241C4442.155,3247.828,4442.15,3247.848,4442.349,3250.188Zm25.585-56.58a13.789,13.789,0,1,0,13.785,13.792A13.814,13.814,0,0,0,4467.934,3193.608Zm-41.006,36.321c1.212.018,1.211-.009,1.063-1.241a22.394,22.394,0,0,1,.025-6.217c.158-.982-.128-1.255-1.04-1.239a4.431,4.431,0,0,0-4.316,4.343A4.349,4.349,0,0,0,4426.928,3229.929Z" transform="translate(-4406.025 -3191.431)"/>
          <path id="Trazado_121708" data-name="Trazado 121708" d="M4464.938,3198.115a16.841,16.841,0,0,0-4.75,8.417,15.406,15.406,0,0,0-.086,6.187.87.87,0,0,1-.552,1.13,32.749,32.749,0,0,1-17.555,3.6,34.247,34.247,0,0,1-5.53-.8c-.761-.174-1.382-.088-1.565.751-.189.869.421,1.177,1.143,1.326a4.06,4.06,0,0,0,.518.1c.645.047.783.351.477.9a1.014,1.014,0,0,0-.031.1,4.91,4.91,0,0,1-.613,1.765c-.4.443-1.111-.1-1.7,0-.546.092-1.345.357-1.6.106-.42-.411-.147-1.2-.132-1.822a23.09,23.09,0,0,1,20.521-22.255,23.4,23.4,0,0,1,5.478.046c.734.094,1.34-.031,1.584-.846A22.439,22.439,0,0,1,4464.938,3198.115Z" transform="translate(-4413.884 -3193.914)" fill="#fd8a01"/>
          <path id="Trazado_121709" data-name="Trazado 121709" d="M4398.512,3333.141c.412-.707.055-1.206-.552-1.776a.952.952,0,0,1,.716-1.606c.634-.047,1.042-.162,1.207-.84a.9.9,0,0,1,.944-.7.925.925,0,0,1,.956.69c.164.586.441.886,1.1.827a.927.927,0,0,1,.982.652.956.956,0,0,1-.368,1.211.966.966,0,0,0-.408,1.334.928.928,0,0,1-.362,1.119.879.879,0,0,1-1.17.014,1.046,1.046,0,0,0-1.472-.01A1,1,0,0,1,4398.512,3333.141Z" transform="translate(-4397.682 -3254.444)" fill="#fd8a01"/>
          <path id="Trazado_121710" data-name="Trazado 121710" d="M4539.207,3244.985a.956.956,0,0,1-.951-.544.934.934,0,0,1,.113-1.091c.63-.663,1.265-1.323,1.938-1.944a.92.92,0,0,1,1.338.024c.644.6,1.276,1.215,1.861,1.869a.933.933,0,0,1-.065,1.413.907.907,0,0,1-1.409-.039c-.785-1.006-1.449-.941-2.161.034A.842.842,0,0,1,4539.207,3244.985Z" transform="translate(-4462.38 -3214.324)" fill="#fd8a01"/>
          <path id="Trazado_121711" data-name="Trazado 121711" d="M4536.5,3259.942a1.186,1.186,0,0,1-.248-.193c-.718-.968-1.4-1.173-2.246-.077a.86.86,0,0,1-1.362.13,1.116,1.116,0,0,1-.083-1.679c.52-.562,1.055-1.109,1.583-1.665a1.251,1.251,0,0,1,2,.132c.421.467.885.9,1.334,1.339.4.391.7.83.409,1.395A1.067,1.067,0,0,1,4536.5,3259.942Z" transform="translate(-4459.654 -3221.184)" fill="#8282fe"/>
          <path id="Trazado_121712" data-name="Trazado 121712" d="M4535.112,3371.711c-.135.077-.272.154-.409.229l-.044-.056.382-.254Z" transform="translate(-4460.779 -3274.438)" fill="#fdc498"/>
          <path id="Trazado_121713" data-name="Trazado 121713" d="M4412.779,3316.948a1.025,1.025,0,0,1-1.5.94,2.863,2.863,0,0,1-.789-.685c-.4-.481-.731-.432-1.1.024a3.352,3.352,0,0,1-.525.512,1.009,1.009,0,0,1-1.416-1.438c.594-.646,1.222-1.262,1.863-1.86a.808.808,0,0,1,1.066-.13,10.478,10.478,0,0,1,2.292,2.291A1.009,1.009,0,0,1,4412.779,3316.948Z" transform="translate(-4402.038 -3247.967)" fill="#fd8a01"/>
          <path id="Trazado_121714" data-name="Trazado 121714" d="M4518.825,3338.309l-.383.255c-.8.105-1.37-.128-1.518-1-.018-5.105.437-10.238-.224-15.307-1.078-8.3-5.387-14.6-12.52-18.965a20.909,20.909,0,0,0-3.707-1.782c-.7-.258-1.152-.678-.981-1.5.392-.979,1.105-.741,1.813-.465a27.233,27.233,0,0,1,10.358,7.075,27.736,27.736,0,0,1,7.423,19.17c0,1.09.019,2.181.032,3.271-.013,2.614-.03,5.228-.032,7.842A2.679,2.679,0,0,1,4518.825,3338.309Z" transform="translate(-4444.563 -3241.118)"/>
          <path id="Trazado_121715" data-name="Trazado 121715" d="M4541.625,3322.122c.4-.672-.039-1.089-.547-1.594a1.049,1.049,0,0,1,.735-1.781c.586-.068.97-.174,1.137-.8a1,1,0,0,1,1.048-.727,1.037,1.037,0,0,1,1.017.786.872.872,0,0,0,.977.718,1.135,1.135,0,0,1,1.12.812,1.035,1.035,0,0,1-.5,1.264.765.765,0,0,0-.34,1.065,1.049,1.049,0,0,1-.376,1.3,1.1,1.1,0,0,1-1.421.075,1.039,1.039,0,0,0-1.32,0C4542.36,3323.692,4541.6,3323.136,4541.625,3322.122Z" transform="translate(-4463.593 -3249.375)" fill="#8282fe"/>
          <path id="Trazado_121716" data-name="Trazado 121716" d="M4473.985,3240.973a23.973,23.973,0,0,0,3.88.95.547.547,0,0,1,.568.593c.613,7.993-2.885,16.307-9.806,20.456a16.281,16.281,0,0,1-20.888-3.4c-5.653-6.392-6.938-13.848-4.762-21.995a11.665,11.665,0,0,0,4.588.008,29.858,29.858,0,0,0,8.348-2.336,46.854,46.854,0,0,0,7.672-2.714c1.418-.72,1.448-.7,2.144.729a18.3,18.3,0,0,0,3.814,4.973,10.26,10.26,0,0,0-4.751.64c-.625.242-1.024.671-.762,1.385a1.027,1.027,0,0,0,1.46.618c.2-.067.4-.144.6-.2a5.773,5.773,0,0,1,5.747,1.3c.439.4.806.947,1.526.621S4474.058,3241.622,4473.985,3240.973Zm-21.408-2.747a7.553,7.553,0,0,0-5.711,2.513,1.054,1.054,0,0,0-.081,1.594.965.965,0,0,0,1.5-.014,5.649,5.649,0,0,1,6.636-1.466c.7.26,1.277.13,1.538-.62.247-.717-.171-1.133-.8-1.367A8.479,8.479,0,0,0,4452.577,3238.226Zm-.577,8.685c-.008,1.214.455,1.872,1.339,1.889.86.016,1.375-.625,1.392-1.732.021-1.314-.428-1.933-1.393-1.918C4452.443,3245.164,4452.01,3245.735,4452,3246.911Zm16.481.09c0-1.25-.429-1.846-1.351-1.852s-1.379.588-1.378,1.827c0,1.188.514,1.851,1.407,1.823C4468.012,3248.773,4468.476,3248.141,4468.482,3247Z" transform="translate(-4418.087 -3210.15)" fill="#fdc498"/>
          <path id="Trazado_121717" data-name="Trazado 121717" d="M4500.673,3195.466a13.788,13.788,0,1,1-13.812,13.747A13.854,13.854,0,0,1,4500.673,3195.466Zm-2.01,8.968.02-.02c-3.248.306-5.656,2.052-7.683,4.461-.267.316-.169.565.051.834a11.609,11.609,0,0,0,7.815,4.477,5.994,5.994,0,0,0,3.424.016,11.579,11.579,0,0,0,8.017-4.554.5.5,0,0,0,.026-.737,11.276,11.276,0,0,0-7.687-4.5,7.257,7.257,0,0,0-3.467-.15C4498.981,3204.25,4498.771,3204.19,4498.663,3204.434Z" transform="translate(-4438.761 -3193.289)" fill="#fd8a01"/>
          <path id="Trazado_121718" data-name="Trazado 121718" d="M4476.689,3300.37a5.84,5.84,0,0,1-11.659,0A17.931,17.931,0,0,0,4476.689,3300.37Z" transform="translate(-4428.707 -3241.612)" fill="#fdc498"/>
          <path id="Trazado_121719" data-name="Trazado 121719" d="M4432.795,3255.379a4.349,4.349,0,0,1-4.268-4.354,4.432,4.432,0,0,1,4.316-4.342c.912-.017,1.2.257,1.04,1.24a22.355,22.355,0,0,0-.026,6.217C4434.007,3255.371,4434.007,3255.4,4432.795,3255.379Z" transform="translate(-4411.891 -3216.883)" fill="#fdc498"/>
          <path id="Trazado_121720" data-name="Trazado 121720" d="M4476.621,3298.394a17.935,17.935,0,0,1-11.659,0c-.2-2.34-.192-2.36,1.964-1.881a18.062,18.062,0,0,0,8.754-.241c.269-.072.541-.13.812-.19.031-.008.069.014.129.028Z" transform="translate(-4428.637 -3239.637)" fill="#fd8a01"/>
          <path id="Trazado_121721" data-name="Trazado 121721" d="M4492.751,3246.2c.074.649.115,1.293-.623,1.626-.72.326-1.087-.221-1.524-.621a5.776,5.776,0,0,0-5.747-1.3c-.2.054-.4.132-.6.2a1.025,1.025,0,0,1-1.458-.619c-.263-.713.136-1.142.76-1.385a10.263,10.263,0,0,1,4.751-.64l-.005-.007.187.144a22.008,22.008,0,0,0,4.1,2.487l.176.116Z" transform="translate(-4436.853 -3215.377)" fill="#fd8a01"/>
          <path id="Trazado_121722" data-name="Trazado 121722" d="M4513.463,3253.681c0-1.15-.445-2.658.117-3.353.543-.671,2.138-.442,3.239-.734a.815.815,0,0,1,1.1.447,3.854,3.854,0,0,1,.616,2.588A14.94,14.94,0,0,1,4513.463,3253.681Z" transform="translate(-4450.939 -3218.198)" fill="#fd8a01"/>
          <path id="Trazado_121723" data-name="Trazado 121723" d="M4456.769,3237.966a29.913,29.913,0,0,1-8.348,2.337,11.7,11.7,0,0,1-4.587-.008c.534-2.024.534-2.033,2.541-1.83a35.032,35.032,0,0,0,9.35-.422C4456.067,3237.985,4456.421,3237.991,4456.769,3237.966Z" transform="translate(-4418.943 -3212.868)" fill="#fd8a01"/>
          <path id="Trazado_121724" data-name="Trazado 121724" d="M4513.37,3256.322a14.92,14.92,0,0,0,5.067-1.053,4.253,4.253,0,0,1-4.734,4.053c-.494-.058-.669-.21-.594-.713C4513.224,3257.851,4513.286,3257.085,4513.37,3256.322Z" transform="translate(-4450.846 -3220.838)" fill="#fdc498"/>
          <path id="Trazado_121725" data-name="Trazado 121725" d="M4501.2,3248.49l-.175-.116Z" transform="translate(-4445.286 -3217.662)" fill="#fdc498"/>
          <path id="Trazado_121726" data-name="Trazado 121726" d="M4493.261,3243.639l-.187-.142Z" transform="translate(-4441.625 -3215.415)" fill="#fdc498"/>
          <path id="Trazado_121727" data-name="Trazado 121727" d="M4456.4,3243.484a8.458,8.458,0,0,1,3.085.642c.625.234,1.043.651.8,1.367-.259.75-.836.879-1.537.62a5.647,5.647,0,0,0-6.636,1.466.964.964,0,0,1-1.5.013,1.054,1.054,0,0,1,.081-1.594A7.552,7.552,0,0,1,4456.4,3243.484Z" transform="translate(-4421.911 -3215.409)" fill="#fd8a01"/>
          <path id="Trazado_121728" data-name="Trazado 121728" d="M4460.562,3258.083c.008-1.175.443-1.747,1.336-1.761.964-.015,1.415.6,1.394,1.918-.019,1.108-.531,1.749-1.392,1.732C4461.018,3259.955,4460.552,3259.3,4460.562,3258.083Z" transform="translate(-4426.648 -3221.322)"/>
          <path id="Trazado_121729" data-name="Trazado 121729" d="M4488.789,3258.173c-.007,1.139-.472,1.77-1.324,1.8-.893.027-1.4-.635-1.407-1.823,0-1.239.447-1.834,1.378-1.828S4488.794,3256.924,4488.789,3258.173Z" transform="translate(-4438.392 -3221.322)"/>
          <path id="Trazado_121730" data-name="Trazado 121730" d="M4509.69,3221.581a5.991,5.991,0,0,1-3.423-.017c-.263-.161-.518-.33-.786-.484a5.156,5.156,0,0,1-2.133-6.485,6.445,6.445,0,0,1,2.735-2.8l-.021.02c.174-.05.4.043.514-.175a7.257,7.257,0,0,1,3.468.15,6.516,6.516,0,0,1,2.771,2.921C4513.886,3217.4,4512.708,3220.01,4509.69,3221.581Z" transform="translate(-4446.163 -3200.668)"/>
          <path id="Trazado_121731" data-name="Trazado 121731" d="M4515.467,3221.841c3.017-1.571,4.2-4.178,3.125-6.874a6.52,6.52,0,0,0-2.771-2.921,11.277,11.277,0,0,1,7.686,4.5.5.5,0,0,1-.024.737A11.582,11.582,0,0,1,4515.467,3221.841Z" transform="translate(-4451.939 -3200.928)" fill="#fefefe"/>
          <path id="Trazado_121732" data-name="Trazado 121732" d="M4502.08,3212.055a6.453,6.453,0,0,0-2.735,2.8,5.155,5.155,0,0,0,2.132,6.485c.268.153.524.323.786.484a11.6,11.6,0,0,1-7.814-4.477c-.222-.27-.32-.519-.053-.835C4496.423,3214.107,4498.831,3212.361,4502.08,3212.055Z" transform="translate(-4442.158 -3200.931)" fill="#fefefe"/>
          <path id="Trazado_121733" data-name="Trazado 121733" d="M4509.255,3211.757c-.118.217-.341.124-.515.175C4508.85,3211.687,4509.061,3211.747,4509.255,3211.757Z" transform="translate(-4448.839 -3200.788)" fill="#fefefe"/>
        </g>
      </g>
      <g id="Grupo_88357" data-name="Grupo 88357" transform="translate(32.55 96.316)">
        <path id="Trazado_121734" data-name="Trazado 121734" d="M4386.7,3413.858a1.681,1.681,0,0,1-.409-1.168c0-1.868,1.868-4.614,3.854-7.359,2.4-3.271,5.082-6.425,6.833-6.425a1.232,1.232,0,0,1,.759.292c3.621,3.154,11.331,7.125,17.813,7.125,7.3,0,10.337-2.395,10.337-5.373,0-3.446-4.906-5.548-10.747-8-10.28-4.2-25.23-10.454-25.23-25.873,0-14.25,12.148-24.762,30.545-24.762,10.921,0,20.675,3.738,26.281,8.585a1.78,1.78,0,0,1,.467,1.4c0,1.869-1.576,4.964-3.27,7.534-2.278,3.563-4.964,7.184-7.184,7.184a2.1,2.1,0,0,1-1.167-.35,27.558,27.558,0,0,0-15.126-4.847c-6.25,0-8.819,1.985-8.819,4.731,0,2.919,4.38,4.613,9.753,6.833,10.4,4.205,26.282,10.629,26.282,27.566,0,14.251-14.075,24.647-32.122,24.647C4404.453,3425.6,4392.946,3421.042,4386.7,3413.858Z" transform="translate(-4386.289 -3342.08)"/>
        <path id="Trazado_121735" data-name="Trazado 121735" d="M4604.9,3424.828v-59.572h-21.434c-2.336,0-2.336-4.847-2.336-9.753,0-4.848,0-9.636,2.395-9.636h62.843c2.394,0,2.394,4.789,2.394,9.636,0,4.906,0,9.753-2.394,9.753h-21.435v59.514c0,2.453-5.023,2.453-10.045,2.453C4609.918,3427.222,4604.9,3427.222,4604.9,3424.828Z" transform="translate(-4513.844 -3344.405)"/>
        <path id="Trazado_121736" data-name="Trazado 121736" d="M4808.774,3425v-77.444a1.584,1.584,0,0,1,1.577-1.635l53.264-.058c2.512,0,2.57,4.789,2.57,9.636,0,4.906-.058,9.753-2.57,9.753h-34.808v11.272H4857.6c2.4,0,2.454,4.263,2.454,8.469,0,4.264-.059,8.527-2.454,8.527h-28.792v13.783l34.75-.058c2.569,0,2.627,4.847,2.627,9.753,0,4.789-.058,9.695-2.57,9.695h-53.264A1.673,1.673,0,0,1,4808.774,3425Z" transform="translate(-4662.88 -3344.405)"/>
        <path id="Trazado_121737" data-name="Trazado 121737" d="M4991.266,3422a1.285,1.285,0,0,1,.059-.468l18.63-78.436c.35-1.46,1.81-1.46,3.271-1.46,1.518,0,2.92,0,3.621,1.051l27.333,48.3,27.334-48.3c.642-1.051,2.1-1.051,3.562-1.051,1.519,0,2.921.058,3.272,1.46l18.63,78.436a1.285,1.285,0,0,1,.059.468c0,2.336-5.082,2.336-10.221,2.336-5.432,0-10.8,0-11.33-2.1l-8.177-37.963-20.091,38.605c-.583,1.11-1.811,1.11-3.038,1.11-1.284,0-2.511,0-3.153-1.11l-19.975-38.605-8.176,37.963c-.584,2.1-5.958,2.1-11.389,2.1C4996.347,3424.337,4991.266,3424.337,4991.266,3422Z" transform="translate(-4782.354 -3341.637)"/>
      </g>
      <g id="Grupo_88358" data-name="Grupo 88358" transform="translate(304.51 68.951)">
        <path id="Trazado_121738" data-name="Trazado 121738" d="M5341.444,3453.8c-.32-.692-.541-1.43-.813-2.144a4.612,4.612,0,0,0-4.669-3.262c-1.194-.01-2.389-.031-3.581.011a.874.874,0,0,1-.984-.675c-.62-1.583-1.288-3.146-1.977-4.7-.238-.534-.228-.8.382-1.085,1.774-.82,3.512-1.716,5.254-2.6a4.287,4.287,0,0,0,2.271-5.825q-2.533-6.809-5.062-13.619c-.951-2.548-1.88-5.1-2.87-7.637a4.336,4.336,0,0,0-5.6-2.479c-1.816.852-3.671,1.628-5.51,2.434-.143.061-.286.2-.456.1a2.819,2.819,0,0,1-.365-2.3q1.513-1.788,3.038-3.573a16.414,16.414,0,0,0,3.813-8.044,2.629,2.629,0,0,1,.611-1.284c1.253-1.507,2.5-3.022,3.714-4.562a7.412,7.412,0,0,0,.665-8.522,7.3,7.3,0,0,0-7.717-3.655c-.435.067-.629,0-.726-.423a4.482,4.482,0,0,0-3.412-3.5h-1.535c-.037.041-.065.1-.111.117q-8.721,3.13-17.44,6.253-6.36,2.282-12.714,4.575a4.174,4.174,0,0,0-2.828,5.467,9.091,9.091,0,0,0,.519,1.436c.2.425.105.6-.305.843a7.793,7.793,0,0,0-3.881,8.216,7.958,7.958,0,0,0,6.923,6.451q2.329.29,4.664.5a6.679,6.679,0,0,1,3.341,1.061,15.579,15.579,0,0,0,4.982,2.121,23.648,23.648,0,0,0,5.9.714c1.464.006,1.87.79,2.214,1.89a.516.516,0,0,1-.23.693,4.217,4.217,0,0,0-1.626,2.706c-.271,1.335-.586,2.661-.816,4a1.1,1.1,0,0,1-.8.945q-16.107,6.516-32.2,13.068c-.524.213-1.231.3-1.514.689-.314.431.3,1,.371,1.553.008.056.02.112.03.168.2,1.083.375,1.184,1.413.8.159-.059.315-.126.474-.191q8.67-3.464,17.337-6.93c.878-.352.884-.347,1.186.553,1.355,4.043,2.695,8.09,4.046,12.134.321.962.32.973-.645,1.376-7.575,3.172-15.173,6.285-22.753,9.442a2.536,2.536,0,0,0-1.131.722c-.376.079-.542.235-.315.641a5.62,5.62,0,0,1,.513,1.164c.224.8.574.909,1.365.578q19.561-8.16,39.148-16.258a1.662,1.662,0,0,1,.89-.21c2.056.266,4.113.524,6.172.753a.753.753,0,0,1,.753.619q1.06,3.364,2.2,6.7a.761.761,0,0,1-.249.946c-.879.8-1.725,1.65-2.589,2.473-1.85,1.758-2.144,3.135-1.219,5.507a17.742,17.742,0,0,1,1.143,3.083h.341c.045-.176.213-.16.335-.208q4.069-1.6,8.142-3.205c4.67-1.829,9.334-3.666,14.014-5.461C5341.633,3454.693,5341.729,3454.416,5341.444,3453.8Zm-18.86-70.572a4.576,4.576,0,0,1,4.366,6.71,29.149,29.149,0,0,1-2.2,2.942c-.373-3.349-1.612-6.226-2.557-9.188C5322.034,3383.2,5322.3,3383.241,5322.583,3383.228Zm-37.1,23.594a4.644,4.644,0,0,1-3.465-4.186,4.717,4.717,0,0,1,2.114-4.624c.392-.282.565-.279.776.227a56.364,56.364,0,0,0,2.836,6.45c.51.879,1.079,1.722,1.651,2.628A28.021,28.021,0,0,1,5285.483,3406.822Z" transform="translate(-5269.895 -3376.452)"/>
        <path id="Trazado_121739" data-name="Trazado 121739" d="M5423.442,3455.582c0,1.316,0,1.316-1.271,1.556a7.017,7.017,0,0,0-5.8,7.161c-.022,1.222-.022,1.222-1.212,1.222-1.583,0-1.583,0-1.624-1.545a6.959,6.959,0,0,0-6.469-6.892c-.468-.037-.69-.156-.619-.64a1.248,1.248,0,0,0,0-.171,4.433,4.433,0,0,1,.065-1.848c.28-.543,1.114-.281,1.7-.425a7.085,7.085,0,0,0,5.331-6.876c.025-1.43.025-1.43,1.408-1.43s1.388,0,1.426,1.348a6.944,6.944,0,0,0,6.588,7.122c.439.045.515.2.488.566C5423.425,3455.011,5423.442,3455.3,5423.442,3455.582Z" transform="translate(-5338.01 -3411.009)"/>
        <path id="Trazado_121740" data-name="Trazado 121740" d="M5412.146,3399a1.047,1.047,0,0,0,0,.171c.167.92-.115,1.24-1.144,1.37a6.914,6.914,0,0,0-5.954,6.833,8.134,8.134,0,0,0,0,1.023c.03.417-.139.548-.541.53-.682-.028-1.492.214-2.016-.075-.616-.34-.2-1.23-.271-1.874a6.979,6.979,0,0,0-6.5-6.516c-.415-.035-.621-.109-.6-.578a6.315,6.315,0,0,1,.067-2.025c.292-.662,1.193-.323,1.813-.493a7.107,7.107,0,0,0,5.221-6.622,5.967,5.967,0,0,0,.007-1.023c-.059-.536.149-.7.671-.658.651.047,1.442-.207,1.924.082.564.339.171,1.2.237,1.829a6.973,6.973,0,0,0,6.541,6.57c.456.041.594.177.55.606C5412.123,3398.434,5412.146,3398.719,5412.146,3399Z" transform="translate(-5332.365 -3382.718)"/>
        <path id="Trazado_121741" data-name="Trazado 121741" d="M5270.8,3496.36c.229.893.694.875,1.479.557,6.019-2.45,12.06-4.844,18.089-7.271.493-.2.717-.176.9.392q2.161,6.594,4.4,13.163c.2.577-.027.733-.479.918q-8.579,3.538-17.151,7.095-3.654,1.515-7.308,3.046c.015-1.875.038-3.749.045-5.624Q5270.8,3502.5,5270.8,3496.36Z" transform="translate(-5270.313 -3432.888)" fill="#4a4a56"/>
        <path id="Trazado_121742" data-name="Trazado 121742" d="M5279.331,3445.693c1.32,0,1.32,0,1.341,1.33a7.009,7.009,0,0,0,6.587,7.143c.4.041.579.138.52.545a2.033,2.033,0,0,0,0,.256,4.626,4.626,0,0,1-.068,1.85c-.287.571-1.122.269-1.706.416a7.111,7.111,0,0,0-5.333,7.047c-.015,1.241-.015,1.241-1.246,1.241-1.5,0-1.5,0-1.566-1.449a6.948,6.948,0,0,0-6.549-6.99c-.455-.042-.573-.189-.554-.614a5.923,5.923,0,0,1,.07-2.021c.271-.585,1.147-.3,1.746-.455a7.106,7.106,0,0,0,5.29-6.913C5277.914,3445.693,5277.914,3445.693,5279.331,3445.693Z" transform="translate(-5270.297 -3411.009)"/>
        <path id="Trazado_121743" data-name="Trazado 121743" d="M5337.59,3397.5a15.594,15.594,0,0,1-3.785,10.324c-1.309,1.535-2.616,3.074-3.955,4.583a.865.865,0,0,0-.2,1.052c.321.756.558,1.55.886,2.3.186.425.078.587-.327.749-1.369.546-2.736,1.1-4.079,1.709-.463.209-.588.024-.728-.342-.3-.795-.649-1.574-.921-2.379a.966.966,0,0,0-.989-.717,57.063,57.063,0,0,1-7.2-.757,15.158,15.158,0,0,1-11.365-9.558c-1.2-2.97-2.355-5.96-3.521-8.946-.5-1.288-.227-1.9,1.064-2.362q14.526-5.231,29.055-10.456c1.284-.462,1.863-.206,2.276,1.07,1.134,3.506,2.455,6.953,3.4,10.519A15.768,15.768,0,0,1,5337.59,3397.5Z" transform="translate(-5285.506 -3379.464)" fill="#f1a235"/>
        <path id="Trazado_121744" data-name="Trazado 121744" d="M5359.348,3477.456c-3.047-.352-6.092-.713-9.141-1.049-.527-.059-.514-.478-.621-.794-1.436-4.271-2.719-8.6-4.336-12.8-.848-2.2-.156-4.155.074-6.23a3.023,3.023,0,0,1,2.179-2.683c4.771-1.96,9.5-4.032,14.237-6.063,1.472-.63,2.093-.4,2.616,1.071.279.785,1.048,1.706.707,2.317-.3.531-1.451.588-2.23.846-1.318.438-2.633.889-3.962,1.292-.437.133-.509.317-.4.732.582,2.181.574,2.187,2.687,1.511,1.458-.467,2.919-.926,4.365-1.43.448-.157.645-.113.809.367.4,1.152.836,2.289,1.292,3.419.185.459.066.605-.394.752-1.834.588-3.648,1.246-5.484,1.838-.486.157-.615.345-.415.829.269.65.29,1.619.755,1.914.485.306,1.292-.3,1.958-.516,1.431-.458,2.864-.914,4.276-1.421.411-.147.543-.047.675.315.42,1.174.844,2.348,1.315,3.5.206.5-.018.637-.426.767-1.731.547-3.449,1.127-5.184,1.66-.526.162-.722.313-.514.936.667,2.01.633,2.022,2.631,1.342,1.368-.466,2.742-.917,4.1-1.412.456-.166.636-.051.814.381.922,2.262.872,2.42-1.316,3.5q-4.847,2.387-9.686,4.784A2.3,2.3,0,0,1,5359.348,3477.456Z" transform="translate(-5307.299 -3411.913)" fill="#edcbbf"/>
        <path id="Trazado_121745" data-name="Trazado 121745" d="M5332.982,3491.9c.02.25-.2.292-.374.366q-5.255,2.209-10.51,4.424c-.428.182-.57.074-.712-.356q-2.193-6.668-4.44-13.318c-.168-.5-.009-.656.4-.8a17.02,17.02,0,0,0,1.979-.776c.568-.286.749-.128.929.432,1,3.105,2.046,6.193,3.043,9.3.191.594.373.808,1.047.573,1.911-.665,1.921-.631,1.277-2.562-.945-2.824-1.868-5.655-2.838-8.469-.184-.529-.081-.741.429-.934,1.486-.562,2.957-1.163,4.422-1.773.413-.171.633-.177.8.323,1.466,4.415,2.958,8.821,4.44,13.229C5332.909,3491.665,5332.941,3491.774,5332.982,3491.9Z" transform="translate(-5293.345 -3427.083)" fill="#676b7d"/>
        <path id="Trazado_121746" data-name="Trazado 121746" d="M5368.566,3533.138a1.677,1.677,0,0,1,.562-1.145q2.145-2.014,4.28-4.04a2,2,0,0,1,.812-.44c1.7-.545,3.4-1.094,5.094-1.669a7.234,7.234,0,0,1,2.281-.154c1.194-.022,2.388,0,3.583-.009a1.606,1.606,0,0,1,1.419.628c.542.742.442,1.078-.4,1.415q-8.136,3.268-16.273,6.533C5369.009,3534.624,5368.557,3534.3,5368.566,3533.138Z" transform="translate(-5319.14 -3450.926)" fill="#e5812d"/>
        <path id="Trazado_121747" data-name="Trazado 121747" d="M5380.4,3515.384c.071.245-.165.262-.341.322-1.422.477-2.847.937-4.26,1.438-.351.124-.458-.013-.55-.287-.512-1.5-1.027-3-1.533-4.5-.059-.174-.169-.439.174-.422,1.395.071,2.465-.763,3.627-1.309.6-.282.807-.161,1.037.412.533,1.339,1.135,2.653,1.706,3.977C5380.3,3515.122,5380.342,3515.229,5380.4,3515.384Z" transform="translate(-5321.678 -3443.344)" fill="#f1a235"/>
        <path id="Trazado_121748" data-name="Trazado 121748" d="M5420.107,3458.753a3.386,3.386,0,0,1,.013,6.771,10.289,10.289,0,0,0-3.4-3.387A10.45,10.45,0,0,0,5420.107,3458.753Z" transform="translate(-5343.175 -3417.527)" fill="#f2bf6d"/>
        <path id="Trazado_121749" data-name="Trazado 121749" d="M5405.454,3405.61a10.748,10.748,0,0,0,3.36-3.365,10.883,10.883,0,0,0,3.38,3.354,10.372,10.372,0,0,0-3.145,3.057c-.206.323-.319.2-.473-.03A10.192,10.192,0,0,0,5405.454,3405.61Z" transform="translate(-5337.55 -3389.325)" fill="#f2bf6d"/>
        <path id="Trazado_121750" data-name="Trazado 121750" d="M5287.825,3462.116a11.315,11.315,0,0,0-1.894,1.516c-.511.563-.979,1.162-1.515,1.8a10.535,10.535,0,0,0-3.337-3.291,3.373,3.373,0,1,1,6.746-.03Z" transform="translate(-5275.477 -3417.527)" fill="#f2bf6d"/>
        <path id="Trazado_121751" data-name="Trazado 121751" d="M5356.269,3401.8a18.979,18.979,0,0,0-2.653-8.957c-.249-.441-.292-.659.2-.9.654-.326,1.237-1.153,1.871-1.034.581.109.739,1.1,1.032,1.713,2.14,4.467,3.318,9.058,1.58,13.965a11.738,11.738,0,0,1-2.4,3.885c-.279.312-.452.325-.734.013-.455-.506-1.168-.9-1.375-1.477-.24-.669.644-1.062.981-1.614A10.078,10.078,0,0,0,5356.269,3401.8Z" transform="translate(-5311.587 -3383.663)"/>
      </g>
      <g id="Grupo_88359" data-name="Grupo 88359" transform="translate(94.596 96.316)">
        <path id="Trazado_121752" data-name="Trazado 121752" d="M4636.386,3441.115a1.22,1.22,0,0,1-.4-1.738,22.133,22.133,0,1,1,35.557,25.475,23.443,23.443,0,0,0-2.376,2.839,7.318,7.318,0,0,0-1.332,4.31c.037,2.151,0,4.3.023,6.454a5.719,5.719,0,0,1-2.471,4.959c-.489.35-.352.768-.35,1.177a5.545,5.545,0,0,1-3.26,5.37,11.209,11.209,0,0,1-1.511.516h-8.76c-.089-.237-.332-.183-.5-.239a5.488,5.488,0,0,1-3.943-5.4,1.974,1.974,0,0,0-.81-1.79,5.4,5.4,0,0,1-2.034-4.343c-.026-2.1-.095-4.2-.071-6.3a7.776,7.776,0,0,0-1.766-4.988c-1.016-1.314-2.257-2.423-3.312-3.7a22.414,22.414,0,0,1-4.922-18.7,1.167,1.167,0,0,1,1.058-1.07c1.011-.076,1.512.455,1.327,1.576a23.686,23.686,0,0,0-.249,4.432,19.343,19.343,0,0,0,4.919,12.491c.966,1.125,2.072,2.119,2.972,3.3a11.474,11.474,0,0,1,2.039,3.757.912.912,0,0,0,1.028.729c5.857.011,11.714,0,17.571,0a.89.89,0,0,0,.567-.117.827.827,0,0,0,.254-.444,13.392,13.392,0,0,1,3.646-5.932,20.333,20.333,0,0,0,5.08-8.1c2.181-7.176,1.049-13.762-3.808-19.548a18.924,18.924,0,0,0-13.1-6.764,20.261,20.261,0,0,0-6.607.574,19.6,19.6,0,0,0-7.5,3.89,20.551,20.551,0,0,0-5.189,6.577C4637.638,3441.374,4637.163,3441.566,4636.386,3441.115Z" transform="translate(-4618.846 -3414.468)"/>
        <path id="Trazado_121753" data-name="Trazado 121753" d="M4681.394,3399.618a1.838,1.838,0,0,1,.692,1.667c-.028,2.153-.008,4.3-.014,6.457a3.328,3.328,0,0,1-.069.808,1.018,1.018,0,0,1-1.091.817,1.006,1.006,0,0,1-1.018-.817,3.69,3.69,0,0,1-.067-.808c0-2.152.014-4.3-.014-6.457a1.837,1.837,0,0,1,.69-1.667Z" transform="translate(-4643.986 -3399.618)" fill="#020201"/>
        <path id="Trazado_121754" data-name="Trazado 121754" d="M4667.341,3473.874c-.216.182-.473.094-.71.094-5.983,0-11.965-.01-17.948.012-.572,0-.811-.15-.95-.708a11.515,11.515,0,0,0-3.187-5.177,24.583,24.583,0,0,1-4.906-6.641,20.415,20.415,0,0,1-1.626-12.213c.188-1.136-.073-1.565-1.111-1.734.265-.082.339-.3.415-.533.25-.767.513-1.531.771-2.3.975.179,1.208.042,1.713-.95a19.8,19.8,0,0,1,12.237-10.316,3.714,3.714,0,0,1,.43-.079c-.053.455-.467.554-.771.719a21.34,21.34,0,0,0-8.807,8.876,19.76,19.76,0,0,0-2.273,7.549,21.313,21.313,0,0,0,3.776,14.542,43.317,43.317,0,0,0,3.45,3.975,12.511,12.511,0,0,1,2.615,4.1c.2.57.609.556,1.064.556q7.312,0,14.622,0C4666.549,3473.657,4666.995,3473.524,4667.341,3473.874Z" transform="translate(-4620.55 -3418.032)" fill="#f7a32f"/>
        <path id="Trazado_121755" data-name="Trazado 121755" d="M4605.8,3480.857c-1.186,0-2.374.009-3.562,0-.878-.009-1.367-.419-1.37-1.115s.476-1.115,1.358-1.118q3.524-.013,7.049,0c.842,0,1.37.468,1.347,1.14-.02.648-.527,1.081-1.333,1.092C4608.129,3480.869,4606.967,3480.857,4605.8,3480.857Z" transform="translate(-4600.872 -3442.762)" fill="#010101"/>
        <path id="Trazado_121756" data-name="Trazado 121756" d="M4747.116,3478.618c1.187,0,2.375-.009,3.562,0,.873.009,1.358.432,1.342,1.135-.017.671-.49,1.092-1.316,1.1q-3.562.019-7.124,0a1.171,1.171,0,0,1-1.317-1.108c-.01-.673.516-1.116,1.365-1.124C4744.791,3478.611,4745.953,3478.618,4747.116,3478.618Z" transform="translate(-4678.093 -3442.762)" fill="#010101"/>
        <path id="Trazado_121757" data-name="Trazado 121757" d="M4631.556,3429.234a1.105,1.105,0,0,1-.672.98,1.092,1.092,0,0,1-1.285-.283q-1.154-1.153-2.308-2.307c-.945-.945-1.893-1.884-2.83-2.836a1.124,1.124,0,1,1,1.581-1.562c1.686,1.672,3.359,3.355,5.042,5.03A1.375,1.375,0,0,1,4631.556,3429.234Z" transform="translate(-4613.509 -3412.262)"/>
        <path id="Trazado_121758" data-name="Trazado 121758" d="M4725.086,3430.322a1.121,1.121,0,0,1-.992-.671,1.059,1.059,0,0,1,.228-1.232c.743-.76,1.5-1.507,2.251-2.26.962-.961,1.919-1.927,2.887-2.883.609-.6,1.27-.661,1.754-.177s.422,1.147-.18,1.755c-1.657,1.665-3.324,3.322-4.981,4.987A1.408,1.408,0,0,1,4725.086,3430.322Z" transform="translate(-4668.113 -3412.266)"/>
        <path id="Trazado_121759" data-name="Trazado 121759" d="M4631.557,3523.855a1.311,1.311,0,0,1-.419.9c-1.716,1.709-3.421,3.43-5.144,5.135a1.117,1.117,0,1,1-1.594-1.553c1.721-1.739,3.459-3.463,5.189-5.2a1.125,1.125,0,0,1,1.967.711Z" transform="translate(-4613.508 -3466.873)"/>
        <path id="Trazado_121760" data-name="Trazado 121760" d="M4731.525,3529.114a1.029,1.029,0,0,1-.6,1.054,1.111,1.111,0,0,1-1.354-.26q-1.543-1.55-3.092-3.1c-.682-.683-1.372-1.357-2.044-2.047a1.114,1.114,0,0,1-.1-1.7,1.1,1.1,0,0,1,1.646.1c1.723,1.7,3.431,3.422,5.145,5.135A1.092,1.092,0,0,1,4731.525,3529.114Z" transform="translate(-4668.113 -3466.864)"/>
        <path id="Trazado_121761" data-name="Trazado 121761" d="M4671.418,3472.978c-5.289-.008-10.577-.032-15.868-.008-.714,0-1.04-.147-1.283-.884a10.165,10.165,0,0,0-2.374-3.708,27.826,27.826,0,0,1-5.423-7.242,23.177,23.177,0,0,1-1.976-7.221,20.338,20.338,0,0,1,2.053-11.536,21.225,21.225,0,0,1,8.805-9.213c.407-.227.795-.485,1.192-.729a17.712,17.712,0,0,1,9.37-.22,20.261,20.261,0,0,1,10.26,33.245c-.2.223-.393.446-.6.658A14.255,14.255,0,0,0,4671.418,3472.978Z" transform="translate(-4624.626 -3417.136)" fill="#f8d031"/>
        <path id="Trazado_121762" data-name="Trazado 121762" d="M4666.94,3527.817q8.044-.014,16.084-.034c.421,0,.558.136.546.552-.022.888-.015,1.78.011,2.667.01.391-.131.521-.514.508-.692-.022-1.384-.019-2.076,0-.747.018-1.147.394-1.168,1.055a1.094,1.094,0,0,0,1.158,1.166,15,15,0,0,0,1.926-.006c.684-.061.731.26.617.791a3.634,3.634,0,0,1-3.469,2.921c-3.78.027-7.559,0-11.34-.009-1.151-.412-1.443-1.46-1.752-2.459a1.3,1.3,0,0,1-.018-1.2c2.808-.01,5.615-.026,8.421-.024a1.355,1.355,0,0,0,1.282-.569c.421-.666.088-1.348-.808-1.68-2.17-.111-4.34-.019-6.51-.046q-1-.013-2,0c-.276,0-.534-.064-.55-.361A6.994,6.994,0,0,1,4666.94,3527.817Z" transform="translate(-4636.805 -3469.616)" fill="#51758b"/>
        <path id="Trazado_121763" data-name="Trazado 121763" d="M4682.377,3556.348a3.2,3.2,0,0,1-3.069,2.509c-2.366.028-4.734.013-7.1,0a2.615,2.615,0,0,1-1.582-.536,5.282,5.282,0,0,1-.593-.846.877.877,0,0,1,.761-1.336,3.926,3.926,0,0,1,.592-.028q4.967,0,9.937,0A1.36,1.36,0,0,1,4682.377,3556.348Z" transform="translate(-4638.585 -3485.088)" fill="#51748b"/>
        <path id="Trazado_121764" data-name="Trazado 121764" d="M4681.272,3555.178c-3.706,0-7.412.027-11.117-.013-1.177-.013-1.474.313-.84,1.455.095.171.253.31.2.532a3.085,3.085,0,0,1-1.613-2.576c-.039-.423.063-.61.554-.608,4.128.021,8.255.01,12.383.013C4681.5,3553.982,4681.59,3554.227,4681.272,3555.178Z" transform="translate(-4637.479 -3483.917)" fill="#2d5a7d"/>
        <path id="Trazado_121765" data-name="Trazado 121765" d="M4664.216,3527.825c0,.911.036,1.825-.014,2.734-.038.636.137.852.812.84,2.438-.042,4.88-.019,7.319-.012.263,0,.545-.088.781.115q-5.451.007-10.9.021c-.361,0-.548-.079-.539-.491q.035-1.371,0-2.744c-.009-.411.182-.5.54-.49C4662.881,3527.821,4663.547,3527.817,4664.216,3527.825Z" transform="translate(-4634.078 -3469.623)" fill="#2d5a7d"/>
        <path id="Trazado_121766" data-name="Trazado 121766" d="M4664.233,3540.911a4.894,4.894,0,0,0,1.77,3.661c-2.234.117-3.786-.93-4.246-2.856-.13-.546-.106-.915.627-.845C4663,3540.929,4663.616,3540.9,4664.233,3540.911Z" transform="translate(-4634.091 -3476.76)" fill="#2d597d"/>
        <path id="Trazado_121767" data-name="Trazado 121767" d="M4673.53,3471.605c.565.785.57,1.1-.009,1.844-1.361,1.759-2.718,3.519-4.093,5.267a3.568,3.568,0,0,1-5.748.206c-2.3-2.522-4.606-5.034-6.854-7.6a3.533,3.533,0,0,1,2.084-5.878,3.474,3.474,0,0,1,3.32,1.228c1.211,1.335,2.435,2.663,3.619,4.023.353.405.52.338.814-.045q3.366-4.376,6.768-8.726a3.438,3.438,0,0,1,3.816-1.307,3.5,3.5,0,0,1,2.6,3.09,3.445,3.445,0,0,1-.755,2.563c-.66.863-1.342,1.71-1.993,2.581a1.26,1.26,0,0,1-1.73.491,1.1,1.1,0,0,1-.34-1.741c.514-.757,1.106-1.457,1.671-2.176a3.585,3.585,0,0,0,.627-1,1.029,1.029,0,0,0-.356-1.257,1,1,0,0,0-1.357.029,12.083,12.083,0,0,0-1.662,1.988q-3.073,3.953-6.137,7.911a4.517,4.517,0,0,1-.478.567,1.282,1.282,0,0,1-1.969.032c-.859-.785-1.566-1.713-2.359-2.56-.877-.939-1.679-1.948-2.613-2.833-.628-.594-1.187-.641-1.691-.153a1.171,1.171,0,0,0,.063,1.717c2.074,2.387,4.264,4.67,6.327,7.066.1.113.208.215.314.317a1.278,1.278,0,0,0,2.188-.117c1.358-1.7,2.679-3.43,4.011-5.15a1.479,1.479,0,0,1,1.309-.7C4673.166,3471.3,4673.413,3471.325,4673.53,3471.605Z" transform="translate(-4630.923 -3432.857)"/>
        <path id="Trazado_121768" data-name="Trazado 121768" d="M4676.235,3474.293c-.9-.332-1.2-.254-1.783.5-1.338,1.715-2.668,3.436-4.007,5.151-.792,1.018-1.6,1.063-2.46.116q-3.316-3.653-6.613-7.321a1.361,1.361,0,0,1-.062-2.087,1.334,1.334,0,0,1,2.016.277c1.534,1.679,3.051,3.375,4.583,5.057.889.974,1.484.95,2.277-.071l7.364-9.49c.138-.175.269-.356.419-.52a1.329,1.329,0,0,1,2.082,1.651c-.642.878-1.329,1.721-1.991,2.584-.607.791-.6,1.112.008,1.9Z" transform="translate(-4633.631 -3435.544)" fill="#f7a32f"/>
      </g>
      <g id="QuEeu4" transform="translate(156.29)">
        <g id="Grupo_88360" data-name="Grupo 88360" transform="translate(0 0)">
          <path id="Trazado_121769" data-name="Trazado 121769" d="M4784.037,3152.548a2.061,2.061,0,0,1,2.217-2,13.371,13.371,0,0,1,1.855-.021,1.421,1.421,0,0,1,1.49,1.473,1.351,1.351,0,0,1-1.489,1.452c-1.093-.088-1.083.408-1.179,1.267a8.3,8.3,0,0,0,1.938,6.3c.961,1.237,1.575,2.4,3.5,1.6a5,5,0,0,1,3.722.329.61.61,0,0,0,.875-.277q1.381-2.073,2.8-4.117a2.408,2.408,0,0,0,.3-1.5c0-.587,0-1.174,0-1.762a4.059,4.059,0,0,0-.054-1.547c-.251-.541-.937-.144-1.418-.288a1.427,1.427,0,0,1-1.188-1.459,1.332,1.332,0,0,1,1.212-1.419,7.958,7.958,0,0,1,2.822.073,1.689,1.689,0,0,1,1.428,1.44,25.177,25.177,0,0,1-.035,6.913,4.21,4.21,0,0,1-.885,1.616c-.853,1.232-1.687,2.475-2.548,3.7-.246.351-.352.609-.026,1.01a6.89,6.89,0,0,1,1.594,4.508,1.2,1.2,0,0,0,.432.925c2.1,2.092,4.21,4.181,6.29,6.3a1.039,1.039,0,0,0,1.2.293,5.786,5.786,0,0,1,2.612-.225c.688.124.749-.166.738-.72a29.388,29.388,0,0,1,1.026-9.382,22.037,22.037,0,0,1,2.149-4.9c.676-1.126,1.1-1.289,2.329-.914a1.723,1.723,0,0,1,.234,2.429,19.475,19.475,0,0,0-2.718,9.3c-.033.14.018.2.161.157q14.585.014,29.17.025c1.239,0,2.477-.023,3.718-.036,1.3.012,2.6-.006,3.906.051.591.024.649-.245.582-.7-.126-.87-.219-1.744-.373-2.609a17.871,17.871,0,0,0-15.475-14.644,19.09,19.09,0,0,0-13.905,3.077c-.834.558-1.6.845-2.476.171-.6-1.269-.485-1.758.672-2.549a21.2,21.2,0,0,1,10.161-3.707c.9-.083,1.152-.353,1.174-1.277.038-1.469-.145-2.44-1.724-3.231a5.488,5.488,0,0,1-2.394-6.784,5.894,5.894,0,0,1,11.4,1,5.812,5.812,0,0,1-3.461,6.28,1.2,1.2,0,0,0-.887,1.431c.05.747-.236,1.656.1,2.207.362.595,1.374.317,2.1.448,10.795,1.947,17.813,10.142,18.08,21.129.026,1.044.043,2.089.028,3.133-.006.493.087.7.662.613a6.313,6.313,0,0,1,2.8.255.9.9,0,0,0,1.031-.282q3.166-3.2,6.369-6.368a1.211,1.211,0,0,0,.409-.934,6.829,6.829,0,0,1,1.556-4.427.754.754,0,0,0,0-1.088c-.943-1.328-1.85-2.682-2.772-4.025a3.407,3.407,0,0,1-.7-1.489,29.124,29.124,0,0,1-.007-6.538,1.768,1.768,0,0,1,1.694-1.625,14.423,14.423,0,0,1,2.343-.071,1.408,1.408,0,0,1,1.453,1.508,1.325,1.325,0,0,1-1.441,1.4c-1.209-.1-1.164.5-1.251,1.411a8.15,8.15,0,0,0,1.814,5.955c1.028,1.365,1.716,2.629,3.792,1.776a4.772,4.772,0,0,1,3.534.34c.454.187.681.079.94-.316.877-1.333,1.788-2.645,2.7-3.954a1.8,1.8,0,0,0,.347-1.092c-.011-1.143-.031-2.285,0-3.427.015-.514-.144-.7-.658-.659a2.711,2.711,0,0,1-.965-.1,1.333,1.333,0,0,1-1.009-1.481,1.289,1.289,0,0,1,1.1-1.309,7.223,7.223,0,0,1,3.014.077,1.75,1.75,0,0,1,1.382,1.607,37.6,37.6,0,0,1-.013,6.451,3.473,3.473,0,0,1-.744,1.575c-.889,1.287-1.751,2.594-2.667,3.861a.929.929,0,0,0-.011,1.324,7.084,7.084,0,0,1,.769,7.655,7.213,7.213,0,0,1-6.507,4.285,1.531,1.531,0,0,0-1.1.474q-3.894,3.93-7.823,7.825a1.979,1.979,0,0,0-.552,1.089,8.131,8.131,0,0,1-8.662,6.715c-.756-.041-.835.211-.83.852.027,3.656-.018,7.312.026,10.967a4.666,4.666,0,0,1-2.183,4.4.6.6,0,0,0-.292.72,8.128,8.128,0,0,1-1.659,6.34,1.236,1.236,0,0,0-.24,1q.324,2.719.641,5.44c.049.44.181.64.712.673,4.166.251,6.484,2.731,6.49,6.875v2.252c0,2.367-.6,3.267-2.755,4.135h-17.627c-.022-.154-.149-.184-.267-.241a3.491,3.491,0,0,1-2.143-3.515c.032-1.076-.012-2.153.014-3.229a6.06,6.06,0,0,1,3.556-5.625.85.85,0,0,0,.574-1.036c-.222-1.582-.4-3.169-.577-4.756a1.537,1.537,0,0,0-.495-1.016,8,8,0,0,1-2.576-6.688c.047-.615-.153-.707-.681-.7-1.533.027-3.067.043-4.6-.006-.677-.022-.883.134-.833.852a7.8,7.8,0,0,1-2.692,6.63,2.159,2.159,0,0,0-.781,1.478c-.146,1.427-.292,2.854-.494,4.274-.075.518.086.719.539.948a6.238,6.238,0,0,1,3.6,5.816c.02.848-.042,1.7.014,2.544a3.83,3.83,0,0,1-2.737,4.268h-17.625a4.244,4.244,0,0,1-2.495-4.7c.055-.583.006-1.175.009-1.762.017-4.038,2.433-6.6,6.483-6.807.56-.029.682-.2.737-.724.2-1.913.452-3.821.706-5.728a1.474,1.474,0,0,0-.275-1.087,7.881,7.881,0,0,1-1.319-5.856.651.651,0,0,0-.307-.805,4.411,4.411,0,0,1-2.035-4.078c.034-3.753,0-7.507.023-11.261.005-.643-.075-.891-.83-.851a8.13,8.13,0,0,1-8.665-6.713,1.978,1.978,0,0,0-.548-1.091q-3.928-3.9-7.822-7.827a1.535,1.535,0,0,0-1.106-.471,7.232,7.232,0,0,1-6.513-4.281,7.1,7.1,0,0,1,.822-7.735.823.823,0,0,0,0-1.158,39.348,39.348,0,0,1-3.691-5.8v-.2c.193-.072.182-.237.181-.4Q4784.052,3155.2,4784.037,3152.548Zm64.27,23.558a1.486,1.486,0,0,0-.193-.026q-16.1,0-32.2-.024c-.771,0-.729.36-.729.883q.011,14.288.006,28.578c0,1.516.391,1.906,1.9,1.906q10.472,0,20.942,0c3.425,0,6.85-.022,10.275-.034.945.011,1.89.041,2.836.028a1.5,1.5,0,0,0,1.7-1.681q.014-14.488.019-28.978c0-.585-.211-.708-.739-.691C4850.852,3176.106,4849.579,3176.1,4848.307,3176.106Zm-.429,58.12v-.007c2.477,0,4.955-.018,7.43.012.732.01,1.09-.18,1.045-.987-.054-.975,0-1.955-.017-2.932a3.236,3.236,0,0,0-3.189-3.4q-5.227-.134-10.457-.016a3.226,3.226,0,0,0-3.21,3.374c-.021.978.041,1.959-.019,2.932-.053.845.3,1.05,1.087,1.039C4842.99,3234.2,4845.435,3234.226,4847.877,3234.226Zm-28.152,0v-.007c2.443,0,4.886-.027,7.329.016.83.015,1.1-.293,1.06-1.087-.047-.943.012-1.89-.017-2.834a3.288,3.288,0,0,0-3.3-3.414q-5.128-.11-10.261-.013a3.257,3.257,0,0,0-3.317,3.378c-.033.977.034,1.957-.021,2.932-.045.838.311,1.056,1.1,1.043C4814.773,3234.2,4817.249,3234.226,4819.725,3234.226Zm-21.72-64.294a4.514,4.514,0,1,0-9.027.071,4.514,4.514,0,0,0,9.027-.071Zm76.449-4.5a4.467,4.467,0,0,0-4.424,4.611,4.513,4.513,0,1,0,4.424-4.611Zm-62.231,19.844v-3.917c0-1.247-.092-1.334-1.4-1.32a5.287,5.287,0,1,0,.688,10.535c.538-.06.725-.258.716-.794C4812.206,3188.282,4812.223,3186.78,4812.223,3185.279Zm43.59.031v3.916c0,1.385,0,1.386,1.419,1.373.2,0,.391-.011.585-.03a5.268,5.268,0,0,0,4.595-5.9,5.349,5.349,0,0,0-5.629-4.621c-.661.063-1.042.23-.993,1.05C4855.873,3182.5,4855.813,3183.906,4855.813,3185.31Zm-10.582,25.081c-1.37,0-2.746.076-4.109-.025-1.021-.076-1.2.4-1.217,1.24a5.3,5.3,0,1,0,10.562-.428c-.062-.624-.305-.821-.929-.8C4848.1,3210.423,4846.667,3210.391,4845.231,3210.391Zm-22.476,0h-4.013c-1.257,0-1.344.09-1.342,1.374a5.291,5.291,0,1,0,10.544-.65c-.068-.593-.325-.748-.885-.735C4825.625,3210.413,4824.191,3210.391,4822.755,3210.391Zm-17.314-31.329a1.94,1.94,0,0,0-.187-.281q-2.455-2.46-4.915-4.916c-.241-.243-.386-.11-.528.11a7.551,7.551,0,0,1-2.267,2.266c-.283.182-.336.325-.07.587q2.643,2.618,5.261,5.26c.305.308.443.246.61-.133a7.951,7.951,0,0,1,1.787-2.548C4805.242,3179.3,4805.337,3179.18,4805.441,3179.063Zm57.157-.02a2.388,2.388,0,0,0,.208.263,8.393,8.393,0,0,1,1.95,2.771c.2.457.4.158.566-.01,1.729-1.721,3.445-3.453,5.181-5.166.32-.315.313-.472-.074-.712a6.55,6.55,0,0,1-2.123-2.117c-.3-.491-.507-.311-.8-.017-1.511,1.523-3.034,3.036-4.549,4.555C4862.828,3178.742,4862.718,3178.9,4862.6,3179.042Zm-28.565-33.341a2.937,2.937,0,0,0,2.9-2.954,2.921,2.921,0,0,0-5.842.054A2.908,2.908,0,0,0,4834.033,3145.7Zm-15.091,73.414c-.19,1.488-.367,2.9-.557,4.313-.072.549.308.464.619.461,1.4-.008,2.8-.055,4.195-.027.578.011.727-.263.773-.742.083-.874.151-1.75.284-2.616.07-.452-.041-.59-.486-.536A8.843,8.843,0,0,1,4818.942,3219.116Zm27.437,4.777v-.045c.617,0,1.239-.041,1.852.012.673.057.953-.135.842-.854-.164-1.058-.283-2.125-.39-3.19-.044-.449-.225-.445-.576-.306a6.927,6.927,0,0,1-2.862.47c-.663-.027-1.641-.321-1.914-.005-.417.479.049,1.351.1,2.06.139,1.86.156,1.859,1.969,1.859Z" transform="translate(-4783.886 -3136.9)" fill="#030303"/>
          <path id="Trazado_121770" data-name="Trazado 121770" d="M4784.037,3170.591q.015,2.655.03,5.308c0,.16.012.325-.181.4v-5.681l.067-.064Z" transform="translate(-4783.886 -3154.944)" fill="#9c9595"/>
          <path id="Trazado_121771" data-name="Trazado 121771" d="M4851.528,3193.788a19.473,19.473,0,0,1,2.718-9.305,1.723,1.723,0,0,0-.234-2.429,20.112,20.112,0,0,1,2.824-2.774c.877.673,1.641.386,2.477-.171a19.09,19.09,0,0,1,13.9-3.077c.028.228.2.316.379.4a18.675,18.675,0,0,1,6.4,5,21.362,21.362,0,0,1,4.583,12.5c-1.24.013-2.479.038-3.717.036q-14.585-.009-29.171-.025Zm11.908-11.978a4.828,4.828,0,1,0,4.874,4.812A4.847,4.847,0,0,0,4863.436,3181.811Zm13.683,9.656a4.828,4.828,0,1,0-4.836-4.856A4.85,4.85,0,0,0,4877.119,3191.467Z" transform="translate(-4820.156 -3157.751)" fill="#ecdfda"/>
          <path id="Trazado_121772" data-name="Trazado 121772" d="M4884.5,3252.657c-3.424.012-6.849.032-10.274.034q-10.469.008-20.942,0c-1.51,0-1.9-.39-1.9-1.905q0-14.29-.006-28.578c0-.522-.042-.886.728-.883q16.1.045,32.2.023a1.489,1.489,0,0,1,.193.026Zm-12.131-7.22c.363,1.259.713,1.535,1.994,1.539,1.662.005,3.324.011,4.986,0a3.064,3.064,0,0,0,3.3-3.2q.06-3.47,0-6.943a3.023,3.023,0,0,0-3.24-3.149q-9.143-.012-18.288,0a3.047,3.047,0,0,0-3.207,3.19c-.029,2.282-.024,4.564,0,6.845a3.084,3.084,0,0,0,3.256,3.254c1.761.018,3.521.01,5.28,0,1.2-.007,1.615-.348,1.887-1.522Zm-11.04-16.829c.683,0,1.367.031,2.047-.009a1.347,1.347,0,0,0,1.382-1.351,1.376,1.376,0,0,0-1.277-1.554c-1.394-.068-2.795-.063-4.189-.008a1.46,1.46,0,0,0,.089,2.917C4860.026,3228.636,4860.677,3228.61,4861.327,3228.608Zm17.847,0c.682,0,1.366.03,2.045-.007a1.461,1.461,0,0,0,.04-2.918q-2.044-.079-4.089,0a1.46,1.46,0,0,0,.058,2.917C4877.874,3228.637,4878.526,3228.61,4879.173,3228.608Z" transform="translate(-4820.074 -3182.169)" fill="#ccbdb8"/>
          <path id="Trazado_121773" data-name="Trazado 121773" d="M4922.789,3252.668l0-31.282c1.271-.01,2.545,0,3.815-.039.528-.017.739.106.739.691q-.025,14.489-.018,28.977a1.5,1.5,0,0,1-1.7,1.682C4924.679,3252.711,4923.733,3252.68,4922.789,3252.668Z" transform="translate(-4858.365 -3182.18)" fill="#9c9595"/>
          <path id="Trazado_121774" data-name="Trazado 121774" d="M4912.123,3338.211c-2.443,0-4.889-.024-7.331.015-.782.012-1.14-.194-1.088-1.039.062-.974,0-1.956.02-2.931a3.226,3.226,0,0,1,3.209-3.375q5.227-.112,10.458.016a3.235,3.235,0,0,1,3.189,3.4c.017.977-.038,1.958.017,2.932.045.806-.313,1-1.044.988-2.477-.03-4.954-.012-7.43-.012Z" transform="translate(-4848.131 -3240.885)" fill="#fbb23f"/>
          <path id="Trazado_121775" data-name="Trazado 121775" d="M4851.3,3338.212c-2.477,0-4.953-.024-7.429.015-.787.012-1.142-.206-1.1-1.044.054-.975-.014-1.956.021-2.932a3.257,3.257,0,0,1,3.317-3.379q5.13-.09,10.262.012a3.29,3.29,0,0,1,3.3,3.415c.029.944-.031,1.892.017,2.834.04.793-.229,1.1-1.061,1.088-2.441-.043-4.885-.016-7.328-.016Z" transform="translate(-4815.46 -3240.885)" fill="#fbb23f"/>
          <path id="Trazado_121776" data-name="Trazado 121776" d="M4909.651,3194.217a21.349,21.349,0,0,0-4.583-12.5,18.671,18.671,0,0,0-6.4-5c-.181-.089-.354-.177-.379-.4a17.869,17.869,0,0,1,15.474,14.644c.153.865.246,1.74.374,2.61.067.455.009.726-.582.7C4912.256,3194.212,4910.953,3194.229,4909.651,3194.217Z" transform="translate(-4845.232 -3158.034)" fill="#ccbdb8"/>
          <path id="Trazado_121777" data-name="Trazado 121777" d="M4803.893,3202.918a4.513,4.513,0,1,1-4.542-4.5A4.476,4.476,0,0,1,4803.893,3202.918Z" transform="translate(-4789.773 -3169.884)" fill="#fbb23f"/>
          <path id="Trazado_121778" data-name="Trazado 121778" d="M4974.048,3198.425a4.506,4.506,0,0,1,4.6,4.455,4.513,4.513,0,0,1-9.024.157A4.466,4.466,0,0,1,4974.048,3198.425Z" transform="translate(-4883.48 -3169.889)" fill="#fbb23f"/>
          <path id="Trazado_121779" data-name="Trazado 121779" d="M4837.325,3235.156c0,1.5-.017,3,.009,4.5.009.537-.178.735-.717.8a5.287,5.287,0,1,1-.687-10.536c1.3-.014,1.4.073,1.4,1.32Z" transform="translate(-4808.989 -3186.777)" fill="#fbb23f"/>
          <path id="Trazado_121780" data-name="Trazado 121780" d="M4938.938,3235.176c0-1.4.063-2.81-.023-4.208-.048-.82.333-.988.993-1.05a5.351,5.351,0,0,1,5.631,4.621,5.269,5.269,0,0,1-4.6,5.9c-.193.02-.389.029-.585.031-1.42.014-1.42.012-1.42-1.373Z" transform="translate(-4867.011 -3186.766)" fill="#fbb23f"/>
          <path id="Trazado_121781" data-name="Trazado 121781" d="M4910,3295.319c1.434,0,2.872.031,4.306-.014.623-.019.864.177.927.8a5.3,5.3,0,1,1-10.561.428c.02-.835.193-1.315,1.217-1.239C4907.25,3295.4,4908.625,3295.319,4910,3295.319Z" transform="translate(-4848.651 -3221.828)" fill="#fbb23f"/>
          <path id="Trazado_121782" data-name="Trazado 121782" d="M4861.5,3295.344c1.435,0,2.871.022,4.305-.009.561-.014.815.141.886.734a5.292,5.292,0,1,1-10.547.65c0-1.285.086-1.374,1.343-1.375Z" transform="translate(-4822.631 -3221.853)" fill="#fbb23f"/>
          <path id="Trazado_121783" data-name="Trazado 121783" d="M4820.95,3221.651c-.1.117-.2.241-.311.348a7.944,7.944,0,0,0-1.786,2.547c-.167.379-.306.441-.611.134q-2.619-2.641-5.259-5.261c-.268-.262-.214-.4.069-.586a7.551,7.551,0,0,0,2.267-2.266c.142-.22.285-.353.527-.112q2.458,2.461,4.916,4.917A1.961,1.961,0,0,1,4820.95,3221.651Z" transform="translate(-4799.394 -3179.488)" fill="#9c9595"/>
          <path id="Trazado_121784" data-name="Trazado 121784" d="M4953.6,3221.663c.12-.145.231-.3.363-.433,1.516-1.52,3.038-3.032,4.549-4.556.291-.293.493-.473.8.018a6.532,6.532,0,0,0,2.124,2.117c.386.241.393.4.073.712-1.736,1.712-3.453,3.445-5.18,5.166-.168.169-.363.468-.567.01a8.36,8.36,0,0,0-1.951-2.771A2.292,2.292,0,0,1,4953.6,3221.663Z" transform="translate(-4874.887 -3179.52)" fill="#9c9595"/>
          <path id="Trazado_121785" data-name="Trazado 121785" d="M4888.607,3149.147a2.908,2.908,0,0,1-2.944-2.9,2.921,2.921,0,1,1,2.944,2.9Z" transform="translate(-4838.459 -3140.345)" fill="#fbb23f"/>
          <path id="Trazado_121786" data-name="Trazado 121786" d="M4858.818,3314.169a8.85,8.85,0,0,0,4.829.852c.444-.053.556.085.486.536-.134.866-.2,1.743-.285,2.617-.046.478-.194.753-.773.741-1.4-.028-2.8.019-4.194.028-.311,0-.691.086-.618-.461C4858.452,3317.071,4858.628,3315.656,4858.818,3314.169Z" transform="translate(-4823.763 -3231.952)" fill="#9c9595"/>
          <path id="Trazado_121787" data-name="Trazado 121787" d="M4914.906,3319.3h-.978c-1.814,0-1.832,0-1.97-1.858-.051-.708-.519-1.581-.1-2.06.274-.315,1.252-.022,1.915.005a6.931,6.931,0,0,0,2.864-.47c.348-.139.53-.143.575.305.107,1.066.227,2.133.389,3.191.113.718-.168.911-.84.853-.615-.052-1.234-.011-1.851-.011Z" transform="translate(-4852.412 -3232.311)" fill="#9c9595"/>
          <path id="Trazado_121788" data-name="Trazado 121788" d="M4851.517,3214.6l.162.157C4851.536,3214.8,4851.485,3214.741,4851.517,3214.6Z" transform="translate(-4820.145 -3178.563)" fill="#ccbdb8"/>
          <path id="Trazado_121789" data-name="Trazado 121789" d="M4871.6,3188.775a4.828,4.828,0,1,1-4.843,4.844A4.849,4.849,0,0,1,4871.6,3188.775Zm.063,2.949a1.882,1.882,0,1,0-.089,3.763,1.882,1.882,0,1,0,.089-3.763Z" transform="translate(-4828.323 -3164.715)" fill="#030303"/>
          <path id="Trazado_121790" data-name="Trazado 121790" d="M4901.114,3198.431a4.828,4.828,0,1,1,4.89-4.8A4.853,4.853,0,0,1,4901.114,3198.431Zm.073-6.708a1.883,1.883,0,1,0,1.87,1.877A1.906,1.906,0,0,0,4901.187,3191.723Z" transform="translate(-4844.152 -3164.715)" fill="#030303"/>
          <path id="Trazado_121791" data-name="Trazado 121791" d="M4875.875,3259.735c-.27,1.173-.682,1.515-1.884,1.522-1.761.008-3.521.015-5.28,0a3.084,3.084,0,0,1-3.258-3.253q-.036-3.422,0-6.845a3.045,3.045,0,0,1,3.207-3.19q9.144-.016,18.287,0a3.022,3.022,0,0,1,3.24,3.148q.067,3.47,0,6.944a3.064,3.064,0,0,1-3.3,3.2c-1.664.012-3.326.007-4.988,0-1.279,0-1.63-.28-1.993-1.539a1.718,1.718,0,0,1,2.014-1.409c1.5.064,3-.015,4.5.03.664.021.834-.215.82-.844q-.061-2.936-.026-5.874c0-.569-.2-.712-.741-.71q-8.663.023-17.33,0c-.536,0-.751.13-.745.707q.036,2.936-.02,5.874c-.012.625.163.866.822.848,1.6-.041,3.2.02,4.8-.026A1.6,1.6,0,0,1,4875.875,3259.735Z" transform="translate(-4827.612 -3196.449)" fill="#030303"/>
          <path id="Trazado_121792" data-name="Trazado 121792" d="M4879.279,3263.146a1.6,1.6,0,0,0-1.875-1.422c-1.6.045-3.2-.016-4.8.025-.661.018-.834-.224-.823-.847q.059-2.937.022-5.874c-.007-.576.208-.708.744-.707q8.665.023,17.329,0c.541,0,.747.142.74.711-.02,1.958-.014,3.916.028,5.874.013.628-.156.865-.821.844-1.5-.045-3,.034-4.5-.03a1.72,1.72,0,0,0-2.014,1.409Z" transform="translate(-4831.017 -3199.863)" fill="#9c9595"/>
          <path id="Trazado_121793" data-name="Trazado 121793" d="M4868.9,3233.6c-.65,0-1.3.028-1.95-.005a1.46,1.46,0,0,1-.089-2.917c1.4-.055,2.8-.061,4.19.008a1.378,1.378,0,0,1,1.277,1.554,1.346,1.346,0,0,1-1.383,1.352C4870.263,3233.633,4869.578,3233.6,4868.9,3233.6Z" transform="translate(-4827.642 -3187.163)" fill="#030303"/>
          <path id="Trazado_121794" data-name="Trazado 121794" d="M4907.419,3233.6c-.65,0-1.3.028-1.948-.006a1.461,1.461,0,0,1-.058-2.917c1.362-.055,2.728-.054,4.088,0a1.422,1.422,0,0,1,1.377,1.483,1.407,1.407,0,0,1-1.414,1.434C4908.784,3233.632,4908.1,3233.6,4907.419,3233.6Z" transform="translate(-4848.32 -3187.163)" fill="#030303"/>
          <path id="Trazado_121795" data-name="Trazado 121795" d="M4875.1,3195.133a1.882,1.882,0,1,1-.088,3.763,1.882,1.882,0,1,1,.088-3.763Z" transform="translate(-4831.759 -3168.124)" fill="#9c9595"/>
          <path id="Trazado_121796" data-name="Trazado 121796" d="M4904.6,3195.133a1.882,1.882,0,1,1-1.96,1.882A1.914,1.914,0,0,1,4904.6,3195.133Z" transform="translate(-4847.561 -3168.124)" fill="#9c9595"/>
        </g>
      </g>
      <g id="rZiz4f" transform="translate(189.891 132.141)">
        <g id="Grupo_88361" data-name="Grupo 88361" transform="translate(0 0)">
          <path id="Trazado_121797" data-name="Trazado 121797" d="M4961.116,3509.358a1.42,1.42,0,0,1,1.29,1.631q-.007,17.308,0,34.616a4.379,4.379,0,0,1-.3,1.862c-.262.567.042.55.436.547,1.151-.008,2.3-.018,3.454,0a1.967,1.967,0,0,1,2.188,2.192,23.378,23.378,0,0,1-.127,4.39,5.51,5.51,0,0,1-5.146,4.567c-3.708.131-7.423.071-11.134.074a1.326,1.326,0,0,1-1.447-1.292c.25-1.034.544-1.287,1.607-1.292,3.367-.014,6.735,0,10.1-.029a3.219,3.219,0,0,0,3.545-3.527c0-.576-.042-1.155.013-1.726.058-.613-.163-.756-.76-.756q-15.417.017-30.837-.024c-.649,0-.8.18-.832.813a3.172,3.172,0,0,1-3.186,3.3q-6.045.12-12.09,0a3.15,3.15,0,0,1-3.164-3.224c-.032-.712-.233-.887-.94-.885q-15.331.038-30.662.016c-.173,0-.348.008-.52,0-.214,0-.318.1-.308.309a15.592,15.592,0,0,0,.127,3.352c.42,1.6,1.63,2.374,3.641,2.375q15.458,0,30.921,0h28.5c1.324,0,1.585.188,1.864,1.3a1.412,1.412,0,0,1-1.623,1.3q-30,0-60.007-.014c-2.973,0-4.853-1.474-5.835-4.326-.04-.111-.056-.221-.188-.254V3549.3a2.812,2.812,0,0,1,2.855-1.3c1.107.073,2.225.015,3.44.015a7.735,7.735,0,0,1-.506-3.5q0-21.548,0-43.1c0-2.618,1.235-4.408,3.457-5.063a6.522,6.522,0,0,1,1.883-.18q17.75,0,35.5.018c.756,0,.907-.184.95-.931a3.062,3.062,0,0,0-1.336-3.081,3.835,3.835,0,0,1-1.479-1.761c-.787-1.989,1.451-5.813,3.572-6.064a6.633,6.633,0,0,1,3,.668,1.551,1.551,0,0,0,1.682-.172,1.343,1.343,0,0,1,.377-.211,2.215,2.215,0,0,0,1.563-2.115,5.94,5.94,0,0,1,.381-1.588,2.779,2.779,0,0,1,2.547-2.007,23.77,23.77,0,0,1,2.76-.016,2.891,2.891,0,0,1,2.719,2.146,4.177,4.177,0,0,1,.235,1,3.049,3.049,0,0,0,2.147,2.867,1.693,1.693,0,0,0,1.45.12,15.3,15.3,0,0,1,1.978-.6,2.857,2.857,0,0,1,3.29,1.274c.467.722.9,1.469,1.3,2.235a2.876,2.876,0,0,1-.508,3.425,3.961,3.961,0,0,1-.812.771c-1.359.786-1.479,2.023-1.377,3.4.036.509.21.621.671.617,1.958-.018,3.917-.013,5.875-.006a4.737,4.737,0,0,1,5.084,5.06c.015,1.237,0,2.476,0,3.713a1.357,1.357,0,0,1-1.282,1.541c-1.007-.215-1.332-.583-1.353-1.665-.029-1.324.009-2.649-.023-3.972a1.9,1.9,0,0,0-1.667-1.99c-1.489-.075-2.984-.019-4.5-.019.087.447.142.87.252,1.278s-.427.93.024,1.179a3.272,3.272,0,0,0,1.355.079c.144,0,.288,0,.432,0,1.181.012,1.546.365,1.562,1.55.026,2.416.06,4.833.062,7.249q.007,16.494,0,32.986c0,.23.009.462-.01.69-.084,1.145-.483,1.528-1.63,1.528q-31.653,0-63.307,0c-1.2,0-1.651-.413-1.662-1.58-.02-2.618-.007-5.238,0-7.857a1.447,1.447,0,0,1,1.293-1.649c1.166.339,1.33.568,1.333,1.889,0,1.871.051,3.745-.021,5.614-.032.849.216,1.027,1.042,1.026q29.676-.043,59.357-.011c.816,0,.97-.239.97-1q-.035-18.444-.018-36.887c0-.173-.014-.346,0-.518.027-.338-.127-.457-.454-.445-1,.037-2.065-.245-2.849.734-.174.216-.553.279-.849.386a3.953,3.953,0,0,1-2.923-.4,2.7,2.7,0,0,0-2.716.272,2.292,2.292,0,0,0-1.381,1.965,6.193,6.193,0,0,1-.351,1.508,2.91,2.91,0,0,1-2.767,2.2c-.861.04-1.729.04-2.59,0a2.837,2.837,0,0,1-2.717-2.135c-.216-.743-.374-1.506-.517-2.267a1.147,1.147,0,0,0-.527-.827c-1.2-.805-2.4-1.474-3.856-.56a2.446,2.446,0,0,1-.574.177,3.007,3.007,0,0,1-3.321-.775.85.85,0,0,0-.678-.291c-.719.01-1.439,0-2.16.007-.159,0-.351-.058-.445.149a6.977,6.977,0,0,0,.64,2.357c1.177.728,2.3,1.7,3.831.791a4.317,4.317,0,0,1,1.151-.343,2.891,2.891,0,0,1,3.292,1.281c.438.673.838,1.374,1.219,2.082a2.947,2.947,0,0,1-.555,3.71c-.507.509-1.059.975-1.591,1.458a.938.938,0,0,0-.436.7c-.043,1.432-.218,2.894,1.374,3.737a3.227,3.227,0,0,1,.753.707,2.917,2.917,0,0,1,.5,3.5,25.275,25.275,0,0,1-1.3,2.234,2.853,2.853,0,0,1-3.228,1.236c-.749-.19-1.481-.453-2.223-.676-.244-.073-.487-.209-.746-.055-1.145.679-2.614,1.042-2.567,2.832a4.332,4.332,0,0,1-.326,1.335,2.867,2.867,0,0,1-2.668,2.093c-.888.046-1.785.046-2.675,0a2.886,2.886,0,0,1-2.715-2.148,6.724,6.724,0,0,1-.358-1.508,2.346,2.346,0,0,0-1.419-2.036,2.437,2.437,0,0,0-2.629-.243,4.131,4.131,0,0,1-.826.241c-2.035.6-3.071.134-4.2-1.631-2.149-3.37-1.58-4.3,1.115-6.634.216-.186.557-.32.549-.63-.042-1.254.536-2.669-.964-3.562a5.81,5.81,0,0,1-1.187-1.125,2.807,2.807,0,0,1-.493-3.349,24.4,24.4,0,0,1,1.337-2.311,2.858,2.858,0,0,1,3.309-1.224c.722.191,1.429.431,2.141.655.249.08.508.209.749.059,1.1-.681,2.527-.98,2.577-2.748.019-.722.093-.967-.761-.961q-9.632.056-19.268,0c-.854,0-1.09.179-1.085,1.069.039,8.149.022,16.3.021,24.447,0,1.306-.181,1.562-1.294,1.895-1.1-.306-1.333-.645-1.333-1.967q-.005-12.958,0-25.915c0-1.794.34-2.139,2.108-2.139h30.326c1.185,0,1.185,0,1.2-1.131a1.4,1.4,0,0,1,.035-.515c.375-.871-.1-.9-.782-.895q-15.379.022-30.758.01c-.892,0-1.786-.024-2.677.019a1.978,1.978,0,0,0-1.957,1.918c-.021.258-.021.517-.021.776q0,21.855,0,43.709a8.419,8.419,0,0,0,.03.949,2,2,0,0,0,1.819,1.779c.316.031.633.023.95.023q31.707,0,63.415,0c1.153,0,2.306.011,3.455-.031a1.953,1.953,0,0,0,1.954-1.911c.025-.345.017-.691.017-1.036q0-16.629,0-33.257c0-.289-.012-.577.008-.863A1.409,1.409,0,0,1,4961.116,3509.358Zm-51.628,7.845a4.1,4.1,0,0,1-1.778,4.237c-1.375,1.046-1.254,1.1-.442,2.682.448.871.949,1.117,1.807.675a4.837,4.837,0,0,1,5.544.642,2.55,2.55,0,0,0,.373.215,3.179,3.179,0,0,1,1.706,2.449c.1.624.259,1.237.388,1.856a.619.619,0,0,0,.718.563c2.876-.1,2.26.563,2.868-2.266a3.387,3.387,0,0,1,1.542-2.471c.448-.258.918-.487,1.338-.787a4.019,4.019,0,0,1,4.149-.422c1.757.708,1.743.6,2.753-.989.489-.774.444-1.3-.315-1.772a4.836,4.836,0,0,1-2.248-5.191,3.215,3.215,0,0,0,0-.518,2.975,2.975,0,0,1,1.154-2.486c.529-.443,1.023-.93,1.54-1.386a.563.563,0,0,0,.141-.826c-1.569-2.52-.645-2.233-3.378-1.419-.165.049-.322.12-.488.17a3.362,3.362,0,0,1-2.5-.224c-2.185-1-3.912-2.329-3.942-5.009,0-.027-.023-.055-.023-.083-.038-.741-.444-.916-1.146-.9-2.069.035-2.085,0-2.48,2.031a3.185,3.185,0,0,1-.916,2.176c-1.9,1.374-3.708,2.864-6.417,1.677-1.754-.768-1.35-.807-2.33.869-.8,1.361-.9,1.071.319,2.067C4908.887,3513.953,4909.91,3515.248,4909.488,3517.2Zm20.31-22.493a3.936,3.936,0,0,1-1.873,4.357c-.116.079-.2.217-.315.292-.772.481-.787,1.008-.3,1.772.994,1.571.98,1.673,2.763.959a3.944,3.944,0,0,1,4.068.4,6.389,6.389,0,0,0,.9.511,3.626,3.626,0,0,1,2.069,2.968c.3,2.077.345,2.037,2.424,2.082.746.016,1.147-.2,1.182-.955a5.181,5.181,0,0,1,3.633-4.839,1.026,1.026,0,0,0,.146-.091,3.118,3.118,0,0,1,2.889-.271c.641.249,1.318.4,1.969.632a.549.549,0,0,0,.72-.257c1.437-1.932,1.426-2.065-.423-3.632-.13-.113-.258-.228-.392-.339a2.956,2.956,0,0,1-1.064-2.1c-.187-2.333-.16-4.594,2.224-5.974.026-.014.04-.044.063-.058.772-.493.743-1.03.265-1.778-.979-1.541-.963-1.638-2.687-.952a4.059,4.059,0,0,1-4.227-.447,4.659,4.659,0,0,0-.747-.427,3.789,3.789,0,0,1-2.126-2.927c-.546-2.671,0-2.029-2.624-2.13-.544-.021-.868.11-.94.716-.068.568-.234,1.124-.351,1.685-.4,1.941-3.589,4.2-5.566,3.93a4.632,4.632,0,0,1-.75-.188c-.385-.118-.76-.267-1.146-.375-1.539-.428-1.21-.663-2.03.784-.882,1.557-1.119,1.136.466,2.455C4929.374,3491.65,4930.166,3492.888,4929.8,3494.71Zm-5.866,55.915c-1.953,0-3.909-.008-5.862.009-.289,0-.754-.216-.754.39,0,.476.014.948.618,1.07a2.656,2.656,0,0,0,.513.044q5.517,0,11.036,0a1.9,1.9,0,0,0,.594-.077c.529-.174.506-.635.5-1.069-.005-.543-.428-.356-.7-.358C4927.9,3550.619,4925.914,3550.625,4923.932,3550.625Z" transform="translate(-4879.705 -3478.883)" fill="#050606"/>
          <path id="Trazado_121798" data-name="Trazado 121798" d="M4902,3558.082a1.446,1.446,0,0,0-1.292,1.648c0,2.619-.015,5.24.006,7.858.009,1.166.466,1.579,1.661,1.579q31.654,0,63.305,0c1.146,0,1.549-.383,1.632-1.527.017-.229.008-.461.008-.69q0-16.493,0-32.986c0-2.416-.034-4.833-.063-7.249-.014-1.186-.379-1.538-1.559-1.55-.146,0-.288,0-.433,0-.459-.013-1,.118-1.355-.079-.451-.249.085-.767-.025-1.178s-.165-.832-.25-1.279c1.52,0,3.014-.054,4.5.02a1.9,1.9,0,0,1,1.668,1.989c.031,1.323,0,2.648.021,3.971.024,1.083.347,1.451,1.355,1.666q-.005,1.434-.007,2.87a1.41,1.41,0,0,0-1.346,1.51c-.02.286-.008.575-.008.863v33.257c0,.346.006.692-.018,1.037a1.953,1.953,0,0,1-1.953,1.911c-1.152.042-2.3.031-3.456.032q-31.709,0-63.416,0c-.318,0-.635.008-.95-.024a2,2,0,0,1-1.819-1.779,8.524,8.524,0,0,1-.031-.948q0-21.855,0-43.71c0-.258,0-.518.017-.776a1.98,1.98,0,0,1,1.957-1.918c.891-.042,1.786-.019,2.677-.019q15.379,0,30.758-.01c.681,0,1.16.023.784.894a1.391,1.391,0,0,0-.036.515c-.012,1.131-.01,1.131-1.2,1.131q-15.16,0-30.324,0c-1.77,0-2.108.345-2.108,2.139q0,12.959,0,25.915c0,1.322.237,1.659,1.333,1.966Q4902.02,3556.608,4902,3558.082Z" transform="translate(-4889.761 -3502.67)" fill="#427e9d"/>
          <path id="Trazado_121799" data-name="Trazado 121799" d="M4950.43,3643.665c-.279-1.112-.542-1.3-1.866-1.3h-28.5q-15.461,0-30.92,0c-2.012,0-3.221-.777-3.64-2.375a15.624,15.624,0,0,1-.128-3.351.265.265,0,0,1,.308-.309c.174,0,.346,0,.52,0q15.331,0,30.661-.018c.707,0,.909.174.941.885a3.149,3.149,0,0,0,3.164,3.224q6.044.119,12.087,0a3.174,3.174,0,0,0,3.188-3.3c.03-.633.182-.815.833-.813q15.417.045,30.834.024c.6,0,.817.144.76.756-.053.571-.009,1.15-.01,1.726a3.219,3.219,0,0,1-3.545,3.527c-3.37.028-6.737.015-10.106.03-1.061,0-1.354.257-1.6,1.292Z" transform="translate(-4882.775 -3564.596)" fill="#a6d7f1"/>
          <path id="Trazado_121800" data-name="Trazado 121800" d="M4906.574,3564.24c.014-.983.025-1.966.039-2.949,1.111-.333,1.291-.588,1.291-1.894,0-8.15.019-16.3-.022-24.447,0-.891.234-1.074,1.089-1.068q9.633.058,19.267,0c.853-.005.78.239.76.962-.049,1.768-1.48,2.067-2.577,2.747-.241.15-.5.021-.75-.058-.711-.225-1.419-.465-2.14-.655a2.855,2.855,0,0,0-3.309,1.223,24.223,24.223,0,0,0-1.337,2.311,2.809,2.809,0,0,0,.491,3.348,5.866,5.866,0,0,0,1.188,1.126c1.5.893.921,2.308.963,3.561.009.311-.333.445-.547.63-2.695,2.338-3.263,3.264-1.113,6.634,1.123,1.763,2.159,2.227,4.194,1.631a4.06,4.06,0,0,0,.824-.242,2.443,2.443,0,0,1,2.631.244,2.352,2.352,0,0,1,1.42,2.037,6.683,6.683,0,0,0,.356,1.507,2.889,2.889,0,0,0,2.715,2.148c.89.043,1.786.042,2.677,0a2.87,2.87,0,0,0,2.667-2.092,4.345,4.345,0,0,0,.325-1.335c-.047-1.79,1.422-2.154,2.566-2.833.26-.154.5-.018.745.056.742.222,1.474.486,2.224.677a2.857,2.857,0,0,0,3.229-1.237,25.2,25.2,0,0,0,1.3-2.235,2.916,2.916,0,0,0-.5-3.5,3.232,3.232,0,0,0-.754-.708c-1.592-.843-1.416-2.3-1.374-3.737a.943.943,0,0,1,.435-.7c.534-.484,1.084-.95,1.591-1.459a2.947,2.947,0,0,0,.556-3.71c-.38-.708-.782-1.408-1.22-2.082a2.887,2.887,0,0,0-3.29-1.281,4.327,4.327,0,0,0-1.153.343c-1.533.908-2.652-.063-3.83-.79a6.944,6.944,0,0,1-.641-2.356c.1-.208.287-.149.445-.15.721-.006,1.44,0,2.162-.006a.847.847,0,0,1,.677.291,3.009,3.009,0,0,0,3.323.775,2.448,2.448,0,0,0,.573-.177c1.451-.913,2.654-.245,3.855.56a1.145,1.145,0,0,1,.527.827c.142.762.3,1.524.517,2.267a2.836,2.836,0,0,0,2.718,2.135c.861.041,1.728.042,2.59,0a2.91,2.91,0,0,0,2.767-2.2,6.248,6.248,0,0,0,.349-1.507,2.29,2.29,0,0,1,1.382-1.965,2.693,2.693,0,0,1,2.716-.273,3.953,3.953,0,0,0,2.925.4c.293-.107.673-.169.847-.386.781-.98,1.847-.7,2.85-.734.326-.013.48.106.454.444-.014.171,0,.346,0,.518q0,18.443.019,36.887c0,.76-.153,1-.971,1q-29.678-.033-59.358.011c-.822,0-1.073-.177-1.04-1.026.072-1.87.024-3.742.021-5.615C4907.9,3564.809,4907.739,3564.58,4906.574,3564.24Z" transform="translate(-4894.334 -3508.828)" fill="#f2f2f2"/>
          <path id="Trazado_121801" data-name="Trazado 121801" d="M4941.521,3547.156c.421-1.955-.6-3.25-2.066-4.441-1.221-.995-1.114-.706-.319-2.066.978-1.676.575-1.636,2.33-.868,2.707,1.186,4.517-.3,6.417-1.679a3.189,3.189,0,0,0,.915-2.175c.4-2.03.41-2,2.479-2.032.7-.012,1.108.163,1.146.9,0,.028.025.056.025.083.03,2.68,1.758,4.006,3.941,5.01a3.366,3.366,0,0,0,2.5.224c.165-.051.324-.121.489-.17,2.734-.815,1.808-1.1,3.376,1.419a.563.563,0,0,1-.139.826c-.518.457-1.011.942-1.541,1.386a2.978,2.978,0,0,0-1.154,2.486,3.266,3.266,0,0,1,0,.517,4.838,4.838,0,0,0,2.247,5.192c.759.476.8,1,.314,1.771-1.009,1.593-.995,1.7-2.753.99a4.02,4.02,0,0,0-4.149.422c-.42.3-.889.529-1.338.787a3.386,3.386,0,0,0-1.543,2.47c-.607,2.831.01,2.17-2.866,2.267a.623.623,0,0,1-.721-.564c-.127-.62-.288-1.232-.385-1.857a3.171,3.171,0,0,0-1.707-2.448,2.65,2.65,0,0,1-.373-.215,4.832,4.832,0,0,0-5.543-.641c-.86.441-1.359.2-1.807-.675-.812-1.581-.934-1.637.443-2.683A4.1,4.1,0,0,0,4941.521,3547.156Zm9.248-7.006a7.038,7.038,0,1,0,7.045,7.027A7.016,7.016,0,0,0,4950.769,3540.15Z" transform="translate(-4911.738 -3508.834)" fill="#fac027"/>
          <path id="Trazado_121802" data-name="Trazado 121802" d="M4986.153,3497.848c.369-1.822-.422-3.06-1.783-4.194-1.584-1.32-1.347-.9-.466-2.456.821-1.447.492-1.212,2.033-.784.385.108.761.257,1.145.376a4.736,4.736,0,0,0,.749.188c1.978.267,5.166-1.989,5.566-3.929.117-.562.282-1.118.351-1.686.073-.606.4-.737.94-.717,2.625.1,2.08-.542,2.625,2.129a3.789,3.789,0,0,0,2.126,2.927,4.731,4.731,0,0,1,.748.427,4.055,4.055,0,0,0,4.225.448c1.725-.687,1.708-.589,2.687.952.479.75.507,1.285-.262,1.779-.025.015-.041.044-.063.058-2.384,1.379-2.414,3.642-2.224,5.974a2.953,2.953,0,0,0,1.062,2.1c.133.111.261.227.394.339,1.85,1.568,1.858,1.7.42,3.633a.549.549,0,0,1-.719.257c-.648-.23-1.328-.383-1.968-.633a3.122,3.122,0,0,0-2.888.271,1.2,1.2,0,0,1-.146.091,5.18,5.18,0,0,0-3.632,4.84c-.038.759-.436.972-1.183.955-2.079-.045-2.122,0-2.424-2.081a3.633,3.633,0,0,0-2.071-2.969,6.319,6.319,0,0,1-.9-.512,3.949,3.949,0,0,0-4.068-.4c-1.783.715-1.769.613-2.763-.958-.484-.764-.468-1.291.3-1.772.12-.074.2-.212.316-.292A3.927,3.927,0,0,0,4986.153,3497.848Zm16.3.037a7.085,7.085,0,1,0-7.044,7.078A7.031,7.031,0,0,0,5002.456,3497.885Z" transform="translate(-4936.06 -3482.021)" fill="#fac027"/>
          <path id="Trazado_121803" data-name="Trazado 121803" d="M4968.888,3636.346c1.982,0,3.965-.007,5.948.007.269,0,.693-.184.7.359,0,.434.027.9-.5,1.07a1.935,1.935,0,0,1-.594.076q-5.52.006-11.034,0a2.648,2.648,0,0,1-.514-.044c-.6-.121-.618-.594-.618-1.07,0-.606.466-.386.753-.39C4964.979,3636.338,4966.935,3636.346,4968.888,3636.346Z" transform="translate(-4924.661 -3564.602)" fill="#a6d7f1"/>
          <path id="Trazado_121804" data-name="Trazado 121804" d="M4956.919,3547.628a7.038,7.038,0,1,1-7.084,6.964A7.065,7.065,0,0,1,4956.919,3547.628Zm-.108,11.481a4.443,4.443,0,1,0-4.38-4.562A4.411,4.411,0,0,0,4956.811,3559.108Z" transform="translate(-4917.89 -3516.313)" fill="#050606"/>
          <path id="Trazado_121805" data-name="Trazado 121805" d="M5008.522,3505.311a7.085,7.085,0,1,1-7.1-7.028A7.034,7.034,0,0,1,5008.522,3505.311Zm-7.118,1.427c1.236,0,2.473-.033,3.708.015.543.021.71-.232.762-.677a4.4,4.4,0,0,0-1.977-4.464,4.468,4.468,0,0,0-6.848,4.534c.086.478.281.607.734.6C4998.99,3506.721,5000.2,3506.737,5001.4,3506.737Zm1.884,2.657h-3.345A3.978,3.978,0,0,0,5003.289,3509.395Z" transform="translate(-4942.128 -3489.445)" fill="#050606"/>
          <path id="Trazado_121806" data-name="Trazado 121806" d="M4959.913,3562.211a4.444,4.444,0,1,1,.155-8.886,4.444,4.444,0,1,1-.155,8.886Z" transform="translate(-4920.991 -3519.414)" fill="#f2f2f2"/>
          <path id="Trazado_121807" data-name="Trazado 121807" d="M5004.548,3509.846c-1.207,0-2.416-.017-3.62.008-.455.008-.649-.121-.736-.6a4.469,4.469,0,0,1,6.848-4.534,4.4,4.4,0,0,1,1.977,4.464c-.051.444-.216.7-.761.676C5007.021,3509.813,5005.783,3509.846,5004.548,3509.846Z" transform="translate(-4945.268 -3492.554)" fill="#fdfdfd"/>
          <path id="Trazado_121808" data-name="Trazado 121808" d="M5009.973,3522.678a3.983,3.983,0,0,1-3.343,0Z" transform="translate(-4948.812 -3502.729)" fill="#427e9d"/>
        </g>
      </g>
      <g id="_0Uc0AW" data-name="0Uc0AW" transform="translate(0 96.316)">
        <g id="Grupo_88362" data-name="Grupo 88362" transform="translate(0)">
          <path id="Trazado_121809" data-name="Trazado 121809" d="M4407.218,3371.926a11.459,11.459,0,0,1,2.822,1.49,5.985,5.985,0,0,1-3.7,10.478c-2.219.09-2.219.09-2.219,2.279v18.706a8.155,8.155,0,0,1,3.451-.916,7.364,7.364,0,0,1,5.795,2.576c5.208,5.82,10.437,11.624,15.574,17.507,3.36,3.847,4,8.257,2.152,13-2.8,7.181-5.581,14.367-8.468,21.511-2.441,6.041-7.026,9.153-13.53,9.367-.856.028-1,.282-1,1.059a39.854,39.854,0,0,1-.1,5.969,7.676,7.676,0,0,1-5.125,6.417,1.023,1.023,0,0,0-.8,1.161c.045,2.344.032,4.688.013,7.031-.013,1.626-.743,2.369-2.363,2.372q-9.609.019-19.217,0a2.069,2.069,0,0,1-2.379-2.358c-.019-2.382-.022-4.766.008-7.148a.9.9,0,0,0-.674-1.016c-3.544-1.348-5.234-4.015-5.363-7.728-.056-1.56-.049-3.125.008-4.687.027-.762-.1-1.059-.979-1.071a14.114,14.114,0,0,1-10.863-4.857,15.3,15.3,0,0,1-2.722-4.605q-4.206-10.64-8.386-21.293a12.238,12.238,0,0,1,2.4-13.477c4.806-5.4,9.663-10.748,14.393-16.207,2.762-3.186,5.907-4.463,9.973-2.714.265-.332.152-.69.152-1.011.009-6.25-.019-12.5.033-18.75.008-.98-.321-1.126-1.183-1.119-3.643.032-6.034-1.707-6.67-4.761a6,6,0,0,1,4.15-6.948c.207-.061.489.05.593-.253Zm-13.159,110.041c-3.741-.016-7.481-.023-11.224-.058-.582-.006-.728.222-.718.759.023,1.52.029,3.041,0,4.561-.012.566.186.729.738.724,3.743-.031,7.483-.034,11.224-.046,1.086.014,2.171.01,3.256.046.518.017.78-.116.77-.7-.031-1.55-.021-3.1-.005-4.654.005-.484-.16-.71-.669-.7C4396.306,3481.939,4395.183,3481.948,4394.059,3481.968Zm12.444-73.681a1.136,1.136,0,0,0-.343.041c-2.277,1.05-2.729,3.892-.886,5.871,2.836,3.049,5.711,6.064,8.575,9.089a13.909,13.909,0,0,1,3.013,4.122.81.81,0,0,0,.9.538c1.79-.033,3.582-.034,5.369-.049h3.607a6.99,6.99,0,0,0-1.2-1.7q-2.26-2.535-4.516-5.077-5.218-5.863-10.446-11.717A3.371,3.371,0,0,0,4406.5,3408.287Zm8.2,49.72c.462.718.942,1.424,1.378,2.157.315.526.526.633.985.083a12.3,12.3,0,0,0,1.951-3.44q4.173-10.537,8.309-21.089a11.933,11.933,0,0,0,.738-2.818c.1-.787-.17-1.03-.942-.979-1.009.066-2.026.037-3.04.049-1.56-.013-3.127.069-4.679-.066-1.23-.111-1.539.336-1.458,1.469a6.447,6.447,0,0,1-.28,1.956c-.758,3.027-1.948,5.917-2.87,8.892a16.868,16.868,0,0,1-3.891,7.236.662.662,0,0,0-.081,1C4412.125,3454.3,4413.408,3456.155,4414.7,3458.007Zm-15.931,19.845c3.585.514,5.268-1.657,5.349-4.041.054-1.674,0-3.352.022-5.028.011-.6-.187-.85-.8-.821-1.05.047-2.1.046-3.152.064-.466-.022-.934-.066-1.4-.066q-10.309-.007-20.619,0c-.469,0-.937.018-1.406,0-.5-.023-.688.182-.682.686.022,1.8-.066,3.6.042,5.386a3.914,3.914,0,0,0,4.146,3.879c2.771.032,5.544.018,8.317.008C4391.978,3477.9,4395.375,3477.873,4398.769,3477.851Zm4.893-101.88c-3.432-.017-6.864-.045-10.295-.049q-9.418-.011-18.838,0c-1.443,0-2.417.835-2.419,2,0,1.187.935,1.969,2.405,1.989.9.011,1.794,0,2.692,0,2.287,0,2.875.6,2.876,2.925,0,1.677.01,3.355,0,5.032,0,.49.04.837.683.763,3.857-.449,7.382.66,10.836,2.238a7.778,7.778,0,0,0,4.6.98c1.327.21,2.393-.529,3.539-.975.346-.135.407-.43.4-.764q-.037-4.085-.061-8.168c.393-1.552.96-2,2.567-2.032.342-.008.685-.034,1.027-.052.776.015,1.552.067,2.326.04a1.979,1.979,0,1,0,.1-3.955C4405.292,3375.885,4404.474,3375.958,4403.661,3375.971Zm8.7,85.965c-1.579-2.364-3.174-4.717-4.724-7.1-.392-.6-.756-.451-1.267-.224a14.6,14.6,0,0,1-6.023,1.231q-10.242-.013-20.484,0a14.244,14.244,0,0,1-6.02-1.24c-.6-.275-.937-.263-1.332.332q-2.483,3.755-5.063,7.448c-.435.625-.268.782.384,1a13.1,13.1,0,0,0,4.268.556q17.967.02,35.934,0c.814,0,1.629-.127,2.442-.194a2.652,2.652,0,0,0,1.473-.231C4413.309,3463.113,4413.3,3463.1,4412.362,3461.936Zm-16.393-65.873a29.881,29.881,0,0,1-9-2.744,12.029,12.029,0,0,0-5.626-.75c-.929.058-1.3.324-1.295,1.389.049,12.647.032,25.294.031,37.941a30.926,30.926,0,0,0,.141,3.152,9.949,9.949,0,0,0,17.381,5.448,10.867,10.867,0,0,0,2.518-7.46q0-18.326,0-36.653v-1.314a17.132,17.132,0,0,1-3.92.991Zm-19.886,22.753c-2.655,2.819-5.1,5.39-7.517,7.992a8.19,8.19,0,0,0-1.873,8.67c1.016,3.068,2.026,6.136,3.094,9.186,1.5,4.28,4.949,7.055,9.324,7.129,7.339.123,14.684.161,22.02-.018a9.344,9.344,0,0,0,8.91-6.291c1.328-3.365,2.405-6.828,3.532-10.268a7.94,7.94,0,0,0-1.869-8.34c-2.256-2.436-4.543-4.841-6.829-7.248-.187-.2-.3-.55-.75-.5v1.161c0,4.453.03,8.906-.008,13.357a14.009,14.009,0,0,1-26.149,7.247,14.62,14.62,0,0,1-1.886-7.509C4376.088,3428.633,4376.083,3423.88,4376.083,3418.816Zm-18.9,13.116c-1.443,0-2.889.023-4.331-.011-.572-.013-.738.167-.7.736a10.086,10.086,0,0,0,.744,3.054q4.159,10.608,8.355,21.2a12.084,12.084,0,0,0,1.908,3.331c.43.521.617.486.98-.058,1.687-2.532,3.393-5.051,5.141-7.541a.893.893,0,0,0-.12-1.372,14.031,14.031,0,0,1-3.208-5.51c-.887-2.66-1.8-5.314-2.687-7.974a13.987,13.987,0,0,1-1.019-5.128c.032-.678-.295-.748-.845-.738C4359.992,3431.95,4358.586,3431.933,4357.18,3431.933Zm-3.8-3.993c3.18,0,6.1-.013,9.026.01a.9.9,0,0,0,.978-.607,13.852,13.852,0,0,1,2.875-3.952c2.869-3.033,5.726-6.08,8.606-9.1a3.7,3.7,0,0,0,1.067-3.741,3.5,3.5,0,0,0-6.045-1.391c-5.26,5.818-10.447,11.7-15.653,17.565A13.889,13.889,0,0,0,4353.384,3427.94Z" transform="translate(-4348.122 -3371.926)" fill="#020203"/>
          <path id="Trazado_121810" data-name="Trazado 121810" d="M4412.989,3406.9a17.047,17.047,0,0,0,3.922-.992v1.315q0,18.327,0,36.653a10.88,10.88,0,0,1-2.517,7.459,9.95,9.95,0,0,1-17.382-5.447,30.811,30.811,0,0,1-.14-3.154c0-12.646.017-25.293-.032-37.94,0-1.064.368-1.33,1.295-1.387a12.018,12.018,0,0,1,5.628.75,29.862,29.862,0,0,0,9,2.743c0,3.185.006,6.371,0,9.555,0,.415.12.859-.168,1.24a1.984,1.984,0,0,0-2.691-.6,1.85,1.85,0,0,0-.9,2.2,1.771,1.771,0,0,0,1.411,1.4,2.114,2.114,0,0,0,2.3-1.009q0,8.078.008,16.153a2.1,2.1,0,0,0-2.306-.98,1.8,1.8,0,0,0-1.4,1.413,1.9,1.9,0,0,0,.9,2.21,1.965,1.965,0,0,0,2.677-.643c.3.424.164.908.166,1.364.016,2.192.007,4.383.007,6.575l.23,0Zm-6.105,35.932a2,2,0,0,0-1.975-2.02,1.95,1.95,0,0,0-1.994,1.99,1.985,1.985,0,0,0,3.969.03Zm-3.878-30.066a2.011,2.011,0,0,0-2.09,1.919,1.972,1.972,0,0,0,1.928,2.066,1.935,1.935,0,0,0,2.018-1.846A1.991,1.991,0,0,0,4403.006,3412.761Zm3.884,14a1.985,1.985,0,0,0-3.97,0,1.979,1.979,0,0,0,1.919,1.961A2.005,2.005,0,0,0,4406.89,3426.765Z" transform="translate(-4364.91 -3382.759)" fill="#fbe438"/>
          <path id="Trazado_121811" data-name="Trazado 121811" d="M4420.515,3507.126c-.814.068-1.629.195-2.443.195q-17.967.017-35.933,0a13.143,13.143,0,0,1-4.268-.555c-.651-.221-.82-.379-.382-1q2.571-3.694,5.061-7.447c.394-.6.729-.607,1.332-.332a14.254,14.254,0,0,0,6.019,1.239q10.242-.013,20.484,0a14.59,14.59,0,0,0,6.022-1.231c.513-.227.877-.374,1.267.225,1.55,2.38,3.147,4.733,4.724,7.1A12.29,12.29,0,0,0,4420.515,3507.126Z" transform="translate(-4358.158 -3415.305)" fill="#2193ee"/>
          <path id="Trazado_121812" data-name="Trazado 121812" d="M4408.814,3393.949a7.775,7.775,0,0,1-4.6-.98c-3.452-1.578-6.977-2.687-10.834-2.238-.645.074-.688-.271-.685-.763.014-1.676.006-3.354.006-5.032,0-2.325-.59-2.923-2.879-2.925-.9,0-1.793.01-2.692,0-1.47-.019-2.408-.8-2.406-1.988,0-1.162.978-2,2.42-2q9.419-.016,18.84,0c3.43,0,6.862.033,10.293.049a4.7,4.7,0,0,1,.014,3.889c-.343.017-.686.043-1.029.05-1.607.034-2.175.482-2.567,2.032-1.013.011-2.029.052-3.045.02-.65-.02-.893.2-.884.871C4408.8,3387.937,4408.8,3390.943,4408.814,3393.949Z" transform="translate(-4360.736 -3374.023)" fill="#ccd5da"/>
          <path id="Trazado_121813" data-name="Trazado 121813" d="M4359.295,3463.481c1.407,0,2.811.02,4.217-.01.551-.01.875.061.843.738a14,14,0,0,0,1.019,5.128c.891,2.66,1.8,5.313,2.687,7.974a14.043,14.043,0,0,0,3.207,5.509.892.892,0,0,1,.121,1.372c-1.748,2.492-3.454,5.01-5.142,7.542-.362.544-.549.578-.979.058a12.065,12.065,0,0,1-1.91-3.332q-4.186-10.6-8.354-21.2a10.122,10.122,0,0,1-.745-3.054c-.035-.568.131-.748.7-.735C4356.406,3463.5,4357.852,3463.481,4359.295,3463.481Z" transform="translate(-4350.235 -3403.475)" fill="#2294f0"/>
          <path id="Trazado_121814" data-name="Trazado 121814" d="M4413.465,3528.348c-3.394.021-6.79.05-10.187.062-2.771.01-5.545.025-8.316-.007a3.915,3.915,0,0,1-4.145-3.879c-.11-1.79-.02-3.591-.042-5.387-.008-.505.185-.709.682-.686.468.021.937,0,1.406,0q10.31,0,20.619,0c.466,0,.932.044,1.4.067q-.006.757-.008,1.513C4414.859,3522.884,4415.2,3525.793,4413.465,3528.348Z" transform="translate(-4362.816 -3422.425)" fill="#2295f1"/>
          <path id="Trazado_121815" data-name="Trazado 121815" d="M4356.151,3446.875a13.913,13.913,0,0,1,.855-1.218c5.207-5.865,10.394-11.749,15.654-17.566a3.5,3.5,0,0,1,6.043,1.391,3.7,3.7,0,0,1-1.067,3.74c-2.881,3.023-5.735,6.07-8.6,9.1a13.829,13.829,0,0,0-2.875,3.951.9.9,0,0,1-.977.608C4362.256,3446.863,4359.332,3446.875,4356.151,3446.875Z" transform="translate(-4350.888 -3390.862)" fill="#2294f0"/>
          <path id="Trazado_121816" data-name="Trazado 121816" d="M4447.572,3489.538c-1.291-1.852-2.575-3.709-3.878-5.551a.662.662,0,0,1,.077-1,16.835,16.835,0,0,0,3.892-7.235c.924-2.975,2.111-5.866,2.871-8.893a6.323,6.323,0,0,0,.281-1.955c-.082-1.134.227-1.58,1.458-1.471,1.549.137,3.118.055,4.68.067a8.82,8.82,0,0,1-.307,2.766c-.627,2.22-1.6,4.3-2.433,6.438C4452.032,3478.329,4449.791,3483.929,4447.572,3489.538Z" transform="translate(-4380.994 -3403.457)" fill="#2294f0"/>
          <path id="Trazado_121817" data-name="Trazado 121817" d="M4452.586,3447.02c-1.79.013-3.582.014-5.371.049a.812.812,0,0,1-.9-.539,13.87,13.87,0,0,0-3.013-4.121c-2.862-3.026-5.736-6.041-8.575-9.09-1.842-1.979-1.391-4.821.887-5.871a1.117,1.117,0,0,1,.344-.041,1.853,1.853,0,0,0,.234.519c3.983,4.474,8,8.916,11.953,13.419C4449.731,3443.148,4451.6,3444.748,4452.586,3447.02Z" transform="translate(-4377.577 -3391.047)" fill="#2294f0"/>
          <path id="Trazado_121818" data-name="Trazado 121818" d="M4449.713,3489.551c2.219-5.609,4.459-11.209,6.64-16.834.829-2.137,1.806-4.218,2.434-6.437a8.791,8.791,0,0,0,.307-2.767c1.013-.012,2.029.018,3.039-.048.771-.052,1.044.192.941.978a11.932,11.932,0,0,1-.737,2.819q-4.139,10.549-8.307,21.088a12.358,12.358,0,0,1-1.954,3.439c-.459.552-.672.446-.985-.082C4450.654,3490.975,4450.175,3490.27,4449.713,3489.551Z" transform="translate(-4383.133 -3403.472)" fill="#1565be"/>
          <path id="Trazado_121819" data-name="Trazado 121819" d="M4411.953,3545.743c-3.74.013-7.48.016-11.224.046-.551.005-.749-.159-.738-.724.031-1.519.026-3.041,0-4.56-.009-.537.137-.766.718-.76,3.741.036,7.483.042,11.224.061Q4411.948,3542.773,4411.953,3545.743Z" transform="translate(-4365.998 -3429.763)" fill="#2295f1"/>
          <path id="Trazado_121820" data-name="Trazado 121820" d="M4453.833,3446.873c-.991-2.272-2.855-3.871-4.437-5.676-3.951-4.5-7.973-8.945-11.957-13.418a1.953,1.953,0,0,1-.233-.519,3.374,3.374,0,0,1,4.069,1.122q5.241,5.842,10.445,11.717,2.26,2.536,4.516,5.077a7.021,7.021,0,0,1,1.2,1.7Z" transform="translate(-4378.823 -3390.901)" fill="#1565bd"/>
          <path id="Trazado_121821" data-name="Trazado 121821" d="M4425.406,3528.352c1.738-2.556,1.394-5.463,1.407-8.311q.006-.757.008-1.515c1.052-.018,2.1-.017,3.153-.064.614-.029.813.223.8.821-.028,1.676.032,3.354-.024,5.028C4430.674,3526.7,4428.991,3528.867,4425.406,3528.352Z" transform="translate(-4374.756 -3422.427)" fill="#1565bd"/>
          <path id="Trazado_121822" data-name="Trazado 121822" d="M4421.455,3397.117c-.011-3-.009-6.011-.046-9.016-.009-.667.232-.891.884-.872,1.014.031,2.03-.008,3.043-.019q.029,4.085.062,8.169c0,.334-.057.629-.4.765C4423.85,3396.589,4422.782,3397.328,4421.455,3397.117Z" transform="translate(-4373.379 -3377.193)" fill="#5e7a88"/>
          <path id="Trazado_121823" data-name="Trazado 121823" d="M4418.235,3545.738q-.008-2.97-.018-5.938c1.124-.021,2.247-.03,3.369-.067.508-.017.673.209.67.694-.016,1.551-.026,3.1,0,4.653.011.588-.25.72-.77.7C4420.4,3545.748,4419.32,3545.751,4418.235,3545.738Z" transform="translate(-4372.28 -3429.758)" fill="#1564b9"/>
          <path id="Trazado_121824" data-name="Trazado 121824" d="M4432.88,3381.96a4.688,4.688,0,0,0-.013-3.888c.814-.014,1.632-.086,2.44-.027a1.979,1.979,0,1,1-.1,3.954C4434.434,3382.025,4433.655,3381.975,4432.88,3381.96Z" transform="translate(-4377.328 -3374.027)" fill="#5e7a88"/>
          <path id="Trazado_121825" data-name="Trazado 121825" d="M4421.269,3408.756v38.876l-.23,0c0-2.192.009-4.383,0-6.575,0-.456.137-.941-.167-1.364a2.8,2.8,0,0,0,.128-2q0-8.075,0-16.152a2.76,2.76,0,0,0-.124-1.991c.287-.38.167-.824.168-1.24.011-3.185,0-6.369,0-9.555Z" transform="translate(-4373.194 -3384.618)" fill="#e2d455"/>
          <path id="Trazado_121826" data-name="Trazado 121826" d="M4443.269,3511.082a12.224,12.224,0,0,1,1.883-1.814c.943,1.167.946,1.178-.413,1.583A2.653,2.653,0,0,1,4443.269,3511.082Z" transform="translate(-4380.913 -3419.259)" fill="#1564b9"/>
          <path id="Trazado_121827" data-name="Trazado 121827" d="M4410.08,3462.52a1.985,1.985,0,0,1-3.971-.029,1.947,1.947,0,0,1,1.992-1.99A2,2,0,0,1,4410.08,3462.52Z" transform="translate(-4368.105 -3402.452)" fill="#060602"/>
          <path id="Trazado_121828" data-name="Trazado 121828" d="M4405.146,3417.7a1.993,1.993,0,0,1,1.855,2.139,1.932,1.932,0,0,1-2.017,1.845,1.97,1.97,0,0,1-1.928-2.065A2.011,2.011,0,0,1,4405.146,3417.7Z" transform="translate(-4367.053 -3387.701)" fill="#060602"/>
          <path id="Trazado_121829" data-name="Trazado 121829" d="M4410.085,3438.034a2,2,0,0,1-2.047,1.96,1.982,1.982,0,0,1-1.921-1.963,1.984,1.984,0,0,1,3.969,0Z" transform="translate(-4368.109 -3394.028)" fill="#060602"/>
          <path id="Trazado_121830" data-name="Trazado 121830" d="M4419.083,3452.358a2.8,2.8,0,0,1-.131,2,1.967,1.967,0,0,1-2.678.644,1.9,1.9,0,0,1-.9-2.211,1.8,1.8,0,0,1,1.4-1.414A2.1,2.1,0,0,1,4419.083,3452.358Z" transform="translate(-4371.278 -3399.281)" fill="#060602"/>
          <path id="Trazado_121831" data-name="Trazado 121831" d="M4418.945,3424.756a2.761,2.761,0,0,1,.123,1.991,2.114,2.114,0,0,1-2.3,1.008,1.771,1.771,0,0,1-1.412-1.4,1.849,1.849,0,0,1,.9-2.2A1.98,1.98,0,0,1,4418.945,3424.756Z" transform="translate(-4371.27 -3389.824)" fill="#060602"/>
        </g>
      </g>
    </g>
  </g>
</svg>
