<svg xmlns="http://www.w3.org/2000/svg" width="73" height="73" viewBox="0 0 73 73">
  <g id="Grupo_137418" data-name="Grupo 137418" transform="translate(-634 -3641)">
    <circle id="Elipse_4722" data-name="Elipse 4722" cx="36.5" cy="36.5" r="36.5" transform="translate(634 3641)" fill="#fff"/>
    <g id="o77VKP" transform="translate(-2083 -133.003)">
      <g id="Grupo_136814" data-name="Grupo 136814" transform="translate(2732 3789.003)">
        <path id="Trazado_151653" data-name="Trazado 151653" d="M2732,3831.378a.743.743,0,0,1,.8-.446c.3.041.39-.118.461-.366.254-.888.52-1.774.789-2.658a1.459,1.459,0,0,1,1.568-1.172c1.366-.009,2.731,0,4.144,0,.009-.177.023-.326.023-.475q0-2.82,0-5.641c0-.114-.006-.228,0-.341a.654.654,0,0,1,.647-.659.632.632,0,0,1,.627.67c.012.469,0,.94,0,1.41q0,2.265,0,4.53v.482h4.688c0-.632,0-1.24,0-1.848a1.487,1.487,0,0,1,1.656-1.667c.24,0,.48,0,.751,0,.169-.939.335-1.846.5-2.754q1.039-5.906,2.073-11.812a1.541,1.541,0,0,1,1.36-1.364c0-.765.018-1.519-.018-2.271-.005-.125-.218-.3-.37-.352-2.16-.758-4.326-1.5-6.491-2.243-.8-.277-1.608-.555-2.458-.849-.151.436-.293.847-.435,1.26a23.879,23.879,0,0,0-1.2,3.638,23.155,23.155,0,0,0-.051,3.8c0,.926.008,1.852-.006,2.778a.427.427,0,0,0,.31.469,2.338,2.338,0,0,1,1.391,2.723,2.371,2.371,0,0,1-4.651-.187,2.327,2.327,0,0,1,1.364-2.508.46.46,0,0,0,.315-.508q-.015-2.927,0-5.854c0-.285-.066-.425-.356-.514-.679-.209-1.352-.444-2.012-.7a4.786,4.786,0,0,1-2.881-6.028c1.036-3.146,2.138-6.271,3.232-9.4a2.354,2.354,0,0,1,.572-.883,2.048,2.048,0,0,1,2.17-.506c1.256.413,2.508.839,3.75,1.292a2.167,2.167,0,0,1,1.347,2.8c-.32.987-.671,1.964-1.007,2.947-.055.159-.1.32-.173.53.582.2,1.14.4,1.7.59l25.525,8.8a2.436,2.436,0,0,1,1.8,2.582,2.53,2.53,0,0,1-2.065,2.4,3.771,3.771,0,0,1-1.3-.11,9.807,9.807,0,0,1-1.153-.375v12.611c.58,0,1.144,0,1.708,0a1.35,1.35,0,0,1,1.545,1.541c0,.555.008,1.111,0,1.666,0,.221.05.326.3.36a1.423,1.423,0,0,1,1.219,1.106c.274.912.549,1.824.812,2.74.063.218.146.329.4.33.561,0,.837.228.838.625,0,.417-.3.648-.876.648h-22.349q-9.786,0-19.571.005a1.02,1.02,0,0,1-.96-.411Zm35.62-8.852c.011-.125.019-.176.019-.227,0-3.959,0-7.919.009-11.878,0-.3-.153-.345-.363-.417q-3.227-1.105-6.452-2.22c-1.008-.347-2.017-.691-3.024-1.042-.312-.109-.551-.346-.468-.668a1.042,1.042,0,0,1,.489-.562c.135-.075.386.015.57.077q3.51,1.2,7.016,2.417c1.707.588,3.412,1.181,5.123,1.756a1.118,1.118,0,0,0,1.474-.652,1.213,1.213,0,0,0-.826-1.832q-7.78-2.687-15.563-5.365a1,1,0,0,0-.2-.037c.515,1.781.079,3.6.284,5.394a1.569,1.569,0,0,1,1.327,1.412q1.2,6.873,2.412,13.744c.134.762.134.762.906.77a1.489,1.489,0,0,1,1.648,1.676c0,.607,0,1.214,0,1.864.706,0,1.359-.012,2.01.006.293.008.363-.108.356-.377-.015-.583-.01-1.168,0-1.752a1.314,1.314,0,0,1,1.411-1.416c.148,0,.3,0,.561,0-.2-.168-.307-.258-.415-.341-.656-.5-1.318-1-1.966-1.508a.632.632,0,0,1-.144-.906.618.618,0,0,1,.909-.107c.406.289.8.6,1.192.9Zm-33.127,8.376h38.771c-.234-.8-.488-1.551-.67-2.321-.11-.467-.339-.576-.8-.575q-17.919.019-35.839.01a1.42,1.42,0,0,0-.382.01c-.1.031-.249.109-.277.2C2735.023,3829.1,2734.767,3829.983,2734.493,3830.9Zm26.231-4.187c0-.579,0-1.118,0-1.657,0-.581,0-.582-.587-.582h-12.508a.963.963,0,0,0-.338.012c-.1.039-.239.143-.242.222-.019.662-.011,1.325-.011,2ZM2742.1,3799.5H2736.4a.475.475,0,0,0-.169,0c-.094.039-.228.076-.261.152a3.544,3.544,0,0,0,1.181,4.679,19.461,19.461,0,0,0,2.86,1.209Zm11.361,1.661-9.454-3.256-.833,2.428,8.918,3.073A1.982,1.982,0,0,1,2753.458,3801.166Zm-15.534-7.192-1.458,4.248c2,0,3.921,0,5.841-.009a.4.4,0,0,0,.3-.21c.271-.73.518-1.469.785-2.241Zm15.959,25.348,3.03-2.186-3.035-3.136-3.028,3.139Zm-10.074-24.773c.212-.632.426-1.217.6-1.813a.852.852,0,0,0-.514-1.085c-1.268-.458-2.546-.889-3.825-1.314a.74.74,0,0,0-.933.33c-.32.666-.544,1.378-.815,2.09Zm10.106,17.424a17.115,17.115,0,0,1,1.312-1.195,1.519,1.519,0,0,0,.552-1.887c-.083-.256-.176-.342-.432-.338-.752.011-1.5,0-2.257,0-1.024,0-1.033,0-1.21,1.013a.766.766,0,0,0,.082.579C2752.6,3810.789,2753.284,3811.391,2753.915,3811.973Zm11.762,14.733h5.206v-2.2h-1.961c0,.364.008.7,0,1.04a.642.642,0,1,1-1.277,0c-.009-.338,0-.676,0-1.038h-1.964Zm-8.654-3.538c-1.053-.759-1.994-1.447-2.951-2.112a.479.479,0,0,0-.432.034c-.738.508-1.459,1.039-2.185,1.563-.209.151-.417.3-.7.514Zm-7.413-.768,3.173-2.285-2.456-1.771C2750.085,3819.708,2749.857,3821,2749.61,3822.4Zm5.369-2.285,3.172,2.281c-.248-1.4-.477-2.695-.718-4.049Zm-.59-12.858c0-1.427,0-2.8,0-4.182,0-.417-.192-.653-.508-.652s-.5.236-.506.654c0,1.009,0,2.018,0,3.027v1.154Zm-13.941,7.32a1.089,1.089,0,1,0,1.1,1.082A1.108,1.108,0,0,0,2740.447,3814.577Zm10.474.391L2753,3813.1l-1.505-1.361C2751.3,3812.82,2751.1,3813.975,2750.92,3814.968Zm3.79-1.878,2.14,1.927c-.186-1.047-.393-2.209-.594-3.341Z" transform="translate(-2732 -3789.003)"/>
      </g>
    </g>
  </g>
</svg>
