<svg xmlns="http://www.w3.org/2000/svg" width="73" height="73" viewBox="0 0 73 73">
  <g id="Grupo_137419" data-name="Grupo 137419" transform="translate(-1030 -3641)">
    <circle id="Elipse_4723" data-name="Elipse 4723" cx="36.5" cy="36.5" r="36.5" transform="translate(1030 3641)" fill="#fff"/>
    <path id="Trazado_151654" data-name="Trazado 151654" d="M3417.557,3699.418a.986.986,0,0,1,.555,1.045c-.019.18,0,.364,0,.545-.008.274-.018.509.3.675a.8.8,0,0,0,.9.016c1.282-.775,1.387-.735,2.13.549.356.616.715,1.229,1.064,1.848a.836.836,0,0,1-.356,1.325c-.155.094-.313.183-.47.274-.695.4-.692,1.008.006,1.411,1.268.731,1.294.827.56,2.1-.356.616-.707,1.233-1.068,1.846s-.727.706-1.357.355c-.159-.088-.315-.181-.472-.271-.7-.4-1.242-.077-1.242.736,0,1.436-.081,1.516-1.516,1.516-.712,0-1.423.007-2.135,0s-.986-.286-.994-.992a3.164,3.164,0,0,1,0-.544.711.711,0,0,0-.5-.835.5.5,0,0,0-.574.018,7.019,7.019,0,0,1-.785.453.752.752,0,0,1-1.1-.289q-.785-1.3-1.519-2.633a.759.759,0,0,1,.3-1.1,3.419,3.419,0,0,1,.628-.361.625.625,0,0,0,.444-.806.949.949,0,0,0-.285-.487c-.247-.2-.55-.317-.813-.494a.754.754,0,0,1-.282-1.067q.743-1.351,1.542-2.671a.75.75,0,0,1,1.068-.277,2.564,2.564,0,0,1,.586.343.713.713,0,0,0,1.043-.025.691.691,0,0,0,.227-.381,3.026,3.026,0,0,0,.007-.725,1.031,1.031,0,0,1,.552-1.095Zm3.313,9.056c-.272-.16-.488-.3-.715-.417a.961.961,0,0,1-.554-1.119,4.737,4.737,0,0,0,0-1.174.9.9,0,0,1,.528-1c.24-.121.469-.262.739-.415l-.768-1.336c-.256.149-.481.267-.693.405a.965.965,0,0,1-1.214-.038,4.866,4.866,0,0,0-.976-.567.973.973,0,0,1-.66-1.063c.015-.25,0-.5,0-.749h-1.548a4.677,4.677,0,0,0,0,.577,1.07,1.07,0,0,1-.819,1.277.687.687,0,0,0-.246.114,1.547,1.547,0,0,1-2.444-.042l-.8,1.4c.261.15.464.282.68.388a1.011,1.011,0,0,1,.6,1.185,4.268,4.268,0,0,0,0,.991.973.973,0,0,1-.609,1.181c-.219.122-.436.246-.669.377l.769,1.334c.257-.148.477-.254.675-.392a.967.967,0,0,1,1.249.034,6.853,6.853,0,0,0,1.057.607.881.881,0,0,1,.558.9c-.009.284,0,.568,0,.872h1.548c0-.24.016-.453,0-.661a1.025,1.025,0,0,1,.728-1.161,3.21,3.21,0,0,0,.822-.47,1.029,1.029,0,0,1,1.367-.062c.192.134.4.241.624.371Z" transform="translate(-2348.507 -45.612)"/>
    <path id="Trazado_151655" data-name="Trazado 151655" d="M3258.273,3905.313c.155.166.261.286.374.4q2.795,2.8,5.59,5.592a2.252,2.252,0,0,1,.328.374.758.758,0,0,1-1.037,1.048,2.414,2.414,0,0,1-.409-.356q-3.376-3.371-6.745-6.75a1.058,1.058,0,0,0-.833-.336c-3.241.011-6.483.006-9.724.007-.861,0-1.108.247-1.109,1.106q0,3.84,0,7.68v.509c.441,0,.844.006,1.247,0a2.453,2.453,0,0,1,2.431,1.351.632.632,0,0,0,.481.192c2.363.013,4.726.007,7.089.012a2.326,2.326,0,0,1,.628.065.689.689,0,0,1,.522.756.7.7,0,0,1-.6.7,3.1,3.1,0,0,1-.543.032q-3.408,0-6.816,0h-.517v1.554h.522q3.022,0,6.044,0c.778,0,1.148.258,1.141.788s-.371.766-1.162.768c-1.619,0-1.62,0-2.537,1.332-.032.046-.052.1-.115.222.483,0,.916,0,1.348,0,.591,0,1.182-.009,1.771.023a.71.71,0,0,1,.694.706.735.735,0,0,1-.615.778,2.163,2.163,0,0,1-.449.043c-1.363,0-2.727,0-4.09,0a.836.836,0,0,1-.721-1.461c.389-.515.774-1.032,1.208-1.612h-3.038v4.624c.462,0,.912-.006,1.361,0,.641.011.894.271.928.914a3.189,3.189,0,0,1-1.755,3.391,3.6,3.6,0,0,1-1.486.33c-5.074.023-10.148.016-15.223.013-2.044,0-3.546-1.555-3.218-4a.721.721,0,0,1,.8-.648c.48-.009.961,0,1.49,0v-.54q0-3.84,0-7.68a2.389,2.389,0,0,1,2.635-2.654q4.2-.005,8.407,0h.592v-.522c0-2.56.031-5.12-.011-7.68a2.491,2.491,0,0,1,2.645-2.659c6.528.038,13.057.015,19.585.017a2.341,2.341,0,0,1,2.6,2.574q0,3.521,0,7.043c0,.692-.553,1.092-1.1.815a.9.9,0,0,1-.444-.924q0-3.272,0-6.543c0-.182,0-.364,0-.545a.785.785,0,0,0-.877-.867c-1.227-.009-2.454,0-3.681,0H3258.6C3258.51,3905.292,3258.425,3905.3,3258.273,3905.313Zm-16.314,10.831c.178.19.277.3.382.407q1.349,1.348,2.7,2.7a2.189,2.189,0,0,1,.321.379.7.7,0,0,1-.123.947.713.713,0,0,1-.954.076,2.457,2.457,0,0,1-.372-.332c-1.3-1.295-2.582-2.6-3.893-3.878a1.124,1.124,0,0,0-.7-.288c-1.71-.024-3.421-.014-5.132-.012-.854,0-1.111.259-1.112,1.113q0,3.861,0,7.721c0,.146.015.293.023.457h13.892c.025-.054.048-.081.048-.107,0-2.785.014-5.571,0-8.356a.746.746,0,0,0-.8-.813C3244.853,3916.128,3243.464,3916.144,3241.959,3916.144Zm-11.231,10.89a4.268,4.268,0,0,0,.232.712,1.6,1.6,0,0,0,1.558.816q7.543-.006,15.086-.006a2.462,2.462,0,0,0,.671-.085,1.424,1.424,0,0,0,1.046-1.437Z" transform="translate(-2185.191 -231.313)"/>
    <path id="Trazado_151656" data-name="Trazado 151656" d="M3554.437,4045.358h2.764c.591,0,1.181-.006,1.772,0a1.526,1.526,0,0,1,1.664,1.588c.022,2.529.013,5.058.005,7.587,0,.56-.3.892-.753.9s-.781-.337-.792-.916c-.015-.772,0-1.545-.012-2.317a.765.765,0,0,0-.166-.483c-1.436-1.455-2.886-2.9-4.333-4.34-.019-.019-.053-.023-.149-.062v.494q0,3.249,0,6.5a3.152,3.152,0,0,1-.016.454.719.719,0,0,1-.693.665.679.679,0,0,1-.777-.551,7.1,7.1,0,0,1-.088-.98h-5.842a2.392,2.392,0,0,1-2.666-2.667q0-4.317,0-8.633a2.4,2.4,0,0,1,2.664-2.671c1.59,0,3.181.028,4.771-.008a2.432,2.432,0,0,1,2.657,2.638C3554.395,4043.461,3554.437,4044.371,3554.437,4045.358Zm-6.632-3.872c.2.2.306.325.421.44q1.4,1.4,2.8,2.791c.264.264.452.592.235.931a1.008,1.008,0,0,1-.655.45,1.132,1.132,0,0,1-.733-.352c-1.181-1.151-2.338-2.327-3.5-3.494-.1-.1-.216-.2-.4-.371v7.326h6.921c0-2.337.006-4.637-.005-6.936a.724.724,0,0,0-.776-.777C3550.716,4041.471,3549.327,4041.486,3547.805,4041.486Zm-1.892,9.336c0,.278-.019.5,0,.728a.772.772,0,0,0,.825.79q2.655.023,5.311,0a.755.755,0,0,0,.818-.692c.027-.266,0-.536,0-.827Zm10.605-3.891,2.546,2.536v-2.536Z" transform="translate(-2471.651 -355.102)"/>
    <path id="Trazado_151657" data-name="Trazado 151657" d="M3580.25,3782.917q0-5.681,0-11.361a2.337,2.337,0,0,0-1.691-2.452,3.867,3.867,0,0,0-.988-.11c-2.075-.01-4.15,0-6.226-.006a3.05,3.05,0,0,1-.543-.026.7.7,0,0,1-.624-.724.694.694,0,0,1,.547-.739,1.855,1.855,0,0,1,.493-.059c2.166,0,4.332-.013,6.5,0a3.846,3.846,0,0,1,3.934,2.928,4.652,4.652,0,0,1,.145,1.211q.012,11.338,0,22.675a2.038,2.038,0,0,1-.055.539.693.693,0,0,1-.78.546.705.705,0,0,1-.7-.655,3.2,3.2,0,0,1-.016-.5Q3580.249,3788.552,3580.25,3782.917Z" transform="translate(-2495.122 -107.434)"/>
    <path id="Trazado_151658" data-name="Trazado 151658" d="M3293.8,3733.395c.878,0,1.756-.008,2.634,0a.805.805,0,0,1,.89.671c.07.5-.3.87-.9.873-1.59.006-3.179,0-4.769,0-.121,0-.242,0-.363,0a.832.832,0,0,0-.928.929c-.016.666,0,1.333-.006,2-.006.593-.284.938-.748.952s-.791-.354-.8-.958c-.01-.666-.013-1.333,0-2a2.355,2.355,0,0,1,2.494-2.471C3292.133,3733.387,3292.965,3733.394,3293.8,3733.395Z" transform="translate(-2239.368 -76.492)"/>
    <path id="Trazado_151659" data-name="Trazado 151659" d="M3246.512,3818.8a6.89,6.89,0,0,1,4.837,1.964.759.759,0,0,1,.17,1.021.711.711,0,0,1-.91.3,1.452,1.452,0,0,1-.442-.309,5.4,5.4,0,0,0-7.348.009c-.467.4-.916.427-1.238.062s-.232-.814.22-1.223A6.882,6.882,0,0,1,3246.512,3818.8Z" transform="translate(-2196.281 -154.121)"/>
    <path id="Trazado_151660" data-name="Trazado 151660" d="M3572.631,3822.4c0,.483.009.968,0,1.452a.776.776,0,1,1-1.542-.009c-.01-.877-.014-1.754,0-2.631a.935.935,0,0,0-.6-.968,5.067,5.067,0,0,1-.6-.311.765.765,0,0,1,.685-1.367c1.313.547,2.152,1.2,2.061,2.973C3572.619,3821.824,3572.632,3822.112,3572.631,3822.4Z" transform="translate(-2494.492 -153.847)"/>
    <path id="Trazado_151661" data-name="Trazado 151661" d="M3270.841,3854.355c.011.706-.665,1.129-1.146.752a2.6,2.6,0,0,0-3.619.011.707.707,0,0,1-.976-.162.774.774,0,0,1,.082-1.066,3.863,3.863,0,0,1,4.325-.728,6.7,6.7,0,0,1,1.137.809A.95.95,0,0,1,3270.841,3854.355Z" transform="translate(-2217.67 -185.021)"/>
    <path id="Trazado_151662" data-name="Trazado 151662" d="M3290.354,3923.713c0,.6.01,1.208,0,1.813-.01.528-.29.844-.731.864a.769.769,0,0,1-.808-.839q-.028-1.857,0-3.716a.778.778,0,0,1,.807-.844c.442.019.722.334.732.864C3290.363,3922.474,3290.354,3923.094,3290.354,3923.713Z" transform="translate(-2239.369 -247.005)"/>
    <path id="Trazado_151663" data-name="Trazado 151663" d="M3486.946,4143.855c-.364,0-.728.016-1.09,0a.774.774,0,0,1-.824-.783.753.753,0,0,1,.836-.759q1.09-.02,2.181,0a.753.753,0,0,1,.826.725.785.785,0,0,1-.793.818.8.8,0,0,1-.091,0h-1.045Z" transform="translate(-2417.731 -448.16)"/>
    <path id="Trazado_151664" data-name="Trazado 151664" d="M3290.556,3887.727a.774.774,0,0,1-.746.76.793.793,0,0,1-.779-.78.771.771,0,0,1,.754-.75A.75.75,0,0,1,3290.556,3887.727Z" transform="translate(-2239.581 -216.071)"/>
    <path id="Trazado_151665" data-name="Trazado 151665" d="M3463.977,3752.8a2.319,2.319,0,1,1-4.639,0,2.319,2.319,0,0,1,4.639,0Zm-2.333-.757a.79.79,0,0,0-.753.806.767.767,0,0,0,1.533-.075A.785.785,0,0,0,3461.644,3752.044Z" transform="translate(-2394.378 -92.026)"/>
  </g>
</svg>
