<svg xmlns="http://www.w3.org/2000/svg" width="56.033" height="55.084" viewBox="0 0 56.033 55.084">
  <g id="Grupo_136739" data-name="Grupo 136739" transform="translate(-302.5 -4082.5)">
    <path id="Trazado_122023" data-name="Trazado 122023" d="M1459.307,476.531c0,14.935,10.67,17.553,27.635,17.553s27.4-2.144,27.4-17.078S1503.907,440,1486.942,440,1459.307,461.6,1459.307,476.531Z" transform="translate(-1156.307 3643)" fill="#00cbae" stroke="rgba(0,0,0,0)" stroke-width="1"/>
    <g id="Grupo_136740" data-name="Grupo 136740" transform="translate(-575.594 2907.585)">
      <path id="Trazado_151649" data-name="Trazado 151649" d="M924.525,1204.312h-4.857c-.116,2.052.117,4.086-.144,6.127h5.62V1221.5H889.294a2.153,2.153,0,0,1-2.208-2.17c-.006-5.644-.023-11.288.009-16.931a5.323,5.323,0,0,1,2.781-4.735c.141-.085.288-.16.478-.264a3.72,3.72,0,0,1-1.408-3.289,3.573,3.573,0,0,1,1.145-2.322,3.665,3.665,0,0,1,4.72-.271c1.579,1.178,1.884,3.007.822,5.11.244-.1.455-.176.663-.262,1.793-.746,3.58-1.506,5.381-2.232a7.362,7.362,0,0,1,1.221-.271,1.015,1.015,0,0,0,.253-.054c1.5-.771,2.99-1.557,4.493-2.319a16.2,16.2,0,0,1,4-1.645,3.718,3.718,0,0,1-1.2-3.151,3.6,3.6,0,0,1,1.287-2.411,3.686,3.686,0,0,1,4.875.109,3.727,3.727,0,0,1,.117,5.33c.1.039.184.078.274.108a5.525,5.525,0,0,1,3.865,5.258c.007.6,0,1.2,0,1.828h3.654Zm-.59,7.373c-.093-.007-.154-.014-.215-.014q-11.63,0-23.261.006a.672.672,0,0,0-.4.16c-.453.395-.865.841-1.339,1.207a1.479,1.479,0,0,0-.591,1.34,2.135,2.135,0,0,1-2.769,2.111.574.574,0,0,0-.46.1q-1.724,1.555-3.417,3.145a2.472,2.472,0,0,0-.32.5h32.775Zm-29.48-6.158h.494a3.073,3.073,0,0,1,3.191,3.193c0,.934,0,1.868,0,2.8,0,.105.015.211.028.369.469-.432.879-.837,1.321-1.2a1.037,1.037,0,0,1,.6-.237c2.751-.016,5.5-.01,8.253-.01h.381a8.222,8.222,0,0,1-.134-1.023q-.016-3.627,0-7.255a2.978,2.978,0,0,1,1.712-2.784c.543-.285,1.09-.565,1.646-.821a.478.478,0,0,0,.33-.518c-.021-.729-.007-1.459-.007-2.188v-1.909c-.166.076-.28.124-.392.18q-3.017,1.509-6.032,3.02a2.7,2.7,0,0,1-1.5.391.412.412,0,0,0-.213.055c-.67.341-1.329.705-2.008,1.027-2.447,1.161-4.9,2.307-7.347,3.469-.133.063-.307.229-.31.351C894.445,1203.447,894.455,1204.458,894.455,1205.527Zm7.872-10.335c-.035.013-.152.056-.267.1-1.486.618-3,1.18-4.45,1.871a10.266,10.266,0,0,1-4.911,1.015,4.22,4.22,0,0,0-4.386,4.376c-.006,1.561,0,3.122,0,4.683a1.848,1.848,0,0,0,1.968,1.971c1.139,0,2.278,0,3.416,0a1.243,1.243,0,0,1,1.373,1.382q0,1.862,0,3.724a.972.972,0,0,0,.37.842.854.854,0,0,0,.939.1.926.926,0,0,0,.536-.9c0-1.881,0-3.762,0-5.643a1.846,1.846,0,0,0-1.975-1.964c-.559,0-1.118,0-1.71,0v-.377c0-1.523.006-3.045-.006-4.568a.478.478,0,0,1,.324-.517q4.5-2.1,8.985-4.22c.147-.069.291-.144.343-.17Zm11.138-2.542a.425.425,0,0,1,.028.093c0,2.06.008,4.119-.006,6.179a.511.511,0,0,1-.255.351c-.757.4-1.525.776-2.293,1.155a1.887,1.887,0,0,0-1.128,1.845c.008,1.267,0,2.533,0,3.8,0,1.126,0,2.252,0,3.378a.922.922,0,1,0,1.838-.011c.006-1.689,0-3.378,0-5.066a1.283,1.283,0,0,1,1.112-1.46c.651-.176,1.3-.357,1.979-.543v-5.449h2.411c.1-1.421.075-2.776-.946-3.778l.817-.928a4.75,4.75,0,0,1,1.378,3.256c.025,1.074,0,2.149.009,3.224a.616.616,0,1,0,1.224.013c0-1.266.023-2.534-.009-3.8a4.186,4.186,0,0,0-3.187-3.951,9.58,9.58,0,0,0-5.153.261,65.309,65.309,0,0,0-7.219,3.448.81.81,0,0,0-.357,1,.872.872,0,0,0,1.326.5c2.082-1.035,4.176-2.049,6.233-3.132A3.7,3.7,0,0,1,913.466,1192.651Zm2.512,5.527v4.874H923.3v-4.871h-2.43c0,.233.007.448,0,.661a1.841,1.841,0,0,1-3.68-.015c-.007-.213,0-.426,0-.65Zm-23.361-1.252a2.456,2.456,0,1,0-2.46-2.462A2.465,2.465,0,0,0,892.616,1196.925Zm23.954-9.809a2.456,2.456,0,1,0-2.5,2.437A2.462,2.462,0,0,0,916.57,1187.116Zm-28.258,22.817v.165q0,4.547,0,9.094a1.993,1.993,0,0,0,.009.268.918.918,0,0,0,1.821.01,2.376,2.376,0,0,0,.012-.345q0-4.144,0-8.289v-.285Zm3.082,8.2c.924-.85,1.789-1.642,2.644-2.445.056-.052.055-.2.037-.289a8,8,0,0,1-.223-1.112c-.034-.894-.011-1.789-.011-2.684v-1.137h-2.447Zm21.491-13.977v1.12c0,1.354.009,2.708-.006,4.061a9.872,9.872,0,0,1-.123,1.073h2.693c-.037-.48-.1-.933-.1-1.387-.013-1.43,0-2.861,0-4.291v-.417l-.6-.028-.037-.63Zm3.692.157c0,1.787-.01,3.537.007,5.287a.889.889,0,0,0,.816.833.912.912,0,0,0,.966-.654,1.2,1.2,0,0,0,.047-.339q0-2.456,0-4.912a1.18,1.18,0,0,0-.04-.215Z" transform="translate(0 0)"/>
      <path id="Trazado_151650" data-name="Trazado 151650" d="M991.336,1304.808h-1.174v-1.194h1.174Z" transform="translate(-73.567 -85.78)"/>
      <path id="Trazado_151651" data-name="Trazado 151651" d="M999.946,1303.654v1.167h-1.195v-1.167Z" transform="translate(-79.697 -85.809)"/>
      <path id="Trazado_151652" data-name="Trazado 151652" d="M1008.511,1304.828h-1.167v-1.195h1.167Z" transform="translate(-85.829 -85.794)"/>
    </g>
  </g>
</svg>
