<svg xmlns="http://www.w3.org/2000/svg" width="56.033" height="55.084" viewBox="0 0 56.033 55.084">
  <g id="Grupo_136741" data-name="Grupo 136741" transform="translate(-302.5 -4082.5)">
    <path id="Trazado_122023" data-name="Trazado 122023" d="M1459.307,476.531c0,14.935,10.67,17.553,27.635,17.553s27.4-2.144,27.4-17.078S1503.907,440,1486.942,440,1459.307,461.6,1459.307,476.531Z" transform="translate(-1156.307 3643)" fill="#00cbae" stroke="rgba(0,0,0,0)" stroke-width="1"/>
    <g id="Grupo_62197" data-name="Grupo 62197" transform="translate(-404.331 3399.429)">
      <g id="Grupo_60257" data-name="Grupo 60257" transform="translate(718.033 691.571)">
        <path id="Trazado_130831" data-name="Trazado 130831" d="M749.658,694.7a2.971,2.971,0,0,0-2.81-3.123,2.92,2.92,0,0,0-.321,0H726.784a2.963,2.963,0,0,0-3.157,2.754,3.006,3.006,0,0,0,0,.409q-.006,2.954,0,5.912a2.3,2.3,0,0,0,.015.334.508.508,0,0,0,.5.459.5.5,0,0,0,.555-.4,1.773,1.773,0,0,0,.04-.44q0-2.919,0-5.838a1.868,1.868,0,0,1,1.629-2.08,1.845,1.845,0,0,1,.464,0h19.595a1.89,1.89,0,0,1,2.108,2.11v27.552a1.89,1.89,0,0,1-2.093,2.09H728.121a.171.171,0,0,1-.011-.019,7.321,7.321,0,0,0,.737-3.255c-.008-.336.075-.425.418-.425q8.611.018,17.215.008c1.19,0,1.19,0,1.19-1.2V714.31c0-.434-.2-.692-.544-.7s-.566.262-.573.715v.3c0,1.571,0,3.148,0,4.722,0,.2-.011.3-.268.3q-8.645-.013-17.29,0c-.184,0-.275-.027-.32-.242a10.8,10.8,0,0,0-1.582-3.771.488.488,0,0,1-.081-.415c.234-1,.471-2,.683-3a15.4,15.4,0,0,0,.43-2.371A2.641,2.641,0,0,0,727,707.29a.519.519,0,0,1-.294-.51q.01-5.056,0-10.113c0-.346.094-.417.424-.416q9.518.015,19.037,0c.309,0,.409.048.408.391q-.021,7.567-.009,15.133c0,.464.206.711.574.7s.542-.243.542-.691V695.836c0-.5-.192-.691-.7-.691H726.3c-.522,0-.71.192-.712.721v11.006a1.977,1.977,0,0,1,.013.217,1.213,1.213,0,0,1-.063.118.225.225,0,0,1-.046.029,1.814,1.814,0,0,0-.687.619.107.107,0,0,1-.063-.035v-4.4a1.888,1.888,0,0,0-.028-.406.547.547,0,0,0-1.078.052,2.889,2.889,0,0,0-.011.371q0,3.179,0,6.358a1.233,1.233,0,0,1-.146.6c-.871,1.65-1.736,3.3-2.607,4.953a6.16,6.16,0,0,0-.657,1.957,8.612,8.612,0,0,0,.281,3.017,7.666,7.666,0,0,1-.771,5.354c-.533.975-1.023,1.975-1.532,2.963-.258.5-.234.647.176,1.018h13.46a5.938,5.938,0,0,0,1.01-1.353,1.175,1.175,0,0,1,.72-.512,9.78,9.78,0,0,0,3.91-1.962.991.991,0,0,1,.722-.272q4.165.015,8.329.005a2.973,2.973,0,0,0,3.13-3.124Q749.663,708.569,749.658,694.7ZM731.32,728.471a3.654,3.654,0,0,1-1.535.063H719.567c-.047-.141.053-.223.1-.314.3-.585.578-1.177.905-1.743a9.026,9.026,0,0,0,.969-6.7,5.623,5.623,0,0,1-.135-2.754,5.508,5.508,0,0,1,.43-1.1l3.771-7.186c.046-.088.091-.176.142-.26a.506.506,0,0,1,.886-.055,2.137,2.137,0,0,1,.328,1.838c-.314,1.639-.67,3.268-1.079,4.888a1.058,1.058,0,0,0,.173.934,9.145,9.145,0,0,1,1.684,4.762,6.523,6.523,0,0,1-1.65,4.637c-.072.086-.148.167-.219.251a.558.558,0,1,0,.756.822.545.545,0,0,0,.072-.081c.215-.239.415-.492.61-.747a.381.381,0,0,1,.339-.172q4.07.008,8.14.005a.729.729,0,0,1,.126.037,11.241,11.241,0,0,1-3.062,1.222,1,1,0,0,0-.65.44C731.928,727.688,731.717,728.266,731.32,728.471Z" transform="translate(-718.033 -691.571)"/>
        <path id="Trazado_130832" data-name="Trazado 130832" d="M772.437,726.715q.011-4.274,0-8.548a1.264,1.264,0,0,0-1.244-1.267,5.07,5.07,0,0,0-.629,0,2.022,2.022,0,0,1-1.126-.266,4.432,4.432,0,0,0-4.714,0,.205.205,0,0,1-.262-.019,4.253,4.253,0,0,0-4.383-.119,3.873,3.873,0,0,1-1.876.41,1.29,1.29,0,0,0-1.445,1.114,1.274,1.274,0,0,0,0,.332v8.214a1.312,1.312,0,0,0,1.163,1.446,1.3,1.3,0,0,0,.29,0h12.9a1.266,1.266,0,0,0,1.328-1.2Q772.438,726.762,772.437,726.715Zm-12.165-9.1a3.719,3.719,0,0,1,3.039-.341c.691.259.727.307.727,1.03v6.31a4.6,4.6,0,0,0-3.979.111c-.08-.092-.049-.182-.049-.263q0-3.2-.007-6.4a.424.424,0,0,1,.269-.452Zm3.771,9.13c-.036.24-.2.141-.307.141-1.611.007-3.222,0-4.833,0-.211,0-.422-.015-.632,0-.3.027-.412-.084-.409-.4.014-1.351.006-2.7.006-4.052s.009-2.677-.007-4.015c0-.329.105-.431.427-.422.6.017.6,0,.6.608v6.8c0,.287-.031.579.274.754s.566.006.824-.143a4.066,4.066,0,0,1,2.865-.634,3,3,0,0,1,.5.146c.676.261.8.5.693,1.2Zm1.451.153c-.276,0-.354-.063-.346-.344.02-.708.03-.749.7-1.017a3.475,3.475,0,0,1,2.771.189c.271.118.525.275.785.415a.565.565,0,0,0,.905-.5c.013-.954.009-1.908,0-2.862a.573.573,0,0,0-.5-.638.523.523,0,0,0-.066,0c-.326.008-.542.26-.547.665-.007.628,0,1.26,0,1.948a4.663,4.663,0,0,0-4.043-.133v-.373c0-2.081.007-4.163-.008-6.244a.529.529,0,0,1,.31-.522,3.206,3.206,0,0,1,2.759-.17c.983.333.982.339.982,1.357v1.561c0,.537.188.79.565.785s.549-.248.55-.8c0-.644.009-1.288,0-1.933,0-.215.063-.273.274-.27.88.015.735-.07.736.727.005,2.564,0,5.129.009,7.693,0,.345-.077.473-.449.469-1.8-.019-3.592-.016-5.388,0Z" transform="translate(-745.995 -709.176)"/>
        <path id="Trazado_130833" data-name="Trazado 130833" d="M762.79,768.226a2.948,2.948,0,0,0,.3,0h10.849c.148,0,.3.008.445,0a.546.546,0,0,0,.537-.552.554.554,0,0,0-.5-.554,1.515,1.515,0,0,0-.259-.005H763.01a1.084,1.084,0,0,0-.3.016.531.531,0,0,0-.434.6A.513.513,0,0,0,762.79,768.226Z" transform="translate(-749.988 -746.131)"/>
        <path id="Trazado_130834" data-name="Trazado 130834" d="M762.357,778.348a.684.684,0,0,0,.629.244q2.786,0,5.572,0h5.609c.462,0,.728-.2.738-.551s-.256-.559-.715-.565H763.082a2.294,2.294,0,0,0-.371.014.545.545,0,0,0-.354.859Z" transform="translate(-749.972 -753.616)"/>
        <path id="Trazado_130835" data-name="Trazado 130835" d="M779.364,798.771a1.571,1.571,0,1,0,1.595-1.558A1.571,1.571,0,0,0,779.364,798.771Zm2.027,0a.461.461,0,0,1-.447.474h-.017a.446.446,0,0,1-.44-.452v0a.427.427,0,0,1,.4-.449h.037a.433.433,0,0,1,.463.4C781.39,798.748,781.39,798.758,781.391,798.767Z" transform="translate(-762.331 -767.873)"/>
        <path id="Trazado_130836" data-name="Trazado 130836" d="M785.416,699.1a.554.554,0,1,0,.016-1.109H785.4c-.358-.009-.717,0-1.076,0-.383,0-.767-.008-1.15,0a.531.531,0,0,0-.558.5c0,.006,0,.013,0,.019a.539.539,0,0,0,.492.583l.047,0C783.907,699.119,784.662,699.118,785.416,699.1Z" transform="translate(-764.677 -696.209)"/>
        <path id="Trazado_130837" data-name="Trazado 130837" d="M776.872,698.553a.558.558,0,0,0-1.115-.05c0,.011,0,.022,0,.033a.558.558,0,1,0,1.117.016Z" transform="translate(-759.725 -696.193)"/>
      </g>
    </g>
  </g>
</svg>
