<svg xmlns="http://www.w3.org/2000/svg" xmlns:xlink="http://www.w3.org/1999/xlink" width="89" height="89" viewBox="0 0 89 89">
  <defs>
    <clipPath id="clip-path">
      <circle id="Base" cx="44.5" cy="44.5" r="44.5" fill="#fff"/>
    </clipPath>
  </defs>
  <g id="Grupo_137400" data-name="Grupo 137400" transform="translate(-249 -9391)">
    <circle id="Base-2" data-name="Base" cx="44.5" cy="44.5" r="44.5" transform="translate(249 9391)" fill="#00cbae"/>
    <g id="Enmascarar_grupo_59" data-name="Enmascarar grupo 59" transform="translate(249 9391)" clip-path="url(#clip-path)">
      <g id="_15aQYt" data-name="15aQYt" transform="translate(21.023 18.494)">
        <g id="Grupo_78665" data-name="Grupo 78665">
          <path id="Trazado_114502" data-name="Trazado 114502" d="M4510.111,2491.458c5.556,1.4,10.7,3.623,14.965,7.571a8.474,8.474,0,0,1,2.31,3.286,2.828,2.828,0,0,1,.221,1.272H4476.9a5.482,5.482,0,0,1,1.6-3.556,22.588,22.588,0,0,1,6.938-5.217,39.623,39.623,0,0,1,9.236-3.456,28.614,28.614,0,0,0,2.333,1.919c4.26,2.683,9.1,1.671,12.447-1.347C4509.655,2491.748,4509.814,2491.507,4510.111,2491.458Z" transform="translate(-4476.852 -2433.032)" fill="#f6931e"/>
          <path id="Trazado_114503" data-name="Trazado 114503" d="M4542.831,2246.369l.037,1.634c-.074.409-.406.6-.708.8a7.323,7.323,0,0,1-3.888,1.216,8.236,8.236,0,0,1-4.9-1.032c-.4-.255-.862-.456-1-.982.005-1.056-.01-2.112.026-3.167.014-.437-.1-.642-.554-.751a17.156,17.156,0,0,1-6.34-2.869,17.6,17.6,0,0,1-5.812-7.933,21.526,21.526,0,0,1-.95-3.007.462.462,0,0,1-.236-.232,8.428,8.428,0,0,1-.556-3.095,5.335,5.335,0,0,0,.74-2.962c0-1.377.057-2.757-.011-4.132a7.714,7.714,0,0,1,5.407-7.421,14.463,14.463,0,0,1,5.721-.524,38.979,38.979,0,0,0,9.043-.253,37.489,37.489,0,0,0,7.859-1.985,1.049,1.049,0,0,1,1.332.321,23.175,23.175,0,0,0,3.562,3.53,5.815,5.815,0,0,0,1.228.757,4.416,4.416,0,0,1,2.366,2.557,21.237,21.237,0,0,1,1.214,5.634c.1.75.171,1.5.3,2.251a3.542,3.542,0,0,0,.589,1.6.783.783,0,0,1,.122.521,20.842,20.842,0,0,1-.6,3.011.645.645,0,0,1-.318.425,19.578,19.578,0,0,1-5.188,9.6,15.972,15.972,0,0,1-8.44,4.293.892.892,0,0,1-.706.362,25.7,25.7,0,0,1-8.417.108,5.84,5.84,0,0,1-.624-.181,21.716,21.716,0,0,0,4.7,1.489,14.554,14.554,0,0,0,4.3.262A.808.808,0,0,1,4542.831,2246.369Z" transform="translate(-4512.217 -2190.152)" fill="#fccb9a"/>
          <path id="Trazado_114504" data-name="Trazado 114504" d="M4537.2,2105.294c-.778-.772-.673-1.815-.817-2.768a36.247,36.247,0,0,0-1.122-6.145,5.084,5.084,0,0,0-2.775-3.227,10.52,10.52,0,0,1-3.765-3.27,2.175,2.175,0,0,0-2.922-.835,37.86,37.86,0,0,1-15.99,1.942,11.678,11.678,0,0,0-7.088,1.152,7.163,7.163,0,0,0-3.841,6.466,38.117,38.117,0,0,1-.12,5.706,2.349,2.349,0,0,1-.7,1.528c-.551.245-.894.123-1.256-.507a9.223,9.223,0,0,1-.915-2.5,27.739,27.739,0,0,1-.677-3.983.957.957,0,0,1,.071-.6c-.276-3.108-.56-6.214-.548-9.34a21.2,21.2,0,0,1,1.874-9.422,14.927,14.927,0,0,1,5.646-6.15,29.617,29.617,0,0,1,11.136-3.911,24.423,24.423,0,0,1,14.892,1.908,19.313,19.313,0,0,1,5.712,4.123,1.955,1.955,0,0,0,.576.477c3.474,1.62,5.326,4.5,6.213,8.1a27.042,27.042,0,0,1,.344,9.575c-.172,1.528-.482,3.032-.8,4.534a4.617,4.617,0,0,1-.344,1.938,20.922,20.922,0,0,1-1.863,4.644C4537.936,2105.056,4537.767,2105.525,4537.2,2105.294Z" transform="translate(-4492.23 -2069.037)" fill="#51362a"/>
          <path id="Trazado_114505" data-name="Trazado 114505" d="M4797.867,2286.927c.4.023.551-.285.712-.557a22.942,22.942,0,0,0,2.311-6.285,2.937,2.937,0,0,1,.111-.311c-.015.294.184.422.393.584a6.209,6.209,0,0,1-.634,10.079,4.4,4.4,0,0,1-3.582.355,27.035,27.035,0,0,0,.78-3.615C4797.971,2287.1,4797.9,2287.011,4797.867,2286.927Z" transform="translate(-4752.897 -2250.67)" fill="#fbbb84"/>
          <path id="Trazado_114506" data-name="Trazado 114506" d="M4479.616,2280.571a43.4,43.4,0,0,0,.992,5.3,8.765,8.765,0,0,0,.685,1.708.908.908,0,0,0,1.1.586,16.847,16.847,0,0,0,.686,3.316,4.917,4.917,0,0,1-6.114-3.407,6.115,6.115,0,0,1,1.581-6.761A10.573,10.573,0,0,1,4479.616,2280.571Z" transform="translate(-4476.556 -2251.356)" fill="#fbbb84"/>
          <path id="Trazado_114507" data-name="Trazado 114507" d="M4607.922,2487.9c2.424,2.511,8.11,2.482,10.5,0a14.032,14.032,0,0,1,2.609.576,10.54,10.54,0,0,1-5.385,3.215,9.443,9.443,0,0,1-7.22-.911,6.864,6.864,0,0,1-2.833-2.4Z" transform="translate(-4587.77 -2430.054)" fill="#f26c21"/>
          <path id="Trazado_114508" data-name="Trazado 114508" d="M4635.653,2462.357a16.638,16.638,0,0,1-5.969-.414,12.075,12.075,0,0,1-4.056-1.643c.7.09,1.4.188,2.1.269a23.137,23.137,0,0,0,5.407,0,17.212,17.212,0,0,0,2.557-.413Q4635.673,2461.258,4635.653,2462.357Z" transform="translate(-4605.04 -2406.141)" fill="#fbbb85"/>
          <path id="Trazado_114509" data-name="Trazado 114509" d="M4718.81,2292.453c.12-.517.575-.608.979-.725a2.062,2.062,0,0,1,2.353,1.1,2.537,2.537,0,0,1-.5,3.079,2.011,2.011,0,0,1-2.586.137c-1.188-.856-1.318-2.888-.233-3.607.146.185.025.4.078.6a.429.429,0,0,0,.441.359.343.343,0,0,0,.36-.342.423.423,0,0,0-.306-.477C4719.205,2292.51,4718.974,2292.635,4718.81,2292.453Z" transform="translate(-4684.723 -2260.91)" fill="#3b2519"/>
          <path id="Trazado_114510" data-name="Trazado 114510" d="M4574.082,2292.147a1.966,1.966,0,0,1,2.63-.015,2.56,2.56,0,0,1,.576,3.07,2.1,2.1,0,0,1-2.393,1.168,2.345,2.345,0,0,1-1.69-2.391,2.1,2.1,0,0,1,.476-1.4.122.122,0,0,1,.169-.015,1.047,1.047,0,0,1,.159.445c.059.215.17.383.421.368a.4.4,0,0,0,.39-.328.429.429,0,0,0-.264-.5c-.122-.063-.26-.088-.38-.155C4574.092,2292.333,4574.03,2292.261,4574.082,2292.147Z" transform="translate(-4559.855 -2260.893)" fill="#3b2519"/>
          <path id="Trazado_114511" data-name="Trazado 114511" d="M4569.187,2247.405c-.006.827-.2.981-.82.682a5.891,5.891,0,0,0-4.861-.194c-.428.163-1,.488-1.325-.013-.359-.557.043-1.095.428-1.537a3.089,3.089,0,0,1,1.77-.989,5.181,5.181,0,0,1,3.619.312A2.131,2.131,0,0,1,4569.187,2247.405Z" transform="translate(-4550.234 -2220.849)" fill="#51362a"/>
          <path id="Trazado_114512" data-name="Trazado 114512" d="M4710.906,2245.314a4.192,4.192,0,0,1,2.373.7,2.532,2.532,0,0,1,.766.775c.232.383.464.815.186,1.218-.294.426-.779.218-1.142.073a5.994,5.994,0,0,0-5.182.183c-.521.265-.662-.011-.682-.46a2.093,2.093,0,0,1,1.063-1.95A4.424,4.424,0,0,1,4710.906,2245.314Z" transform="translate(-4675.365 -2220.966)" fill="#51362a"/>
          <path id="Trazado_114513" data-name="Trazado 114513" d="M4638.662,2365.143a3.787,3.787,0,0,1-2.258-.518,2.132,2.132,0,0,1-1.011-1.328c-.047-.168-.09-.4.052-.526.17-.157.338.035.491.108a12.184,12.184,0,0,0,1.911.748,5.265,5.265,0,0,0,3.683-.664c.195-.087.409-.346.615-.159.23.208.124.505.006.766a2.861,2.861,0,0,1-2.619,1.569C4639.283,2365.166,4639.029,2365.143,4638.662,2365.143Z" transform="translate(-4613.417 -2322.153)" fill="#fbbb85"/>
          <path id="Trazado_114514" data-name="Trazado 114514" d="M4632.152,2399.435a1.459,1.459,0,0,1-.783,1,6.435,6.435,0,0,1-2.412.737,14.485,14.485,0,0,1-5.843-.275,2.272,2.272,0,0,1-1.867-1.353A14.1,14.1,0,0,0,4632.152,2399.435Z" transform="translate(-4601.264 -2353.804)" fill="#f6945e"/>
          <path id="Trazado_114515" data-name="Trazado 114515" d="M4651.9,2419.606a2.253,2.253,0,0,0,2.341.049c-.108.783-.693.823-1.141.826S4652.062,2420.442,4651.9,2419.606Z" transform="translate(-4627.685 -2371.189)" fill="#fbbc86"/>
          <path id="Trazado_114516" data-name="Trazado 114516" d="M4576.857,2295.792l-.192-.014a.724.724,0,0,1,.4-.433l.173.17C4577.23,2295.771,4577.059,2295.8,4576.857,2295.792Z" transform="translate(-4562.838 -2264.089)" fill="#554033"/>
          <path id="Trazado_114517" data-name="Trazado 114517" d="M4722.468,2296.744c.108-.027.217-.054.326-.082a.6.6,0,0,1,.743.337.6.6,0,0,1-.136.756.6.6,0,0,1-.7.1.613.613,0,0,1-.354-.739,3.1,3.1,0,0,1,.136-.389Z" transform="translate(-4688.382 -2265.201)" fill="#f9f9f9"/>
          <path id="Trazado_114518" data-name="Trazado 114518" d="M4577.865,2296.854l.381-.277c.434-.006.768.139.807.622a.588.588,0,0,1-.541.664C4577.995,2297.957,4577.743,2297.557,4577.865,2296.854Z" transform="translate(-4563.847 -2265.151)" fill="#fafafa"/>
        </g>
      </g>
    </g>
  </g>
</svg>
