<svg xmlns="http://www.w3.org/2000/svg" width="56.033" height="55.084" viewBox="0 0 56.033 55.084">
  <g id="Grupo_136742" data-name="Grupo 136742" transform="translate(-302.5 -4082.5)">
    <path id="Trazado_122023" data-name="Trazado 122023" d="M1459.307,476.531c0,14.935,10.67,17.553,27.635,17.553s27.4-2.144,27.4-17.078S1503.907,440,1486.942,440,1459.307,461.6,1459.307,476.531Z" transform="translate(-1156.307 3643)" fill="#00cbae" stroke="rgba(0,0,0,0)" stroke-width="1"/>
    <g id="Grupo_136743" data-name="Grupo 136743" transform="translate(312.659 4097.536)">
      <path id="Trazado_112875" data-name="Trazado 112875" d="M574.67,1580.4a4.107,4.107,0,0,0-3.768-2.573q-13.878,0-27.756-.008a4.106,4.106,0,0,0-4,3.989c.031,8.427.012,16.856.013,25.283a3.829,3.829,0,0,0,2.159,3.514,5.078,5.078,0,0,0,2.563.526q12.659.009,25.318,0a17.969,17.969,0,0,0,1.982-.065,4.114,4.114,0,0,0,2.927-1.618,3.471,3.471,0,0,0,.753-1.908v-26.125A7.1,7.1,0,0,0,574.67,1580.4Zm-.857,26.374a3.01,3.01,0,0,1-2.413,3.1,3.832,3.832,0,0,1-.8.061q-13.583,0-27.165,0a3.011,3.011,0,0,1-3.195-3.21q0-10.361-.009-20.722c0-.319.091-.373.384-.371,2.345.012,4.69.007,7.035.007.1,0,.209,0,.313,0a.526.526,0,1,0,0-1.051c-.1-.01-.209,0-.313,0-2.333,0-4.667-.01-7,.01-.369,0-.438-.107-.42-.441a26.522,26.522,0,0,1,.067-2.711,2.954,2.954,0,0,1,2.758-2.464c.51-.024,1.021-.013,1.532-.014h12.433q6.809,0,13.617,0a3,3,0,0,1,3.071,2.269,3.253,3.253,0,0,1,.1.827c0,.731-.016,1.463.007,2.194.009.288-.089.368-.349.331a1.451,1.451,0,0,0-.209,0H550.73a2.378,2.378,0,0,0-.45.029.512.512,0,0,0,.014,1.006,2.587,2.587,0,0,0,.45.024q11.336,0,22.672-.005c.3,0,.406.049.405.385Q573.8,1596.394,573.813,1606.773Z" transform="translate(-539.148 -1577.818)"/>
      <path id="Trazado_112876" data-name="Trazado 112876" d="M672.955,1689.172c-.281-.044-.342-.209-.161-.44a1.047,1.047,0,0,0-.058-1.476q-.479-.505-.984-.986a1.054,1.054,0,0,0-1.477-.06c-.1.076-.173.135-.306.08s-.143-.151-.156-.273a1.02,1.02,0,0,0-1.018-.986c-.51-.022-1.022-.022-1.531,0a1.039,1.039,0,0,0-1.013,1c-.01.11.02.217-.129.286-.166.078-.233-.029-.324-.107a1.018,1.018,0,0,0-.7-.262,1.033,1.033,0,0,0-.78.324c-.332.324-.664.649-.984.985a1.063,1.063,0,0,0-.034,1.5c.068.079.193.123.127.285s-.177.115-.285.125a1.092,1.092,0,0,0-1.061,1.148c-.006.417,0,.835,0,1.253a1.086,1.086,0,0,0,1.1,1.18c.1.008.211-.022.27.1.068.147-.051.208-.124.291a1.068,1.068,0,0,0,.039,1.555q.46.475.937.934a1.061,1.061,0,0,0,1.554.038c.078-.068.123-.194.285-.125s.1.188.109.291a1.062,1.062,0,0,0,1.1,1.064q.7.014,1.393,0a1.045,1.045,0,0,0,1.083-1.036c.008-.111-.025-.232.124-.292s.209.04.3.113a1.049,1.049,0,0,0,1.5-.021c.356-.332.7-.677,1.033-1.035a1.029,1.029,0,0,0,.051-1.4c-.253-.332-.213-.438.185-.493a1.063,1.063,0,0,0,.975-1.112c0-.418,0-.836,0-1.253A1.085,1.085,0,0,0,672.955,1689.172Zm-.015,1.3c-.016.161,0,.325,0,.487v.14c0,.551,0,.553-.555.6a.555.555,0,0,0-.518.392,4.736,4.736,0,0,1-.283.67.585.585,0,0,0,.137.834c.3.231.262.409-.012.629a5.965,5.965,0,0,0-.593.588c-.1.111-.174.111-.276,0a2.085,2.085,0,0,0-.38-.355c-.34-.228-1.59.3-1.677.7a.97.97,0,0,0-.012.173c-.019.524-.019.524-.558.524h-.174c-.231,0-.514.072-.679-.035s-.036-.408-.06-.623a.533.533,0,0,0-.355-.47c-.257-.1-.514-.209-.766-.325a.625.625,0,0,0-.81.28c-.2.256-.348.236-.544,0a4.675,4.675,0,0,0-.59-.591c-.176-.148-.138-.235.008-.379.511-.506.5-.511.217-1.163-.037-.084-.068-.172-.1-.259-.2-.535-.273-.607-.833-.58-.326.016-.428-.087-.395-.4a3.8,3.8,0,0,0,0-.765c-.027-.276.084-.353.335-.318a1.8,1.8,0,0,0,.278,0,.519.519,0,0,0,.518-.385,4.866,4.866,0,0,1,.271-.675.6.6,0,0,0-.146-.807c-.334-.324-.327-.331.007-.664.173-.172.354-.337.514-.52.131-.15.237-.2.369-.009a1.448,1.448,0,0,0,.171.174.556.556,0,0,0,.724.12,5.517,5.517,0,0,1,.6-.265c.455-.172.538-.268.521-.771-.009-.257.04-.376.332-.348a6.865,6.865,0,0,0,.9,0c.167-.006.241.021.246.22.015.68.025.679.662.913.1.036.193.076.288.12.594.273.616.275,1.086-.184.122-.119.2-.154.327-.01.234.257.483.5.739.739.125.116.132.205,0,.3a.744.744,0,0,0-.18,1.145,1.33,1.33,0,0,1,.111.254c.232.629.232.638.882.646C672.88,1690.22,672.96,1690.268,672.94,1690.47Z" transform="translate(-641.613 -1667.169)"/>
      <path id="Trazado_112877" data-name="Trazado 112877" d="M624.9,1645.225a1.731,1.731,0,0,0,.313.008h15.669a1.755,1.755,0,0,0,.313-.007.492.492,0,0,0,.456-.523.487.487,0,0,0-.465-.513,2.122,2.122,0,0,0-.313-.005H625.24a2.571,2.571,0,0,0-.313,0,.521.521,0,0,0-.026,1.035Z" transform="translate(-610.249 -1633.134)"/>
      <path id="Trazado_112878" data-name="Trazado 112878" d="M624.914,1668.247a2.643,2.643,0,0,0,.278,0h15.669a1.78,1.78,0,0,0,.313-.006.521.521,0,0,0-.007-1.035,2.088,2.088,0,0,0-.313-.006H625.22a2.573,2.573,0,0,0-.313,0,.505.505,0,0,0-.48.5A.519.519,0,0,0,624.914,1668.247Z" transform="translate(-610.229 -1652.32)"/>
      <path id="Trazado_112879" data-name="Trazado 112879" d="M584.63,1736.283a1.138,1.138,0,0,0-.277-.012h-12.4a1.077,1.077,0,0,0-.277.014.5.5,0,0,0-.414.527.492.492,0,0,0,.445.5,1.986,1.986,0,0,0,.348.009H584.28a2.123,2.123,0,0,0,.313-.007.487.487,0,0,0,.461-.481A.5.5,0,0,0,584.63,1736.283Z" transform="translate(-565.915 -1709.89)"/>
      <path id="Trazado_112880" data-name="Trazado 112880" d="M585.049,1713.258a1.355,1.355,0,0,0-.312-.01h-12.3a1.646,1.646,0,0,0-.313.007.521.521,0,0,0,0,1.032,1.69,1.69,0,0,0,.313.008h12.3a1.462,1.462,0,0,0,.313-.01.522.522,0,0,0,0-1.027Z" transform="translate(-566.265 -1690.698)"/>
      <path id="Trazado_112881" data-name="Trazado 112881" d="M568.85,1645.191a.527.527,0,0,0,.568-.489.507.507,0,0,0-.492-.557c-.46-.071-.622-.238-.65-.7a5.211,5.211,0,0,0-.052-1.108,2.464,2.464,0,0,1,0-1.433,5.585,5.585,0,0,0,.055-1.142.619.619,0,0,1,.609-.672c.4-.068.584-.287.523-.625a.559.559,0,0,0-.7-.415,1.64,1.64,0,0,0-1.475,1.516c-.036.357-.033.718-.033,1.078a.39.39,0,0,1-.3.439.542.542,0,0,0-.461.536.533.533,0,0,0,.458.536c.254.067.3.24.305.471a9.848,9.848,0,0,0,.036,1.078A1.645,1.645,0,0,0,568.85,1645.191Z" transform="translate(-561.9 -1628.012)"/>
      <path id="Trazado_112882" data-name="Trazado 112882" d="M595.071,1643.657c-.382.066-.559.273-.513.6a.55.55,0,0,0,.677.439,1.64,1.64,0,0,0,1.493-1.5,10.886,10.886,0,0,0,.039-1.112.369.369,0,0,1,.281-.416.553.553,0,0,0,.479-.558.543.543,0,0,0-.47-.528c-.239-.063-.288-.227-.29-.444a10.576,10.576,0,0,0-.041-1.112,1.643,1.643,0,0,0-1.583-1.48.529.529,0,0,0-.587.467.507.507,0,0,0,.468.577c.5.083.642.236.676.754.006.092.009.185.009.278a2.433,2.433,0,0,0,.268,1.478,2.715,2.715,0,0,0-.269,1.508,2.97,2.97,0,0,1-.015.383A.624.624,0,0,1,595.071,1643.657Z" transform="translate(-585.328 -1627.607)"/>
      <path id="Trazado_112883" data-name="Trazado 112883" d="M683.727,1594.709a1.651,1.651,0,0,0,1.648-1.629,1.64,1.64,0,1,0-1.648,1.629Zm-.011-2.228a.59.59,0,0,1,.609.575.611.611,0,0,1-.591.6.605.605,0,0,1-.588-.6A.581.581,0,0,1,683.716,1592.481Z" transform="translate(-658.299 -1589.164)"/>
      <path id="Trazado_112884" data-name="Trazado 112884" d="M619.534,1690.233q-2.995,0-5.989,0c-.412,0-.645.187-.653.51-.009.34.229.538.659.539q1.5,0,2.995,0c1,0,2,0,2.995,0,.4,0,.636-.2.634-.527S619.941,1690.233,619.534,1690.233Z" transform="translate(-600.615 -1671.517)"/>
      <path id="Trazado_112885" data-name="Trazado 112885" d="M655.2,1594.71a1.661,1.661,0,0,0,1.651-1.631,1.638,1.638,0,0,0-1.659-1.648,1.621,1.621,0,0,0-1.624,1.639A1.639,1.639,0,0,0,655.2,1594.71Zm.009-2.228a.6.6,0,0,1,.589.6.613.613,0,0,1-.616.578.592.592,0,0,1-.56-.623A.571.571,0,0,1,655.213,1592.482Z" transform="translate(-634.522 -1589.165)"/>
      <path id="Trazado_112886" data-name="Trazado 112886" d="M712.227,1594.71a1.64,1.64,0,0,0,1.643-1.63,1.641,1.641,0,1,0-3.282-.011A1.657,1.657,0,0,0,712.227,1594.71Zm-.021-2.228a.579.579,0,0,1,.613.567.6.6,0,0,1-.578.61.612.612,0,0,1-.6-.593A.594.594,0,0,1,712.206,1592.482Z" transform="translate(-682.047 -1589.165)"/>
      <path id="Trazado_112887" data-name="Trazado 112887" d="M572.073,1690.768c.008.311.241.508.619.51.638,0,1.276,0,1.914,0s1.253,0,1.879,0c.4,0,.645-.2.648-.52s-.241-.527-.641-.528q-1.9,0-3.793,0C572.3,1690.231,572.064,1690.443,572.073,1690.768Z" transform="translate(-566.591 -1671.514)"/>
      <path id="Trazado_112888" data-name="Trazado 112888" d="M684.066,1704.207a2.748,2.748,0,0,0-.008,5.5,2.748,2.748,0,1,0,.008-5.5Zm0,4.446a1.693,1.693,0,1,1,1.708-1.693A1.7,1.7,0,0,1,684.062,1708.653Z" transform="translate(-657.648 -1683.166)"/>
    </g>
  </g>
</svg>
