<svg xmlns="http://www.w3.org/2000/svg" xmlns:xlink="http://www.w3.org/1999/xlink" width="89" height="89" viewBox="0 0 89 89">
  <defs>
    <clipPath id="clip-path">
      <circle id="Base" cx="44.5" cy="44.5" r="44.5" fill="#fff"/>
    </clipPath>
  </defs>
  <g id="Grupo_137401" data-name="Grupo 137401" transform="translate(-501 -9391)">
    <circle id="Base-2" data-name="Base" cx="44.5" cy="44.5" r="44.5" transform="translate(501 9391)" fill="#00cbae"/>
    <g id="Enmascarar_grupo_60" data-name="Enmascarar grupo 60" transform="translate(501 9391)" clip-path="url(#clip-path)">
      <g id="AZy8Cp" transform="translate(17.752 11.558)">
        <g id="Grupo_78664" data-name="Grupo 78664" transform="translate(0 0)">
          <path id="Trazado_114475" data-name="Trazado 114475" d="M4393.836,2187.238a110.014,110.014,0,0,1,.1-15.921,39.524,39.524,0,0,1,2.511-11.143c2.784-6.824,7.86-10.96,14.958-12.718a36.8,36.8,0,0,1,5.656-.905c.14-.012.312.039.379-.157h.908a1.548,1.548,0,0,0,1.059,0h.3a1.154,1.154,0,0,0,.908,0h.605a1.154,1.154,0,0,0,.908,0h.3a1.548,1.548,0,0,0,1.059,0h.756a19.308,19.308,0,0,0,3.082.442,25.741,25.741,0,0,1,10.417,3.748,20.671,20.671,0,0,1,7.974,10.433,41.077,41.077,0,0,1,2.226,10.675,111.535,111.535,0,0,1,.056,15.546,37.646,37.646,0,0,1-.667,4.75,38.838,38.838,0,0,1-4.6,11.111,42.274,42.274,0,0,1-12.321,13.069c-.339.222-.757.726-1.1.407-.308-.288.212-.691.4-1.01.757-1.273,1.521-2.541,2.157-3.881a52.327,52.327,0,0,0,3.139-6.924,24.789,24.789,0,0,0,1.417-4.364,44.713,44.713,0,0,0,1.972-8.369,43.658,43.658,0,0,0,.423-9.344,38.69,38.69,0,0,0-3.273-13.671c-.521-1.175-1.167-2.288-1.648-3.479-.082-.2-.226-.368-.263-.485.012.165.218.35.293.591a18.406,18.406,0,0,1,1.638,5.327c.011.075.026.149.037.224.229,1.711.067,1.891-1.579,1.586a59.417,59.417,0,0,0-9.54-.929c-1.484-.033-2.97-.161-4.455-.114a71.087,71.087,0,0,0-12.849,1.16c-.826.178-1.021.036-1-.811a15.731,15.731,0,0,1,1.388-5.745,38.115,38.115,0,0,0-3.255,8.261,40.763,40.763,0,0,0-1.351,9.48,51.477,51.477,0,0,0,1.941,14.939,13.77,13.77,0,0,0,.486,1.349,36.285,36.285,0,0,0,2.289,6.546,35.022,35.022,0,0,0,2.271,4.77,37.421,37.421,0,0,0,2.056,3.688c.093.149.2.292.28.448.122.229.243.5.036.7-.25.244-.458-.038-.649-.164a44.61,44.61,0,0,1-4.461-3.469,43.824,43.824,0,0,1-9.61-12.493,36.908,36.908,0,0,1-3.56-10.774C4393.925,2188.828,4394.005,2188.022,4393.836,2187.238Z" transform="translate(-4393.598 -2146.395)" fill="#684b37"/>
          <path id="Trazado_114476" data-name="Trazado 114476" d="M4557.891,2146.4a.869.869,0,0,1-1.059,0Z" transform="translate(-4532.081 -2146.395)" fill="#968274"/>
          <path id="Trazado_114477" data-name="Trazado 114477" d="M4584.829,2146.4a.869.869,0,0,1-1.059,0Z" transform="translate(-4554.934 -2146.395)" fill="#968274"/>
          <path id="Trazado_114478" data-name="Trazado 114478" d="M4566.719,2146.4a.682.682,0,0,1-.908,0Z" transform="translate(-4539.698 -2146.395)" fill="#775d4b"/>
          <path id="Trazado_114479" data-name="Trazado 114479" d="M4576.7,2146.4a.682.682,0,0,1-.908,0Z" transform="translate(-4548.163 -2146.395)" fill="#775d4b"/>
          <path id="Trazado_114480" data-name="Trazado 114480" d="M4448.128,2573.935c.05.448-.285.74-.464,1.087-.651,1.27-1.386,2.492-2.085,3.81.885-.631,1.767-1.267,2.655-1.893.861-.606,1.555-1.425,2.474-1.957a.883.883,0,0,1,.712.168,26.427,26.427,0,0,1,7.543,5.347,5.2,5.2,0,0,1,1.261,1.765,9.274,9.274,0,0,1,1.278,3.276c.042.447-.08.532-.457.5-.125-.011-.252,0-.378,0h-47.154c-.929,0-.941,0-.772-.944a10.377,10.377,0,0,1,1.217-2.826,9.233,9.233,0,0,1,2.672-3.131,27.927,27.927,0,0,1,6.063-3.948c.243-.119.478-.3.779-.2.534.166.824.644,1.23.972,1.194.963,2.428,1.871,3.7,2.748.2-.322-.058-.515-.186-.738q-1.017-1.767-2.036-3.531a.669.669,0,0,1-.126-.5,2.538,2.538,0,0,1,1.587-.622c.5.033.706.449.952.786q3.971,5.433,7.949,10.861c.54.733.561.734,1.093.012q3.987-5.42,7.947-10.861c.246-.337.445-.755.949-.8A2.5,2.5,0,0,1,4448.128,2573.935Z" transform="translate(-4409.767 -2508.58)" fill="#f4a760"/>
          <path id="Trazado_114481" data-name="Trazado 114481" d="M4408.574,2441.316a33.325,33.325,0,0,0-6.357,3.978,23.93,23.93,0,0,0-3.159,3.3c-.609-2.929-1.053-5.887-1.517-8.841-.765-4.87-1.432-9.753-1.877-14.663a80.484,80.484,0,0,1-.556-9.336,12.7,12.7,0,0,1,.434,2.555,35.671,35.671,0,0,0,2.653,8.745,42.393,42.393,0,0,0,6.132,9.778c1.073,1.3,2.3,2.455,3.484,3.651C4408.076,2440.753,4408.32,2441.038,4408.574,2441.316Z" transform="translate(-4394.869 -2374.914)" fill="#543c2a"/>
          <path id="Trazado_114482" data-name="Trazado 114482" d="M4673.12,2448.595a25.626,25.626,0,0,0-9.515-7.28c.894-.918,1.8-1.822,2.679-2.756a41.357,41.357,0,0,0,6.4-8.877,37.325,37.325,0,0,0,3.376-8.585,30.562,30.562,0,0,0,.856-4.864c.014-.175-.011-.357.157-.478a60.925,60.925,0,0,1-.37,7.231c-.529,6.571-1.456,13.094-2.513,19.6C4673.862,2444.592,4673.478,2446.592,4673.12,2448.595Z" transform="translate(-4622.665 -2374.913)" fill="#543c2a"/>
          <path id="Trazado_114483" data-name="Trazado 114483" d="M4484.923,2270.217a37.935,37.935,0,0,1,4.721,13.425,48.419,48.419,0,0,1-1.565,20.663,3.889,3.889,0,0,1-.512,1.165,3.96,3.96,0,0,1-1.388,1.642,18.346,18.346,0,0,1-8.722,4.213,26.811,26.811,0,0,1-9.036.336,3.3,3.3,0,0,0-1.54-.079,7.38,7.38,0,0,0-.023,3.225c.053.292.181.569.036.865-.5.225-.533-.216-.687-.484a18.8,18.8,0,0,1-.041-2.938,1.008,1.008,0,0,0-.9-1.2,17.482,17.482,0,0,1-8.323-4.654,1.942,1.942,0,0,1-.616-.924,11.928,11.928,0,0,1-1.114-3.5,48.108,48.108,0,0,1-1.39-14.449,39.273,39.273,0,0,1,5.031-17.152,1.424,1.424,0,0,1,.174-.245c.027-.03.089-.029.237-.073a18.8,18.8,0,0,0-1.829,7.692,69.776,69.776,0,0,1,16.406-1.276,57.149,57.149,0,0,1,12.147,1.194c.485.112.485-.06.48-.419a17.977,17.977,0,0,0-1.42-6.14c-.089-.234-.176-.469-.263-.7C4484.715,2270.25,4484.783,2270.207,4484.923,2270.217Z" transform="translate(-4444.625 -2251.3)" fill="#fccb9a"/>
          <path id="Trazado_114484" data-name="Trazado 114484" d="M4470.786,2503.654a17.456,17.456,0,0,0,9.341,5.463c.536.121.726.334.7.895-.053,1.1-.023,2.212-.028,3.319a.479.479,0,0,1-.389.311c-1.149.189-2.248.623-3.417.714l-1.625.483a8.577,8.577,0,0,1-1.438-2.623c-.849-1.9-1.614-3.843-2.377-5.783A10.145,10.145,0,0,1,4470.786,2503.654Z" transform="translate(-4459.082 -2449.483)" fill="#543c2a"/>
          <path id="Trazado_114485" data-name="Trazado 114485" d="M4609.313,2509.253a17.556,17.556,0,0,0,9.98-5.6,12.81,12.81,0,0,1-.933,3.2,69.37,69.37,0,0,1-3.171,7.332c-.123.242-.188.531-.477.654l-1.625-.483c-1.171-.089-2.271-.515-3.42-.713a.678.678,0,0,1-.52-.388,5.649,5.649,0,0,1-.1-1.637C4609.118,2510.826,4608.8,2509.994,4609.313,2509.253Z" transform="translate(-4576.353 -2449.483)" fill="#543c2a"/>
          <path id="Trazado_114486" data-name="Trazado 114486" d="M4656.8,2268.712l-.134.18c-.1-.188-.2-.376-.324-.617C4656.683,2268.334,4656.731,2268.534,4656.8,2268.712Z" transform="translate(-4616.507 -2249.795)" fill="#fbca9a"/>
          <path id="Trazado_114487" data-name="Trazado 114487" d="M4526.732,2567.454a25.591,25.591,0,0,1,3.807,1.027c-.467.163-.641.6-.9.96-2.682,3.657-5.368,7.311-8.027,10.985-.389.537-.579.537-.967,0q-4.113-5.7-8.282-11.357c-.167-.227-.291-.549-.647-.588a25.292,25.292,0,0,1,3.807-1.026c.147.21.213.48.453.622a9.8,9.8,0,0,1,1.42,2.115c1.113,1.8,2.18,3.619,3.269,5.429a1.56,1.56,0,0,0,.448.6c.265-.1.337-.363.461-.569,1.5-2.5,3-5.006,4.525-7.49C4526.264,2567.892,4526.379,2567.563,4526.732,2567.454Z" transform="translate(-4493.804 -2503.61)" fill="#f08a45"/>
          <path id="Trazado_114488" data-name="Trazado 114488" d="M4548.868,2546.053l-5.606,9.28c-.61-1.016-1.167-1.954-1.734-2.887-1.07-1.763-2.147-3.523-3.215-5.287a3.521,3.521,0,0,1-.2-.483,12.307,12.307,0,0,1-.29-3.7c0-.241-.084-.511.149-.707.457-.138.827.145,1.2.3a19.881,19.881,0,0,0,8.363,1.609,1.744,1.744,0,0,1,1.3.211Q4548.849,2545.219,4548.868,2546.053Z" transform="translate(-4515.938 -2482.209)" fill="#fccb9a"/>
          <path id="Trazado_114489" data-name="Trazado 114489" d="M4469.494,2429.859a3.16,3.16,0,0,1-3.2,3.2,3.328,3.328,0,0,1-3.137-3.16,3.169,3.169,0,1,1,6.338-.04Z" transform="translate(-4452.607 -2384.198)" fill="#f8a98c"/>
          <path id="Trazado_114490" data-name="Trazado 114490" d="M4651.278,2429.911a3.1,3.1,0,0,1-3.211,3.165,3.167,3.167,0,1,1,3.211-3.165Z" transform="translate(-4606.859 -2384.233)" fill="#f8a98c"/>
          <path id="Trazado_114491" data-name="Trazado 114491" d="M4488.82,2379.094a2.4,2.4,0,0,1,2.354-2.517,2.554,2.554,0,0,1-.057,5.093A2.416,2.416,0,0,1,4488.82,2379.094Z" transform="translate(-4474.381 -2341.675)" fill="#3b2519"/>
          <path id="Trazado_114492" data-name="Trazado 114492" d="M4630.546,2377.329a2.177,2.177,0,0,1,2.9-.416,2.738,2.738,0,0,1,.852,3.3,2.286,2.286,0,0,1-2.722,1.338,2.585,2.585,0,0,1-1.707-2.715,2.234,2.234,0,0,1,.423-1.189c.127-.039.2.038.263.128.184.307.29.738.8.584a.38.38,0,0,0,.273-.469c-.126-.495-.564-.383-.914-.438A.355.355,0,0,1,4630.546,2377.329Z" transform="translate(-4594.033 -2341.636)" fill="#3b2519"/>
          <path id="Trazado_114493" data-name="Trazado 114493" d="M4549.746,2542.987a22.751,22.751,0,0,1-7.8-.892c-1.052-.344-2.032-.845-3.063-1.228.184-.224.4-.109.621-.076a26.748,26.748,0,0,0,8.313.118,17.04,17.04,0,0,0,2-.328Q4549.781,2541.784,4549.746,2542.987Z" transform="translate(-4516.855 -2480.811)" fill="#fbbb85"/>
          <path id="Trazado_114494" data-name="Trazado 114494" d="M4478.714,2343.736c-.245-.018-.53.045-.668-.237a.732.732,0,0,1,.157-.774,3.367,3.367,0,0,1,2.414-1.251,7.16,7.16,0,0,1,3.645.27,1.8,1.8,0,0,1,1.341,1.558c-.012.383-.148.7-.592.525a8.891,8.891,0,0,0-6-.117A1.488,1.488,0,0,1,4478.714,2343.736Z" transform="translate(-4465.192 -2311.798)" fill="#684b37"/>
          <path id="Trazado_114495" data-name="Trazado 114495" d="M4626.026,2343.767c-.238-.049-.563-.095-.875-.186a7.907,7.907,0,0,0-4.9.139c-.279.1-.647.385-.894.012a.978.978,0,0,1,.11-1.133,2.613,2.613,0,0,1,1.713-1.013,7.164,7.164,0,0,1,4.432.332,2.342,2.342,0,0,1,1.042.846.717.717,0,0,1,.137.775C4626.642,2343.812,4626.358,2343.74,4626.026,2343.767Z" transform="translate(-4585.01 -2311.821)" fill="#684b37"/>
          <path id="Trazado_114496" data-name="Trazado 114496" d="M4553.44,2448.548a4,4,0,0,1-2.923-.766,1.779,1.779,0,0,1-.7-1.276c-.048-.427.1-.535.513-.344a7.344,7.344,0,0,0,3.135.915,7.954,7.954,0,0,0,3-.854c.17-.069.348-.294.536-.106.149.148.1.39.053.578a2.469,2.469,0,0,1-1.847,1.7A4.026,4.026,0,0,1,4553.44,2448.548Z" transform="translate(-4526.12 -2400.609)" fill="#fbbb85"/>
          <path id="Trazado_114497" data-name="Trazado 114497" d="M4535.774,2481.883a22.747,22.747,0,0,0,5.805,1.061,19.894,19.894,0,0,0,5.86-1.213,2.422,2.422,0,0,1-1.5,1.317,14.548,14.548,0,0,1-6.313.534,9.66,9.66,0,0,1-2.418-.51A2.3,2.3,0,0,1,4535.774,2481.883Z" transform="translate(-4514.216 -2430.885)" fill="#f6945e"/>
          <path id="Trazado_114498" data-name="Trazado 114498" d="M4567.2,2502.741a5.221,5.221,0,0,1-.558-.17c-.262-.111-.713-.185-.581-.537.145-.385.436.045.67.066a2.094,2.094,0,0,0,1.308-.15c.106-.061.243-.131.328.006a.282.282,0,0,1-.114.388A3.031,3.031,0,0,1,4567.2,2502.741Z" transform="translate(-4539.89 -2447.973)" fill="#fbbc86"/>
          <path id="Trazado_114499" data-name="Trazado 114499" d="M4632.929,2382.3l-.162-.189a.42.42,0,0,1,.248-.318l.219.024C4633.269,2382.064,4633.194,2382.243,4632.929,2382.3Z" transform="translate(-4596.502 -2346.099)" fill="#533b2d"/>
          <path id="Trazado_114500" data-name="Trazado 114500" d="M4494.307,2382.123a.668.668,0,0,1-.745.652.679.679,0,0,1,.1-1.354A.657.657,0,0,1,4494.307,2382.123Z" transform="translate(-4477.872 -2345.783)" fill="#f9f9f9"/>
          <path id="Trazado_114501" data-name="Trazado 114501" d="M4633.834,2381.971l.3-.483c.413-.122.825-.173,1.028.311a.614.614,0,0,1-.381.914C4634.154,2382.907,4633.925,2382.511,4633.834,2381.971Z" transform="translate(-4597.408 -2345.77)" fill="#fbfbfb"/>
        </g>
      </g>
    </g>
  </g>
</svg>
