<svg xmlns="http://www.w3.org/2000/svg" xmlns:xlink="http://www.w3.org/1999/xlink" width="89" height="89" viewBox="0 0 89 89">
  <defs>
    <clipPath id="clip-path">
      <circle id="Base" cx="44.5" cy="44.5" r="44.5" fill="#fff"/>
    </clipPath>
  </defs>
  <g id="Grupo_137402" data-name="Grupo 137402" transform="translate(-755 -9391)">
    <circle id="Base-2" data-name="Base" cx="44.5" cy="44.5" r="44.5" transform="translate(755 9391)" fill="#00cbae"/>
    <g id="Icon" transform="translate(786.925 9417.511)">
      <g id="Icon-2" data-name="Icon" transform="translate(0.001 0.001)">
        <g id="Grupo_60" data-name="Grupo 60" transform="translate(0 0)">
          <path id="Trazado_348" data-name="Trazado 348" d="M121.334,107.8c-1.442-3.591-7.188-10.58-12.576-10.58a5.8,5.8,0,0,0-.9.077,2.457,2.457,0,0,0-.514-.794,2.858,2.858,0,0,0-3.34-.372l-4.647-4.661a.889.889,0,0,0-1.229,0l-.263.263a.875.875,0,0,0,0,1.232l4.6,4.618a2.921,2.921,0,0,0,.253,3.555,2.384,2.384,0,0,0,.349.266c-.938,3,1.56,5.908,3.658,8.343,1.937,2.249,3.608,4.19,2.24,5.568-.169.169-.336.344-.5.519l-.82-.742a.831.831,0,0,0-1.18.061l-1.233,1.37a.839.839,0,0,0,.06,1.183l.837.757c-2.541,3.109-4.419,6.355-3.845,8.052a1.8,1.8,0,0,0,1.642,1.17,1.187,1.187,0,0,0,.15.009h0c1.129,0,2.733-1.642,4.766-3.72,2.367-2.422,5.313-5.436,8.254-6.514a7.066,7.066,0,0,0,4.3-3.695A8.023,8.023,0,0,0,121.334,107.8ZM98.243,92.582a.333.333,0,0,1,0-.47l.263-.263a.337.337,0,0,1,.468,0l4.549,4.562a3.729,3.729,0,0,0-.485.408,3.87,3.87,0,0,0-.259.31Zm4.858,8.173a2.778,2.778,0,0,1,3.86-3.873,1.93,1.93,0,0,1,.358.524,5.955,5.955,0,0,0-2.726,1.611,6.3,6.3,0,0,0-1.327,1.865A1.932,1.932,0,0,1,103.1,100.755ZM105.65,117.3a.294.294,0,0,1-.1-.206.3.3,0,0,1,.077-.216l1.233-1.37a.3.3,0,0,1,.42-.022l.809.733c-.555.591-1.1,1.2-1.619,1.824Zm15.252-3.758a6.559,6.559,0,0,1-3.991,3.407c-3.056,1.12-6.048,4.182-8.454,6.642-1.843,1.885-3.579,3.668-4.461,3.554a1.3,1.3,0,0,1-1.2-.809c-.664-1.961,2.882-6.948,6.555-10.646,1.721-1.732-.19-3.951-2.214-6.3-2.634-3.058-5.619-6.526-2.159-10a5.21,5.21,0,0,1,3.784-1.64c5.153,0,10.682,6.766,12.078,10.242A7.472,7.472,0,0,1,120.9,113.544Z" transform="translate(-97.609 -91.221)" fill="#2c2b31" stroke="#1a1818" stroke-width="0.897"/>
          <path id="Trazado_349" data-name="Trazado 349" d="M119.137,109.475a.269.269,0,0,0-.381.381l2.386,2.393a.269.269,0,0,0,.381-.381Z" transform="translate(-100.427 -93.652)" fill="#2c2b31" stroke="#1a1818" stroke-width="0.897"/>
          <path id="Trazado_350" data-name="Trazado 350" d="M118.158,110.457a.269.269,0,0,0-.381.381l2.385,2.393a.268.268,0,0,0,.19.079.264.264,0,0,0,.189-.079.27.27,0,0,0,0-.381Z" transform="translate(-100.296 -93.783)" fill="#2c2b31" stroke="#1a1818" stroke-width="0.897"/>
          <path id="Trazado_351" data-name="Trazado 351" d="M117.179,111.439a.269.269,0,0,0-.381.381l2.385,2.394a.269.269,0,0,0,.191.079.266.266,0,0,0,.19-.079.271.271,0,0,0,0-.381Z" transform="translate(-100.165 -93.915)" fill="#2c2b31" stroke="#1a1818" stroke-width="0.897"/>
          <path id="Trazado_352" data-name="Trazado 352" d="M116.2,112.421a.269.269,0,0,0-.381.381L118.2,115.2a.269.269,0,0,0,.191.079.264.264,0,0,0,.189-.079.269.269,0,0,0,0-.38Z" transform="translate(-100.034 -94.046)" fill="#2c2b31" stroke="#1a1818" stroke-width="0.897"/>
          <path id="Trazado_353" data-name="Trazado 353" d="M115.975,118.258a1.215,1.215,0,0,0,0,1.711,1.206,1.206,0,0,0,1.707,0,1.215,1.215,0,0,0,0-1.711A1.234,1.234,0,0,0,115.975,118.258Zm1.327,1.329a.682.682,0,0,1-.946,0,.67.67,0,1,1,.946,0Z" transform="translate(-100.019 -94.792)" fill="#2c2b31" stroke="#1a1818" stroke-width="0.897"/>
          <path id="Trazado_354" data-name="Trazado 354" d="M113.494,120.775a.908.908,0,0,0,.64,1.551.908.908,0,0,0,.906-.907.9.9,0,0,0-.265-.644A.926.926,0,0,0,113.494,120.775Zm.9.9a.376.376,0,0,1-.52,0,.37.37,0,0,1,0-.523.365.365,0,0,1,.52,0,.37.37,0,0,1,0,.523Z" transform="translate(-99.698 -95.14)" fill="#2c2b31" stroke="#1a1818" stroke-width="0.897"/>
          <path id="Trazado_355" data-name="Trazado 355" d="M113.668,104.267a.868.868,0,0,0-.254-.616l-.371-.372a.887.887,0,0,0-1.229,0l-2.174,2.181a.876.876,0,0,0,0,1.232l.37.373a.869.869,0,0,0,1.23,0l2.173-2.18A.869.869,0,0,0,113.668,104.267Zm-.635.235-2.172,2.179a.34.34,0,0,1-.47,0l-.37-.372a.334.334,0,0,1,0-.47l2.174-2.181a.33.33,0,0,1,.468,0l.371.372a.332.332,0,0,1,0,.47Z" transform="translate(-99.184 -92.801)" fill="#2c2b31" stroke="#1a1818" stroke-width="0.897"/>
        </g>
      </g>
      <path id="Color_Overlay" data-name="Color Overlay" d="M6.316,36.464a1.807,1.807,0,0,1-1.64-1.172c-.578-1.7,1.3-4.942,3.841-8.053l-.838-.756a.837.837,0,0,1-.272-.579.825.825,0,0,1,.215-.6l1.23-1.371a.832.832,0,0,1,1.182-.059l.819.741c.166-.173.335-.35.5-.52,1.368-1.378-.3-3.317-2.24-5.565-2.1-2.436-4.6-5.344-3.657-8.344a2.3,2.3,0,0,1-.35-.265A2.931,2.931,0,0,1,4.858,6.36L.254,1.742a.872.872,0,0,1,0-1.231L.516.246a.888.888,0,0,1,1.227,0L6.391,4.908a2.867,2.867,0,0,1,3.342.372,2.474,2.474,0,0,1,.513.792,6.062,6.062,0,0,1,.9-.074c5.389,0,11.135,6.988,12.576,10.578a8.02,8.02,0,0,1,.059,5.967,7.053,7.053,0,0,1-4.293,3.693c-2.945,1.08-5.89,4.091-8.257,6.516C9.2,34.832,7.6,36.472,6.468,36.472,6.415,36.472,6.365,36.468,6.316,36.464ZM7.364,8.177c-3.457,3.468-.472,6.936,2.16,10,2.024,2.348,3.936,4.57,2.214,6.3-3.675,3.7-7.221,8.687-6.557,10.648a1.294,1.294,0,0,0,1.206.807c.885.118,2.616-1.666,4.463-3.553,2.4-2.458,5.4-5.521,8.452-6.641a6.548,6.548,0,0,0,3.991-3.409,7.465,7.465,0,0,0-.066-5.543C21.829,13.3,16.3,6.537,11.148,6.537A5.218,5.218,0,0,0,7.364,8.177ZM9.255,24.291,8.02,25.662a.307.307,0,0,0-.078.214.292.292,0,0,0,.1.206l.823.744C9.387,26.2,9.925,25.592,10.481,25l-.807-.734a.313.313,0,0,0-.218-.077A.3.3,0,0,0,9.255,24.291ZM5.808,5.981A2.554,2.554,0,0,0,5.49,9.534c.052.052.115.085.166.129A6.308,6.308,0,0,1,6.985,7.8,5.926,5.926,0,0,1,9.711,6.187,1.952,1.952,0,0,0,9.35,5.66a2.053,2.053,0,0,0-1.477-.582A2.967,2.967,0,0,0,5.808,5.981ZM.895.629.633.891a.337.337,0,0,0,0,.472L5.17,5.911a3.129,3.129,0,0,1,.258-.31,3.445,3.445,0,0,1,.486-.409L1.364.629a.326.326,0,0,0-.234-.1A.332.332,0,0,0,.895.629Zm12.9,26.293a.911.911,0,0,1,0-1.286.931.931,0,0,1,1.284,0,.921.921,0,0,1,.264.645.913.913,0,0,1-.907.907A.912.912,0,0,1,13.794,26.922Zm.384-.9a.368.368,0,1,0,.516,0,.345.345,0,0,0-.259-.111A.34.34,0,0,0,14.178,26.019Zm1.776-.84a1.216,1.216,0,0,1,0-1.71,1.234,1.234,0,0,1,1.707,0,1.216,1.216,0,0,1,0,1.71,1.211,1.211,0,0,1-1.711,0Zm.385-1.33a.666.666,0,1,0,.47-.2A.668.668,0,0,0,16.339,23.849Zm1.831-2.7-2.385-2.392a.277.277,0,0,1,0-.383.272.272,0,0,1,.38,0l2.385,2.4a.265.265,0,0,1,0,.38.272.272,0,0,1-.38,0Zm.847-.851-2.384-2.392a.275.275,0,0,1,0-.383.271.271,0,0,1,.379,0l2.389,2.4a.272.272,0,0,1-.192.461A.283.283,0,0,1,19.017,20.3Zm.847-.851-2.384-2.392a.273.273,0,0,1,0-.383.266.266,0,0,1,.375,0l2.39,2.4a.272.272,0,0,1,0,.38.268.268,0,0,1-.385,0Zm.848-.848-2.384-2.4a.27.27,0,0,1,0-.38.264.264,0,0,1,.379,0L21.1,18.217a.275.275,0,0,1,0,.383.276.276,0,0,1-.384,0Zm-9.885-4.334-.372-.376a.871.871,0,0,1,0-1.231l2.174-2.178a.88.88,0,0,1,1.226,0l.372.372a.868.868,0,0,1,0,1.231l-2.173,2.178a.863.863,0,0,1-1.227,0Zm2.181-3.406-2.174,2.182a.332.332,0,0,0,0,.468l.372.372a.34.34,0,0,0,.469,0L13.847,11.7a.341.341,0,0,0,.1-.236.335.335,0,0,0-.1-.236l-.369-.372a.334.334,0,0,0-.468,0Z" transform="translate(0)" fill="#219df3"/>
    </g>
    <g id="Enmascarar_grupo_61" data-name="Enmascarar grupo 61" transform="translate(755 9391)" clip-path="url(#clip-path)">
      <g id="u038UC" transform="translate(17.176 11.559)">
        <g id="Grupo_78666" data-name="Grupo 78666" transform="translate(0 0)">
          <path id="Trazado_114519" data-name="Trazado 114519" d="M4523.014,2497.949a38.855,38.855,0,0,1,11.47,5.386,15.245,15.245,0,0,1,4.639,4.61,4.244,4.244,0,0,1,.762,2.5h-54.16c-.057-1.778,1-3.044,2.069-4.246a23.649,23.649,0,0,1,6.336-4.758,40.784,40.784,0,0,1,8.457-3.494,12.213,12.213,0,0,1,1.731,2.45c.745,1.113,1.444,2.256,2.181,3.374.411.623.457.623,1.006.076,1.487-1.48,2.965-2.969,4.454-4.447.228-.226.414-.521.776-.574a.275.275,0,0,1,.185.148.844.844,0,0,1,.078.246c.079,2.942.07,5.883-.111,8.749a1.326,1.326,0,0,1,0-.2c.119-2.369.255-4.737.489-7.1.306-.915.43-.948,1.122-.28,1.215,1.174,2.363,2.416,3.647,3.523.473.407.643.331.951-.153,1.1-1.725,2.193-3.45,3.319-5.157C4522.575,2498.354,4522.688,2498.049,4523.014,2497.949Z" transform="translate(-4485.652 -2432.54)" fill="#b3ddf5"/>
          <path id="Trazado_114520" data-name="Trazado 114520" d="M4543.009,2246.287a.36.36,0,0,0-.119-.016.934.934,0,0,1-.633-.21c-1.485-.917-2.983-1.811-4.461-2.74-.168-.106-.353-.208-.4-.432a12.264,12.264,0,0,1,.017-1.742c.11-.758-.252-1.012-.9-1.16a16.9,16.9,0,0,1-5.8-2.518,18.742,18.742,0,0,1-6.875-8.918c-.419-1.059-.683-2.164-1.058-3.234a1.158,1.158,0,0,1-.392-.716,45.381,45.381,0,0,1-1.01-6.2,1.108,1.108,0,0,1,.072-.521c2.6-2.5,2.981-5.78,3.066-9.094a8.417,8.417,0,0,1,1.634-5.256,12.645,12.645,0,0,1,4.97-3.533,1.868,1.868,0,0,1,1.265.088c3.909.981,7.826,1.925,11.814,2.535a65.334,65.334,0,0,0,9.14.876,10.007,10.007,0,0,1,5.922,1.612,10.244,10.244,0,0,1,3.734,6.176c.386,1.5.524,3.045.774,4.57a4.107,4.107,0,0,0,.68,1.914,4.2,4.2,0,0,1,.011,2,32.034,32.034,0,0,1-.75,4.382c-.095.42-.086.847-.155,1.268-.533-.037-.5.415-.59.722a22.1,22.1,0,0,1-3.458,7.278,17.11,17.11,0,0,1-9.53,6.459c-.073.02-.151.021-.224.04-1.1.285-1.1.285-1.1,1.448,0,.506-.011,1.012-.017,1.518a.571.571,0,0,1-.33.393c-1.609.955-3.174,1.982-4.8,2.911C4543.352,2246.274,4543.2,2246.393,4543.009,2246.287Z" transform="translate(-4515.865 -2179.951)" fill="#fccb9a"/>
          <path id="Trazado_114521" data-name="Trazado 114521" d="M4551.663,2106.925c-.828-.832-.741-1.955-.9-2.98a21.681,21.681,0,0,0-1.626-6.367,7.7,7.7,0,0,0-7.025-4.656,100.527,100.527,0,0,1-22.567-3.6,1.943,1.943,0,0,0-1.506.157,11.719,11.719,0,0,0-4.841,3.913,6.3,6.3,0,0,0-1.082,3.5,18.7,18.7,0,0,1-1.36,7.714,3.955,3.955,0,0,1-1.839,2.323c-.622.335-1.006-.089-1.242-.514a6.72,6.72,0,0,1-.9-3.772,89.5,89.5,0,0,1-.252-11.853,18.388,18.388,0,0,1,10.281-16.475,27.088,27.088,0,0,1,15.625-2.8,58.16,58.16,0,0,0,16.186-.884c2.738-.5,5.45-1.146,8.208-1.535a5.826,5.826,0,0,1,1.136-.061c.98.056,1.252.464.928,1.4a8.73,8.73,0,0,1-2.419,3.272,34.914,34.914,0,0,1-4.02,3.243c.107.431.39.147.6.148a33.952,33.952,0,0,0,4.007-.814,7.179,7.179,0,0,1,1.2-.19c.7-.021.917.3.636.959a6.937,6.937,0,0,1-1.658,2.243,16.294,16.294,0,0,1-2.927,2.159c-.347.209-.49.365-.388.816a49.8,49.8,0,0,1,.265,18.26c-.079.55-.177,1.1-.267,1.646a8.1,8.1,0,0,1-1.146,4.133C4552.556,2106.723,4552.289,2107.2,4551.663,2106.925Z" transform="translate(-4503.21 -2069.033)" fill="#d86e27"/>
          <path id="Trazado_114522" data-name="Trazado 114522" d="M4797.575,2291.183c.6.016.817-.436,1.041-.862a15.7,15.7,0,0,0,1.208-3.877c-.054.425.292.545.558.717a6.623,6.623,0,0,1,.971,10.344,4.787,4.787,0,0,1-4.541,1.255.509.509,0,0,1-.2-.567,49.7,49.7,0,0,0,.9-5.091A7.676,7.676,0,0,0,4797.575,2291.183Z" transform="translate(-4749.122 -2253.292)" fill="#fbbb84"/>
          <path id="Trazado_114523" data-name="Trazado 114523" d="M4488.822,2289.453a27.192,27.192,0,0,0,.77,3.121c.257.622.561,1.2,1.374,1.165a43.94,43.94,0,0,0,1.208,7.467c-2.644.752-5.04-.469-6.32-3.22A6.491,6.491,0,0,1,4488.822,2289.453Z" transform="translate(-4485.261 -2255.842)" fill="#fbbb84"/>
          <path id="Trazado_114524" data-name="Trazado 114524" d="M4663.271,2485.149l5.622-3.4c1.954.042,3.275,1.257,4.6,2.476q-2.01,3.168-4.016,6.337c-.289.458-.478.215-.75-.023-1.43-1.252-2.751-2.614-4.08-3.969-.324-.331-.454-.223-.594.115a11.471,11.471,0,0,0-.766-1.377Z" transform="translate(-4636.126 -2418.813)" fill="#80cdf2"/>
          <path id="Trazado_114525" data-name="Trazado 114525" d="M4600.913,2481.769l5.492,3.382c-1.812,1.838-3.63,3.671-5.434,5.518-.3.308-.461.177-.637-.1l-4.02-6.333C4597.633,2483.012,4598.96,2481.808,4600.913,2481.769Z" transform="translate(-4579.381 -2418.832)" fill="#80cdf2"/>
          <path id="Trazado_114526" data-name="Trazado 114526" d="M4807.387,2121.148a.724.724,0,0,1-.692.12c-.353-.154,0-.191.089-.269C4806.944,2121.22,4807.2,2121.059,4807.387,2121.148Z" transform="translate(-4757.551 -2113.075)" fill="#efc6aa"/>
          <path id="Trazado_114527" data-name="Trazado 114527" d="M4663.352,2505.079a1.331,1.331,0,0,1,.766,1.378c-.1,2.689-.416,5.36-.766,8.037Z" transform="translate(-4636.195 -2438.588)" fill="#65c7f1"/>
          <path id="Trazado_114528" data-name="Trazado 114528" d="M4650.315,2566.7c-.583-.027-.913-.289-.907-.839a.828.828,0,1,1,.907.839Z" transform="translate(-4624.377 -2489.402)" fill="#66c7f1"/>
          <path id="Trazado_114529" data-name="Trazado 114529" d="M4650.187,2519.889c.53.081.872.33.879.832a.827.827,0,1,1-1.653.014C4649.412,2520.218,4649.773,2520,4650.187,2519.889Z" transform="translate(-4624.381 -2451.138)" fill="#65c7f1"/>
          <path id="Trazado_114530" data-name="Trazado 114530" d="M4663.384,2572.171a.508.508,0,0,1,0-.521A.435.435,0,0,1,4663.384,2572.171Z" transform="translate(-4636.163 -2495.007)" fill="#8dd2f3"/>
          <path id="Trazado_114531" data-name="Trazado 114531" d="M4583.341,2303.408a2.352,2.352,0,1,1-4.69-.019,2.357,2.357,0,1,1,4.69.019Z" transform="translate(-4564.41 -2265.465)" fill="#3b2519"/>
          <path id="Trazado_114532" data-name="Trazado 114532" d="M4575.622,2258.307c-.012.678-.3.909-.851.647a6.3,6.3,0,0,0-5.279-.216c-.437.174-1.039.5-1.392-.035-.373-.567,0-1.158.4-1.576a4.7,4.7,0,0,1,4.4-1.22c1.615.24,2.427.947,2.674,2.167C4575.593,2258.173,4575.614,2258.271,4575.622,2258.307Z" transform="translate(-4555.338 -2227.333)" fill="#d86e27"/>
          <path id="Trazado_114533" data-name="Trazado 114533" d="M4715.821,2258.024c.006.7-.365.833-.857.714-.612-.149-1.207-.373-1.818-.529a5.86,5.86,0,0,0-3.907.489c-.252.112-.545.4-.829.133a1,1,0,0,1-.164-1,2.292,2.292,0,0,1,1.238-1.643,5.288,5.288,0,0,1,5.4.354A1.96,1.96,0,0,1,4715.821,2258.024Z" transform="translate(-4674.193 -2227.157)" fill="#d86e27"/>
          <path id="Trazado_114534" data-name="Trazado 114534" d="M4723.77,2303.365a2.462,2.462,0,0,1-2.329,2.586,2.425,2.425,0,0,1-2.335-2.487,2.345,2.345,0,1,1,4.664-.1Z" transform="translate(-4683.446 -2265.481)" fill="#3b2519"/>
          <path id="Trazado_114535" data-name="Trazado 114535" d="M4629.179,2464.619c1.5.271,2.839.253,4.15.422a32.452,32.452,0,0,0,4.218-.149,8.6,8.6,0,0,0,.976-.076c.431-.049,1.113-.412,1.235-.106a4.331,4.331,0,0,1,.066,1.866c-.025.323-.378.368-.663.375a19.8,19.8,0,0,1-8.7-1.592A2.543,2.543,0,0,1,4629.179,2464.619Z" transform="translate(-4607.233 -2404.271)" fill="#fbbb85"/>
          <path id="Trazado_114536" data-name="Trazado 114536" d="M4642.96,2372.367a6.253,6.253,0,0,1-2.762-.806,2.093,2.093,0,0,1-.818-1.318.676.676,0,0,1,.075-.5c.141-.162.325.018.472.091a7.906,7.906,0,0,0,2.331.862,6.005,6.005,0,0,0,3.626-.743c.22-.108.487-.448.719-.166.187.227.057.571-.061.865a2.4,2.4,0,0,1-1.265,1.242A12.254,12.254,0,0,1,4642.96,2372.367Z" transform="translate(-4615.866 -2323.832)" fill="#fbbb85"/>
          <path id="Trazado_114537" data-name="Trazado 114537" d="M4624.211,2405.82c.987.265,1.8.478,2.616.7a13.191,13.191,0,0,0,8.182-.435c.266-.1.683-.436.854-.044.123.28-.324.531-.591.7a5.309,5.309,0,0,1-1.99.71,15.444,15.444,0,0,1-7.415-.336A2.992,2.992,0,0,1,4624.211,2405.82Z" transform="translate(-4603.023 -2354.464)" fill="#f6945e"/>
          <path id="Trazado_114538" data-name="Trazado 114538" d="M4656.715,2426.351a4.769,4.769,0,0,1-.572-.177c-.258-.116-.7-.186-.559-.558.137-.353.407.042.622.075a2.047,2.047,0,0,0,1.385-.146c.111-.064.245-.111.321.035a.269.269,0,0,1-.089.336A2.7,2.7,0,0,1,4656.715,2426.351Z" transform="translate(-4629.588 -2371.118)" fill="#fbbc86"/>
          <path id="Trazado_114539" data-name="Trazado 114539" d="M4584.2,2306.439a.628.628,0,0,1-.686.632.62.62,0,0,1-.675-.663.682.682,0,1,1,1.361.031Z" transform="translate(-4567.957 -2269.62)" fill="#f8f7f6"/>
          <path id="Trazado_114540" data-name="Trazado 114540" d="M4724.569,2306.436a.653.653,0,0,1-.7.641.615.615,0,0,1-.673-.662.631.631,0,0,1,.718-.7A.671.671,0,0,1,4724.569,2306.436Z" transform="translate(-4686.916 -2269.626)" fill="#faf9f9"/>
        </g>
      </g>
    </g>
  </g>
</svg>
