<svg xmlns="http://www.w3.org/2000/svg" xmlns:xlink="http://www.w3.org/1999/xlink" width="89" height="87.859" viewBox="0 0 89 87.859">
  <defs>
    <clipPath id="clip-path">
      <ellipse id="Base" cx="44.5" cy="43.929" rx="44.5" ry="43.929" fill="#fff"/>
    </clipPath>
  </defs>
  <g id="Grupo_137403" data-name="Grupo 137403" transform="translate(-1009 -9392)">
    <ellipse id="Base-2" data-name="Base" cx="44.5" cy="43.929" rx="44.5" ry="43.929" transform="translate(1009 9392)" fill="#00cbae"/>
    <g id="Enmascarar_grupo_62" data-name="Enmascarar grupo 62" transform="translate(1009 9392)" clip-path="url(#clip-path)">
      <g id="g5y3Je" transform="translate(9.345 6.846)">
        <g id="Grupo_78667" data-name="Grupo 78667" transform="translate(0 0)">
          <path id="Trazado_114541" data-name="Trazado 114541" d="M4741.124,2094.461a24.972,24.972,0,0,0,3.552.588,39.083,39.083,0,0,1,14.344,5.759,1.781,1.781,0,0,0,1.179.332c4.051-.318,6.9,1.6,8.944,4.912a28.408,28.408,0,0,1,3.484,10.4,82.015,82.015,0,0,1,.983,15.368,23.072,23.072,0,0,1-2.7,10.74c-.449.334-.659.874-1.106,1.227-2.309,1.828-4.044,1.951-6.794.432-1.927-1.688-2.275-3.928-2.14-6.3a23.826,23.826,0,0,1,.865-5.327.794.794,0,0,0-.154-.889c-1.42-1.269-1.379-3.023-1.561-4.7a18.2,18.2,0,0,1,.166-2.7c.019-.408-.064-.672-.549-.659a5.651,5.651,0,0,1-3.881-1.775,15.559,15.559,0,0,1-3.174-4.054c-.46-.8-.5-.8-1.124-.2a12.086,12.086,0,0,1-7.525,3.593,8.494,8.494,0,0,1-4.1-.772c-.623-.266-.947-.25-1.355.358-1.769,2.628-4.5,3.524-8.007,2.75-.552-.122-1.13-.637-1.65-.291-.45.3-.416,1-.64,1.508a9.154,9.154,0,0,1-2.848,4.134,3.734,3.734,0,0,1-1.333.692.715.715,0,0,0-.629.917,9.033,9.033,0,0,1-1.28,6.249c-.266.423-.091.749.137,1.094a12.057,12.057,0,0,1,1.766,3.89,3.833,3.833,0,0,1-1.078,3.934,6.341,6.341,0,0,1-4.832,1.318,4.156,4.156,0,0,1-3.244-2.382,19.22,19.22,0,0,1-2.032-7.607,88.61,88.61,0,0,1,.013-15.647,43.848,43.848,0,0,1,3.308-13.76,20.3,20.3,0,0,1,16.042-12.521,22.637,22.637,0,0,0,3.384-.617h.8a.207.207,0,0,0,.318,0h1.433a2.078,2.078,0,0,0,1.273,0h.318a1.633,1.633,0,0,0,1.114,0Z" transform="translate(-4707.764 -2094.461)" fill="#d86e27"/>
          <path id="Trazado_114542" data-name="Trazado 114542" d="M4874.376,2094.461a1.19,1.19,0,0,1-1.273,0Z" transform="translate(-4842.769 -2094.461)" fill="#de854a"/>
          <path id="Trazado_114543" data-name="Trazado 114543" d="M4884.194,2094.461a.915.915,0,0,1-1.114,0Z" transform="translate(-4851.153 -2094.461)" fill="#e6a579"/>
          <path id="Trazado_114544" data-name="Trazado 114544" d="M4862.447,2094.461c-.107.177-.212.2-.318,0Z" transform="translate(-4833.546 -2094.461)" fill="#edbc9c"/>
          <path id="Trazado_114545" data-name="Trazado 114545" d="M4793.012,2534.8a8.67,8.67,0,0,1,.63,2.123c.032.4-.095.607-.524.564-.158-.016-.318,0-.477,0h-48.786c-1,0-1.019,0-.819-1.014.1-.516.295-1.013.447-1.519a1.692,1.692,0,0,1,.43-1,21.644,21.644,0,0,1,7.586-6.736,37.412,37.412,0,0,1,5.1-2.383,1.724,1.724,0,0,1,.919-.2c.375.107.517.439.686.734.763,1.336,1.5,2.683,2.242,4.032.525.96.522.953,1.474.487.762-.375,1.477-.834,2.236-1.216.566-.285.883-.128,1.27.342,1.339,1.625,1.668,3.64,2.248,5.559.213.706.419,1.414.618,2.19.464-1.7.875-3.34,1.333-4.964a11.309,11.309,0,0,1,1.826-3.057c.247-.369.59-.265.923-.109.865.405,1.676.914,2.521,1.357.535.281.823.254,1.125-.312.7-1.309,1.445-2.593,2.155-3.9a3.149,3.149,0,0,1,.775-1.094,1,1,0,0,1,.839.084,29.984,29.984,0,0,1,10.713,6.454,12.983,12.983,0,0,1,2.025,2.43A2.214,2.214,0,0,1,4793.012,2534.8Z" transform="translate(-4733.373 -2455.975)" fill="#f5a1b0"/>
          <path id="Trazado_114546" data-name="Trazado 114546" d="M4707.134,2427.374a29.94,29.94,0,0,0-11.277,6.625,17.759,17.759,0,0,0-2.74,3.578,19.782,19.782,0,0,1-7.839-3.872,6.142,6.142,0,0,1-1.314-8.045c.306,0,.335.293.475.46a2.7,2.7,0,0,0,3.557.751,6.793,6.793,0,0,0,3.062-3.632,13.391,13.391,0,0,0,.894-6.31,33.927,33.927,0,0,0-1.871-8.18,6.707,6.707,0,0,0,2.269,1.9,5.936,5.936,0,0,0,5.083-.576c.208-.11.4-.244.606-.368.313.076.361.362.467.6a21.87,21.87,0,0,0,3.672,5.82,17.612,17.612,0,0,0,7.02,4.643,17.279,17.279,0,0,0,2.125.649,1.3,1.3,0,0,1,.836.412,6.65,6.65,0,0,1,.1,2.111.657.657,0,0,1-.5.642,12.638,12.638,0,0,0-4.269,2.625A1.32,1.32,0,0,1,4707.134,2427.374Z" transform="translate(-4683.007 -2358.597)" fill="#d55128"/>
          <path id="Trazado_114547" data-name="Trazado 114547" d="M4956.58,2426.447c-2.623-4.47-6.789-7.016-11.34-9.074-.865-.392-1.777-.68-2.669-1.016a15.037,15.037,0,0,0-4.537-2.785.617.617,0,0,1-.435-.6,6.834,6.834,0,0,1,.088-2.113,1.409,1.409,0,0,1,.9-.444,19.442,19.442,0,0,0,6.321-2.873,18.858,18.858,0,0,0,6.4-8.208,5.522,5.522,0,0,1,.987-2.038c.763.2,1.409.68,2.217.821a5.172,5.172,0,0,0,4.946-1.984c.168-.184.235-.551.623-.411-.654,1.842-1.388,3.658-1.871,5.557-.755,2.963-1.387,5.942-.691,9.017a9.5,9.5,0,0,0,2.128,4.378c1.883,2.091,3.686,2.088,5.512.011,1.157,1.252,1.379,4.27.362,6.045a11.242,11.242,0,0,1-5.3,4.376A22.228,22.228,0,0,1,4956.58,2426.447Z" transform="translate(-4896.94 -2347.62)" fill="#d55128"/>
          <path id="Trazado_114548" data-name="Trazado 114548" d="M4811.367,2262.028a21.656,21.656,0,0,1-4.758,8.257,18.341,18.341,0,0,1-9.079,5.1c-.23.057-.46.122-.69.183a2.116,2.116,0,0,1-.223.175,13.531,13.531,0,0,1-3.67.517,32.728,32.728,0,0,1-7.18-.342,1.1,1.1,0,0,1-.5-.173l-.19-.177a20.382,20.382,0,0,1-7.381-3.2,19.832,19.832,0,0,1-6.658-8.918c1.454-1.485,1.327-3.181.651-4.943a12.8,12.8,0,0,0-1.624-3,.629.629,0,0,1-.018-.895,8.382,8.382,0,0,0,1.413-5.8,5.248,5.248,0,0,0-.077-.63c-.1-.533.047-.752.645-.883a4.776,4.776,0,0,0,2.89-2.217,11.745,11.745,0,0,0,1.689-3.662c.185-.725.462-.761,1.1-.535a8.875,8.875,0,0,0,4.683.467,6.2,6.2,0,0,0,4.384-3.113c.209-.356.341-.594.837-.356,3.845,1.851,7.357,1,10.646-1.4a11.447,11.447,0,0,0,1.6-1.425c.432-.461.637-.467.942.124a15.485,15.485,0,0,0,3.114,4.194,5.637,5.637,0,0,0,4.355,1.951c.415-.031.455.119.409.506a15.6,15.6,0,0,0,.118,5.527,3.228,3.228,0,0,0,1.284,2.118.485.485,0,0,1,.223.655,24.462,24.462,0,0,0-.982,5.7C4809.182,2258.168,4809.571,2260.335,4811.367,2262.028Z" transform="translate(-4756.008 -2212.354)" fill="#fccb9a"/>
          <path id="Trazado_114549" data-name="Trazado 114549" d="M4839.144,2490.584a.862.862,0,0,1,.138-.009,2.422,2.422,0,0,1,.207,1.618,1.758,1.758,0,0,0,.642,1.543,10.281,10.281,0,0,1,3.7,6.368c.271,1.343.726,2.653,1.177,4.147.324-.894.509-1.664.729-2.421.427-1.475.856-2.95,1.262-4.431a3.879,3.879,0,0,1,1.079-1.817c.668-.643,1.318-1.3,1.966-1.967.236-.242.521-.469.477-.87.1-.723-.213-1.494.26-2.169a.673.673,0,0,1,.133.007,6.271,6.271,0,0,0,.072,2.269c.27.638,1.257.6,1.883.97a20.76,20.76,0,0,1,2.4,1.663c.2.158.446.3.443.617-1.027,1.847-2.063,3.69-3.074,5.547-.2.363-.339.326-.661.14-.937-.542-1.926-1-2.86-1.549-.473-.277-.684-.16-1.012.239-1.432,1.738-1.913,3.845-2.432,5.947a11.617,11.617,0,0,1-.733,2.177c-.551-1.908-1.116-3.812-1.647-5.724a10.93,10.93,0,0,0-1.6-2.717c-.2-.325-.429-.065-.613.029-.988.506-1.976,1.016-2.946,1.557-.374.209-.556.2-.781-.222-.891-1.651-1.831-3.275-2.751-4.91-.1-.184-.178-.389-.4-.474a9.976,9.976,0,0,1,4.285-2.869c.518-.18.725-.4.675-.943C4839.109,2491.751,4839.146,2491.166,4839.144,2490.584Z" transform="translate(-4810.074 -2427.365)" fill="#f28190"/>
          <path id="Trazado_114550" data-name="Trazado 114550" d="M4877.059,2492.972c-.026.428-.395.612-.645.866-2.806,2.847-2.8,2.846-3.8,6.71-.322,1.251-.692,2.491-1.054,3.733-.039.133-.015.333-.329.4-.332-1.117-.671-2.238-1-3.363-.365-1.268-.751-2.531-1.064-3.812a4.759,4.759,0,0,0-1.19-1.922,2.8,2.8,0,0,0-.449-.45,4.358,4.358,0,0,1-1.938-4.562l.328.153a26.867,26.867,0,0,0,6.293,1.871,14.55,14.55,0,0,0,4.1.184A.765.765,0,0,1,4877.059,2492.972Z" transform="translate(-4836.388 -2427.366)" fill="#fccb9a"/>
          <path id="Trazado_114551" data-name="Trazado 114551" d="M4975.371,2384.428a3.175,3.175,0,0,1-3.307-3.21,3.221,3.221,0,0,1,3.274-3.3,3.181,3.181,0,0,1,3.332,3.308A3.125,3.125,0,0,1,4975.371,2384.428Z" transform="translate(-4925.936 -2332.684)" fill="#f8a98c"/>
          <path id="Trazado_114552" data-name="Trazado 114552" d="M4796.411,2384.333a3.178,3.178,0,0,1-3.238-3.247,3.279,3.279,0,1,1,6.558.083A3.176,3.176,0,0,1,4796.411,2384.333Z" transform="translate(-4775.592 -2332.589)" fill="#f8a98c"/>
          <path id="Trazado_114553" data-name="Trazado 114553" d="M4959.679,2333.795a2.669,2.669,0,0,1-.075-5.314,2.666,2.666,0,0,1,.075,5.314Z" transform="translate(-4913.46 -2291.136)" fill="#3b2519"/>
          <path id="Trazado_114554" data-name="Trazado 114554" d="M4822.989,2331.193a2.427,2.427,0,1,1-4.828-.077,2.423,2.423,0,1,1,4.828.077Z" transform="translate(-4796.593 -2291.176)" fill="#3b2519"/>
          <path id="Trazado_114555" data-name="Trazado 114555" d="M4879.236,2492.976a19.381,19.381,0,0,1-7.349-.666,11.786,11.786,0,0,1-3.785-1.577c1.746.149,3.491.378,5.24.412a25.442,25.442,0,0,0,2.744-.109c1.065-.1,2.121-.3,3.181-.455Q4879.253,2491.778,4879.236,2492.976Z" transform="translate(-4838.566 -2427.37)" fill="#fbbb85"/>
          <path id="Trazado_114556" data-name="Trazado 114556" d="M4811.7,2293.9a5.654,5.654,0,0,1,2.319.358,2.123,2.123,0,0,1,1.381,1.328c.211.658-.113,1.018-.756.787a8.885,8.885,0,0,0-5.757-.124c-.412.125-1.067.327-1.293-.2-.234-.548.262-.973.7-1.286A5.393,5.393,0,0,1,4811.7,2293.9Z" transform="translate(-4787.663 -2262.069)" fill="#d86e27"/>
          <path id="Trazado_114557" data-name="Trazado 114557" d="M4953.8,2296.187c-.964-.09-1.907-.492-2.924-.516a9.586,9.586,0,0,0-3.189.525c-.274.088-.577.264-.8-.023a.885.885,0,0,1-.006-.976,2.015,2.015,0,0,1,1.172-1.02,7.189,7.189,0,0,1,5.337.121,2.521,2.521,0,0,1,.985.782c.2.247.415.521.248.858S4954.122,2296.156,4953.8,2296.187Z" transform="translate(-4904.653 -2261.927)" fill="#d86e27"/>
          <path id="Trazado_114558" data-name="Trazado 114558" d="M4881.76,2399.524a3.971,3.971,0,0,1-3.312-1.168,1.43,1.43,0,0,1-.32-.443c-.1-.315-.366-.69-.091-.971s.593.06.844.2a5.655,5.655,0,0,0,5.817-.027c.236-.13.521-.437.78-.189s.072.6-.067.883a3.332,3.332,0,0,1-2.856,1.71A5.6,5.6,0,0,1,4881.76,2399.524Z" transform="translate(-4846.813 -2348.58)" fill="#fbbb85"/>
          <path id="Trazado_114559" data-name="Trazado 114559" d="M4876.551,2432.735a2.706,2.706,0,0,1-1.824,1.328,16.759,16.759,0,0,1-6.433.41,6.536,6.536,0,0,1-2.735-.712,2.448,2.448,0,0,1-.54-.326c-.2-.191-.616-.377-.475-.65.172-.331.528-.012.763.074a14.774,14.774,0,0,0,10.375,0A1.109,1.109,0,0,1,4876.551,2432.735Z" transform="translate(-4835.552 -2378.674)" fill="#f6945e"/>
          <path id="Trazado_114560" data-name="Trazado 114560" d="M4895.284,2452.856a7.29,7.29,0,0,1-.853-.319c-.185-.094-.374-.294-.246-.516s.327-.018.483.041a1.943,1.943,0,0,0,1.535-.031c.137-.061.306-.2.417-.017s-.029.359-.179.474A3.684,3.684,0,0,1,4895.284,2452.856Z" transform="translate(-4860.451 -2394.875)" fill="#fbbc86"/>
          <path id="Trazado_114561" data-name="Trazado 114561" d="M4962.107,2334.664a.709.709,0,1,1,.729-.658A.66.66,0,0,1,4962.107,2334.664Z" transform="translate(-4916.998 -2295.143)" fill="#f3f1f1"/>
          <path id="Trazado_114562" data-name="Trazado 114562" d="M4822.99,2334.678c-.456-.018-.737-.219-.767-.656a.709.709,0,1,1,1.416-.064A.675.675,0,0,1,4822.99,2334.678Z" transform="translate(-4800.006 -2295.156)" fill="#f9f9f8"/>
        </g>
      </g>
    </g>
  </g>
</svg>
