<svg xmlns="http://www.w3.org/2000/svg" xmlns:xlink="http://www.w3.org/1999/xlink" width="89" height="87.859" viewBox="0 0 89 87.859">
  <defs>
    <clipPath id="clip-path">
      <ellipse id="Base" cx="44.5" cy="43.929" rx="44.5" ry="43.929" fill="#fff"/>
    </clipPath>
  </defs>
  <g id="Grupo_137404" data-name="Grupo 137404" transform="translate(-1262 -9392)">
    <ellipse id="Base-2" data-name="Base" cx="44.5" cy="43.929" rx="44.5" ry="43.929" transform="translate(1262 9392)" fill="#00cbae"/>
    <g id="Enmascarar_grupo_63" data-name="Enmascarar grupo 63" transform="translate(1262 9392)" clip-path="url(#clip-path)">
      <g id="wE1zNH" transform="translate(16.581 10.269)">
        <g id="Grupo_78668" data-name="Grupo 78668" transform="translate(0 0)">
          <path id="Trazado_114563" data-name="Trazado 114563" d="M5212.2,2603.823a8.527,8.527,0,0,1,4.515-1.8,4.16,4.16,0,0,0,.781,1.611,3.018,3.018,0,0,1,.662,1.343c.277,3.041.586,6.079.82,9.123.021.274.095.555-.1.8h-9.107c-.218-.314-.079-.64-.011-.949q1.044-4.653,2.067-9.31A2.154,2.154,0,0,1,5212.2,2603.823Z" transform="translate(-5199.416 -2537.196)" fill="#665853"/>
          <path id="Trazado_114564" data-name="Trazado 114564" d="M5375.444,2602.022a8.53,8.53,0,0,1,4.515,1.8,2.283,2.283,0,0,1,.408.964c.668,3,1.328,6.011,2,9.014.081.357.257.728.024,1.1h-9.107c-.2-.245-.125-.526-.1-.8.234-3.042.541-6.077.816-9.114a3.1,3.1,0,0,1,.682-1.38A4.079,4.079,0,0,0,5375.444,2602.022Z" transform="translate(-5338.042 -2537.196)" fill="#665853"/>
          <path id="Trazado_114565" data-name="Trazado 114565" d="M5155.331,2613.865q-1.217,5.538-2.435,11.076h-10.322a6.111,6.111,0,0,1,1.618-3.661,24.124,24.124,0,0,1,7.5-5.743A28.443,28.443,0,0,1,5155.331,2613.865Z" transform="translate(-5142.546 -2547.237)" fill="#f5a3b6"/>
          <path id="Trazado_114566" data-name="Trazado 114566" d="M5420.337,2624.94l-2.435-11.076a30.919,30.919,0,0,1,10.142,6.284,9.021,9.021,0,0,1,2.41,3.609,2.9,2.9,0,0,1,.2,1.182Z" transform="translate(-5375.985 -2547.237)" fill="#f5a3b6"/>
          <path id="Trazado_114567" data-name="Trazado 114567" d="M5300.063,2621.982h-7.589a1.164,1.164,0,0,1-.148-1.006c.128-1.021.211-2.055.433-3.057a2.119,2.119,0,0,0-.63-2.114,2.982,2.982,0,0,1-.433-.52c-.2-.375.037-.628.269-.863,1.241-1.26,2.5-2.5,3.747-3.757a.677.677,0,0,1,1.1-.009c1.268,1.27,2.544,2.53,3.8,3.811.216.22.408.466.231.808-1.454,1.855-1.24,1.109-.919,3.53.1.772.193,1.547.305,2.319A.981.981,0,0,1,5300.063,2621.982Z" transform="translate(-5268.917 -2544.28)" fill="#665853"/>
          <path id="Trazado_114568" data-name="Trazado 114568" d="M5343.854,2630a18.93,18.93,0,0,0-.511-4.007,2.287,2.287,0,0,1,.839-2.425c.148-.133.291-.273.436-.41.409-.2.613.138.813.36.389.434.611.328.9-.12.674-1.032,1.3-2.094,2.01-3.1.13-.187.173-.5.516-.458-.173,2.11-.337,4.22-.521,6.328-.112,1.28-.254,2.558-.383,3.836Z" transform="translate(-5312.708 -2552.294)" fill="#f5a3b6"/>
          <path id="Trazado_114569" data-name="Trazado 114569" d="M5268.569,2623.154c.4.415.795.832,1.2,1.244.34.35.164.756.118,1.14-.179,1.487-.514,2.954-.55,4.459h-4.1c-.359-3.383-.687-6.768-.905-10.164.344-.043.385.27.516.458.708,1.01,1.337,2.071,2.011,3.1.292.448.513.554.9.12C5267.957,2623.292,5268.16,2622.958,5268.569,2623.154Z" transform="translate(-5245.778 -2552.294)" fill="#f5a3b6"/>
          <path id="Trazado_114570" data-name="Trazado 114570" d="M5224.288,2331.909a23.72,23.72,0,0,1-3.837,8.315,17.277,17.277,0,0,1-9.563,6.363c-.436.12-.877.217-1.316.324a3.119,3.119,0,0,1-1.787.51,31.6,31.6,0,0,1-8.172-.066,20.249,20.249,0,0,0,9.5,1.729.573.573,0,0,1,.43.1c.011.141.024.281.037.421-.243.528-.8.674-1.229.946-1.192.752-2.409,1.469-3.6,2.218a1.288,1.288,0,0,1-1.485.073q-2.246-1.395-4.517-2.752c-.191-.115-.4-.229-.442-.486.006-.5.018-1.01.018-1.514,0-1.179,0-1.183-1.161-1.473a17.041,17.041,0,0,1-8.565-4.99,21.021,21.021,0,0,1-4.683-8.628q-.157-.544-.312-1.087c-.109-.065-.231-.138-.263-.26a10.393,10.393,0,0,1-.593-3.46,12.793,12.793,0,0,0,.782-4.6c.336-3.874.386-7.776,1.2-11.6a15.309,15.309,0,0,1,.521-1.9,4.509,4.509,0,0,1,4.414-3.183,33.612,33.612,0,0,1,7.213.852,40.749,40.749,0,0,0,7.142.851,41.7,41.7,0,0,0,7.063-.864,34.606,34.606,0,0,1,7.063-.84,4.494,4.494,0,0,1,4.543,3.319,31.1,31.1,0,0,1,1.213,7.085c.251,2.843.371,5.7.643,8.537a5.985,5.985,0,0,0,.6,2.337A6.742,6.742,0,0,1,5224.288,2331.909Z" transform="translate(-5176.594 -2286.967)" fill="#fccb9a"/>
          <path id="Trazado_114571" data-name="Trazado 114571" d="M5205.762,2217.221a4.189,4.189,0,0,1-.742-2.707c-.377-3.645-.426-7.319-.92-10.954a21.369,21.369,0,0,0-.917-4.365,4.206,4.206,0,0,0-4.255-3.115,31.184,31.184,0,0,0-7.128.872,33.193,33.193,0,0,1-8.879.817c-2.369-.206-4.694-.706-7.03-1.125a23.831,23.831,0,0,0-5.566-.562,4.156,4.156,0,0,0-4.174,3.115,31.366,31.366,0,0,0-1.221,7.076c-.306,3.118-.309,6.262-.774,9.366-.083.554-.052,1.184-.59,1.583-.538.01-.627-.43-.757-.794a27.665,27.665,0,0,1-1.031-4.391c-.138-.766-.257-1.535-.381-2.3a1.172,1.172,0,0,1,.028-.879c-.272-2.333-.576-4.663-.809-7a79.209,79.209,0,0,1-.559-12.186c.033-.579.1-1.158.176-1.733a2.385,2.385,0,0,1,1.841-2.158,2.851,2.851,0,0,0,2.175-1.978,3.1,3.1,0,0,1,.8-1.273,1.758,1.758,0,0,1,2.259-.411,1.407,1.407,0,0,0,1.793-.273c.451-.443.909-.88,1.334-1.347a2.823,2.823,0,0,1,2.815-.9c.373.073.74.166,1.111.242a1.662,1.662,0,0,0,1.712-.53,10.736,10.736,0,0,1,1.061-1.083,2.233,2.233,0,0,1,3.3.216c.384.451.587.406.889-.042a8.3,8.3,0,0,1,1.3-1.578,2.812,2.812,0,0,1,4.082,0,10.418,10.418,0,0,1,1.394,1.7c.233.319.392.361.694.038a2.3,2.3,0,0,1,3.682-.074.357.357,0,0,1,.054.053,2.728,2.728,0,0,0,3.484,1.1,2.634,2.634,0,0,1,2.881.868c.44.487.913.947,1.391,1.4a1.358,1.358,0,0,0,1.666.254,1.85,1.85,0,0,1,2.679.865,4.919,4.919,0,0,0,3.237,3.07c.932.271,1.113,1.167,1.243,2.006a38.162,38.162,0,0,1,.088,7.874c-.225,4.193-.7,8.361-1.286,12.517a3.136,3.136,0,0,0-.007.378.577.577,0,0,1,.087.432,43.567,43.567,0,0,1-1.472,7.142C5206.395,2216.793,5206.3,2217.232,5205.762,2217.221Z" transform="translate(-5157.312 -2175.938)" fill="#4c2d19"/>
          <path id="Trazado_114572" data-name="Trazado 114572" d="M5259.6,2587.6c1.631,1,3.275,1.973,4.886,3a1.226,1.226,0,0,0,1.5,0c1.612-1.026,3.256-2,4.887-3a5.55,5.55,0,0,1,3.636,1.6c.254.2.518.4.776.594.237.232.2.435.012.7-.445.653-.847,1.337-1.265,2.01-.858,1.316-1.743,2.617-2.562,3.958-.276.453-.43.418-.754.085-.27-.277-.475-.664-.923-.722.031-.236-.131-.367-.274-.51q-1.934-1.927-3.865-3.855c-.22-.219-.4-.45-.736-.109-1.366,1.386-2.752,2.752-4.124,4.134-.076.077-.082.226-.121.341-.448.058-.653.445-.922.722-.325.333-.478.367-.756-.085-.819-1.34-1.7-2.641-2.561-3.958-.418-.672-.819-1.356-1.264-2.009-.185-.27-.226-.472.01-.7a22.92,22.92,0,0,1,2.063-1.512A4.26,4.26,0,0,1,5259.6,2587.6Z" transform="translate(-5237.884 -2524.964)" fill="#f1788e"/>
          <path id="Trazado_114573" data-name="Trazado 114573" d="M5146.5,2392.284c.357,1.9.7,3.807,1.082,5.7.14.687.383,1.352.587,2.025a.836.836,0,0,0,.471.641,26.262,26.262,0,0,0,.757,3.659c-2.784.757-5.181-.508-6.48-3.419a6.627,6.627,0,0,1,2.681-8.24A7.148,7.148,0,0,1,5146.5,2392.284Z" transform="translate(-5142.393 -2359.369)" fill="#fbbb84"/>
          <path id="Trazado_114574" data-name="Trazado 114574" d="M5456.624,2400.652c.544-.319.59-.914.741-1.425a53.274,53.274,0,0,0,1.236-6.208c.042-.247.108-.49.163-.735a6.3,6.3,0,0,1,4.022,6.93,6.459,6.459,0,0,1-2.245,4.154,4.866,4.866,0,0,1-4.674.942A26.259,26.259,0,0,0,5456.624,2400.652Z" transform="translate(-5408.175 -2359.369)" fill="#fbbb84"/>
          <path id="Trazado_114575" data-name="Trazado 114575" d="M5299.576,2572.21a8.344,8.344,0,0,1-3.081.119,21.288,21.288,0,0,1-4.721-.882,15.98,15.98,0,0,1-2.856-1.271,34.386,34.386,0,0,0,10.685-.239Q5299.588,2571.074,5299.576,2572.21Z" transform="translate(-5266.624 -2509.994)" fill="#fbbb85"/>
          <path id="Trazado_114576" data-name="Trazado 114576" d="M5241.541,2407.692a2.363,2.363,0,1,1-4.7-.021,2.358,2.358,0,1,1,4.7.021Z" transform="translate(-5222.47 -2370.265)" fill="#3b2519"/>
          <path id="Trazado_114577" data-name="Trazado 114577" d="M5379.191,2406.184c-.152-.146-.071-.263.047-.375a2.22,2.22,0,0,1,1.326-.656,2.387,2.387,0,0,1,2.607,2.408,2.366,2.366,0,1,1-4.666-.042c.061-.5-.021-1.151.692-1.352.16.145.145.36.22.541.083.2.216.344.45.292a.428.428,0,0,0,.376-.474c-.017-.23-.179-.337-.392-.381S5379.414,2406.216,5379.191,2406.184Z" transform="translate(-5342.568 -2370.268)" fill="#3b2519"/>
          <path id="Trazado_114578" data-name="Trazado 114578" d="M5230,2361.966a8.886,8.886,0,0,0-2.727.584c-.385.116-.836.306-1.124-.083a1.071,1.071,0,0,1,.112-1.212,3.3,3.3,0,0,1,2.1-1.5,5.861,5.861,0,0,1,3.577.067,2.463,2.463,0,0,1,1.741,2.4c-.043.522-.217.751-.772.483A6.893,6.893,0,0,0,5230,2361.966Z" transform="translate(-5213.283 -2331.584)" fill="#4c2d19"/>
          <path id="Trazado_114579" data-name="Trazado 114579" d="M5371.385,2359.437a5.742,5.742,0,0,1,2.919.767,2.954,2.954,0,0,1,.9.909c.244.4.453.868.164,1.277-.3.431-.8.229-1.188.073a6.548,6.548,0,0,0-5.637.2c-.468.237-.656.037-.7-.414a2.2,2.2,0,0,1,.928-2.041A4.482,4.482,0,0,1,5371.385,2359.437Z" transform="translate(-5333.526 -2331.519)" fill="#4c2d19"/>
          <path id="Trazado_114580" data-name="Trazado 114580" d="M5301.079,2477.316a4.369,4.369,0,0,1-3.144-1.163,1.317,1.317,0,0,1-.153-.166c-.229-.383-.613-.859-.324-1.218.273-.342.731.071,1.065.247a5.332,5.332,0,0,0,5.252-.024c.318-.168.766-.534,1.007-.243.31.373-.035.864-.3,1.211C5303.636,2477.081,5302.38,2477.227,5301.079,2477.316Z" transform="translate(-5273.778 -2429.193)" fill="#fbbb85"/>
          <path id="Trazado_114581" data-name="Trazado 114581" d="M5295.411,2511.151a2.554,2.554,0,0,1-1.69,1.309,9.6,9.6,0,0,1-2.659.5,17.312,17.312,0,0,1-5.31-.335,3.715,3.715,0,0,1-1.975-1.051c-.083-.091-.214-.189-.148-.322.092-.184.256-.094.392-.046a18.19,18.19,0,0,0,2.9.823,14.212,14.212,0,0,0,7.13-.527A3.977,3.977,0,0,1,5295.411,2511.151Z" transform="translate(-5262.125 -2460.142)" fill="#f6945e"/>
          <path id="Trazado_114582" data-name="Trazado 114582" d="M5382.892,2410.3a.83.83,0,0,1,.664-.3.643.643,0,0,1,.646.62.662.662,0,0,1-.6.747.6.6,0,0,1-.735-.489,2.112,2.112,0,0,1,.031-.593Z" transform="translate(-5346.268 -2374.389)" fill="#f7f6f6"/>
          <path id="Trazado_114583" data-name="Trazado 114583" d="M5316.546,2529.591c-.264,1.075-.93.976-1.548.976-.526,0-.8-.265-.952-.923A2.054,2.054,0,0,0,5316.546,2529.591Z" transform="translate(-5287.931 -2475.785)" fill="#fbbc85"/>
          <path id="Trazado_114584" data-name="Trazado 114584" d="M5242.489,2410.765c-.094.419-.335.7-.775.657a.628.628,0,0,1-.607-.718.62.62,0,0,1,.746-.643C5242.275,2410.092,5242.445,2410.377,5242.489,2410.765Z" transform="translate(-5226.087 -2374.439)" fill="#f8f8f7"/>
        </g>
      </g>
    </g>
  </g>
</svg>
