<svg xmlns="http://www.w3.org/2000/svg" width="191.344" height="186.343" viewBox="0 0 191.344 186.343">
  <g id="Grupo_137406" data-name="Grupo 137406" transform="translate(-406.5 -10784.398)">
    <path id="Trazado_114225" data-name="Trazado 114225" d="M1471.5,508.463c20.372,43.789,55.227,36.913,104.969,13.771s77.405-43.659,57.033-87.448-81.063-94.267-130.805-71.126S1451.133,464.674,1471.5,508.463Z" transform="translate(-1043.259 10429.236)" fill="none" stroke="#ef3c79" stroke-miterlimit="10" stroke-width="2"/>
    <path id="Trazado_114226" data-name="Trazado 114226" d="M1475,473.13c0,48.3,34.5,56.764,89.365,56.764s88.6-6.934,88.6-55.23S1619.227,355,1564.365,355,1475,424.835,1475,473.13Z" transform="translate(-1068 10429.898)" fill="#e8e8e8" stroke="rgba(0,0,0,0)" stroke-width="1"/>
    <path id="Trazado_114228" data-name="Trazado 114228" d="M1459.307,451.4c0,4.66,3.329,5.477,8.623,5.477s8.549-.669,8.549-5.329S1473.223,440,1467.93,440,1459.307,446.739,1459.307,451.4Z" transform="translate(-879.479 10410.101)" fill="#0d4aad" stroke="rgba(0,0,0,0)" stroke-width="1"/>
    <g id="_79kDQO" data-name="79kDQO" transform="translate(-3767.959 7772.479)">
      <g id="Grupo_87372" data-name="Grupo 87372" transform="translate(4192.592 3043.206)">
        <path id="Trazado_121301" data-name="Trazado 121301" d="M4224.77,3214.245a6.036,6.036,0,0,1-1.778-3.345c-.212-2.634-.02-5.273-.1-7.909-.425-14.866-.452-29.739-.237-44.6.092-6.39.456-12.8.159-19.17-.3-6.343-.085-12.673-.219-19a5.243,5.243,0,0,1,5.454-4.855c1.736-.046,3.475.031,5.211.008a2.3,2.3,0,0,0,1.749-.4,5.957,5.957,0,0,1,3.828-2.173c4.008-.775,8.029-1.441,12.095-1.826a5.737,5.737,0,0,0,2.23-.209,5.3,5.3,0,0,1,1.194-.121,156.759,156.759,0,0,1,15.8-.393c3.579.224,7.16.44,10.729.823a11.873,11.873,0,0,0,2.146.309c1.592.215,2.207.955,2.332,2.7-.5,1.615-1.835,1.684-3.148,1.579-2.966-.237-5.919-.594-8.894-.763a138.943,138.943,0,0,0-15.988.011,121.534,121.534,0,0,0-15.544,1.884c-2.667.5-2.684.55-2.684,3.288q-.005,36.494,0,72.988c0,.225,0,.449,0,.674.048,1.922.2,2.064,2.058,1.716a131.787,131.787,0,0,1,25.976-2.226,134.25,134.25,0,0,1,21.947,2.071c2.548.455,2.563.433,2.563-2.124q0-37.337,0-74.673a19.967,19.967,0,0,1,.1-3.028,3.051,3.051,0,0,1,2.625-2.271c.655-.15,1.317-.264,1.966-.441a115.057,115.057,0,0,1,15.811-2.143c2.251.02,4.471-.593,6.734-.345a141.82,141.82,0,0,1,17.936.666c3.884.554,7.793.961,11.626,1.849.755.174,1.582.2,2.073.958,1.422,2.343,3.719,2.1,5.966,2.028.89-.028,1.781-.009,2.672,0,3.248.021,4.624,1.043,5.588,4.146a6.141,6.141,0,0,1,.094,1.837c.017,13.285-.017,26.569.021,39.853a5.8,5.8,0,0,1,.295,2.312c.034,5.313-.059,10.626.049,15.939.026,1.276.123,2.638-1.341,3.344a2.3,2.3,0,0,1-.99.118,2.387,2.387,0,0,1-2.055-2.493c-.073-.784-.049-1.572-.049-2.358q0-27.047,0-54.095c0-.45,0-.9,0-1.349-.013-3.139-.026-3.153-3.164-3.323-1.009.086-2.021.036-3.031.056a1.293,1.293,0,0,0-1.466,1.428c-.014.674-.023,1.347-.023,2.021q0,35.2,0,70.4a19.825,19.825,0,0,1-.088,2.86,4.113,4.113,0,0,1-1.859,3.236,6.053,6.053,0,0,1-4.264.326,127.31,127.31,0,0,0-48.676-.069,18.856,18.856,0,0,1-4.993.654c-4.527-.818-9.041-1.766-13.63-2.15a133.135,133.135,0,0,0-19.98-.634,157.573,157.573,0,0,0-19.533,2.336,5.07,5.07,0,0,1-3.439-.455,4.189,4.189,0,0,1-1.893-3.4,21.343,21.343,0,0,1-.071-2.692q0-34.783,0-69.565c0-.506,0-1.01,0-1.516-.012-2.775-.021-2.786-2.831-2.793-.562,0-1.123-.007-1.683-.043-.449.025-.9.071-1.346.071a1.578,1.578,0,0,0-1.788,1.745c-.017.674-.031,1.348-.031,2.022q0,42.144,0,84.287c0,3.469.082,3.555,3.613,3.555q63.3,0,126.6,0c3.5,0,3.572-.083,3.577-3.586.006-4.552-.028-9.1.019-13.655.015-1.45.229-2.841,1.873-3.425a2.083,2.083,0,0,1,2.418,1.758c.185,6.087.026,12.177.083,18.266a4.932,4.932,0,0,1-1.416,3.322,5.658,5.658,0,0,1-.721.655,5.581,5.581,0,0,1-3.3,1.105c-8.028,0-16.056.06-24.084-.027-6.614.09-13.227.063-19.84.027-6.743.015-13.487.063-20.229,0-6.965.01-13.932.072-20.9-.011-15.417.069-30.836.04-46.253.007C4227.027,3215.816,4225.576,3215.724,4224.77,3214.245Z" transform="translate(-4222.528 -3091.952)" fill="#0d4aad"/>
        <path id="Trazado_121302" data-name="Trazado 121302" d="M4361.405,3440.752a2.5,2.5,0,0,1,2.173-.02c.627,1.19,1.022,2.438,2.882,2.425,1.152-.009,1.505,1.805.5,2.635a1.885,1.885,0,0,0-.8,2.37,1.556,1.556,0,0,1-2.22,1.854,2.3,2.3,0,0,0-2.794-.034,1.518,1.518,0,0,1-2.3-1.591,2.345,2.345,0,0,0-.853-2.7c-.976-.843-.52-2.581.683-2.585C4360.45,3443.1,4360.839,3441.925,4361.405,3440.752Z" transform="translate(-4311.857 -3310.604)" fill="#fe9d33"/>
        <path id="Trazado_121303" data-name="Trazado 121303" d="M4608.3,3090.264c.594-1.027.1-1.736-.809-2.54a1.523,1.523,0,0,1,.943-2.7c1.092-.075,1.754-.311,2.028-1.461a1.444,1.444,0,0,1,1.553-1.048,1.462,1.462,0,0,1,1.521,1.094,1.59,1.59,0,0,0,1.9,1.377,1.487,1.487,0,0,1,1.493,1.133,1.443,1.443,0,0,1-.567,1.78,1.59,1.59,0,0,0-.69,2.244,1.454,1.454,0,0,1-.654,1.758,1.513,1.513,0,0,1-1.887,0c-.842-.728-1.466-.513-2.333,0C4609.511,3092.676,4608.26,3091.848,4608.3,3090.264Z" transform="translate(-4477.012 -3073.615)" fill="#4d4dfe"/>
        <path id="Trazado_121304" data-name="Trazado 121304" d="M4569.132,3061.905l-1.024.612a1.426,1.426,0,0,1-2.077-.345c-.936-1.045-1.654-.863-2.639.016-1.483,1.322-2.688.851-3.03-1.028.028-1.962,1.946-2.6,2.8-3.978,1.752-1.36,2.118-1.345,3.644.159.594.585,1.154,1.207,1.776,1.76A2.032,2.032,0,0,1,4569.132,3061.905Z" transform="translate(-4446.18 -3056.186)" fill="#fe4e4e"/>
        <path id="Trazado_121306" data-name="Trazado 121306" d="M4643.549,3180.66a1.223,1.223,0,0,1-.215.031c-.028-1.962-.083-3.926-.083-5.89q0-17.944.027-35.887c.487.592.259,1.293.26,1.941Q4643.561,3160.759,4643.549,3180.66Z" transform="translate(-4501.054 -3110.953)" fill="#fcd5d7"/>
        <path id="Trazado_121307" data-name="Trazado 121307" d="M4316.583,3120.85l7.033,1.347q.014,38.929.029,77.858c0,1.116,0,2.233,0,3.451a131.39,131.39,0,0,0-15.952-2.24,137.643,137.643,0,0,0-25.066.315,100.576,100.576,0,0,0-11.47,1.762c-.8.177-1.187.054-1.084-.838a5.858,5.858,0,0,0,0-.674q0-38.171-.033-76.343c0-1.284.418-1.714,1.6-1.942a132.637,132.637,0,0,1,41.241-1.433C4314.267,3122.28,4315.884,3122.829,4316.583,3120.85Z" transform="translate(-4253.985 -3098.994)" fill="#cedbef"/>
        <path id="Trazado_121308" data-name="Trazado 121308" d="M4438.521,3204.067v-1.737q0-38.085-.046-76.17c0-1.509.547-1.827,1.818-2.075a133.133,133.133,0,0,1,42.245-1.275c2.78.346,5.531.919,8.3,1.374.879.145,1.285.469,1.284,1.517q-.059,38.507-.009,77.013c0,1.157-.231,1.355-1.407,1.126a133.4,133.4,0,0,0-40.228-1.614C4446.513,3202.659,4442.592,3203.3,4438.521,3204.067Z" transform="translate(-4365.489 -3099.563)" fill="#cedbef"/>
        <path id="Trazado_121309" data-name="Trazado 121309" d="M4370.6,3200.509q0,3.963,0,7.927c-1.337.32-1.708,1.238-1.7,2.517.031,5.222.015,10.446.012,15.669,0,2.5-.224,2.734-2.656,2.734q-64.868,0-129.735,0c-2.332,0-2.59-.265-2.59-2.63q0-43.722,0-87.444c0-2.575.129-2.7,2.654-2.685.392,0,.782.046,1.173.072.7.95.469,2.054.47,3.1q.019,39.019.01,78.036c0,4.621,0,4.611,4.539,4.624,19.212.057,38.425-.093,57.637.062a7.691,7.691,0,0,1,.981,0,8.054,8.054,0,0,1,1.309,0c15.113-.12,30.226-.04,45.337-.058,4.494-.005,8.986.088,13.48,0,2.784-.054,3.074-.3,3.076-3.128q.018-32.192.006-64.385c0-5.225-.008-10.45.008-15.674a3.562,3.562,0,0,1,.534-2.575,2.353,2.353,0,0,1,.331-.062c3.341-.129,3.437-.038,3.437,3.248q0,28.914-.009,57.828C4368.908,3199,4368.981,3200.2,4370.6,3200.509Z" transform="translate(-4230.08 -3109.404)" fill="#ef3c79"/>
        <path id="Trazado_121310" data-name="Trazado 121310" d="M4499.364,3136.6q0,41.615,0,83.231c0,2.828-.263,3.1-3.053,3.1q-28.9,0-57.79,0c-.618,0-1.235-.03-1.852-.046.152-.888.94-.881,1.545-1.012a126.957,126.957,0,0,1,15.829-2.2c4.1-.359,8.187-.275,12.281-.288a120.351,120.351,0,0,1,22.087,2.133c.166.031.33.067.5.1,2.638.5,3.129.113,3.213-2.517a3.259,3.259,0,0,1,.5-2.246,4.764,4.764,0,0,0,1.662-4.177c-.025-24.764,0-49.528-.058-74.29,0-1.593.464-2.043,1.948-1.87C4497.226,3136.626,4498.3,3136.573,4499.364,3136.6Z" transform="translate(-4364.293 -3109.334)" fill="#cedbef"/>
        <path id="Trazado_121311" data-name="Trazado 121311" d="M4308.21,3222.836c-4.888.021-9.775.056-14.662.058q-22.755.011-45.511,0c-2.33,0-2.8-.439-2.8-2.712q0-41.8.007-83.6c5.038-.366,5.038-.366,5.038,4.52q0,35.774-.018,71.549a4.749,4.749,0,0,0,1.663,4.171c.681.822.45,1.815.508,2.749.122,1.914.718,2.5,2.534,2.124a115.554,115.554,0,0,1,18.184-2.227,127.377,127.377,0,0,1,19.494.348,119.667,119.667,0,0,1,13.638,2.017C4306.985,3221.988,4307.93,3221.824,4308.21,3222.836Z" transform="translate(-4237.563 -3109.314)" fill="#cde2df"/>
        <path id="Trazado_121312" data-name="Trazado 121312" d="M4489.376,3369.757c0,1.177.054,2.357-.014,3.53-.092,1.613-.982,2.254-2.552,1.956a152.177,152.177,0,0,0-17.045-2.19,136.6,136.6,0,0,0-15.6-.189,108.712,108.712,0,0,0-20.332,2.658c-.15.035-.273.18-.409.274l-1.037-.008c-.883-1.666-.268-3.509-.619-5.237,3.09-.525,6.174-1.093,9.273-1.568a129.525,129.525,0,0,1,44.874.917A6.056,6.056,0,0,0,4489.376,3369.757Z" transform="translate(-4361.049 -3262.251)" fill="#cde2df"/>
        <path id="Trazado_121313" data-name="Trazado 121313" d="M4321.347,3370.562c.882.49.6,1.336.621,2.077.023,1.053,0,2.107,0,3.16l-.694-.013a67.5,67.5,0,0,0-10.313-1.951,131.808,131.808,0,0,0-22.119-1.019,127.974,127.974,0,0,0-21.265,2.431c-1.584.318-2.475-.324-2.569-1.94-.068-1.176-.013-2.358-.014-3.539,1.611.749,3.2.187,4.778-.107a129.035,129.035,0,0,1,38.173-1.373A93.891,93.891,0,0,1,4321.347,3370.562Z" transform="translate(-4250.627 -3262.264)" fill="#cedbef"/>
        <path id="Trazado_121315" data-name="Trazado 121315" d="M4306.938,3113.109c.664-.534,1.429-.2,2.151-.254A4.557,4.557,0,0,1,4306.938,3113.109Z" transform="translate(-4278.409 -3093.665)" fill="#fef8f8"/>
        <path id="Trazado_121316" data-name="Trazado 121316" d="M4430.715,3079.57c-.306-.391-.816-.859-.616-1.292.789-1.718-.412-2.583-1.371-3.578-.02-1.341.6-2.165,1.972-2.2a1.281,1.281,0,0,0,1.448-1.05,1.659,1.659,0,0,1,1.707-1.357,1.73,1.73,0,0,1,1.637,1.449,1.16,1.16,0,0,0,1.343.951,2.1,2.1,0,0,1,2.021,1.261,1.174,1.174,0,0,1-.033.333c-.662,1.555-1.77,2.866-1.578,4.835.089.905-1.348,1.233-2.293.573-.774-.541-1.394-.762-2.185-.037A1.781,1.781,0,0,1,4430.715,3079.57Z" transform="translate(-4359.037 -3065.393)" fill="#fe9d33"/>
        <path id="Trazado_121317" data-name="Trazado 121317" d="M4323.768,3168.828c0,3.931.03,7.863-.021,11.794-.014,1.071.266,1.519,1.408,1.466,1.737-.081,3.482-.018,5.222-.021,1.075,0,1.933.33,1.98,1.558.052,1.312-.843,1.786-1.967,1.793q-8.339.042-16.681,0c-1.116,0-2.037-.443-2-1.758.035-1.341.991-1.6,2.111-1.6,1.8.009,3.6-.026,5.393.012.862.019,1.194-.292,1.192-1.173q-.032-12.131.007-24.262c.005-1.081-.529-1.142-1.357-1.135-3.54.026-7.078,0-10.615.019-1.242.007-2.379-.228-2.39-1.7-.012-1.51,1.153-1.69,2.383-1.683,3.482.02,6.964-.018,10.446.022.986.011,1.632-.112,1.531-1.332-.089-1.062.289-1.942,1.508-2.018,1.317-.081,1.829.834,1.8,1.944-.04,1.273.549,1.43,1.622,1.411,3.425-.058,6.852-.013,10.277-.026,1.2,0,2.4.106,2.4,1.653.006,1.5-1.112,1.737-2.354,1.73-3.425-.017-6.854.064-10.276-.04-1.389-.042-1.671.45-1.648,1.719C4323.813,3161.077,4323.768,3164.953,4323.768,3168.828Z" transform="translate(-4277.821 -3117.502)" fill="#ef3c79"/>
        <path id="Trazado_121318" data-name="Trazado 121318" d="M4378.939,3198.037c-4.138.479-6.7-2.665-6.335-5.542.043-.331-.007-.746.172-.977,2.654-3.428,2.55-7.783,3.94-11.633.208-.577.3-1.194.51-1.771.259-.728.713-1.326,1.571-1.285a1.69,1.69,0,0,1,1.683,1.371c.849,3.188,1.742,6.365,2.585,9.555a7.553,7.553,0,0,0,1.433,3.159c1.009,1.19.787,2.6.21,3.97a5.046,5.046,0,0,1-4.233,3.142A9.983,9.983,0,0,1,4378.939,3198.037Z" transform="translate(-4321.858 -3136.052)" fill="#fe9494"/>
        <path id="Trazado_121319" data-name="Trazado 121319" d="M4303.147,3198.061c-3.844,0-6.319-2.085-6.218-5.259a2.31,2.31,0,0,1,.271-1.287c2.284-2.839,2.246-6.474,3.382-9.7.353-1,.546-2.053.812-3.083.252-.974.649-1.869,1.817-1.892,1.2-.023,1.553.913,1.809,1.874q1.344,5.026,2.692,10.05a3.053,3.053,0,0,0,.523,1.389c1.629,1.527,1.573,3.283.7,5.065a4.991,4.991,0,0,1-4.943,2.844C4303.708,3198.056,4303.427,3198.06,4303.147,3198.061Z" transform="translate(-4271.781 -3136.06)" fill="#fe9493"/>
        <path id="Trazado_121320" data-name="Trazado 121320" d="M4325.972,3322.246c4.489,0,8.977.01,13.465-.007,1.176,0,2.245.183,2.247,1.62,0,1.357-.972,1.761-2.18,1.76q-13.635,0-27.271,0c-1.217,0-2.194-.429-2.167-1.772.027-1.388,1.076-1.62,2.272-1.613C4316.882,3322.262,4321.427,3322.246,4325.972,3322.246Z" transform="translate(-4280.479 -3232.315)" fill="#00cbae"/>
        <path id="Trazado_121321" data-name="Trazado 121321" d="M4325.8,3307.032c-4.488,0-8.976-.009-13.463.006-1.16,0-2.27-.152-2.294-1.579-.024-1.481,1.1-1.8,2.328-1.8q13.464-.008,26.927,0c1.21,0,2.371.252,2.372,1.749,0,1.564-1.212,1.63-2.407,1.627C4334.777,3307.026,4330.289,3307.032,4325.8,3307.032Z" transform="translate(-4280.465 -3220.017)" fill="#00cbae"/>
        <path id="Trazado_121322" data-name="Trazado 121322" d="M4380.17,3285.456c1.06,0,2.122-.045,3.179.011a1.668,1.668,0,1,1-.036,3.336c-2.064.034-4.129.038-6.193-.007a1.485,1.485,0,0,1-1.575-1.595,1.532,1.532,0,0,1,1.613-1.733C4378.159,3285.419,4379.166,3285.458,4380.17,3285.456Z" transform="translate(-4323.828 -3207.955)" fill="#00cbae"/>
        <path id="Trazado_121323" data-name="Trazado 121323" d="M4482.608,3322.281c5.165,0,10.329.011,15.493-.007,1.265,0,2.583.085,2.537,1.692-.044,1.543-1.371,1.688-2.618,1.688q-15.494,0-30.986.006c-1.271,0-2.339-.346-2.339-1.778,0-1.386,1.043-1.622,2.251-1.615C4472.167,3322.3,4477.387,3322.281,4482.608,3322.281Z" transform="translate(-4382.847 -3232.336)" fill="#00cbae"/>
        <path id="Trazado_121324" data-name="Trazado 121324" d="M4482.672,3215.459c5.164,0,10.329.015,15.494-.011,1.157-.006,2.318.084,2.351,1.5.034,1.514-1.133,1.89-2.447,1.89q-10.442,0-20.884,0c-3.313,0-6.625-.006-9.937,0a3.382,3.382,0,0,1-1.942-.418,1.538,1.538,0,0,1-.733-1.739,1.563,1.563,0,0,1,1.761-1.223c3.761.008,7.524,0,11.284,0Z" transform="translate(-4382.733 -3161.62)" fill="#00cbae"/>
        <path id="Trazado_121325" data-name="Trazado 121325" d="M4512.216,3174.137c-3.255,0-6.509-.011-9.765.006-1.153.006-2.021-.3-2.051-1.642s.874-1.724,1.992-1.727q9.934-.023,19.866-.008c1.178,0,2.065.54,2.022,1.741s-.958,1.645-2.131,1.637C4518.838,3174.123,4515.527,3174.137,4512.216,3174.137Z" transform="translate(-4406.484 -3132.039)" fill="#00cbae"/>
        <path id="Trazado_121326" data-name="Trazado 121326" d="M4476.432,3280.946c-3.2,0-6.4-.012-9.593.007-1.173.006-2.245-.171-2.2-1.637.041-1.373,1.1-1.724,2.248-1.73,4.32-.025,8.64-.011,12.959-.011,2.131,0,4.263-.025,6.395.011,1.215.021,2.332.373,2.284,1.86s-1.206,1.511-2.331,1.507C4482.939,3280.938,4479.685,3280.947,4476.432,3280.946Z" transform="translate(-4382.808 -3202.743)" fill="#00cbae"/>
        <path id="Trazado_121327" data-name="Trazado 121327" d="M4484.705,3300.311c5.338-.019,10.675-.028,16.012-.066,1-.007,1.678.424,1.8,1.385a1.592,1.592,0,0,1-1.53,1.851,9.291,9.291,0,0,1-1.5.137q-15.173.041-30.345.059c-.542,0-1.136.171-1.6-.3.664-.707,1.547-.531,2.359-.535,4.011-.025,8.023,0,12.034-.014C4484.513,3302.824,4484.513,3302.815,4484.705,3300.311Z" transform="translate(-4384.728 -3217.757)" fill="#00cbae"/>
        <path id="Trazado_121328" data-name="Trazado 121328" d="M4516.086,3192.827q7.668-.021,15.335-.041c1.23,0,2.161.495,2.134,1.825-.025,1.272-.968,1.634-2.119,1.615-5.334-.084-10.671.16-16-.131a1.548,1.548,0,0,1-1.026-1.876C4514.575,3193.281,4515.275,3192.99,4516.086,3192.827Z" transform="translate(-4415.731 -3146.618)" fill="#ef3c79"/>
        <path id="Trazado_121329" data-name="Trazado 121329" d="M4524.8,3152.1c-2.355,0-4.709-.008-7.063,0-1.23.006-2.179-.456-2.16-1.777.02-1.266.987-1.606,2.129-1.6q7.23.018,14.463,0c1.223,0,2.221.383,2.164,1.739-.051,1.193-.966,1.652-2.133,1.643C4529.737,3152.087,4527.271,3152.1,4524.8,3152.1Z" transform="translate(-4416.533 -3117.448)" fill="#00cbae"/>
        <path id="Trazado_121330" data-name="Trazado 121330" d="M4482.682,3299.837c1.2,2.248.721,3.049-1.845,3.054q-7.663.016-15.324.016a1.609,1.609,0,0,1-.944-2.079,1.649,1.649,0,0,1,1.665-1.2C4471.716,3299.677,4477.206,3299.262,4482.682,3299.837Z" transform="translate(-4382.704 -3217.283)" fill="#ef3c79"/>
        <path id="Trazado_121331" data-name="Trazado 121331" d="M4474.033,3258.93c-2.409,0-4.818-.01-7.227,0-1.143.007-2.105-.349-2.116-1.614-.01-1.319.938-1.768,2.167-1.765q7.226.015,14.453,0c1.168,0,2.1.451,2.128,1.637.029,1.3-.945,1.759-2.179,1.748C4478.851,3258.914,4476.442,3258.93,4474.033,3258.93Z" transform="translate(-4382.844 -3188.169)" fill="#00cbae"/>
        <path id="Trazado_121332" data-name="Trazado 121332" d="M4483.131,3192.784c-1.677,1.16-1.77,1.623-.653,3.27q-7.988.031-15.975.065c-1.018.006-1.8-.305-1.905-1.431-.112-1.21.711-1.743,1.722-1.887a19.954,19.954,0,0,1,2.854-.055Q4476.152,3192.759,4483.131,3192.784Z" transform="translate(-4382.776 -3146.575)" fill="#00cbae"/>
        <path id="Trazado_121333" data-name="Trazado 121333" d="M4541.7,3258.932c-1.347,0-2.695,0-4.042,0a1.688,1.688,0,1,1,.029-3.365c2.752,0,5.5-.016,8.255.007a1.648,1.648,0,0,1,1.816,1.608c.036,1.113-.731,1.718-1.847,1.742C4544.511,3258.955,4543.107,3258.932,4541.7,3258.932Z" transform="translate(-4429.958 -3188.176)" fill="#00cbae"/>
        <path id="Trazado_121334" data-name="Trazado 121334" d="M4470.545,3152.114c-1.287,0-2.573.009-3.859,0-1.166-.01-2.015-.532-2.008-1.753,0-1.16.844-1.614,1.94-1.614q4.027,0,8.056,0c1.045,0,1.723.431,1.8,1.545.082,1.221-.651,1.75-1.729,1.8-1.4.067-2.8.016-4.2.016Z" transform="translate(-4382.836 -3117.462)" fill="#00cbae"/>
        <path id="Trazado_121335" data-name="Trazado 121335" d="M4467.849,3174.08a14.69,14.69,0,0,1-1.672-.011,1.564,1.564,0,0,1-1.545-1.655,1.548,1.548,0,0,1,1.554-1.646,30.469,30.469,0,0,1,3.346-.024c1.1.038,1.834.608,1.788,1.762-.043,1.062-.765,1.554-1.8,1.587-.557.018-1.116,0-1.674,0Z" transform="translate(-4382.804 -3132.003)" fill="#00cbae"/>
        <path id="Trazado_121336" data-name="Trazado 121336" d="M4554.556,3280.9c-.558,0-1.117.017-1.674,0a1.459,1.459,0,0,1-1.585-1.562,1.562,1.562,0,0,1,1.464-1.738,18.156,18.156,0,0,1,3.511-.01,1.683,1.683,0,0,1,1.7,1.9c-.1,1.048-.849,1.5-1.9,1.431-.5-.031-1.006-.005-1.509-.005Z" transform="translate(-4440.178 -3202.7)" fill="#00cbae"/>
        <path id="Trazado_121337" data-name="Trazado 121337" d="M4385.867,3224.48c.505,0,1.014-.037,1.514.011.406.039,1.021-.258,1.158.33a1.04,1.04,0,0,1-.805,1.141,6.36,6.36,0,0,1-3.792.033,1.094,1.094,0,0,1-.872-1.114c.082-.629.712-.36,1.114-.391C4384.741,3224.448,4385.306,3224.48,4385.867,3224.48Z" transform="translate(-4328.805 -3167.58)" fill="#cedbef"/>
        <path id="Trazado_121338" data-name="Trazado 121338" d="M4389.041,3201.274l.916,3.589c.078.306.309.738-.148.83a3.911,3.911,0,0,1-1.638-.031c-.41-.1-.251-.53-.157-.85C4388.321,3203.763,4388.625,3202.711,4389.041,3201.274Z" transform="translate(-4332.009 -3152.237)" fill="#cedbef"/>
        <path id="Trazado_121339" data-name="Trazado 121339" d="M4310.139,3224.533c.611,0,1.221-.014,1.831.007.311.011.705-.092.848.323.125.365-.1.631-.342.868-.808.779-3.913.763-4.706-.03-.231-.232-.531-.476-.452-.835.1-.443.519-.318.823-.327C4308.807,3224.519,4309.474,3224.533,4310.139,3224.533Z" transform="translate(-4278.652 -3167.631)" fill="#cedbef"/>
        <path id="Trazado_121340" data-name="Trazado 121340" d="M4313.319,3201.984c.709,1.174.7,2.382,1.1,3.459.1.27.1.644-.215.7a4.545,4.545,0,0,1-1.64.018c-.457-.1-.212-.534-.133-.836C4312.708,3204.265,4312.993,3203.209,4313.319,3201.984Z" transform="translate(-4281.955 -3152.707)" fill="#cedbef"/>
      </g>
    </g>
    <path id="Trazado_114227" data-name="Trazado 114227" d="M1672.818,422.4c0,4.66,3.329,5.477,8.623,5.477s8.549-.669,8.549-5.329S1686.734,411,1681.44,411,1672.818,417.739,1672.818,422.4Z" transform="translate(-1256.77 10416.854)" fill="#00cbae" stroke="rgba(0,0,0,0)" stroke-width="1"/>
  </g>
</svg>
