<svg xmlns="http://www.w3.org/2000/svg" width="191.344" height="186.343" viewBox="0 0 191.344 186.343">
  <g id="Grupo_137407" data-name="Grupo 137407" transform="translate(-1018.5 -11071.398)">
    <path id="Trazado_114225" data-name="Trazado 114225" d="M1471.5,508.463c20.372,43.789,55.227,36.913,104.969,13.771s77.405-43.659,57.033-87.448-81.063-94.267-130.805-71.126S1451.133,464.674,1471.5,508.463Z" transform="translate(-431.259 10716.236)" fill="none" stroke="#ef3c79" stroke-miterlimit="10" stroke-width="2"/>
    <path id="Trazado_114226" data-name="Trazado 114226" d="M1475,473.13c0,48.3,34.5,56.764,89.365,56.764s88.6-6.934,88.6-55.23S1619.227,355,1564.365,355,1475,424.835,1475,473.13Z" transform="translate(-456 10716.898)" fill="#e8e8e8" stroke="rgba(0,0,0,0)" stroke-width="1"/>
    <path id="Trazado_114227" data-name="Trazado 114227" d="M1672.818,422.4c0,4.66,3.329,5.477,8.623,5.477s8.549-.669,8.549-5.329S1686.734,411,1681.44,411,1672.818,417.739,1672.818,422.4Z" transform="translate(-644.77 10703.854)" fill="#00cbae" stroke="rgba(0,0,0,0)" stroke-width="1"/>
    <path id="Trazado_114228" data-name="Trazado 114228" d="M1459.307,451.4c0,4.66,3.329,5.477,8.623,5.477s8.549-.669,8.549-5.329S1473.223,440,1467.93,440,1459.307,446.739,1459.307,451.4Z" transform="translate(-267.479 10697.101)" fill="#0d4aad" stroke="rgba(0,0,0,0)" stroke-width="1"/>
    <path id="Trazado_121341" data-name="Trazado 121341" d="M4912.031,3171.114c-1.592-1.507-1.959-3.391-1.958-5.519q.056-62.063.042-124.125c.992-3.2,2.607-4.417,5.973-4.432q7.043-.031,14.085,0c3.974.023,5.925,2.026,5.943,6.043.013,2.9,0,5.8.007,8.695,0,.549-.178,1.127.838,1.054,5.438-.393,10.889-.112,16.333-.165,4.81-.047,9.621-.026,14.432-.011,3.961.013,5.977,2.035,5.994,6.007.018,4.347.036,8.695-.013,13.041-.014,1.22.071,1.706,1.636,1.685,9.91-.129,19.828-.261,29.729.064a33.848,33.848,0,0,0,7.154-.038c1.6-.279,2.171-.385,2.124-2.212a19.836,19.836,0,0,1,33.633-14.8,19.8,19.8,0,0,1,4.676,21.59c-.163.429-.3.868-.449,1.3-1.139,4.055-4.184,6.5-7.412,8.8-6.8,3.813-13.656,4.019-20.586.373a6.14,6.14,0,0,1-.668-.446,22.957,22.957,0,0,1-7.5-8.012c-.645-1.477-1.134-3.071-3.349-2.672-.932.168-1.663.393-1.947,1.378a5.587,5.587,0,0,0-.123,1.732q-.005,42.148,0,84.3a4.156,4.156,0,0,0,.4,2.358,2.2,2.2,0,0,0,2.224,1.063q13.562.078,27.123,0c1.78-.012,2.118-.431,2.219-2.174.041-.695.019-1.391.019-2.086,0-16.111.044-32.224-.021-48.336-.026-6.369.165-12.728.467-19.085a1.959,1.959,0,0,1,1.651-2.042.984.984,0,0,1,.581.19l1.426,1.068c.142,2.76.593,5.488.573,8.272-.074,10.545.265,21.1-.112,31.633-.382,10.649-.212,21.291-.342,31.936a2.619,2.619,0,0,1-.087.512,8.217,8.217,0,0,1-1.508,2.733c-1.035,1.74-2.771,1.974-4.532,2.006-3.883.069-7.767.021-11.649.024-5.1,0-10.2-.006-15.3,0a9.306,9.306,0,0,1-4.072-.721,2.423,2.423,0,0,0-2.178-.025,9.609,9.609,0,0,1-4.241.747q-12.954-.015-25.908,0a10.79,10.79,0,0,1-3.77-.5,2.348,2.348,0,0,0-2.02.013,9.414,9.414,0,0,1-4.733.843c-5.332-.023-10.665.024-16-.025-2.2-.021-2.795-.479-3.32-2.278.635-1.858,1.175-2.274,3.336-2.3,4.8-.049,9.61-.012,14.415-.018.637,0,1.274.013,1.911-.009,2.032-.07,2.321-.324,2.345-2.335.042-3.531.018-7.063.01-10.594,0-1.446.038-2.892.013-4.339-.066-18.895-.026-37.789-.025-56.682,0-6.9-.092-13.792.057-20.686-.084-4.854-.005-9.71-.047-14.566-.019-2.337-.363-2.726-2.737-2.737q-13.529-.066-27.058,0c-1.093,0-2.238,0-2.879,1.171a5.019,5.019,0,0,0-.354,2.722c.12,25.19.062,50.38.092,75.569.012,9.612-.155,19.224-.094,28.836a7.33,7.33,0,0,0,.152,2.238,2.384,2.384,0,0,0,1.736,1.7,2.084,2.084,0,0,1,1.521,2.209c-.579,1.829-1.735,2.587-3.516,1.785a7.416,7.416,0,0,0-4.96-.243c-2.3.485-4.7.15-7.056.173-2.785.061-5.569.078-8.351.011C4914.508,3172.74,4912.994,3172.554,4912.031,3171.114Z" transform="translate(-3868.058 8053.197)" fill="#0d4aad"/>
    <path id="Trazado_121342" data-name="Trazado 121342" d="M5187.094,3042.641a1.989,1.989,0,0,0-.9-2.76,1.426,1.426,0,0,1-.324-1.764,1.564,1.564,0,0,1,1.632-1.069c.953.067,1.524-.2,1.744-1.194a1.567,1.567,0,0,1,1.629-1.295,1.6,1.6,0,0,1,1.677,1.252,1.41,1.41,0,0,0,1.711,1.237,1.589,1.589,0,0,1,1.715,1.19,1.61,1.61,0,0,1-.7,1.971,1.5,1.5,0,0,0-.626,2.068,1.591,1.591,0,0,1-.675,1.975,1.511,1.511,0,0,1-1.941-.057,1.647,1.647,0,0,0-2.292,0C5188.422,3045.066,5187.105,3044.292,5187.094,3042.641Z" transform="translate(-4047.549 8054.801)" fill="#00cbae"/>
    <path id="Trazado_121343" data-name="Trazado 121343" d="M5136.768,3072.243c-.042-.868.669-1.352,1.229-1.919,3.416-3.456,3.42-3.456,6.822.041a5.028,5.028,0,0,1,.988,1.194,1.643,1.643,0,0,1-.333,2.066,1.447,1.447,0,0,1-2.052.17c-1.408-1.623-2.593-1.858-4.02-.034a1.5,1.5,0,0,1-1.939.047A1.573,1.573,0,0,1,5136.768,3072.243Z" transform="translate(-4015.675 8033.195)" fill="#00cbae"/>
    <path id="Trazado_121344" data-name="Trazado 121344" d="M5038.44,3030.325a2.143,2.143,0,0,1,1.681.767c.843.87,1.734,1.694,2.558,2.582a1.725,1.725,0,1,1-2.422,2.454,4.731,4.731,0,0,1-.737-.729c-.625-.836-1.212-.944-1.886-.041a5.244,5.244,0,0,1-1,.949,1.562,1.562,0,0,1-2.069-.013,1.491,1.491,0,0,1-.488-2.011,16.849,16.849,0,0,1,3.724-3.8A1.319,1.319,0,0,1,5038.44,3030.325Z" transform="translate(-3948.664 8057.557)" fill="#0d2fad"/>
    <path id="Trazado_121345" data-name="Trazado 121345" d="M4958.238,3441.434c.434-.811.757-1.736,1.925-1.742s1.47.951,1.937,1.724c0,.946.714.708,1.246.748.865.065,1.619.32,1.889,1.239a1.739,1.739,0,0,1-.8,2.107,1.208,1.208,0,0,0-.581,1.714,1.707,1.707,0,0,1-.531,2.178,1.658,1.658,0,0,1-2.229-.137,1.206,1.206,0,0,0-1.808-.021,1.647,1.647,0,0,1-2.228.181,1.689,1.689,0,0,1-.6-2.155c.365-.853.039-1.389-.684-1.881a1.641,1.641,0,0,1-.691-1.978,1.905,1.905,0,0,1,1.719-1.246C4957.339,3442.063,4958.186,3442.513,4958.238,3441.434Z" transform="translate(-3897.3 7790.985)" fill="#ef3c79"/>
    <path id="Trazado_121346" data-name="Trazado 121346" d="M5031.706,3445.865a2.174,2.174,0,0,1,3.48.026l2.248,2.385a1.7,1.7,0,0,1,.114,2.6,1.577,1.577,0,0,1-2.561-.2c-1.155-1.527-2.066-1.282-3.168.055a1.588,1.588,0,0,1-2.57.1c-.845-.88-.583-1.773.2-2.586C5030.211,3447.462,5030.955,3446.66,5031.706,3445.865Z" transform="translate(-3945.322 7787.524)" fill="#00cbae"/>
    <path id="Trazado_121347" data-name="Trazado 121347" d="M5018.667,3112.139c.03.46.088.921.088,1.382q.007,37.388,0,74.777c0,.46-.06.921-.092,1.381a21.11,21.11,0,0,0-4.684,5.935,2.663,2.663,0,0,1-2.577,1.169q-9.647.081-19.293.005a3.492,3.492,0,0,1-3.269-2.179,7.686,7.686,0,0,0-3.085-3.647c-.6.479-.344,1.1-.348,1.634-.024,3.708,0,7.417-.025,11.125-.006.781.178,1.652-.607,2.238a25.12,25.12,0,0,1-.134-4.838q-.02-51.615,0-103.23a4.154,4.154,0,0,1,.168-2.048c.735.611.572,1.472.578,2.257.026,3.7,0,7.4.023,11.1,0,.534-.278,1.31.39,1.523.59.188.983-.49,1.379-.891a8.281,8.281,0,0,0,1.773-2.756,2.651,2.651,0,0,1,2.691-1.784c6.651-.022,13.3-.031,19.952.006a2.607,2.607,0,0,1,2.627,1.37C5015.17,3108.961,5017.007,3110.464,5018.667,3112.139Z" transform="translate(-3916.581 8014.893)" fill="#ef3c79"/>
    <path id="Trazado_121348" data-name="Trazado 121348" d="M4920.377,3160.994c-.021-.579-.059-1.157-.059-1.736q0-54.539,0-109.076c0-3.059.316-3.374,3.385-3.376,4.292,0,8.583-.016,12.874.007,2.124.012,2.68.583,2.68,2.676q.006,55.234,0,110.468c0,.347-.04.693-.061,1.04a3.492,3.492,0,0,1-2.157.456q-7.251.016-14.5,0A3.537,3.537,0,0,1,4920.377,3160.994Z" transform="translate(-3874.728 8046.829)" fill="#0d2fad"/>
    <path id="Trazado_121349" data-name="Trazado 121349" d="M5125.438,3222.269q0,31.84-.01,63.68c0,2.822-.252,3.072-3.086,3.072q-13.571,0-27.143,0c-2.206,0-2.83-.6-2.83-2.75q-.012-31.4,0-62.81c0-.4.058-.808.088-1.212.6-.628,1.387-.491,2.12-.492q14.376-.021,28.752,0C5124.062,3221.757,5124.853,3221.621,5125.438,3222.269Z" transform="translate(-3986.762 7932.908)" fill="#0d2fad"/>
    <path id="Trazado_121350" data-name="Trazado 121350" d="M5230.516,3206.689c.323,2.665-.147,5.314-.15,7.971q-.031,30.7-.012,61.405c0,2.945-.21,3.152-3.178,3.153q-13.482,0-26.963,0c-1.1,0-2.272.115-2.677-1.315a2.753,2.753,0,0,1-.14-1.364q-.006-31.677,0-63.354a4.519,4.519,0,0,1,.06-1.036c.788-.826,1.826-.612,2.781-.615,8.679-.021,17.358-.011,26.037-.013.579,0,1.158-.022,1.735-.012,1.149.021,1.705-.493,1.69-1.665a13.316,13.316,0,0,1,.087-2.252C5229.919,3207.2,5229.888,3206.677,5230.516,3206.689Z" transform="translate(-4055.145 7942.712)" fill="#0d2fad"/>
    <path id="Trazado_121351" data-name="Trazado 121351" d="M5235.17,3119.3a16.4,16.4,0,1,1,16.439-16.246A16.328,16.328,0,0,1,5235.17,3119.3Z" transform="translate(-4069.113 8020.977)" fill="#ef3c79"/>
    <path id="Trazado_121352" data-name="Trazado 121352" d="M4985.119,3381.133v-16.177a7.393,7.393,0,0,1,4.344,4.29c.7,1.742,1.815,2.266,3.617,2.24q9.045-.127,18.093,0c1.722.021,2.871-.42,3.476-2.156a7.6,7.6,0,0,1,4.359-4.474c.03,5.27.07,10.54.086,15.81.005,1.488-.862,1.98-2.255,1.974-5.853-.026-11.707.018-17.559-.03a2.26,2.26,0,0,0-2.59,1.756l-8.135,0a2.082,2.082,0,0,0-2.009-1.78A1.463,1.463,0,0,1,4985.119,3381.133Z" transform="translate(-3916.926 7839.72)" fill="#00cbae"/>
    <path id="Trazado_121353" data-name="Trazado 121353" d="M5019.054,3109.514a7.5,7.5,0,0,1-4.475-4.552,2.564,2.564,0,0,0-2.759-1.824q-9.82.07-19.641,0a2.167,2.167,0,0,0-2.441,1.658,7.756,7.756,0,0,1-3.031,3.915c-.349.246-.709.764-1.195.535-.512-.241-.271-.828-.273-1.259-.027-4.924-.033-9.848-.044-14.771.191-1.2,1.093-1.4,2.063-1.4q14.851-.018,29.7-.006c1.38,0,2.2.6,2.187,2.078Q5019.1,3101.7,5019.054,3109.514Z" transform="translate(-3916.969 8017.519)" fill="#00cbae"/>
    <path id="Trazado_121354" data-name="Trazado 121354" d="M5125.232,3176.3l-32.983-.021c-.407-4.334-.06-8.677-.134-13.015-.053-3.07.02-6.142.045-9.212.019-2.387.5-2.893,2.811-2.895q13.822-.008,27.643,0c2.334,0,2.583.272,2.61,2.613q.122,10.335.246,20.67A2.994,2.994,0,0,1,5125.232,3176.3Z" transform="translate(-3986.555 7978.874)" fill="#0d2fad"/>
    <path id="Trazado_121355" data-name="Trazado 121355" d="M4920.285,3374.174l18.816,0c.036,4.048.08,8.1.1,12.143a1.755,1.755,0,0,1-1.963,1.928q-7.552.033-15.1,0a1.758,1.758,0,0,1-1.961-1.934C4920.2,3382.267,4920.246,3378.221,4920.285,3374.174Z" transform="translate(-3874.635 7833.649)" fill="#ef3c79"/>
    <path id="Trazado_121356" data-name="Trazado 121356" d="M5230.474,3190.339l-.276.6a3.3,3.3,0,0,1-2.321.51q-14,.02-27.99,0a3.6,3.6,0,0,1-2.34-.462,56.329,56.329,0,0,1-.119-8.8,1.733,1.733,0,0,1,1.412-.544,58.258,58.258,0,0,1,7.625.115,3.006,3.006,0,0,1,1.462,1.166,17.881,17.881,0,0,0,22.028,3.708c.625-.347,1.189-1,2.046-.619q.04,1.366.08,2.731C5231.382,3189.114,5230.562,3189.356,5230.474,3190.339Z" transform="translate(-4055.102 7959.063)" fill="#00cbae"/>
    <path id="Trazado_121357" data-name="Trazado 121357" d="M5249.863,3186.146a22.311,22.311,0,0,1-8.524,3.179,17.857,17.857,0,0,1-13.181-3.467,9.31,9.31,0,0,1-3.414-3.607c1.371-.851,2.781-.336,4.183-.121,6.593,3.544,13.219,3.7,19.885.2.294-.154.594-.388.971-.222A5.952,5.952,0,0,1,5249.863,3186.146Z" transform="translate(-4072.965 7958.934)" fill="#00cbae"/>
    <path id="Trazado_121358" data-name="Trazado 121358" d="M5211.054,3161.94l-4.182.121-9.355-.049a58.808,58.808,0,0,1-.013-10,3.177,3.177,0,0,1,5.4.59c.2.478.375.963.563,1.445a45.35,45.35,0,0,0,2.233,5.631,2.533,2.533,0,0,0,2.61,1.6,5.779,5.779,0,0,1,2.37.435Z" transform="translate(-4055.092 7979.123)" fill="#0d2fad"/>
    <path id="Trazado_121359" data-name="Trazado 121359" d="M5197.224,3154.323q.006,5,.012,10a72.726,72.726,0,0,0-.016,8.857,4.97,4.97,0,0,1,0,4.893q-.01,32.864-.02,65.729c-.521-.671-.28-1.454-.281-2.182q-.021-29.708-.011-59.415,0-12.942.011-25.883C5196.924,3155.652,5196.691,3154.922,5197.224,3154.323Z" transform="translate(-4054.813 7976.812)" fill="#514ff8"/>
    <path id="Trazado_121360" data-name="Trazado 121360" d="M5222.2,3167.824c-1.5-.13-3.37.74-4.423-.454a11.152,11.152,0,0,1-2.79-7.215A24.752,24.752,0,0,0,5222.2,3167.824Z" transform="translate(-4066.609 7973.015)" fill="#514ff8"/>
    <path id="Trazado_121361" data-name="Trazado 121361" d="M5012.691,3335.6c-2.957,0-5.914-.021-8.871.01-1.258.013-2.3-.317-2.273-1.742.029-1.4,1.125-1.746,2.339-1.747q8.87,0,17.741,0c1.233,0,2.317.372,2.357,1.738.045,1.553-1.132,1.771-2.423,1.756C5018.6,3335.574,5015.647,3335.6,5012.691,3335.6Z" transform="translate(-3927.623 7861.038)" fill="#fee6da"/>
    <path id="Trazado_121362" data-name="Trazado 121362" d="M5012.843,3292.98c2.955,0,5.91.029,8.865-.014,1.286-.019,2.312.443,2.313,1.747s-1.047,1.762-2.316,1.757q-8.952-.03-17.9,0c-1.281,0-2.281-.529-2.23-1.843.046-1.2,1.018-1.668,2.234-1.654C5006.816,3293,5009.83,3292.98,5012.843,3292.98Z" transform="translate(-3927.638 7886.53)" fill="#00cbae"/>
    <path id="Trazado_121363" data-name="Trazado 121363" d="M5019.325,3350.573c1.905,0,3.81.008,5.715,0,1.16-.007,1.953.511,2,1.683.048,1.221-.838,1.751-1.926,1.763-3.868.042-7.736.05-11.6,0a1.676,1.676,0,0,1-1.814-1.878c.068-1.09.834-1.571,1.915-1.566C5015.514,3350.579,5017.42,3350.573,5019.325,3350.573Z" transform="translate(-3934.229 7849.021)" fill="#fee6da"/>
    <path id="Trazado_121364" data-name="Trazado 121364" d="M4945.951,3103.53q0,11.913,0,23.826a6.9,6.9,0,0,1-.109,1.724,1.683,1.683,0,0,1-3.26,0,6.065,6.065,0,0,1-.1-1.551q-.007-24,0-48a6.166,6.166,0,0,1,.02-1.042c.165-.948.7-1.691,1.694-1.635a1.755,1.755,0,0,1,1.747,1.635,13.07,13.07,0,0,1,.018,1.391Q4945.952,3091.7,4945.951,3103.53Z" transform="translate(-3889.146 8027.262)" fill="#b2b2fe"/>
    <path id="Trazado_121365" data-name="Trazado 121365" d="M4942.485,3259.427c0-2.259.014-4.517-.006-6.775-.011-1.2.463-2.181,1.7-2.161,1.143.019,1.808.83,1.8,2.116-.031,4.574,0,9.149-.02,13.723,0,1.128-.3,2.106-1.711,2.12s-1.741-.931-1.752-2.076C4942.469,3264.06,4942.486,3261.744,4942.485,3259.427Z" transform="translate(-3889.16 7914.188)" fill="#b2b2fe"/>
    <path id="Trazado_121366" data-name="Trazado 121366" d="M5122.091,3260.956c0,1.449.061,2.9-.018,4.346-.069,1.257.172,2.034,1.675,1.815a2.874,2.874,0,0,1,1.354.213,1.551,1.551,0,0,1,1.035,1.8,1.388,1.388,0,0,1-1.334,1.371c-2.953.048-5.907.05-8.859-.014-.771-.016-1.2-.63-1.279-1.416a1.521,1.521,0,0,1,.93-1.7,3.3,3.3,0,0,1,1.519-.256c1.285.13,1.55-.464,1.52-1.62-.071-2.664-.022-5.331-.022-8,0-2.757,0-2.752-2.923-2.613-.648.031-1.431-.031-1.292.923.236,1.632-.835,3.5,1.177,4.847,1,.669.327,2.42-1,2.627a17.32,17.32,0,0,1-3.975.041,1.593,1.593,0,0,1-1.481-1.481,1.469,1.469,0,0,1,.922-1.7,1.18,1.18,0,0,0,.85-1.456c-.159-1.62.5-3.317-1.191-4.726-1-.833.081-2.455,1.693-2.527,1.967-.088,3.94-.036,5.91-.025a1.791,1.791,0,0,0,1.753-.772,1.483,1.483,0,0,1,2.615-.071,2.049,2.049,0,0,0,2.074.838c1.854,0,3.708-.005,5.563.01a1.9,1.9,0,0,1,1.959,1.165,1.8,1.8,0,0,1-.608,2.012c-1,1.055-.771,4.683.294,5.627a1.727,1.727,0,0,1-.954,3.152,32.628,32.628,0,0,1-3.3.024,1.791,1.791,0,0,1-1.808-1.364,1.7,1.7,0,0,1,.993-2c.705-.426,1.176-4.576.5-4.9a6.169,6.169,0,0,0-3.743-.143c-.932.162-.5,1.159-.527,1.788C5122.05,3258.172,5122.091,3259.565,5122.091,3260.956Z" transform="translate(-3997.657 7914.625)" fill="#00cbae"/>
    <path id="Trazado_121367" data-name="Trazado 121367" d="M5124.272,3350.774c0,.521-.033,1.045,0,1.564.336,4.656-2.577,5.692-6.124,5.339a3.927,3.927,0,0,1-3.764-3.659,21.321,21.321,0,0,1,.036-6.915,3.82,3.82,0,0,1,3.866-3.3c.752-.03,1.508-.035,2.259.007a3.818,3.818,0,0,1,3.69,3.664c.06,1.1.011,2.2.011,3.3Z" transform="translate(-4000.932 7853.443)" fill="#d8d8fe"/>
    <path id="Trazado_121368" data-name="Trazado 121368" d="M5155.3,3350.785c0,1.559-.03,3.119.008,4.677.03,1.217-.39,2.144-1.69,2.116-1.243-.026-1.774-.959-1.787-2.138q-.034-3.292,0-6.583c.009-.833,0-1.555-.926-2.007a1.482,1.482,0,0,1-.793-1.9,1.771,1.771,0,0,1,1.854-1.239c2.946-.13,3.337.2,3.34,3.092Q5155.305,3348.794,5155.3,3350.785Z" transform="translate(-4024.303 7853.503)" fill="#d7d7fe"/>
    <path id="Trazado_121369" data-name="Trazado 121369" d="M5225.428,3261.1c0,1.566.044,3.134-.017,4.7-.038.949.227,1.392,1.252,1.316a4.59,4.59,0,0,1,1.707.22,1.517,1.517,0,0,1,1.071,1.771,1.418,1.418,0,0,1-1.329,1.4c-2.955.045-5.913.056-8.867,0a1.432,1.432,0,0,1-1.346-1.559,1.686,1.686,0,0,1,1.4-1.738c.829-.243,2.1.326,2.426-.4a8.482,8.482,0,0,0,.214-3.24c.019-2.435-.042-4.873.027-7.306.03-1.063-.3-1.41-1.374-1.383-3.534.092-2.789-.316-2.868,2.836-.027,1.07-.093,2.02,1.026,2.855s.392,2.58-1.148,2.783a18.068,18.068,0,0,1-3.643.011,1.613,1.613,0,0,1-1.552-1.416,1.546,1.546,0,0,1,.988-1.833c.829-.267.9-.778.843-1.45-.131-1.628.48-3.322-1.248-4.7-1.033-.824.02-2.448,1.639-2.521,1.853-.083,3.711-.032,5.566-.023a2.229,2.229,0,0,0,2.241-.882,1.45,1.45,0,0,1,2.506.027,2.117,2.117,0,0,0,2.079.858c1.8-.021,3.6,0,5.393-.006a2.01,2.01,0,0,1,2.05,1.015c.431.867.032,1.511-.549,2.175-.907,1.035-.667,4.757.337,5.65a1.811,1.811,0,0,1,.606,1.872,1.543,1.543,0,0,1-1.5,1.243,24.422,24.422,0,0,1-3.646-.018,1.586,1.586,0,0,1-1.505-1.251c-.16-.727-.081-1.6.645-1.806,1.3-.369,1.09-1.286,1.094-2.182.014-3.391.012-3.358-3.323-3.238-.88.032-1.248.255-1.215,1.187C5225.47,3257.737,5225.428,3259.42,5225.428,3261.1Z" transform="translate(-4064.916 7914.623)" fill="#00cbae"/>
    <path id="Trazado_121370" data-name="Trazado 121370" d="M5197.882,3213.275q0-2.447,0-4.893l32.687.01c.258,4.89.258,4.89-4.55,4.889Z" transform="translate(-4055.471 7941.609)" fill="#fed5ba"/>
    <path id="Trazado_121371" data-name="Trazado 121371" d="M5222.926,3350.778c0,.464-.039.932.009,1.391.437,4.257-2.283,5.923-6.2,5.5a4.254,4.254,0,0,1-3.859-4.034c-.083-1.968-.1-3.947.006-5.912a3.971,3.971,0,0,1,4.209-3.953c1.379-.028,2.793-.2,4.038.668a3.907,3.907,0,0,1,1.785,3.207C5222.952,3348.689,5222.924,3349.734,5222.926,3350.778Z" transform="translate(-4065.194 7853.468)" fill="#d8d8fe"/>
    <path id="Trazado_121372" data-name="Trazado 121372" d="M5255.235,3353.945c1.4.087,3.172.031,3.081,1.931-.1,2.169-2.042,1.544-3.39,1.6-1.444.061-2.893,0-4.34.011a1.662,1.662,0,0,1-1.808-1.051,1.793,1.793,0,0,1,.587-2.024c1.309-1.225,2.574-2.5,3.842-3.765a3.133,3.133,0,0,0,1.078-1.927c.053-.611-.01-1.2-.752-1.351a1.051,1.051,0,0,0-1.344.778c-.09.274-.164.555-.272.822a1.622,1.622,0,0,1-2.078,1.09c-.937-.244-1.179-.984-1.169-1.882a4.543,4.543,0,0,1,4.172-4.331,4.459,4.459,0,0,1,4.927,3.841,6.217,6.217,0,0,1-1.537,4.811C5255.888,3352.937,5255.328,3353.232,5255.235,3353.945Z" transform="translate(-4088.543 7853.407)" fill="#d8d8fe"/>
    <path id="Trazado_121373" data-name="Trazado 121373" d="M5245.181,3114.07l-2.886,2.461c-2.036-1.626-4.388-2.937-5.5-5.492,1.869-2.335,4.1-4.324,6.177-6.459a3.444,3.444,0,0,1,2.174-1.282.749.749,0,0,1,.922.231c1.317,1.555,3.41,2.452,3.962,4.654.058,1.529-1.484,1.993-2.062,3.1A6.108,6.108,0,0,1,5245.181,3114.07Z" transform="translate(-4080.815 8010.089)" fill="#00cbae"/>
    <path id="Trazado_121374" data-name="Trazado 121374" d="M5260.826,3129.116a13.886,13.886,0,0,1,2.792-2.79q4.547,4.516,9.095,9.031c.95.941,1.3,1.994.253,3.015-1.019,1-2.081.7-3.032-.244Q5265.386,3133.617,5260.826,3129.116Z" transform="translate(-4096.461 7995.042)" fill="#fec498"/>
    <path id="Trazado_121375" data-name="Trazado 121375" d="M5264.964,3102.555a39.206,39.206,0,0,0-4.885-4.885c-.519-1.1-.585-2.121.614-2.838,1.153-.69,1.8.184,2.493.863,1.269,1.251,2.518,2.521,3.784,3.775.757.75,1.557,1.5.757,2.661C5266.978,3103.216,5265.975,3103,5264.964,3102.555Z" transform="translate(-4095.744 8015.715)" fill="#fec498"/>
    <path id="Trazado_121376" data-name="Trazado 121376" d="M5232.106,3125.386l5.5,5.492c.239.969.259,1.91-.825,2.359a2.113,2.113,0,0,1-2.475-.738q-1.852-1.954-3.807-3.808a2.116,2.116,0,0,1-.745-2.473C5230.195,3125.136,5231.135,3125.144,5232.106,3125.386Z" transform="translate(-4076.121 7995.741)" fill="#fec498"/>
    <path id="Trazado_121377" data-name="Trazado 121377" d="M5092.957,3191.893c-.035-2.6-.051-5.2-.116-7.8-.022-.878.41-1.054,1.17-1.053q15.278.019,30.556,0c.763,0,1.188.167,1.165,1.051-.066,2.6-.078,5.2-.11,7.8a3.3,3.3,0,0,1-2.324.508q-14.007.02-28.012,0A3.407,3.407,0,0,1,5092.957,3191.893Z" transform="translate(-3987.071 7958.114)" fill="#00cbae"/>
    <path id="Trazado_121378" data-name="Trazado 121378" d="M5092.987,3208.274c6.429-.029,12.858-.076,19.287-.081,4.459,0,8.918.05,13.377.078.26,4.887.26,4.887-4.536,4.887-8.843,0-17.686-.023-26.528.026-1.25.007-1.825-.269-1.679-1.621C5093.024,3210.476,5092.967,3209.371,5092.987,3208.274Z" transform="translate(-3987.102 7941.733)" fill="#fed5ba"/>
    <path id="Trazado_121379" data-name="Trazado 121379" d="M5127.394,3357.083c0,.636-.034,1.275.008,1.909.071,1.065-.1,1.759-1.458,1.73-1.2-.025-1.7-.451-1.675-1.624.028-1.33.039-2.662,0-3.991-.039-1.208.623-1.394,1.646-1.423,1.129-.032,1.6.349,1.5,1.492C5127.343,3355.806,5127.394,3356.447,5127.394,3357.083Z" transform="translate(-4007.533 7846.994)" fill="#0d2fad"/>
    <path id="Trazado_121380" data-name="Trazado 121380" d="M5225.975,3357.091c0,.637-.036,1.276.009,1.91.077,1.085-.153,1.736-1.48,1.745s-1.727-.539-1.661-1.773c.071-1.328.042-2.663.014-3.993-.029-1.349.9-1.2,1.784-1.249.94-.048,1.421.261,1.343,1.277C5225.932,3355.7,5225.975,3356.4,5225.975,3357.091Z" transform="translate(-4071.723 7846.965)" fill="#0d2fad"/>
  </g>
</svg>
