<svg xmlns="http://www.w3.org/2000/svg" width="191.344" height="186.343" viewBox="0 0 191.344 186.343">
  <g id="Grupo_137408" data-name="Grupo 137408" transform="translate(-406.5 -11358.398)">
    <path id="Trazado_114225" data-name="Trazado 114225" d="M1471.5,508.463c20.372,43.789,55.227,36.913,104.969,13.771s77.405-43.659,57.033-87.448-81.063-94.267-130.805-71.126S1451.133,464.674,1471.5,508.463Z" transform="translate(-1043.259 11003.236)" fill="none" stroke="#ef3c79" stroke-miterlimit="10" stroke-width="2"/>
    <path id="Trazado_114226" data-name="Trazado 114226" d="M1475,473.13c0,48.3,34.5,56.764,89.365,56.764s88.6-6.934,88.6-55.23S1619.227,355,1564.365,355,1475,424.835,1475,473.13Z" transform="translate(-1068 11003.898)" fill="#e8e8e8" stroke="rgba(0,0,0,0)" stroke-width="1"/>
    <path id="Trazado_114227" data-name="Trazado 114227" d="M1672.818,422.4c0,4.66,3.329,5.477,8.623,5.477s8.549-.669,8.549-5.329S1686.734,411,1681.44,411,1672.818,417.739,1672.818,422.4Z" transform="translate(-1256.77 10990.854)" fill="#00cbae" stroke="rgba(0,0,0,0)" stroke-width="1"/>
    <path id="Trazado_114228" data-name="Trazado 114228" d="M1459.307,451.4c0,4.66,3.329,5.477,8.623,5.477s8.549-.669,8.549-5.329S1473.223,440,1467.93,440,1459.307,446.739,1459.307,451.4Z" transform="translate(-879.479 10984.101)" fill="#0d4aad" stroke="rgba(0,0,0,0)" stroke-width="1"/>
    <g id="Grupo_87375" data-name="Grupo 87375" transform="translate(435.218 11388.233)">
      <path id="Trazado_121381" data-name="Trazado 121381" d="M4187.667,3780.227a17.72,17.72,0,0,0,0,7.483Z" transform="translate(-4039.798 -3725.298)" fill="#fefefe"/>
      <path id="Trazado_121382" data-name="Trazado 121382" d="M4395.263,3732.37q0-3.733,0-7.466c-1.575-.4-1.627-1.592-1.626-2.923q.026-48.138.014-96.275c0-.6.014-1.193-.01-1.789a5.633,5.633,0,0,0-4.545-5.4,13.43,13.43,0,0,0-2.584-.2q-26.594-.017-53.188,0c-1.292,0-2.431-.086-2.583-1.726h-7.668c-.164,1.361-1.013,1.742-2.278,1.734-4.935-.031-9.871-.016-14.806-.008-.558,0-1.115.058-1.973.106,2.045,2.7,2.041,5.55,2.038,8.441q-.042,27.41-.015,54.821,0,30.827.008,61.653c0,3.372,2.029,5.733,5.1,6.073,3.861.428,6.381-1.167,7.264-4.6-3.052-.645-3.79-1.541-3.791-4.644q0-17.151,0-34.3c0-3.123,1.223-4.334,4.324-4.335q15.122-.006,30.243,0c3.339,0,4.421,1.068,4.424,4.345q.015,13.249.029,26.5c3.252.015,6.5.044,9.755.041Q4379.328,3732.4,4395.263,3732.37Zm-45.546-106.363q15.365,0,30.73,0c3.261,0,4.346,1.1,4.349,4.423q0,7.234,0,14.468c0,3.228-1.183,4.483-4.377,4.485q-30.73.025-61.461,0c-3.126,0-4.341-1.263-4.347-4.35q-.015-7.4,0-14.794c0-3.065,1.168-4.23,4.214-4.231Q4334.271,3626,4349.717,3626.007Zm-15.521,29.222c5.308,0,10.614-.021,15.922.009,2.307.013,3.5,1.234,3.525,3.517.024,2.6.014,5.2,0,7.8-.009,2.694-1.229,4-3.958,4.011q-15.6.048-31.192,0c-2.63-.008-3.911-1.418-3.926-4.1q-.021-3.573,0-7.147c.019-2.837,1.233-4.074,4.029-4.081C4323.8,3655.218,4329,3655.227,4334.2,3655.229Zm-.075,29.9q8.621,0,17.244,0c1.189,0,2.292.184,2.25,1.667-.04,1.4-1.076,1.709-2.289,1.708q-17.163-.01-34.326,0c-1.289,0-2.4-.38-2.353-1.83.043-1.414,1.21-1.556,2.392-1.551C4322.733,3685.143,4328.427,3685.132,4334.122,3685.132Zm.127-2.711c-5.748,0-11.494-.012-17.242.01-1.2,0-2.344-.194-2.361-1.591-.017-1.445,1.119-1.787,2.4-1.785q17.16.015,34.32,0c1.22,0,2.242.348,2.25,1.744.01,1.483-1.106,1.628-2.288,1.625C4345.635,3682.412,4339.942,3682.42,4334.249,3682.421Zm-.171,11.993c-5.8,0-11.6-.011-17.394.009-1.16,0-1.985-.483-2.023-1.623s.73-1.732,1.907-1.732q17.556.005,35.114,0c1.136,0,1.939.511,1.933,1.7-.006,1.216-.857,1.648-1.98,1.64-.379,0-.759,0-1.138,0Zm39.068-23.839c-2.983,0-5.964-.006-8.947,0-1.216,0-2.285-.364-2.318-1.711s1-1.79,2.231-1.79c5.964,0,11.929-.007,17.894.009,1.18,0,2.259.343,2.217,1.781-.04,1.408-1.094,1.71-2.292,1.709Q4377.538,3670.571,4373.146,3670.574Zm-.063,40.347c-2.981,0-5.963,0-8.945,0-1.231,0-2.274-.435-2.264-1.768s1.068-1.74,2.293-1.738c5.91.006,11.819,0,17.728.008,1.161,0,2.292.259,2.318,1.687.026,1.505-1.08,1.817-2.348,1.813C4378.938,3710.916,4376.01,3710.922,4373.083,3710.921Zm.018,17.92c-2.977,0-5.954-.007-8.93,0-1.141,0-2.171-.307-2.263-1.571-.1-1.378.954-1.794,2.142-1.9.107-.009.215-.021.323-.021,5.845,0,11.691-.022,17.536.017,1.173.008,2.407.255,2.308,1.85-.09,1.423-1.165,1.633-2.348,1.627C4378.945,3728.832,4376.022,3728.842,4373.1,3728.842Zm.026-6.087c-2.975,0-5.949-.029-8.923.014-1.235.018-2.29-.286-2.3-1.654s1.077-1.711,2.283-1.709q8.923.007,17.847,0c1.228,0,2.208.379,2.185,1.79-.021,1.379-1.035,1.574-2.169,1.566C4379.076,3722.741,4376.1,3722.754,4373.126,3722.755Zm-.116-37.623c2.975,0,5.951.009,8.927,0,1.17,0,2.292.133,2.285,1.624-.007,1.4-1.017,1.751-2.235,1.75q-8.927-.009-17.854,0c-1.223,0-2.265-.392-2.232-1.761.03-1.257.991-1.633,2.182-1.618C4367.059,3685.156,4370.035,3685.132,4373.011,3685.132Zm.126-20.636c-2.974,0-5.947-.016-8.92.007-1.2.009-2.251-.188-2.253-1.66s1.051-1.7,2.243-1.7q8.921.007,17.841,0c1.233,0,2.208.366,2.178,1.78-.029,1.364-1.027,1.587-2.168,1.58C4379.084,3664.482,4376.11,3664.495,4373.137,3664.5Zm.077,40.338c-3.035,0-6.07-.014-9.1.008-1.159.008-2.108-.249-2.137-1.619s.9-1.725,2.059-1.726q9.023-.007,18.048,0c1.162,0,2.107.344,2.14,1.665.036,1.483-1.019,1.694-2.225,1.685C4379.067,3704.819,4376.141,3704.833,4373.214,3704.833Zm-.118-22.413c-2.982,0-5.965-.015-8.948.007-1.146.009-2.141-.208-2.19-1.573-.051-1.442.957-1.794,2.173-1.794q8.949,0,17.9,0c1.234,0,2.214.4,2.2,1.8-.018,1.377-1.042,1.577-2.18,1.57C4379.063,3682.407,4376.08,3682.42,4373.1,3682.421Zm.2,34.42q-4.551,0-9.1,0c-1.2,0-2.24-.25-2.221-1.724.018-1.365.964-1.626,2.129-1.623q8.939.026,17.879.005c1.186,0,2.279.2,2.233,1.687-.044,1.434-1.108,1.666-2.3,1.659C4379.04,3716.829,4376.168,3716.842,4373.3,3716.841Zm-47.519-43.644q4.628,0,9.257,0c1.131,0,1.988.463,1.936,1.667a1.676,1.676,0,0,1-1.883,1.608q-9.176.012-18.352,0c-1.087,0-2.057-.484-2.038-1.631.02-1.192.91-1.68,2.147-1.658C4319.822,3673.233,4322.8,3673.2,4325.778,3673.2Zm47.3,3.3c-3.036,0-6.072,0-9.108,0-1.182,0-2.063-.437-2.006-1.778.052-1.248.906-1.574,2.025-1.571q9.027.023,18.054,0c1.154,0,2.144.256,2.18,1.6.039,1.43-.973,1.765-2.2,1.76C4379.038,3676.492,4376.057,3676.5,4373.074,3676.5Zm.072,17.916c-2.981,0-5.964-.016-8.946.008-1.213.009-2.25-.223-2.238-1.69s1.088-1.668,2.276-1.667q8.865.012,17.729,0c1.213,0,2.262.259,2.251,1.7s-1.093,1.666-2.289,1.659C4379,3694.4,4376.075,3694.415,4373.146,3694.415Zm6.428-35.841c-.916,0-1.832.027-2.747-.007-1.111-.042-1.9-.527-1.856-1.754.036-1.129.754-1.592,1.827-1.592,1.885,0,3.77-.006,5.655.006,1.071.006,1.783.489,1.78,1.627a1.616,1.616,0,0,1-1.751,1.707C4381.515,3658.61,4380.544,3658.572,4379.574,3658.573Z" transform="translate(-4285.467 -3615.028)" fill="#fdf1ed"/>
      <path id="Trazado_121383" data-name="Trazado 121383" d="M4358.738,3729.135q-15.935.027-31.87.051c-3.252,0-6.5-.026-9.755-.041q-14.674.02-29.348.042c-3.537.007-5.742,2.21-5.793,5.757q-.048,3.32-.092,6.64c-.882,3.43-3.4,5.024-7.263,4.6-3.071-.34-5.1-2.7-5.1-6.073q-.02-30.827-.007-61.654,0-27.41.014-54.821c0-2.891.008-5.744-2.037-8.441.856-.048,1.415-.106,1.973-.106,4.935-.007,9.87-.023,14.806.008,1.264.008,2.114-.373,2.277-1.734-.307-1.212-1.158-1.563-2.319-1.561-8.287.018-16.573-.038-24.859.033-5.522.047-9.282,3.974-9.313,9.529-.012,2.111.064,4.226-.022,6.335a6.742,6.742,0,0,0,1.646,4.933,6.816,6.816,0,0,0,4.791,1.463c1.014-.031,2.03.053,3.045.085,1.934-.275,3.878-.045,5.815-.127.706-.03.939.275.919.963-.055,1.889-.06,3.779-.084,5.669q.007,3.274.015,6.549a33.6,33.6,0,0,1,0,5.17q0,13.5-.006,27c.027.648.079,1.295.079,1.942,0,19.346.076,38.693-.053,58.039-.04,6.017,3.943,10.285,10.145,10.2,12.735-.165,25.474-.053,38.211-.047.59,0,1.179.08,1.77.122.7-.045,1.4-.129,2.093-.13,15.745-.007,31.491-.056,47.236.032,3.659.021,6.681-.975,8.989-3.866,2.293-3.907,1.742-8.169,1.34-12.335-.242-2.514-2.568-4.144-5.228-4.17C4366.749,3729.154,4362.743,3729.153,4358.738,3729.135Zm-75.359,16.85c1.728-2.2,1.981-4.641,1.875-7.174-.039-.919-.007-1.843-.006-2.764,0-3.136.456-3.6,3.523-3.6h79.037c.868,0,1.736-.015,2.6,0,1.744.035,2.473.718,2.531,2.457.047,1.408.012,2.818.011,4.228,0,5.026-2.078,7.111-7.094,7.111q-40.252,0-80.5-.006A3.732,3.732,0,0,1,4283.379,3745.984Zm-23.048-115.191c-1.518,0-3.037.039-4.554-.01-1.734-.055-2.443-.79-2.463-2.526-.026-2.385-.031-4.77,0-7.154.047-3.614,2.511-5.976,6.243-6.032,3.964-.06,6.58,2.219,6.676,5.935.074,2.871-.02,5.746.038,8.617.019.954-.331,1.217-1.223,1.188C4263.476,3630.759,4261.9,3630.8,4260.331,3630.793Z" transform="translate(-4248.941 -3611.793)" fill="#0d4aad"/>
      <path id="Trazado_121384" data-name="Trazado 121384" d="M4298.785,3613.375c.151,1.64,1.292,1.727,2.583,1.726q26.594-.022,53.188,0a13.383,13.383,0,0,1,2.583.2,5.632,5.632,0,0,1,4.546,5.4c.024.6.01,1.192.01,1.789q0,48.137-.014,96.274c0,1.332.052,2.521,1.627,2.924a1.946,1.946,0,0,0,1.662-2.3c-.047-.844.024-1.694.042-2.541-.016-3.9-.045-7.79-.047-11.686q-.011-31.172-.008-62.343c0-.594.039-1.187.059-1.781q-.029-9.662-.057-19.325c-.016-6.159-3.73-9.872-9.935-9.875q-26.725-.016-53.45-.013C4300.334,3611.818,4299.133,3611.811,4298.785,3613.375Z" transform="translate(-4253.516 -3611.81)" fill="#0d4aad"/>
      <path id="Trazado_121385" data-name="Trazado 121385" d="M4610.62,3716.134c1.352,1.052,1.151,2.885,1.624,4.52.255.884,1.413.979,2.221.364a1.364,1.364,0,0,1,1.992-.036,1.687,1.687,0,0,0,2.612-1.912,1.264,1.264,0,0,1,.527-1.785,1.536,1.536,0,0,0,.753-1.81,1.591,1.591,0,0,0-1.708-1.223,1.246,1.246,0,0,1-1.5-1.078,1.592,1.592,0,0,0-1.64-1.318,1.637,1.637,0,0,0-1.651,1.318,1.256,1.256,0,0,1-1.5,1.083C4611.322,3714.221,4610.741,3714.782,4610.62,3716.134Z" transform="translate(-4610.62 -3679.223)" fill="#ef3c79"/>
      <path id="Trazado_121386" data-name="Trazado 121386" d="M4265.638,3640.841a1.888,1.888,0,0,0-.51-1.323c-3.256-3.976-4.751-3.941-7.87.171a1.536,1.536,0,0,0,.229,2.4,1.575,1.575,0,0,0,2.421-.355c.953-1.252,1.758-1.312,2.7-.008a1.64,1.64,0,0,0,2.019.63A1.508,1.508,0,0,0,4265.638,3640.841Z" transform="translate(-4140.443 -3628.49)" fill="#00cbae"/>
      <path id="Trazado_121387" data-name="Trazado 121387" d="M4606.745,3759.007c2.331.3,3.033-.5,2.281-2.589-.894-.857-1.8-1.7-2.677-2.578a1.744,1.744,0,0,0-2.808-.051c-.841.839-1.694,1.667-2.511,2.529a1.546,1.546,0,0,0-.087,2.314,1.609,1.609,0,0,0,2.44.037C4605.105,3757.266,4605.113,3757.276,4606.745,3759.007Z" transform="translate(-4596.195 -3707.021)" fill="#ef3c79"/>
      <path id="Trazado_121388" data-name="Trazado 121388" d="M4590.933,3700.374l-3.095.007a21.248,21.248,0,0,1,2.876,6.846l.233-.3Z" transform="translate(-4573.712 -3671.487)" fill="#fdf1ed"/>
      <path id="Trazado_121389" data-name="Trazado 121389" d="M4587.775,3720.456l-.233.3q0,2.427-.01,4.853l.12.021.123-.007A33.61,33.61,0,0,0,4587.775,3720.456Z" transform="translate(-4570.54 -3685.019)" fill="#fec9c9"/>
      <path id="Trazado_121390" data-name="Trazado 121390" d="M4617.895,3972.493a1.92,1.92,0,0,0-.4-1.2c-2.93-3.979-5.413-3.924-8.067.2a1.488,1.488,0,0,0-.185,1.667c.561.962,1.656,1.4,2.285.687,1.482-1.683,2.523-1.319,4,0C4616.474,3974.7,4617.87,3973.777,4617.895,3972.493Z" transform="translate(-4607.58 -3852.075)" fill="#00cbae"/>
      <path id="Trazado_121391" data-name="Trazado 121391" d="M4263.562,3870.367c-.653-1.1,0-1.862.876-2.736a1.482,1.482,0,0,0-1.05-2.5c-1.072-.07-1.688-.35-1.987-1.41a1.4,1.4,0,0,0-1.511-.984,1.542,1.542,0,0,0-1.6,1.131,1.439,1.439,0,0,1-1.733,1.213,1.381,1.381,0,0,0-1.473,1.042,1.552,1.552,0,0,0,.552,1.887,1.48,1.48,0,0,1,.69,2.011,1.6,1.6,0,0,0,.607,1.879,1.427,1.427,0,0,0,1.938-.052c.8-.747,1.407-.342,2.156.062A1.645,1.645,0,0,0,4263.562,3870.367Z" transform="translate(-4139.075 -3780.897)" fill="#ef3c79"/>
      <path id="Trazado_121392" data-name="Trazado 121392" d="M4371.21,3645.458q-15.446,0-30.893,0c-3.046,0-4.209,1.166-4.214,4.231q-.012,7.4,0,14.793c.007,3.087,1.222,4.348,4.348,4.35q30.73.027,61.461,0c3.193,0,4.373-1.258,4.376-4.485q.01-7.234,0-14.468c0-3.319-1.087-4.422-4.349-4.423Q4386.575,3645.456,4371.21,3645.458Z" transform="translate(-4306.96 -3634.479)" fill="#ef3c79"/>
      <path id="Trazado_121393" data-name="Trazado 121393" d="M4435.444,3920.34q.045-3.32.091-6.64c.052-3.547,2.256-5.75,5.792-5.757q14.675-.03,29.349-.042-.015-13.25-.03-26.5c0-3.277-1.085-4.345-4.424-4.345q-15.122,0-30.244,0c-3.1,0-4.321,1.213-4.324,4.336q-.013,17.151,0,34.3C4431.653,3918.8,4432.392,3919.7,4435.444,3920.34Zm22.25-29.619h2.763c.551,0,1.121-.01,1.348.638.245.7-.175,1.127-.678,1.5-1.308.961-2.589,1.965-3.944,2.856a1.454,1.454,0,0,0-.676,2.022c.569,1.516.982,3.09,1.489,4.63.192.585.421,1.155-.174,1.625-.694.55-1.213.019-1.729-.347-1.324-.94-2.661-1.865-3.939-2.864a1.292,1.292,0,0,0-1.948-.009c-1.236,1.046-2.6,1.949-3.925,2.88-.461.323-.917.855-1.59.4-.709-.48-.465-1.16-.294-1.762a38.679,38.679,0,0,1,1.283-4.013,1.959,1.959,0,0,0-.874-2.838c-1.293-.779-2.467-1.754-3.689-2.65-.454-.333-.847-.725-.649-1.356s.736-.714,1.309-.711c1.463.006,2.936-.107,4.385.031,1.492.143,2.284-.311,2.619-1.832a43.343,43.343,0,0,1,1.366-4.325c.182-.544.523-.992,1.158-.956.574.032.789.524.949.991.317.92.606,1.85.91,2.774C4454.257,3890.721,4454.258,3890.721,4457.694,3890.722Zm-20.852-6.828a1.622,1.622,0,0,1-1.621-1.677,1.648,1.648,0,0,1,1.8-1.842,1.621,1.621,0,0,1,1.7,1.773C4438.708,3883.2,4438.162,3883.865,4436.842,3883.894Z" transform="translate(-4402.505 -3790.55)" fill="#00cbae"/>
      <path id="Trazado_121394" data-name="Trazado 121394" d="M4451.223,3735.05c-5.2,0-10.4-.01-15.6,0-2.8.007-4.01,1.244-4.029,4.081q-.023,3.573,0,7.147c.015,2.686,1.3,4.1,3.926,4.1q15.6.051,31.192,0c2.728-.008,3.949-1.316,3.958-4.011.009-2.6.02-5.2,0-7.8-.022-2.283-1.218-3.5-3.525-3.517C4461.837,3735.031,4456.531,3735.052,4451.223,3735.05Z" transform="translate(-4402.493 -3694.85)" fill="#ef3c79"/>
      <path id="Trazado_121395" data-name="Trazado 121395" d="M4451.192,3826.739c-5.694,0-11.388.012-17.081-.01-1.182,0-2.349.138-2.392,1.551-.045,1.449,1.064,1.83,2.353,1.829q17.163-.011,34.326,0c1.213,0,2.249-.313,2.289-1.708.042-1.483-1.06-1.669-2.25-1.667Q4459.814,3826.75,4451.192,3826.739Z" transform="translate(-4402.538 -3756.635)" fill="#00cbae"/>
      <path id="Trazado_121396" data-name="Trazado 121396" d="M4451.319,3811.488c5.693,0,11.386-.008,17.079.006,1.182,0,2.3-.142,2.288-1.625-.009-1.4-1.03-1.745-2.25-1.745q-17.16.007-34.32,0c-1.28,0-2.416.34-2.4,1.785.016,1.4,1.165,1.6,2.361,1.591C4439.825,3811.477,4445.572,3811.489,4451.319,3811.488Z" transform="translate(-4402.537 -3744.096)" fill="#00cbae"/>
      <path id="Trazado_121397" data-name="Trazado 121397" d="M4451.135,3848.309h16.419c.379,0,.758,0,1.138,0,1.124.008,1.973-.423,1.98-1.64.006-1.191-.8-1.7-1.934-1.7q-17.557,0-35.114,0c-1.176,0-1.944.6-1.907,1.732s.863,1.626,2.022,1.623C4439.54,3848.3,4445.337,3848.308,4451.135,3848.309Z" transform="translate(-4402.524 -3768.922)" fill="#00cbae"/>
      <path id="Trazado_121398" data-name="Trazado 121398" d="M4349.13,3774.894q4.392,0,8.784,0c1.2,0,2.252-.3,2.292-1.709.041-1.437-1.037-1.777-2.217-1.781-5.965-.016-11.929-.007-17.894-.009-1.232,0-2.264.44-2.231,1.79s1.1,1.715,2.318,1.711C4343.165,3774.887,4346.147,3774.894,4349.13,3774.894Z" transform="translate(-4261.451 -3719.347)" fill="#00cbae"/>
      <path id="Trazado_121399" data-name="Trazado 121399" d="M4349.1,3898.6c2.928,0,5.856-.005,8.783,0,1.268,0,2.374-.308,2.348-1.813-.026-1.428-1.157-1.684-2.318-1.687-5.909-.011-11.818,0-17.728-.008-1.225,0-2.283.4-2.293,1.739s1.032,1.771,2.263,1.768C4343.139,3898.593,4346.121,3898.6,4349.1,3898.6Z" transform="translate(-4261.487 -3802.705)" fill="#ef3c79"/>
      <path id="Trazado_121400" data-name="Trazado 121400" d="M4349.069,3953.568c2.922,0,5.846-.009,8.768.005,1.183.006,2.258-.2,2.348-1.627.1-1.594-1.135-1.842-2.308-1.85-5.845-.039-11.691-.018-17.536-.017-.107,0-.216.012-.323.021-1.188.106-2.242.522-2.142,1.9.092,1.264,1.123,1.575,2.263,1.571C4343.116,3953.561,4346.092,3953.568,4349.069,3953.568Z" transform="translate(-4261.437 -3839.754)" fill="#ef3c79"/>
      <path id="Trazado_121401" data-name="Trazado 121401" d="M4349.092,3935.2c2.975,0,5.949-.013,8.924.007,1.135.007,2.148-.187,2.171-1.566.021-1.41-.958-1.79-2.186-1.79q-8.924.005-17.848,0c-1.206,0-2.292.341-2.283,1.709s1.063,1.672,2.3,1.655C4343.143,3935.174,4346.117,3935.2,4349.092,3935.2Z" transform="translate(-4261.433 -3827.476)" fill="#ef3c79"/>
      <path id="Trazado_121402" data-name="Trazado 121402" d="M4348.976,3826.735c-2.977,0-5.952.025-8.928-.011-1.191-.015-2.152.361-2.182,1.618-.033,1.369,1.01,1.762,2.231,1.761q8.927-.007,17.854,0c1.22,0,2.229-.352,2.236-1.75.007-1.49-1.114-1.628-2.285-1.623C4354.927,3826.743,4351.951,3826.735,4348.976,3826.735Z" transform="translate(-4261.432 -3756.631)" fill="#00cbae"/>
      <path id="Trazado_121403" data-name="Trazado 121403" d="M4349.03,3756.549c2.973,0,5.947-.013,8.92.006,1.141.008,2.139-.215,2.167-1.58.03-1.415-.944-1.782-2.178-1.78q-8.921.012-17.841,0c-1.192,0-2.246.241-2.243,1.7s1.054,1.669,2.253,1.66C4343.083,3756.533,4346.056,3756.549,4349.03,3756.549Z" transform="translate(-4261.359 -3707.082)" fill="#00cbae"/>
      <path id="Trazado_121404" data-name="Trazado 121404" d="M4349.12,3880.265c2.926,0,5.853-.014,8.78.007,1.206.009,2.26-.2,2.224-1.685-.032-1.321-.978-1.666-2.14-1.665q-9.023.01-18.047.005c-1.159,0-2.087.367-2.059,1.727s.978,1.626,2.137,1.619C4343.05,3880.251,4346.085,3880.265,4349.12,3880.265Z" transform="translate(-4261.374 -3790.459)" fill="#ef3c79"/>
      <path id="Trazado_121405" data-name="Trazado 121405" d="M4349,3811.5c2.982,0,5.965-.013,8.948.006,1.138.007,2.161-.194,2.179-1.57.018-1.4-.961-1.8-2.195-1.8q-8.949.005-17.9,0c-1.218,0-2.225.352-2.173,1.794.048,1.365,1.044,1.582,2.189,1.573C4343.032,3811.482,4346.015,3811.5,4349,3811.5Z" transform="translate(-4261.368 -3744.105)" fill="#00cbae"/>
      <path id="Trazado_121406" data-name="Trazado 121406" d="M4349.205,3917.08c2.872,0,5.743-.011,8.615.006,1.2.007,2.26-.225,2.3-1.659.045-1.489-1.047-1.687-2.233-1.687q-8.938.009-17.879-.005c-1.165,0-2.111.257-2.129,1.623-.02,1.474,1.025,1.725,2.221,1.724Q4344.653,3917.075,4349.205,3917.08Z" transform="translate(-4261.374 -3815.267)" fill="#ef3c79"/>
      <path id="Trazado_121407" data-name="Trazado 121407" d="M4493.83,3790.123c-2.978,0-5.955.036-8.932-.018-1.237-.022-2.126.466-2.147,1.658-.019,1.147.951,1.629,2.038,1.631q9.177.021,18.352,0a1.676,1.676,0,0,0,1.883-1.608c.053-1.205-.8-1.668-1.936-1.667Q4498.459,3790.125,4493.83,3790.123Z" transform="translate(-4453.519 -3731.954)" fill="#fec9c9"/>
      <path id="Trazado_121408" data-name="Trazado 121408" d="M4348.99,3793.362c2.982,0,5.964-.007,8.945,0,1.227.005,2.238-.33,2.2-1.76-.037-1.34-1.025-1.6-2.18-1.6q-9.026.023-18.053,0c-1.12,0-1.973.323-2.026,1.571-.056,1.341.826,1.775,2.007,1.778C4342.918,3793.366,4345.955,3793.362,4348.99,3793.362Z" transform="translate(-4261.382 -3731.891)" fill="#00cbae"/>
      <path id="Trazado_121409" data-name="Trazado 121409" d="M4349.062,3848.3c2.928,0,5.855-.012,8.783.006,1.2.007,2.278-.208,2.289-1.659s-1.038-1.7-2.25-1.7q-8.865.02-17.729,0c-1.188,0-2.265.192-2.277,1.667s1.025,1.7,2.238,1.691C4343.1,3848.283,4346.08,3848.3,4349.062,3848.3Z" transform="translate(-4261.382 -3768.912)" fill="#00cbae"/>
      <path id="Trazado_121410" data-name="Trazado 121410" d="M4342.437,3738.389c.969,0,1.94.037,2.908-.012a1.616,1.616,0,0,0,1.75-1.707c0-1.139-.709-1.621-1.78-1.627-1.885-.012-3.771-.005-5.656-.006-1.072,0-1.791.463-1.826,1.592-.039,1.227.746,1.712,1.856,1.754C4340.6,3738.417,4341.521,3738.39,4342.437,3738.389Z" transform="translate(-4248.329 -3694.845)" fill="#00cbae"/>
      <path id="Trazado_121411" data-name="Trazado 121411" d="M4260.382,3995.288a3.727,3.727,0,0,0,1.978.254q40.251.012,80.5.006c5.016,0,7.092-2.084,7.094-7.11,0-1.41.036-2.82-.011-4.228-.058-1.738-.787-2.422-2.531-2.457-.867-.017-1.735,0-2.6,0h-79.038c-3.067,0-3.522.465-3.523,3.6,0,.921-.032,1.844.006,2.764C4262.363,3990.647,4262.11,3993.088,4260.382,3995.288Z" transform="translate(-4225.945 -3861.098)" fill="#fec9c9"/>
      <path id="Trazado_121412" data-name="Trazado 121412" d="M4594.592,3637.566c1.572,0,3.146-.037,4.717.016.892.029,1.241-.233,1.223-1.187-.057-2.872.036-5.747-.038-8.617-.1-3.716-2.711-5.995-6.676-5.935-3.732.056-6.2,2.417-6.243,6.032-.03,2.385-.025,4.77,0,7.155.02,1.737.729,2.471,2.463,2.526C4591.555,3637.6,4593.074,3637.564,4594.592,3637.566Z" transform="translate(-4583.203 -3618.564)" fill="#fec9c9"/>
      <path id="Trazado_121413" data-name="Trazado 121413" d="M4475.91,3904.318c-3.436,0-3.437,0-4.53-3.319-.3-.924-.593-1.854-.91-2.773-.161-.467-.376-.958-.949-.991-.635-.037-.977.411-1.158.956a43.477,43.477,0,0,0-1.367,4.325c-.334,1.521-1.127,1.974-2.618,1.832-1.45-.138-2.922-.025-4.385-.031-.573,0-1.109.075-1.308.711s.2,1.022.649,1.355c1.222.9,2.4,1.872,3.689,2.65a1.959,1.959,0,0,1,.873,2.838,38.794,38.794,0,0,0-1.282,4.013c-.171.6-.417,1.282.294,1.762.672.454,1.128-.078,1.589-.4,1.33-.932,2.689-1.834,3.925-2.88a1.291,1.291,0,0,1,1.948.009c1.279,1,2.616,1.924,3.94,2.863.516.367,1.034.9,1.729.347.595-.47.366-1.041.173-1.625-.506-1.54-.92-3.113-1.489-4.629a1.455,1.455,0,0,1,.677-2.023c1.354-.891,2.635-1.895,3.944-2.856.5-.369.923-.8.678-1.5-.228-.648-.8-.639-1.349-.639Z" transform="translate(-4420.721 -3804.146)" fill="#fdf1ed"/>
      <path id="Trazado_121414" data-name="Trazado 121414" d="M4531.251,3890.75c1.32-.029,1.867-.689,1.881-1.747a1.621,1.621,0,0,0-1.7-1.773,1.648,1.648,0,0,0-1.8,1.842A1.622,1.622,0,0,0,4531.251,3890.75Z" transform="translate(-4496.914 -3797.406)" fill="#fdf1ed"/>
    </g>
  </g>
</svg>
