<svg xmlns="http://www.w3.org/2000/svg" width="191.344" height="186.343" viewBox="0 0 191.344 186.343">
  <g id="Grupo_137409" data-name="Grupo 137409" transform="translate(-1018.5 -11651.918)">
    <g id="Grupo_78493" data-name="Grupo 78493" transform="translate(1019 11652.418)">
      <path id="Trazado_114225" data-name="Trazado 114225" d="M1471.5,508.463c20.372,43.789,55.227,36.913,104.969,13.771s77.405-43.659,57.033-87.448-81.063-94.267-130.805-71.126S1451.133,464.674,1471.5,508.463Z" transform="translate(-1450.259 -355.663)" fill="none" stroke="#ef3c79" stroke-miterlimit="10" stroke-width="2"/>
      <path id="Trazado_114226" data-name="Trazado 114226" d="M1475,473.13c0,48.3,34.5,56.764,89.365,56.764s88.6-6.934,88.6-55.23S1619.227,355,1564.365,355,1475,424.835,1475,473.13Z" transform="translate(-1475 -355)" fill="#e8e8e8" stroke="rgba(0,0,0,0)" stroke-width="1"/>
      <path id="Trazado_114227" data-name="Trazado 114227" d="M1672.818,422.4c0,4.66,3.329,5.477,8.623,5.477s8.549-.669,8.549-5.329S1686.734,411,1681.44,411,1672.818,417.739,1672.818,422.4Z" transform="translate(-1663.769 -368.044)" fill="#00cbae" stroke="rgba(0,0,0,0)" stroke-width="1"/>
      <path id="Trazado_114228" data-name="Trazado 114228" d="M1459.307,451.4c0,4.66,3.329,5.477,8.623,5.477s8.549-.669,8.549-5.329S1473.223,440,1467.93,440,1459.307,446.739,1459.307,451.4Z" transform="translate(-1286.479 -374.798)" fill="#0d4aad" stroke="rgba(0,0,0,0)" stroke-width="1"/>
    </g>
    <g id="CtRHaZ" transform="translate(-3827.914 8085.145)">
      <g id="Grupo_87376" data-name="Grupo 87376" transform="translate(4861.463 3577.788)">
        <path id="Trazado_121415" data-name="Trazado 121415" d="M4862.858,3791.415c.06,1.567,1.427,2.366,2.652,1.545a1.756,1.756,0,0,1,2.472.017,1.472,1.472,0,0,0,1.965-.024,1.56,1.56,0,0,0,.611-1.878,1.623,1.623,0,0,1,.682-2.242,1.607,1.607,0,0,0,.621-2.035,1.561,1.561,0,0,0-1.651-1.1c-1.114.1-1.58-.4-1.859-1.388a1.548,1.548,0,0,0-1.6-1.158,1.514,1.514,0,0,0-1.588,1.167c-.274,1.141-.962,1.333-2.028,1.413a1.6,1.6,0,0,0-1.2,2.7C4862.948,3789.392,4863.549,3790.228,4862.858,3791.415Zm127.688-80.708a1.409,1.409,0,0,0,1.115-.466c1.2-1.639,2.314-1.747,3.632-.057a1.528,1.528,0,0,0,2.369.065,1.57,1.57,0,0,0,.112-2.375c-.985-1.1-2.045-2.137-3.128-3.143a1.548,1.548,0,0,0-2.251-.04c-1.128,1.042-2.2,2.151-3.254,3.266a1.573,1.573,0,0,0-.191,1.833A1.606,1.606,0,0,0,4990.546,3710.707Z" transform="translate(-4861.462 -3659.19)" fill="#fefefe"/>
        <path id="Trazado_121416" data-name="Trazado 121416" d="M4968.568,3915.639c-.767-.037-1.533-.1-2.3-.1q-24.24-.012-48.48-.011c-.013-7.4-.044-14.8-.021-22.205a26.136,26.136,0,0,1,.375-3.885c2.909-18.884,16.458-32.966,35.2-36.715,1.491-.3,1.806.221,2.047,1.477a13.379,13.379,0,0,0,20.338,8.735c4.421-2.836,6.267-7.071,6.383-12.187a35.982,35.982,0,0,1,7.893,1.712c-.284,1.388.472,2.093,1.65,2.527a35.167,35.167,0,0,1,6.227,2.994c11.985,7.334,19.224,17.928,21.034,31.865,1.107,8.518.347,17.143.376,25.72q-24.831-.008-49.662-.012C4969.272,3915.549,4968.92,3915.608,4968.568,3915.639Z" transform="translate(-4897.707 -3753.519)" fill="#00cbae"/>
        <path id="Trazado_121417" data-name="Trazado 121417" d="M5019.748,3615.356a27.61,27.61,0,0,1-12.466,13.121c-.74.375-.692.7-.324,1.338a10.858,10.858,0,0,1-10.84,16.141c-1.169-.158-1.336.407-1.6,1.294-3.057,10.094-8.781,18.122-18.208,23.222a1.409,1.409,0,0,0-.872,1.528c.074,1,.067,2.009.094,3.013-.116,5.116-1.962,9.351-6.383,12.187a13.379,13.379,0,0,1-20.338-8.735c-.241-1.256-.555-1.776-2.046-1.477-18.739,3.749-32.287,17.831-35.2,36.715a26.271,26.271,0,0,0-.374,3.885c-.024,7.4.007,14.8.021,22.205-.228,1.116-.8,1.876-2.046,1.718a1.734,1.734,0,0,1-1.577-2c.162-8.378-.377-16.765.325-25.134a50.759,50.759,0,0,1,3.275-12.974,49.1,49.1,0,0,1,14.5-18.738,47.021,47.021,0,0,1,21.537-9.39c.558-.091,1.278.039,1.237-.875-.03-.666.223-1.373-.654-1.821a36.76,36.76,0,0,1-14.23-13.519,38.8,38.8,0,0,1-4.214-9.973c-.271-.909-.558-1.2-1.546-1.143-5.927.356-9.49-1.943-11.848-7.529a10.862,10.862,0,0,1,2.948-11.07,1.944,1.944,0,0,0,.649-1.562,58.446,58.446,0,0,1,.88-12.533,27.163,27.163,0,0,1,1.813-6.142,44.415,44.415,0,0,1,6.256-10.7,43.367,43.367,0,0,1,23.916-15.129,42.21,42.21,0,0,1,14.983-.744c1.326.165,2.066.765,2.1,2.132-.408,1.369-1.427,1.58-2.66,1.422a39.273,39.273,0,0,0-9.2-.079,38.794,38.794,0,0,0-34.479,37.394c-.026,1.05-.485,2.371.221,3.063.432.422,1.774-.026,2.69-.18.99-.167,2.188.747,2.856,0,.646-.719.714-1.956,1.035-2.965a.865.865,0,0,1,.05-.17c.515-.919.281-1.429-.8-1.508a6.835,6.835,0,0,1-.871-.161c-1.213-.251-2.238-.769-1.92-2.227.308-1.41,1.353-1.556,2.628-1.263a57.6,57.6,0,0,0,9.3,1.339,55.012,55.012,0,0,0,29.493-6.055,1.463,1.463,0,0,0,.93-1.9,25.875,25.875,0,0,1,.146-10.395,28.3,28.3,0,0,1,7.98-14.142,28.73,28.73,0,0,1,16.52-6.979c13.656-1.136,26.851,9.8,28.289,23.433A30.529,30.529,0,0,1,5019.748,3615.356Zm-23.568,22.052c-.141,1.282-.244,2.569-.437,3.842-.128.845.169,1.1,1,1.2a7.147,7.147,0,0,0,7.956-6.81,6.469,6.469,0,0,0-1.036-4.347,1.371,1.371,0,0,0-1.841-.751c-1.848.489-4.527.1-5.441,1.233C4995.433,3632.94,4996.176,3635.474,4996.18,3637.408Zm-18.607-12.438.01.01a30.787,30.787,0,0,1-6.407-8.355c-1.169-2.406-1.219-2.435-3.6-1.225-4.1,2.081-8.526,3.229-12.888,4.56-.585.041-1.178.033-1.753.13a58.75,58.75,0,0,1-15.711.707c-3.372-.339-3.373-.325-4.271,3.076-3.657,13.688-1.5,26.215,8,36.955,9.24,10.445,23.558,12.626,35.1,5.71,11.629-6.97,17.507-20.94,16.476-34.371a.92.92,0,0,0-.956-1,40.145,40.145,0,0,1-6.518-1.6l.024.011-.295-.194a37.215,37.215,0,0,1-6.891-4.181Zm-25.414,51.54c.547,5.421,4.582,9.22,9.795,9.22s9.243-3.789,9.8-9.219v-3.839c-.1-.024-.164-.06-.216-.048-.456.1-.913.2-1.363.32a30.37,30.37,0,0,1-14.71.4C4951.835,3672.543,4951.828,3672.578,4952.16,3676.51Zm42.989-95.065a23.167,23.167,0,1,0,23.161,23.176A23.21,23.21,0,0,0,4995.149,3581.445Zm-68.9,61.026c2.04.03,2.035-.015,1.786-2.084a37.576,37.576,0,0,1,.045-10.446c.264-1.65-.216-2.11-1.749-2.082a7.448,7.448,0,0,0-7.252,7.3A7.308,7.308,0,0,0,4926.249,3642.471Z" transform="translate(-4891.127 -3577.788)" fill="#0d4aad"/>
        <path id="Trazado_121418" data-name="Trazado 121418" d="M5004.855,3593.674a28.3,28.3,0,0,0-7.98,14.142,25.875,25.875,0,0,0-.146,10.395,1.464,1.464,0,0,1-.93,1.9,55.017,55.017,0,0,1-29.493,6.055,57.593,57.593,0,0,1-9.3-1.339c-1.276-.293-2.32-.147-2.628,1.263-.318,1.458.707,1.976,1.92,2.228a6.921,6.921,0,0,0,.871.161c1.082.079,1.316.589.8,1.509a.937.937,0,0,0-.05.17c-.321,1.01-.389,2.246-1.035,2.965-.668.745-1.867-.169-2.856,0-.917.155-2.259.6-2.69.18-.707-.691-.247-2.012-.221-3.062a38.794,38.794,0,0,1,34.479-37.394,39.255,39.255,0,0,1,9.2.078c1.234.157,2.252-.053,2.661-1.422A37.615,37.615,0,0,1,5004.855,3593.674Z" transform="translate(-4919.077 -3586.615)" fill="#12263f"/>
        <path id="Trazado_121419" data-name="Trazado 121419" d="M4862.858,3934.079c.69-1.188.09-2.023-.929-2.983a1.6,1.6,0,0,1,1.2-2.7c1.066-.079,1.754-.272,2.028-1.413a1.514,1.514,0,0,1,1.588-1.167,1.548,1.548,0,0,1,1.6,1.158c.28.983.745,1.49,1.859,1.388a1.561,1.561,0,0,1,1.651,1.1,1.607,1.607,0,0,1-.621,2.035,1.623,1.623,0,0,0-.682,2.242,1.56,1.56,0,0,1-.611,1.878,1.472,1.472,0,0,1-1.965.024,1.756,1.756,0,0,0-2.472-.017C4864.285,3936.445,4862.918,3935.646,4862.858,3934.079Z" transform="translate(-4861.462 -3801.853)" fill="#ffcb00"/>
        <path id="Trazado_121420" data-name="Trazado 121420" d="M5220.6,3710.707a1.607,1.607,0,0,1-1.6-.916,1.572,1.572,0,0,1,.192-1.833c1.058-1.115,2.126-2.224,3.254-3.266a1.548,1.548,0,0,1,2.251.04c1.083,1.005,2.144,2.043,3.128,3.143a1.57,1.57,0,0,1-.112,2.375,1.528,1.528,0,0,1-2.369-.065c-1.318-1.689-2.433-1.582-3.632.057A1.409,1.409,0,0,1,5220.6,3710.707Z" transform="translate(-5091.52 -3659.19)" fill="#ef3c79"/>
        <path id="Trazado_121421" data-name="Trazado 121421" d="M5210.942,3748.705a2,2,0,0,1-.415-.324c-1.207-1.625-2.358-1.972-3.775-.129a1.444,1.444,0,0,1-2.287.218,1.872,1.872,0,0,1-.142-2.819c.874-.945,1.773-1.867,2.66-2.8a2.1,2.1,0,0,1,3.362.223c.708.785,1.488,1.505,2.241,2.249.666.657,1.17,1.395.688,2.344A1.794,1.794,0,0,1,5210.942,3748.705Z" transform="translate(-5081.828 -3683.584)" fill="#ef3c79"/>
        <path id="Trazado_121422" data-name="Trazado 121422" d="M5210.721,4036.387l-.689.384-.074-.094.641-.429C5210.641,4036.294,5210.682,4036.34,5210.721,4036.387Z" transform="translate(-5085.827 -3872.948)" fill="#fdc498"/>
        <path id="Trazado_121423" data-name="Trazado 121423" d="M4895,3894.722a1.721,1.721,0,0,1-2.528,1.58,4.87,4.87,0,0,1-1.324-1.151c-.668-.809-1.227-.724-1.839.04a5.856,5.856,0,0,1-.888.861,1.694,1.694,0,0,1-2.375-2.416c1-1.086,2.051-2.12,3.127-3.127a1.358,1.358,0,0,1,1.792-.217,17.586,17.586,0,0,1,3.851,3.848A1.684,1.684,0,0,1,4895,3894.722Z" transform="translate(-4876.95 -3778.82)" fill="#ef3c79"/>
        <path id="Trazado_121424" data-name="Trazado 121424" d="M5152.943,3917.766l-.642.429c-1.339.176-2.3-.215-2.552-1.687-.029-8.577.731-17.2-.376-25.719-1.811-13.937-9.049-24.53-21.035-31.865a35.179,35.179,0,0,0-6.226-2.994c-1.179-.434-1.935-1.14-1.65-2.527.661-1.646,1.86-1.245,3.047-.78a45.746,45.746,0,0,1,17.4,11.887,46.608,46.608,0,0,1,12.471,32.211c.009,1.832.036,3.663.055,5.5-.02,4.392-.048,8.784-.052,13.176A4.492,4.492,0,0,1,5152.943,3917.766Z" transform="translate(-5028.17 -3754.466)" fill="#0d4aad"/>
        <path id="Trazado_121425" data-name="Trazado 121425" d="M5226.943,3906.056c.668-1.129-.065-1.829-.917-2.679a1.76,1.76,0,0,1,1.232-2.994c.983-.114,1.628-.292,1.911-1.344a1.689,1.689,0,0,1,1.763-1.224,1.746,1.746,0,0,1,1.707,1.323,1.47,1.47,0,0,0,1.645,1.206,1.9,1.9,0,0,1,1.88,1.364,1.741,1.741,0,0,1-.845,2.122,1.286,1.286,0,0,0-.57,1.791,1.764,1.764,0,0,1-.633,2.184,1.848,1.848,0,0,1-2.39.126,1.739,1.739,0,0,0-2.214-.008C5228.177,3908.695,5226.9,3907.76,5226.943,3906.056Z" transform="translate(-5095.833 -3783.824)" fill="#ffcb00"/>
        <path id="Trazado_121426" data-name="Trazado 121426" d="M5027.941,3696.138a40.088,40.088,0,0,0,6.519,1.6.92.92,0,0,1,.956,1c1.031,13.43-4.847,27.4-16.475,34.37-11.539,6.916-25.857,4.735-35.1-5.71-9.5-10.74-11.658-23.267-8-36.955a19.651,19.651,0,0,0,7.709.014,50.186,50.186,0,0,0,14.025-3.927c4.363-1.33,8.786-2.479,12.888-4.56,2.385-1.21,2.435-1.181,3.6,1.225a30.776,30.776,0,0,0,6.406,8.355,17.253,17.253,0,0,0-7.982,1.076c-1.047.408-1.719,1.128-1.276,2.328a1.723,1.723,0,0,0,2.451,1.038c.336-.112.667-.241,1.009-.333a9.705,9.705,0,0,1,9.656,2.177c.737.672,1.353,1.591,2.562,1.043C5028.13,3698.311,5028.063,3697.23,5027.941,3696.138Zm-35.971-4.615a12.683,12.683,0,0,0-9.594,4.223,1.769,1.769,0,0,0-.137,2.677,1.621,1.621,0,0,0,2.522-.022c3.159-3.408,6.9-4.031,11.146-2.463,1.182.437,2.149.218,2.584-1.041.417-1.2-.286-1.9-1.339-2.3A14.2,14.2,0,0,0,4991.97,3691.524Zm-.967,14.593c-.016,2.04.767,3.145,2.249,3.173,1.444.028,2.309-1.05,2.337-2.911.034-2.209-.72-3.247-2.34-3.222C4991.745,3703.181,4991.018,3704.14,4991,3706.117Zm27.692.151c.01-2.1-.721-3.1-2.272-3.112s-2.317.989-2.314,3.072c0,1.994.863,3.109,2.361,3.061C5017.9,3709.243,5018.685,3708.182,5018.694,3706.268Z" transform="translate(-4934.02 -3644.352)" fill="#fdc498"/>
        <path id="Trazado_121427" data-name="Trazado 121427" d="M5111.558,3588.054a23.167,23.167,0,1,1-23.206,23.1A23.278,23.278,0,0,1,5111.558,3588.054Zm-3.378,15.066.036-.033c-5.456.513-9.5,3.447-12.91,7.5-.447.531-.284.95.088,1.4a19.5,19.5,0,0,0,13.129,7.523,10.073,10.073,0,0,0,5.753.028c5.618-.566,9.967-3.359,13.469-7.653a.84.84,0,0,0,.042-1.239c-3.377-4.111-7.466-7-12.917-7.564a12.158,12.158,0,0,0-5.826-.251C5108.718,3602.812,5108.362,3602.711,5108.18,3603.121Z" transform="translate(-5007.536 -3584.398)" fill="#12263f"/>
        <path id="Trazado_121428" data-name="Trazado 121428" d="M5052.4,3854.949c-.553,5.43-4.579,9.22-9.8,9.219s-9.249-3.8-9.794-9.221A30.129,30.129,0,0,0,5052.4,3854.949Z" transform="translate(-4971.777 -3756.226)" fill="#fdc498"/>
        <path id="Trazado_121429" data-name="Trazado 121429" d="M4947.107,3732.97a7.308,7.308,0,0,1-7.169-7.316,7.448,7.448,0,0,1,7.252-7.3c1.532-.028,2.012.432,1.749,2.082a37.557,37.557,0,0,0-.045,10.446C4949.142,3732.955,4949.146,3733,4947.107,3732.97Z" transform="translate(-4911.985 -3668.287)" fill="#fdc498"/>
        <path id="Trazado_121430" data-name="Trazado 121430" d="M5052.155,3847.924a30.129,30.129,0,0,1-19.59,0c-.333-3.932-.325-3.967,3.3-3.16a30.373,30.373,0,0,0,14.71-.4c.45-.121.907-.219,1.363-.32.052-.012.114.024.215.048Z" transform="translate(-4971.533 -3749.2)" fill="#e6a470"/>
        <path id="Trazado_121431" data-name="Trazado 121431" d="M5094.667,3714.722c.122,1.092.19,2.173-1.047,2.733-1.208.548-1.825-.371-2.562-1.043a9.7,9.7,0,0,0-9.655-2.177c-.342.093-.673.222-1.009.333a1.724,1.724,0,0,1-2.452-1.039c-.442-1.2.229-1.92,1.277-2.328a17.256,17.256,0,0,1,7.982-1.076l-.01-.01.314.241a37.181,37.181,0,0,0,6.891,4.18l.3.195Z" transform="translate(-5000.745 -3662.935)" fill="#0d4aad"/>
        <path id="Trazado_121432" data-name="Trazado 121432" d="M5155.887,3732.585c0-1.935-.747-4.468.2-5.634.914-1.129,3.593-.744,5.441-1.233a1.372,1.372,0,0,1,1.841.751,6.466,6.466,0,0,1,1.035,4.347A25.084,25.084,0,0,1,5155.887,3732.585Z" transform="translate(-5050.834 -3672.965)" fill="#e6a470"/>
        <path id="Trazado_121433" data-name="Trazado 121433" d="M5000.615,3696.183a50.183,50.183,0,0,1-14.026,3.927,19.649,19.649,0,0,1-7.709-.014c.9-3.4.9-3.415,4.271-3.076a58.764,58.764,0,0,0,15.71-.708C4999.436,3696.215,5000.029,3696.224,5000.615,3696.183Z" transform="translate(-4937.057 -3654.012)" fill="#e6a470"/>
        <path id="Trazado_121434" data-name="Trazado 121434" d="M5155.556,3741.974a25.093,25.093,0,0,0,8.515-1.769,7.146,7.146,0,0,1-7.955,6.81c-.828-.1-1.125-.354-1-1.2C5155.312,3744.542,5155.415,3743.256,5155.556,3741.974Z" transform="translate(-5050.503 -3682.354)" fill="#fdc498"/>
        <path id="Trazado_121435" data-name="Trazado 121435" d="M5124.681,3722.857l-.3-.194Z" transform="translate(-5030.734 -3671.06)" fill="#fdc498"/>
        <path id="Trazado_121436" data-name="Trazado 121436" d="M5104.471,3710.492l-.314-.241Z" transform="translate(-5017.711 -3663.069)" fill="#fdc498"/>
        <path id="Trazado_121437" data-name="Trazado 121437" d="M5005.568,3710.221a14.2,14.2,0,0,1,5.182,1.077c1.053.394,1.756,1.094,1.34,2.3-.436,1.259-1.4,1.478-2.584,1.041-4.243-1.568-7.988-.945-11.147,2.463a1.621,1.621,0,0,1-2.522.022,1.769,1.769,0,0,1,.137-2.677A12.682,12.682,0,0,1,5005.568,3710.221Z" transform="translate(-4947.617 -3663.049)" fill="#0d4aad"/>
        <path id="Trazado_121438" data-name="Trazado 121438" d="M5021.44,3745.842c.016-1.976.743-2.936,2.246-2.959,1.62-.026,2.374,1.012,2.34,3.222-.028,1.861-.893,2.938-2.337,2.911C5022.207,3748.987,5021.424,3747.882,5021.44,3745.842Z" transform="translate(-4964.458 -3684.077)" fill="#0d4aad"/>
        <path id="Trazado_121439" data-name="Trazado 121439" d="M5090.9,3745.991c-.009,1.915-.791,2.976-2.225,3.021-1.5.048-2.359-1.067-2.361-3.061,0-2.083.75-3.083,2.313-3.072S5090.907,3743.891,5090.9,3745.991Z" transform="translate(-5006.222 -3684.075)" fill="#0d4aad"/>
        <path id="Trazado_121440" data-name="Trazado 121440" d="M5140.592,3645.769a10.071,10.071,0,0,1-5.752-.028c-.439-.271-.872-.555-1.319-.813a8.666,8.666,0,0,1-3.586-10.9,10.848,10.848,0,0,1,4.6-4.711l-.036.032c.292-.084.668.073.865-.292a12.157,12.157,0,0,1,5.827.252c1.929,1.278,3.757,2.636,4.657,4.907C5147.642,3638.75,5145.663,3643.131,5140.592,3645.769Z" transform="translate(-5033.853 -3610.632)" fill="#00cbae"/>
        <path id="Trazado_121441" data-name="Trazado 121441" d="M5161.132,3646.693c5.07-2.639,7.049-7.02,5.253-11.549-.9-2.271-2.729-3.629-4.657-4.907,5.45.566,9.538,3.453,12.916,7.564a.841.841,0,0,1-.042,1.239C5171.1,3643.334,5166.75,3646.127,5161.132,3646.693Z" transform="translate(-5054.392 -3611.555)" fill="#fefefe"/>
        <path id="Trazado_121442" data-name="Trazado 121442" d="M5120.293,3630.261a10.847,10.847,0,0,0-4.6,4.711,8.665,8.665,0,0,0,3.585,10.9c.448.258.88.542,1.319.813a19.5,19.5,0,0,1-13.13-7.523c-.372-.452-.535-.87-.088-1.4C5110.79,3633.708,5114.837,3630.774,5120.293,3630.261Z" transform="translate(-5019.615 -3611.571)" fill="#fefefe"/>
        <path id="Trazado_121443" data-name="Trazado 121443" d="M5144.882,3629.49c-.2.365-.572.208-.865.292C5144.2,3629.374,5144.555,3629.474,5144.882,3629.49Z" transform="translate(-5043.374 -3611.06)" fill="#fefefe"/>
      </g>
    </g>
  </g>
</svg>
