<svg xmlns="http://www.w3.org/2000/svg" width="197.232" height="186.343" viewBox="0 0 197.232 186.343">
  <g id="Grupo_137410" data-name="Grupo 137410" transform="translate(-400.611 -11932.398)">
    <g id="Grupo_78490" data-name="Grupo 78490" transform="translate(407 11932.898)">
      <path id="Trazado_114225" data-name="Trazado 114225" d="M1471.5,508.463c20.372,43.789,55.227,36.913,104.969,13.771s77.405-43.659,57.033-87.448-81.063-94.267-130.805-71.126S1451.133,464.674,1471.5,508.463Z" transform="translate(-1450.259 -355.663)" fill="none" stroke="#ef3c79" stroke-miterlimit="10" stroke-width="2"/>
      <path id="Trazado_114226" data-name="Trazado 114226" d="M1475,473.13c0,48.3,34.5,56.764,89.365,56.764s88.6-6.934,88.6-55.23S1619.227,355,1564.365,355,1475,424.835,1475,473.13Z" transform="translate(-1475 -355)" fill="#e8e8e8" stroke="rgba(0,0,0,0)" stroke-width="1"/>
      <path id="Trazado_114227" data-name="Trazado 114227" d="M1672.818,422.4c0,4.66,3.329,5.477,8.623,5.477s8.549-.669,8.549-5.329S1686.734,411,1681.44,411,1672.818,417.739,1672.818,422.4Z" transform="translate(-1663.769 -368.044)" fill="#00cbae" stroke="rgba(0,0,0,0)" stroke-width="1"/>
      <path id="Trazado_114228" data-name="Trazado 114228" d="M1459.307,451.4c0,4.66,3.329,5.477,8.623,5.477s8.549-.669,8.549-5.329S1473.223,440,1467.93,440,1459.307,446.739,1459.307,451.4Z" transform="translate(-1286.479 -374.798)" fill="#0d4aad" stroke="rgba(0,0,0,0)" stroke-width="1"/>
    </g>
    <g id="Grupo_87377" data-name="Grupo 87377" transform="translate(-5000.631 8321.922)">
      <path id="Trazado_121444" data-name="Trazado 121444" d="M5592.291,3714.541c.127,3.3.348,6.6.362,9.9a128.453,128.453,0,0,1-2.23,24.282c-.534,2.842-1.707,5.192-4.645,6.141-1.093.353-1,1.041-.909,1.85a121.1,121.1,0,0,0,1.912,13.728c.852,3.687.059,6.668-3.146,8.854a13.844,13.844,0,0,1-4.551.614q-18.859-.036-37.717-.008c-6.835.008-13.67.055-20.505.084h-9.788c.6,3.1,1.181,6.1,1.762,9.1,1.054,6.482,1.984,12.988,3.213,19.436a7.578,7.578,0,0,1-2.766,7.963,10.236,10.236,0,0,1-4.669.942q-11.646-.055-23.292,0a10.205,10.205,0,0,1-4.67-.939,7.57,7.57,0,0,1-2.768-7.963c1.234-6.448,2.16-12.955,3.214-19.437.581-3,1.162-6,1.761-9.1H5469.11l-49.3-.008c-.805-.03-1.61-.065-2.415-.089-2.615-.08-5.3.407-7.744-1.015a10.773,10.773,0,0,1-1.645-12.236,2.668,2.668,0,0,1,2.414-1.208,2.559,2.559,0,0,1,1.548,3.4,22.818,22.818,0,0,0-.452,2.376c-.668,3.465-.044,4.24,3.452,4.24q31.513,0,63.025,0c1.4,0,2.794-.055,4.187.017,1.07.055,1.507-.267,1.669-1.412.433-3.048,1.064-6.068,1.573-9.106.1-.61.4-1.33-.3-1.823-3.451-2.412-4.054-5.952-3.726-9.765.165-1.909-.523-2.314-2.319-2.209-11.729.69-23.468,1.221-35.2,1.924-10.845.651-21.682,1.452-32.521,2.188a7.682,7.682,0,0,1-6.59-2.773c-2.1-5.252-2.462-10.844-3-16.368a116.918,116.918,0,0,1,1.645-33.308c1.1-5.785,3.06-7.476,8.989-7.212,15.767.7,31.529,1.47,47.295,2.2.656.03,1.316-.02,1.974-.033,7.25.626,14.525.666,21.79.929,1.179.043,1.962-.1,2.548-1.378.728-1.594,2.312-2.148,4.05-2.147,4.63,0,9.26,0,13.89,0,1.737,0,3.327.589,4.008,2.208.579,1.379,1.455,1.351,2.59,1.3,16.152-.658,32.307-1.246,48.455-1.984,3.586-.164,7.2-.015,10.761-.659,4.31-.165,8.62-.365,12.931-.485,4.336-.121,6.729,1.695,7.546,5.987S5591.617,3710.21,5592.291,3714.541Zm-107.169-2.194a15.756,15.756,0,0,0,0-4.426,20.606,20.606,0,0,1,.145-2.181c.36-2.126-.507-2.67-2.61-2.7-6.883-.1-13.765-.429-20.646-.7q-14.708-.573-29.417-1.183c-7.03-.391-14.059-.806-21.091-1.161-2.66-.135-3.115.315-3.631,2.982a116.211,116.211,0,0,0-.03,44.629c.57,2.938.9,3.287,3.938,3.1,9.159-.561,18.312-1.23,27.473-1.758q20.34-1.172,40.689-2.181c1.2-.061,1.495-.5,1.436-1.584a14.491,14.491,0,0,1,.613-5.212c.491-.7,1.032-1.365,1.461-2.1.508-.869,2.019-1.064,1.677-2.494a16.583,16.583,0,0,0,0-4.6,15.645,15.645,0,0,0-.01-4.418,16.732,16.732,0,0,0,.006-4.775,15.713,15.713,0,0,0,0-4.42A18.176,18.176,0,0,0,5485.122,3712.346Zm23.692,0a18.131,18.131,0,0,0,0,4.824,15.734,15.734,0,0,0,0,4.42,16.715,16.715,0,0,0,.006,4.775,15.63,15.63,0,0,0-.01,4.418,16.527,16.527,0,0,0,0,4.6c.29,2.046,2.492,2.786,3.134,4.592,1.049,2.908.33,5.971.78,8.932-.055,2.345-.12,4.691-.162,7.037a8.189,8.189,0,0,1-3.208,6.708,2.153,2.153,0,0,0-.834,2.468c.526,2.888,1.153,5.764,1.5,8.674.182,1.5.845,1.683,2.125,1.681q33.624-.048,67.248-.026c2.9,0,3.652-.793,3.114-3.576a143.382,143.382,0,0,1-2.105-15.488c-.086-1.038-.432-1.365-1.43-1.419-3.521-.193-7.036-.488-10.555-.7q-21.45-1.311-42.9-2.58c-1.577-.092-2.472-.753-2.655-2.331.361-1.679,1.466-2.208,3.083-2.11,6.089.37,12.183.676,18.271,1.056,12.764.8,25.528,1.592,38.287,2.469,2.238.154,3.195-.737,3.574-2.849a137.809,137.809,0,0,0,2.014-16.613,117.96,117.96,0,0,0-2.139-28.942c-.273-1.422-.906-2.493-2.609-2.4q-11,.6-22,1.2c-.583,0-1.167-.022-1.748,0-15.521.632-31.039,1.295-46.56,1.889-4.679.179-4.682.093-4.22,4.87A15.7,15.7,0,0,0,5508.813,3712.346Zm-12,100.624c4.117,0,8.234.03,12.35-.013,2.126-.022,2.962-1.031,2.614-3.063q-3.692-21.6-7.392-43.193c-.22-1.3-.546-2-2.162-1.974-4.677.083-4.679-.011-4.667,4.764q.006,2.425.006,4.852c0,2.646,0,5.293-.022,7.939a2.061,2.061,0,0,1-2.165,2.273,2.105,2.105,0,0,1-2.175-2.069,13.714,13.714,0,0,1-.056-1.76c0-4.779-.032-9.558.03-14.335.016-1.221-.334-1.562-1.588-1.67-1.782-.153-1.842.969-2.038,2.114q-3.663,21.379-7.317,42.76c-.421,2.461.317,3.356,2.893,3.372C5489.018,3812.989,5492.915,3812.972,5496.811,3812.971Zm-7.135-95.764V3730.2c0,4.726,0,4.658,4.76,4.637,1.431-.007,1.72-.492,1.668-1.776-.09-2.272-.024-4.55-.023-6.825,0-1.434.557-2.493,2.112-2.542,1.67-.053,2.314,1,2.313,2.554,0,2.349.11,4.7-.036,7.044-.1,1.656.839,1.5,1.908,1.52,1.118.022,1.924.044,1.915-1.542q-.094-16.073-.006-32.147c.006-1.348-.557-1.553-1.708-1.536-3.743.055-7.488.087-11.229-.013-1.428-.038-1.71.5-1.7,1.782C5489.709,3706.637,5489.676,3711.922,5489.676,3717.207Zm7.37,22.037c-2.2,0-4.4-.032-6.6.008-2.884.052-4.532,1.61-4.582,4.478q-.106,6.048,0,12.1a4.2,4.2,0,0,0,4.418,4.466q6.705.165,13.418-.006a4.2,4.2,0,0,0,4.366-4.519c.07-4.032.076-8.068,0-12.1-.056-2.841-1.731-4.373-4.64-4.421C5501.3,3739.215,5499.172,3739.243,5497.046,3739.244Z" transform="translate(0 -33.418)" fill="#0d4aad"/>
      <path id="Trazado_121445" data-name="Trazado 121445" d="M5422.943,3825.859c10.839-.735,21.676-1.537,32.521-2.187,11.729-.7,23.467-1.234,35.2-1.924,1.8-.105,2.483.3,2.318,2.209-.329,3.813.275,7.353,3.725,9.765.706.493.407,1.213.305,1.823-.509,3.038-1.14,6.058-1.573,9.106-.162,1.144-.6,1.466-1.669,1.411-1.392-.071-2.791-.017-4.186-.017q-31.513,0-63.025,0c-3.5,0-4.121-.776-3.451-4.24a22.69,22.69,0,0,1,.452-2.376,2.559,2.559,0,0,0-1.548-3.4q.014-.51.028-1.021Q5422.491,3830.433,5422.943,3825.859Z" transform="translate(-11.584 -104.011)" fill="#fed5ba"/>
      <path id="Trazado_121446" data-name="Trazado 121446" d="M5687.85,3946.688c.893-1.495.057-2.511-1.158-3.709-1.3-1.278-.284-3.312,1.67-3.4,1.287-.056,2.009-.372,2.336-1.669a1.967,1.967,0,0,1,2.144-1.526,1.921,1.921,0,0,1,1.972,1.458,1.916,1.916,0,0,0,2.306,1.712,2.013,2.013,0,0,1,2.129,1.567,1.92,1.92,0,0,1-.793,2.324,1.985,1.985,0,0,0-.9,2.761,2.015,2.015,0,0,1-.878,2.494,1.888,1.888,0,0,1-2.456-.048c-1.12-1-1.956-.628-3.07.053C5689.626,3949.639,5687.923,3948.6,5687.85,3946.688Z" transform="translate(-158.904 -167.966)" fill="#ffcb00"/>
      <path id="Trazado_121447" data-name="Trazado 121447" d="M5489.786,3670.468a2.461,2.461,0,0,1-1.982-1.157,1.956,1.956,0,0,1,.18-2.455q2.014-2.177,4.188-4.2a1.937,1.937,0,0,1,2.8.083c1.356,1.228,2.656,2.525,3.9,3.868a2.1,2.1,0,0,1-.061,3.145c-1,1.047-2.088.856-3.142.039a2.937,2.937,0,0,1-.634-.606c-1.117-1.612-2.13-1.325-3.195.082A2.739,2.739,0,0,1,5489.786,3670.468Z" transform="translate(-48.091 -14.963)" fill="#0d4aad"/>
      <path id="Trazado_121448" data-name="Trazado 121448" d="M5539.1,3929.654a2.007,2.007,0,0,1-2.92,2.01,4.679,4.679,0,0,1-1.492-1.273c-.979-1.269-1.812-1.146-2.754.041a3.514,3.514,0,0,1-1.911,1.421,1.9,1.9,0,0,1-2.113-.82,1.949,1.949,0,0,1,.221-2.62q1.821-1.919,3.741-3.744a1.809,1.809,0,0,1,2.418-.328,28.2,28.2,0,0,1,4.531,4.472A2.025,2.025,0,0,1,5539.1,3929.654Z" transform="translate(-70.432 -161.063)" fill="#0605cb"/>
      <path id="Trazado_121449" data-name="Trazado 121449" d="M5530.647,3640.793a2.131,2.131,0,0,1-3.115,2.1,2.949,2.949,0,0,1-.975-.869c-1.209-1.742-2.294-1.452-3.5.047-.925,1.15-2.179,1.662-3.394.482-1.244-1.209-.6-2.36.441-3.4,5.307-5.309,4.271-5.168,9.783.374A5.234,5.234,0,0,1,5530.647,3640.793Z" transform="translate(-65.676 0)" fill="#0d4aad"/>
      <path id="Trazado_121450" data-name="Trazado 121450" d="M5415.777,3827.566q-.453,4.574-.9,9.147c-3.141-.633-4.276-1.715-4.776-4.82-.378-2.355-1.07-4.675-.91-7.1A7.682,7.682,0,0,0,5415.777,3827.566Z" transform="translate(-4.418 -105.719)" fill="#fdf0eb"/>
      <path id="Trazado_121451" data-name="Trazado 121451" d="M5644.292,3741.413a16.523,16.523,0,0,1,0-4.6q31.715.012,63.43.014a7.106,7.106,0,0,0,1.943-.24,1.887,1.887,0,0,0,1.375-2.216,1.866,1.866,0,0,0-1.768-1.9,19.775,19.775,0,0,0-2.2-.046q-31.384-.015-62.77-.028a16.713,16.713,0,0,1-.005-4.775q31.614,0,63.231-.012c1.639,0,3.5.125,3.489-2.253-.011-2.428-1.91-2.147-3.525-2.159l-10.571-.085q-.005-2.327-.01-4.657c3.873-.026,7.745-.069,11.617-.069,1.722,0,2.665-.755,2.49-2.518-.16-1.611-1.394-1.887-2.722-1.9-3.8-.037-7.6-.057-11.4-.084q-.036-3.346-.073-6.693,11-.6,22-1.2c1.7-.093,2.335.977,2.608,2.4a117.962,117.962,0,0,1,2.139,28.942,138.019,138.019,0,0,1-2.014,16.613c-.379,2.111-1.336,3-3.574,2.849-12.758-.877-25.522-1.673-38.287-2.469-6.088-.379-12.182-.686-18.271-1.055-1.616-.1-2.722.431-3.082,2.11l-10.139-.445c-.449-2.961.27-6.023-.779-8.93q9.031.018,18.063.032,21.035.007,42.072-.006c1.677,0,3.424-.131,3.464-2.4.036-2.052-1.518-2.25-3.074-2.25Q5676.12,3741.39,5644.292,3741.413Z" transform="translate(-135.485 -39.448)" fill="#fdf0eb"/>
      <path id="Trazado_121452" data-name="Trazado 121452" d="M5490.738,3727.645a16.736,16.736,0,0,1-.007,4.775l-62.772.027a18.333,18.333,0,0,0-2.2.046,1.866,1.866,0,0,0-1.765,2.123c.059,2.059,1.539,2.244,3.095,2.243q31.827,0,63.653-.021a16.538,16.538,0,0,1,0,4.6q-31.83-.018-63.659-.024a6.237,6.237,0,0,0-1.725.242,1.809,1.809,0,0,0-1.375,1.78,2.113,2.113,0,0,0,.941,2.09,4.548,4.548,0,0,0,2.545.544q30.067-.026,60.134-.039a14.5,14.5,0,0,0-.613,5.212c.059,1.08-.234,1.523-1.436,1.584q-20.348,1.03-40.689,2.181c-9.162.528-18.314,1.2-27.473,1.757-3.037.187-3.367-.163-3.938-3.1a116.212,116.212,0,0,1,.03-44.629c.516-2.667.971-3.117,3.63-2.982,7.032.356,14.061.771,21.091,1.162q-.037,3.346-.073,6.693c-3.8.027-7.6.046-11.4.084-1.547.016-2.811.457-2.739,2.335.066,1.735,1.234,2.091,2.727,2.087,3.8-.009,7.6.04,11.4.065l-.01,4.656c-.585.028-1.172.079-1.758.081q-4.958.012-9.915,0c-1.473-.005-2.418.571-2.449,2.159-.032,1.622,1.016,2.146,2.41,2.247.585.042,1.175.012,1.762.012Z" transform="translate(-5.616 -39.472)" fill="#fdf0eb"/>
      <path id="Trazado_121453" data-name="Trazado 121453" d="M5647.938,3816.685l10.138.445c.182,1.578,1.078,2.239,2.654,2.33q21.453,1.254,42.9,2.58c3.52.215,7.034.51,10.555.7,1,.055,1.344.381,1.43,1.42a143.279,143.279,0,0,0,2.106,15.488c.538,2.783-.215,3.575-3.113,3.576q-33.625.008-67.249.026c-1.28,0-1.944-.178-2.125-1.681-.35-2.909-.977-5.786-1.5-8.674a2.152,2.152,0,0,1,.834-2.467,8.185,8.185,0,0,0,3.208-6.708C5647.818,3821.375,5647.883,3819.03,5647.938,3816.685Z" transform="translate(-135.219 -101.196)" fill="#fed5ba"/>
      <path id="Trazado_121454" data-name="Trazado 121454" d="M5598.833,3900.679c-3.9,0-7.793.018-11.688-.005-2.576-.016-3.315-.911-2.894-3.372q3.66-21.38,7.317-42.76c.2-1.144.256-2.267,2.038-2.114,1.254.108,1.6.449,1.588,1.67-.062,4.778-.031,9.556-.029,14.335a13.631,13.631,0,0,0,.056,1.76,2.106,2.106,0,0,0,2.175,2.069,2.062,2.062,0,0,0,2.165-2.273c.025-2.646.02-5.292.022-7.939q0-2.426-.006-4.851c-.011-4.775-.01-4.68,4.667-4.764,1.615-.029,1.942.676,2.162,1.974q3.67,21.6,7.391,43.193c.348,2.032-.487,3.042-2.614,3.063C5607.068,3900.709,5602.95,3900.679,5598.833,3900.679Z" transform="translate(-102.022 -121.126)" fill="#ef3c79"/>
      <path id="Trazado_121455" data-name="Trazado 121455" d="M5601.2,3722.748c0-5.285.034-10.569-.023-15.854-.014-1.283.268-1.819,1.7-1.782,3.741.1,7.486.068,11.228.013,1.152-.017,1.715.188,1.709,1.537q-.071,16.073.006,32.147c.009,1.586-.8,1.563-1.915,1.542-1.068-.021-2.011.136-1.908-1.52.146-2.34.033-4.695.036-7.043,0-1.558-.642-2.607-2.312-2.555-1.555.049-2.111,1.108-2.112,2.542,0,2.275-.066,4.553.023,6.825.051,1.284-.238,1.769-1.668,1.776-4.76.02-4.76.087-4.76-4.638Z" transform="translate(-111.526 -38.958)" fill="#ef3c79"/>
      <path id="Trazado_121456" data-name="Trazado 121456" d="M5603.729,3794.816c2.126,0,4.254-.028,6.38.007,2.908.048,4.583,1.58,4.64,4.421.08,4.032.073,8.068,0,12.1a4.205,4.205,0,0,1-4.367,4.519q-6.7.182-13.418.006a4.2,4.2,0,0,1-4.418-4.466q-.111-6.048,0-12.1c.05-2.868,1.7-4.426,4.583-4.478C5599.328,3794.784,5601.528,3794.816,5603.729,3794.816Z" transform="translate(-106.683 -88.991)" fill="#fead6a"/>
      <path id="Trazado_121457" data-name="Trazado 121457" d="M5644.5,3786.063q31.83-.018,63.659-.031c1.558,0,3.111.2,3.075,2.25-.041,2.269-1.787,2.4-3.464,2.4q-21.037.019-42.072.006-9.031,0-18.063-.032C5646.987,3788.849,5644.785,3788.108,5644.5,3786.063Z" transform="translate(-135.689 -84.098)" fill="#00cbae"/>
      <path id="Trazado_121458" data-name="Trazado 121458" d="M5503.588,3790.662q-30.067.017-60.134.039a4.546,4.546,0,0,1-2.544-.544,2.112,2.112,0,0,1-.942-2.09,1.807,1.807,0,0,1,1.375-1.78,6.216,6.216,0,0,1,1.725-.242q31.83,0,63.658.024c.342,1.431-1.168,1.625-1.677,2.494C5504.62,3789.3,5504.079,3789.965,5503.588,3790.662Z" transform="translate(-21.598 -84.105)" fill="#00cbae"/>
      <path id="Trazado_121459" data-name="Trazado 121459" d="M5471.977,3715.4l.073-6.693q14.708.593,29.417,1.183c6.881.268,13.763.6,20.646.7,2.1.029,2.97.573,2.61,2.7a20.355,20.355,0,0,0-.145,2.181Z" transform="translate(-39.457 -40.964)" fill="#fed5ba"/>
      <path id="Trazado_121460" data-name="Trazado 121460" d="M5696.8,3708.694q.037,3.347.074,6.693l-52.6.068c-.461-4.777-.458-4.691,4.22-4.87,15.521-.594,31.04-1.257,46.56-1.889C5695.629,3708.672,5696.212,3708.694,5696.8,3708.694Z" transform="translate(-135.454 -40.952)" fill="#fed5ba"/>
      <path id="Trazado_121461" data-name="Trazado 121461" d="M5696.938,3744.71l10.571.085c1.615.013,3.515-.268,3.525,2.16.011,2.378-1.851,2.253-3.489,2.253q-31.614.012-63.23.012a15.738,15.738,0,0,1,0-4.421q14.423,0,28.846,0C5681.087,3744.789,5689.013,3744.742,5696.938,3744.71Z" transform="translate(-135.502 -61.048)" fill="#00cbae"/>
      <path id="Trazado_121462" data-name="Trazado 121462" d="M5644.32,3765.708q31.385.013,62.77.027a19.936,19.936,0,0,1,2.2.045,1.867,1.867,0,0,1,1.769,1.9,1.887,1.887,0,0,1-1.375,2.216,7.088,7.088,0,0,1-1.943.241q-31.715.005-63.43-.015A15.648,15.648,0,0,1,5644.32,3765.708Z" transform="translate(-135.501 -72.761)" fill="#00cbae"/>
      <path id="Trazado_121463" data-name="Trazado 121463" d="M5506.734,3749.221l-62.574-.009c-.588,0-1.178.03-1.762-.012-1.394-.1-2.442-.625-2.41-2.247.031-1.588.977-2.164,2.45-2.159q4.958.016,9.915,0c.586,0,1.172-.052,1.759-.08.658.031,1.318.09,1.976.09q25.323.005,50.646,0A15.736,15.736,0,0,1,5506.734,3749.221Z" transform="translate(-21.612 -61.049)" fill="#00cbae"/>
      <path id="Trazado_121464" data-name="Trazado 121464" d="M5644.315,3723.91l52.6-.067c3.8.027,7.6.047,11.4.083,1.328.013,2.563.29,2.722,1.9.175,1.763-.768,2.518-2.491,2.518-3.872,0-7.744.043-11.616.069-.66-.027-1.318-.078-1.978-.078q-25.319-.005-50.635,0A15.7,15.7,0,0,1,5644.315,3723.91Z" transform="translate(-135.501 -49.408)" fill="#00cbae"/>
      <path id="Trazado_121465" data-name="Trazado 121465" d="M5454.138,3723.842l52.6.068a15.754,15.754,0,0,1,0,4.426c-5.8,0-11.6-.012-17.393,0q-17.61.031-35.22.081c-3.8-.026-7.6-.074-11.4-.065-1.493,0-2.661-.352-2.727-2.087-.072-1.878,1.191-2.32,2.74-2.335C5446.539,3723.888,5450.338,3723.869,5454.138,3723.842Z" transform="translate(-21.618 -49.407)" fill="#00cbae"/>
      <path id="Trazado_121466" data-name="Trazado 121466" d="M5506.742,3770.126q-31.827.013-63.653.021c-1.555,0-3.037-.185-3.1-2.243a1.866,1.866,0,0,1,1.766-2.122,18.286,18.286,0,0,1,2.2-.046l62.771-.027A15.625,15.625,0,0,1,5506.742,3770.126Z" transform="translate(-21.614 -72.761)" fill="#00cbae"/>
      <path id="Trazado_121467" data-name="Trazado 121467" d="M5644.31,3734q25.318,0,50.636,0c.659,0,1.318.051,1.977.078q.005,2.33.009,4.657c-7.925.031-15.851.077-23.776.09q-14.424.023-28.846,0A18.131,18.131,0,0,1,5644.31,3734Z" transform="translate(-135.496 -55.073)" fill="#fed5ba"/>
      <path id="Trazado_121468" data-name="Trazado 121468" d="M5471.938,3734.074q17.609-.041,35.221-.081c5.8-.01,11.6,0,17.392,0a18.092,18.092,0,0,1,0,4.824q-25.322,0-50.646,0c-.659,0-1.317-.058-1.977-.09Q5471.934,3736.4,5471.938,3734.074Z" transform="translate(-39.43 -55.068)" fill="#fed5ba"/>
      <path id="Trazado_121469" data-name="Trazado 121469" d="M5695.327,3658.187a3.836,3.836,0,0,1-1.158-.43,1.949,1.949,0,0,0-2.586-.035,2.162,2.162,0,0,1-2.845-.044,2.08,2.08,0,0,1-.691-2.552,1.654,1.654,0,0,0-.672-2.28,2.191,2.191,0,0,1-.973-2.68,2.16,2.16,0,0,1,2.153-1.6,2,2,0,0,0,2.191-1.637,2.2,2.2,0,0,1,4.176-.052,1.987,1.987,0,0,0,2.156,1.687,2.283,2.283,0,0,1,2.344,1.665,2.23,2.23,0,0,1-1.083,2.639c-1.045.692-.872,1.443-.616,2.459C5698.134,3656.965,5697.159,3658.168,5695.327,3658.187Z" transform="translate(-159.001 -5.649)" fill="#ef3c79"/>
    </g>
  </g>
</svg>
