<svg xmlns="http://www.w3.org/2000/svg" width="184.117" height="179.307" viewBox="0 0 184.117 179.307">
  <g id="Grupo_137412" data-name="Grupo 137412" transform="translate(-390.5 -1641.593)">
    <g id="Grupo_78503" data-name="Grupo 78503" transform="translate(391 1642.093)">
      <path id="Trazado_114225" data-name="Trazado 114225" d="M1471.04,502.73c19.6,42.122,53.125,35.508,100.974,13.247s74.458-42,54.862-84.119S1548.9,341.179,1501.05,363.44,1451.445,460.608,1471.04,502.73Z" transform="translate(-1450.603 -355.746)" fill="none" stroke="#ef3c79" stroke-miterlimit="10" stroke-width="2"/>
      <path id="Trazado_114226" data-name="Trazado 114226" d="M1475,468.634c0,46.457,33.189,54.6,85.963,54.6s85.225-6.67,85.225-53.127S1613.737,355,1560.963,355,1475,422.177,1475,468.634Z" transform="translate(-1475 -355)" fill="#fff" stroke="rgba(0,0,0,0)" stroke-width="1"/>
      <path id="Trazado_114227" data-name="Trazado 114227" d="M1672.817,421.965c0,4.483,3.2,5.268,8.294,5.268s8.224-.643,8.224-5.126S1686.2,411,1681.112,411,1672.817,417.482,1672.817,421.965Z" transform="translate(-1664.113 -369.679)" fill="#00cbae" stroke="rgba(0,0,0,0)" stroke-width="1"/>
      <path id="Trazado_114228" data-name="Trazado 114228" d="M1459.307,450.965c0,4.483,3.2,5.268,8.295,5.268s8.224-.643,8.224-5.126S1472.693,440,1467.6,440,1459.307,446.482,1459.307,450.965Z" transform="translate(-1293.057 -377.28)" fill="#0d4aad" stroke="rgba(0,0,0,0)" stroke-width="1"/>
    </g>
    <g id="_9Re8On" data-name="9Re8On" transform="translate(-3707.217 -1154.33)">
      <g id="Grupo_87380" data-name="Grupo 87380" transform="translate(4131.644 2815.015)">
        <path id="Trazado_121470" data-name="Trazado 121470" d="M4170.616,3226.659a53.953,53.953,0,0,1-2.3-16.4c.253-6.529,1.832-12.653,6.354-17.625,5.527-6.078,12.435-8.466,20.568-7.3.243.035.488.055.732.083l.062.547a21.1,21.1,0,0,0,.2,4.091,10.88,10.88,0,0,0,15.127,8.672c5.007-2.151,7.047-6.231,6.713-11.584l.084-1.213a21.839,21.839,0,0,1,9.673,5.875c5.369,5.713,7.126,12.745,7.051,20.381-.006.587-.18.835-.823.926-1.875.264-2.416.931-2.42,2.809-.009,3.578,0,7.156,0,10.734H4182.7c-.006-3.572,0-7.144-.024-10.716-.015-1.818-.976-2.9-2.441-2.846-1.448.052-2.241,1.042-2.246,2.845-.009,3.572,0,7.144-.006,10.716Z" transform="translate(-4157.458 -3075.72)" fill="#bbd051"/>
        <path id="Trazado_121471" data-name="Trazado 121471" d="M4350.507,3226.431c0-3.578-.006-7.156,0-10.734,0-1.878.545-2.545,2.42-2.81.644-.09.818-.338.824-.925.075-7.637-1.683-14.668-7.051-20.381a21.836,21.836,0,0,0-9.673-5.874.71.71,0,0,1-.006-.253l.214-.265c11.9-2.437,23.33,5,26.506,17.295,1.906,7.377,1.074,14.683-.694,21.953-.162.663-.3,1.329-.456,1.994h-7.369c0-3.336.028-6.672-.017-10.008-.015-1.151-.048-2.377-1.333-3.125-.348,2.4-.723,4.605-.976,6.826-.243,2.138-1.172,4.136-1.211,6.307Z" transform="translate(-4276.335 -3075.491)" fill="#8d9f26"/>
        <path id="Trazado_121472" data-name="Trazado 121472" d="M4201.117,3293.528c0-3.572,0-7.144.005-10.716,0-1.8.8-2.793,2.245-2.845,1.465-.053,2.426,1.028,2.441,2.846.028,3.572.019,7.144.024,10.716Z" transform="translate(-4180.59 -3142.589)" fill="#8ea026"/>
        <path id="Trazado_121473" data-name="Trazado 121473" d="M4386.671,3294.555c.04-2.171.969-4.169,1.212-6.307.253-2.22.626-4.427.976-6.826,1.284.748,1.317,1.975,1.333,3.125.044,3.336.017,6.672.017,10.008Z" transform="translate(-4311.319 -3143.615)" fill="#828d1f"/>
        <path id="Trazado_121474" data-name="Trazado 121474" d="M4176.1,2994.091c-2.08-.495-4.179-.92-6.235-1.5-5.145-1.448-10.018-3.447-13.792-7.436a12.2,12.2,0,0,1-3.6-8.886,52.7,52.7,0,0,1,.224-7.634c.172-1.026-.394-1.119-1.194-1.1-2.2.046-4.383.087-6.447-1.008a9.363,9.363,0,0,1-4.813-10.268,9.231,9.231,0,0,1,8.947-7.3c.392,0,.784-.011,1.176-.016q1.258,4.914,2.516,9.828c.515-2.582.763-5.152,1.042-7.719a102.2,102.2,0,0,1,3.584-19.333c2.616-8.453,9.117-11.212,16.9-7.152,2.26,1.18,4.449,2.5,6.738,3.618a12.618,12.618,0,0,0,8.125,1.316,22.694,22.694,0,0,0,6.537-2.58,48.736,48.736,0,0,1,7.045-3.641,10.126,10.126,0,0,1,3.877,3.709c2.911,4.958,3.612,10.522,4.1,16.121a2.424,2.424,0,0,0-2.759-.181,8.12,8.12,0,0,1-9.018-.013,2.187,2.187,0,0,0-3.075.755,2.228,2.228,0,0,0,.6,3.012c3.813,3.2,11.284,2.814,14.811-.759.783,5.27,1.121,10.588,1.439,15.893.287,4.79.393,9.6.405,14.408a14.162,14.162,0,0,1-6.086,11.812c-5.9,4.461-12.84,6.072-20.065,6.615A63.853,63.853,0,0,1,4176.1,2994.091Zm19.784-23.44a10.9,10.9,0,0,0-7.478,2.817c-1.272,1.146-1.448,2.393-.521,3.466s2.14,1.064,3.5-.011c2.944-2.339,5.813-2.318,8.788.063,1.255,1.006,2.483,1.008,3.4.006s.757-2.373-.447-3.485A10.658,10.658,0,0,0,4195.887,2970.651Zm-25.132-28.122a12.424,12.424,0,0,0-6.633,1.952c-1.308.889-1.662,2.127-.946,3.263a2.308,2.308,0,0,0,3.342.608,8.012,8.012,0,0,1,8.509-.02c1.348.775,2.654.549,3.356-.552.745-1.168.361-2.483-1.016-3.374A12.76,12.76,0,0,0,4170.754,2942.529Zm35.325,12.663h0c0-.639.047-1.282-.01-1.915a2.262,2.262,0,0,0-2.3-2.217,2.181,2.181,0,0,0-2.241,2.116,22.105,22.105,0,0,0-.006,3.826,2.3,2.3,0,0,0,2.363,2.165,2.368,2.368,0,0,0,2.195-2.355C4206.11,2956.274,4206.079,2955.732,4206.079,2955.191Zm-33.257-.045h.009a20.351,20.351,0,0,0-.012-2.057,2.225,2.225,0,0,0-4.431-.01,29.89,29.89,0,0,0,.012,4.114,2.032,2.032,0,0,0,2.2,1.944,2.07,2.07,0,0,0,2.211-1.935A16.405,16.405,0,0,0,4172.822,2955.146Z" transform="translate(-4137.54 -2890.896)" fill="#f5ba92"/>
        <path id="Trazado_121475" data-name="Trazado 121475" d="M4196.956,2847.454a48.711,48.711,0,0,0-7.045,3.641,22.7,22.7,0,0,1-6.537,2.58,12.62,12.62,0,0,1-8.125-1.316c-2.289-1.116-4.479-2.438-6.738-3.618-7.779-4.061-14.281-1.3-16.9,7.151a102.206,102.206,0,0,0-3.584,19.334c-.278,2.567-.527,5.137-1.042,7.719q-1.257-4.914-2.517-9.828-1.707-7.065-3.407-14.131a2.156,2.156,0,0,0-.672-1.1c-4.753-4.522-7.14-10.254-8.185-16.577a38.471,38.471,0,0,1,2.3-21.219c1.353-3.3,3.131-3.788,6.015-1.741,4.381,3.11,9.334,3.557,14.479,3.068,5.378-.512,10.308-2.685,15.429-4.152a53.508,53.508,0,0,1,14.193-2.167,2.024,2.024,0,0,0,.521.227,40.723,40.723,0,0,1,15.176,4.656c3.861,2.183,7.561,4.595,9.308,8.988a.8.8,0,0,0,.77.532,10.023,10.023,0,0,1,5.446,2.652,22.247,22.247,0,0,0,.271,15.934,2.706,2.706,0,0,0-.458.719c-1.042,4.187-2.062,8.38-3.087,12.571-.394-1.451-.791-2.9-1.181-4.352-.995-3.7-2.746-6.915-6.087-9.005A8.138,8.138,0,0,0,4196.956,2847.454Z" transform="translate(-4131.644 -2815.074)" fill="#52668d"/>
        <path id="Trazado_121476" data-name="Trazado 121476" d="M4413.675,2855.8a22.253,22.253,0,0,1-.27-15.934q1.181-2.332,2.363-4.664a29.751,29.751,0,0,1,6.47-5.876,22.162,22.162,0,0,1,10.351-3.281,3.709,3.709,0,0,0,.876.5,16.775,16.775,0,0,1,10.342,7.679,24.183,24.183,0,0,1,3.431,17.888c-1.107,5.987-3.8,11.157-9.141,14.457-2.12,1.309-4.351,2.341-5.368,4.817-.035.084-.139.137-.2.214a14.711,14.711,0,0,1-6.493,4.575c-.881-.64-.663-1.287-.03-1.958a20.306,20.306,0,0,0,3.1-4.252c.423-.779.515-1.269-.6-1.5a21.307,21.307,0,0,1-7.691-3.5A23.032,23.032,0,0,1,4413.675,2855.8Zm16.529-4.964h-.013c0,.541-.009,1.081,0,1.621.03,1.665.9,2.71,2.256,2.709a2.255,2.255,0,0,0,2.21-2.7c-.151-1.774.306-2.534,2.209-2.972a7.927,7.927,0,0,0,5.882-8.177,8.236,8.236,0,0,0-15.772-2.865c-.619,1.46-.284,2.726.879,3.322,1.245.639,2.479.129,3.243-1.339.09-.174.167-.357.266-.525a3.633,3.633,0,0,1,4.169-1.7,3.686,3.686,0,0,1,2.626,3.668,3.507,3.507,0,0,1-2.958,3.361,16.328,16.328,0,0,1-1.752.182,3.385,3.385,0,0,0-3.237,3.21C4430.16,2849.355,4430.2,2850.094,4430.2,2850.832Zm4.486,8.252a2.252,2.252,0,1,0-4.5-.024,2.306,2.306,0,0,0,2.317,2.484A2.271,2.271,0,0,0,4434.691,2859.083Z" transform="translate(-4329.21 -2822.783)" fill="#7bcbf0"/>
        <path id="Trazado_121477" data-name="Trazado 121477" d="M4288.781,2922.474a8.135,8.135,0,0,1,8.339.566c3.343,2.09,5.093,5.3,6.088,9,.39,1.452.787,2.9,1.181,4.352a6.272,6.272,0,0,0,.063.876c.973,4.621,1.565,9.294,2.1,13.984.227,2,.1,4.069.793,6.014a3.533,3.533,0,0,0-.247,1.85q.3,3.827.6,7.655c.074,2.157.066,4.321.236,6.47.568,7.2-3.018,11.921-8.984,15.227a41.042,41.042,0,0,1-13.314,4.459c-1.158.192-1.6.58-1.526,1.769.1,1.665.037,3.34.043,5.01,0,.116.006.232.009.348a.678.678,0,0,0,.006.253q-.042.606-.084,1.213c-.585.018-1.174-.005-1.753.061a60.318,60.318,0,0,1-13.538-.216c-2.259-.252-4.5-.677-6.749-1.023l-.062-.547q.026-3.255.053-6.509a63.888,63.888,0,0,0,10.978.556c7.226-.543,14.17-2.154,20.066-6.615a14.161,14.161,0,0,0,6.086-11.812c-.012-4.81-.118-9.619-.4-14.408-.319-5.305-.657-10.623-1.439-15.893a2.826,2.826,0,0,0-.561-2.814c-.485-5.6-1.186-11.163-4.1-16.121A10.132,10.132,0,0,0,4288.781,2922.474Z" transform="translate(-4223.468 -2890.094)" fill="#e39775"/>
        <path id="Trazado_121478" data-name="Trazado 121478" d="M4459.358,2876.136a14.7,14.7,0,0,0,6.493-4.575c.061-.077.165-.13.2-.214,1.017-2.476,3.248-3.508,5.368-4.817,5.346-3.3,8.034-8.47,9.141-14.457a24.181,24.181,0,0,0-3.43-17.889,16.78,16.78,0,0,0-10.341-7.679,3.685,3.685,0,0,1-.877-.5,21.541,21.541,0,0,1,8.175,41.847,4.235,4.235,0,0,0-2.246,1.716,15.641,15.641,0,0,1-10.937,6.743C4460.4,2876.4,4459.829,2876.56,4459.358,2876.136Z" transform="translate(-4362.53 -2822.75)" fill="#50acdb"/>
        <path id="Trazado_121479" data-name="Trazado 121479" d="M4415.222,3030.085q-.3-3.828-.6-7.655a3.525,3.525,0,0,1,.248-1.851l3.011-9.126a9.31,9.31,0,1,1,1.019,18.588C4417.675,3030.063,4416.449,3030.071,4415.222,3030.085Z" transform="translate(-4330.997 -2953.404)" fill="#f5ba93"/>
        <path id="Trazado_121480" data-name="Trazado 121480" d="M4411.483,2951.782q-1.505,4.563-3.011,9.126c-.7-1.945-.566-4.01-.793-6.013-.531-4.69-1.124-9.363-2.1-13.984a6.123,6.123,0,0,1-.063-.875c1.025-4.191,2.045-8.384,3.086-12.571a2.767,2.767,0,0,1,.458-.719,23.037,23.037,0,0,0,7.149,9.165Z" transform="translate(-4324.599 -2893.733)" fill="#263c5e"/>
        <path id="Trazado_121481" data-name="Trazado 121481" d="M4344.522,2827.43l-2.363,4.664a10.022,10.022,0,0,0-5.446-2.652.8.8,0,0,1-.769-.532c-1.748-4.393-5.447-6.8-9.308-8.988a40.723,40.723,0,0,0-15.176-4.655,2.036,2.036,0,0,1-.521-.227c10.463-.288,20.25,1.912,29.007,7.888A17.219,17.219,0,0,1,4344.522,2827.43Z" transform="translate(-4257.963 -2815.015)" fill="#273d5f"/>
        <path id="Trazado_121482" data-name="Trazado 121482" d="M4337.022,3186.357c0-.116-.006-.232-.009-.348a.375.375,0,0,1,.223.082Z" transform="translate(-4276.334 -3076.394)" fill="#bbd051"/>
        <path id="Trazado_121483" data-name="Trazado 121483" d="M4262.1,3188.16c2.249.347,4.489.771,6.749,1.023a60.346,60.346,0,0,0,13.538.216c.579-.065,1.169-.042,1.753-.061.334,5.354-1.707,9.433-6.713,11.584a10.881,10.881,0,0,1-15.128-8.672A21.062,21.062,0,0,1,4262.1,3188.16Z" transform="translate(-4223.531 -3077.909)" fill="#f5ba92"/>
        <path id="Trazado_121484" data-name="Trazado 121484" d="M4308.65,3084.946a10.658,10.658,0,0,1,7.235,2.857c1.2,1.112,1.365,2.481.448,3.485s-2.144,1-3.4-.006c-2.974-2.381-5.842-2.4-8.788-.063-1.354,1.075-2.572,1.079-3.495.011s-.751-2.32.52-3.467A10.9,10.9,0,0,1,4308.65,3084.946Z" transform="translate(-4250.303 -3005.191)" fill="#283d5e"/>
        <path id="Trazado_121485" data-name="Trazado 121485" d="M4225.117,2989.766a12.769,12.769,0,0,1,6.613,1.878c1.376.891,1.761,2.206,1.016,3.374-.7,1.1-2.008,1.326-3.356.551a8.013,8.013,0,0,0-8.509.021,2.308,2.308,0,0,1-3.343-.608c-.715-1.137-.361-2.375.946-3.264A12.432,12.432,0,0,1,4225.117,2989.766Z" transform="translate(-4191.903 -2938.134)" fill="#283d5e"/>
        <path id="Trazado_121486" data-name="Trazado 121486" d="M4343.431,2990.435a2.825,2.825,0,0,1,.561,2.813c-3.527,3.573-11,3.955-14.811.759a2.226,2.226,0,0,1-.6-3.012,2.187,2.187,0,0,1,3.075-.755,8.121,8.121,0,0,0,9.018.013A2.424,2.424,0,0,1,4343.431,2990.435Z" transform="translate(-4270.145 -2938.226)" fill="#283d5e"/>
        <path id="Trazado_121487" data-name="Trazado 121487" d="M4352.539,3022.765c0,.54.032,1.083-.005,1.621a2.369,2.369,0,0,1-2.2,2.354,2.3,2.3,0,0,1-2.363-2.165,22.057,22.057,0,0,1,.006-3.826,2.18,2.18,0,0,1,2.241-2.116,2.263,2.263,0,0,1,2.3,2.217c.057.634.01,1.276.01,1.915Z" transform="translate(-4284.001 -2958.47)" fill="#283d5e"/>
        <path id="Trazado_121488" data-name="Trazado 121488" d="M4240.326,3022.718a16.5,16.5,0,0,1-.015,2.056,2.07,2.07,0,0,1-2.21,1.935,2.032,2.032,0,0,1-2.2-1.944,29.89,29.89,0,0,1-.013-4.114,2.225,2.225,0,0,1,4.431.01,20.5,20.5,0,0,1,.012,2.057Z" transform="translate(-4205.044 -2958.468)" fill="#263c5e"/>
        <path id="Trazado_121489" data-name="Trazado 121489" d="M4465.038,2868.612c0-.737-.045-1.477.008-2.209a3.386,3.386,0,0,1,3.237-3.21,16.24,16.24,0,0,0,1.752-.182,3.507,3.507,0,0,0,2.958-3.361,3.686,3.686,0,0,0-2.626-3.667,3.631,3.631,0,0,0-4.168,1.7c-.1.168-.177.351-.267.525-.763,1.469-2,1.978-3.243,1.339-1.163-.6-1.5-1.862-.878-3.322a8.236,8.236,0,0,1,15.772,2.865,7.927,7.927,0,0,1-5.881,8.177c-1.9.438-2.361,1.2-2.209,2.972a2.255,2.255,0,0,1-2.209,2.7c-1.353,0-2.227-1.044-2.257-2.709-.01-.541,0-1.081,0-1.622Z" transform="translate(-4364.043 -2840.564)" fill="#253d5f"/>
        <path id="Trazado_121490" data-name="Trazado 121490" d="M4477.925,2932.143a2.27,2.27,0,0,1-2.178,2.46,2.436,2.436,0,0,1-.05-4.863A2.269,2.269,0,0,1,4477.925,2932.143Z" transform="translate(-4372.445 -2895.843)" fill="#273d5f"/>
      </g>
    </g>
  </g>
</svg>
