<?xml version="1.0" encoding="utf-8"?>
<!-- Generator: Adobe Illustrator 25.4.1, SVG Export Plug-In . SVG Version: 6.00 Build 0)  -->
<svg version="1.1" id="Capa_1" xmlns="http://www.w3.org/2000/svg" xmlns:xlink="http://www.w3.org/1999/xlink" x="0px" y="0px"
	 viewBox="0 0 1022 363" style="enable-background:new 0 0 1022 363;" xml:space="preserve">
<style type="text/css">
	.st0{fill:#0D4AAD;}
	.st1{enable-background:new    ;}
	.st2{fill:#FFFFFF;}
	.st3{fill:none;stroke:#EF3C79;stroke-width:2;}
	.st4{fill:#00CBAE;}
	.st5{fill:#12263F;}
	.st6{fill:#CDE2DF;}
</style>
<path id="Rectángulo_35479" class="st0" d="M441,0h140c14.9,0,27,12.1,27,27l0,0c0,14.9-12.1,27-27,27H441c-14.9,0-27-12.1-27-27
	l0,0C414,12.1,426.1,0,441,0z"/>
<g class="st1">
	<path class="st2" d="M454.8,27.7c-0.1,1.4-0.6,2.5-1.5,3.3s-2.1,1.2-3.6,1.2c-1.6,0-2.9-0.6-3.9-1.7s-1.4-2.6-1.4-4.5v-0.8
		c0-1.2,0.2-2.3,0.7-3.3s1.1-1.7,1.9-2.2c0.8-0.5,1.7-0.8,2.8-0.8c1.5,0,2.7,0.4,3.6,1.2s1.4,1.9,1.6,3.3h-2.6
		c-0.1-0.8-0.3-1.4-0.7-1.8s-1-0.6-1.8-0.6c-0.9,0-1.5,0.3-2,0.9s-0.7,1.6-0.7,2.9v1c0,1.4,0.2,2.4,0.6,3s1.1,1,2,1
		c0.8,0,1.4-0.2,1.8-0.6s0.6-0.9,0.7-1.7H454.8z"/>
	<path class="st2" d="M456,27.2c0-0.9,0.2-1.8,0.5-2.5s0.9-1.3,1.6-1.7s1.5-0.6,2.4-0.6c1.3,0,2.3,0.4,3.1,1.2s1.3,1.9,1.4,3.2
		l0,0.7c0,1.5-0.4,2.6-1.2,3.5s-1.9,1.3-3.3,1.3s-2.5-0.4-3.3-1.3s-1.2-2.1-1.2-3.6V27.2z M458.5,27.3c0,0.9,0.2,1.6,0.5,2.1
		c0.3,0.5,0.8,0.7,1.5,0.7c0.6,0,1.1-0.2,1.4-0.7c0.3-0.5,0.5-1.2,0.5-2.3c0-0.9-0.2-1.6-0.5-2.1s-0.8-0.7-1.5-0.7
		c-0.6,0-1.1,0.2-1.4,0.7C458.7,25.6,458.5,26.3,458.5,27.3z"/>
	<path class="st2" d="M468.9,22.5l0.1,1.1c0.7-0.8,1.6-1.2,2.7-1.2c1.2,0,2.1,0.5,2.5,1.5c0.7-1,1.6-1.5,2.9-1.5
		c1,0,1.8,0.3,2.3,0.9c0.5,0.6,0.8,1.5,0.8,2.7V32h-2.5v-6.1c0-0.5-0.1-0.9-0.3-1.2s-0.6-0.4-1.1-0.4c-0.8,0-1.3,0.4-1.6,1.1l0,6.5
		h-2.5v-6.1c0-0.6-0.1-0.9-0.3-1.2s-0.6-0.4-1.1-0.4c-0.7,0-1.2,0.3-1.6,0.9V32h-2.5v-9.5H468.9z"/>
	<path class="st2" d="M482.1,20c0-0.4,0.1-0.7,0.4-0.9s0.6-0.4,1-0.4c0.4,0,0.8,0.1,1,0.4s0.4,0.6,0.4,0.9c0,0.4-0.1,0.7-0.4,0.9
		s-0.6,0.4-1,0.4s-0.8-0.1-1-0.4S482.1,20.4,482.1,20z M484.8,32h-2.5v-9.5h2.5V32z"/>
	<path class="st2" d="M490,20.2v2.3h1.6v1.9H490v4.7c0,0.4,0.1,0.6,0.2,0.8s0.4,0.2,0.8,0.2c0.3,0,0.5,0,0.7-0.1v1.9
		c-0.5,0.2-1,0.2-1.5,0.2c-1.8,0-2.7-0.9-2.7-2.7v-5.1H486v-1.9h1.4v-2.3H490z"/>
	<path class="st2" d="M497.4,32.2c-1.4,0-2.5-0.4-3.4-1.3s-1.3-2-1.3-3.4v-0.2c0-1,0.2-1.8,0.6-2.6s0.9-1.3,1.6-1.7s1.4-0.6,2.3-0.6
		c1.3,0,2.3,0.4,3.1,1.2s1.1,2,1.1,3.5v1h-6.1c0.1,0.6,0.3,1.1,0.7,1.5s0.9,0.6,1.6,0.6c1,0,1.7-0.4,2.3-1.1l1.2,1.4
		c-0.4,0.5-0.9,1-1.5,1.3C498.9,32,498.2,32.2,497.4,32.2z M497.1,24.4c-0.5,0-0.9,0.2-1.2,0.5c-0.3,0.3-0.5,0.8-0.6,1.5h3.5v-0.2
		c0-0.6-0.2-1-0.5-1.3C498,24.5,497.6,24.4,497.1,24.4z M497.3,18.5h2.8l-2.4,2.7h-2.1L497.3,18.5z"/>
	<path class="st2" d="M507.4,32V19.2h3.9c1.1,0,2.1,0.3,3,0.8c0.9,0.5,1.6,1.2,2.1,2.2c0.5,0.9,0.7,2,0.7,3.2v0.6
		c0,1.2-0.2,2.2-0.7,3.2s-1.2,1.6-2.1,2.2s-1.9,0.8-3,0.8H507.4z M510,21.3v8.5h1.3c1,0,1.8-0.3,2.4-1s0.8-1.6,0.8-2.9v-0.7
		c0-1.3-0.3-2.3-0.8-3s-1.3-1-2.4-1H510z"/>
	<path class="st2" d="M518.9,20c0-0.4,0.1-0.7,0.4-0.9s0.6-0.4,1-0.4c0.4,0,0.8,0.1,1,0.4s0.4,0.6,0.4,0.9c0,0.4-0.1,0.7-0.4,0.9
		s-0.6,0.4-1,0.4s-0.8-0.1-1-0.4S518.9,20.4,518.9,20z M521.6,32H519v-9.5h2.5V32z"/>
	<path class="st2" d="M529,24.9c-0.3,0-0.7-0.1-0.9-0.1c-1,0-1.6,0.3-1.9,1V32h-2.5v-9.5h2.4l0.1,1.1c0.5-0.9,1.2-1.3,2.1-1.3
		c0.3,0,0.5,0,0.8,0.1L529,24.9z"/>
	<path class="st2" d="M534.6,32.2c-1.4,0-2.5-0.4-3.4-1.3s-1.3-2-1.3-3.4v-0.2c0-1,0.2-1.8,0.6-2.6s0.9-1.3,1.6-1.7s1.4-0.6,2.3-0.6
		c1.3,0,2.3,0.4,3.1,1.2s1.1,2,1.1,3.5v1h-6.1c0.1,0.6,0.3,1.1,0.7,1.5s0.9,0.6,1.6,0.6c1,0,1.7-0.4,2.3-1.1l1.2,1.4
		c-0.4,0.5-0.9,1-1.5,1.3C536.1,32,535.4,32.2,534.6,32.2z M534.3,24.4c-0.5,0-0.9,0.2-1.2,0.5c-0.3,0.3-0.5,0.8-0.6,1.5h3.5v-0.2
		c0-0.6-0.2-1-0.5-1.3C535.3,24.5,534.9,24.4,534.3,24.4z"/>
	<path class="st2" d="M543.9,30.1c0.5,0,0.8-0.1,1.1-0.4s0.4-0.6,0.5-1h2.4c0,0.6-0.2,1.2-0.5,1.8c-0.3,0.5-0.8,1-1.4,1.2
		c-0.6,0.3-1.3,0.4-2,0.4c-1.4,0-2.4-0.4-3.2-1.3c-0.8-0.9-1.2-2.1-1.2-3.6v-0.2c0-1.5,0.4-2.6,1.2-3.5s1.8-1.3,3.2-1.3
		c1.2,0,2.1,0.3,2.9,1c0.7,0.7,1.1,1.6,1.1,2.7h-2.4c0-0.5-0.2-0.9-0.5-1.2s-0.7-0.5-1.2-0.5c-0.6,0-1,0.2-1.3,0.6
		c-0.3,0.4-0.5,1.1-0.5,2.1v0.3c0,1,0.1,1.7,0.4,2.1S543.3,30.1,543.9,30.1z"/>
	<path class="st2" d="M552.4,20.2v2.3h1.6v1.9h-1.6v4.7c0,0.4,0.1,0.6,0.2,0.8s0.4,0.2,0.8,0.2c0.3,0,0.5,0,0.7-0.1v1.9
		c-0.5,0.2-1,0.2-1.5,0.2c-1.8,0-2.7-0.9-2.7-2.7v-5.1h-1.4v-1.9h1.4v-2.3H552.4z"/>
	<path class="st2" d="M555.4,20c0-0.4,0.1-0.7,0.4-0.9s0.6-0.4,1-0.4c0.4,0,0.8,0.1,1,0.4s0.4,0.6,0.4,0.9c0,0.4-0.1,0.7-0.4,0.9
		s-0.6,0.4-1,0.4s-0.8-0.1-1-0.4S555.4,20.4,555.4,20z M558.1,32h-2.5v-9.5h2.5V32z"/>
	<path class="st2" d="M563.8,28.9l1.8-6.4h2.7L565,32h-2.4l-3.2-9.5h2.7L563.8,28.9z"/>
	<path class="st2" d="M568.8,27.2c0-0.9,0.2-1.8,0.5-2.5s0.9-1.3,1.6-1.7s1.5-0.6,2.4-0.6c1.3,0,2.3,0.4,3.1,1.2s1.3,1.9,1.4,3.2
		l0,0.7c0,1.5-0.4,2.6-1.2,3.5s-1.9,1.3-3.3,1.3s-2.5-0.4-3.3-1.3s-1.2-2.1-1.2-3.6V27.2z M571.3,27.3c0,0.9,0.2,1.6,0.5,2.1
		c0.3,0.5,0.8,0.7,1.5,0.7c0.6,0,1.1-0.2,1.4-0.7c0.3-0.5,0.5-1.2,0.5-2.3c0-0.9-0.2-1.6-0.5-2.1s-0.8-0.7-1.5-0.7
		c-0.6,0-1.1,0.2-1.4,0.7C571.5,25.6,571.3,26.3,571.3,27.3z"/>
</g>
<line id="Línea_202" class="st3" x1="97.5" y1="88.5" x2="945.8" y2="88.5"/>
<line id="Línea_203" class="st3" x1="97.5" y1="223.5" x2="945.8" y2="223.5"/>
<line id="Línea_204" class="st3" x1="97.5" y1="88.5" x2="97.5" y2="167"/>
<line id="Línea_209" class="st3" x1="97.5" y1="222" x2="97.5" y2="300.5"/>
<line id="Línea_205" class="st3" x1="303.3" y1="88.5" x2="303.3" y2="167"/>
<line id="Línea_210" class="st3" x1="303.3" y1="222" x2="303.3" y2="300.5"/>
<line id="Línea_206" class="st3" x1="719" y1="88.5" x2="719" y2="167"/>
<line id="Línea_211" class="st3" x1="719" y1="222" x2="719" y2="300.5"/>
<line id="Línea_208" class="st3" x1="511" y1="54.5" x2="511" y2="255.5"/>
<line id="Línea_207" class="st3" x1="945.8" y1="88.5" x2="945.8" y2="167"/>
<line id="Línea_212" class="st3" x1="945.8" y1="222" x2="945.8" y2="300.5"/>
<path id="Rectángulo_35479-2" class="st4" d="M27,119h140c14.9,0,27,12.1,27,27v20c0,14.9-12.1,27-27,27H27c-14.9,0-27-12.1-27-27
	v-20C0,131.1,12.1,119,27,119z"/>
<g class="st1">
	<path class="st5" d="M26.9,152v-12.8h3.9c1.1,0,2.1,0.3,3,0.8c0.9,0.5,1.6,1.2,2.1,2.2c0.5,0.9,0.7,2,0.7,3.2v0.6
		c0,1.2-0.2,2.2-0.7,3.2s-1.2,1.6-2.1,2.2s-1.9,0.8-3,0.8H26.9z M29.6,141.3v8.5h1.3c1,0,1.8-0.3,2.4-1s0.8-1.6,0.8-2.9v-0.7
		c0-1.3-0.3-2.3-0.8-3s-1.3-1-2.4-1H29.6z"/>
	<path class="st5" d="M42.8,152.2c-1.4,0-2.5-0.4-3.4-1.3s-1.3-2-1.3-3.4v-0.2c0-1,0.2-1.8,0.6-2.6s0.9-1.3,1.6-1.7s1.4-0.6,2.3-0.6
		c1.3,0,2.3,0.4,3.1,1.2s1.1,2,1.1,3.5v1h-6.1c0.1,0.6,0.3,1.1,0.7,1.5s0.9,0.6,1.6,0.6c1,0,1.7-0.4,2.3-1.1l1.2,1.4
		c-0.4,0.5-0.9,1-1.5,1.3C44.3,152,43.6,152.2,42.8,152.2z M42.5,144.4c-0.5,0-0.9,0.2-1.2,0.5c-0.3,0.3-0.5,0.8-0.6,1.5h3.5v-0.2
		c0-0.6-0.2-1-0.5-1.3C43.5,144.5,43.1,144.4,42.5,144.4z"/>
	<path class="st5" d="M56.7,147.3c0,1.5-0.3,2.6-1,3.5s-1.6,1.3-2.7,1.3c-1,0-1.7-0.3-2.3-1v4.5h-2.5v-13.2h2.4l0.1,0.9
		c0.6-0.7,1.4-1.1,2.4-1.1c1.2,0,2.1,0.4,2.7,1.3s1,2.1,1,3.6V147.3z M54.2,147.1c0-0.9-0.2-1.6-0.5-2s-0.8-0.7-1.4-0.7
		c-0.8,0-1.3,0.3-1.6,0.9v3.9c0.3,0.6,0.9,0.9,1.7,0.9C53.6,150.1,54.2,149.1,54.2,147.1z"/>
	<path class="st5" d="M63.8,152c-0.1-0.2-0.2-0.5-0.3-0.9c-0.6,0.7-1.4,1-2.4,1c-0.9,0-1.7-0.3-2.3-0.8s-0.9-1.2-0.9-2
		c0-1,0.4-1.8,1.1-2.3s1.8-0.8,3.2-0.8h1.2v-0.5c0-0.4-0.1-0.8-0.3-1.1s-0.6-0.4-1.1-0.4c-0.4,0-0.8,0.1-1,0.3s-0.4,0.5-0.4,0.8
		h-2.5c0-0.6,0.2-1.1,0.5-1.5s0.8-0.8,1.4-1.1s1.3-0.4,2.1-0.4c1.2,0,2.1,0.3,2.8,0.9c0.7,0.6,1,1.4,1,2.5v4.1c0,0.9,0.1,1.6,0.4,2
		v0.1H63.8z M61.7,150.2c0.4,0,0.7-0.1,1-0.3c0.3-0.2,0.6-0.4,0.7-0.7v-1.6h-0.9c-1.3,0-1.9,0.4-2,1.3l0,0.1c0,0.3,0.1,0.6,0.3,0.8
		S61.3,150.2,61.7,150.2z"/>
	<path class="st5" d="M73.3,144.9c-0.3,0-0.7-0.1-0.9-0.1c-1,0-1.6,0.3-1.9,1v6.2H68v-9.5h2.4l0.1,1.1c0.5-0.9,1.2-1.3,2.1-1.3
		c0.3,0,0.5,0,0.8,0.1L73.3,144.9z"/>
	<path class="st5" d="M78,140.2v2.3h1.6v1.9H78v4.7c0,0.4,0.1,0.6,0.2,0.8s0.4,0.2,0.8,0.2c0.3,0,0.5,0,0.7-0.1v1.9
		c-0.5,0.2-1,0.2-1.5,0.2c-1.8,0-2.7-0.9-2.7-2.7v-5.1h-1.4v-1.9h1.4v-2.3H78z"/>
	<path class="st5" d="M86.6,152c-0.1-0.2-0.2-0.5-0.3-0.9c-0.6,0.7-1.4,1-2.4,1c-0.9,0-1.7-0.3-2.3-0.8s-0.9-1.2-0.9-2
		c0-1,0.4-1.8,1.1-2.3s1.8-0.8,3.2-0.8h1.2v-0.5c0-0.4-0.1-0.8-0.3-1.1s-0.6-0.4-1.1-0.4c-0.4,0-0.8,0.1-1,0.3s-0.4,0.5-0.4,0.8
		h-2.5c0-0.6,0.2-1.1,0.5-1.5s0.8-0.8,1.4-1.1s1.3-0.4,2.1-0.4c1.2,0,2.1,0.3,2.8,0.9c0.7,0.6,1,1.4,1,2.5v4.1c0,0.9,0.1,1.6,0.4,2
		v0.1H86.6z M84.5,150.2c0.4,0,0.7-0.1,1-0.3c0.3-0.2,0.6-0.4,0.7-0.7v-1.6h-0.9c-1.3,0-1.9,0.4-2,1.3l0,0.1c0,0.3,0.1,0.6,0.3,0.8
		S84.1,150.2,84.5,150.2z"/>
	<path class="st5" d="M93.1,142.5l0.1,1.1c0.7-0.8,1.6-1.2,2.7-1.2c1.2,0,2.1,0.5,2.5,1.5c0.7-1,1.6-1.5,2.9-1.5
		c1,0,1.8,0.3,2.3,0.9c0.5,0.6,0.8,1.5,0.8,2.7v6.1h-2.5v-6.1c0-0.5-0.1-0.9-0.3-1.2s-0.6-0.4-1.1-0.4c-0.8,0-1.3,0.4-1.6,1.1l0,6.5
		h-2.5v-6.1c0-0.6-0.1-0.9-0.3-1.2s-0.6-0.4-1.1-0.4c-0.7,0-1.2,0.3-1.6,0.9v6.7h-2.5v-9.5H93.1z"/>
	<path class="st5" d="M110.7,152.2c-1.4,0-2.5-0.4-3.4-1.3s-1.3-2-1.3-3.4v-0.2c0-1,0.2-1.8,0.6-2.6s0.9-1.3,1.6-1.7
		s1.4-0.6,2.3-0.6c1.3,0,2.3,0.4,3.1,1.2s1.1,2,1.1,3.5v1h-6.1c0.1,0.6,0.3,1.1,0.7,1.5s0.9,0.6,1.6,0.6c1,0,1.7-0.4,2.3-1.1
		l1.2,1.4c-0.4,0.5-0.9,1-1.5,1.3C112.2,152,111.5,152.2,110.7,152.2z M110.4,144.4c-0.5,0-0.9,0.2-1.2,0.5
		c-0.3,0.3-0.5,0.8-0.6,1.5h3.5v-0.2c0-0.6-0.2-1-0.5-1.3C111.3,144.5,110.9,144.4,110.4,144.4z"/>
	<path class="st5" d="M118.4,142.5l0.1,1.1c0.7-0.8,1.6-1.3,2.7-1.3c1,0,1.8,0.3,2.2,0.9s0.7,1.5,0.8,2.7v6.1h-2.5v-6.1
		c0-0.5-0.1-0.9-0.4-1.2c-0.2-0.2-0.6-0.4-1.2-0.4c-0.7,0-1.3,0.3-1.6,0.9v6.7H116v-9.5H118.4z"/>
	<path class="st5" d="M129.1,140.2v2.3h1.6v1.9h-1.6v4.7c0,0.4,0.1,0.6,0.2,0.8s0.4,0.2,0.8,0.2c0.3,0,0.5,0,0.7-0.1v1.9
		c-0.5,0.2-1,0.2-1.5,0.2c-1.8,0-2.7-0.9-2.7-2.7v-5.1h-1.4v-1.9h1.4v-2.3H129.1z"/>
	<path class="st5" d="M131.5,147.2c0-0.9,0.2-1.8,0.5-2.5s0.9-1.3,1.6-1.7s1.5-0.6,2.4-0.6c1.3,0,2.3,0.4,3.1,1.2s1.3,1.9,1.4,3.2
		l0,0.7c0,1.5-0.4,2.6-1.2,3.5s-1.9,1.3-3.3,1.3s-2.5-0.4-3.3-1.3s-1.2-2.1-1.2-3.6V147.2z M134.1,147.3c0,0.9,0.2,1.6,0.5,2.1
		c0.3,0.5,0.8,0.7,1.5,0.7c0.6,0,1.1-0.2,1.4-0.7c0.3-0.5,0.5-1.2,0.5-2.3c0-0.9-0.2-1.6-0.5-2.1s-0.8-0.7-1.5-0.7
		c-0.6,0-1.1,0.2-1.4,0.7C134.2,145.6,134.1,146.3,134.1,147.3z"/>
	<path class="st5" d="M146.2,147.2c0-1.5,0.3-2.7,1-3.5s1.6-1.3,2.7-1.3c0.9,0,1.7,0.3,2.3,1v-4.9h2.5V152h-2.3l-0.1-1
		c-0.6,0.8-1.4,1.2-2.4,1.2c-1.1,0-2-0.4-2.7-1.3S146.2,148.7,146.2,147.2z M148.7,147.4c0,0.9,0.2,1.6,0.5,2.1s0.8,0.7,1.4,0.7
		c0.8,0,1.3-0.3,1.7-1v-3.8c-0.3-0.7-0.9-1-1.6-1C149.3,144.4,148.7,145.4,148.7,147.4z"/>
	<path class="st5" d="M161.1,152.2c-1.4,0-2.5-0.4-3.4-1.3s-1.3-2-1.3-3.4v-0.2c0-1,0.2-1.8,0.6-2.6s0.9-1.3,1.6-1.7
		s1.4-0.6,2.3-0.6c1.3,0,2.3,0.4,3.1,1.2s1.1,2,1.1,3.5v1H159c0.1,0.6,0.3,1.1,0.7,1.5s0.9,0.6,1.6,0.6c1,0,1.7-0.4,2.3-1.1l1.2,1.4
		c-0.4,0.5-0.9,1-1.5,1.3C162.6,152,161.9,152.2,161.1,152.2z M160.8,144.4c-0.5,0-0.9,0.2-1.2,0.5c-0.3,0.3-0.5,0.8-0.6,1.5h3.5
		v-0.2c0-0.6-0.2-1-0.5-1.3C161.8,144.5,161.3,144.4,160.8,144.4z"/>
</g>
<g class="st1">
	<path class="st5" d="M35.2,172.7c-0.1,1.4-0.6,2.5-1.5,3.3s-2.1,1.2-3.6,1.2c-1.6,0-2.9-0.6-3.9-1.7s-1.4-2.6-1.4-4.5v-0.8
		c0-1.2,0.2-2.3,0.7-3.3s1.1-1.7,1.9-2.2c0.8-0.5,1.7-0.8,2.8-0.8c1.5,0,2.7,0.4,3.6,1.2s1.4,1.9,1.6,3.3h-2.6
		c-0.1-0.8-0.3-1.4-0.7-1.8s-1-0.6-1.8-0.6c-0.9,0-1.5,0.3-2,0.9s-0.7,1.6-0.7,2.9v1c0,1.4,0.2,2.4,0.6,3s1.1,1,2,1
		c0.8,0,1.4-0.2,1.8-0.6s0.6-0.9,0.7-1.7H35.2z"/>
	<path class="st5" d="M36.8,165c0-0.4,0.1-0.7,0.4-0.9s0.6-0.4,1-0.4c0.4,0,0.8,0.1,1,0.4s0.4,0.6,0.4,0.9c0,0.4-0.1,0.7-0.4,0.9
		s-0.6,0.4-1,0.4s-0.8-0.1-1-0.4S36.8,165.4,36.8,165z M39.5,177h-2.5v-9.5h2.5V177z"/>
	<path class="st5" d="M45.9,177.2c-1.4,0-2.5-0.4-3.4-1.3s-1.3-2-1.3-3.4v-0.2c0-1,0.2-1.8,0.6-2.6s0.9-1.3,1.6-1.7s1.4-0.6,2.3-0.6
		c1.3,0,2.3,0.4,3.1,1.2s1.1,2,1.1,3.5v1h-6.1c0.1,0.6,0.3,1.1,0.7,1.5s0.9,0.6,1.6,0.6c1,0,1.7-0.4,2.3-1.1l1.2,1.4
		c-0.4,0.5-0.9,1-1.5,1.3C47.5,177,46.7,177.2,45.9,177.2z M45.7,169.4c-0.5,0-0.9,0.2-1.2,0.5c-0.3,0.3-0.5,0.8-0.6,1.5h3.5v-0.2
		c0-0.6-0.2-1-0.5-1.3C46.6,169.5,46.2,169.4,45.7,169.4z"/>
	<path class="st5" d="M53.6,167.5l0.1,1.1c0.7-0.8,1.6-1.3,2.7-1.3c1,0,1.8,0.3,2.2,0.9s0.7,1.5,0.8,2.7v6.1h-2.5v-6.1
		c0-0.5-0.1-0.9-0.4-1.2c-0.2-0.2-0.6-0.4-1.2-0.4c-0.7,0-1.3,0.3-1.6,0.9v6.7h-2.5v-9.5H53.6z"/>
	<path class="st5" d="M65.3,175.1c0.5,0,0.8-0.1,1.1-0.4s0.4-0.6,0.5-1h2.4c0,0.6-0.2,1.2-0.5,1.8c-0.3,0.5-0.8,1-1.4,1.2
		c-0.6,0.3-1.3,0.4-2,0.4c-1.4,0-2.4-0.4-3.2-1.3c-0.8-0.9-1.2-2.1-1.2-3.6v-0.2c0-1.5,0.4-2.6,1.2-3.5s1.8-1.3,3.2-1.3
		c1.2,0,2.1,0.3,2.9,1c0.7,0.7,1.1,1.6,1.1,2.7h-2.4c0-0.5-0.2-0.9-0.5-1.2s-0.7-0.5-1.2-0.5c-0.6,0-1,0.2-1.3,0.6
		c-0.3,0.4-0.5,1.1-0.5,2.1v0.3c0,1,0.1,1.7,0.4,2.1S64.7,175.1,65.3,175.1z"/>
	<path class="st5" d="M70.8,165c0-0.4,0.1-0.7,0.4-0.9s0.6-0.4,1-0.4c0.4,0,0.8,0.1,1,0.4s0.4,0.6,0.4,0.9c0,0.4-0.1,0.7-0.4,0.9
		s-0.6,0.4-1,0.4s-0.8-0.1-1-0.4S70.8,165.4,70.8,165z M73.4,177h-2.5v-9.5h2.5V177z"/>
	<path class="st5" d="M81.1,177c-0.1-0.2-0.2-0.5-0.3-0.9c-0.6,0.7-1.4,1-2.4,1c-0.9,0-1.7-0.3-2.3-0.8s-0.9-1.2-0.9-2
		c0-1,0.4-1.8,1.1-2.3s1.8-0.8,3.2-0.8h1.2v-0.5c0-0.4-0.1-0.8-0.3-1.1s-0.6-0.4-1.1-0.4c-0.4,0-0.8,0.1-1,0.3s-0.4,0.5-0.4,0.8
		h-2.5c0-0.6,0.2-1.1,0.5-1.5s0.8-0.8,1.4-1.1s1.3-0.4,2.1-0.4c1.2,0,2.1,0.3,2.8,0.9c0.7,0.6,1,1.4,1,2.5v4.1c0,0.9,0.1,1.6,0.4,2
		v0.1H81.1z M79,175.2c0.4,0,0.7-0.1,1-0.3c0.3-0.2,0.6-0.4,0.7-0.7v-1.6h-0.9c-1.3,0-1.9,0.4-2,1.3l0,0.1c0,0.3,0.1,0.6,0.3,0.8
		S78.6,175.2,79,175.2z"/>
	<path class="st5" d="M90.3,174.4c0-0.3-0.2-0.6-0.5-0.7s-0.8-0.3-1.5-0.5c-2.3-0.5-3.4-1.4-3.4-2.9c0-0.8,0.4-1.5,1.1-2.1
		c0.7-0.6,1.6-0.8,2.7-0.8c1.2,0,2.2,0.3,2.9,0.9s1.1,1.3,1.1,2.2h-2.5c0-0.4-0.1-0.7-0.4-0.9c-0.2-0.2-0.6-0.4-1.1-0.4
		c-0.4,0-0.8,0.1-1,0.3s-0.4,0.4-0.4,0.7c0,0.3,0.1,0.5,0.4,0.7c0.3,0.2,0.7,0.3,1.3,0.4s1.2,0.3,1.6,0.4c1.3,0.5,2,1.3,2,2.6
		c0,0.9-0.4,1.6-1.1,2.1c-0.7,0.5-1.7,0.8-2.9,0.8c-0.8,0-1.5-0.1-2.1-0.4c-0.6-0.3-1.1-0.7-1.5-1.2c-0.4-0.5-0.5-1-0.5-1.6h2.4
		c0,0.5,0.2,0.8,0.5,1s0.7,0.4,1.2,0.4c0.5,0,0.9-0.1,1.1-0.3C90.2,174.9,90.3,174.7,90.3,174.4z"/>
	<path class="st5" d="M105.7,173.6c0-0.5-0.2-0.9-0.5-1.1s-1-0.5-1.9-0.8s-1.6-0.6-2.2-0.9c-1.5-0.8-2.2-1.8-2.2-3.2
		c0-0.7,0.2-1.3,0.6-1.9c0.4-0.5,0.9-1,1.7-1.3s1.5-0.5,2.5-0.5c0.9,0,1.7,0.2,2.4,0.5c0.7,0.3,1.3,0.8,1.7,1.4s0.6,1.3,0.6,2.1
		h-2.6c0-0.6-0.2-1-0.6-1.4c-0.4-0.3-0.9-0.5-1.6-0.5c-0.6,0-1.1,0.1-1.5,0.4c-0.4,0.3-0.5,0.6-0.5,1.1c0,0.4,0.2,0.8,0.6,1
		s1,0.5,1.9,0.8c1.5,0.5,2.6,1,3.3,1.7s1,1.5,1,2.5c0,1.1-0.4,2-1.3,2.6c-0.8,0.6-2,0.9-3.4,0.9c-1,0-1.9-0.2-2.7-0.5
		c-0.8-0.4-1.4-0.9-1.9-1.5s-0.6-1.4-0.6-2.2h2.6c0,1.4,0.8,2.1,2.5,2.1c0.6,0,1.1-0.1,1.5-0.4C105.6,174.5,105.7,174.1,105.7,173.6
		z"/>
	<path class="st5" d="M109.6,172.2c0-0.9,0.2-1.8,0.5-2.5s0.9-1.3,1.6-1.7s1.5-0.6,2.4-0.6c1.3,0,2.3,0.4,3.1,1.2s1.3,1.9,1.4,3.2
		l0,0.7c0,1.5-0.4,2.6-1.2,3.5s-1.9,1.3-3.3,1.3s-2.5-0.4-3.3-1.3s-1.2-2.1-1.2-3.6V172.2z M112.1,172.3c0,0.9,0.2,1.6,0.5,2.1
		c0.3,0.5,0.8,0.7,1.5,0.7c0.6,0,1.1-0.2,1.4-0.7c0.3-0.5,0.5-1.2,0.5-2.3c0-0.9-0.2-1.6-0.5-2.1s-0.8-0.7-1.5-0.7
		c-0.6,0-1.1,0.2-1.4,0.7C112.3,170.6,112.1,171.3,112.1,172.3z"/>
	<path class="st5" d="M124.1,175.1c0.5,0,0.8-0.1,1.1-0.4s0.4-0.6,0.5-1h2.4c0,0.6-0.2,1.2-0.5,1.8c-0.3,0.5-0.8,1-1.4,1.2
		c-0.6,0.3-1.3,0.4-2,0.4c-1.4,0-2.4-0.4-3.2-1.3c-0.8-0.9-1.2-2.1-1.2-3.6v-0.2c0-1.5,0.4-2.6,1.2-3.5s1.8-1.3,3.2-1.3
		c1.2,0,2.1,0.3,2.9,1c0.7,0.7,1.1,1.6,1.1,2.7h-2.4c0-0.5-0.2-0.9-0.5-1.2s-0.7-0.5-1.2-0.5c-0.6,0-1,0.2-1.3,0.6
		c-0.3,0.4-0.5,1.1-0.5,2.1v0.3c0,1,0.1,1.7,0.4,2.1S123.5,175.1,124.1,175.1z"/>
	<path class="st5" d="M129.5,165c0-0.4,0.1-0.7,0.4-0.9s0.6-0.4,1-0.4c0.4,0,0.8,0.1,1,0.4s0.4,0.6,0.4,0.9c0,0.4-0.1,0.7-0.4,0.9
		s-0.6,0.4-1,0.4s-0.8-0.1-1-0.4S129.5,165.4,129.5,165z M132.2,177h-2.5v-9.5h2.5V177z"/>
	<path class="st5" d="M139.8,177c-0.1-0.2-0.2-0.5-0.3-0.9c-0.6,0.7-1.4,1-2.4,1c-0.9,0-1.7-0.3-2.3-0.8s-0.9-1.2-0.9-2
		c0-1,0.4-1.8,1.1-2.3s1.8-0.8,3.2-0.8h1.2v-0.5c0-0.4-0.1-0.8-0.3-1.1s-0.6-0.4-1.1-0.4c-0.4,0-0.8,0.1-1,0.3s-0.4,0.5-0.4,0.8
		h-2.5c0-0.6,0.2-1.1,0.5-1.5s0.8-0.8,1.4-1.1s1.3-0.4,2.1-0.4c1.2,0,2.1,0.3,2.8,0.9c0.7,0.6,1,1.4,1,2.5v4.1c0,0.9,0.1,1.6,0.4,2
		v0.1H139.8z M137.7,175.2c0.4,0,0.7-0.1,1-0.3c0.3-0.2,0.6-0.4,0.7-0.7v-1.6h-0.9c-1.3,0-1.9,0.4-2,1.3l0,0.1
		c0,0.3,0.1,0.6,0.3,0.8S137.4,175.2,137.7,175.2z"/>
	<path class="st5" d="M146.7,177h-2.5v-13.5h2.5V177z"/>
	<path class="st5" d="M153.1,177.2c-1.4,0-2.5-0.4-3.4-1.3s-1.3-2-1.3-3.4v-0.2c0-1,0.2-1.8,0.6-2.6s0.9-1.3,1.6-1.7
		s1.4-0.6,2.3-0.6c1.3,0,2.3,0.4,3.1,1.2s1.1,2,1.1,3.5v1H151c0.1,0.6,0.3,1.1,0.7,1.5s0.9,0.6,1.6,0.6c1,0,1.7-0.4,2.3-1.1l1.2,1.4
		c-0.4,0.5-0.9,1-1.5,1.3C154.6,177,153.9,177.2,153.1,177.2z M152.8,169.4c-0.5,0-0.9,0.2-1.2,0.5c-0.3,0.3-0.5,0.8-0.6,1.5h3.5
		v-0.2c0-0.6-0.2-1-0.5-1.3C153.8,169.5,153.4,169.4,152.8,169.4z"/>
	<path class="st5" d="M163.6,174.4c0-0.3-0.2-0.6-0.5-0.7s-0.8-0.3-1.5-0.5c-2.3-0.5-3.4-1.4-3.4-2.9c0-0.8,0.4-1.5,1.1-2.1
		c0.7-0.6,1.6-0.8,2.7-0.8c1.2,0,2.2,0.3,2.9,0.9s1.1,1.3,1.1,2.2h-2.5c0-0.4-0.1-0.7-0.4-0.9c-0.2-0.2-0.6-0.4-1.1-0.4
		c-0.4,0-0.8,0.1-1,0.3s-0.4,0.4-0.4,0.7c0,0.3,0.1,0.5,0.4,0.7c0.3,0.2,0.7,0.3,1.3,0.4s1.2,0.3,1.6,0.4c1.3,0.5,2,1.3,2,2.6
		c0,0.9-0.4,1.6-1.1,2.1c-0.7,0.5-1.7,0.8-2.9,0.8c-0.8,0-1.5-0.1-2.1-0.4c-0.6-0.3-1.1-0.7-1.5-1.2c-0.4-0.5-0.5-1-0.5-1.6h2.4
		c0,0.5,0.2,0.8,0.5,1s0.7,0.4,1.2,0.4c0.5,0,0.9-0.1,1.1-0.3C163.5,174.9,163.6,174.7,163.6,174.4z"/>
</g>
<path id="Rectángulo_35479-3" class="st4" d="M234,119h140c14.9,0,27,12.1,27,27v20c0,14.9-12.1,27-27,27H234
	c-14.9,0-27-12.1-27-27v-20C207,131.1,219.1,119,234,119z"/>
<g class="st1">
	<path class="st5" d="M233.1,152v-12.8h3.9c1.1,0,2.1,0.3,3,0.8c0.9,0.5,1.6,1.2,2.1,2.2c0.5,0.9,0.7,2,0.7,3.2v0.6
		c0,1.2-0.2,2.2-0.7,3.2s-1.2,1.6-2.1,2.2s-1.9,0.8-3,0.8H233.1z M235.7,141.3v8.5h1.3c1,0,1.8-0.3,2.4-1s0.8-1.6,0.8-2.9v-0.7
		c0-1.3-0.3-2.3-0.8-3s-1.3-1-2.4-1H235.7z"/>
	<path class="st5" d="M249,152.2c-1.4,0-2.5-0.4-3.4-1.3s-1.3-2-1.3-3.4v-0.2c0-1,0.2-1.8,0.6-2.6s0.9-1.3,1.6-1.7s1.4-0.6,2.3-0.6
		c1.3,0,2.3,0.4,3.1,1.2s1.1,2,1.1,3.5v1h-6.1c0.1,0.6,0.3,1.1,0.7,1.5s0.9,0.6,1.6,0.6c1,0,1.7-0.4,2.3-1.1l1.2,1.4
		c-0.4,0.5-0.9,1-1.5,1.3C250.5,152,249.8,152.2,249,152.2z M248.7,144.4c-0.5,0-0.9,0.2-1.2,0.5c-0.3,0.3-0.5,0.8-0.6,1.5h3.5v-0.2
		c0-0.6-0.2-1-0.5-1.3C249.6,144.5,249.2,144.4,248.7,144.4z"/>
	<path class="st5" d="M262.9,147.3c0,1.5-0.3,2.6-1,3.5s-1.6,1.3-2.7,1.3c-1,0-1.7-0.3-2.3-1v4.5h-2.5v-13.2h2.4l0.1,0.9
		c0.6-0.7,1.4-1.1,2.4-1.1c1.2,0,2.1,0.4,2.7,1.3s1,2.1,1,3.6V147.3z M260.3,147.1c0-0.9-0.2-1.6-0.5-2s-0.8-0.7-1.4-0.7
		c-0.8,0-1.3,0.3-1.6,0.9v3.9c0.3,0.6,0.9,0.9,1.7,0.9C259.7,150.1,260.3,149.1,260.3,147.1z"/>
	<path class="st5" d="M270,152c-0.1-0.2-0.2-0.5-0.3-0.9c-0.6,0.7-1.4,1-2.4,1c-0.9,0-1.7-0.3-2.3-0.8s-0.9-1.2-0.9-2
		c0-1,0.4-1.8,1.1-2.3s1.8-0.8,3.2-0.8h1.2v-0.5c0-0.4-0.1-0.8-0.3-1.1s-0.6-0.4-1.1-0.4c-0.4,0-0.8,0.1-1,0.3s-0.4,0.5-0.4,0.8
		h-2.5c0-0.6,0.2-1.1,0.5-1.5s0.8-0.8,1.4-1.1s1.3-0.4,2.1-0.4c1.2,0,2.1,0.3,2.8,0.9c0.7,0.6,1,1.4,1,2.5v4.1c0,0.9,0.1,1.6,0.4,2
		v0.1H270z M267.9,150.2c0.4,0,0.7-0.1,1-0.3c0.3-0.2,0.6-0.4,0.7-0.7v-1.6h-0.9c-1.3,0-1.9,0.4-2,1.3l0,0.1c0,0.3,0.1,0.6,0.3,0.8
		S267.5,150.2,267.9,150.2z"/>
	<path class="st5" d="M279.4,144.9c-0.3,0-0.7-0.1-0.9-0.1c-1,0-1.6,0.3-1.9,1v6.2h-2.5v-9.5h2.4l0.1,1.1c0.5-0.9,1.2-1.3,2.1-1.3
		c0.3,0,0.5,0,0.8,0.1L279.4,144.9z"/>
	<path class="st5" d="M284.1,140.2v2.3h1.6v1.9h-1.6v4.7c0,0.4,0.1,0.6,0.2,0.8s0.4,0.2,0.8,0.2c0.3,0,0.5,0,0.7-0.1v1.9
		c-0.5,0.2-1,0.2-1.5,0.2c-1.8,0-2.7-0.9-2.7-2.7v-5.1h-1.4v-1.9h1.4v-2.3H284.1z"/>
	<path class="st5" d="M292.7,152c-0.1-0.2-0.2-0.5-0.3-0.9c-0.6,0.7-1.4,1-2.4,1c-0.9,0-1.7-0.3-2.3-0.8s-0.9-1.2-0.9-2
		c0-1,0.4-1.8,1.1-2.3s1.8-0.8,3.2-0.8h1.2v-0.5c0-0.4-0.1-0.8-0.3-1.1s-0.6-0.4-1.1-0.4c-0.4,0-0.8,0.1-1,0.3s-0.4,0.5-0.4,0.8H287
		c0-0.6,0.2-1.1,0.5-1.5s0.8-0.8,1.4-1.1s1.3-0.4,2.1-0.4c1.2,0,2.1,0.3,2.8,0.9c0.7,0.6,1,1.4,1,2.5v4.1c0,0.9,0.1,1.6,0.4,2v0.1
		H292.7z M290.6,150.2c0.4,0,0.7-0.1,1-0.3c0.3-0.2,0.6-0.4,0.7-0.7v-1.6h-0.9c-1.3,0-1.9,0.4-2,1.3l0,0.1c0,0.3,0.1,0.6,0.3,0.8
		S290.2,150.2,290.6,150.2z"/>
	<path class="st5" d="M299.2,142.5l0.1,1.1c0.7-0.8,1.6-1.2,2.7-1.2c1.2,0,2.1,0.5,2.5,1.5c0.7-1,1.6-1.5,2.9-1.5
		c1,0,1.8,0.3,2.3,0.9c0.5,0.6,0.8,1.5,0.8,2.7v6.1h-2.5v-6.1c0-0.5-0.1-0.9-0.3-1.2s-0.6-0.4-1.1-0.4c-0.8,0-1.3,0.4-1.6,1.1l0,6.5
		h-2.5v-6.1c0-0.6-0.1-0.9-0.3-1.2s-0.6-0.4-1.1-0.4c-0.7,0-1.2,0.3-1.6,0.9v6.7h-2.5v-9.5H299.2z"/>
	<path class="st5" d="M316.8,152.2c-1.4,0-2.5-0.4-3.4-1.3s-1.3-2-1.3-3.4v-0.2c0-1,0.2-1.8,0.6-2.6s0.9-1.3,1.6-1.7
		s1.4-0.6,2.3-0.6c1.3,0,2.3,0.4,3.1,1.2s1.1,2,1.1,3.5v1h-6.1c0.1,0.6,0.3,1.1,0.7,1.5s0.9,0.6,1.6,0.6c1,0,1.7-0.4,2.3-1.1
		l1.2,1.4c-0.4,0.5-0.9,1-1.5,1.3C318.3,152,317.6,152.2,316.8,152.2z M316.5,144.4c-0.5,0-0.9,0.2-1.2,0.5
		c-0.3,0.3-0.5,0.8-0.6,1.5h3.5v-0.2c0-0.6-0.2-1-0.5-1.3C317.5,144.5,317,144.4,316.5,144.4z"/>
	<path class="st5" d="M324.5,142.5l0.1,1.1c0.7-0.8,1.6-1.3,2.7-1.3c1,0,1.8,0.3,2.2,0.9s0.7,1.5,0.8,2.7v6.1h-2.5v-6.1
		c0-0.5-0.1-0.9-0.4-1.2c-0.2-0.2-0.6-0.4-1.2-0.4c-0.7,0-1.3,0.3-1.6,0.9v6.7h-2.5v-9.5H324.5z"/>
	<path class="st5" d="M335.3,140.2v2.3h1.6v1.9h-1.6v4.7c0,0.4,0.1,0.6,0.2,0.8s0.4,0.2,0.8,0.2c0.3,0,0.5,0,0.7-0.1v1.9
		c-0.5,0.2-1,0.2-1.5,0.2c-1.8,0-2.7-0.9-2.7-2.7v-5.1h-1.4v-1.9h1.4v-2.3H335.3z"/>
	<path class="st5" d="M337.7,147.2c0-0.9,0.2-1.8,0.5-2.5s0.9-1.3,1.6-1.7s1.5-0.6,2.4-0.6c1.3,0,2.3,0.4,3.1,1.2s1.3,1.9,1.4,3.2
		l0,0.7c0,1.5-0.4,2.6-1.2,3.5s-1.9,1.3-3.3,1.3s-2.5-0.4-3.3-1.3s-1.2-2.1-1.2-3.6V147.2z M340.2,147.3c0,0.9,0.2,1.6,0.5,2.1
		c0.3,0.5,0.8,0.7,1.5,0.7c0.6,0,1.1-0.2,1.4-0.7c0.3-0.5,0.5-1.2,0.5-2.3c0-0.9-0.2-1.6-0.5-2.1s-0.8-0.7-1.5-0.7
		c-0.6,0-1.1,0.2-1.4,0.7C340.4,145.6,340.2,146.3,340.2,147.3z"/>
	<path class="st5" d="M352.3,147.2c0-1.5,0.3-2.7,1-3.5s1.6-1.3,2.7-1.3c0.9,0,1.7,0.3,2.3,1v-4.9h2.5V152h-2.3l-0.1-1
		c-0.6,0.8-1.4,1.2-2.4,1.2c-1.1,0-2-0.4-2.7-1.3S352.3,148.7,352.3,147.2z M354.9,147.4c0,0.9,0.2,1.6,0.5,2.1s0.8,0.7,1.4,0.7
		c0.8,0,1.3-0.3,1.7-1v-3.8c-0.3-0.7-0.9-1-1.6-1C355.5,144.4,354.9,145.4,354.9,147.4z"/>
	<path class="st5" d="M367.2,152.2c-1.4,0-2.5-0.4-3.4-1.3s-1.3-2-1.3-3.4v-0.2c0-1,0.2-1.8,0.6-2.6s0.9-1.3,1.6-1.7
		s1.4-0.6,2.3-0.6c1.3,0,2.3,0.4,3.1,1.2s1.1,2,1.1,3.5v1h-6.1c0.1,0.6,0.3,1.1,0.7,1.5s0.9,0.6,1.6,0.6c1,0,1.7-0.4,2.3-1.1
		l1.2,1.4c-0.4,0.5-0.9,1-1.5,1.3C368.7,152,368,152.2,367.2,152.2z M366.9,144.4c-0.5,0-0.9,0.2-1.2,0.5c-0.3,0.3-0.5,0.8-0.6,1.5
		h3.5v-0.2c0-0.6-0.2-1-0.5-1.3C367.9,144.5,367.5,144.4,366.9,144.4z"/>
</g>
<g class="st1">
	<path class="st5" d="M257.6,177h-2.6v-5.5h-5.1v5.5h-2.6v-12.8h2.6v5.2h5.1v-5.2h2.6V177z"/>
	<path class="st5" d="M265.4,176c-0.6,0.8-1.5,1.1-2.6,1.1c-1,0-1.8-0.3-2.3-0.9s-0.8-1.4-0.8-2.6v-6.2h2.5v6.2c0,1,0.5,1.5,1.4,1.5
		c0.9,0,1.5-0.3,1.8-0.9v-6.7h2.5v9.5h-2.4L265.4,176z"/>
	<path class="st5" d="M272.2,167.5l0.1,1.1c0.7-0.8,1.6-1.2,2.7-1.2c1.2,0,2.1,0.5,2.5,1.5c0.7-1,1.6-1.5,2.9-1.5
		c1,0,1.8,0.3,2.3,0.9c0.5,0.6,0.8,1.5,0.8,2.7v6.1h-2.5v-6.1c0-0.5-0.1-0.9-0.3-1.2s-0.6-0.4-1.1-0.4c-0.8,0-1.3,0.4-1.6,1.1l0,6.5
		h-2.5v-6.1c0-0.6-0.1-0.9-0.3-1.2s-0.6-0.4-1.1-0.4c-0.7,0-1.2,0.3-1.6,0.9v6.7h-2.5v-9.5H272.2z"/>
	<path class="st5" d="M290.9,177c-0.1-0.2-0.2-0.5-0.3-0.9c-0.6,0.7-1.4,1-2.4,1c-0.9,0-1.7-0.3-2.3-0.8s-0.9-1.2-0.9-2
		c0-1,0.4-1.8,1.1-2.3s1.8-0.8,3.2-0.8h1.2v-0.5c0-0.4-0.1-0.8-0.3-1.1s-0.6-0.4-1.1-0.4c-0.4,0-0.8,0.1-1,0.3s-0.4,0.5-0.4,0.8
		h-2.5c0-0.6,0.2-1.1,0.5-1.5s0.8-0.8,1.4-1.1s1.3-0.4,2.1-0.4c1.2,0,2.1,0.3,2.8,0.9c0.7,0.6,1,1.4,1,2.5v4.1c0,0.9,0.1,1.6,0.4,2
		v0.1H290.9z M288.8,175.2c0.4,0,0.7-0.1,1-0.3c0.3-0.2,0.6-0.4,0.7-0.7v-1.6h-0.9c-1.3,0-1.9,0.4-2,1.3l0,0.1
		c0,0.3,0.1,0.6,0.3,0.8S288.4,175.2,288.8,175.2z"/>
	<path class="st5" d="M297.4,167.5l0.1,1.1c0.7-0.8,1.6-1.3,2.7-1.3c1,0,1.8,0.3,2.2,0.9s0.7,1.5,0.8,2.7v6.1h-2.5v-6.1
		c0-0.5-0.1-0.9-0.4-1.2c-0.2-0.2-0.6-0.4-1.2-0.4c-0.7,0-1.3,0.3-1.6,0.9v6.7H295v-9.5H297.4z"/>
	<path class="st5" d="M305.1,165c0-0.4,0.1-0.7,0.4-0.9s0.6-0.4,1-0.4c0.4,0,0.8,0.1,1,0.4s0.4,0.6,0.4,0.9c0,0.4-0.1,0.7-0.4,0.9
		s-0.6,0.4-1,0.4s-0.8-0.1-1-0.4S305.1,165.4,305.1,165z M307.8,177h-2.5v-9.5h2.5V177z"/>
	<path class="st5" d="M309.5,172.2c0-1.5,0.3-2.7,1-3.5s1.6-1.3,2.7-1.3c0.9,0,1.7,0.3,2.3,1v-4.9h2.5V177h-2.3l-0.1-1
		c-0.6,0.8-1.4,1.2-2.4,1.2c-1.1,0-2-0.4-2.7-1.3S309.5,173.7,309.5,172.2z M312,172.4c0,0.9,0.2,1.6,0.5,2.1s0.8,0.7,1.4,0.7
		c0.8,0,1.3-0.3,1.7-1v-3.8c-0.3-0.7-0.9-1-1.6-1C312.6,169.4,312,170.4,312,172.4z"/>
	<path class="st5" d="M325.5,177c-0.1-0.2-0.2-0.5-0.3-0.9c-0.6,0.7-1.4,1-2.4,1c-0.9,0-1.7-0.3-2.3-0.8s-0.9-1.2-0.9-2
		c0-1,0.4-1.8,1.1-2.3s1.8-0.8,3.2-0.8h1.2v-0.5c0-0.4-0.1-0.8-0.3-1.1s-0.6-0.4-1.1-0.4c-0.4,0-0.8,0.1-1,0.3s-0.4,0.5-0.4,0.8
		h-2.5c0-0.6,0.2-1.1,0.5-1.5s0.8-0.8,1.4-1.1s1.3-0.4,2.1-0.4c1.2,0,2.1,0.3,2.8,0.9c0.7,0.6,1,1.4,1,2.5v4.1c0,0.9,0.1,1.6,0.4,2
		v0.1H325.5z M323.4,175.2c0.4,0,0.7-0.1,1-0.3c0.3-0.2,0.6-0.4,0.7-0.7v-1.6h-0.9c-1.3,0-1.9,0.4-2,1.3l0,0.1
		c0,0.3,0.1,0.6,0.3,0.8S323,175.2,323.4,175.2z"/>
	<path class="st5" d="M329.3,172.2c0-1.5,0.3-2.7,1-3.5s1.6-1.3,2.7-1.3c0.9,0,1.7,0.3,2.3,1v-4.9h2.5V177h-2.3l-0.1-1
		c-0.6,0.8-1.4,1.2-2.4,1.2c-1.1,0-2-0.4-2.7-1.3S329.3,173.7,329.3,172.2z M331.8,172.4c0,0.9,0.2,1.6,0.5,2.1s0.8,0.7,1.4,0.7
		c0.8,0,1.3-0.3,1.7-1v-3.8c-0.3-0.7-0.9-1-1.6-1C332.4,169.4,331.8,170.4,331.8,172.4z"/>
	<path class="st5" d="M344.2,177.2c-1.4,0-2.5-0.4-3.4-1.3s-1.3-2-1.3-3.4v-0.2c0-1,0.2-1.8,0.6-2.6s0.9-1.3,1.6-1.7
		s1.4-0.6,2.3-0.6c1.3,0,2.3,0.4,3.1,1.2s1.1,2,1.1,3.5v1H342c0.1,0.6,0.3,1.1,0.7,1.5s0.9,0.6,1.6,0.6c1,0,1.7-0.4,2.3-1.1l1.2,1.4
		c-0.4,0.5-0.9,1-1.5,1.3C345.7,177,345,177.2,344.2,177.2z M343.9,169.4c-0.5,0-0.9,0.2-1.2,0.5c-0.3,0.3-0.5,0.8-0.6,1.5h3.5v-0.2
		c0-0.6-0.2-1-0.5-1.3C344.9,169.5,344.4,169.4,343.9,169.4z"/>
	<path class="st5" d="M354.7,174.4c0-0.3-0.2-0.6-0.5-0.7s-0.8-0.3-1.5-0.5c-2.3-0.5-3.4-1.4-3.4-2.9c0-0.8,0.4-1.5,1.1-2.1
		c0.7-0.6,1.6-0.8,2.7-0.8c1.2,0,2.2,0.3,2.9,0.9s1.1,1.3,1.1,2.2h-2.5c0-0.4-0.1-0.7-0.4-0.9c-0.2-0.2-0.6-0.4-1.1-0.4
		c-0.4,0-0.8,0.1-1,0.3s-0.4,0.4-0.4,0.7c0,0.3,0.1,0.5,0.4,0.7c0.3,0.2,0.7,0.3,1.3,0.4s1.2,0.3,1.6,0.4c1.3,0.5,2,1.3,2,2.6
		c0,0.9-0.4,1.6-1.1,2.1c-0.7,0.5-1.7,0.8-2.9,0.8c-0.8,0-1.5-0.1-2.1-0.4c-0.6-0.3-1.1-0.7-1.5-1.2c-0.4-0.5-0.5-1-0.5-1.6h2.4
		c0,0.5,0.2,0.8,0.5,1s0.7,0.4,1.2,0.4c0.5,0,0.9-0.1,1.1-0.3C354.6,174.9,354.7,174.7,354.7,174.4z"/>
</g>
<path id="Rectángulo_35479-4" class="st4" d="M648,119h140c14.9,0,27,12.1,27,27v20c0,14.9-12.1,27-27,27H648
	c-14.9,0-27-12.1-27-27v-20C621,131.1,633.1,119,648,119z"/>
<g class="st1">
	<path class="st5" d="M647.1,152v-12.8h3.9c1.1,0,2.1,0.3,3,0.8c0.9,0.5,1.6,1.2,2.1,2.2c0.5,0.9,0.7,2,0.7,3.2v0.6
		c0,1.2-0.2,2.2-0.7,3.2c-0.5,0.9-1.2,1.6-2.1,2.2s-1.9,0.8-3,0.8H647.1z M649.7,141.3v8.5h1.3c1,0,1.8-0.3,2.4-1s0.8-1.6,0.8-2.9
		v-0.7c0-1.3-0.3-2.3-0.8-3s-1.3-1-2.4-1H649.7z"/>
	<path class="st5" d="M663,152.2c-1.4,0-2.5-0.4-3.4-1.3c-0.9-0.9-1.3-2-1.3-3.4v-0.2c0-1,0.2-1.8,0.6-2.6s0.9-1.3,1.6-1.7
		c0.7-0.4,1.4-0.6,2.3-0.6c1.3,0,2.3,0.4,3.1,1.2c0.7,0.8,1.1,2,1.1,3.5v1h-6.1c0.1,0.6,0.3,1.1,0.7,1.5c0.4,0.4,0.9,0.6,1.6,0.6
		c1,0,1.7-0.4,2.3-1.1l1.2,1.4c-0.4,0.5-0.9,1-1.5,1.3C664.5,152,663.8,152.2,663,152.2z M662.7,144.4c-0.5,0-0.9,0.2-1.2,0.5
		c-0.3,0.3-0.5,0.8-0.6,1.5h3.5v-0.2c0-0.6-0.2-1-0.5-1.3C663.6,144.5,663.2,144.4,662.7,144.4z"/>
	<path class="st5" d="M676.9,147.3c0,1.5-0.3,2.6-1,3.5c-0.7,0.9-1.6,1.3-2.7,1.3c-1,0-1.7-0.3-2.3-1v4.5h-2.5v-13.2h2.4l0.1,0.9
		c0.6-0.7,1.4-1.1,2.4-1.1c1.2,0,2.1,0.4,2.7,1.3s1,2.1,1,3.6V147.3z M674.3,147.1c0-0.9-0.2-1.6-0.5-2c-0.3-0.5-0.8-0.7-1.4-0.7
		c-0.8,0-1.3,0.3-1.6,0.9v3.9c0.3,0.6,0.9,0.9,1.7,0.9C673.7,150.1,674.3,149.1,674.3,147.1z"/>
	<path class="st5" d="M684,152c-0.1-0.2-0.2-0.5-0.3-0.9c-0.6,0.7-1.4,1-2.4,1c-0.9,0-1.7-0.3-2.3-0.8c-0.6-0.5-0.9-1.2-0.9-2
		c0-1,0.4-1.8,1.1-2.3c0.7-0.5,1.8-0.8,3.2-0.8h1.2v-0.5c0-0.4-0.1-0.8-0.3-1.1c-0.2-0.3-0.6-0.4-1.1-0.4c-0.4,0-0.8,0.1-1,0.3
		c-0.2,0.2-0.4,0.5-0.4,0.8h-2.5c0-0.6,0.2-1.1,0.5-1.5s0.8-0.8,1.4-1.1s1.3-0.4,2.1-0.4c1.2,0,2.1,0.3,2.8,0.9c0.7,0.6,1,1.4,1,2.5
		v4.1c0,0.9,0.1,1.6,0.4,2v0.1H684z M681.9,150.2c0.4,0,0.7-0.1,1-0.3c0.3-0.2,0.6-0.4,0.7-0.7v-1.6h-0.9c-1.3,0-1.9,0.4-2,1.3
		l0,0.1c0,0.3,0.1,0.6,0.3,0.8S681.5,150.2,681.9,150.2z"/>
	<path class="st5" d="M693.4,144.9c-0.3,0-0.7-0.1-0.9-0.1c-1,0-1.6,0.3-1.9,1v6.2h-2.5v-9.5h2.4l0.1,1.1c0.5-0.9,1.2-1.3,2.1-1.3
		c0.3,0,0.5,0,0.8,0.1L693.4,144.9z"/>
	<path class="st5" d="M698.1,140.2v2.3h1.6v1.9h-1.6v4.7c0,0.4,0.1,0.6,0.2,0.8s0.4,0.2,0.8,0.2c0.3,0,0.5,0,0.7-0.1v1.9
		c-0.5,0.2-1,0.2-1.5,0.2c-1.8,0-2.7-0.9-2.7-2.7v-5.1h-1.4v-1.9h1.4v-2.3H698.1z"/>
	<path class="st5" d="M706.7,152c-0.1-0.2-0.2-0.5-0.3-0.9c-0.6,0.7-1.4,1-2.4,1c-0.9,0-1.7-0.3-2.3-0.8c-0.6-0.5-0.9-1.2-0.9-2
		c0-1,0.4-1.8,1.1-2.3c0.7-0.5,1.8-0.8,3.2-0.8h1.2v-0.5c0-0.4-0.1-0.8-0.3-1.1c-0.2-0.3-0.6-0.4-1.1-0.4c-0.4,0-0.8,0.1-1,0.3
		c-0.2,0.2-0.4,0.5-0.4,0.8H701c0-0.6,0.2-1.1,0.5-1.5s0.8-0.8,1.4-1.1s1.3-0.4,2.1-0.4c1.2,0,2.1,0.3,2.8,0.9c0.7,0.6,1,1.4,1,2.5
		v4.1c0,0.9,0.1,1.6,0.4,2v0.1H706.7z M704.6,150.2c0.4,0,0.7-0.1,1-0.3c0.3-0.2,0.6-0.4,0.7-0.7v-1.6h-0.9c-1.3,0-1.9,0.4-2,1.3
		l0,0.1c0,0.3,0.1,0.6,0.3,0.8S704.2,150.2,704.6,150.2z"/>
	<path class="st5" d="M713.2,142.5l0.1,1.1c0.7-0.8,1.6-1.2,2.7-1.2c1.2,0,2.1,0.5,2.5,1.5c0.7-1,1.6-1.5,2.9-1.5
		c1,0,1.8,0.3,2.3,0.9c0.5,0.6,0.8,1.5,0.8,2.7v6.1h-2.5v-6.1c0-0.5-0.1-0.9-0.3-1.2s-0.6-0.4-1.1-0.4c-0.8,0-1.3,0.4-1.6,1.1l0,6.5
		h-2.5v-6.1c0-0.6-0.1-0.9-0.3-1.2s-0.6-0.4-1.1-0.4c-0.7,0-1.2,0.3-1.6,0.9v6.7h-2.5v-9.5H713.2z"/>
	<path class="st5" d="M730.8,152.2c-1.4,0-2.5-0.4-3.4-1.3c-0.9-0.9-1.3-2-1.3-3.4v-0.2c0-1,0.2-1.8,0.6-2.6s0.9-1.3,1.6-1.7
		c0.7-0.4,1.4-0.6,2.3-0.6c1.3,0,2.3,0.4,3.1,1.2c0.7,0.8,1.1,2,1.1,3.5v1h-6.1c0.1,0.6,0.3,1.1,0.7,1.5c0.4,0.4,0.9,0.6,1.6,0.6
		c1,0,1.7-0.4,2.3-1.1l1.2,1.4c-0.4,0.5-0.9,1-1.5,1.3C732.3,152,731.6,152.2,730.8,152.2z M730.5,144.4c-0.5,0-0.9,0.2-1.2,0.5
		c-0.3,0.3-0.5,0.8-0.6,1.5h3.5v-0.2c0-0.6-0.2-1-0.5-1.3C731.5,144.5,731,144.4,730.5,144.4z"/>
	<path class="st5" d="M738.5,142.5l0.1,1.1c0.7-0.8,1.6-1.3,2.7-1.3c1,0,1.8,0.3,2.2,0.9s0.7,1.5,0.8,2.7v6.1h-2.5v-6.1
		c0-0.5-0.1-0.9-0.4-1.2c-0.2-0.2-0.6-0.4-1.2-0.4c-0.7,0-1.3,0.3-1.6,0.9v6.7h-2.5v-9.5H738.5z"/>
	<path class="st5" d="M749.3,140.2v2.3h1.6v1.9h-1.6v4.7c0,0.4,0.1,0.6,0.2,0.8s0.4,0.2,0.8,0.2c0.3,0,0.5,0,0.7-0.1v1.9
		c-0.5,0.2-1,0.2-1.5,0.2c-1.8,0-2.7-0.9-2.7-2.7v-5.1h-1.4v-1.9h1.4v-2.3H749.3z"/>
	<path class="st5" d="M751.7,147.2c0-0.9,0.2-1.8,0.5-2.5s0.9-1.3,1.6-1.7c0.7-0.4,1.5-0.6,2.4-0.6c1.3,0,2.3,0.4,3.1,1.2
		c0.8,0.8,1.3,1.9,1.4,3.2l0,0.7c0,1.5-0.4,2.6-1.2,3.5s-1.9,1.3-3.3,1.3s-2.5-0.4-3.3-1.3c-0.8-0.9-1.2-2.1-1.2-3.6V147.2z
		 M754.2,147.3c0,0.9,0.2,1.6,0.5,2.1c0.3,0.5,0.8,0.7,1.5,0.7c0.6,0,1.1-0.2,1.4-0.7c0.3-0.5,0.5-1.2,0.5-2.3
		c0-0.9-0.2-1.6-0.5-2.1s-0.8-0.7-1.5-0.7c-0.6,0-1.1,0.2-1.4,0.7C754.4,145.6,754.2,146.3,754.2,147.3z"/>
	<path class="st5" d="M766.3,147.2c0-1.5,0.3-2.7,1-3.5c0.7-0.9,1.6-1.3,2.7-1.3c0.9,0,1.7,0.3,2.3,1v-4.9h2.5V152h-2.3l-0.1-1
		c-0.6,0.8-1.4,1.2-2.4,1.2c-1.1,0-2-0.4-2.7-1.3C766.7,150,766.3,148.7,766.3,147.2z M768.9,147.4c0,0.9,0.2,1.6,0.5,2.1
		s0.8,0.7,1.4,0.7c0.8,0,1.3-0.3,1.7-1v-3.8c-0.3-0.7-0.9-1-1.6-1C769.5,144.4,768.9,145.4,768.9,147.4z"/>
	<path class="st5" d="M781.2,152.2c-1.4,0-2.5-0.4-3.4-1.3c-0.9-0.9-1.3-2-1.3-3.4v-0.2c0-1,0.2-1.8,0.6-2.6s0.9-1.3,1.6-1.7
		c0.7-0.4,1.4-0.6,2.3-0.6c1.3,0,2.3,0.4,3.1,1.2c0.7,0.8,1.1,2,1.1,3.5v1h-6.1c0.1,0.6,0.3,1.1,0.7,1.5c0.4,0.4,0.9,0.6,1.6,0.6
		c1,0,1.7-0.4,2.3-1.1l1.2,1.4c-0.4,0.5-0.9,1-1.5,1.3C782.7,152,782,152.2,781.2,152.2z M780.9,144.4c-0.5,0-0.9,0.2-1.2,0.5
		c-0.3,0.3-0.5,0.8-0.6,1.5h3.5v-0.2c0-0.6-0.2-1-0.5-1.3C781.9,144.5,781.5,144.4,780.9,144.4z"/>
</g>
<g class="st1">
	<path class="st5" d="M701.9,174.4h-4.6l-0.9,2.6h-2.8l4.8-12.8h2.4l4.8,12.8h-2.8L701.9,174.4z M698,172.2h3.2l-1.6-4.8L698,172.2z
		"/>
	<path class="st5" d="M712,169.9c-0.3,0-0.7-0.1-0.9-0.1c-1,0-1.6,0.3-1.9,1v6.2h-2.5v-9.5h2.4l0.1,1.1c0.5-0.9,1.2-1.3,2.1-1.3
		c0.3,0,0.5,0,0.8,0.1L712,169.9z"/>
	<path class="st5" d="M716.7,165.2v2.3h1.6v1.9h-1.6v4.7c0,0.4,0.1,0.6,0.2,0.8s0.4,0.2,0.8,0.2c0.3,0,0.5,0,0.7-0.1v1.9
		c-0.5,0.2-1,0.2-1.5,0.2c-1.8,0-2.7-0.9-2.7-2.7v-5.1h-1.4v-1.9h1.4v-2.3H716.7z"/>
	<path class="st5" d="M724.1,177.2c-1.4,0-2.5-0.4-3.4-1.3s-1.3-2-1.3-3.4v-0.2c0-1,0.2-1.8,0.6-2.6s0.9-1.3,1.6-1.7
		s1.4-0.6,2.3-0.6c1.3,0,2.3,0.4,3.1,1.2s1.1,2,1.1,3.5v1H722c0.1,0.6,0.3,1.1,0.7,1.5s0.9,0.6,1.6,0.6c1,0,1.7-0.4,2.3-1.1l1.2,1.4
		c-0.4,0.5-0.9,1-1.5,1.3C725.6,177,724.9,177.2,724.1,177.2z M723.8,169.4c-0.5,0-0.9,0.2-1.2,0.5c-0.3,0.3-0.5,0.8-0.6,1.5h3.5
		v-0.2c0-0.6-0.2-1-0.5-1.3C724.8,169.5,724.4,169.4,723.8,169.4z"/>
	<path class="st5" d="M734.6,174.4c0-0.3-0.2-0.6-0.5-0.7s-0.8-0.3-1.5-0.5c-2.3-0.5-3.4-1.4-3.4-2.9c0-0.8,0.4-1.5,1.1-2.1
		c0.7-0.6,1.6-0.8,2.7-0.8c1.2,0,2.2,0.3,2.9,0.9s1.1,1.3,1.1,2.2h-2.5c0-0.4-0.1-0.7-0.4-0.9c-0.2-0.2-0.6-0.4-1.1-0.4
		c-0.4,0-0.8,0.1-1,0.3s-0.4,0.4-0.4,0.7c0,0.3,0.1,0.5,0.4,0.7c0.3,0.2,0.7,0.3,1.3,0.4s1.2,0.3,1.6,0.4c1.3,0.5,2,1.3,2,2.6
		c0,0.9-0.4,1.6-1.1,2.1c-0.7,0.5-1.7,0.8-2.9,0.8c-0.8,0-1.5-0.1-2.1-0.4c-0.6-0.3-1.1-0.7-1.5-1.2c-0.4-0.5-0.5-1-0.5-1.6h2.4
		c0,0.5,0.2,0.8,0.5,1s0.7,0.4,1.2,0.4c0.5,0,0.9-0.1,1.1-0.3C734.5,174.9,734.6,174.7,734.6,174.4z"/>
</g>
<path id="Rectángulo_35479-5" class="st4" d="M855,119h140c14.9,0,27,12.1,27,27v20c0,14.9-12.1,27-27,27H855
	c-14.9,0-27-12.1-27-27v-20C828,131.1,840.1,119,855,119z"/>
<g class="st1">
	<path class="st5" d="M888.9,158.9c0,1.3-0.2,2.4-0.7,3.3s-1.1,1.7-1.9,2.2s-1.8,0.8-2.9,0.8c-1.1,0-2-0.3-2.8-0.8s-1.5-1.2-1.9-2.2
		c-0.5-0.9-0.7-2-0.7-3.3v-0.6c0-1.3,0.2-2.4,0.7-3.3c0.5-1,1.1-1.7,1.9-2.2s1.8-0.8,2.8-0.8s2,0.3,2.8,0.8s1.5,1.2,1.9,2.2
		c0.5,1,0.7,2.1,0.7,3.3V158.9z M886.2,158.3c0-1.3-0.2-2.4-0.7-3.1s-1.2-1-2.1-1c-0.9,0-1.6,0.3-2,1s-0.7,1.7-0.7,3v0.6
		c0,1.3,0.2,2.3,0.7,3s1.2,1.1,2.1,1.1c0.9,0,1.6-0.3,2-1c0.5-0.7,0.7-1.7,0.7-3V158.3z"/>
	<path class="st5" d="M893.7,153.2v2.3h1.6v1.9h-1.6v4.7c0,0.4,0.1,0.6,0.2,0.8s0.4,0.2,0.8,0.2c0.3,0,0.5,0,0.7-0.1v1.9
		c-0.5,0.2-1,0.2-1.5,0.2c-1.8,0-2.7-0.9-2.7-2.7v-5.1h-1.4v-1.9h1.4v-2.3H893.7z"/>
	<path class="st5" d="M902.1,157.9c-0.3,0-0.7-0.1-0.9-0.1c-1,0-1.6,0.3-1.9,1v6.2h-2.5v-9.5h2.4l0.1,1.1c0.5-0.9,1.2-1.3,2.1-1.3
		c0.3,0,0.5,0,0.8,0.1L902.1,157.9z"/>
	<path class="st5" d="M908.5,165c-0.1-0.2-0.2-0.5-0.3-0.9c-0.6,0.7-1.4,1-2.4,1c-0.9,0-1.7-0.3-2.3-0.8s-0.9-1.2-0.9-2
		c0-1,0.4-1.8,1.1-2.3s1.8-0.8,3.2-0.8h1.2v-0.5c0-0.4-0.1-0.8-0.3-1.1s-0.6-0.4-1.1-0.4c-0.4,0-0.8,0.1-1,0.3s-0.4,0.5-0.4,0.8
		h-2.5c0-0.6,0.2-1.1,0.5-1.5s0.8-0.8,1.4-1.1s1.3-0.4,2.1-0.4c1.2,0,2.1,0.3,2.8,0.9c0.7,0.6,1,1.4,1,2.5v4.1c0,0.9,0.1,1.6,0.4,2
		v0.1H908.5z M906.4,163.2c0.4,0,0.7-0.1,1-0.3c0.3-0.2,0.6-0.4,0.7-0.7v-1.6h-0.9c-1.3,0-1.9,0.4-2,1.3l0,0.1
		c0,0.3,0.1,0.6,0.3,0.8S906.1,163.2,906.4,163.2z"/>
	<path class="st5" d="M917.8,162.4c0-0.3-0.2-0.6-0.5-0.7s-0.8-0.3-1.5-0.5c-2.3-0.5-3.4-1.4-3.4-2.9c0-0.8,0.3-1.5,1-2.1
		c0.7-0.6,1.6-0.8,2.7-0.8c1.2,0,2.2,0.3,2.9,0.9s1.1,1.3,1.1,2.2h-2.5c0-0.4-0.1-0.7-0.4-0.9c-0.2-0.2-0.6-0.4-1.1-0.4
		c-0.4,0-0.8,0.1-1,0.3s-0.4,0.4-0.4,0.7c0,0.3,0.1,0.5,0.4,0.7c0.3,0.2,0.7,0.3,1.3,0.4s1.2,0.3,1.6,0.4c1.3,0.5,2,1.3,2,2.6
		c0,0.9-0.4,1.6-1.1,2.1c-0.7,0.5-1.7,0.8-2.9,0.8c-0.8,0-1.5-0.1-2.1-0.4c-0.6-0.3-1.1-0.7-1.5-1.2c-0.4-0.5-0.5-1-0.5-1.6h2.4
		c0,0.5,0.2,0.8,0.5,1s0.7,0.4,1.2,0.4c0.5,0,0.9-0.1,1.1-0.3C917.7,162.9,917.8,162.7,917.8,162.4z"/>
	<path class="st5" d="M933.8,162.4h-4.6l-0.9,2.6h-2.8l4.8-12.8h2.4l4.8,12.8h-2.8L933.8,162.4z M929.9,160.2h3.2l-1.6-4.8
		L929.9,160.2z M932,148.8h2.8l-2.4,2.7h-2.1L932,148.8z"/>
	<path class="st5" d="M943.9,157.9c-0.3,0-0.7-0.1-0.9-0.1c-1,0-1.6,0.3-1.9,1v6.2h-2.5v-9.5h2.4l0.1,1.1c0.5-0.9,1.2-1.3,2.1-1.3
		c0.3,0,0.5,0,0.8,0.1L943.9,157.9z"/>
	<path class="st5" d="M949.5,165.2c-1.4,0-2.5-0.4-3.4-1.3s-1.3-2-1.3-3.4v-0.2c0-1,0.2-1.8,0.6-2.6s0.9-1.3,1.6-1.7
		s1.4-0.6,2.3-0.6c1.3,0,2.3,0.4,3.1,1.2s1.1,2,1.1,3.5v1h-6.1c0.1,0.6,0.3,1.1,0.7,1.5s0.9,0.6,1.6,0.6c1,0,1.7-0.4,2.3-1.1
		l1.2,1.4c-0.4,0.5-0.9,1-1.5,1.3C951,165,950.3,165.2,949.5,165.2z M949.2,157.4c-0.5,0-0.9,0.2-1.2,0.5c-0.3,0.3-0.5,0.8-0.6,1.5
		h3.5v-0.2c0-0.6-0.2-1-0.5-1.3C950.1,157.5,949.7,157.4,949.2,157.4z"/>
	<path class="st5" d="M960.3,165c-0.1-0.2-0.2-0.5-0.3-0.9c-0.6,0.7-1.4,1-2.4,1c-0.9,0-1.7-0.3-2.3-0.8s-0.9-1.2-0.9-2
		c0-1,0.4-1.8,1.1-2.3s1.8-0.8,3.2-0.8h1.2v-0.5c0-0.4-0.1-0.8-0.3-1.1s-0.6-0.4-1.1-0.4c-0.4,0-0.8,0.1-1,0.3s-0.4,0.5-0.4,0.8
		h-2.5c0-0.6,0.2-1.1,0.5-1.5s0.8-0.8,1.4-1.1s1.3-0.4,2.1-0.4c1.2,0,2.1,0.3,2.8,0.9c0.7,0.6,1,1.4,1,2.5v4.1c0,0.9,0.1,1.6,0.4,2
		v0.1H960.3z M958.2,163.2c0.4,0,0.7-0.1,1-0.3c0.3-0.2,0.6-0.4,0.7-0.7v-1.6H959c-1.3,0-1.9,0.4-2,1.3l0,0.1c0,0.3,0.1,0.6,0.3,0.8
		S957.8,163.2,958.2,163.2z"/>
	<path class="st5" d="M969.6,162.4c0-0.3-0.2-0.6-0.5-0.7s-0.8-0.3-1.5-0.5c-2.3-0.5-3.4-1.4-3.4-2.9c0-0.8,0.3-1.5,1-2.1
		c0.7-0.6,1.6-0.8,2.7-0.8c1.2,0,2.2,0.3,2.9,0.9s1.1,1.3,1.1,2.2h-2.5c0-0.4-0.1-0.7-0.4-0.9c-0.2-0.2-0.6-0.4-1.1-0.4
		c-0.4,0-0.8,0.1-1,0.3s-0.4,0.4-0.4,0.7c0,0.3,0.1,0.5,0.4,0.7c0.3,0.2,0.7,0.3,1.3,0.4s1.2,0.3,1.6,0.4c1.3,0.5,2,1.3,2,2.6
		c0,0.9-0.4,1.6-1.1,2.1c-0.7,0.5-1.7,0.8-2.9,0.8c-0.8,0-1.5-0.1-2.1-0.4c-0.6-0.3-1.1-0.7-1.5-1.2c-0.4-0.5-0.5-1-0.5-1.6h2.4
		c0,0.5,0.2,0.8,0.5,1s0.7,0.4,1.2,0.4c0.5,0,0.9-0.1,1.1-0.3C969.5,162.9,969.6,162.7,969.6,162.4z"/>
</g>
<path id="Rectángulo_35480" class="st6" d="M27,255h140c14.9,0,27,12.1,27,27v20c0,14.9-12.1,27-27,27H27c-14.9,0-27-12.1-27-27
	v-20C0,267.1,12.1,255,27,255z"/>
<g class="st1">
	<path class="st5" d="M43,282.5h-5.1v3.4h5.9v2.1h-8.6v-12.8h8.6v2.1h-5.9v3H43V282.5z"/>
	<path class="st5" d="M44.9,283.2c0-1.5,0.3-2.7,1-3.5s1.6-1.3,2.7-1.3c1,0,1.8,0.4,2.4,1.2l0.2-1h2.2v13.2h-2.5v-4.5
		c-0.6,0.7-1.4,1-2.3,1c-1.1,0-2-0.4-2.7-1.3S44.9,284.7,44.9,283.2z M47.4,283.3c0,0.9,0.2,1.6,0.5,2.1s0.8,0.7,1.3,0.7
		c0.8,0,1.3-0.3,1.7-0.9v-3.9c-0.3-0.6-0.9-0.9-1.6-0.9c-0.6,0-1,0.2-1.4,0.7S47.4,282.3,47.4,283.3z"/>
	<path class="st5" d="M61.1,287c-0.6,0.8-1.5,1.1-2.6,1.1c-1,0-1.8-0.3-2.3-0.9s-0.8-1.4-0.8-2.6v-6.2h2.5v6.2c0,1,0.5,1.5,1.4,1.5
		c0.9,0,1.5-0.3,1.8-0.9v-6.7h2.5v9.5h-2.4L61.1,287z"/>
	<path class="st5" d="M65.5,276c0-0.4,0.1-0.7,0.4-0.9s0.6-0.4,1-0.4c0.4,0,0.8,0.1,1,0.4s0.4,0.6,0.4,0.9c0,0.4-0.1,0.7-0.4,0.9
		s-0.6,0.4-1,0.4s-0.8-0.1-1-0.4S65.5,276.4,65.5,276z M68.2,288h-2.5v-9.5h2.5V288z"/>
	<path class="st5" d="M78.8,283.3c0,1.5-0.3,2.6-1,3.5s-1.6,1.3-2.7,1.3c-1,0-1.7-0.3-2.3-1v4.5h-2.5v-13.2h2.4l0.1,0.9
		c0.6-0.7,1.4-1.1,2.4-1.1c1.2,0,2.1,0.4,2.7,1.3s1,2.1,1,3.6V283.3z M76.3,283.1c0-0.9-0.2-1.6-0.5-2s-0.8-0.7-1.4-0.7
		c-0.8,0-1.3,0.3-1.6,0.9v3.9c0.3,0.6,0.9,0.9,1.7,0.9C75.7,286.1,76.3,285.1,76.3,283.1z"/>
	<path class="st5" d="M80,283.2c0-0.9,0.2-1.8,0.5-2.5s0.9-1.3,1.6-1.7s1.5-0.6,2.4-0.6c1.3,0,2.3,0.4,3.1,1.2s1.3,1.9,1.4,3.2
		l0,0.7c0,1.5-0.4,2.6-1.2,3.5s-1.9,1.3-3.3,1.3s-2.5-0.4-3.3-1.3s-1.2-2.1-1.2-3.6V283.2z M82.6,283.3c0,0.9,0.2,1.6,0.5,2.1
		c0.3,0.5,0.8,0.7,1.5,0.7c0.6,0,1.1-0.2,1.4-0.7c0.3-0.5,0.5-1.2,0.5-2.3c0-0.9-0.2-1.6-0.5-2.1s-0.8-0.7-1.5-0.7
		c-0.6,0-1.1,0.2-1.4,0.7C82.7,281.6,82.6,282.3,82.6,283.3z"/>
	<path class="st5" d="M97.9,285.9h5.6v2.1h-8.2v-12.8h2.6V285.9z"/>
	<path class="st5" d="M107.6,288H105v-9.5h2.5V288z M106.8,274.6h2.8l-2.4,2.7h-2.1L106.8,274.6z"/>
	<path class="st5" d="M109.4,283.2c0-1.5,0.3-2.7,1-3.5s1.6-1.3,2.7-1.3c0.9,0,1.7,0.3,2.3,1v-4.9h2.5V288h-2.3l-0.1-1
		c-0.6,0.8-1.4,1.2-2.4,1.2c-1.1,0-2-0.4-2.7-1.3S109.4,284.7,109.4,283.2z M111.9,283.4c0,0.9,0.2,1.6,0.5,2.1s0.8,0.7,1.4,0.7
		c0.8,0,1.3-0.3,1.7-1v-3.8c-0.3-0.7-0.9-1-1.6-1C112.5,280.4,111.9,281.4,111.9,283.4z"/>
	<path class="st5" d="M124.3,288.2c-1.4,0-2.5-0.4-3.4-1.3s-1.3-2-1.3-3.4v-0.2c0-1,0.2-1.8,0.6-2.6s0.9-1.3,1.6-1.7
		s1.4-0.6,2.3-0.6c1.3,0,2.3,0.4,3.1,1.2s1.1,2,1.1,3.5v1h-6.1c0.1,0.6,0.3,1.1,0.7,1.5s0.9,0.6,1.6,0.6c1,0,1.7-0.4,2.3-1.1
		l1.2,1.4c-0.4,0.5-0.9,1-1.5,1.3C125.8,288,125.1,288.2,124.3,288.2z M124,280.4c-0.5,0-0.9,0.2-1.2,0.5c-0.3,0.3-0.5,0.8-0.6,1.5
		h3.5v-0.2c0-0.6-0.2-1-0.5-1.3C124.9,280.5,124.5,280.4,124,280.4z"/>
	<path class="st5" d="M135,280.9c-0.3,0-0.7-0.1-0.9-0.1c-1,0-1.6,0.3-1.9,1v6.2h-2.5v-9.5h2.4l0.1,1.1c0.5-0.9,1.2-1.3,2.1-1.3
		c0.3,0,0.5,0,0.8,0.1L135,280.9z"/>
	<path class="st5" d="M140.3,283.2c0-1.5,0.3-2.7,1-3.5s1.6-1.3,2.7-1.3c0.9,0,1.7,0.3,2.3,1v-4.9h2.5V288h-2.3l-0.1-1
		c-0.6,0.8-1.4,1.2-2.4,1.2c-1.1,0-2-0.4-2.7-1.3S140.3,284.7,140.3,283.2z M142.8,283.4c0,0.9,0.2,1.6,0.5,2.1s0.8,0.7,1.4,0.7
		c0.8,0,1.3-0.3,1.7-1v-3.8c-0.3-0.7-0.9-1-1.6-1C143.4,280.4,142.8,281.4,142.8,283.4z"/>
	<path class="st5" d="M155.2,288.2c-1.4,0-2.5-0.4-3.4-1.3s-1.3-2-1.3-3.4v-0.2c0-1,0.2-1.8,0.6-2.6s0.9-1.3,1.6-1.7
		s1.4-0.6,2.3-0.6c1.3,0,2.3,0.4,3.1,1.2s1.1,2,1.1,3.5v1H153c0.1,0.6,0.3,1.1,0.7,1.5s0.9,0.6,1.6,0.6c1,0,1.7-0.4,2.3-1.1l1.2,1.4
		c-0.4,0.5-0.9,1-1.5,1.3C156.7,288,156,288.2,155.2,288.2z M154.9,280.4c-0.5,0-0.9,0.2-1.2,0.5c-0.3,0.3-0.5,0.8-0.6,1.5h3.5v-0.2
		c0-0.6-0.2-1-0.5-1.3C155.9,280.5,155.4,280.4,154.9,280.4z"/>
</g>
<g class="st1">
	<path class="st5" d="M37.7,307.5h-5.1v3.4h5.9v2.1H30v-12.8h8.6v2.1h-5.9v3h5.1V307.5z"/>
	<path class="st5" d="M39.5,308.2c0-1.5,0.3-2.7,1-3.5s1.6-1.3,2.7-1.3c0.9,0,1.7,0.3,2.3,1v-4.9h2.5V313h-2.3l-0.1-1
		c-0.6,0.8-1.4,1.2-2.4,1.2c-1.1,0-2-0.4-2.7-1.3S39.5,309.7,39.5,308.2z M42.1,308.4c0,0.9,0.2,1.6,0.5,2.1s0.8,0.7,1.4,0.7
		c0.8,0,1.3-0.3,1.7-1v-3.8c-0.3-0.7-0.9-1-1.6-1C42.7,305.4,42.1,306.4,42.1,308.4z"/>
	<path class="st5" d="M55.8,312c-0.6,0.8-1.5,1.1-2.6,1.1c-1,0-1.8-0.3-2.3-0.9s-0.8-1.4-0.8-2.6v-6.2h2.5v6.2c0,1,0.5,1.5,1.4,1.5
		c0.9,0,1.5-0.3,1.8-0.9v-6.7h2.5v9.5h-2.4L55.8,312z"/>
	<path class="st5" d="M64.1,311.1c0.5,0,0.8-0.1,1.1-0.4s0.4-0.6,0.5-1h2.4c0,0.6-0.2,1.2-0.5,1.8c-0.3,0.5-0.8,1-1.4,1.2
		c-0.6,0.3-1.3,0.4-2,0.4c-1.4,0-2.4-0.4-3.2-1.3c-0.8-0.9-1.2-2.1-1.2-3.6v-0.2c0-1.5,0.4-2.6,1.2-3.5s1.8-1.3,3.2-1.3
		c1.2,0,2.1,0.3,2.9,1c0.7,0.7,1.1,1.6,1.1,2.7h-2.4c0-0.5-0.2-0.9-0.5-1.2s-0.7-0.5-1.2-0.5c-0.6,0-1,0.2-1.3,0.6
		c-0.3,0.4-0.5,1.1-0.5,2.1v0.3c0,1,0.1,1.7,0.4,2.1S63.5,311.1,64.1,311.1z"/>
	<path class="st5" d="M75,313c-0.1-0.2-0.2-0.5-0.3-0.9c-0.6,0.7-1.4,1-2.4,1c-0.9,0-1.7-0.3-2.3-0.8s-0.9-1.2-0.9-2
		c0-1,0.4-1.8,1.1-2.3s1.8-0.8,3.2-0.8h1.2v-0.5c0-0.4-0.1-0.8-0.3-1.1s-0.6-0.4-1.1-0.4c-0.4,0-0.8,0.1-1,0.3s-0.4,0.5-0.4,0.8
		h-2.5c0-0.6,0.2-1.1,0.5-1.5s0.8-0.8,1.4-1.1s1.3-0.4,2.1-0.4c1.2,0,2.1,0.3,2.8,0.9c0.7,0.6,1,1.4,1,2.5v4.1c0,0.9,0.1,1.6,0.4,2
		v0.1H75z M72.9,311.2c0.4,0,0.7-0.1,1-0.3c0.3-0.2,0.6-0.4,0.7-0.7v-1.6h-0.9c-1.3,0-1.9,0.4-2,1.3l0,0.1c0,0.3,0.1,0.6,0.3,0.8
		S72.5,311.2,72.9,311.2z"/>
	<path class="st5" d="M83.1,311.1c0.5,0,0.8-0.1,1.1-0.4s0.4-0.6,0.5-1h2.4c0,0.6-0.2,1.2-0.5,1.8c-0.3,0.5-0.8,1-1.4,1.2
		c-0.6,0.3-1.3,0.4-2,0.4c-1.4,0-2.4-0.4-3.2-1.3c-0.8-0.9-1.2-2.1-1.2-3.6v-0.2c0-1.5,0.4-2.6,1.2-3.5s1.8-1.3,3.2-1.3
		c1.2,0,2.1,0.3,2.9,1c0.7,0.7,1.1,1.6,1.1,2.7h-2.4c0-0.5-0.2-0.9-0.5-1.2s-0.7-0.5-1.2-0.5c-0.6,0-1,0.2-1.3,0.6
		c-0.3,0.4-0.5,1.1-0.5,2.1v0.3c0,1,0.1,1.7,0.4,2.1S82.5,311.1,83.1,311.1z"/>
	<path class="st5" d="M88.5,301c0-0.4,0.1-0.7,0.4-0.9s0.6-0.4,1-0.4c0.4,0,0.8,0.1,1,0.4s0.4,0.6,0.4,0.9c0,0.4-0.1,0.7-0.4,0.9
		s-0.6,0.4-1,0.4s-0.8-0.1-1-0.4S88.5,301.4,88.5,301z M91.2,313h-2.5v-9.5h2.5V313z"/>
	<path class="st5" d="M92.9,308.2c0-0.9,0.2-1.8,0.5-2.5s0.9-1.3,1.6-1.7s1.5-0.6,2.4-0.6c1.3,0,2.3,0.4,3.1,1.2s1.3,1.9,1.4,3.2
		l0,0.7c0,1.5-0.4,2.6-1.2,3.5s-1.9,1.3-3.3,1.3s-2.5-0.4-3.3-1.3s-1.2-2.1-1.2-3.6V308.2z M95.5,308.3c0,0.9,0.2,1.6,0.5,2.1
		c0.3,0.5,0.8,0.7,1.5,0.7c0.6,0,1.1-0.2,1.4-0.7c0.3-0.5,0.5-1.2,0.5-2.3c0-0.9-0.2-1.6-0.5-2.1s-0.8-0.7-1.5-0.7
		c-0.6,0-1.1,0.2-1.4,0.7C95.6,306.6,95.5,307.3,95.5,308.3z M97.9,299.5h2.8l-2.4,2.7h-2.1L97.9,299.5z"/>
	<path class="st5" d="M105.8,303.5l0.1,1.1c0.7-0.8,1.6-1.3,2.7-1.3c1,0,1.8,0.3,2.2,0.9s0.7,1.5,0.8,2.7v6.1h-2.5v-6.1
		c0-0.5-0.1-0.9-0.4-1.2c-0.2-0.2-0.6-0.4-1.2-0.4c-0.7,0-1.3,0.3-1.6,0.9v6.7h-2.5v-9.5H105.8z"/>
	<path class="st5" d="M124.9,309.6c0-0.5-0.2-0.9-0.5-1.1s-1-0.5-1.9-0.8s-1.6-0.6-2.2-0.9c-1.5-0.8-2.2-1.8-2.2-3.2
		c0-0.7,0.2-1.3,0.6-1.9c0.4-0.5,0.9-1,1.7-1.3s1.5-0.5,2.5-0.5c0.9,0,1.7,0.2,2.4,0.5c0.7,0.3,1.3,0.8,1.7,1.4s0.6,1.3,0.6,2.1
		h-2.6c0-0.6-0.2-1-0.6-1.4c-0.4-0.3-0.9-0.5-1.6-0.5c-0.6,0-1.1,0.1-1.5,0.4c-0.4,0.3-0.5,0.6-0.5,1.1c0,0.4,0.2,0.8,0.6,1
		s1,0.5,1.9,0.8c1.5,0.5,2.6,1,3.3,1.7s1,1.5,1,2.5c0,1.1-0.4,2-1.3,2.6c-0.8,0.6-2,0.9-3.4,0.9c-1,0-1.9-0.2-2.7-0.5
		c-0.8-0.4-1.4-0.9-1.9-1.5s-0.6-1.4-0.6-2.2h2.6c0,1.4,0.8,2.1,2.5,2.1c0.6,0,1.1-0.1,1.5-0.4C124.7,310.5,124.9,310.1,124.9,309.6
		z"/>
	<path class="st5" d="M138.9,302.3H135V313h-2.6v-10.7h-3.9v-2.1h10.4V302.3z"/>
	<path class="st5" d="M148.1,307.5h-5.1v3.4h5.9v2.1h-8.6v-12.8h8.6v2.1h-5.9v3h5.1V307.5z"/>
	<path class="st5" d="M154,300.2l3.3,9.3l3.3-9.3h3.5V313h-2.6v-3.5l0.3-6l-3.5,9.5h-1.8l-3.4-9.5l0.3,6v3.5h-2.6v-12.8H154z"/>
</g>
<path id="Rectángulo_35481" class="st6" d="M234,255h140c14.9,0,27,12.1,27,27v20c0,14.9-12.1,27-27,27H234c-14.9,0-27-12.1-27-27
	v-20C207,267.1,219.1,255,234,255z"/>
<path id="Rectángulo_35484" class="st6" d="M441,255h140c14.9,0,27,12.1,27,27v20c0,14.9-12.1,27-27,27H441c-14.9,0-27-12.1-27-27
	v-20C414,267.1,426.1,255,441,255z"/>
<g class="st1">
	<path class="st5" d="M233.1,288v-12.8h3.9c1.1,0,2.1,0.3,3,0.8c0.9,0.5,1.6,1.2,2.1,2.2c0.5,0.9,0.7,2,0.7,3.2v0.6
		c0,1.2-0.2,2.2-0.7,3.2s-1.2,1.6-2.1,2.2s-1.9,0.8-3,0.8H233.1z M235.7,277.3v8.5h1.3c1,0,1.8-0.3,2.4-1s0.8-1.6,0.8-2.9v-0.7
		c0-1.3-0.3-2.3-0.8-3s-1.3-1-2.4-1H235.7z"/>
	<path class="st5" d="M249,288.2c-1.4,0-2.5-0.4-3.4-1.3s-1.3-2-1.3-3.4v-0.2c0-1,0.2-1.8,0.6-2.6s0.9-1.3,1.6-1.7s1.4-0.6,2.3-0.6
		c1.3,0,2.3,0.4,3.1,1.2s1.1,2,1.1,3.5v1h-6.1c0.1,0.6,0.3,1.1,0.7,1.5s0.9,0.6,1.6,0.6c1,0,1.7-0.4,2.3-1.1l1.2,1.4
		c-0.4,0.5-0.9,1-1.5,1.3C250.5,288,249.8,288.2,249,288.2z M248.7,280.4c-0.5,0-0.9,0.2-1.2,0.5c-0.3,0.3-0.5,0.8-0.6,1.5h3.5v-0.2
		c0-0.6-0.2-1-0.5-1.3C249.6,280.5,249.2,280.4,248.7,280.4z"/>
	<path class="st5" d="M262.9,283.3c0,1.5-0.3,2.6-1,3.5s-1.6,1.3-2.7,1.3c-1,0-1.7-0.3-2.3-1v4.5h-2.5v-13.2h2.4l0.1,0.9
		c0.6-0.7,1.4-1.1,2.4-1.1c1.2,0,2.1,0.4,2.7,1.3s1,2.1,1,3.6V283.3z M260.3,283.1c0-0.9-0.2-1.6-0.5-2s-0.8-0.7-1.4-0.7
		c-0.8,0-1.3,0.3-1.6,0.9v3.9c0.3,0.6,0.9,0.9,1.7,0.9C259.7,286.1,260.3,285.1,260.3,283.1z"/>
	<path class="st5" d="M270,288c-0.1-0.2-0.2-0.5-0.3-0.9c-0.6,0.7-1.4,1-2.4,1c-0.9,0-1.7-0.3-2.3-0.8s-0.9-1.2-0.9-2
		c0-1,0.4-1.8,1.1-2.3s1.8-0.8,3.2-0.8h1.2v-0.5c0-0.4-0.1-0.8-0.3-1.1s-0.6-0.4-1.1-0.4c-0.4,0-0.8,0.1-1,0.3s-0.4,0.5-0.4,0.8
		h-2.5c0-0.6,0.2-1.1,0.5-1.5s0.8-0.8,1.4-1.1s1.3-0.4,2.1-0.4c1.2,0,2.1,0.3,2.8,0.9c0.7,0.6,1,1.4,1,2.5v4.1c0,0.9,0.1,1.6,0.4,2
		v0.1H270z M267.9,286.2c0.4,0,0.7-0.1,1-0.3c0.3-0.2,0.6-0.4,0.7-0.7v-1.6h-0.9c-1.3,0-1.9,0.4-2,1.3l0,0.1c0,0.3,0.1,0.6,0.3,0.8
		S267.5,286.2,267.9,286.2z"/>
	<path class="st5" d="M279.4,280.9c-0.3,0-0.7-0.1-0.9-0.1c-1,0-1.6,0.3-1.9,1v6.2h-2.5v-9.5h2.4l0.1,1.1c0.5-0.9,1.2-1.3,2.1-1.3
		c0.3,0,0.5,0,0.8,0.1L279.4,280.9z"/>
	<path class="st5" d="M284.1,276.2v2.3h1.6v1.9h-1.6v4.7c0,0.4,0.1,0.6,0.2,0.8s0.4,0.2,0.8,0.2c0.3,0,0.5,0,0.7-0.1v1.9
		c-0.5,0.2-1,0.2-1.5,0.2c-1.8,0-2.7-0.9-2.7-2.7v-5.1h-1.4v-1.9h1.4v-2.3H284.1z"/>
	<path class="st5" d="M292.7,288c-0.1-0.2-0.2-0.5-0.3-0.9c-0.6,0.7-1.4,1-2.4,1c-0.9,0-1.7-0.3-2.3-0.8s-0.9-1.2-0.9-2
		c0-1,0.4-1.8,1.1-2.3s1.8-0.8,3.2-0.8h1.2v-0.5c0-0.4-0.1-0.8-0.3-1.1s-0.6-0.4-1.1-0.4c-0.4,0-0.8,0.1-1,0.3s-0.4,0.5-0.4,0.8H287
		c0-0.6,0.2-1.1,0.5-1.5s0.8-0.8,1.4-1.1s1.3-0.4,2.1-0.4c1.2,0,2.1,0.3,2.8,0.9c0.7,0.6,1,1.4,1,2.5v4.1c0,0.9,0.1,1.6,0.4,2v0.1
		H292.7z M290.6,286.2c0.4,0,0.7-0.1,1-0.3c0.3-0.2,0.6-0.4,0.7-0.7v-1.6h-0.9c-1.3,0-1.9,0.4-2,1.3l0,0.1c0,0.3,0.1,0.6,0.3,0.8
		S290.2,286.2,290.6,286.2z"/>
	<path class="st5" d="M299.2,278.5l0.1,1.1c0.7-0.8,1.6-1.2,2.7-1.2c1.2,0,2.1,0.5,2.5,1.5c0.7-1,1.6-1.5,2.9-1.5
		c1,0,1.8,0.3,2.3,0.9c0.5,0.6,0.8,1.5,0.8,2.7v6.1h-2.5v-6.1c0-0.5-0.1-0.9-0.3-1.2s-0.6-0.4-1.1-0.4c-0.8,0-1.3,0.4-1.6,1.1l0,6.5
		h-2.5v-6.1c0-0.6-0.1-0.9-0.3-1.2s-0.6-0.4-1.1-0.4c-0.7,0-1.2,0.3-1.6,0.9v6.7h-2.5v-9.5H299.2z"/>
	<path class="st5" d="M316.8,288.2c-1.4,0-2.5-0.4-3.4-1.3s-1.3-2-1.3-3.4v-0.2c0-1,0.2-1.8,0.6-2.6s0.9-1.3,1.6-1.7
		s1.4-0.6,2.3-0.6c1.3,0,2.3,0.4,3.1,1.2s1.1,2,1.1,3.5v1h-6.1c0.1,0.6,0.3,1.1,0.7,1.5s0.9,0.6,1.6,0.6c1,0,1.7-0.4,2.3-1.1
		l1.2,1.4c-0.4,0.5-0.9,1-1.5,1.3C318.3,288,317.6,288.2,316.8,288.2z M316.5,280.4c-0.5,0-0.9,0.2-1.2,0.5
		c-0.3,0.3-0.5,0.8-0.6,1.5h3.5v-0.2c0-0.6-0.2-1-0.5-1.3C317.5,280.5,317,280.4,316.5,280.4z"/>
	<path class="st5" d="M324.5,278.5l0.1,1.1c0.7-0.8,1.6-1.3,2.7-1.3c1,0,1.8,0.3,2.2,0.9s0.7,1.5,0.8,2.7v6.1h-2.5v-6.1
		c0-0.5-0.1-0.9-0.4-1.2c-0.2-0.2-0.6-0.4-1.2-0.4c-0.7,0-1.3,0.3-1.6,0.9v6.7h-2.5v-9.5H324.5z"/>
	<path class="st5" d="M335.3,276.2v2.3h1.6v1.9h-1.6v4.7c0,0.4,0.1,0.6,0.2,0.8s0.4,0.2,0.8,0.2c0.3,0,0.5,0,0.7-0.1v1.9
		c-0.5,0.2-1,0.2-1.5,0.2c-1.8,0-2.7-0.9-2.7-2.7v-5.1h-1.4v-1.9h1.4v-2.3H335.3z"/>
	<path class="st5" d="M337.7,283.2c0-0.9,0.2-1.8,0.5-2.5s0.9-1.3,1.6-1.7s1.5-0.6,2.4-0.6c1.3,0,2.3,0.4,3.1,1.2s1.3,1.9,1.4,3.2
		l0,0.7c0,1.5-0.4,2.6-1.2,3.5s-1.9,1.3-3.3,1.3s-2.5-0.4-3.3-1.3s-1.2-2.1-1.2-3.6V283.2z M340.2,283.3c0,0.9,0.2,1.6,0.5,2.1
		c0.3,0.5,0.8,0.7,1.5,0.7c0.6,0,1.1-0.2,1.4-0.7c0.3-0.5,0.5-1.2,0.5-2.3c0-0.9-0.2-1.6-0.5-2.1s-0.8-0.7-1.5-0.7
		c-0.6,0-1.1,0.2-1.4,0.7C340.4,281.6,340.2,282.3,340.2,283.3z"/>
	<path class="st5" d="M352.3,283.2c0-1.5,0.3-2.7,1-3.5s1.6-1.3,2.7-1.3c0.9,0,1.7,0.3,2.3,1v-4.9h2.5V288h-2.3l-0.1-1
		c-0.6,0.8-1.4,1.2-2.4,1.2c-1.1,0-2-0.4-2.7-1.3S352.3,284.7,352.3,283.2z M354.9,283.4c0,0.9,0.2,1.6,0.5,2.1s0.8,0.7,1.4,0.7
		c0.8,0,1.3-0.3,1.7-1v-3.8c-0.3-0.7-0.9-1-1.6-1C355.5,280.4,354.9,281.4,354.9,283.4z"/>
	<path class="st5" d="M367.2,288.2c-1.4,0-2.5-0.4-3.4-1.3s-1.3-2-1.3-3.4v-0.2c0-1,0.2-1.8,0.6-2.6s0.9-1.3,1.6-1.7
		s1.4-0.6,2.3-0.6c1.3,0,2.3,0.4,3.1,1.2s1.1,2,1.1,3.5v1h-6.1c0.1,0.6,0.3,1.1,0.7,1.5s0.9,0.6,1.6,0.6c1,0,1.7-0.4,2.3-1.1
		l1.2,1.4c-0.4,0.5-0.9,1-1.5,1.3C368.7,288,368,288.2,367.2,288.2z M366.9,280.4c-0.5,0-0.9,0.2-1.2,0.5c-0.3,0.3-0.5,0.8-0.6,1.5
		h3.5v-0.2c0-0.6-0.2-1-0.5-1.3C367.9,280.5,367.5,280.4,366.9,280.4z"/>
</g>
<g class="st1">
	<path class="st5" d="M278.2,308.7c-0.1,1.4-0.6,2.5-1.5,3.3s-2.1,1.2-3.6,1.2c-1.6,0-2.9-0.6-3.9-1.7s-1.4-2.6-1.4-4.5v-0.8
		c0-1.2,0.2-2.3,0.7-3.3s1.1-1.7,1.9-2.2c0.8-0.5,1.7-0.8,2.8-0.8c1.5,0,2.7,0.4,3.6,1.2s1.4,1.9,1.6,3.3h-2.6
		c-0.1-0.8-0.3-1.4-0.7-1.8s-1-0.6-1.8-0.6c-0.9,0-1.5,0.3-2,0.9s-0.7,1.6-0.7,2.9v1c0,1.4,0.2,2.4,0.6,3s1.1,1,2,1
		c0.8,0,1.4-0.2,1.8-0.6s0.6-0.9,0.7-1.7H278.2z"/>
	<path class="st5" d="M279.8,301c0-0.4,0.1-0.7,0.4-0.9s0.6-0.4,1-0.4c0.4,0,0.8,0.1,1,0.4s0.4,0.6,0.4,0.9c0,0.4-0.1,0.7-0.4,0.9
		s-0.6,0.4-1,0.4s-0.8-0.1-1-0.4S279.8,301.4,279.8,301z M282.5,313h-2.5v-9.5h2.5V313z"/>
	<path class="st5" d="M288.9,313.2c-1.4,0-2.5-0.4-3.4-1.3s-1.3-2-1.3-3.4v-0.2c0-1,0.2-1.8,0.6-2.6s0.9-1.3,1.6-1.7
		s1.4-0.6,2.3-0.6c1.3,0,2.3,0.4,3.1,1.2s1.1,2,1.1,3.5v1h-6.1c0.1,0.6,0.3,1.1,0.7,1.5s0.9,0.6,1.6,0.6c1,0,1.7-0.4,2.3-1.1
		l1.2,1.4c-0.4,0.5-0.9,1-1.5,1.3C290.4,313,289.7,313.2,288.9,313.2z M288.6,305.4c-0.5,0-0.9,0.2-1.2,0.5
		c-0.3,0.3-0.5,0.8-0.6,1.5h3.5v-0.2c0-0.6-0.2-1-0.5-1.3C289.6,305.5,289.2,305.4,288.6,305.4z"/>
	<path class="st5" d="M296.6,303.5l0.1,1.1c0.7-0.8,1.6-1.3,2.7-1.3c1,0,1.8,0.3,2.2,0.9s0.7,1.5,0.8,2.7v6.1h-2.5v-6.1
		c0-0.5-0.1-0.9-0.4-1.2c-0.2-0.2-0.6-0.4-1.2-0.4c-0.7,0-1.3,0.3-1.6,0.9v6.7h-2.5v-9.5H296.6z"/>
	<path class="st5" d="M308.3,311.1c0.5,0,0.8-0.1,1.1-0.4s0.4-0.6,0.5-1h2.4c0,0.6-0.2,1.2-0.5,1.8c-0.3,0.5-0.8,1-1.4,1.2
		c-0.6,0.3-1.3,0.4-2,0.4c-1.4,0-2.4-0.4-3.2-1.3c-0.8-0.9-1.2-2.1-1.2-3.6v-0.2c0-1.5,0.4-2.6,1.2-3.5s1.8-1.3,3.2-1.3
		c1.2,0,2.1,0.3,2.9,1c0.7,0.7,1.1,1.6,1.1,2.7h-2.4c0-0.5-0.2-0.9-0.5-1.2s-0.7-0.5-1.2-0.5c-0.6,0-1,0.2-1.3,0.6
		c-0.3,0.4-0.5,1.1-0.5,2.1v0.3c0,1,0.1,1.7,0.4,2.1S307.7,311.1,308.3,311.1z"/>
	<path class="st5" d="M313.7,301c0-0.4,0.1-0.7,0.4-0.9s0.6-0.4,1-0.4c0.4,0,0.8,0.1,1,0.4s0.4,0.6,0.4,0.9c0,0.4-0.1,0.7-0.4,0.9
		s-0.6,0.4-1,0.4s-0.8-0.1-1-0.4S313.7,301.4,313.7,301z M316.4,313h-2.5v-9.5h2.5V313z"/>
	<path class="st5" d="M324,313c-0.1-0.2-0.2-0.5-0.3-0.9c-0.6,0.7-1.4,1-2.4,1c-0.9,0-1.7-0.3-2.3-0.8s-0.9-1.2-0.9-2
		c0-1,0.4-1.8,1.1-2.3s1.8-0.8,3.2-0.8h1.2v-0.5c0-0.4-0.1-0.8-0.3-1.1s-0.6-0.4-1.1-0.4c-0.4,0-0.8,0.1-1,0.3s-0.4,0.5-0.4,0.8
		h-2.5c0-0.6,0.2-1.1,0.5-1.5s0.8-0.8,1.4-1.1s1.3-0.4,2.1-0.4c1.2,0,2.1,0.3,2.8,0.9c0.7,0.6,1,1.4,1,2.5v4.1c0,0.9,0.1,1.6,0.4,2
		v0.1H324z M321.9,311.2c0.4,0,0.7-0.1,1-0.3c0.3-0.2,0.6-0.4,0.7-0.7v-1.6h-0.9c-1.3,0-1.9,0.4-2,1.3l0,0.1c0,0.3,0.1,0.6,0.3,0.8
		S321.5,311.2,321.9,311.2z"/>
	<path class="st5" d="M333.3,310.4c0-0.3-0.2-0.6-0.5-0.7s-0.8-0.3-1.5-0.5c-2.3-0.5-3.4-1.4-3.4-2.9c0-0.8,0.4-1.5,1.1-2.1
		c0.7-0.6,1.6-0.8,2.7-0.8c1.2,0,2.2,0.3,2.9,0.9s1.1,1.3,1.1,2.2h-2.5c0-0.4-0.1-0.7-0.4-0.9c-0.2-0.2-0.6-0.4-1.1-0.4
		c-0.4,0-0.8,0.1-1,0.3s-0.4,0.4-0.4,0.7c0,0.3,0.1,0.5,0.4,0.7c0.3,0.2,0.7,0.3,1.3,0.4s1.2,0.3,1.6,0.4c1.3,0.5,2,1.3,2,2.6
		c0,0.9-0.4,1.6-1.1,2.1c-0.7,0.5-1.7,0.8-2.9,0.8c-0.8,0-1.5-0.1-2.1-0.4c-0.6-0.3-1.1-0.7-1.5-1.2c-0.4-0.5-0.5-1-0.5-1.6h2.4
		c0,0.5,0.2,0.8,0.5,1s0.7,0.4,1.2,0.4c0.5,0,0.9-0.1,1.1-0.3C333.2,310.9,333.3,310.7,333.3,310.4z"/>
</g>
<g class="st1">
	<path class="st5" d="M440.1,288v-12.8h3.9c1.1,0,2.1,0.3,3,0.8c0.9,0.5,1.6,1.2,2.1,2.2c0.5,0.9,0.7,2,0.7,3.2v0.6
		c0,1.2-0.2,2.2-0.7,3.2s-1.2,1.6-2.1,2.2s-1.9,0.8-3,0.8H440.1z M442.7,277.3v8.5h1.3c1,0,1.8-0.3,2.4-1s0.8-1.6,0.8-2.9v-0.7
		c0-1.3-0.3-2.3-0.8-3s-1.3-1-2.4-1H442.7z"/>
	<path class="st5" d="M456,288.2c-1.4,0-2.5-0.4-3.4-1.3s-1.3-2-1.3-3.4v-0.2c0-1,0.2-1.8,0.6-2.6s0.9-1.3,1.6-1.7s1.4-0.6,2.3-0.6
		c1.3,0,2.3,0.4,3.1,1.2s1.1,2,1.1,3.5v1h-6.1c0.1,0.6,0.3,1.1,0.7,1.5s0.9,0.6,1.6,0.6c1,0,1.7-0.4,2.3-1.1l1.2,1.4
		c-0.4,0.5-0.9,1-1.5,1.3C457.5,288,456.8,288.2,456,288.2z M455.7,280.4c-0.5,0-0.9,0.2-1.2,0.5c-0.3,0.3-0.5,0.8-0.6,1.5h3.5v-0.2
		c0-0.6-0.2-1-0.5-1.3C456.6,280.5,456.2,280.4,455.7,280.4z"/>
	<path class="st5" d="M469.9,283.3c0,1.5-0.3,2.6-1,3.5s-1.6,1.3-2.7,1.3c-1,0-1.7-0.3-2.3-1v4.5h-2.5v-13.2h2.4l0.1,0.9
		c0.6-0.7,1.4-1.1,2.4-1.1c1.2,0,2.1,0.4,2.7,1.3s1,2.1,1,3.6V283.3z M467.3,283.1c0-0.9-0.2-1.6-0.5-2s-0.8-0.7-1.4-0.7
		c-0.8,0-1.3,0.3-1.6,0.9v3.9c0.3,0.6,0.9,0.9,1.7,0.9C466.7,286.1,467.3,285.1,467.3,283.1z"/>
	<path class="st5" d="M477,288c-0.1-0.2-0.2-0.5-0.3-0.9c-0.6,0.7-1.4,1-2.4,1c-0.9,0-1.7-0.3-2.3-0.8s-0.9-1.2-0.9-2
		c0-1,0.4-1.8,1.1-2.3s1.8-0.8,3.2-0.8h1.2v-0.5c0-0.4-0.1-0.8-0.3-1.1s-0.6-0.4-1.1-0.4c-0.4,0-0.8,0.1-1,0.3s-0.4,0.5-0.4,0.8
		h-2.5c0-0.6,0.2-1.1,0.5-1.5s0.8-0.8,1.4-1.1s1.3-0.4,2.1-0.4c1.2,0,2.1,0.3,2.8,0.9c0.7,0.6,1,1.4,1,2.5v4.1c0,0.9,0.1,1.6,0.4,2
		v0.1H477z M474.9,286.2c0.4,0,0.7-0.1,1-0.3c0.3-0.2,0.6-0.4,0.7-0.7v-1.6h-0.9c-1.3,0-1.9,0.4-2,1.3l0,0.1c0,0.3,0.1,0.6,0.3,0.8
		S474.5,286.2,474.9,286.2z"/>
	<path class="st5" d="M486.4,280.9c-0.3,0-0.7-0.1-0.9-0.1c-1,0-1.6,0.3-1.9,1v6.2h-2.5v-9.5h2.4l0.1,1.1c0.5-0.9,1.2-1.3,2.1-1.3
		c0.3,0,0.5,0,0.8,0.1L486.4,280.9z"/>
	<path class="st5" d="M491.1,276.2v2.3h1.6v1.9h-1.6v4.7c0,0.4,0.1,0.6,0.2,0.8s0.4,0.2,0.8,0.2c0.3,0,0.5,0,0.7-0.1v1.9
		c-0.5,0.2-1,0.2-1.5,0.2c-1.8,0-2.7-0.9-2.7-2.7v-5.1h-1.4v-1.9h1.4v-2.3H491.1z"/>
	<path class="st5" d="M499.7,288c-0.1-0.2-0.2-0.5-0.3-0.9c-0.6,0.7-1.4,1-2.4,1c-0.9,0-1.7-0.3-2.3-0.8s-0.9-1.2-0.9-2
		c0-1,0.4-1.8,1.1-2.3s1.8-0.8,3.2-0.8h1.2v-0.5c0-0.4-0.1-0.8-0.3-1.1s-0.6-0.4-1.1-0.4c-0.4,0-0.8,0.1-1,0.3s-0.4,0.5-0.4,0.8H494
		c0-0.6,0.2-1.1,0.5-1.5s0.8-0.8,1.4-1.1s1.3-0.4,2.1-0.4c1.2,0,2.1,0.3,2.8,0.9c0.7,0.6,1,1.4,1,2.5v4.1c0,0.9,0.1,1.6,0.4,2v0.1
		H499.7z M497.6,286.2c0.4,0,0.7-0.1,1-0.3c0.3-0.2,0.6-0.4,0.7-0.7v-1.6h-0.9c-1.3,0-1.9,0.4-2,1.3l0,0.1c0,0.3,0.1,0.6,0.3,0.8
		S497.2,286.2,497.6,286.2z"/>
	<path class="st5" d="M506.2,278.5l0.1,1.1c0.7-0.8,1.6-1.2,2.7-1.2c1.2,0,2.1,0.5,2.5,1.5c0.7-1,1.6-1.5,2.9-1.5
		c1,0,1.8,0.3,2.3,0.9c0.5,0.6,0.8,1.5,0.8,2.7v6.1h-2.5v-6.1c0-0.5-0.1-0.9-0.3-1.2s-0.6-0.4-1.1-0.4c-0.8,0-1.3,0.4-1.6,1.1l0,6.5
		h-2.5v-6.1c0-0.6-0.1-0.9-0.3-1.2s-0.6-0.4-1.1-0.4c-0.7,0-1.2,0.3-1.6,0.9v6.7h-2.5v-9.5H506.2z"/>
	<path class="st5" d="M523.8,288.2c-1.4,0-2.5-0.4-3.4-1.3s-1.3-2-1.3-3.4v-0.2c0-1,0.2-1.8,0.6-2.6s0.9-1.3,1.6-1.7
		s1.4-0.6,2.3-0.6c1.3,0,2.3,0.4,3.1,1.2s1.1,2,1.1,3.5v1h-6.1c0.1,0.6,0.3,1.1,0.7,1.5s0.9,0.6,1.6,0.6c1,0,1.7-0.4,2.3-1.1
		l1.2,1.4c-0.4,0.5-0.9,1-1.5,1.3C525.3,288,524.6,288.2,523.8,288.2z M523.5,280.4c-0.5,0-0.9,0.2-1.2,0.5
		c-0.3,0.3-0.5,0.8-0.6,1.5h3.5v-0.2c0-0.6-0.2-1-0.5-1.3C524.5,280.5,524,280.4,523.5,280.4z"/>
	<path class="st5" d="M531.5,278.5l0.1,1.1c0.7-0.8,1.6-1.3,2.7-1.3c1,0,1.8,0.3,2.2,0.9s0.7,1.5,0.8,2.7v6.1h-2.5v-6.1
		c0-0.5-0.1-0.9-0.4-1.2c-0.2-0.2-0.6-0.4-1.2-0.4c-0.7,0-1.3,0.3-1.6,0.9v6.7h-2.5v-9.5H531.5z"/>
	<path class="st5" d="M542.3,276.2v2.3h1.6v1.9h-1.6v4.7c0,0.4,0.1,0.6,0.2,0.8s0.4,0.2,0.8,0.2c0.3,0,0.5,0,0.7-0.1v1.9
		c-0.5,0.2-1,0.2-1.5,0.2c-1.8,0-2.7-0.9-2.7-2.7v-5.1h-1.4v-1.9h1.4v-2.3H542.3z"/>
	<path class="st5" d="M544.7,283.2c0-0.9,0.2-1.8,0.5-2.5s0.9-1.3,1.6-1.7s1.5-0.6,2.4-0.6c1.3,0,2.3,0.4,3.1,1.2s1.3,1.9,1.4,3.2
		l0,0.7c0,1.5-0.4,2.6-1.2,3.5s-1.9,1.3-3.3,1.3s-2.5-0.4-3.3-1.3s-1.2-2.1-1.2-3.6V283.2z M547.2,283.3c0,0.9,0.2,1.6,0.5,2.1
		c0.3,0.5,0.8,0.7,1.5,0.7c0.6,0,1.1-0.2,1.4-0.7c0.3-0.5,0.5-1.2,0.5-2.3c0-0.9-0.2-1.6-0.5-2.1s-0.8-0.7-1.5-0.7
		c-0.6,0-1.1,0.2-1.4,0.7C547.4,281.6,547.2,282.3,547.2,283.3z"/>
	<path class="st5" d="M559.3,283.2c0-1.5,0.3-2.7,1-3.5s1.6-1.3,2.7-1.3c0.9,0,1.7,0.3,2.3,1v-4.9h2.5V288h-2.3l-0.1-1
		c-0.6,0.8-1.4,1.2-2.4,1.2c-1.1,0-2-0.4-2.7-1.3S559.3,284.7,559.3,283.2z M561.9,283.4c0,0.9,0.2,1.6,0.5,2.1s0.8,0.7,1.4,0.7
		c0.8,0,1.3-0.3,1.7-1v-3.8c-0.3-0.7-0.9-1-1.6-1C562.5,280.4,561.9,281.4,561.9,283.4z"/>
	<path class="st5" d="M574.2,288.2c-1.4,0-2.5-0.4-3.4-1.3s-1.3-2-1.3-3.4v-0.2c0-1,0.2-1.8,0.6-2.6s0.9-1.3,1.6-1.7
		s1.4-0.6,2.3-0.6c1.3,0,2.3,0.4,3.1,1.2s1.1,2,1.1,3.5v1h-6.1c0.1,0.6,0.3,1.1,0.7,1.5s0.9,0.6,1.6,0.6c1,0,1.7-0.4,2.3-1.1
		l1.2,1.4c-0.4,0.5-0.9,1-1.5,1.3C575.7,288,575,288.2,574.2,288.2z M573.9,280.4c-0.5,0-0.9,0.2-1.2,0.5c-0.3,0.3-0.5,0.8-0.6,1.5
		h3.5v-0.2c0-0.6-0.2-1-0.5-1.3C574.9,280.5,574.5,280.4,573.9,280.4z"/>
</g>
<g class="st1">
	<path class="st5" d="M476.5,302.3h-3.9V313h-2.6v-10.7h-3.9v-2.1h10.4V302.3z"/>
	<path class="st5" d="M482.2,313.2c-1.4,0-2.5-0.4-3.4-1.3s-1.3-2-1.3-3.4v-0.2c0-1,0.2-1.8,0.6-2.6s0.9-1.3,1.6-1.7
		s1.4-0.6,2.3-0.6c1.3,0,2.3,0.4,3.1,1.2s1.1,2,1.1,3.5v1h-6.1c0.1,0.6,0.3,1.1,0.7,1.5s0.9,0.6,1.6,0.6c1,0,1.7-0.4,2.3-1.1
		l1.2,1.4c-0.4,0.5-0.9,1-1.5,1.3C483.7,313,483,313.2,482.2,313.2z M481.9,305.4c-0.5,0-0.9,0.2-1.2,0.5c-0.3,0.3-0.5,0.8-0.6,1.5
		h3.5v-0.2c0-0.6-0.2-1-0.5-1.3C482.9,305.5,482.5,305.4,481.9,305.4z"/>
	<path class="st5" d="M491.5,311.1c0.5,0,0.8-0.1,1.1-0.4s0.4-0.6,0.5-1h2.4c0,0.6-0.2,1.2-0.5,1.8c-0.3,0.5-0.8,1-1.4,1.2
		c-0.6,0.3-1.3,0.4-2,0.4c-1.4,0-2.4-0.4-3.2-1.3c-0.8-0.9-1.2-2.1-1.2-3.6v-0.2c0-1.5,0.4-2.6,1.2-3.5s1.8-1.3,3.2-1.3
		c1.2,0,2.1,0.3,2.9,1c0.7,0.7,1.1,1.6,1.1,2.7h-2.4c0-0.5-0.2-0.9-0.5-1.2s-0.7-0.5-1.2-0.5c-0.6,0-1,0.2-1.3,0.6
		c-0.3,0.4-0.5,1.1-0.5,2.1v0.3c0,1,0.1,1.7,0.4,2.1S490.9,311.1,491.5,311.1z"/>
	<path class="st5" d="M499.3,303.5l0.1,1.1c0.7-0.8,1.6-1.3,2.7-1.3c1,0,1.8,0.3,2.2,0.9s0.7,1.5,0.8,2.7v6.1h-2.5v-6.1
		c0-0.5-0.1-0.9-0.4-1.2c-0.2-0.2-0.6-0.4-1.2-0.4c-0.7,0-1.3,0.3-1.6,0.9v6.7h-2.5v-9.5H499.3z"/>
	<path class="st5" d="M506.6,308.2c0-0.9,0.2-1.8,0.5-2.5s0.9-1.3,1.6-1.7s1.5-0.6,2.4-0.6c1.3,0,2.3,0.4,3.1,1.2s1.3,1.9,1.4,3.2
		l0,0.7c0,1.5-0.4,2.6-1.2,3.5s-1.9,1.3-3.3,1.3s-2.5-0.4-3.3-1.3s-1.2-2.1-1.2-3.6V308.2z M509.2,308.3c0,0.9,0.2,1.6,0.5,2.1
		c0.3,0.5,0.8,0.7,1.5,0.7c0.6,0,1.1-0.2,1.4-0.7c0.3-0.5,0.5-1.2,0.5-2.3c0-0.9-0.2-1.6-0.5-2.1s-0.8-0.7-1.5-0.7
		c-0.6,0-1.1,0.2-1.4,0.7C509.4,306.6,509.2,307.3,509.2,308.3z"/>
	<path class="st5" d="M519.9,313h-2.5v-13.5h2.5V313z"/>
	<path class="st5" d="M521.6,308.2c0-0.9,0.2-1.8,0.5-2.5s0.9-1.3,1.6-1.7s1.5-0.6,2.4-0.6c1.3,0,2.3,0.4,3.1,1.2s1.3,1.9,1.4,3.2
		l0,0.7c0,1.5-0.4,2.6-1.2,3.5s-1.9,1.3-3.3,1.3s-2.5-0.4-3.3-1.3s-1.2-2.1-1.2-3.6V308.2z M524.1,308.3c0,0.9,0.2,1.6,0.5,2.1
		c0.3,0.5,0.8,0.7,1.5,0.7c0.6,0,1.1-0.2,1.4-0.7c0.3-0.5,0.5-1.2,0.5-2.3c0-0.9-0.2-1.6-0.5-2.1s-0.8-0.7-1.5-0.7
		c-0.6,0-1.1,0.2-1.4,0.7C524.3,306.6,524.1,307.3,524.1,308.3z"/>
	<path class="st5" d="M531.8,308.2c0-1.5,0.3-2.6,1-3.5s1.6-1.3,2.8-1.3c1,0,1.9,0.4,2.4,1.1l0.1-0.9h2.3v9.2c0,0.8-0.2,1.6-0.6,2.2
		s-0.9,1.1-1.6,1.4s-1.5,0.5-2.4,0.5c-0.7,0-1.4-0.1-2-0.4s-1.2-0.6-1.5-1.1l1.1-1.5c0.6,0.7,1.4,1.1,2.3,1.1c0.7,0,1.2-0.2,1.6-0.5
		c0.4-0.4,0.6-0.9,0.6-1.5v-0.5c-0.6,0.7-1.4,1-2.3,1c-1.1,0-2.1-0.4-2.8-1.3s-1.1-2.1-1.1-3.6V308.2z M534.3,308.4
		c0,0.9,0.2,1.5,0.5,2c0.3,0.5,0.8,0.7,1.4,0.7c0.8,0,1.3-0.3,1.7-0.9v-4c-0.3-0.6-0.9-0.9-1.6-0.9c-0.6,0-1.1,0.2-1.4,0.7
		C534.5,306.6,534.3,307.4,534.3,308.4z"/>
	<path class="st5" d="M545.2,313h-2.5v-9.5h2.5V313z M544.4,299.6h2.8l-2.4,2.7h-2.1L544.4,299.6z"/>
	<path class="st5" d="M552.9,313c-0.1-0.2-0.2-0.5-0.3-0.9c-0.6,0.7-1.4,1-2.4,1c-0.9,0-1.7-0.3-2.3-0.8s-0.9-1.2-0.9-2
		c0-1,0.4-1.8,1.1-2.3s1.8-0.8,3.2-0.8h1.2v-0.5c0-0.4-0.1-0.8-0.3-1.1s-0.6-0.4-1.1-0.4c-0.4,0-0.8,0.1-1,0.3s-0.4,0.5-0.4,0.8
		h-2.5c0-0.6,0.2-1.1,0.5-1.5s0.8-0.8,1.4-1.1s1.3-0.4,2.1-0.4c1.2,0,2.1,0.3,2.8,0.9c0.7,0.6,1,1.4,1,2.5v4.1c0,0.9,0.1,1.6,0.4,2
		v0.1H552.9z M550.8,311.2c0.4,0,0.7-0.1,1-0.3c0.3-0.2,0.6-0.4,0.7-0.7v-1.6h-0.9c-1.3,0-1.9,0.4-2,1.3l0,0.1
		c0,0.3,0.1,0.6,0.3,0.8S550.4,311.2,550.8,311.2z"/>
</g>
<path id="Rectángulo_35482" class="st6" d="M648,255h140c14.9,0,27,12.1,27,27v20c0,14.9-12.1,27-27,27H648c-14.9,0-27-12.1-27-27
	v-20C621,267.1,633.1,255,648,255z"/>
<g class="st1">
	<path class="st5" d="M647.1,288v-12.8h3.9c1.1,0,2.1,0.3,3,0.8c0.9,0.5,1.6,1.2,2.1,2.2c0.5,0.9,0.7,2,0.7,3.2v0.6
		c0,1.2-0.2,2.2-0.7,3.2c-0.5,0.9-1.2,1.6-2.1,2.2s-1.9,0.8-3,0.8H647.1z M649.7,277.3v8.5h1.3c1,0,1.8-0.3,2.4-1s0.8-1.6,0.8-2.9
		v-0.7c0-1.3-0.3-2.3-0.8-3s-1.3-1-2.4-1H649.7z"/>
	<path class="st5" d="M663,288.2c-1.4,0-2.5-0.4-3.4-1.3c-0.9-0.9-1.3-2-1.3-3.4v-0.2c0-1,0.2-1.8,0.6-2.6s0.9-1.3,1.6-1.7
		c0.7-0.4,1.4-0.6,2.3-0.6c1.3,0,2.3,0.4,3.1,1.2c0.7,0.8,1.1,2,1.1,3.5v1h-6.1c0.1,0.6,0.3,1.1,0.7,1.5c0.4,0.4,0.9,0.6,1.6,0.6
		c1,0,1.7-0.4,2.3-1.1l1.2,1.4c-0.4,0.5-0.9,1-1.5,1.3C664.5,288,663.8,288.2,663,288.2z M662.7,280.4c-0.5,0-0.9,0.2-1.2,0.5
		c-0.3,0.3-0.5,0.8-0.6,1.5h3.5v-0.2c0-0.6-0.2-1-0.5-1.3C663.6,280.5,663.2,280.4,662.7,280.4z"/>
	<path class="st5" d="M676.9,283.3c0,1.5-0.3,2.6-1,3.5c-0.7,0.9-1.6,1.3-2.7,1.3c-1,0-1.7-0.3-2.3-1v4.5h-2.5v-13.2h2.4l0.1,0.9
		c0.6-0.7,1.4-1.1,2.4-1.1c1.2,0,2.1,0.4,2.7,1.3s1,2.1,1,3.6V283.3z M674.3,283.1c0-0.9-0.2-1.6-0.5-2c-0.3-0.5-0.8-0.7-1.4-0.7
		c-0.8,0-1.3,0.3-1.6,0.9v3.9c0.3,0.6,0.9,0.9,1.7,0.9C673.7,286.1,674.3,285.1,674.3,283.1z"/>
	<path class="st5" d="M684,288c-0.1-0.2-0.2-0.5-0.3-0.9c-0.6,0.7-1.4,1-2.4,1c-0.9,0-1.7-0.3-2.3-0.8c-0.6-0.5-0.9-1.2-0.9-2
		c0-1,0.4-1.8,1.1-2.3c0.7-0.5,1.8-0.8,3.2-0.8h1.2v-0.5c0-0.4-0.1-0.8-0.3-1.1c-0.2-0.3-0.6-0.4-1.1-0.4c-0.4,0-0.8,0.1-1,0.3
		c-0.2,0.2-0.4,0.5-0.4,0.8h-2.5c0-0.6,0.2-1.1,0.5-1.5s0.8-0.8,1.4-1.1s1.3-0.4,2.1-0.4c1.2,0,2.1,0.3,2.8,0.9c0.7,0.6,1,1.4,1,2.5
		v4.1c0,0.9,0.1,1.6,0.4,2v0.1H684z M681.9,286.2c0.4,0,0.7-0.1,1-0.3c0.3-0.2,0.6-0.4,0.7-0.7v-1.6h-0.9c-1.3,0-1.9,0.4-2,1.3
		l0,0.1c0,0.3,0.1,0.6,0.3,0.8S681.5,286.2,681.9,286.2z"/>
	<path class="st5" d="M693.4,280.9c-0.3,0-0.7-0.1-0.9-0.1c-1,0-1.6,0.3-1.9,1v6.2h-2.5v-9.5h2.4l0.1,1.1c0.5-0.9,1.2-1.3,2.1-1.3
		c0.3,0,0.5,0,0.8,0.1L693.4,280.9z"/>
	<path class="st5" d="M698.1,276.2v2.3h1.6v1.9h-1.6v4.7c0,0.4,0.1,0.6,0.2,0.8s0.4,0.2,0.8,0.2c0.3,0,0.5,0,0.7-0.1v1.9
		c-0.5,0.2-1,0.2-1.5,0.2c-1.8,0-2.7-0.9-2.7-2.7v-5.1h-1.4v-1.9h1.4v-2.3H698.1z"/>
	<path class="st5" d="M706.7,288c-0.1-0.2-0.2-0.5-0.3-0.9c-0.6,0.7-1.4,1-2.4,1c-0.9,0-1.7-0.3-2.3-0.8c-0.6-0.5-0.9-1.2-0.9-2
		c0-1,0.4-1.8,1.1-2.3c0.7-0.5,1.8-0.8,3.2-0.8h1.2v-0.5c0-0.4-0.1-0.8-0.3-1.1c-0.2-0.3-0.6-0.4-1.1-0.4c-0.4,0-0.8,0.1-1,0.3
		c-0.2,0.2-0.4,0.5-0.4,0.8H701c0-0.6,0.2-1.1,0.5-1.5s0.8-0.8,1.4-1.1s1.3-0.4,2.1-0.4c1.2,0,2.1,0.3,2.8,0.9c0.7,0.6,1,1.4,1,2.5
		v4.1c0,0.9,0.1,1.6,0.4,2v0.1H706.7z M704.6,286.2c0.4,0,0.7-0.1,1-0.3c0.3-0.2,0.6-0.4,0.7-0.7v-1.6h-0.9c-1.3,0-1.9,0.4-2,1.3
		l0,0.1c0,0.3,0.1,0.6,0.3,0.8S704.2,286.2,704.6,286.2z"/>
	<path class="st5" d="M713.2,278.5l0.1,1.1c0.7-0.8,1.6-1.2,2.7-1.2c1.2,0,2.1,0.5,2.5,1.5c0.7-1,1.6-1.5,2.9-1.5
		c1,0,1.8,0.3,2.3,0.9c0.5,0.6,0.8,1.5,0.8,2.7v6.1h-2.5v-6.1c0-0.5-0.1-0.9-0.3-1.2s-0.6-0.4-1.1-0.4c-0.8,0-1.3,0.4-1.6,1.1l0,6.5
		h-2.5v-6.1c0-0.6-0.1-0.9-0.3-1.2s-0.6-0.4-1.1-0.4c-0.7,0-1.2,0.3-1.6,0.9v6.7h-2.5v-9.5H713.2z"/>
	<path class="st5" d="M730.8,288.2c-1.4,0-2.5-0.4-3.4-1.3c-0.9-0.9-1.3-2-1.3-3.4v-0.2c0-1,0.2-1.8,0.6-2.6s0.9-1.3,1.6-1.7
		c0.7-0.4,1.4-0.6,2.3-0.6c1.3,0,2.3,0.4,3.1,1.2c0.7,0.8,1.1,2,1.1,3.5v1h-6.1c0.1,0.6,0.3,1.1,0.7,1.5c0.4,0.4,0.9,0.6,1.6,0.6
		c1,0,1.7-0.4,2.3-1.1l1.2,1.4c-0.4,0.5-0.9,1-1.5,1.3C732.3,288,731.6,288.2,730.8,288.2z M730.5,280.4c-0.5,0-0.9,0.2-1.2,0.5
		c-0.3,0.3-0.5,0.8-0.6,1.5h3.5v-0.2c0-0.6-0.2-1-0.5-1.3C731.5,280.5,731,280.4,730.5,280.4z"/>
	<path class="st5" d="M738.5,278.5l0.1,1.1c0.7-0.8,1.6-1.3,2.7-1.3c1,0,1.8,0.3,2.2,0.9s0.7,1.5,0.8,2.7v6.1h-2.5v-6.1
		c0-0.5-0.1-0.9-0.4-1.2c-0.2-0.2-0.6-0.4-1.2-0.4c-0.7,0-1.3,0.3-1.6,0.9v6.7h-2.5v-9.5H738.5z"/>
	<path class="st5" d="M749.3,276.2v2.3h1.6v1.9h-1.6v4.7c0,0.4,0.1,0.6,0.2,0.8s0.4,0.2,0.8,0.2c0.3,0,0.5,0,0.7-0.1v1.9
		c-0.5,0.2-1,0.2-1.5,0.2c-1.8,0-2.7-0.9-2.7-2.7v-5.1h-1.4v-1.9h1.4v-2.3H749.3z"/>
	<path class="st5" d="M751.7,283.2c0-0.9,0.2-1.8,0.5-2.5s0.9-1.3,1.6-1.7c0.7-0.4,1.5-0.6,2.4-0.6c1.3,0,2.3,0.4,3.1,1.2
		c0.8,0.8,1.3,1.9,1.4,3.2l0,0.7c0,1.5-0.4,2.6-1.2,3.5s-1.9,1.3-3.3,1.3s-2.5-0.4-3.3-1.3c-0.8-0.9-1.2-2.1-1.2-3.6V283.2z
		 M754.2,283.3c0,0.9,0.2,1.6,0.5,2.1c0.3,0.5,0.8,0.7,1.5,0.7c0.6,0,1.1-0.2,1.4-0.7c0.3-0.5,0.5-1.2,0.5-2.3
		c0-0.9-0.2-1.6-0.5-2.1s-0.8-0.7-1.5-0.7c-0.6,0-1.1,0.2-1.4,0.7C754.4,281.6,754.2,282.3,754.2,283.3z"/>
	<path class="st5" d="M766.3,283.2c0-1.5,0.3-2.7,1-3.5c0.7-0.9,1.6-1.3,2.7-1.3c0.9,0,1.7,0.3,2.3,1v-4.9h2.5V288h-2.3l-0.1-1
		c-0.6,0.8-1.4,1.2-2.4,1.2c-1.1,0-2-0.4-2.7-1.3C766.7,286,766.3,284.7,766.3,283.2z M768.9,283.4c0,0.9,0.2,1.6,0.5,2.1
		s0.8,0.7,1.4,0.7c0.8,0,1.3-0.3,1.7-1v-3.8c-0.3-0.7-0.9-1-1.6-1C769.5,280.4,768.9,281.4,768.9,283.4z"/>
	<path class="st5" d="M781.2,288.2c-1.4,0-2.5-0.4-3.4-1.3c-0.9-0.9-1.3-2-1.3-3.4v-0.2c0-1,0.2-1.8,0.6-2.6s0.9-1.3,1.6-1.7
		c0.7-0.4,1.4-0.6,2.3-0.6c1.3,0,2.3,0.4,3.1,1.2c0.7,0.8,1.1,2,1.1,3.5v1h-6.1c0.1,0.6,0.3,1.1,0.7,1.5c0.4,0.4,0.9,0.6,1.6,0.6
		c1,0,1.7-0.4,2.3-1.1l1.2,1.4c-0.4,0.5-0.9,1-1.5,1.3C782.7,288,782,288.2,781.2,288.2z M780.9,280.4c-0.5,0-0.9,0.2-1.2,0.5
		c-0.3,0.3-0.5,0.8-0.6,1.5h3.5v-0.2c0-0.6-0.2-1-0.5-1.3C781.9,280.5,781.5,280.4,780.9,280.4z"/>
</g>
<g class="st1">
	<path class="st5" d="M667.7,300.2l3.3,9.3l3.3-9.3h3.5V313h-2.6v-3.5l0.3-6l-3.5,9.5h-1.8l-3.4-9.5l0.3,6v3.5h-2.6v-12.8H667.7z"/>
	<path class="st5" d="M685.4,313c-0.1-0.2-0.2-0.5-0.3-0.9c-0.6,0.7-1.4,1-2.4,1c-0.9,0-1.7-0.3-2.3-0.8s-0.9-1.2-0.9-2
		c0-1,0.4-1.8,1.1-2.3s1.8-0.8,3.2-0.8h1.2v-0.5c0-0.4-0.1-0.8-0.3-1.1s-0.6-0.4-1.1-0.4c-0.4,0-0.8,0.1-1,0.3s-0.4,0.5-0.4,0.8
		h-2.5c0-0.6,0.2-1.1,0.5-1.5s0.8-0.8,1.4-1.1s1.3-0.4,2.1-0.4c1.2,0,2.1,0.3,2.8,0.9c0.7,0.6,1,1.4,1,2.5v4.1c0,0.9,0.1,1.6,0.4,2
		v0.1H685.4z M683.3,311.2c0.4,0,0.7-0.1,1-0.3c0.3-0.2,0.6-0.4,0.7-0.7v-1.6H684c-1.3,0-1.9,0.4-2,1.3l0,0.1c0,0.3,0.1,0.6,0.3,0.8
		S682.9,311.2,683.3,311.2z"/>
	<path class="st5" d="M692.5,301.2v2.3h1.6v1.9h-1.6v4.7c0,0.4,0.1,0.6,0.2,0.8s0.4,0.2,0.8,0.2c0.3,0,0.5,0,0.7-0.1v1.9
		c-0.5,0.2-1,0.2-1.5,0.2c-1.8,0-2.7-0.9-2.7-2.7v-5.1h-1.4v-1.9h1.4v-2.3H692.5z"/>
	<path class="st5" d="M700,313.2c-1.4,0-2.5-0.4-3.4-1.3s-1.3-2-1.3-3.4v-0.2c0-1,0.2-1.8,0.6-2.6s0.9-1.3,1.6-1.7s1.4-0.6,2.3-0.6
		c1.3,0,2.3,0.4,3.1,1.2s1.1,2,1.1,3.5v1h-6.1c0.1,0.6,0.3,1.1,0.7,1.5s0.9,0.6,1.6,0.6c1,0,1.7-0.4,2.3-1.1l1.2,1.4
		c-0.4,0.5-0.9,1-1.5,1.3C701.5,313,700.7,313.2,700,313.2z M699.7,305.4c-0.5,0-0.9,0.2-1.2,0.5c-0.3,0.3-0.5,0.8-0.6,1.5h3.5v-0.2
		c0-0.6-0.2-1-0.5-1.3C700.6,305.5,700.2,305.4,699.7,305.4z"/>
	<path class="st5" d="M707.7,303.5l0.1,1.1c0.7-0.8,1.6-1.2,2.7-1.2c1.2,0,2.1,0.5,2.5,1.5c0.7-1,1.6-1.5,2.9-1.5
		c1,0,1.8,0.3,2.3,0.9c0.5,0.6,0.8,1.5,0.8,2.7v6.1h-2.5v-6.1c0-0.5-0.1-0.9-0.3-1.2s-0.6-0.4-1.1-0.4c-0.8,0-1.3,0.4-1.6,1.1l0,6.5
		h-2.5v-6.1c0-0.6-0.1-0.9-0.3-1.2s-0.6-0.4-1.1-0.4c-0.7,0-1.2,0.3-1.6,0.9v6.7h-2.5v-9.5H707.7z"/>
	<path class="st5" d="M726.4,313c-0.1-0.2-0.2-0.5-0.3-0.9c-0.6,0.7-1.4,1-2.4,1c-0.9,0-1.7-0.3-2.3-0.8s-0.9-1.2-0.9-2
		c0-1,0.4-1.8,1.1-2.3s1.8-0.8,3.2-0.8h1.2v-0.5c0-0.4-0.1-0.8-0.3-1.1s-0.6-0.4-1.1-0.4c-0.4,0-0.8,0.1-1,0.3s-0.4,0.5-0.4,0.8
		h-2.5c0-0.6,0.2-1.1,0.5-1.5s0.8-0.8,1.4-1.1s1.3-0.4,2.1-0.4c1.2,0,2.1,0.3,2.8,0.9c0.7,0.6,1,1.4,1,2.5v4.1c0,0.9,0.1,1.6,0.4,2
		v0.1H726.4z M724.3,311.2c0.4,0,0.7-0.1,1-0.3c0.3-0.2,0.6-0.4,0.7-0.7v-1.6h-0.9c-1.3,0-1.9,0.4-2,1.3l0,0.1
		c0,0.3,0.1,0.6,0.3,0.8S723.9,311.2,724.3,311.2z M725.3,299.5h2.8l-2.4,2.7h-2.1L725.3,299.5z"/>
	<path class="st5" d="M733.6,301.2v2.3h1.6v1.9h-1.6v4.7c0,0.4,0.1,0.6,0.2,0.8s0.4,0.2,0.8,0.2c0.3,0,0.5,0,0.7-0.1v1.9
		c-0.5,0.2-1,0.2-1.5,0.2c-1.8,0-2.7-0.9-2.7-2.7v-5.1h-1.4v-1.9h1.4v-2.3H733.6z"/>
	<path class="st5" d="M736.6,301c0-0.4,0.1-0.7,0.4-0.9s0.6-0.4,1-0.4c0.4,0,0.8,0.1,1,0.4s0.4,0.6,0.4,0.9c0,0.4-0.1,0.7-0.4,0.9
		s-0.6,0.4-1,0.4s-0.8-0.1-1-0.4S736.6,301.4,736.6,301z M739.3,313h-2.5v-9.5h2.5V313z"/>
	<path class="st5" d="M745.4,311.1c0.5,0,0.8-0.1,1.1-0.4s0.4-0.6,0.5-1h2.4c0,0.6-0.2,1.2-0.5,1.8c-0.3,0.5-0.8,1-1.4,1.2
		c-0.6,0.3-1.3,0.4-2,0.4c-1.4,0-2.4-0.4-3.2-1.3c-0.8-0.9-1.2-2.1-1.2-3.6v-0.2c0-1.5,0.4-2.6,1.2-3.5s1.8-1.3,3.2-1.3
		c1.2,0,2.1,0.3,2.9,1c0.7,0.7,1.1,1.6,1.1,2.7H747c0-0.5-0.2-0.9-0.5-1.2s-0.7-0.5-1.2-0.5c-0.6,0-1,0.2-1.3,0.6
		c-0.3,0.4-0.5,1.1-0.5,2.1v0.3c0,1,0.1,1.7,0.4,2.1S744.7,311.1,745.4,311.1z"/>
	<path class="st5" d="M756.3,313c-0.1-0.2-0.2-0.5-0.3-0.9c-0.6,0.7-1.4,1-2.4,1c-0.9,0-1.7-0.3-2.3-0.8s-0.9-1.2-0.9-2
		c0-1,0.4-1.8,1.1-2.3s1.8-0.8,3.2-0.8h1.2v-0.5c0-0.4-0.1-0.8-0.3-1.1s-0.6-0.4-1.1-0.4c-0.4,0-0.8,0.1-1,0.3s-0.4,0.5-0.4,0.8
		h-2.5c0-0.6,0.2-1.1,0.5-1.5s0.8-0.8,1.4-1.1s1.3-0.4,2.1-0.4c1.2,0,2.1,0.3,2.8,0.9c0.7,0.6,1,1.4,1,2.5v4.1c0,0.9,0.1,1.6,0.4,2
		v0.1H756.3z M754.2,311.2c0.4,0,0.7-0.1,1-0.3c0.3-0.2,0.6-0.4,0.7-0.7v-1.6H755c-1.3,0-1.9,0.4-2,1.3l0,0.1c0,0.3,0.1,0.6,0.3,0.8
		S753.8,311.2,754.2,311.2z"/>
	<path class="st5" d="M765.6,310.4c0-0.3-0.2-0.6-0.5-0.7s-0.8-0.3-1.5-0.5c-2.3-0.5-3.4-1.4-3.4-2.9c0-0.8,0.3-1.5,1-2.1
		c0.7-0.6,1.6-0.8,2.7-0.8c1.2,0,2.2,0.3,2.9,0.9s1.1,1.3,1.1,2.2h-2.5c0-0.4-0.1-0.7-0.4-0.9c-0.2-0.2-0.6-0.4-1.1-0.4
		c-0.4,0-0.8,0.1-1,0.3s-0.4,0.4-0.4,0.7c0,0.3,0.1,0.5,0.4,0.7c0.3,0.2,0.7,0.3,1.3,0.4s1.2,0.3,1.6,0.4c1.3,0.5,2,1.3,2,2.6
		c0,0.9-0.4,1.6-1.1,2.1c-0.7,0.5-1.7,0.8-2.9,0.8c-0.8,0-1.5-0.1-2.1-0.4c-0.6-0.3-1.1-0.7-1.5-1.2c-0.4-0.5-0.5-1-0.5-1.6h2.4
		c0,0.5,0.2,0.8,0.5,1s0.7,0.4,1.2,0.4c0.5,0,0.9-0.1,1.1-0.3C765.5,310.9,765.6,310.7,765.6,310.4z"/>
</g>
<path id="Rectángulo_35483" class="st6" d="M855,255h140c14.9,0,27,12.1,27,27v54c0,14.9-12.1,27-27,27H855c-14.9,0-27-12.1-27-27
	v-54C828,267.1,840.1,255,855,255z"/>
<g class="st1">
	<path class="st5" d="M861.1,290.4h-4.6l-0.9,2.6h-2.8l4.8-12.8h2.4l4.8,12.8H862L861.1,290.4z M857.2,288.2h3.2l-1.6-4.8
		L857.2,288.2z"/>
	<path class="st5" d="M865.5,288.2c0-1.5,0.3-2.7,1-3.5s1.6-1.3,2.7-1.3c0.9,0,1.7,0.3,2.3,1v-4.9h2.5V293h-2.3l-0.1-1
		c-0.6,0.8-1.4,1.2-2.4,1.2c-1.1,0-2-0.4-2.7-1.3S865.5,289.7,865.5,288.2z M868,288.4c0,0.9,0.2,1.6,0.5,2.1s0.8,0.7,1.4,0.7
		c0.8,0,1.3-0.3,1.7-1v-3.8c-0.3-0.7-0.9-1-1.6-1C868.6,285.4,868,286.4,868,288.4z"/>
	<path class="st5" d="M878.4,283.5l0.1,1.1c0.7-0.8,1.6-1.2,2.7-1.2c1.2,0,2.1,0.5,2.5,1.5c0.7-1,1.6-1.5,2.9-1.5
		c1,0,1.8,0.3,2.3,0.9c0.5,0.6,0.8,1.5,0.8,2.7v6.1h-2.5v-6.1c0-0.5-0.1-0.9-0.3-1.2s-0.6-0.4-1.1-0.4c-0.8,0-1.3,0.4-1.6,1.1l0,6.5
		h-2.5v-6.1c0-0.6-0.1-0.9-0.3-1.2s-0.6-0.4-1.1-0.4c-0.7,0-1.2,0.3-1.6,0.9v6.7H876v-9.5H878.4z"/>
	<path class="st5" d="M891.6,281c0-0.4,0.1-0.7,0.4-0.9s0.6-0.4,1-0.4c0.4,0,0.8,0.1,1,0.4s0.4,0.6,0.4,0.9c0,0.4-0.1,0.7-0.4,0.9
		s-0.6,0.4-1,0.4s-0.8-0.1-1-0.4S891.6,281.4,891.6,281z M894.3,293h-2.5v-9.5h2.5V293z"/>
	<path class="st5" d="M898.7,283.5l0.1,1.1c0.7-0.8,1.6-1.3,2.7-1.3c1,0,1.8,0.3,2.2,0.9s0.7,1.5,0.8,2.7v6.1H902v-6.1
		c0-0.5-0.1-0.9-0.4-1.2c-0.2-0.2-0.6-0.4-1.2-0.4c-0.7,0-1.3,0.3-1.6,0.9v6.7h-2.5v-9.5H898.7z"/>
	<path class="st5" d="M906.4,281c0-0.4,0.1-0.7,0.4-0.9s0.6-0.4,1-0.4c0.4,0,0.8,0.1,1,0.4s0.4,0.6,0.4,0.9c0,0.4-0.1,0.7-0.4,0.9
		s-0.6,0.4-1,0.4s-0.8-0.1-1-0.4S906.4,281.4,906.4,281z M909.1,293h-2.5v-9.5h2.5V293z"/>
	<path class="st5" d="M916.4,290.4c0-0.3-0.2-0.6-0.5-0.7s-0.8-0.3-1.5-0.5c-2.3-0.5-3.4-1.4-3.4-2.9c0-0.8,0.4-1.5,1.1-2.1
		c0.7-0.6,1.6-0.8,2.7-0.8c1.2,0,2.2,0.3,2.9,0.9s1.1,1.3,1.1,2.2h-2.5c0-0.4-0.1-0.7-0.4-0.9c-0.2-0.2-0.6-0.4-1.1-0.4
		c-0.4,0-0.8,0.1-1,0.3s-0.4,0.4-0.4,0.7c0,0.3,0.1,0.5,0.4,0.7c0.3,0.2,0.7,0.3,1.3,0.4s1.2,0.3,1.6,0.4c1.3,0.5,2,1.3,2,2.6
		c0,0.9-0.4,1.6-1.1,2.1c-0.7,0.5-1.7,0.8-2.9,0.8c-0.8,0-1.5-0.1-2.1-0.4c-0.6-0.3-1.1-0.7-1.5-1.2c-0.4-0.5-0.5-1-0.5-1.6h2.4
		c0,0.5,0.2,0.8,0.5,1s0.7,0.4,1.2,0.4c0.5,0,0.9-0.1,1.1-0.3C916.2,290.9,916.4,290.7,916.4,290.4z"/>
	<path class="st5" d="M923.5,281.2v2.3h1.6v1.9h-1.6v4.7c0,0.4,0.1,0.6,0.2,0.8s0.4,0.2,0.8,0.2c0.3,0,0.5,0,0.7-0.1v1.9
		c-0.5,0.2-1,0.2-1.5,0.2c-1.8,0-2.7-0.9-2.7-2.7v-5.1h-1.4v-1.9h1.4v-2.3H923.5z"/>
	<path class="st5" d="M931.9,285.9c-0.3,0-0.7-0.1-0.9-0.1c-1,0-1.6,0.3-1.9,1v6.2h-2.5v-9.5h2.4l0.1,1.1c0.5-0.9,1.2-1.3,2.1-1.3
		c0.3,0,0.5,0,0.8,0.1L931.9,285.9z"/>
	<path class="st5" d="M938.4,293c-0.1-0.2-0.2-0.5-0.3-0.9c-0.6,0.7-1.4,1-2.4,1c-0.9,0-1.7-0.3-2.3-0.8s-0.9-1.2-0.9-2
		c0-1,0.4-1.8,1.1-2.3s1.8-0.8,3.2-0.8h1.2v-0.5c0-0.4-0.1-0.8-0.3-1.1s-0.6-0.4-1.1-0.4c-0.4,0-0.8,0.1-1,0.3s-0.4,0.5-0.4,0.8
		h-2.5c0-0.6,0.2-1.1,0.5-1.5s0.8-0.8,1.4-1.1s1.3-0.4,2.1-0.4c1.2,0,2.1,0.3,2.8,0.9c0.7,0.6,1,1.4,1,2.5v4.1c0,0.9,0.1,1.6,0.4,2
		v0.1H938.4z M936.2,291.2c0.4,0,0.7-0.1,1-0.3c0.3-0.2,0.6-0.4,0.7-0.7v-1.6H937c-1.3,0-1.9,0.4-2,1.3l0,0.1c0,0.3,0.1,0.6,0.3,0.8
		S935.9,291.2,936.2,291.2z"/>
	<path class="st5" d="M942.1,288.2c0-1.5,0.3-2.7,1-3.5s1.6-1.3,2.7-1.3c0.9,0,1.7,0.3,2.3,1v-4.9h2.5V293h-2.3l-0.1-1
		c-0.6,0.8-1.4,1.2-2.4,1.2c-1.1,0-2-0.4-2.7-1.3S942.1,289.7,942.1,288.2z M944.6,288.4c0,0.9,0.2,1.6,0.5,2.1s0.8,0.7,1.4,0.7
		c0.8,0,1.3-0.3,1.7-1v-3.8c-0.3-0.7-0.9-1-1.6-1C945.2,285.4,944.6,286.4,944.6,288.4z"/>
	<path class="st5" d="M952.2,288.2c0-0.9,0.2-1.8,0.5-2.5s0.9-1.3,1.6-1.7s1.5-0.6,2.4-0.6c1.3,0,2.3,0.4,3.1,1.2s1.3,1.9,1.4,3.2
		l0,0.7c0,1.5-0.4,2.6-1.2,3.5s-1.9,1.3-3.3,1.3s-2.5-0.4-3.3-1.3s-1.2-2.1-1.2-3.6V288.2z M954.8,288.3c0,0.9,0.2,1.6,0.5,2.1
		c0.3,0.5,0.8,0.7,1.5,0.7c0.6,0,1.1-0.2,1.4-0.7c0.3-0.5,0.5-1.2,0.5-2.3c0-0.9-0.2-1.6-0.5-2.1s-0.8-0.7-1.5-0.7
		c-0.6,0-1.1,0.2-1.4,0.7C954.9,286.6,954.8,287.3,954.8,288.3z"/>
	<path class="st5" d="M968.2,285.9c-0.3,0-0.7-0.1-0.9-0.1c-1,0-1.6,0.3-1.9,1v6.2h-2.5v-9.5h2.4l0.1,1.1c0.5-0.9,1.2-1.3,2.1-1.3
		c0.3,0,0.5,0,0.8,0.1L968.2,285.9z"/>
	<path class="st5" d="M973.5,288.2c0-1.5,0.3-2.7,1-3.5s1.6-1.3,2.7-1.3c0.9,0,1.7,0.3,2.3,1v-4.9h2.5V293h-2.3l-0.1-1
		c-0.6,0.8-1.4,1.2-2.4,1.2c-1.1,0-2-0.4-2.7-1.3S973.5,289.7,973.5,288.2z M976,288.4c0,0.9,0.2,1.6,0.5,2.1s0.8,0.7,1.4,0.7
		c0.8,0,1.3-0.3,1.7-1v-3.8c-0.3-0.7-0.9-1-1.6-1C976.6,285.4,976,286.4,976,288.4z"/>
	<path class="st5" d="M988.4,293.2c-1.4,0-2.5-0.4-3.4-1.3s-1.3-2-1.3-3.4v-0.2c0-1,0.2-1.8,0.6-2.6s0.9-1.3,1.6-1.7
		s1.4-0.6,2.3-0.6c1.3,0,2.3,0.4,3.1,1.2s1.1,2,1.1,3.5v1h-6.1c0.1,0.6,0.3,1.1,0.7,1.5s0.9,0.6,1.6,0.6c1,0,1.7-0.4,2.3-1.1
		l1.2,1.4c-0.4,0.5-0.9,1-1.5,1.3C989.9,293,989.2,293.2,988.4,293.2z M988.1,285.4c-0.5,0-0.9,0.2-1.2,0.5
		c-0.3,0.3-0.5,0.8-0.6,1.5h3.5v-0.2c0-0.6-0.2-1-0.5-1.3C989,285.5,988.6,285.4,988.1,285.4z"/>
</g>
<g class="st1">
	<path class="st5" d="M865.2,316.1c0.5,0,0.8-0.1,1.1-0.4s0.4-0.6,0.5-1h2.4c0,0.6-0.2,1.2-0.5,1.8c-0.3,0.5-0.8,1-1.4,1.2
		c-0.6,0.3-1.3,0.4-2,0.4c-1.4,0-2.4-0.4-3.2-1.3c-0.8-0.9-1.2-2.1-1.2-3.6v-0.2c0-1.5,0.4-2.6,1.2-3.5s1.8-1.3,3.2-1.3
		c1.2,0,2.1,0.3,2.9,1c0.7,0.7,1.1,1.6,1.1,2.7h-2.4c0-0.5-0.2-0.9-0.5-1.2s-0.7-0.5-1.2-0.5c-0.6,0-1,0.2-1.3,0.6
		c-0.3,0.4-0.5,1.1-0.5,2.1v0.3c0,1,0.1,1.7,0.4,2.1S864.6,316.1,865.2,316.1z"/>
	<path class="st5" d="M876.3,317c-0.6,0.8-1.5,1.1-2.6,1.1c-1,0-1.8-0.3-2.3-0.9s-0.8-1.4-0.8-2.6v-6.2h2.5v6.2c0,1,0.5,1.5,1.4,1.5
		c0.9,0,1.5-0.3,1.8-0.9v-6.7h2.5v9.5h-2.4L876.3,317z"/>
	<path class="st5" d="M886,310.9c-0.3,0-0.7-0.1-0.9-0.1c-1,0-1.6,0.3-1.9,1v6.2h-2.5v-9.5h2.4l0.1,1.1c0.5-0.9,1.2-1.3,2.1-1.3
		c0.3,0,0.5,0,0.8,0.1L886,310.9z"/>
	<path class="st5" d="M892.6,310.9c-0.3,0-0.7-0.1-0.9-0.1c-1,0-1.6,0.3-1.9,1v6.2h-2.5v-9.5h2.4l0.1,1.1c0.5-0.9,1.2-1.3,2.1-1.3
		c0.3,0,0.5,0,0.8,0.1L892.6,310.9z"/>
	<path class="st5" d="M896.6,318H894v-9.5h2.5V318z M895.8,304.6h2.8l-2.4,2.7h-2.1L895.8,304.6z"/>
	<path class="st5" d="M902.7,316.1c0.5,0,0.8-0.1,1.1-0.4s0.4-0.6,0.5-1h2.4c0,0.6-0.2,1.2-0.5,1.8c-0.3,0.5-0.8,1-1.4,1.2
		c-0.6,0.3-1.3,0.4-2,0.4c-1.4,0-2.4-0.4-3.2-1.3c-0.8-0.9-1.2-2.1-1.2-3.6v-0.2c0-1.5,0.4-2.6,1.2-3.5s1.8-1.3,3.2-1.3
		c1.2,0,2.1,0.3,2.9,1c0.7,0.7,1.1,1.6,1.1,2.7h-2.4c0-0.5-0.2-0.9-0.5-1.2s-0.7-0.5-1.2-0.5c-0.6,0-1,0.2-1.3,0.6
		c-0.3,0.4-0.5,1.1-0.5,2.1v0.3c0,1,0.1,1.7,0.4,2.1S902.1,316.1,902.7,316.1z"/>
	<path class="st5" d="M913.8,317c-0.6,0.8-1.5,1.1-2.6,1.1c-1,0-1.8-0.3-2.3-0.9s-0.8-1.4-0.8-2.6v-6.2h2.5v6.2c0,1,0.5,1.5,1.4,1.5
		c0.9,0,1.5-0.3,1.8-0.9v-6.7h2.5v9.5h-2.4L913.8,317z"/>
	<path class="st5" d="M920.9,318h-2.5v-13.5h2.5V318z"/>
	<path class="st5" d="M922.6,313.2c0-0.9,0.2-1.8,0.5-2.5s0.9-1.3,1.6-1.7s1.5-0.6,2.4-0.6c1.3,0,2.3,0.4,3.1,1.2s1.3,1.9,1.4,3.2
		l0,0.7c0,1.5-0.4,2.6-1.2,3.5s-1.9,1.3-3.3,1.3s-2.5-0.4-3.3-1.3s-1.2-2.1-1.2-3.6V313.2z M925.1,313.3c0,0.9,0.2,1.6,0.5,2.1
		c0.3,0.5,0.8,0.7,1.5,0.7c0.6,0,1.1-0.2,1.4-0.7c0.3-0.5,0.5-1.2,0.5-2.3c0-0.9-0.2-1.6-0.5-2.1s-0.8-0.7-1.5-0.7
		c-0.6,0-1.1,0.2-1.4,0.7C925.3,311.6,925.1,312.3,925.1,313.3z"/>
	<path class="st5" d="M941.2,314.4l1.8-5.9h2.7l-3.8,11l-0.2,0.5c-0.6,1.2-1.5,1.9-2.8,1.9c-0.4,0-0.7-0.1-1.1-0.2v-1.9l0.4,0
		c0.5,0,0.8-0.1,1.1-0.2s0.4-0.4,0.6-0.7l0.3-0.8l-3.3-9.5h2.7L941.2,314.4z"/>
	<path class="st5" d="M959.7,313.3c0,1.5-0.3,2.6-1,3.5s-1.6,1.3-2.7,1.3c-1,0-1.7-0.3-2.3-1v4.5h-2.5v-13.2h2.4l0.1,0.9
		c0.6-0.7,1.4-1.1,2.4-1.1c1.2,0,2.1,0.4,2.7,1.3s1,2.1,1,3.6V313.3z M957.2,313.1c0-0.9-0.2-1.6-0.5-2s-0.8-0.7-1.4-0.7
		c-0.8,0-1.3,0.3-1.6,0.9v3.9c0.3,0.6,0.9,0.9,1.7,0.9C956.6,316.1,957.2,315.1,957.2,313.1z"/>
	<path class="st5" d="M964,318h-2.5v-13.5h2.5V318z"/>
	<path class="st5" d="M971.6,318c-0.1-0.2-0.2-0.5-0.3-0.9c-0.6,0.7-1.4,1-2.4,1c-0.9,0-1.7-0.3-2.3-0.8s-0.9-1.2-0.9-2
		c0-1,0.4-1.8,1.1-2.3s1.8-0.8,3.2-0.8h1.2v-0.5c0-0.4-0.1-0.8-0.3-1.1s-0.6-0.4-1.1-0.4c-0.4,0-0.8,0.1-1,0.3s-0.4,0.5-0.4,0.8
		h-2.5c0-0.6,0.2-1.1,0.5-1.5s0.8-0.8,1.4-1.1s1.3-0.4,2.1-0.4c1.2,0,2.1,0.3,2.8,0.9c0.7,0.6,1,1.4,1,2.5v4.1c0,0.9,0.1,1.6,0.4,2
		v0.1H971.6z M969.5,316.2c0.4,0,0.7-0.1,1-0.3c0.3-0.2,0.6-0.4,0.7-0.7v-1.6h-0.9c-1.3,0-1.9,0.4-2,1.3l0,0.1
		c0,0.3,0.1,0.6,0.3,0.8S969.1,316.2,969.5,316.2z"/>
	<path class="st5" d="M978.1,308.5l0.1,1.1c0.7-0.8,1.6-1.3,2.7-1.3c1,0,1.8,0.3,2.2,0.9s0.7,1.5,0.8,2.7v6.1h-2.5v-6.1
		c0-0.5-0.1-0.9-0.4-1.2c-0.2-0.2-0.6-0.4-1.2-0.4c-0.7,0-1.3,0.3-1.6,0.9v6.7h-2.5v-9.5H978.1z"/>
</g>
<g class="st1">
	<path class="st5" d="M876.7,338.2c0-1.5,0.3-2.7,1-3.5s1.6-1.3,2.7-1.3c0.9,0,1.7,0.3,2.3,1v-4.9h2.5V343H883l-0.1-1
		c-0.6,0.8-1.4,1.2-2.4,1.2c-1.1,0-2-0.4-2.7-1.3S876.7,339.7,876.7,338.2z M879.3,338.4c0,0.9,0.2,1.6,0.5,2.1s0.8,0.7,1.4,0.7
		c0.8,0,1.3-0.3,1.7-1v-3.8c-0.3-0.7-0.9-1-1.6-1C879.9,335.4,879.3,336.4,879.3,338.4z"/>
	<path class="st5" d="M891.6,343.2c-1.4,0-2.5-0.4-3.4-1.3s-1.3-2-1.3-3.4v-0.2c0-1,0.2-1.8,0.6-2.6s0.9-1.3,1.6-1.7
		s1.4-0.6,2.3-0.6c1.3,0,2.3,0.4,3.1,1.2s1.1,2,1.1,3.5v1h-6.1c0.1,0.6,0.3,1.1,0.7,1.5s0.9,0.6,1.6,0.6c1,0,1.7-0.4,2.3-1.1
		l1.2,1.4c-0.4,0.5-0.9,1-1.5,1.3C893.1,343,892.4,343.2,891.6,343.2z M891.3,335.4c-0.5,0-0.9,0.2-1.2,0.5
		c-0.3,0.3-0.5,0.8-0.6,1.5h3.5v-0.2c0-0.6-0.2-1-0.5-1.3C892.3,335.5,891.9,335.4,891.3,335.4z"/>
	<path class="st5" d="M905.8,343.2c-1.4,0-2.5-0.4-3.4-1.3s-1.3-2-1.3-3.4v-0.2c0-1,0.2-1.8,0.6-2.6s0.9-1.3,1.6-1.7
		s1.4-0.6,2.3-0.6c1.3,0,2.3,0.4,3.1,1.2s1.1,2,1.1,3.5v1h-6.1c0.1,0.6,0.3,1.1,0.7,1.5s0.9,0.6,1.6,0.6c1,0,1.7-0.4,2.3-1.1
		l1.2,1.4c-0.4,0.5-0.9,1-1.5,1.3C907.4,343,906.6,343.2,905.8,343.2z M905.6,335.4c-0.5,0-0.9,0.2-1.2,0.5
		c-0.3,0.3-0.5,0.8-0.6,1.5h3.5v-0.2c0-0.6-0.2-1-0.5-1.3C906.5,335.5,906.1,335.4,905.6,335.4z"/>
	<path class="st5" d="M916.3,340.4c0-0.3-0.2-0.6-0.5-0.7s-0.8-0.3-1.5-0.5c-2.3-0.5-3.4-1.4-3.4-2.9c0-0.8,0.4-1.5,1.1-2.1
		c0.7-0.6,1.6-0.8,2.7-0.8c1.2,0,2.2,0.3,2.9,0.9s1.1,1.3,1.1,2.2h-2.5c0-0.4-0.1-0.7-0.4-0.9c-0.2-0.2-0.6-0.4-1.1-0.4
		c-0.4,0-0.8,0.1-1,0.3s-0.4,0.4-0.4,0.7c0,0.3,0.1,0.5,0.4,0.7c0.3,0.2,0.7,0.3,1.3,0.4s1.2,0.3,1.6,0.4c1.3,0.5,2,1.3,2,2.6
		c0,0.9-0.4,1.6-1.1,2.1c-0.7,0.5-1.7,0.8-2.9,0.8c-0.8,0-1.5-0.1-2.1-0.4c-0.6-0.3-1.1-0.7-1.5-1.2c-0.4-0.5-0.5-1-0.5-1.6h2.4
		c0,0.5,0.2,0.8,0.5,1s0.7,0.4,1.2,0.4c0.5,0,0.9-0.1,1.1-0.3C916.2,340.9,916.3,340.7,916.3,340.4z"/>
	<path class="st5" d="M923.5,331.2v2.3h1.6v1.9h-1.6v4.7c0,0.4,0.1,0.6,0.2,0.8s0.4,0.2,0.8,0.2c0.3,0,0.5,0,0.7-0.1v1.9
		c-0.5,0.2-1,0.2-1.5,0.2c-1.8,0-2.7-0.9-2.7-2.7v-5.1h-1.4v-1.9h1.4v-2.3H923.5z"/>
	<path class="st5" d="M932.2,342c-0.6,0.8-1.5,1.1-2.6,1.1c-1,0-1.8-0.3-2.3-0.9s-0.8-1.4-0.8-2.6v-6.2h2.5v6.2c0,1,0.5,1.5,1.4,1.5
		c0.9,0,1.5-0.3,1.8-0.9v-6.7h2.5v9.5h-2.4L932.2,342z"/>
	<path class="st5" d="M936.2,338.2c0-1.5,0.3-2.7,1-3.5s1.6-1.3,2.7-1.3c0.9,0,1.7,0.3,2.3,1v-4.9h2.5V343h-2.3l-0.1-1
		c-0.6,0.8-1.4,1.2-2.4,1.2c-1.1,0-2-0.4-2.7-1.3S936.2,339.7,936.2,338.2z M938.8,338.4c0,0.9,0.2,1.6,0.5,2.1s0.8,0.7,1.4,0.7
		c0.8,0,1.3-0.3,1.7-1v-3.8c-0.3-0.7-0.9-1-1.6-1C939.4,335.4,938.8,336.4,938.8,338.4z"/>
	<path class="st5" d="M946.7,331c0-0.4,0.1-0.7,0.4-0.9s0.6-0.4,1-0.4c0.4,0,0.8,0.1,1,0.4s0.4,0.6,0.4,0.9c0,0.4-0.1,0.7-0.4,0.9
		s-0.6,0.4-1,0.4s-0.8-0.1-1-0.4S946.7,331.4,946.7,331z M949.4,343h-2.5v-9.5h2.5V343z"/>
	<path class="st5" d="M951.1,338.2c0-0.9,0.2-1.8,0.5-2.5s0.9-1.3,1.6-1.7s1.5-0.6,2.4-0.6c1.3,0,2.3,0.4,3.1,1.2s1.3,1.9,1.4,3.2
		l0,0.7c0,1.5-0.4,2.6-1.2,3.5s-1.9,1.3-3.3,1.3s-2.5-0.4-3.3-1.3s-1.2-2.1-1.2-3.6V338.2z M953.7,338.3c0,0.9,0.2,1.6,0.5,2.1
		c0.3,0.5,0.8,0.7,1.5,0.7c0.6,0,1.1-0.2,1.4-0.7c0.3-0.5,0.5-1.2,0.5-2.3c0-0.9-0.2-1.6-0.5-2.1s-0.8-0.7-1.5-0.7
		c-0.6,0-1.1,0.2-1.4,0.7C953.8,336.6,953.7,337.3,953.7,338.3z"/>
	<path class="st5" d="M966.8,340.4c0-0.3-0.2-0.6-0.5-0.7s-0.8-0.3-1.5-0.5c-2.3-0.5-3.4-1.4-3.4-2.9c0-0.8,0.4-1.5,1.1-2.1
		c0.7-0.6,1.6-0.8,2.7-0.8c1.2,0,2.2,0.3,2.9,0.9s1.1,1.3,1.1,2.2h-2.5c0-0.4-0.1-0.7-0.4-0.9c-0.2-0.2-0.6-0.4-1.1-0.4
		c-0.4,0-0.8,0.1-1,0.3s-0.4,0.4-0.4,0.7c0,0.3,0.1,0.5,0.4,0.7c0.3,0.2,0.7,0.3,1.3,0.4s1.2,0.3,1.6,0.4c1.3,0.5,2,1.3,2,2.6
		c0,0.9-0.4,1.6-1.1,2.1c-0.7,0.5-1.7,0.8-2.9,0.8c-0.8,0-1.5-0.1-2.1-0.4c-0.6-0.3-1.1-0.7-1.5-1.2c-0.4-0.5-0.5-1-0.5-1.6h2.4
		c0,0.5,0.2,0.8,0.5,1s0.7,0.4,1.2,0.4c0.5,0,0.9-0.1,1.1-0.3C966.7,340.9,966.8,340.7,966.8,340.4z"/>
</g>
</svg>
