<svg xmlns="http://www.w3.org/2000/svg" width="184.117" height="179.307" viewBox="0 0 184.117 179.307">
  <g id="Grupo_137413" data-name="Grupo 137413" transform="translate(-390.732 -1911.592)">
    <g id="Grupo_78510" data-name="Grupo 78510" transform="translate(391.232 1912.092)">
      <path id="Trazado_114225" data-name="Trazado 114225" d="M1471.04,502.73c19.6,42.122,53.125,35.508,100.974,13.247s74.458-42,54.862-84.119S1548.9,341.179,1501.05,363.44,1451.445,460.608,1471.04,502.73Z" transform="translate(-1450.603 -355.746)" fill="none" stroke="#ef3c79" stroke-miterlimit="10" stroke-width="2"/>
      <path id="Trazado_114226" data-name="Trazado 114226" d="M1475,468.634c0,46.457,33.189,54.6,85.963,54.6s85.225-6.67,85.225-53.127S1613.737,355,1560.963,355,1475,422.177,1475,468.634Z" transform="translate(-1475 -355)" fill="#fff" stroke="rgba(0,0,0,0)" stroke-width="1"/>
      <path id="Trazado_114227" data-name="Trazado 114227" d="M1672.817,421.965c0,4.483,3.2,5.268,8.294,5.268s8.224-.643,8.224-5.126S1686.2,411,1681.112,411,1672.817,417.482,1672.817,421.965Z" transform="translate(-1664.113 -369.679)" fill="#00cbae" stroke="rgba(0,0,0,0)" stroke-width="1"/>
      <path id="Trazado_114228" data-name="Trazado 114228" d="M1459.307,450.965c0,4.483,3.2,5.268,8.295,5.268s8.224-.643,8.224-5.126S1472.693,440,1467.6,440,1459.307,446.482,1459.307,450.965Z" transform="translate(-1293.057 -377.28)" fill="#0d4aad" stroke="rgba(0,0,0,0)" stroke-width="1"/>
    </g>
    <g id="Grupo_87874" data-name="Grupo 87874" transform="translate(-2280.981 -565.485)">
      <path id="Trazado_121593" data-name="Trazado 121593" d="M2948.844,2508.888a12.341,12.341,0,0,1,6.274-3.994,11.187,11.187,0,0,1,13.3,7.5c.26.8.531,1.146,1.484,1.142a12.226,12.226,0,0,1,12.053,15.187c-.207.878-.052,1.176.73,1.528,4.6,2.069,7.36,7.808,6.031,12.319l-7.206-.026c-.653-.013-1.306-.036-1.958-.037q-15.354-.021-30.707-.038Zm15.991,20.338c-1.217-.019-2.436-.083-3.651-.04-.838.03-1.167-.228-1.134-1.1.048-1.3-.021-2.607-.04-3.912.234-.191.474-.375.7-.573a4.6,4.6,0,0,0,1.2-4.993,4.372,4.372,0,0,0-4.28-2.781,4.21,4.21,0,0,0-4.056,2.892c-.75,2.068-.119,3.756,2.051,5.495,0,2.391-.023,4.782,0,7.173a2.011,2.011,0,0,0,2.171,2.218c2.346.018,4.693-.03,7.039-.051.335.34.663.688,1.005,1.02a4.441,4.441,0,0,0,5.622.492,4.509,4.509,0,0,0,1.462-5.564,4.377,4.377,0,0,0-5.07-2.435A6.573,6.573,0,0,0,2964.835,2529.226Z" transform="translate(-184.975)" fill="#da5164"/>
      <path id="Trazado_121594" data-name="Trazado 121594" d="M2835.92,2509.013v33.577c-1.648.012-3.3.032-4.945.035q-13.863.023-27.726.04l-7.215-.029a10.968,10.968,0,0,1,6.187-12.282c.678-.333.84-.615.662-1.374a12.209,12.209,0,0,1,12.183-15.307c.657,0,1.026-.111,1.219-.809a11.145,11.145,0,0,1,19.233-4.166A2.705,2.705,0,0,0,2835.92,2509.013Zm-11.178,15.288c-.017,1.3-.083,2.609-.034,3.909.033.877-.3,1.131-1.135,1.1-1.214-.044-2.432.019-3.649.037-.368-.369-.724-.75-1.1-1.105a4.394,4.394,0,0,0-6.109.1,4.487,4.487,0,0,0-.01,6.332,4.415,4.415,0,0,0,6.115.114c.381-.355.737-.737,1.1-1.105,2.26.018,4.52.052,6.779.05,1.7,0,2.427-.751,2.436-2.486.012-2.3,0-4.608,0-6.912.329-.281.677-.543.985-.845a4.084,4.084,0,0,0,1.1-4.516,4.147,4.147,0,0,0-3.573-2.991,4.23,4.23,0,0,0-4.433,2.063C2821.91,2520.126,2822.455,2522.341,2824.741,2524.3Z" transform="translate(-72.051 -0.125)" fill="#f8576a"/>
      <path id="Trazado_121595" data-name="Trazado 121595" d="M2916.423,2878.95l.048,4.514q-.007,2.291-.013,4.582c.009,1.425.038,2.849.022,4.273a4.427,4.427,0,0,1-4.451,4.573c-.776.037-1.553.036-2.33.053l-22.033,0a26.613,26.613,0,0,1-3.349-.21,4.3,4.3,0,0,1-3.429-4.283c-.021-1.468.011-2.936.02-4.4q-.007-2.291-.014-4.582.024-2.257.048-4.514l3.082-.028c.372.333.827.2,1.247.2q13.412.011,26.825,0c.42,0,.875.129,1.247-.2Z" transform="translate(-134.816 -276.281)" fill="#95a5a5"/>
      <path id="Trazado_121596" data-name="Trazado 121596" d="M3007.79,2709.623l-3.081-.028a29.814,29.814,0,0,1,.478-6.337,39.3,39.3,0,0,1,7.333-17.591,56.39,56.39,0,0,0,5.87-9.045,46.844,46.844,0,0,0,4.615-19.714c.039-2.484-.37-4.937-.288-7.414l7.206.026c-.348,1.526.112,3.027.2,4.534a39.676,39.676,0,0,1-5.333,22.234,51.923,51.923,0,0,1-7.314,9.312,35.3,35.3,0,0,0-9.451,21.953C3007.973,2708.244,3007.868,2708.933,3007.79,2709.623Z" transform="translate(-226.183 -106.953)" fill="#edc245"/>
      <path id="Trazado_121597" data-name="Trazado 121597" d="M2821.116,2709.51l-3.082.028a42.609,42.609,0,0,0-2.309-11.987,40.946,40.946,0,0,0-8.881-13.707,39.421,39.421,0,0,1-11.125-25.246,43.1,43.1,0,0,1,.262-7.673,8.987,8.987,0,0,0-.091-1.546l7.215.029c.028,2.788-.468,5.561-.241,8.355a5.489,5.489,0,0,0-.171,3.306,40.907,40.907,0,0,0,2.534,8.943c-.506.464-.026.891.1,1.281a43.752,43.752,0,0,0,7.321,13.377A39.7,39.7,0,0,1,2821.116,2709.51Z" transform="translate(-71.909 -106.869)" fill="#edc245"/>
      <path id="Trazado_121598" data-name="Trazado 121598" d="M2906.448,2947.712l22.033,0a5.967,5.967,0,0,1-2.212,5.8c-4.531,4.105-13.23,4.055-17.7-.1A5.9,5.9,0,0,1,2906.448,2947.712Z" transform="translate(-153.598 -327.05)" fill="#3a404b"/>
      <path id="Trazado_121599" data-name="Trazado 121599" d="M2855.793,2896.259q.007,2.291.014,4.582c-2.127-.022-4.254-.021-6.38-.073-1.67-.041-2.58-.9-2.555-2.309a2.079,2.079,0,0,1,2.281-2.128C2851.366,2896.282,2853.58,2896.281,2855.793,2896.259Z" transform="translate(-109.715 -289.076)" fill="#7f8284"/>
      <path id="Trazado_121600" data-name="Trazado 121600" d="M3016.69,2900.842q.007-2.291.013-4.582c2.126.02,4.252.032,6.378.063,1.651.024,2.518.762,2.543,2.134.026,1.411-.89,2.271-2.557,2.312C3020.942,2900.821,3018.816,2900.82,3016.69,2900.842Z" transform="translate(-235.048 -289.077)" fill="#7f8284"/>
      <path id="Trazado_121601" data-name="Trazado 121601" d="M3174.52,2696.986c-.024,1.808-1.15,2.832-2.521,2.622-1.541-.236-3.074-.549-4.59-.912a2.223,2.223,0,0,1,.843-4.36c1.541.23,3.074.546,4.586.925A1.991,1.991,0,0,1,3174.52,2696.986Z" transform="translate(-345.025 -140.029)" fill="#edc247"/>
      <path id="Trazado_121602" data-name="Trazado 121602" d="M2704.448,2694.285a2.384,2.384,0,0,1,2.573,1.953,2.192,2.192,0,0,1-1.568,2.406c-1.6.395-3.216.72-4.842.967a2.208,2.208,0,0,1-2.334-1.672,2.107,2.107,0,0,1,1.4-2.605C2701.341,2694.865,2703.056,2694.583,2704.448,2694.285Z" transform="translate(0 -140.011)" fill="#edc247"/>
      <path id="Trazado_121603" data-name="Trazado 121603" d="M2740.871,2777.075a2.287,2.287,0,0,1,2.111,1.548,1.968,1.968,0,0,1-.647,2.355,46.288,46.288,0,0,1-4.349,2.863,2.185,2.185,0,0,1-2.552-3.385,21.418,21.418,0,0,1,4.841-3.26A2.044,2.044,0,0,1,2740.871,2777.075Z" transform="translate(-27.056 -201.113)" fill="#edc348"/>
      <path id="Trazado_121604" data-name="Trazado 121604" d="M3168.478,2606.715c-1.632-.013-2.519-.762-2.7-1.912a2.1,2.1,0,0,1,1.556-2.389,42.693,42.693,0,0,1,4.969-.935,2.183,2.183,0,0,1,.824,4.233C3171.464,2606.175,3169.749,2606.449,3168.478,2606.715Z" transform="translate(-345.06 -71.505)" fill="#edc247"/>
      <path id="Trazado_121605" data-name="Trazado 121605" d="M3133.463,2777.1a2.532,2.532,0,0,1,1.4.427c1.2.786,2.409,1.553,3.575,2.384a2.23,2.23,0,1,1-2.52,3.668c-1.208-.771-2.4-1.562-3.575-2.386a2.091,2.091,0,0,1-.875-2.516A2.222,2.222,0,0,1,3133.463,2777.1Z" transform="translate(-319.66 -201.13)" fill="#edc348"/>
      <path id="Trazado_121606" data-name="Trazado 121606" d="M2704.245,2606.7c-1.284-.268-2.915-.524-4.5-.963a2.017,2.017,0,0,1-1.43-2.458,1.983,1.983,0,0,1,2.185-1.789,40.674,40.674,0,0,1,5.092.971,2.046,2.046,0,0,1,1.444,2.443C2706.8,2606.11,2705.908,2606.767,2704.245,2606.7Z" transform="translate(-0.057 -71.511)" fill="#edc247"/>
      <path id="Trazado_121607" data-name="Trazado 121607" d="M2743.257,2516.789a2.233,2.233,0,0,1-3.319,2.128,44.609,44.609,0,0,1-4.018-2.676,2.183,2.183,0,0,1-.521-2.825,2.126,2.126,0,0,1,2.835-.868c1.5.872,2.916,1.894,4.328,2.907A1.76,1.76,0,0,1,2743.257,2516.789Z" transform="translate(-27.221 -5.696)" fill="#edc247"/>
      <path id="Trazado_121608" data-name="Trazado 121608" d="M3139.525,2514.525a2.066,2.066,0,0,1-.927,1.894c-1.22.826-2.427,1.674-3.674,2.458a2.247,2.247,0,0,1-3.125-.514,2.157,2.157,0,0,1,.563-3.1,43.238,43.238,0,0,1,3.776-2.534A2.173,2.173,0,0,1,3139.525,2514.525Z" transform="translate(-319.689 -5.759)" fill="#edc247"/>
      <path id="Trazado_121609" data-name="Trazado 121609" d="M2841.291,2709.383a39.7,39.7,0,0,0-8.467-24.84,43.749,43.749,0,0,1-7.321-13.377c-.126-.391-.606-.818-.1-1.282.258.446.532.883.772,1.339a32.672,32.672,0,0,0,5.877,8.09,2.119,2.119,0,0,0,2.727.458,2.23,2.23,0,0,0,1.056-2.465,2.508,2.508,0,0,0-.892-1.4,28.628,28.628,0,0,1-7.76-16.574,2.572,2.572,0,0,0-1.411-2.324,2.366,2.366,0,0,0-2.73.625c-.227-2.794.269-5.567.241-8.355q13.863-.019,27.726-.04c1.648,0,3.3-.023,4.945-.035q15.354.018,30.707.038c.653,0,1.306.024,1.958.038-.083,2.477.326,4.931.288,7.414a46.842,46.842,0,0,1-4.615,19.714,56.38,56.38,0,0,1-5.87,9.045,39.3,39.3,0,0,0-7.333,17.591,29.813,29.813,0,0,0-.478,6.337c-.371.333-.826.2-1.246.2q-13.412.011-26.825,0C2842.117,2709.587,2841.662,2709.716,2841.291,2709.383Z" transform="translate(-92.083 -106.741)" fill="#f0d26d"/>
      <path id="Trazado_121610" data-name="Trazado 121610" d="M2968.1,2555.9c-2.17-1.739-2.8-3.427-2.051-5.495a4.21,4.21,0,0,1,4.056-2.892,4.372,4.372,0,0,1,4.28,2.781,4.6,4.6,0,0,1-1.2,4.993c-.227.2-.467.383-.7.574A4.962,4.962,0,0,1,2968.1,2555.9Z" transform="translate(-197.452 -31.687)" fill="#f0d16c"/>
      <path id="Trazado_121611" data-name="Trazado 121611" d="M3008.949,2592.234a6.573,6.573,0,0,1,3.024-2.161,4.377,4.377,0,0,1,5.07,2.435,4.509,4.509,0,0,1-1.462,5.564,4.441,4.441,0,0,1-5.622-.492c-.342-.333-.67-.68-1.006-1.02A7.136,7.136,0,0,1,3008.949,2592.234Z" transform="translate(-229.089 -63.008)" fill="#f0d16c"/>
      <path id="Trazado_121612" data-name="Trazado 121612" d="M2983.916,2584.432a7.136,7.136,0,0,0,0,4.326c-2.346.02-4.693.069-7.039.051a2.011,2.011,0,0,1-2.171-2.218c-.027-2.391-.006-4.782,0-7.173a4.962,4.962,0,0,0,4.386-.039c.018,1.3.087,2.61.039,3.911-.032.875.3,1.133,1.134,1.1C2981.48,2584.349,2982.7,2584.414,2983.916,2584.432Z" transform="translate(-204.056 -55.206)" fill="#ed993f"/>
      <path id="Trazado_121613" data-name="Trazado 121613" d="M2863.753,2596.536c-.367.369-.723.751-1.1,1.106a4.415,4.415,0,0,1-6.115-.114,4.487,4.487,0,0,1,.01-6.332,4.394,4.394,0,0,1,6.109-.1c.381.355.737.736,1.1,1.1A7.16,7.16,0,0,1,2863.753,2596.536Z" transform="translate(-115.886 -62.978)" fill="#f0d06c"/>
      <path id="Trazado_121614" data-name="Trazado 121614" d="M2899.906,2555.816c-2.287-1.96-2.832-4.174-1.535-6.255a4.23,4.23,0,0,1,4.433-2.063,4.147,4.147,0,0,1,3.573,2.992,4.083,4.083,0,0,1-1.1,4.516c-.308.3-.655.565-.985.846A4.99,4.99,0,0,1,2899.906,2555.816Z" transform="translate(-147.216 -31.64)" fill="#f0d06c"/>
      <path id="Trazado_121615" data-name="Trazado 121615" d="M2892.586,2579.392a4.99,4.99,0,0,0,4.39.035c0,2.3.015,4.608,0,6.912-.009,1.735-.736,2.484-2.436,2.486-2.26,0-4.519-.032-6.78-.051a7.164,7.164,0,0,0,0-4.335c1.216-.017,2.434-.08,3.648-.037.835.031,1.169-.224,1.135-1.1C2892.5,2582,2892.569,2580.7,2892.586,2579.392Z" transform="translate(-139.896 -55.216)" fill="#ed993f"/>
      <path id="Trazado_121616" data-name="Trazado 121616" d="M2822.248,2679.02a2.366,2.366,0,0,1,2.73-.625,2.572,2.572,0,0,1,1.411,2.324,28.628,28.628,0,0,0,7.76,16.574,2.508,2.508,0,0,1,.892,1.4,2.23,2.23,0,0,1-1.056,2.465,2.119,2.119,0,0,1-2.727-.458,32.672,32.672,0,0,1-5.877-8.09c-.239-.456-.514-.893-.772-1.339a40.92,40.92,0,0,1-2.534-8.943A5.487,5.487,0,0,1,2822.248,2679.02Z" transform="translate(-91.291 -128.126)" fill="#fefdfc"/>
    </g>
  </g>
</svg>
