<svg xmlns="http://www.w3.org/2000/svg" width="64" height="64" viewBox="0 0 64 64">
  <g id="Grupo_137423" data-name="Grupo 137423" transform="translate(-682 -900)">
    <g id="Grupo_136820" data-name="Grupo 136820" transform="translate(0 301)">
      <g id="Grupo_88365" data-name="Grupo 88365" transform="translate(-209.213 561.99)">
        <path id="Trazado_121832" data-name="Trazado 121832" d="M950.142,85.572a4.231,4.231,0,0,0-1.544-3.216.789.789,0,0,1-.32-.68q.013-6.65.006-13.3a8.1,8.1,0,0,0-8.172-8.156,1.415,1.415,0,0,1-.666-.094c-.42-.243-.8-.553-1.221-.852.136-.507.281-1.041.422-1.577.159-.605.011-.857-.6-1.023-.519-.142-1.04-.281-1.584-.428.137-.508.244-.987.4-1.448a.942.942,0,0,1,.373-.473,3.215,3.215,0,0,0,1.459-1.7c.219-.6.066-.9-.548-1.069q-2.8-.753-5.61-1.5c-.62-.165-.918.042-1.013.687a3.107,3.107,0,0,0,.477,2.22.476.476,0,0,1,.1.307c-.135.561-.295,1.116-.45,1.688-.572-.152-1.107-.3-1.643-.437s-.807.009-.951.55q-1.569,5.851-3.131,11.7c-.14.523.006.77.529.921.344.1.69.193,1.062.3-.155.593-.3,1.152-.445,1.712a.615.615,0,0,0,.479.854c.168.054.337.1.524.162-.151.567-.3,1.1-.435,1.638s.012.8.552.946c.647.177,1.3.345,1.945.52.732.2.95.072,1.143-.657.131-.494.264-.987.4-1.487.125.028.2.043.275.062.776.2.961.1,1.169-.663.134-.491.265-.983.392-1.458a.818.818,0,0,1,.1,0l.9.231c.623.162.859.029,1.024-.584.144-.533.284-1.066.42-1.581a.483.483,0,0,1,.109-.03,4.428,4.428,0,0,0,3.318-1.127.4.4,0,0,1,.2-.1,1.99,1.99,0,0,1,2.492,2.034c-.026,2.895-.009,5.79-.009,8.685v.423h-6.2c0-.132,0-.245,0-.359-.005-.682-.189-.862-.883-.862H924.329c-.68,0-.863.188-.863.881q0,.989,0,1.977c0,.68.189.864.881.864h9.46c.427,0,.853,0,1.28,0,.575,0,.782-.217.787-.8,0-.137,0-.274,0-.418h6.188V81.32h-.508q-10.527,0-21.054,0a4.373,4.373,0,0,0-4.143,2.661,6.18,6.18,0,0,0-.34,2.551c.008.846.146.991.989.991H949.15c.09,0,.181,0,.271,0,.485-.012.715-.232.723-.712C950.151,86.4,950.157,85.985,950.142,85.572ZM937.281,52.618a1.729,1.729,0,0,1-1.859.777,12.174,12.174,0,0,1-1.451-.4,1.809,1.809,0,0,1-1.226-1.592Zm-1.7,2.1-.318,1.206-2.4-.634.325-1.207Zm-5.416,17.83-1.195-.326.325-1.192,1.185.318Zm1.839-2.079-3.587-.961.319-1.195,3.592.959Zm2.444-1.919-7.193-1.919,2.891-10.791,7.184,1.927L937.015,59a4.452,4.452,0,0,0-3.471,1.152,4.247,4.247,0,0,0-1.289,2.25q-.662,2.95,2.518,4.944Zm2.039-2.125a3.1,3.1,0,1,1,3.108-3.107A3.106,3.106,0,0,1,936.49,66.428ZM934.615,78.81h-9.882V77.619h9.882Zm5.975-13.586a1.259,1.259,0,0,1-.158-.062,4.388,4.388,0,0,0,0-3.681,6.646,6.646,0,0,1,3.944,1.415,6.549,6.549,0,0,1,2.653,5.282c.036,4.341.012,8.682.011,13.024a1.447,1.447,0,0,1-.015.184h-3.707V68.645A3.1,3.1,0,0,0,940.59,65.224Zm8.292,21.033h-31.6a3.153,3.153,0,0,1,2.639-3.66,4.309,4.309,0,0,1,.7-.035q12.465,0,24.93,0A3.148,3.148,0,0,1,948.881,86.257Z" transform="translate(-10.122)" fill="#ef3c79"/>
        <path id="Trazado_121833" data-name="Trazado 121833" d="M909,66.392q0,3.781,0,7.561a1.852,1.852,0,0,0,1.922,1.938c1.577.007,3.154,0,4.73,0,.5,0,.779-.221.788-.6s-.283-.635-.8-.635q-2.268,0-4.537,0c-.682,0-.868-.187-.868-.877q0-3.722,0-7.445c0-.125.012-.249.019-.369a7.459,7.459,0,1,0-7.985-8.664,7.161,7.161,0,0,0,1,5.1A7.429,7.429,0,0,0,909,65.949Zm-5.583-7.905a6.2,6.2,0,1,1,6.152,6.237A6.21,6.21,0,0,1,903.417,58.486Z" transform="translate(0 -0.777)" fill="#ef3c79"/>
        <path id="Trazado_121834" data-name="Trazado 121834" d="M987.049,92.589a1.859,1.859,0,1,0,1.877,1.861A1.866,1.866,0,0,0,987.049,92.589Zm0,2.476a.618.618,0,1,1,.638-.587A.625.625,0,0,1,987.046,95.065Z" transform="translate(-60.693 -31.12)" fill="#ef3c79"/>
        <path id="Trazado_121835" data-name="Trazado 121835" d="M918.664,71.251c.41-.018.73-.374.6-.72a2.522,2.522,0,0,0-.493-.615c-.132-.58-.125-.566.314-.764s.453.255.694.367c-.043.1-.077.166-.1.237a.575.575,0,0,0,.209.721.559.559,0,0,0,.75-.023,12.866,12.866,0,0,0,.959-.958.56.56,0,0,0,.025-.749.534.534,0,0,0-.716-.2c-.292.161-.377-.076-.537-.2s-.1-.263-.065-.437c.117-.519.492-.364.823-.368.03.079.053.152.084.22a.581.581,0,0,0,.688.372.588.588,0,0,0,.5-.607c.01-.413.011-.827,0-1.24a.615.615,0,0,0-1.188-.217c-.03.068-.055.138-.089.221a1.232,1.232,0,0,1-.349-.006c-.136-.043-.321-.1-.371-.21-.079-.167-.319-.363-.05-.575.165-.13.252-.392.566-.219a.531.531,0,0,0,.713-.212.546.546,0,0,0-.014-.718,12,12,0,0,0-1.016-1.008.487.487,0,0,0-.7.018,1.585,1.585,0,0,0-.214.681c-.015.072.06.163.091.24-.431.525-.431.525-1.081.2v-.647c.059-.02.108-.035.155-.052a.592.592,0,0,0,.439-.686.6.6,0,0,0-.66-.528,7.5,7.5,0,0,0-1.2.02.81.81,0,0,0-.541.4.855.855,0,0,0,.127.625c.066.122.269.17.409.251.056.371.076.684-.413.827-.422.124-.432-.274-.679-.372.044-.105.08-.186.11-.269a.569.569,0,0,0-.2-.691.552.552,0,0,0-.749,0,11.6,11.6,0,0,0-.986.985.553.553,0,0,0,0,.749.569.569,0,0,0,.691.2c.083-.03.163-.067.237-.1.621.567.513.341.194,1.081h-.649c-.1-.376-.3-.632-.7-.595a.561.561,0,0,0-.547.556,12.6,12.6,0,0,0,0,1.356.567.567,0,0,0,.516.547.578.578,0,0,0,.639-.334c.046-.087.08-.18.115-.263h.632c.325.651.325.651-.2,1.08a1.06,1.06,0,0,1-.1-.032c-.383-.157-.68-.1-.852.177a.624.624,0,0,0,.133.838c.265.264.526.534.8.793a.592.592,0,0,0,.81.084.544.544,0,0,0,.2-.748c-.157-.285.072-.379.209-.492a.555.555,0,0,1,.385-.084c.522.065.448.451.407.821-.028.013-.06.031-.094.044-.38.154-.557.411-.5.722a.648.648,0,0,0,.72.509C917.915,71.259,918.29,71.267,918.664,71.251Zm-1.853-4.362a1.239,1.239,0,1,1,1.206,1.263A1.245,1.245,0,0,1,916.811,66.889Z" transform="translate(-8.428 -9.169)" fill="#ef3c79"/>
      </g>
      <circle id="Elipse_4970" data-name="Elipse 4970" cx="32" cy="32" r="32" transform="translate(682 599)" fill="#fff"/>
    </g>
    <g id="_5wDPPB" data-name="5wDPPB" transform="translate(-1386.627 -2406.072)">
      <g id="Grupo_88369" data-name="Grupo 88369" transform="translate(2081.627 3317.072)">
        <path id="Trazado_121840" data-name="Trazado 121840" d="M2096.834,3341.429c0-.758.018-1.478-.014-2.2a.779.779,0,0,0-.3-.473,8.307,8.307,0,0,1-2.536-3.224,7.949,7.949,0,0,1-.609-3.256c-.229,0-.438,0-.647,0a2.074,2.074,0,1,1-.033-4.147c.084,0,.168-.011.307-.02-.417-.842-.828-1.646-1.217-2.459a4.236,4.236,0,0,1,.488-4.7,9.575,9.575,0,0,1,2.5-2.292,9.934,9.934,0,0,1,13.677,2.86,4.524,4.524,0,0,1,.255,4.832c-.3.587-.64,1.15-.969,1.735,1.481.238,2.241.977,2.221,2.146a1.775,1.775,0,0,1-.879,1.636,9.865,9.865,0,0,1-1.808.561c-.111.676-.178,1.468-.377,2.224a7.337,7.337,0,0,1-2.69,3.966,1.068,1.068,0,0,0-.473,1.017c.044.585.011,1.177.011,1.783,1.756.471,3.5.908,5.22,1.409a19.943,19.943,0,0,1,3.62,1.231,11.156,11.156,0,0,1,6.352,10.048c.07,1.653.017,3.312.014,4.968,0,.615-.248.857-.871.857q-17.8,0-35.593,0c-.617,0-.857-.245-.858-.868,0-1.57-.006-3.14,0-4.709a11.483,11.483,0,0,1,8.66-11.182C2092.458,3342.6,2094.623,3342.018,2096.834,3341.429Zm-6.228,17.09h19.384v-6.167h1.374v6.176h6.2v-.355c0-1.311.009-2.621,0-3.931a10.087,10.087,0,0,0-7.366-9.656c-2.13-.6-4.277-1.139-6.412-1.719-.264-.072-.377-.019-.486.233-.59,1.358-1.2,2.708-1.8,4.061-.039.088-.064.182-.116.33h.5l4.448,0a2.085,2.085,0,0,1,2.249,2.228q.005,2.613,0,5.226a2.082,2.082,0,0,1-2.25,2.226q-6.045,0-12.092,0a2.084,2.084,0,0,1-2.247-2.229q0-2.613,0-5.227a2.079,2.079,0,0,1,2.21-2.221c1.512,0,3.023,0,4.535,0,.136,0,.273-.014.47-.023l-2.063-4.651a2.533,2.533,0,0,0-.277.041c-2.11.562-4.23,1.091-6.328,1.7a9.775,9.775,0,0,0-7.293,7.732,21.421,21.421,0,0,0-.23,3.779c-.03.815-.006,1.632-.006,2.462h6.235v-6.172h1.358Zm12.589-34.377a6.165,6.165,0,0,1-3.247,1.779c-.548.1-1.114.106-1.672.151a6.074,6.074,0,0,0-3.4,1.645.564.564,0,0,0-.112.386c-.008,1.5-.021,2.994,0,4.491a6.1,6.1,0,0,0,2.059,4.585c.455.418.933.813,1.4,1.213a3.114,3.114,0,0,0,4.109.017c.464-.387.928-.775,1.377-1.179a6.076,6.076,0,0,0,2.1-4.61c.022-1.626.008-3.252.006-4.879a3.258,3.258,0,0,0-1.072-2.5A15.076,15.076,0,0,0,2103.2,3324.142Zm-9.337,2.589c.354-.264.656-.481.95-.709a6.422,6.422,0,0,1,3.278-1.319c.556-.062,1.124-.053,1.671-.158a4.957,4.957,0,0,0,2.66-1.587c.418-.439.652-.458,1.175-.146.469.28.942.555,1.4.852a4.808,4.808,0,0,1,1.937,2.465c.035.1.079.188.139.331.172-.307.327-.55.452-.807a3.217,3.217,0,0,0-.186-3.327,8.6,8.6,0,0,0-14.056-.406,2.784,2.784,0,0,0-.385,2.818C2093.161,3325.4,2093.516,3326.029,2093.859,3326.731Zm6.43,22.142h0q-3.023,0-6.046,0c-.62,0-.862.244-.863.864q0,2.592,0,5.184c0,.619.244.863.863.863q6.046,0,12.093,0c.619,0,.862-.245.863-.864q.005-2.571,0-5.141c0-.676-.233-.9-.91-.9Zm-2.07-8.816c0,.466-.018.855.011,1.24a.5.5,0,0,0,.232.343q.794.434,1.616.813a.577.577,0,0,0,.43,0c.548-.252,1.086-.527,1.619-.809.1-.052.219-.171.225-.266.024-.42.01-.843.01-1.319A4.459,4.459,0,0,1,2098.219,3340.057Zm3.364,3.51-.062-.132a1.718,1.718,0,0,1-2.486.01l-.04.12,1.3,2.9Zm-8.24-12.686v-1.338c-.928-.077-1.321.113-1.344.634C2091.977,3330.714,2092.374,3330.927,2093.343,3330.881Zm13.876.009c.478-.019.987.154,1.243-.345a.859.859,0,0,0-.024-.715c-.282-.473-.772-.294-1.219-.3Z" transform="translate(-2081.627 -3317.072)" fill="#ef3c79"/>
      </g>
    </g>
  </g>
</svg>
