<svg xmlns="http://www.w3.org/2000/svg" width="184.117" height="179.307" viewBox="0 0 184.117 179.307">
  <g id="Grupo_137414" data-name="Grupo 137414" transform="translate(-390.5 -2181.593)">
    <g id="Grupo_78512" data-name="Grupo 78512" transform="translate(391 2182.093)">
      <path id="Trazado_114225" data-name="Trazado 114225" d="M1471.04,502.73c19.6,42.122,53.125,35.508,100.974,13.247s74.458-42,54.862-84.119S1548.9,341.179,1501.05,363.44,1451.445,460.608,1471.04,502.73Z" transform="translate(-1450.603 -355.746)" fill="none" stroke="#ef3c79" stroke-miterlimit="10" stroke-width="2"/>
      <path id="Trazado_114226" data-name="Trazado 114226" d="M1475,468.634c0,46.457,33.189,54.6,85.963,54.6s85.225-6.67,85.225-53.127S1613.737,355,1560.963,355,1475,422.177,1475,468.634Z" transform="translate(-1475 -355)" fill="#fff" stroke="rgba(0,0,0,0)" stroke-width="1"/>
      <path id="Trazado_114227" data-name="Trazado 114227" d="M1672.817,421.965c0,4.483,3.2,5.268,8.294,5.268s8.224-.643,8.224-5.126S1686.2,411,1681.112,411,1672.817,417.482,1672.817,421.965Z" transform="translate(-1664.113 -369.679)" fill="#00cbae" stroke="rgba(0,0,0,0)" stroke-width="1"/>
      <path id="Trazado_114228" data-name="Trazado 114228" d="M1459.307,450.965c0,4.483,3.2,5.268,8.295,5.268s8.224-.643,8.224-5.126S1472.693,440,1467.6,440,1459.307,446.482,1459.307,450.965Z" transform="translate(-1293.057 -377.28)" fill="#0d4aad" stroke="rgba(0,0,0,0)" stroke-width="1"/>
    </g>
    <g id="_4Y95Pn" data-name="4Y95Pn" transform="translate(-3008.392 -295.564)">
      <g id="Grupo_87871" data-name="Grupo 87871" transform="translate(3422.001 2500.217)">
        <path id="Trazado_121571" data-name="Trazado 121571" d="M3667.146,2500.217a4.8,4.8,0,0,1,1.216,5.286,2.166,2.166,0,0,1-3.917,0,4.794,4.794,0,0,1,1.218-5.285Z" transform="translate(-3604.093 -2500.217)" fill="#efc51f"/>
        <path id="Trazado_121572" data-name="Trazado 121572" d="M3569.482,2583.582c7.577.317,13.445,5.167,15.454,12.775a7.854,7.854,0,0,0-3.556.874c-.939.5-1.945,1.03-2.228,2.155a2.19,2.19,0,0,0,.976,2.368,2.007,2.007,0,0,0,2.517-.154,4.349,4.349,0,0,1,3.6-.826,4.729,4.729,0,0,1,3.716,4.129c.243,1.466-.94,3.554-2.576,4.463a2.213,2.213,0,0,0-1.331,1.65,2.079,2.079,0,0,0,.931,2.261,2.742,2.742,0,0,0,2.708-.112c1.006-.541,1.726-1.509,2.836-1.89a10.049,10.049,0,0,1,.532,7.011c-.157.631-.346,1.255-.519,1.882l-2.155,3.248a4.794,4.794,0,0,0-1.195.613,9.376,9.376,0,0,1-9.066.042c-.624-.328-.75-.589-.362-1.311a7.033,7.033,0,0,0,.382-6.173c-.6-1.478-1.649-2.1-2.71-1.723-1.31.468-1.776,1.524-1.409,3.109a3.755,3.755,0,0,1,.231,1.553,3.175,3.175,0,0,1-2.347,2.856,3.3,3.3,0,0,1-3.691-1.571c-.917-1.333-2.1-1.679-3.227-.941-1.092.718-1.27,1.9-.492,3.268a7.4,7.4,0,0,0,8.212,3.5,2.065,2.065,0,0,1,1.92.354,13.055,13.055,0,0,0,4.626,2.218,18.156,18.156,0,0,0,6.707.114,11.9,11.9,0,0,1-1.542,2.026c-1.162,1.39-2.755,2.251-4.086,3.432-1.32.073-2.478.761-3.768.986a2.28,2.28,0,0,0-1.917,2.451c.123,1.155.938,1.752,2.383,1.762,1.9.013,3.525-.945,5.268-1.488a4.7,4.7,0,0,1,.737,1.795,4.524,4.524,0,0,1-1.944,5.448,4.324,4.324,0,0,1-5.605-.823,15.093,15.093,0,0,0-6.946-4.228,13.352,13.352,0,0,1-6.319-3.885,16.28,16.28,0,0,0,4.055-.945,2.168,2.168,0,0,0,1.3-2.819,2.2,2.2,0,0,0-2.824-1.25,27.514,27.514,0,0,1-4.462.774,14.773,14.773,0,0,1-5.518-.877,1.91,1.91,0,0,0-2.635.878,12.123,12.123,0,0,1-6.984,2.7,11.525,11.525,0,0,1-11.313-7.653,10.312,10.312,0,0,1,.958-7.4,2.109,2.109,0,0,0-.755-3,2.239,2.239,0,0,0-2.994.857,9.7,9.7,0,0,0-.961,1.99c-.272.621-.658.739-1.279.471a3.477,3.477,0,0,1-2.148-3.174,2.267,2.267,0,0,0-2.189-2.093,2.438,2.438,0,0,0-2.023,2.247,7.4,7.4,0,0,0,5.559,7.365c.479.108,1.035.109,1.118.753.116.892.188,1.79.278,2.685a14.09,14.09,0,0,1-9.34-2.359,18.1,18.1,0,0,1-5.544-6.011,15.771,15.771,0,0,1-.723-12.435c.182-.494.451-.955.68-1.432a26.011,26.011,0,0,0,2.862,2.652c1.291.806,2.328.74,3.168-.307.768-.955.617-2.02-.358-3.047-.782-.824-1.777-1.462-2.155-2.646a4.587,4.587,0,0,1,7.916-4.348,2.053,2.053,0,0,0,2.573.858,2.231,2.231,0,0,0,1.392-2.5,3.068,3.068,0,0,0-1-1.656,9.355,9.355,0,0,0-7.7-2.861,8.652,8.652,0,0,1,11.082-6.875,1.665,1.665,0,0,0,2.2-.726,12.8,12.8,0,0,1,15.46-3.993,3.291,3.291,0,0,1,1.257.747c-.261,1.326-1.035,2.481-1.209,3.851a2.866,2.866,0,0,0,1.141,3.019c1.629.806,3.218-.2,3.231-2.223a4.6,4.6,0,0,1,9.177.191,2.284,2.284,0,0,0,2.362,2.306,2.531,2.531,0,0,0,2.047-2.9C3569.806,2584.935,3569.632,2584.26,3569.482,2583.582Zm-15.889,32.983a6.183,6.183,0,0,1-4.987,2.645,2.225,2.225,0,1,0,.167,4.423,13.409,13.409,0,0,0,2.533-.422,10.762,10.762,0,0,0,6.9-5.727,1.862,1.862,0,0,1,1.314-1.073,13.183,13.183,0,0,0,9.885-10.253,2.078,2.078,0,0,0-1.019-2.321c-1.465-.935-2.869-.214-3.354,1.709a8.809,8.809,0,0,1-14.684,4.3c-1.325-1.3-2.389-1.388-3.512-.281-1.016,1-.88,2.075.449,3.395.377.375.786.721,1.194,1.063A17.062,17.062,0,0,0,3553.593,2616.565Zm-4.389-19.582a2,2,0,0,0-2.191-2.241,8.246,8.246,0,0,0-1.816.241,10.166,10.166,0,0,0-8.1,9.453,2.355,2.355,0,0,0,2.188,2.633,2.514,2.514,0,0,0,2.245-2.37c.284-3.421,2.1-5.23,5.564-5.529C3548.544,2599.045,3549.194,2598.372,3549.2,2596.984Z" transform="translate(-3491.833 -2559.855)" fill="#fa7b76"/>
        <path id="Trazado_121573" data-name="Trazado 121573" d="M3478.711,2742.62a18.1,18.1,0,0,0,5.545,6.011,14.089,14.089,0,0,0,9.34,2.359c1.554.238,2.947-.538,4.438-.7a11.526,11.526,0,0,0,11.314,7.653,12.125,12.125,0,0,0,6.984-2.7q0,19.59-.007,39.18c0,.469.192,1-.271,1.391a56.93,56.93,0,0,0-9.6-2.9l-.967-.2a74.256,74.256,0,0,0-29.188-.143c-2.992.578-5.918,1.4-8.843,2.246a2.116,2.116,0,0,1-2.876-2.305,12.723,12.723,0,0,1,.19-1.469q1.912-11.5,3.831-23,1.6-9.614,3.215-19.227c.182-1.243.316-2.5.559-3.727a2.5,2.5,0,0,1,2.483-1.97C3476.141,2742.964,3477.426,2742.79,3478.711,2742.62Z" transform="translate(-3454.021 -2682.537)" fill="#f4eec9"/>
        <path id="Trazado_121574" data-name="Trazado 121574" d="M3672.269,2796.514c.463-.39.27-.922.271-1.391q.015-19.59.007-39.18a1.91,1.91,0,0,1,2.635-.878,14.768,14.768,0,0,0,5.517.877,6.838,6.838,0,0,0,1.933,4.24,13.355,13.355,0,0,0,6.319,3.885,15.092,15.092,0,0,1,6.946,4.228,4.324,4.324,0,0,0,5.605.823,4.524,4.524,0,0,0,1.943-5.448,4.7,4.7,0,0,0-.736-1.794,11.3,11.3,0,0,0-1.967-3.711c1.33-1.18,2.924-2.042,4.086-3.432a11.888,11.888,0,0,0,1.542-2.026,13.344,13.344,0,0,0,2.42-5.907l2.155-3.248c1.093.1,2.191.167,3.279.308a2.34,2.34,0,0,1,2.259,2.044q.293,1.8.585,3.608.62,3.706,1.241,7.412,2.548,15.252,5.093,30.5c.323,1.945.684,3.888.877,5.847a2.08,2.08,0,0,1-2.666,2.307c-.481-.106-.956-.244-1.426-.393a74.012,74.012,0,0,0-37.76-1.571,49.278,49.278,0,0,0-8.938,2.694C3673.113,2796.46,3672.75,2796.914,3672.269,2796.514Z" transform="translate(-3610.237 -2683.237)" fill="#f8e9af"/>
        <path id="Trazado_121575" data-name="Trazado 121575" d="M3439.793,2767.491q-1.607,9.613-3.215,19.226-1.919,11.5-3.831,23a12.658,12.658,0,0,0-.19,1.468,2.116,2.116,0,0,0,2.876,2.305c2.925-.842,5.851-1.668,8.843-2.246a74.265,74.265,0,0,1,29.188.143l.968.2q-.527,5.935-1.053,11.87c-3.666-.011-7.331-.031-11-.032q-17.731-.006-35.462,0c-3.687,0-5.475-2.24-4.767-5.866q4.641-23.788,9.253-47.583c.4-2.049.961-2.538,3.077-2.532C3436.253,2767.441,3438.023,2767.472,3439.793,2767.491Z" transform="translate(-3422.001 -2701.203)" fill="#e54c3c"/>
        <path id="Trazado_121576" data-name="Trazado 121576" d="M3713.254,2811.586a74.013,74.013,0,0,1,37.76,1.571c.469.149.945.288,1.425.393a2.08,2.08,0,0,0,2.666-2.307c-.193-1.959-.554-3.9-.877-5.847q-2.537-15.253-5.092-30.5-.62-3.706-1.241-7.412c1.853-.014,3.706-.041,5.558-.039,1.79,0,2.436.528,2.783,2.292.849,4.316,1.679,8.637,2.519,12.955q3.4,17.495,6.811,34.989c.673,3.438-1.166,5.743-4.679,5.744q-22.487.01-44.974,0c-.535,0-1.07.022-1.605.033Z" transform="translate(-3641.063 -2701.205)" fill="#e54c3c"/>
        <path id="Trazado_121577" data-name="Trazado 121577" d="M3650.1,2945.547l1.053,11.871c-.109,1.381-1.118,2.035-2.171,2.616a14.782,14.782,0,0,1-5.875,1.618,21.843,21.843,0,0,1-11.1-1.354c-1.279-.567-2.541-1.237-2.724-2.88q.526-5.935,1.053-11.87a56.935,56.935,0,0,1,9.6,2.9c.481.4.844-.053,1.221-.2A49.278,49.278,0,0,1,3650.1,2945.547Z" transform="translate(-3577.906 -2835.166)" fill="#c03b2c"/>
        <path id="Trazado_121578" data-name="Trazado 121578" d="M3524.826,2630.748a9.355,9.355,0,0,1,7.7,2.861,3.063,3.063,0,0,1,1,1.655,2.232,2.232,0,0,1-1.392,2.5,2.052,2.052,0,0,1-2.573-.858,4.587,4.587,0,0,0-7.916,4.348c.378,1.185,1.373,1.822,2.155,2.646.975,1.027,1.125,2.092.358,3.046-.841,1.046-1.878,1.113-3.168.307a26.055,26.055,0,0,1-2.862-2.652c-.016-1.175-.778-2.116-.966-3.262a9,9,0,0,1,6.849-10.325C3524.29,2630.948,3524.556,2630.837,3524.826,2630.748Z" transform="translate(-3493.484 -2598.383)" fill="#fe5465"/>
        <path id="Trazado_121579" data-name="Trazado 121579" d="M3787.46,2662.394c-1.11.381-1.83,1.349-2.836,1.889a2.742,2.742,0,0,1-2.707.112,2.079,2.079,0,0,1-.931-2.261,2.212,2.212,0,0,1,1.331-1.65c1.636-.909,2.819-3,2.576-4.463a4.729,4.729,0,0,0-3.717-4.129,4.346,4.346,0,0,0-3.6.826,2.007,2.007,0,0,1-2.517.154,2.189,2.189,0,0,1-.975-2.367c.283-1.125,1.289-1.657,2.228-2.156a7.855,7.855,0,0,1,3.555-.874,8.973,8.973,0,0,1,8.048,13.581C3787.67,2661.47,3787.273,2661.833,3787.46,2662.394Z" transform="translate(-3686.764 -2610.973)" fill="#fe5464"/>
        <path id="Trazado_121580" data-name="Trazado 121580" d="M3682.019,2577.018c.151.678.324,1.352.446,2.036a2.53,2.53,0,0,1-2.047,2.9,2.284,2.284,0,0,1-2.362-2.306,4.6,4.6,0,0,0-9.177-.191c-.013,2.019-1.6,3.029-3.232,2.223a2.867,2.867,0,0,1-1.141-3.018c.174-1.37.948-2.525,1.209-3.852a2.921,2.921,0,0,0,.565-.456A9,9,0,0,1,3682.019,2577.018Z" transform="translate(-3604.369 -2553.29)" fill="#fe5465"/>
        <path id="Trazado_121581" data-name="Trazado 121581" d="M3583.026,2508.1a2,2,0,0,1,1.572,1.356c.854,2,1.711,4,2.5,6.028a2.136,2.136,0,0,1-1.165,2.868,2.165,2.165,0,0,1-2.91-1.3c-.825-1.923-1.636-3.854-2.39-5.807C3579.992,2509.59,3580.955,2508.093,3583.026,2508.1Z" transform="translate(-3541.165 -2506.149)" fill="#efc41d"/>
        <path id="Trazado_121582" data-name="Trazado 121582" d="M3743.164,2508.077c1.844.033,2.861,1.458,2.295,2.972-.789,2.113-1.681,4.19-2.606,6.248a2.153,2.153,0,0,1-3.971-1.643c.811-2.148,1.717-4.262,2.627-6.37A1.869,1.869,0,0,1,3743.164,2508.077Z" transform="translate(-3660.232 -2506.129)" fill="#efc41d"/>
        <path id="Trazado_121583" data-name="Trazado 121583" d="M3469.2,2634.3a9.606,9.606,0,0,1-1.044-.311c-1.789-.729-3.577-1.464-5.354-2.223-1.429-.61-1.986-1.728-1.5-2.922.521-1.276,1.7-1.7,3.175-1.107,1.907.769,3.815,1.536,5.7,2.364a2.093,2.093,0,0,1,1.283,2.626A2.148,2.148,0,0,1,3469.2,2634.3Z" transform="translate(-3451.429 -2595.933)" fill="#efc41e"/>
        <path id="Trazado_121584" data-name="Trazado 121584" d="M3846.129,2634.094c-1.374-.014-2.121-.487-2.437-1.442a1.931,1.931,0,0,1,.925-2.551c2.2-1.014,4.449-1.934,6.721-2.773a1.889,1.889,0,0,1,2.364,1.093,1.812,1.812,0,0,1-.459,2.551C3850.947,2632.433,3848.313,2633.16,3846.129,2634.094Z" transform="translate(-3739.06 -2595.733)" fill="#efc41e"/>
        <path id="Trazado_121585" data-name="Trazado 121585" d="M3520.19,2564.927a2.262,2.262,0,0,1-1.219,2.021,2,2,0,0,1-2.307-.228,25.14,25.14,0,0,1-2.6-2.606,1.965,1.965,0,0,1,.06-2.7,1.944,1.944,0,0,1,2.657-.489,12.727,12.727,0,0,1,3.121,3.1A2.577,2.577,0,0,1,3520.19,2564.927Z" transform="translate(-3490.86 -2545.627)" fill="#efc41d"/>
        <path id="Trazado_121586" data-name="Trazado 121586" d="M3813.086,2562.871a1.931,1.931,0,0,1-.526,1.471c-.789.832-1.576,1.674-2.44,2.425a2.16,2.16,0,0,1-2.977-3.127c.747-.815,1.545-1.585,2.35-2.344a2.173,2.173,0,0,1,3.593,1.575Z" transform="translate(-3711.206 -2545.745)" fill="#efc41d"/>
        <path id="Trazado_121587" data-name="Trazado 121587" d="M3648.643,2689.16a17.063,17.063,0,0,1-5.113-2.543c-.408-.342-.817-.688-1.194-1.063-1.329-1.32-1.464-2.393-.449-3.4,1.123-1.108,2.187-1.02,3.512.281a8.809,8.809,0,0,0,14.683-4.3c.486-1.923,1.89-2.644,3.355-1.709a2.078,2.078,0,0,1,1.019,2.321,13.183,13.183,0,0,1-9.885,10.253,1.86,1.86,0,0,0-1.314,1.073,10.764,10.764,0,0,1-6.9,5.726,13.429,13.429,0,0,1-2.533.422,2.225,2.225,0,1,1-.167-4.423A6.183,6.183,0,0,0,3648.643,2689.16Z" transform="translate(-3586.883 -2632.449)" fill="#fe5364"/>
        <path id="Trazado_121588" data-name="Trazado 121588" d="M3745.682,2730.376a13.336,13.336,0,0,1-2.42,5.908,18.169,18.169,0,0,1-6.708-.114,13.057,13.057,0,0,1-4.625-2.218,2.065,2.065,0,0,0-1.92-.354,7.4,7.4,0,0,1-8.212-3.5c-.778-1.364-.6-2.549.491-3.268,1.123-.738,2.311-.392,3.227.941a3.3,3.3,0,0,0,3.691,1.571,3.176,3.176,0,0,0,2.348-2.856,3.747,3.747,0,0,0-.232-1.553c-.367-1.585.1-2.641,1.41-3.109,1.061-.379,2.113.245,2.71,1.723a7.033,7.033,0,0,1-.382,6.173c-.388.722-.262.983.362,1.311a9.375,9.375,0,0,0,9.066-.042A4.819,4.819,0,0,1,3745.682,2730.376Z" transform="translate(-3647.128 -2666.815)" fill="#fe5364"/>
        <path id="Trazado_121589" data-name="Trazado 121589" d="M3564.931,2736.08c-1.491.164-2.884.94-4.438.7-.09-.9-.162-1.793-.278-2.685-.083-.644-.639-.645-1.118-.753a7.4,7.4,0,0,1-5.559-7.365,2.438,2.438,0,0,1,2.023-2.247,2.268,2.268,0,0,1,2.19,2.093A3.476,3.476,0,0,0,3559.9,2729c.621.267,1.007.15,1.279-.471a9.712,9.712,0,0,1,.961-1.99,2.239,2.239,0,0,1,2.995-.857,2.108,2.108,0,0,1,.755,3A10.313,10.313,0,0,0,3564.931,2736.08Z" transform="translate(-3520.918 -2668.329)" fill="#fe5364"/>
        <path id="Trazado_121590" data-name="Trazado 121590" d="M3616.7,2643.211c-.01,1.388-.66,2.061-2.11,2.187-3.461.3-5.281,2.108-5.564,5.529a2.513,2.513,0,0,1-2.245,2.37,2.355,2.355,0,0,1-2.188-2.632,10.167,10.167,0,0,1,8.1-9.453,8.276,8.276,0,0,1,1.816-.242A2,2,0,0,1,3616.7,2643.211Z" transform="translate(-3559.332 -2606.082)" fill="#fe5364"/>
        <path id="Trazado_121591" data-name="Trazado 121591" d="M3769.859,2802.509a11.291,11.291,0,0,1,1.967,3.711c-1.743.542-3.367,1.5-5.268,1.488-1.446-.01-2.261-.607-2.383-1.762a2.279,2.279,0,0,1,1.917-2.451C3767.382,2803.27,3768.539,2802.582,3769.859,2802.509Z" transform="translate(-3679.354 -2727.582)" fill="#fe5464"/>
        <path id="Trazado_121592" data-name="Trazado 121592" d="M3708.211,2795.055a6.839,6.839,0,0,1-1.933-4.24,27.469,27.469,0,0,0,4.462-.774,2.2,2.2,0,0,1,2.824,1.25,2.168,2.168,0,0,1-1.3,2.82A16.312,16.312,0,0,1,3708.211,2795.055Z" transform="translate(-3635.817 -2718.11)" fill="#fe5464"/>
      </g>
    </g>
  </g>
</svg>
