<svg xmlns="http://www.w3.org/2000/svg" width="64" height="64" viewBox="0 0 64 64">
  <g id="Grupo_137424" data-name="Grupo 137424" transform="translate(-682 -1050)">
    <g id="Grupo_136821" data-name="Grupo 136821" transform="translate(0 451)">
      <g id="Grupo_88365" data-name="Grupo 88365" transform="translate(-209.213 561.99)">
        <path id="Trazado_121832" data-name="Trazado 121832" d="M950.142,85.572a4.231,4.231,0,0,0-1.544-3.216.789.789,0,0,1-.32-.68q.013-6.65.006-13.3a8.1,8.1,0,0,0-8.172-8.156,1.415,1.415,0,0,1-.666-.094c-.42-.243-.8-.553-1.221-.852.136-.507.281-1.041.422-1.577.159-.605.011-.857-.6-1.023-.519-.142-1.04-.281-1.584-.428.137-.508.244-.987.4-1.448a.942.942,0,0,1,.373-.473,3.215,3.215,0,0,0,1.459-1.7c.219-.6.066-.9-.548-1.069q-2.8-.753-5.61-1.5c-.62-.165-.918.042-1.013.687a3.107,3.107,0,0,0,.477,2.22.476.476,0,0,1,.1.307c-.135.561-.295,1.116-.45,1.688-.572-.152-1.107-.3-1.643-.437s-.807.009-.951.55q-1.569,5.851-3.131,11.7c-.14.523.006.77.529.921.344.1.69.193,1.062.3-.155.593-.3,1.152-.445,1.712a.615.615,0,0,0,.479.854c.168.054.337.1.524.162-.151.567-.3,1.1-.435,1.638s.012.8.552.946c.647.177,1.3.345,1.945.52.732.2.95.072,1.143-.657.131-.494.264-.987.4-1.487.125.028.2.043.275.062.776.2.961.1,1.169-.663.134-.491.265-.983.392-1.458a.818.818,0,0,1,.1,0l.9.231c.623.162.859.029,1.024-.584.144-.533.284-1.066.42-1.581a.483.483,0,0,1,.109-.03,4.428,4.428,0,0,0,3.318-1.127.4.4,0,0,1,.2-.1,1.99,1.99,0,0,1,2.492,2.034c-.026,2.895-.009,5.79-.009,8.685v.423h-6.2c0-.132,0-.245,0-.359-.005-.682-.189-.862-.883-.862H924.329c-.68,0-.863.188-.863.881q0,.989,0,1.977c0,.68.189.864.881.864h9.46c.427,0,.853,0,1.28,0,.575,0,.782-.217.787-.8,0-.137,0-.274,0-.418h6.188V81.32h-.508q-10.527,0-21.054,0a4.373,4.373,0,0,0-4.143,2.661,6.18,6.18,0,0,0-.34,2.551c.008.846.146.991.989.991H949.15c.09,0,.181,0,.271,0,.485-.012.715-.232.723-.712C950.151,86.4,950.157,85.985,950.142,85.572ZM937.281,52.618a1.729,1.729,0,0,1-1.859.777,12.174,12.174,0,0,1-1.451-.4,1.809,1.809,0,0,1-1.226-1.592Zm-1.7,2.1-.318,1.206-2.4-.634.325-1.207Zm-5.416,17.83-1.195-.326.325-1.192,1.185.318Zm1.839-2.079-3.587-.961.319-1.195,3.592.959Zm2.444-1.919-7.193-1.919,2.891-10.791,7.184,1.927L937.015,59a4.452,4.452,0,0,0-3.471,1.152,4.247,4.247,0,0,0-1.289,2.25q-.662,2.95,2.518,4.944Zm2.039-2.125a3.1,3.1,0,1,1,3.108-3.107A3.106,3.106,0,0,1,936.49,66.428ZM934.615,78.81h-9.882V77.619h9.882Zm5.975-13.586a1.259,1.259,0,0,1-.158-.062,4.388,4.388,0,0,0,0-3.681,6.646,6.646,0,0,1,3.944,1.415,6.549,6.549,0,0,1,2.653,5.282c.036,4.341.012,8.682.011,13.024a1.447,1.447,0,0,1-.015.184h-3.707V68.645A3.1,3.1,0,0,0,940.59,65.224Zm8.292,21.033h-31.6a3.153,3.153,0,0,1,2.639-3.66,4.309,4.309,0,0,1,.7-.035q12.465,0,24.93,0A3.148,3.148,0,0,1,948.881,86.257Z" transform="translate(-10.122)" fill="#ef3c79"/>
        <path id="Trazado_121833" data-name="Trazado 121833" d="M909,66.392q0,3.781,0,7.561a1.852,1.852,0,0,0,1.922,1.938c1.577.007,3.154,0,4.73,0,.5,0,.779-.221.788-.6s-.283-.635-.8-.635q-2.268,0-4.537,0c-.682,0-.868-.187-.868-.877q0-3.722,0-7.445c0-.125.012-.249.019-.369a7.459,7.459,0,1,0-7.985-8.664,7.161,7.161,0,0,0,1,5.1A7.429,7.429,0,0,0,909,65.949Zm-5.583-7.905a6.2,6.2,0,1,1,6.152,6.237A6.21,6.21,0,0,1,903.417,58.486Z" transform="translate(0 -0.777)" fill="#ef3c79"/>
        <path id="Trazado_121834" data-name="Trazado 121834" d="M987.049,92.589a1.859,1.859,0,1,0,1.877,1.861A1.866,1.866,0,0,0,987.049,92.589Zm0,2.476a.618.618,0,1,1,.638-.587A.625.625,0,0,1,987.046,95.065Z" transform="translate(-60.693 -31.12)" fill="#ef3c79"/>
        <path id="Trazado_121835" data-name="Trazado 121835" d="M918.664,71.251c.41-.018.73-.374.6-.72a2.522,2.522,0,0,0-.493-.615c-.132-.58-.125-.566.314-.764s.453.255.694.367c-.043.1-.077.166-.1.237a.575.575,0,0,0,.209.721.559.559,0,0,0,.75-.023,12.866,12.866,0,0,0,.959-.958.56.56,0,0,0,.025-.749.534.534,0,0,0-.716-.2c-.292.161-.377-.076-.537-.2s-.1-.263-.065-.437c.117-.519.492-.364.823-.368.03.079.053.152.084.22a.581.581,0,0,0,.688.372.588.588,0,0,0,.5-.607c.01-.413.011-.827,0-1.24a.615.615,0,0,0-1.188-.217c-.03.068-.055.138-.089.221a1.232,1.232,0,0,1-.349-.006c-.136-.043-.321-.1-.371-.21-.079-.167-.319-.363-.05-.575.165-.13.252-.392.566-.219a.531.531,0,0,0,.713-.212.546.546,0,0,0-.014-.718,12,12,0,0,0-1.016-1.008.487.487,0,0,0-.7.018,1.585,1.585,0,0,0-.214.681c-.015.072.06.163.091.24-.431.525-.431.525-1.081.2v-.647c.059-.02.108-.035.155-.052a.592.592,0,0,0,.439-.686.6.6,0,0,0-.66-.528,7.5,7.5,0,0,0-1.2.02.81.81,0,0,0-.541.4.855.855,0,0,0,.127.625c.066.122.269.17.409.251.056.371.076.684-.413.827-.422.124-.432-.274-.679-.372.044-.105.08-.186.11-.269a.569.569,0,0,0-.2-.691.552.552,0,0,0-.749,0,11.6,11.6,0,0,0-.986.985.553.553,0,0,0,0,.749.569.569,0,0,0,.691.2c.083-.03.163-.067.237-.1.621.567.513.341.194,1.081h-.649c-.1-.376-.3-.632-.7-.595a.561.561,0,0,0-.547.556,12.6,12.6,0,0,0,0,1.356.567.567,0,0,0,.516.547.578.578,0,0,0,.639-.334c.046-.087.08-.18.115-.263h.632c.325.651.325.651-.2,1.08a1.06,1.06,0,0,1-.1-.032c-.383-.157-.68-.1-.852.177a.624.624,0,0,0,.133.838c.265.264.526.534.8.793a.592.592,0,0,0,.81.084.544.544,0,0,0,.2-.748c-.157-.285.072-.379.209-.492a.555.555,0,0,1,.385-.084c.522.065.448.451.407.821-.028.013-.06.031-.094.044-.38.154-.557.411-.5.722a.648.648,0,0,0,.72.509C917.915,71.259,918.29,71.267,918.664,71.251Zm-1.853-4.362a1.239,1.239,0,1,1,1.206,1.263A1.245,1.245,0,0,1,916.811,66.889Z" transform="translate(-8.428 -9.169)" fill="#ef3c79"/>
      </g>
      <circle id="Elipse_4970" data-name="Elipse 4970" cx="32" cy="32" r="32" transform="translate(682 599)" fill="#fff"/>
    </g>
    <g id="QAJ6VO" transform="translate(-1670.554 -2772.805)">
      <g id="Grupo_88371" data-name="Grupo 88371" transform="translate(2367.554 3832.805)">
        <path id="Trazado_121841" data-name="Trazado 121841" d="M2388.118,3832.8c.636.134,1.284.227,1.906.409a10.031,10.031,0,0,1,7.221,9.463c.017.827.007,1.654.006,2.481a1.679,1.679,0,0,0,1.108,1.659c.293.126.592.236.883.366a3.155,3.155,0,0,1,1.809,3.806c-.209.769-.444,1.53-.67,2.294a1.711,1.711,0,0,0,.309,1.638c.333.421.673.836,1,1.261a3.181,3.181,0,0,1-.191,4.249,1.7,1.7,0,0,0-.178,2.458,3.17,3.17,0,0,1-.357,4.3c-.5.506-1.014,1-1.5,1.517a.491.491,0,0,0-.085.431,8.419,8.419,0,0,1,.66,3.477c-.01,1.219,0,2.438,0,3.657,0,.116.005.233,0,.348a.761.761,0,0,1-.742.76.731.731,0,0,1-.736-.8c-.009-1.408,0-2.815-.005-4.223a6.07,6.07,0,0,0-.507-2.54,6.135,6.135,0,0,0-4.736-3.682c-.344-.063-.474.035-.568.366q-1.426,5.039-2.879,10.07c-.028.1-.052.2-.089.291a.735.735,0,0,1-.9.486.707.707,0,0,1-.508-.882c.232-.9.493-1.787.749-2.678.742-2.589,1.487-5.177,2.241-7.8-.116-.042-.218-.084-.321-.117a4.539,4.539,0,0,1-2.494-1.861.772.772,0,0,1,.121-1.147.757.757,0,0,1,1.085.286,3.19,3.19,0,0,0,2.728,1.436,7.541,7.541,0,0,1,5.78,2.76c.056.066.114.13.23.261a21.416,21.416,0,0,0,1.787-1.948,1.561,1.561,0,0,0-.169-1.94,3.012,3.012,0,0,1-.554-2.869,4.248,4.248,0,0,1,.816-1.36,1.752,1.752,0,0,0,.1-2.47c-.3-.388-.613-.773-.919-1.16a3.2,3.2,0,0,1-.58-3.031c.2-.7.413-1.388.616-2.084a1.671,1.671,0,0,0-1.1-2.265c-1.807-.647-2.848-1.594-2.727-4.084a11.3,11.3,0,0,0-.46-4.343,8.539,8.539,0,0,0-7.972-5.762c-1.885-.013-3.78-.066-5.654.092a8.431,8.431,0,0,0-7.393,7.516c-.082,1.039-.061,2.087-.071,3.131a3.172,3.172,0,0,1-2.142,3.2c-.268.111-.539.214-.8.337a1.642,1.642,0,0,0-.925,1.947c.2.77.44,1.532.664,2.3a3.222,3.222,0,0,1-.589,3.07c-.324.409-.657.813-.975,1.227a1.685,1.685,0,0,0,.107,2.294,3.154,3.154,0,0,1,.286,4.373,1.694,1.694,0,0,0,.188,2.325c.485.5.978.983,1.37,1.376.38-.322.729-.605,1.064-.9a7.647,7.647,0,0,1,5.111-1.991,3.112,3.112,0,0,0,3.134-2.752.625.625,0,0,0-.368-.753,9.788,9.788,0,0,1-5.166-7.233.774.774,0,0,1,.6-.994c.432-.077.778.227.869.762a8.471,8.471,0,0,0,9,7.135,8.376,8.376,0,0,0,7.7-7.288c.175-1.828.083-3.68.1-5.522a.374.374,0,0,0-.2-.271,8.259,8.259,0,0,1-4.028-3.444c-.124.131-.231.242-.337.356a19.619,19.619,0,0,1-13.3,6.408c-.144.012-.29.016-.435.015a.755.755,0,0,1-.818-.721c-.012-.416.311-.7.782-.766a35.5,35.5,0,0,0,3.984-.635,17.779,17.779,0,0,0,9.531-6.28,1.449,1.449,0,0,1,.721-.476c.344-.087.594.151.734.479a6.6,6.6,0,0,0,4.273,3.865.765.765,0,0,1,.588.808c-.007,1.858.032,3.716-.018,5.573a9.974,9.974,0,0,1-8.458,9.3,10.4,10.4,0,0,1-4.242-.295,4.778,4.778,0,0,1-1.718,3.2l2.642,2.05c.527.409,1.063.809,1.579,1.231a.37.37,0,0,0,.558,0c.734-.592,1.484-1.163,2.233-1.737.471-.362.895-.344,1.183.035s.173.793-.29,1.153c-.779.605-1.554,1.216-2.345,1.806a.72.72,0,0,0-.318.655c.013,1.523.007,3.047,0,4.571a2.44,2.44,0,0,1-.032.476.726.726,0,0,1-1.421.012,2.57,2.57,0,0,1-.034-.519c0-1.524-.008-3.047,0-4.571a.684.684,0,0,0-.308-.615q-2.265-1.731-4.508-3.49a.864.864,0,0,0-.787-.186c-.608.118-1.239.114-1.855.2a6.157,6.157,0,0,0-5.366,6.1c-.016,1.407,0,2.815,0,4.223,0,.588-.279.928-.742.924s-.745-.354-.74-.937c.015-1.682-.017-3.368.084-5.045a9.63,9.63,0,0,1,.574-2.215.42.42,0,0,0-.109-.521c-.524-.5-1.035-1.018-1.542-1.537a3.151,3.151,0,0,1-.343-4.169,1.734,1.734,0,0,0-.191-2.594,3.172,3.172,0,0,1-.208-4.079q.48-.646,1-1.261a1.854,1.854,0,0,0,.358-1.871q-.329-1.058-.629-2.125a3.148,3.148,0,0,1,1.836-3.862c.305-.133.621-.245.922-.386a1.659,1.659,0,0,0,1.029-1.579c.019-1.131-.013-2.267.075-3.392a10.02,10.02,0,0,1,8.122-8.833c.313-.053.624-.115.936-.172Z" transform="translate(-2367.554 -3832.805)" fill="#ef3c79"/>
        <path id="Trazado_121842" data-name="Trazado 121842" d="M2408.18,3966.477a.735.735,0,0,1-.573.764.685.685,0,0,1-.807-.362,1.86,1.86,0,0,1-.146-.406q-1.041-3.673-2.078-7.347c-.008-.028-.012-.057-.019-.085-.165-.605-.006-.987.465-1.122.446-.128.785.117.953.7.24.833.474,1.669.71,2.5q.7,2.484,1.4,4.967C2408.127,3966.228,2408.155,3966.37,2408.18,3966.477Z" transform="translate(-2394.097 -3922.684)" fill="#ef3c79"/>
      </g>
    </g>
  </g>
</svg>
