<svg xmlns="http://www.w3.org/2000/svg" width="64" height="64" viewBox="0 0 64 64">
  <g id="Grupo_137425" data-name="Grupo 137425" transform="translate(-682 -1198)">
    <g id="Grupo_136822" data-name="Grupo 136822" transform="translate(0 599)">
      <g id="Grupo_88365" data-name="Grupo 88365" transform="translate(-209.213 561.99)">
        <path id="Trazado_121832" data-name="Trazado 121832" d="M950.142,85.572a4.231,4.231,0,0,0-1.544-3.216.789.789,0,0,1-.32-.68q.013-6.65.006-13.3a8.1,8.1,0,0,0-8.172-8.156,1.415,1.415,0,0,1-.666-.094c-.42-.243-.8-.553-1.221-.852.136-.507.281-1.041.422-1.577.159-.605.011-.857-.6-1.023-.519-.142-1.04-.281-1.584-.428.137-.508.244-.987.4-1.448a.942.942,0,0,1,.373-.473,3.215,3.215,0,0,0,1.459-1.7c.219-.6.066-.9-.548-1.069q-2.8-.753-5.61-1.5c-.62-.165-.918.042-1.013.687a3.107,3.107,0,0,0,.477,2.22.476.476,0,0,1,.1.307c-.135.561-.295,1.116-.45,1.688-.572-.152-1.107-.3-1.643-.437s-.807.009-.951.55q-1.569,5.851-3.131,11.7c-.14.523.006.77.529.921.344.1.69.193,1.062.3-.155.593-.3,1.152-.445,1.712a.615.615,0,0,0,.479.854c.168.054.337.1.524.162-.151.567-.3,1.1-.435,1.638s.012.8.552.946c.647.177,1.3.345,1.945.52.732.2.95.072,1.143-.657.131-.494.264-.987.4-1.487.125.028.2.043.275.062.776.2.961.1,1.169-.663.134-.491.265-.983.392-1.458a.818.818,0,0,1,.1,0l.9.231c.623.162.859.029,1.024-.584.144-.533.284-1.066.42-1.581a.483.483,0,0,1,.109-.03,4.428,4.428,0,0,0,3.318-1.127.4.4,0,0,1,.2-.1,1.99,1.99,0,0,1,2.492,2.034c-.026,2.895-.009,5.79-.009,8.685v.423h-6.2c0-.132,0-.245,0-.359-.005-.682-.189-.862-.883-.862H924.329c-.68,0-.863.188-.863.881q0,.989,0,1.977c0,.68.189.864.881.864h9.46c.427,0,.853,0,1.28,0,.575,0,.782-.217.787-.8,0-.137,0-.274,0-.418h6.188V81.32h-.508q-10.527,0-21.054,0a4.373,4.373,0,0,0-4.143,2.661,6.18,6.18,0,0,0-.34,2.551c.008.846.146.991.989.991H949.15c.09,0,.181,0,.271,0,.485-.012.715-.232.723-.712C950.151,86.4,950.157,85.985,950.142,85.572ZM937.281,52.618a1.729,1.729,0,0,1-1.859.777,12.174,12.174,0,0,1-1.451-.4,1.809,1.809,0,0,1-1.226-1.592Zm-1.7,2.1-.318,1.206-2.4-.634.325-1.207Zm-5.416,17.83-1.195-.326.325-1.192,1.185.318Zm1.839-2.079-3.587-.961.319-1.195,3.592.959Zm2.444-1.919-7.193-1.919,2.891-10.791,7.184,1.927L937.015,59a4.452,4.452,0,0,0-3.471,1.152,4.247,4.247,0,0,0-1.289,2.25q-.662,2.95,2.518,4.944Zm2.039-2.125a3.1,3.1,0,1,1,3.108-3.107A3.106,3.106,0,0,1,936.49,66.428ZM934.615,78.81h-9.882V77.619h9.882Zm5.975-13.586a1.259,1.259,0,0,1-.158-.062,4.388,4.388,0,0,0,0-3.681,6.646,6.646,0,0,1,3.944,1.415,6.549,6.549,0,0,1,2.653,5.282c.036,4.341.012,8.682.011,13.024a1.447,1.447,0,0,1-.015.184h-3.707V68.645A3.1,3.1,0,0,0,940.59,65.224Zm8.292,21.033h-31.6a3.153,3.153,0,0,1,2.639-3.66,4.309,4.309,0,0,1,.7-.035q12.465,0,24.93,0A3.148,3.148,0,0,1,948.881,86.257Z" transform="translate(-10.122)" fill="#ef3c79"/>
        <path id="Trazado_121833" data-name="Trazado 121833" d="M909,66.392q0,3.781,0,7.561a1.852,1.852,0,0,0,1.922,1.938c1.577.007,3.154,0,4.73,0,.5,0,.779-.221.788-.6s-.283-.635-.8-.635q-2.268,0-4.537,0c-.682,0-.868-.187-.868-.877q0-3.722,0-7.445c0-.125.012-.249.019-.369a7.459,7.459,0,1,0-7.985-8.664,7.161,7.161,0,0,0,1,5.1A7.429,7.429,0,0,0,909,65.949Zm-5.583-7.905a6.2,6.2,0,1,1,6.152,6.237A6.21,6.21,0,0,1,903.417,58.486Z" transform="translate(0 -0.777)" fill="#ef3c79"/>
        <path id="Trazado_121834" data-name="Trazado 121834" d="M987.049,92.589a1.859,1.859,0,1,0,1.877,1.861A1.866,1.866,0,0,0,987.049,92.589Zm0,2.476a.618.618,0,1,1,.638-.587A.625.625,0,0,1,987.046,95.065Z" transform="translate(-60.693 -31.12)" fill="#ef3c79"/>
        <path id="Trazado_121835" data-name="Trazado 121835" d="M918.664,71.251c.41-.018.73-.374.6-.72a2.522,2.522,0,0,0-.493-.615c-.132-.58-.125-.566.314-.764s.453.255.694.367c-.043.1-.077.166-.1.237a.575.575,0,0,0,.209.721.559.559,0,0,0,.75-.023,12.866,12.866,0,0,0,.959-.958.56.56,0,0,0,.025-.749.534.534,0,0,0-.716-.2c-.292.161-.377-.076-.537-.2s-.1-.263-.065-.437c.117-.519.492-.364.823-.368.03.079.053.152.084.22a.581.581,0,0,0,.688.372.588.588,0,0,0,.5-.607c.01-.413.011-.827,0-1.24a.615.615,0,0,0-1.188-.217c-.03.068-.055.138-.089.221a1.232,1.232,0,0,1-.349-.006c-.136-.043-.321-.1-.371-.21-.079-.167-.319-.363-.05-.575.165-.13.252-.392.566-.219a.531.531,0,0,0,.713-.212.546.546,0,0,0-.014-.718,12,12,0,0,0-1.016-1.008.487.487,0,0,0-.7.018,1.585,1.585,0,0,0-.214.681c-.015.072.06.163.091.24-.431.525-.431.525-1.081.2v-.647c.059-.02.108-.035.155-.052a.592.592,0,0,0,.439-.686.6.6,0,0,0-.66-.528,7.5,7.5,0,0,0-1.2.02.81.81,0,0,0-.541.4.855.855,0,0,0,.127.625c.066.122.269.17.409.251.056.371.076.684-.413.827-.422.124-.432-.274-.679-.372.044-.105.08-.186.11-.269a.569.569,0,0,0-.2-.691.552.552,0,0,0-.749,0,11.6,11.6,0,0,0-.986.985.553.553,0,0,0,0,.749.569.569,0,0,0,.691.2c.083-.03.163-.067.237-.1.621.567.513.341.194,1.081h-.649c-.1-.376-.3-.632-.7-.595a.561.561,0,0,0-.547.556,12.6,12.6,0,0,0,0,1.356.567.567,0,0,0,.516.547.578.578,0,0,0,.639-.334c.046-.087.08-.18.115-.263h.632c.325.651.325.651-.2,1.08a1.06,1.06,0,0,1-.1-.032c-.383-.157-.68-.1-.852.177a.624.624,0,0,0,.133.838c.265.264.526.534.8.793a.592.592,0,0,0,.81.084.544.544,0,0,0,.2-.748c-.157-.285.072-.379.209-.492a.555.555,0,0,1,.385-.084c.522.065.448.451.407.821-.028.013-.06.031-.094.044-.38.154-.557.411-.5.722a.648.648,0,0,0,.72.509C917.915,71.259,918.29,71.267,918.664,71.251Zm-1.853-4.362a1.239,1.239,0,1,1,1.206,1.263A1.245,1.245,0,0,1,916.811,66.889Z" transform="translate(-8.428 -9.169)" fill="#ef3c79"/>
      </g>
      <circle id="Elipse_4970" data-name="Elipse 4970" cx="32" cy="32" r="32" transform="translate(682 599)" fill="#fff"/>
    </g>
    <g id="KWQzpT" transform="translate(-1825.514 -2336.235)">
      <g id="Grupo_88373" data-name="Grupo 88373" transform="translate(2518.514 3545.236)">
        <path id="Trazado_121843" data-name="Trazado 121843" d="M2522.578,3586.763c-.212-.2-.421-.4-.286-.725s.413-.338.711-.337q2.96.006,5.919,0h.505a4.927,4.927,0,0,1-.346-2.652,20.072,20.072,0,0,1,.207-4.363,10.056,10.056,0,0,1,6.244-7.435c.279-.118.424-.24.38-.552a3.43,3.43,0,0,1,0-.486c0-.7,0-.7-.69-1.141.048.286.073.531.132.766a.57.57,0,0,1-.234.706.559.559,0,0,1-.7-.113,11.847,11.847,0,0,1-2.394-2.571l-.245-.355a3.359,3.359,0,0,1-4.084,1.677c-1.543-.459-2.163-1.53-2.372-3.917-.132.055-.251.1-.365.153a8.921,8.921,0,0,0-5.358,8.093c-.068,1.362-.016,2.729-.012,4.094a1.247,1.247,0,0,0,1.333,1.352c1.176.012,2.351,0,3.527,0,.469,0,.718.186.718.524s-.265.536-.716.537c-1.176,0-2.352.008-3.527,0a2.286,2.286,0,0,1-2.393-2.4c.008-1.661-.013-3.325.076-4.982a8.893,8.893,0,0,1,1.508-4.353,1.476,1.476,0,0,0,.219-.825c.034-1.242.106-2.482.183-3.722.081-1.294.19-2.587.265-3.882a.766.766,0,0,0-.184-.49,2.351,2.351,0,0,1,.172-3.319.852.852,0,0,0,.237-.543c.026-1.2,0-2.406.032-3.608a6.951,6.951,0,0,1,4.885-6.227,1.957,1.957,0,0,1,1.566.177.525.525,0,0,0,.587.025,2.717,2.717,0,0,1,2.046-.2,8.134,8.134,0,0,1,4.8,3.434.786.786,0,0,1,.166.513c-.036.164-.216.393-.358.412a.779.779,0,0,1-.583-.214c-.3-.309-.514-.7-.8-1.014a7,7,0,0,0-3.528-2.11,1.777,1.777,0,0,0-1.6.345c-.43.331-.576.324-.967-.062a1.035,1.035,0,0,0-1.118-.255,5.847,5.847,0,0,0-4.01,5.025c-.083,1.29-.015,2.589-.015,3.928a3.5,3.5,0,0,0,2.664-1.838c.1-.176.167-.37.267-.545a1.668,1.668,0,0,1,1.511-.923c1.256-.009,2.513-.014,3.77-.028a1.724,1.724,0,0,1,1.668,1c.173.33.389.638.612,1a9.129,9.129,0,0,1,6.682-2.651,7.629,7.629,0,0,1,6.311,3.209.554.554,0,0,0,.114-.1,23.2,23.2,0,0,1,4.191-4.653c.36-.337.718-.242.936.212.391.814.737,1.654,1.184,2.436a4.261,4.261,0,0,0,3.027,2.294,14.945,14.945,0,0,0,1.725.087c0-.252.012-.448,0-.642a16.674,16.674,0,0,0-.264-3.133,6.624,6.624,0,0,0-5.484-4.906,7.334,7.334,0,0,0-7.078,2.023,10.7,10.7,0,0,0-.951,1.207c-.258.349-.534.453-.815.271s-.308-.5-.077-.855a8.191,8.191,0,0,1,6.7-3.883,8.31,8.31,0,0,1,6,1.741,7.9,7.9,0,0,1,3.037,6.23c.007.338,0,.676,0,1.014a5.194,5.194,0,0,0,.26,1.855,2.494,2.494,0,0,1-1.646,3.257.429.429,0,0,0-.252.206,7.793,7.793,0,0,1-2.355,3.84c.64.408,1.313.777,1.919,1.236a10.087,10.087,0,0,1,4.222,7.1.865.865,0,0,0,.065.186v6.244c-.031.072-.066.142-.092.216a2.155,2.155,0,0,1-1.98,1.61c-1.428.075-2.864.035-4.3.024a.516.516,0,0,1-.513-.666c.091-.312.331-.391.63-.39,1.283.005,2.567.01,3.852,0a1.248,1.248,0,0,0,1.337-1.348c0-1.649.059-3.3-.012-4.946a8.928,8.928,0,0,0-5.285-8.1c-.137-.068-.283-.116-.466-.19,0,.564.007,1.063,0,1.563a3.41,3.41,0,0,1-.825,2.233,3.358,3.358,0,0,1-5.9-2.034c-.017-.384,0-.768,0-1.178a5.59,5.59,0,0,1-.771.324.473.473,0,0,0-.386.427,5.5,5.5,0,0,1-1.945,3.236,1.705,1.705,0,0,0-.74,1.664.65.65,0,0,0,.453.674,9.839,9.839,0,0,1,6.237,7.877,31.445,31.445,0,0,1,.155,4.2,4.088,4.088,0,0,1-.356,2.34h.5q3.081,0,6.163,0c.3,0,.574.01.713.334s-.078.526-.276.728Zm13.29-14.535a8.926,8.926,0,0,0-5.643,7.5,43,43,0,0,0-.078,4.7,1.243,1.243,0,0,0,1.373,1.273q7.761,0,15.523,0a1.263,1.263,0,0,0,1.383-1.349c.009-1.256.024-2.513-.005-3.769a8.974,8.974,0,0,0-2.645-6.3,8.655,8.655,0,0,0-3.081-2.024c-.615,2.192-1.7,3.186-3.428,3.176S2536.447,3574.418,2535.868,3572.228Zm10.065-11.049c0-.659.007-1.294,0-1.928a6.171,6.171,0,0,0-1-3.373,6.518,6.518,0,0,0-6.235-3.1,7.419,7.419,0,0,0-6.926,4.766,9.984,9.984,0,0,0,1.043,9.58c.341.538.772,1.02,1.162,1.528a.306.306,0,0,0,.091-.241,13.528,13.528,0,0,1,1.228-6.9,15.171,15.171,0,0,1,3.835-4.966c.568-.512.862-.446,1.184.238a21.536,21.536,0,0,0,1.288,2.516A4.047,4.047,0,0,0,2545.933,3561.179Zm-1.53,1.1a4.407,4.407,0,0,1-3.053-1.518,22.361,22.361,0,0,1-1.51-2.382,7.3,7.3,0,0,1-.334-.71,12.663,12.663,0,0,0-4.419,9.4.743.743,0,0,0,.154.436,5.169,5.169,0,0,0,8.123-.052C2544.57,3565.894,2544.458,3564.108,2544.4,3562.283Zm5.693-10.833a18.07,18.07,0,0,0-3.6,4.075.929.929,0,0,0-.07.967,8.759,8.759,0,0,1,.568,3.933,3.413,3.413,0,0,0,.243,1.738,1.292,1.292,0,0,1,.119.59.459.459,0,0,0,.338.474,5.463,5.463,0,0,0,6.161-1.329c1.512-1.652,1.475-3.649,1.365-5.675a5.29,5.29,0,0,1-4.256-3.019C2550.653,3552.639,2550.391,3552.045,2550.1,3551.449Zm-18.216,3.714c-.294-.457-.583-.865-.825-1.3a.789.789,0,0,0-.78-.454c-1.188.018-2.376.026-3.564.016a.78.78,0,0,0-.811.528,4.489,4.489,0,0,1-2.575,2.49.367.367,0,0,0-.275.413c.014.7,0,1.4.007,2.106a5.606,5.606,0,0,0,3.492,5.15,5.446,5.446,0,0,0,3.805.164A10.76,10.76,0,0,1,2531.88,3555.163Zm5.112,14.94c0,.753-.027,1.439.006,2.122a2.267,2.267,0,0,0,1.974,2.13,2.206,2.206,0,0,0,2.508-1.68,18.431,18.431,0,0,0,.144-2.588A6.492,6.492,0,0,1,2536.991,3570.1Zm15.122-5.764a6.775,6.775,0,0,1-4.569-.018c0,.622-.015,1.187,0,1.752a2.287,2.287,0,0,0,2.134,2.2,2.256,2.256,0,0,0,2.418-1.967A18.167,18.167,0,0,0,2552.114,3564.34Zm-21.468.97a6.823,6.823,0,0,1-4.172-.072,2.4,2.4,0,0,0,1.862,3,2.191,2.191,0,0,0,2.24-.91A1.54,1.54,0,0,0,2530.646,3565.309Zm-5.992-1.058a6.74,6.74,0,0,1-2.524-3.938c-.021-.092-.119-.167-.181-.249l-.111.034-.453,6.388Zm-2.683-7.463c-.53-.03-.869.326-.916.916a1.141,1.141,0,0,0,.916,1.23Zm34.361,1.438a1.313,1.313,0,0,0,.842-1.346c-.01-.67-.168-.789-.842-.611Zm-10.8,4.085v1.913a1.359,1.359,0,0,0,.766-1.24C2546.341,3562.349,2546.213,3562.236,2545.535,3562.311Z" transform="translate(-2518.522 -3545.236)" fill="#ef3c79"/>
        <path id="Trazado_121844" data-name="Trazado 121844" d="M2518.84,3661.55c-.2-.2-.419-.393-.283-.721s.4-.348.7-.341c.375.008.751.006,1.126,0,.3,0,.6-.009.747.333s-.086.519-.264.729Z" transform="translate(-2518.514 -3620.023)" fill="#ef3c79"/>
        <path id="Trazado_121845" data-name="Trazado 121845" d="M2630.18,3661.541c-.187-.2-.416-.391-.275-.723s.438-.345.741-.339.59.018.883,0a.787.787,0,0,1,.759.335v.73Z" transform="translate(-2590.768 -3620.013)" fill="#ef3c79"/>
        <path id="Trazado_121846" data-name="Trazado 121846" d="M2542.175,3641.99a.593.593,0,0,1-.628.587.616.616,0,0,1-.6-.626.628.628,0,0,1,.638-.594A.609.609,0,0,1,2542.175,3641.99Z" transform="translate(-2533.071 -3607.609)" fill="#ef3c79"/>
        <path id="Trazado_121847" data-name="Trazado 121847" d="M2611.688,3641.97a.6.6,0,0,1-.61.607.617.617,0,0,1-.617-.608.626.626,0,0,1,.618-.613A.611.611,0,0,1,2611.688,3641.97Z" transform="translate(-2578.178 -3607.608)" fill="#ef3c79"/>
        <path id="Trazado_121848" data-name="Trazado 121848" d="M2570.948,3595.343a.719.719,0,1,1-.7-.879A.8.8,0,0,1,2570.948,3595.343Z" transform="translate(-2551.63 -3577.181)" fill="#ef3c79"/>
        <path id="Trazado_121849" data-name="Trazado 121849" d="M2583.752,3595.338a.813.813,0,0,1,.717-.872.905.905,0,1,1-.717.872Z" transform="translate(-2560.847 -3577.181)" fill="#ef3c79"/>
        <path id="Trazado_121850" data-name="Trazado 121850" d="M2599.345,3578.148a.83.83,0,0,1,.737-.905.935.935,0,1,1-.737.905Z" transform="translate(-2570.966 -3566.006)" fill="#ef3c79"/>
        <path id="Trazado_121851" data-name="Trazado 121851" d="M2615.584,3578.15a.849.849,0,0,1-.732.916.936.936,0,0,1-.007-1.825A.842.842,0,0,1,2615.584,3578.15Z" transform="translate(-2580.553 -3566.004)" fill="#ef3c79"/>
        <path id="Trazado_121852" data-name="Trazado 121852" d="M2538.86,3579.557a.786.786,0,0,1-.7.881.894.894,0,0,1-.018-1.742A.777.777,0,0,1,2538.86,3579.557Z" transform="translate(-2530.805 -3566.948)" fill="#ef3c79"/>
      </g>
    </g>
  </g>
</svg>
