<svg xmlns="http://www.w3.org/2000/svg" width="184.117" height="179.307" viewBox="0 0 184.117 179.307">
  <g id="Grupo_137415" data-name="Grupo 137415" transform="translate(-390.5 -2451.5)">
    <g id="Grupo_78514" data-name="Grupo 78514" transform="translate(391 2452)">
      <path id="Trazado_114225" data-name="Trazado 114225" d="M1471.04,502.73c19.6,42.122,53.125,35.508,100.974,13.247s74.458-42,54.862-84.119S1548.9,341.179,1501.05,363.44,1451.445,460.608,1471.04,502.73Z" transform="translate(-1450.603 -355.746)" fill="none" stroke="#ef3c79" stroke-miterlimit="10" stroke-width="2"/>
      <path id="Trazado_114226" data-name="Trazado 114226" d="M1475,468.634c0,46.457,33.189,54.6,85.963,54.6s85.225-6.67,85.225-53.127S1613.737,355,1560.963,355,1475,422.177,1475,468.634Z" transform="translate(-1475 -355)" fill="#fff" stroke="rgba(0,0,0,0)" stroke-width="1"/>
      <path id="Trazado_114227" data-name="Trazado 114227" d="M1672.817,421.965c0,4.483,3.2,5.268,8.294,5.268s8.224-.643,8.224-5.126S1686.2,411,1681.112,411,1672.817,417.482,1672.817,421.965Z" transform="translate(-1664.113 -369.679)" fill="#00cbae" stroke="rgba(0,0,0,0)" stroke-width="1"/>
      <path id="Trazado_114228" data-name="Trazado 114228" d="M1459.307,450.965c0,4.483,3.2,5.268,8.295,5.268s8.224-.643,8.224-5.126S1472.693,440,1467.6,440,1459.307,446.482,1459.307,450.965Z" transform="translate(-1293.057 -377.28)" fill="#0d4aad" stroke="rgba(0,0,0,0)" stroke-width="1"/>
    </g>
    <g id="njZdnC" transform="translate(-3387.447 -559.756)">
      <g id="Grupo_87876" data-name="Grupo 87876" transform="translate(3803.448 3046.756)">
        <path id="Trazado_121617" data-name="Trazado 121617" d="M3878.946,3049.357c.423-1.917,1.211-2.59,3.1-2.591q22.179-.006,44.358,0a9.615,9.615,0,0,1,9.743,7.831,2.9,2.9,0,0,0,.2.471v78.649c-.421.271-.342.762-.471,1.148a9.623,9.623,0,0,1-8.811,6.681c-.6.023-1.21.022-1.816.022q-37.366,0-74.733-.012a5.028,5.028,0,0,0-2.345.554q-12.959,6.5-25.936,12.97c-.308.154-.612.321-.932.446a2.516,2.516,0,0,1-3.627-2.35c-.056-2.681.01-5.363-.03-8.044-.017-1.15.506-2.628-.239-3.361-.683-.672-2.139-.153-3.254-.2a15.72,15.72,0,0,1-3.348-.282,9.592,9.592,0,0,1-7.342-9.229q-.04-37.886,0-75.772a9.567,9.567,0,0,1,9.52-9.511c14.964-.042,29.928-.018,44.892-.012,1.765,0,2.554.712,2.977,2.589a2.3,2.3,0,0,1-1.678,2.759,6.89,6.89,0,0,1-2.439.244q-21.283,0-42.565,0a4.957,4.957,0,0,0-3.639,1.043,4.14,4.14,0,0,0-1.461,2.936c-.027.562-.022,1.125-.022,1.687,0,24.008.033,48.017-.036,72.025-.011,3.646.922,6.231,5.952,5.875,1.377-.1,2.768-.035,4.152-.008,2.928.058,4.147,1.282,4.2,4.24.036,2.076,0,4.153.012,6.229.008,1.716.126,1.8,1.638,1.042,6.735-3.36,13.484-6.694,20.189-10.114a12.976,12.976,0,0,1,6.1-1.426q37.051.051,74.1.02a11.87,11.87,0,0,0,2.072-.076,4.022,4.022,0,0,0,3.227-3.322,10.038,10.038,0,0,0,.1-1.812q0-36.6,0-73.193a5.461,5.461,0,0,0-.443-2.787,4.171,4.171,0,0,0-3.382-2.319c-.6-.054-1.21-.035-1.816-.035q-20.959,0-41.917,0a7.789,7.789,0,0,1-2.446-.2A2.331,2.331,0,0,1,3878.946,3049.357Z" transform="translate(-3803.448 -3046.756)"/>
        <path id="Trazado_121618" data-name="Trazado 121618" d="M3893.725,3056.753c.436,1.963,1.215,2.6,3.236,2.6q21.865,0,43.731,0c3.531,0,5.247,1.716,5.247,5.248,0,24.439-.048,48.879.052,73.319.015,3.738-1.764,5.924-5.843,5.907-25-.1-50-.042-75-.074a9.519,9.519,0,0,0-4.458,1.069c-7.2,3.648-14.429,7.24-21.649,10.851-.378.189-.767.358-1.146.535-.407-.352-.24-.766-.243-1.12-.016-2.725.007-5.45-.014-8.176-.016-2.106-1.007-3.106-3.1-3.13-2.119-.024-4.239.011-6.358-.012a4.455,4.455,0,0,1-4.75-4.809q-.007-37.373,0-74.746a4.5,4.5,0,0,1,4.851-4.858q22.061-.009,44.121,0c2.022,0,2.791-.626,3.239-2.6h6.407c.376.208.446.617.62.954a2.236,2.236,0,0,0,4.035,0c.171-.338.244-.747.619-.955Z" transform="translate(-3818.227 -3054.152)" fill="#fe5d7c"/>
        <path id="Trazado_121619" data-name="Trazado 121619" d="M4054.026,3049.386c-.389,1.729-1.33,2.633-2.7,2.6-1.344-.036-2.2-.9-2.571-2.6.374-1.7,1.221-2.554,2.571-2.59C4052.708,3046.761,4053.637,3047.651,4054.026,3049.386Z" transform="translate(-3984.934 -3046.785)" fill="#010101"/>
        <path id="Trazado_121620" data-name="Trazado 121620" d="M3904.068,3190.794c1.127-1.693,1.292-3.967,3.662-3.927,2.282.038,2.47,2.212,3.438,3.772a25.955,25.955,0,0,0,.5-4.692c.274-2.578.419-5.169.6-7.757.134-1.889,1.161-2.946,2.809-2.852,1.543.088,2.5,1.24,2.371,3.085-.438,6.079-.934,12.153-1.411,18.229q-.167,2.133-.356,4.264a2.6,2.6,0,0,1-5.061.9c-.968-2.008-1.9-4.031-2.941-6.229-1,2.11-1.909,4.056-2.832,6-.728,1.531-1.745,2.206-2.972,1.99-1.348-.237-2.132-1.2-2.265-2.91q-.864-11.119-1.692-22.24c-.132-1.773.739-2.927,2.23-3.079a2.549,2.549,0,0,1,2.905,2.6C3903.434,3182.112,3903.72,3186.288,3904.068,3190.794Z" transform="translate(-3873.336 -3141.881)"/>
        <path id="Trazado_121621" data-name="Trazado 121621" d="M3989.043,3189.4c0-3.675-.007-7.349,0-11.023,0-1.911.981-3.033,2.6-3.031s2.579,1.112,2.586,3.037c.008,2.507.028,5.015-.014,7.521-.012.731.192.975.938.948,1.511-.054,3.026-.053,4.538,0,.755.026.955-.248.945-.967-.035-2.507-.026-5.014-.008-7.521.014-1.937.974-3.029,2.6-3.016,1.557.013,2.568,1.1,2.575,2.937q.034,11.153,0,22.305c-.006,1.865-1.119,3.067-2.657,3.03-1.556-.039-2.508-1.207-2.52-3.138-.014-2.464-.035-4.928.013-7.392.017-.859-.264-1.121-1.113-1.08a41.229,41.229,0,0,1-4.147,0c-.885-.046-1.2.183-1.17,1.126.068,2.505.032,5.014.02,7.521a2.613,2.613,0,1,1-5.183.026C3989.032,3196.925,3989.043,3193.165,3989.043,3189.4Z" transform="translate(-3940.756 -3141.895)"/>
        <path id="Trazado_121622" data-name="Trazado 121622" d="M4072.411,3189.347c0-1.859-.034-3.719.006-5.577a8.359,8.359,0,1,1,16.712.206q.012,5.576,0,11.154a8.348,8.348,0,0,1-16.693.312c-.075-2.029-.013-4.063-.013-6.095Z" transform="translate(-4002.428 -3141.883)"/>
        <path id="Trazado_121623" data-name="Trazado 121623" d="M4164.943,3164.392a7.761,7.761,0,0,1,6.65,4.787,8.021,8.021,0,0,1-1.176,8.974c-.843,1.039-1.791,1.993-2.707,2.972a3.987,3.987,0,0,0-1.088,2.82c-.021,1.846-1.014,2.912-2.579,2.905-1.6-.008-2.586-1.2-2.593-3.062a8.774,8.774,0,0,1,2.475-6.22c.8-.854,1.6-1.7,2.374-2.574a3.287,3.287,0,0,0,.512-3.837,3.177,3.177,0,0,0-5.93,1.445c-.214,1.79-1.312,2.848-2.817,2.714-1.562-.139-2.5-1.44-2.358-3.277C4156.032,3167.75,4159.694,3164.394,4164.943,3164.392Z" transform="translate(-4064.052 -3133.788)"/>
        <path id="Trazado_121624" data-name="Trazado 121624" d="M4180.4,3264.179a2.5,2.5,0,0,1,2.607,2.447,2.58,2.58,0,0,1-2.511,2.713,2.68,2.68,0,0,1-2.648-2.615A2.582,2.582,0,0,1,4180.4,3264.179Z" transform="translate(-4080.447 -3207.615)" fill="#010001"/>
        <path id="Trazado_121625" data-name="Trazado 121625" d="M4092.358,3204.3c0-1.815-.021-3.629,0-5.443.029-2.232,1.262-3.572,3.224-3.55,1.871.02,3.1,1.406,3.109,3.54q.015,5.443,0,10.886a3.234,3.234,0,0,1-3.1,3.462,3.2,3.2,0,0,1-3.227-3.322C4092.32,3208.012,4092.358,3206.153,4092.358,3204.3Z" transform="translate(-4017.185 -3156.656)" fill="#fe5d7c"/>
      </g>
    </g>
  </g>
</svg>
