<svg xmlns="http://www.w3.org/2000/svg" xmlns:xlink="http://www.w3.org/1999/xlink" width="309.536" height="313.738" viewBox="0 0 309.536 313.738">
  <defs>
    <clipPath id="clip-path">
      <path id="Trazado_121704" data-name="Trazado 121704" d="M1475,512.156c0,67.124,47.954,78.894,124.2,78.894s164.1-2.158,164.1-69.282c0-20.934,21.471-48.534,19.618-92.99-1.494-35.866-65.658-96.352-77.754-117.753-20.523-36.313-72.873-9.06-105.966-9.06C1522.954,301.965,1475,445.032,1475,512.156Z" transform="translate(-1475 -292.149)" fill="#f6f6f6" stroke="rgba(0,0,0,0)" stroke-width="1"/>
    </clipPath>
  </defs>
  <g id="Grupo_137416" data-name="Grupo 137416" transform="translate(-234.5 -3142.027)">
    <g id="Grupo_88354" data-name="Grupo 88354" transform="translate(235 3155.076)">
      <path id="Trazado_114225" data-name="Trazado 114225" d="M1479.082,602.035c33.028,70.993,89.537,59.845,170.182,22.327s125.493-70.782,92.465-141.775-131.424-152.831-212.069-115.313S1446.056,531.043,1479.082,602.035Z" transform="translate(-1444.638 -354.307)" fill="none" stroke="#ef3c79" stroke-miterlimit="10" stroke-width="2"/>
      <path id="Trazado_114226" data-name="Trazado 114226" d="M1475,546.519c0,78.3,55.938,92.029,144.883,92.029s143.639-11.242,143.639-89.541S1708.828,355,1619.883,355,1475,468.22,1475,546.519Z" transform="translate(-1475 -355)" fill="#cde2df" stroke="rgba(0,0,0,0)" stroke-width="1"/>
      <path id="Trazado_114227" data-name="Trazado 114227" d="M1672.817,429.48c0,7.555,5.4,8.879,13.979,8.879s13.861-1.084,13.861-8.639S1695.379,411,1686.8,411,1672.817,421.925,1672.817,429.48Z" transform="translate(-1658.148 -341.357)" fill="#00cbae" stroke="rgba(0,0,0,0)" stroke-width="1"/>
      <path id="Trazado_114228" data-name="Trazado 114228" d="M1459.307,458.48c0,7.555,5.4,8.88,13.98,8.88s13.86-1.084,13.86-8.64-5.278-18.72-13.86-18.72S1459.307,450.925,1459.307,458.48Z" transform="translate(-1179.109 -334.291)" fill="#0d4aad" stroke="rgba(0,0,0,0)" stroke-width="1"/>
    </g>
    <g id="Enmascarar_grupo_65" data-name="Enmascarar grupo 65" transform="translate(235 3142.027)" clip-path="url(#clip-path)">
      <g id="Grupo_87879" data-name="Grupo 87879" transform="translate(28.177 9.768)">
        <g id="Grupo_87946" data-name="Grupo 87946" transform="translate(134.071 104.273)">
          <g id="Grupo_87885" data-name="Grupo 87885" transform="translate(0 24.487)">
            <g id="Grupo_87884" data-name="Grupo 87884">
              <g id="Grupo_87883" data-name="Grupo 87883">
                <g id="Grupo_87882" data-name="Grupo 87882">
                  <g id="Grupo_87881" data-name="Grupo 87881">
                    <g id="Grupo_87880" data-name="Grupo 87880">
                      <g id="Grupo_87879-2" data-name="Grupo 87879">
                        <path id="Trazado_121629" data-name="Trazado 121629" d="M489.145,263.393a17.758,17.758,0,0,1-9.207-1.646c-14.973-7.074-31.719-20.707-49.772-40.518a343.557,343.557,0,0,1-22.217-26.971A17.858,17.858,0,0,1,436.872,173.3h0c8.784,12.1,36.383,45.785,58.324,56.151a17.86,17.86,0,0,1-6.051,33.937Z" transform="translate(-404.553 -165.926)" fill="#b5591d"/>
                      </g>
                    </g>
                  </g>
                </g>
              </g>
            </g>
          </g>
          <g id="Grupo_87886" data-name="Grupo 87886" transform="translate(22.209 25.196)">
            <path id="Trazado_121630" data-name="Trazado 121630" d="M424.919,166.321l30.108,35.6-17.9,40.771-19.842-22.663S414.42,174.807,424.919,166.321Z" transform="translate(-416.93 -166.321)" fill="#7f7134"/>
          </g>
          <g id="Grupo_87945" data-name="Grupo 87945" transform="translate(66.314)">
            <g id="Grupo_87891" data-name="Grupo 87891" transform="translate(0.001 21.945)">
              <g id="Grupo_87890" data-name="Grupo 87890">
                <g id="Grupo_87889" data-name="Grupo 87889">
                  <g id="Grupo_87888" data-name="Grupo 87888">
                    <g id="Grupo_87887" data-name="Grupo 87887">
                      <path id="Trazado_121631" data-name="Trazado 121631" d="M484.025,165a13.877,13.877,0,0,0-17.037,9.735l-.072.264-1.559,5.721-1.644,5.793q-1.672,5.79-3.444,11.54c-2.365,7.657-4.861,15.25-7.549,22.652-1.344,3.7-2.737,7.35-4.194,10.9s-2.977,7.011-4.569,10.223c-.793,1.6-1.606,3.146-2.421,4.549l-.029.05c1.066,1.739,2.216,3.435,3.4,5.109h30.433c1.147-3,2.184-5.954,3.164-8.9,1.375-4.143,2.627-8.256,3.808-12.36,2.356-8.2,4.43-16.366,6.356-24.538q1.44-6.129,2.765-12.265l1.3-6.151.63-3.09.623-3.162A13.92,13.92,0,0,0,484.025,165Z" transform="translate(-441.508 -164.51)" fill="#b5591d"/>
                    </g>
                  </g>
                </g>
              </g>
            </g>
            <path id="Trazado_121632" data-name="Trazado 121632" d="M456.373,170.662s3.4,15.838,25.4,15.573a15.394,15.394,0,0,1-1.54,7.1s-17.972,0-25.742-15.011C454.49,178.326,453.4,175.215,456.373,170.662Z" transform="translate(-431.348 -137.677)" fill="#36251f"/>
            <g id="Grupo_87894" data-name="Grupo 87894" transform="translate(4.292 79.3)">
              <g id="Grupo_87893" data-name="Grupo 87893">
                <g id="Grupo_87892" data-name="Grupo 87892">
                  <path id="Trazado_121633" data-name="Trazado 121633" d="M450.607,197.826a1,1,0,0,1-.163.257c-2.724,3.083-4.623,9.809-4.641,9.877a.97.97,0,0,1-1.868-.52c.083-.294,2.04-7.226,5.055-10.639a.97.97,0,0,1,1.617,1.026Z" transform="translate(-443.899 -196.471)" fill="#8f2d00"/>
                </g>
              </g>
            </g>
            <g id="Grupo_87897" data-name="Grupo 87897" transform="translate(0 79.446)">
              <g id="Grupo_87896" data-name="Grupo 87896">
                <g id="Grupo_87895" data-name="Grupo 87895">
                  <path id="Trazado_121634" data-name="Trazado 121634" d="M451.525,198.215a1.007,1.007,0,0,1-.25.176c-3.688,1.823-7.989,7.33-8.032,7.386a.97.97,0,0,1-1.533-1.19c.187-.24,4.623-5.915,8.705-7.933a.969.969,0,0,1,1.109,1.561Z" transform="translate(-441.507 -196.552)" fill="#8f2d00"/>
                </g>
              </g>
            </g>
            <g id="Grupo_87944" data-name="Grupo 87944" transform="translate(24.041)">
              <g id="Grupo_87905" data-name="Grupo 87905">
                <g id="Grupo_87904" data-name="Grupo 87904">
                  <g id="Grupo_87903" data-name="Grupo 87903">
                    <g id="Grupo_87902" data-name="Grupo 87902">
                      <g id="Grupo_87901" data-name="Grupo 87901">
                        <g id="Grupo_87900" data-name="Grupo 87900">
                          <g id="Grupo_87899" data-name="Grupo 87899">
                            <g id="Grupo_87898" data-name="Grupo 87898">
                              <path id="Trazado_121635" data-name="Trazado 121635" d="M472.113,198.721s15.106-.58,20.834-8.025c6.422-8.35-5.24-27.615-10.48-31.382-6.554-4.714-15.255,4.924-15.255,4.924s-6.545-13.629-10.069-11.786c-4.587,2.4,3.541,12.653-1.6,24.387-1.15,2.625-.565,5.71.346,8.427C457.615,190.4,461.87,197.869,472.113,198.721Z" transform="translate(-454.905 -152.28)" fill="#b5591d"/>
                            </g>
                          </g>
                        </g>
                      </g>
                    </g>
                  </g>
                </g>
              </g>
              <g id="Grupo_87913" data-name="Grupo 87913" transform="translate(22.382 26.813)">
                <g id="Grupo_87912" data-name="Grupo 87912">
                  <g id="Grupo_87911" data-name="Grupo 87911">
                    <g id="Grupo_87910" data-name="Grupo 87910">
                      <g id="Grupo_87909" data-name="Grupo 87909">
                        <g id="Grupo_87908" data-name="Grupo 87908">
                          <g id="Grupo_87907" data-name="Grupo 87907">
                            <g id="Grupo_87906" data-name="Grupo 87906">
                              <path id="Trazado_121636" data-name="Trazado 121636" d="M467.4,174.958a.89.89,0,0,1,.244-.827c.23-.226,5.683-5.552,10.823-6.88a.89.89,0,0,1,.445,1.724c-4.682,1.208-9.967,6.372-10.019,6.424a.888.888,0,0,1-1.493-.441Z" transform="translate(-467.377 -167.222)" fill="#8f2d00"/>
                            </g>
                          </g>
                        </g>
                      </g>
                    </g>
                  </g>
                </g>
              </g>
              <g id="Grupo_87921" data-name="Grupo 87921" transform="translate(17.208 20.387)">
                <g id="Grupo_87920" data-name="Grupo 87920">
                  <g id="Grupo_87919" data-name="Grupo 87919">
                    <g id="Grupo_87918" data-name="Grupo 87918">
                      <g id="Grupo_87917" data-name="Grupo 87917">
                        <g id="Grupo_87916" data-name="Grupo 87916">
                          <g id="Grupo_87915" data-name="Grupo 87915">
                            <g id="Grupo_87914" data-name="Grupo 87914">
                              <path id="Trazado_121637" data-name="Trazado 121637" d="M464.515,171.492a.889.889,0,0,1,.2-.777,24.753,24.753,0,0,1,12.194-7.051.89.89,0,0,1,1.066.669l0,.005a.89.89,0,0,1-.671,1.061,23.354,23.354,0,0,0-11.25,6.487.887.887,0,0,1-1.254.083A.869.869,0,0,1,464.515,171.492Z" transform="translate(-464.494 -163.641)" fill="#8f2d00"/>
                            </g>
                          </g>
                        </g>
                      </g>
                    </g>
                  </g>
                </g>
              </g>
              <g id="Grupo_87927" data-name="Grupo 87927" transform="translate(14.092 13.311)">
                <g id="Grupo_87926" data-name="Grupo 87926">
                  <g id="Grupo_87925" data-name="Grupo 87925">
                    <g id="Grupo_87924" data-name="Grupo 87924">
                      <g id="Grupo_87923" data-name="Grupo 87923">
                        <g id="Grupo_87922" data-name="Grupo 87922">
                          <path id="Trazado_121638" data-name="Trazado 121638" d="M462.778,166.827a.89.89,0,0,1,.194-.77,22.039,22.039,0,0,1,11.1-6.336.891.891,0,0,1,1.07.664.877.877,0,0,1-.666,1.069,20.647,20.647,0,0,0-10.148,5.76.892.892,0,0,1-1.545-.388Z" transform="translate(-462.757 -159.698)" fill="#8f2d00"/>
                        </g>
                      </g>
                    </g>
                  </g>
                </g>
              </g>
              <g id="Grupo_87935" data-name="Grupo 87935" transform="translate(9.01 24.743)">
                <g id="Grupo_87934" data-name="Grupo 87934">
                  <g id="Grupo_87933" data-name="Grupo 87933">
                    <g id="Grupo_87932" data-name="Grupo 87932">
                      <g id="Grupo_87931" data-name="Grupo 87931">
                        <g id="Grupo_87930" data-name="Grupo 87930">
                          <g id="Grupo_87929" data-name="Grupo 87929">
                            <g id="Grupo_87928" data-name="Grupo 87928">
                              <path id="Trazado_121639" data-name="Trazado 121639" d="M459.946,177.472a.891.891,0,0,1,.42-.96c5.308-3.1,6.144-9.593,6.153-9.658a.89.89,0,0,1,1.767.208c-.036.3-.933,7.427-7.022,10.988a.889.889,0,0,1-1.319-.578Z" transform="translate(-459.925 -166.069)" fill="#8f2d00"/>
                            </g>
                          </g>
                        </g>
                      </g>
                    </g>
                  </g>
                </g>
              </g>
              <g id="Grupo_87943" data-name="Grupo 87943" transform="translate(13.691 13.601)">
                <g id="Grupo_87942" data-name="Grupo 87942">
                  <g id="Grupo_87941" data-name="Grupo 87941">
                    <g id="Grupo_87940" data-name="Grupo 87940">
                      <g id="Grupo_87939" data-name="Grupo 87939">
                        <g id="Grupo_87938" data-name="Grupo 87938">
                          <g id="Grupo_87937" data-name="Grupo 87937">
                            <g id="Grupo_87936" data-name="Grupo 87936">
                              <path id="Trazado_121640" data-name="Trazado 121640" d="M463.117,168.005a24.2,24.2,0,0,1-.493-7.332.891.891,0,1,1,1.775.156c-1.215,13.906,11.695,24.389,11.824,24.495a.889.889,0,0,1-1.109,1.391C474.646,186.343,465.532,178.953,463.117,168.005Z" transform="translate(-462.534 -159.86)" fill="#8f2d00"/>
                            </g>
                          </g>
                        </g>
                      </g>
                    </g>
                  </g>
                </g>
              </g>
            </g>
          </g>
        </g>
        <g id="Grupo_87956" data-name="Grupo 87956" transform="translate(0 98.729)">
          <g id="Grupo_87949" data-name="Grupo 87949" transform="translate(31.097 0.984)">
            <g id="Grupo_87948" data-name="Grupo 87948">
              <g id="Grupo_87947" data-name="Grupo 87947">
                <path id="Trazado_121641" data-name="Trazado 121641" d="M397.527,155.779s-15.958-9.678-28.638-4.533-21.719,24.9-21.719,24.9l33.962,7.257Z" transform="translate(-347.17 -149.739)" fill="#5b413c"/>
              </g>
            </g>
          </g>
          <g id="Grupo_87952" data-name="Grupo 87952" transform="translate(0.457 41.054)">
            <g id="Grupo_87951" data-name="Grupo 87951">
              <g id="Grupo_87950" data-name="Grupo 87950">
                <path id="Trazado_121642" data-name="Trazado 121642" d="M373.336,185.607s-23.009-27.608-36.1-3.975c-14.106,25.462-2.948,45.347-2.948,45.347l22.657-13.749Z" transform="translate(-330.096 -172.068)" fill="#5b413c"/>
              </g>
            </g>
          </g>
          <g id="Grupo_87955" data-name="Grupo 87955">
            <g id="Grupo_87954" data-name="Grupo 87954">
              <g id="Grupo_87953" data-name="Grupo 87953">
                <path id="Trazado_121643" data-name="Trazado 121643" d="M443.947,159.7s-35.525-31.255-80.264,14.037-40.03,113.324-15.23,136.017,62.217,10.164,62.217,10.164Z" transform="translate(-329.841 -149.191)" fill="#36251f"/>
              </g>
            </g>
          </g>
        </g>
        <g id="Grupo_88332" data-name="Grupo 88332" transform="translate(40.758 0)">
          <g id="Grupo_88331" data-name="Grupo 88331">
            <g id="Grupo_88330" data-name="Grupo 88330">
              <g id="Grupo_88141" data-name="Grupo 88141" transform="translate(0 106.092)">
                <g id="Grupo_88140" data-name="Grupo 88140">
                  <path id="Trazado_121671" data-name="Trazado 121671" d="M474.177,243.995c-.427,2.03-.861,4.542-1.312,7.447q-.234,1.5-.477,3.119c-1.346,9.05-2.878,20.974-4.847,33.309-.178,1.1-.361,2.22-.549,3.327-4.388,26.541,4.043,27.052,2.3,35.649-6.7,33.087-105.232,22.094-114.811,9.925-4.5-5.708-.569-59.832,5.873-93.633.217-1.141.425-2.266.637-3.368,1.737-9.2,3.1-16.755,3.51-21.2,1.918-20.681,6.6-42.493,10.537-51.671s39.093-13.6,39.093-13.6l36.7,6.139s18.044,7.709,30.454,23.17S478.683,222.5,474.177,243.995Z" transform="translate(-352.554 -153.294)" fill="#7f7134"/>
                </g>
              </g>
              <g id="Grupo_88148" data-name="Grupo 88148" transform="translate(4.701 118.979)">
                <g id="Grupo_88144" data-name="Grupo 88144">
                  <g id="Grupo_88143" data-name="Grupo 88143">
                    <g id="Grupo_88142" data-name="Grupo 88142">
                      <path id="Trazado_121672" data-name="Trazado 121672" d="M460.88,160.521s4.179,25.744-12.52,48.848-66.674,35.509-89.9,27.075A25.254,25.254,0,0,0,355.61,253.5s46.592,16.285,87.8-16.2c42.318-33.367,30.078-66.676,30.078-66.676C471.416,166.651,465.141,159.855,460.88,160.521Z" transform="translate(-355.174 -160.476)" fill="#36251f"/>
                    </g>
                  </g>
                </g>
                <g id="Grupo_88147" data-name="Grupo 88147" transform="translate(78.392 42.66)">
                  <g id="Grupo_88146" data-name="Grupo 88146">
                    <g id="Grupo_88145" data-name="Grupo 88145">
                      <path id="Trazado_121673" data-name="Trazado 121673" d="M418.943,184.569a41.26,41.26,0,0,1,10.975,6.582,4.781,4.781,0,0,1,.418,6.744c-3.872,4.413-10.932,12.2-16.267,16.6a4.141,4.141,0,0,1-5.45-.161l-8.432-7.813a4.141,4.141,0,0,1,.1-6.164c3.82-3.32,9.866-8.949,13.7-14.372A4.133,4.133,0,0,1,418.943,184.569Z" transform="translate(-398.859 -184.249)" fill="#5b413c"/>
                    </g>
                  </g>
                </g>
              </g>
              <g id="Grupo_88154" data-name="Grupo 88154" transform="translate(48.267 205.842)">
                <g id="Grupo_88153" data-name="Grupo 88153">
                  <g id="Grupo_88152" data-name="Grupo 88152">
                    <g id="Grupo_88151" data-name="Grupo 88151">
                      <g id="Grupo_88150" data-name="Grupo 88150">
                        <g id="Grupo_88149" data-name="Grupo 88149">
                          <path id="Trazado_121674" data-name="Trazado 121674" d="M380.361,231.872a1.105,1.105,0,0,0,.269.043c20.965.985,43.437-20,44.385-20.9a1.237,1.237,0,0,0-1.7-1.8c-.223.212-22.659,21.162-42.569,20.228a1.236,1.236,0,0,0-.386,2.426Z" transform="translate(-379.451 -208.881)" fill="#594e1e"/>
                        </g>
                      </g>
                    </g>
                  </g>
                </g>
              </g>
              <g id="Grupo_88161" data-name="Grupo 88161" transform="translate(55.831 110.193)">
                <g id="Grupo_88160" data-name="Grupo 88160">
                  <g id="Grupo_88159" data-name="Grupo 88159">
                    <g id="Grupo_88158" data-name="Grupo 88158">
                      <g id="Grupo_88157" data-name="Grupo 88157">
                        <g id="Grupo_88156" data-name="Grupo 88156">
                          <g id="Grupo_88155" data-name="Grupo 88155">
                            <path id="Trazado_121675" data-name="Trazado 121675" d="M411.784,178.234c-14.941-1.333-27.4-20.01-27.92-20.805a1.193,1.193,0,1,1,1.992-1.314c.122.187,12.352,18.512,26.14,19.743l.016,0c9.775.863,14.5-8.946,14.7-9.362a1.193,1.193,0,0,1,2.163,1.01c-.224.479-5.619,11.74-17.073,10.727Z" transform="translate(-383.666 -155.579)" fill="#594e1e"/>
                          </g>
                        </g>
                      </g>
                    </g>
                  </g>
                </g>
              </g>
              <g id="Grupo_88163" data-name="Grupo 88163" transform="translate(117.022 165.072)">
                <g id="Grupo_88162" data-name="Grupo 88162">
                  <path id="Trazado_121676" data-name="Trazado 121676" d="M418.676,226.707a1.119,1.119,0,0,1-.187-.031.98.98,0,0,1-.691-1.2c3.119-11.646,11.731-38.37,11.818-38.639a.978.978,0,1,1,1.861.6c-.086.267-8.684,26.946-11.79,38.544A.978.978,0,0,1,418.676,226.707Z" transform="translate(-417.765 -186.161)" fill="#594e1e"/>
                </g>
              </g>
              <g id="Grupo_88329" data-name="Grupo 88329" transform="translate(43.019)">
                <g id="Grupo_88165" data-name="Grupo 88165">
                  <g id="Grupo_88164" data-name="Grupo 88164">
                    <path id="Trazado_121677" data-name="Trazado 121677" d="M447.874,156.239s14.521,3.842,14.833-9.349c0,0,8.572-3.079,6.991-12.585-1.141-6.857-8.292-5.674-8.292-5.674s6.649-12.549-3.645-16.1c0,0,4.682-10.033-2.232-13.932s-14.627,4.048-14.627,4.048.075-8.719-7.926-8.468-10.349,9.771-10.349,9.771-5.48-8.3-12.226-5.186-6.781,12.843-6.781,12.843-9.8-2.878-16.766,4.606.425,13.548.425,13.548-9.089,1.721-10.6,7.469,8.978,8.289,8.978,8.289-4.68,8.949,2.516,12.572,15.189.212,15.189.212Z" transform="translate(-376.527 -94.173)" fill="#36251f"/>
                  </g>
                </g>
                <g id="Grupo_88184" data-name="Grupo 88184" transform="translate(17.863 87.061)">
                  <g id="Grupo_88174" data-name="Grupo 88174">
                    <g id="Grupo_88173" data-name="Grupo 88173">
                      <g id="Grupo_88172" data-name="Grupo 88172">
                        <g id="Grupo_88171" data-name="Grupo 88171">
                          <g id="Grupo_88170" data-name="Grupo 88170">
                            <g id="Grupo_88169" data-name="Grupo 88169">
                              <g id="Grupo_88168" data-name="Grupo 88168">
                                <g id="Grupo_88167" data-name="Grupo 88167">
                                  <g id="Grupo_88166" data-name="Grupo 88166">
                                    <path id="Trazado_121678" data-name="Trazado 121678" d="M425.032,160.18l-1.36,10.011a29.415,29.415,0,0,1-3.659,2.031c-17.708,8.228-33.532-7.081-33.532-7.081l2.265-22.453L421,156.632Z" transform="translate(-386.481 -142.689)" fill="#b5591d"/>
                                  </g>
                                </g>
                              </g>
                            </g>
                          </g>
                        </g>
                      </g>
                    </g>
                  </g>
                  <g id="Grupo_88183" data-name="Grupo 88183" transform="translate(12.466 4.89)">
                    <g id="Grupo_88182" data-name="Grupo 88182">
                      <g id="Grupo_88181" data-name="Grupo 88181">
                        <g id="Grupo_88180" data-name="Grupo 88180">
                          <g id="Grupo_88179" data-name="Grupo 88179">
                            <g id="Grupo_88178" data-name="Grupo 88178">
                              <g id="Grupo_88177" data-name="Grupo 88177">
                                <g id="Grupo_88176" data-name="Grupo 88176">
                                  <g id="Grupo_88175" data-name="Grupo 88175">
                                    <path id="Trazado_121679" data-name="Trazado 121679" d="M419.513,158.015l-1.36,10.011a29.42,29.42,0,0,1-3.659,2.031c-13.076-7.743-21.065-24.644-21.065-24.644l22.049,9.053Z" transform="translate(-393.428 -145.414)" fill="#36251f"/>
                                  </g>
                                </g>
                              </g>
                            </g>
                          </g>
                        </g>
                      </g>
                    </g>
                  </g>
                </g>
                <g id="Grupo_88193" data-name="Grupo 88193" transform="translate(71.032 66.609)">
                  <g id="Grupo_88192" data-name="Grupo 88192">
                    <g id="Grupo_88191" data-name="Grupo 88191">
                      <g id="Grupo_88190" data-name="Grupo 88190">
                        <g id="Grupo_88189" data-name="Grupo 88189">
                          <g id="Grupo_88188" data-name="Grupo 88188">
                            <g id="Grupo_88187" data-name="Grupo 88187">
                              <g id="Grupo_88186" data-name="Grupo 88186">
                                <g id="Grupo_88185" data-name="Grupo 88185">
                                  <path id="Trazado_121680" data-name="Trazado 121680" d="M417.486,133.464s6.184-5.572,8.341,1.132-1.891,19.135-9.717,15.948Z" transform="translate(-416.11 -131.292)" fill="#8f2d00"/>
                                </g>
                              </g>
                            </g>
                          </g>
                        </g>
                      </g>
                    </g>
                  </g>
                </g>
                <g id="Grupo_88202" data-name="Grupo 88202" transform="translate(20.108 28.327)">
                  <g id="Grupo_88201" data-name="Grupo 88201">
                    <g id="Grupo_88200" data-name="Grupo 88200">
                      <g id="Grupo_88199" data-name="Grupo 88199">
                        <g id="Grupo_88198" data-name="Grupo 88198">
                          <g id="Grupo_88197" data-name="Grupo 88197">
                            <g id="Grupo_88196" data-name="Grupo 88196">
                              <g id="Grupo_88195" data-name="Grupo 88195">
                                <g id="Grupo_88194" data-name="Grupo 88194">
                                  <path id="Trazado_121681" data-name="Trazado 121681" d="M443.169,168.928s-3.1,19.492-23.275,16.708c-20.048-2.76-31.531-16.118-32.143-16.944l-.02-.023.336-4.106,1.733-21.317.924-11.393s.2-20.714,20.062-21.8c14.51-.795,27.452,3.354,33.143,11.639.185.267.361.542.524.818a17.55,17.55,0,0,1,2.52,10l-2.132,20.4-.522,5Z" transform="translate(-387.732 -109.958)" fill="#b5591d"/>
                                </g>
                              </g>
                            </g>
                          </g>
                        </g>
                      </g>
                    </g>
                  </g>
                </g>
                <g id="Grupo_88209" data-name="Grupo 88209" transform="translate(47.987 75.169)">
                  <g id="Grupo_88208" data-name="Grupo 88208">
                    <g id="Grupo_88207" data-name="Grupo 88207">
                      <g id="Grupo_88206" data-name="Grupo 88206">
                        <g id="Grupo_88205" data-name="Grupo 88205">
                          <g id="Grupo_88204" data-name="Grupo 88204">
                            <g id="Grupo_88203" data-name="Grupo 88203">
                              <path id="Trazado_121682" data-name="Trazado 121682" d="M403.268,136.062s.569,8.892,7.015,11.86c7.338,3.379,11.384-5.843,11.384-5.843Z" transform="translate(-403.268 -136.062)" fill="#f4ece1"/>
                            </g>
                          </g>
                        </g>
                      </g>
                    </g>
                  </g>
                </g>
                <g id="Grupo_88221" data-name="Grupo 88221" transform="translate(52.404 87.485)">
                  <g id="Grupo_88220" data-name="Grupo 88220">
                    <g id="Grupo_88219" data-name="Grupo 88219">
                      <g id="Grupo_88218" data-name="Grupo 88218">
                        <g id="Grupo_88217" data-name="Grupo 88217">
                          <g id="Grupo_88216" data-name="Grupo 88216">
                            <g id="Grupo_88215" data-name="Grupo 88215">
                              <g id="Grupo_88214" data-name="Grupo 88214">
                                <g id="Grupo_88213" data-name="Grupo 88213">
                                  <g id="Grupo_88212" data-name="Grupo 88212">
                                    <g id="Grupo_88211" data-name="Grupo 88211">
                                      <g id="Grupo_88210" data-name="Grupo 88210">
                                        <path id="Trazado_121683" data-name="Trazado 121683" d="M410.416,146.1a4.268,4.268,0,0,0,.5-.039.648.648,0,0,0-.2-1.281,4.151,4.151,0,0,1-3.808-1.585.648.648,0,0,0-1.05.761A5.354,5.354,0,0,0,410.416,146.1Z" transform="translate(-405.729 -142.925)" fill="#8f2d00"/>
                                      </g>
                                    </g>
                                  </g>
                                </g>
                              </g>
                            </g>
                          </g>
                        </g>
                      </g>
                    </g>
                  </g>
                </g>
                <g id="Grupo_88249" data-name="Grupo 88249" transform="translate(47.439 55.103)">
                  <g id="Grupo_88230" data-name="Grupo 88230" transform="translate(0 3.323)">
                    <g id="Grupo_88229" data-name="Grupo 88229">
                      <g id="Grupo_88228" data-name="Grupo 88228">
                        <g id="Grupo_88227" data-name="Grupo 88227">
                          <g id="Grupo_88226" data-name="Grupo 88226">
                            <g id="Grupo_88225" data-name="Grupo 88225">
                              <g id="Grupo_88224" data-name="Grupo 88224">
                                <g id="Grupo_88223" data-name="Grupo 88223">
                                  <g id="Grupo_88222" data-name="Grupo 88222">
                                    <path id="Trazado_121684" data-name="Trazado 121684" d="M406.951,130.521c-.264,1.94-1.357,3.393-2.442,3.244s-1.751-1.839-1.488-3.779,1.357-3.392,2.442-3.244S407.214,128.581,406.951,130.521Z" transform="translate(-402.963 -126.731)" fill="#36251f"/>
                                  </g>
                                </g>
                              </g>
                            </g>
                          </g>
                        </g>
                      </g>
                    </g>
                  </g>
                  <g id="Grupo_88239" data-name="Grupo 88239" transform="translate(19.192 5.928)">
                    <g id="Grupo_88238" data-name="Grupo 88238">
                      <g id="Grupo_88237" data-name="Grupo 88237">
                        <g id="Grupo_88236" data-name="Grupo 88236">
                          <g id="Grupo_88235" data-name="Grupo 88235">
                            <g id="Grupo_88234" data-name="Grupo 88234">
                              <g id="Grupo_88233" data-name="Grupo 88233">
                                <g id="Grupo_88232" data-name="Grupo 88232">
                                  <g id="Grupo_88231" data-name="Grupo 88231">
                                    <path id="Trazado_121685" data-name="Trazado 121685" d="M417.645,131.973c-.264,1.94-1.357,3.393-2.442,3.244s-1.751-1.839-1.488-3.777,1.357-3.393,2.44-3.246S417.909,130.033,417.645,131.973Z" transform="translate(-413.658 -128.183)" fill="#36251f"/>
                                  </g>
                                </g>
                              </g>
                            </g>
                          </g>
                        </g>
                      </g>
                    </g>
                  </g>
                  <g id="Grupo_88248" data-name="Grupo 88248" transform="translate(11.267)">
                    <g id="Grupo_88247" data-name="Grupo 88247">
                      <g id="Grupo_88246" data-name="Grupo 88246">
                        <g id="Grupo_88245" data-name="Grupo 88245">
                          <g id="Grupo_88244" data-name="Grupo 88244">
                            <g id="Grupo_88243" data-name="Grupo 88243">
                              <g id="Grupo_88242" data-name="Grupo 88242">
                                <g id="Grupo_88241" data-name="Grupo 88241">
                                  <g id="Grupo_88240" data-name="Grupo 88240">
                                    <path id="Trazado_121686" data-name="Trazado 121686" d="M409.938,143.211c4.73.642,6.774-2.444,6.86-2.575a.8.8,0,0,0,.088-.686c-2.336-7.124-4.689-14.438-4.712-14.512a.806.806,0,1,0-1.534.494c.023.072,2.288,7.115,4.581,14.11a5.53,5.53,0,0,1-5.066,1.574.8.8,0,1,0-.217,1.6Z" transform="translate(-409.242 -124.88)" fill="#36251f"/>
                                  </g>
                                </g>
                              </g>
                            </g>
                          </g>
                        </g>
                      </g>
                    </g>
                  </g>
                </g>
                <g id="Grupo_88254" data-name="Grupo 88254" transform="translate(19.159 24.688)">
                  <g id="Grupo_88253" data-name="Grupo 88253">
                    <g id="Grupo_88252" data-name="Grupo 88252">
                      <g id="Grupo_88251" data-name="Grupo 88251">
                        <g id="Grupo_88250" data-name="Grupo 88250">
                          <path id="Trazado_121687" data-name="Trazado 121687" d="M416.622,120.645a4.729,4.729,0,0,0-5,3.219c-.461,1.509-1.689,3.209-4.58,4.536-6.742,3.1-6.365,8.666-5.558,13.355s-9.31,11.772-13.294-.147,4.283-34.765,20.987-33.638,37.851,9.47,38.666,17.206a37.766,37.766,0,0,1-1.19,13.992,8.909,8.909,0,0,1-1.516-7.322c.851-4.673-2.157-6.97-7.53-8.448C433.944,122.389,423.13,121.261,416.622,120.645Z" transform="translate(-387.203 -107.931)" fill="#36251f"/>
                        </g>
                      </g>
                    </g>
                  </g>
                </g>
                <g id="Grupo_88264" data-name="Grupo 88264" transform="translate(68.964 70.881)" opacity="0.8">
                  <g id="Grupo_88263" data-name="Grupo 88263">
                    <g id="Grupo_88262" data-name="Grupo 88262">
                      <g id="Grupo_88261" data-name="Grupo 88261">
                        <g id="Grupo_88260" data-name="Grupo 88260">
                          <g id="Grupo_88259" data-name="Grupo 88259">
                            <g id="Grupo_88258" data-name="Grupo 88258">
                              <g id="Grupo_88257" data-name="Grupo 88257">
                                <g id="Grupo_88256" data-name="Grupo 88256">
                                  <g id="Grupo_88255" data-name="Grupo 88255">
                                    <path id="Trazado_121688" data-name="Trazado 121688" d="M422.691,139.075c-.508-.018-1.037-.065-1.577-.138-3.585-.486-6.338-2.028-6.146-3.44s3.257-2.162,6.842-1.676c.485.065.955.153,1.4.253Z" transform="translate(-414.958 -133.672)" fill="#8f2d00"/>
                                  </g>
                                </g>
                              </g>
                            </g>
                          </g>
                        </g>
                      </g>
                    </g>
                  </g>
                </g>
                <g id="Grupo_88274" data-name="Grupo 88274" transform="translate(37.557 66.618)">
                  <g id="Grupo_88273" data-name="Grupo 88273">
                    <g id="Grupo_88272" data-name="Grupo 88272">
                      <g id="Grupo_88271" data-name="Grupo 88271">
                        <g id="Grupo_88270" data-name="Grupo 88270">
                          <g id="Grupo_88269" data-name="Grupo 88269">
                            <g id="Grupo_88268" data-name="Grupo 88268">
                              <g id="Grupo_88267" data-name="Grupo 88267">
                                <g id="Grupo_88266" data-name="Grupo 88266">
                                  <g id="Grupo_88265" data-name="Grupo 88265">
                                    <path id="Trazado_121689" data-name="Trazado 121689" d="M410.461,134.885c-.192,1.412-3.257,2.162-6.846,1.676s-6.34-2.028-6.15-3.44,3.257-2.162,6.846-1.676S410.653,133.472,410.461,134.885Z" transform="translate(-397.456 -131.296)" fill="#8f2d00"/>
                                  </g>
                                </g>
                              </g>
                            </g>
                          </g>
                        </g>
                      </g>
                    </g>
                  </g>
                </g>
                <g id="Grupo_88283" data-name="Grupo 88283" transform="translate(42.121 47.958)">
                  <g id="Grupo_88282" data-name="Grupo 88282">
                    <g id="Grupo_88281" data-name="Grupo 88281">
                      <g id="Grupo_88280" data-name="Grupo 88280">
                        <g id="Grupo_88279" data-name="Grupo 88279">
                          <g id="Grupo_88278" data-name="Grupo 88278">
                            <g id="Grupo_88277" data-name="Grupo 88277">
                              <g id="Grupo_88276" data-name="Grupo 88276">
                                <g id="Grupo_88275" data-name="Grupo 88275">
                                  <path id="Trazado_121690" data-name="Trazado 121690" d="M400,123.911h0a4.6,4.6,0,0,0,5.645,3.126,25.814,25.814,0,0,1,4.772-.879,4.231,4.231,0,0,0,3.878-4.77h0S405.016,119.25,400,123.911Z" transform="translate(-399.999 -120.898)" fill="#36251f"/>
                                </g>
                              </g>
                            </g>
                          </g>
                        </g>
                      </g>
                    </g>
                  </g>
                </g>
                <g id="Grupo_88292" data-name="Grupo 88292" transform="translate(65.166 49.682)">
                  <g id="Grupo_88291" data-name="Grupo 88291">
                    <g id="Grupo_88290" data-name="Grupo 88290">
                      <g id="Grupo_88289" data-name="Grupo 88289">
                        <g id="Grupo_88288" data-name="Grupo 88288">
                          <g id="Grupo_88287" data-name="Grupo 88287">
                            <g id="Grupo_88286" data-name="Grupo 88286">
                              <g id="Grupo_88285" data-name="Grupo 88285">
                                <g id="Grupo_88284" data-name="Grupo 88284">
                                  <path id="Trazado_121691" data-name="Trazado 121691" d="M426.285,128.1h0a4.605,4.605,0,0,1-6.275,1.507,25.738,25.738,0,0,0-4.366-2.119,4.231,4.231,0,0,1-2.464-5.631h0S422.691,122.273,426.285,128.1Z" transform="translate(-412.841 -121.859)" fill="#36251f"/>
                                </g>
                              </g>
                            </g>
                          </g>
                        </g>
                      </g>
                    </g>
                  </g>
                </g>
                <g id="Grupo_88301" data-name="Grupo 88301" transform="translate(20.11 80.047)">
                  <g id="Grupo_88300" data-name="Grupo 88300">
                    <g id="Grupo_88299" data-name="Grupo 88299">
                      <g id="Grupo_88298" data-name="Grupo 88298">
                        <g id="Grupo_88297" data-name="Grupo 88297">
                          <g id="Grupo_88296" data-name="Grupo 88296">
                            <g id="Grupo_88295" data-name="Grupo 88295">
                              <g id="Grupo_88294" data-name="Grupo 88294">
                                <g id="Grupo_88293" data-name="Grupo 88293">
                                  <path id="Trazado_121692" data-name="Trazado 121692" d="M395.137,138.78c-.122.2-3.48,5.778-7.386,7.015l-.018-.023.336-4.106A14.054,14.054,0,0,0,395.137,138.78Z" transform="translate(-387.733 -138.78)" fill="#36251f"/>
                                </g>
                              </g>
                            </g>
                          </g>
                        </g>
                      </g>
                    </g>
                  </g>
                </g>
                <g id="Grupo_88310" data-name="Grupo 88310" transform="translate(10.584 59.541)">
                  <g id="Grupo_88309" data-name="Grupo 88309">
                    <g id="Grupo_88308" data-name="Grupo 88308">
                      <g id="Grupo_88307" data-name="Grupo 88307">
                        <g id="Grupo_88306" data-name="Grupo 88306">
                          <g id="Grupo_88305" data-name="Grupo 88305">
                            <g id="Grupo_88304" data-name="Grupo 88304">
                              <g id="Grupo_88303" data-name="Grupo 88303">
                                <g id="Grupo_88302" data-name="Grupo 88302">
                                  <path id="Trazado_121693" data-name="Trazado 121693" d="M397.63,133.9s-6.342-11.472-13.136-4.056c-5.6,6.11.867,24.893,10.954,20.129Z" transform="translate(-382.425 -127.353)" fill="#b5591d"/>
                                </g>
                              </g>
                            </g>
                          </g>
                        </g>
                      </g>
                    </g>
                  </g>
                </g>
                <g id="Grupo_88319" data-name="Grupo 88319" transform="translate(15.58 64.76)">
                  <g id="Grupo_88318" data-name="Grupo 88318">
                    <g id="Grupo_88317" data-name="Grupo 88317">
                      <g id="Grupo_88316" data-name="Grupo 88316">
                        <g id="Grupo_88315" data-name="Grupo 88315">
                          <g id="Grupo_88314" data-name="Grupo 88314">
                            <g id="Grupo_88313" data-name="Grupo 88313">
                              <g id="Grupo_88312" data-name="Grupo 88312">
                                <g id="Grupo_88311" data-name="Grupo 88311">
                                  <path id="Trazado_121694" data-name="Trazado 121694" d="M392.6,144.385c.029,0,.059.005.09.007a.806.806,0,0,0,.826-.784,15.076,15.076,0,0,0-7.106-13.243.806.806,0,0,0-.793,1.4h0a13.452,13.452,0,0,1,6.29,11.8A.8.8,0,0,0,392.6,144.385Z" transform="translate(-385.208 -130.261)" fill="#36251f"/>
                                </g>
                              </g>
                            </g>
                          </g>
                        </g>
                      </g>
                    </g>
                  </g>
                </g>
                <g id="Grupo_88328" data-name="Grupo 88328" transform="translate(15.484 70.144)">
                  <g id="Grupo_88327" data-name="Grupo 88327">
                    <g id="Grupo_88326" data-name="Grupo 88326">
                      <g id="Grupo_88325" data-name="Grupo 88325">
                        <g id="Grupo_88324" data-name="Grupo 88324">
                          <g id="Grupo_88323" data-name="Grupo 88323">
                            <g id="Grupo_88322" data-name="Grupo 88322">
                              <g id="Grupo_88321" data-name="Grupo 88321">
                                <g id="Grupo_88320" data-name="Grupo 88320">
                                  <path id="Trazado_121695" data-name="Trazado 121695" d="M385.853,136.153a.806.806,0,0,0,.528-.111c.77-.468,3.061-1.565,4.389-1.025a.806.806,0,0,0,.607-1.493c-2.313-.939-5.482.926-5.836,1.143a.806.806,0,0,0,.312,1.486Z" transform="translate(-385.155 -133.262)" fill="#36251f"/>
                                </g>
                              </g>
                            </g>
                          </g>
                        </g>
                      </g>
                    </g>
                  </g>
                </g>
              </g>
            </g>
          </g>
        </g>
        <g id="Grupo_88353" data-name="Grupo 88353" transform="translate(4 113.825)">
          <g id="Grupo_88337" data-name="Grupo 88337" transform="translate(0 143.146)">
            <g id="Grupo_88333" data-name="Grupo 88333" transform="translate(0 0)">
              <rect id="Rect치ngulo_35573" data-name="Rect치ngulo 35573" width="95.832" height="68.366" rx="1.023" transform="translate(0 29.429) rotate(-17.884)" fill="#ff9918"/>
            </g>
            <g id="Grupo_88334" data-name="Grupo 88334" transform="translate(70.117 18.852)">
              <rect id="Rect치ngulo_35574" data-name="Rect치ngulo 35574" width="10.747" height="35.569" rx="0.8" transform="translate(0 3.3) rotate(-17.884)" fill="#f4ece1"/>
            </g>
            <g id="Grupo_88336" data-name="Grupo 88336" transform="translate(18.06 55.971)">
              <g id="Grupo_88335" data-name="Grupo 88335">
                <path id="Trazado_121696" data-name="Trazado 121696" d="M434.523,278.219l-87.707,28.3a1.835,1.835,0,0,1-2.311-1.183l-2.37-7.345,91.2-29.43,2.371,7.345A1.835,1.835,0,0,1,434.523,278.219Z" transform="translate(-342.134 -268.563)" fill="#dd6a18"/>
              </g>
            </g>
          </g>
          <g id="Grupo_88340" data-name="Grupo 88340" transform="translate(15.869 34.551)">
            <g id="Grupo_88339" data-name="Grupo 88339">
              <g id="Grupo_88338" data-name="Grupo 88338">
                <path id="Trazado_121697" data-name="Trazado 121697" d="M394.579,200.186l-.086.249-2.747,7.855-1.847,5.373-.9,2.6-1,2.972-1.694,5.012-2.625,7.985c-1.739,5.319-3.379,10.643-4.965,15.93-.779,2.643-1.541,5.287-2.241,7.908q-1.09,3.938-2.026,7.8c-.63,2.573-1.165,5.1-1.611,7.528l-.318,1.717c-.1.485-.171.983-.246,1.482-.153,1-.249,2.035-.319,3.1s-.1,2.148-.09,3.253.056,2.234.124,3.381a64.375,64.375,0,0,0,.845,7.029,99.5,99.5,0,0,0,3.682,14.561c.815,2.435,1.678,4.881,2.643,7.282.476,1.206.967,2.4,1.473,3.578l.759,1.742.377.834.179.395.081.181c.027.056.052.115.038.1a12,12,0,1,1-20.245,12.9l-.827-1.157-.718-1.021c-.467-.673-.924-1.335-1.364-2.01-.878-1.344-1.723-2.688-2.546-4.047-1.619-2.733-3.171-5.5-4.587-8.362a113.1,113.1,0,0,1-7.241-18.108,84.03,84.03,0,0,1-3.555-20.45c-.075-1.814-.093-3.65-.02-5.514.038-.931.082-1.864.16-2.81l.057-.705.066-.621.138-1.226c.375-3.261.829-6.4,1.362-9.452s1.091-6.069,1.712-9.032,1.288-5.895,1.974-8.809c1.366-5.82,2.875-11.553,4.452-17.238.779-2.848,1.61-5.671,2.439-8.491l.314-1.05c.732-2.469,1.477-4.929,2.252-7.384.048-.153.093-.3.142-.454.833-2.65,1.667-5.3,2.55-7.933.465-1.4.922-2.792,1.4-4.188l1.482-4.251.007-.014a17.537,17.537,0,0,1,33.108,11.574Z" transform="translate(-340.913 -176.857)" fill="#b5591d"/>
              </g>
            </g>
          </g>
          <path id="Trazado_121698" data-name="Trazado 121698" d="M384.267,201.2l-.9,2.6-1,2.972c-5.588.763-16.213.371-34.363-6.4.732-2.469,1.477-4.929,2.252-7.384.048-.153.093-.3.142-.454Z" transform="translate(-319.412 -129.847)" fill="#8f2d00"/>
          <g id="Grupo_88342" data-name="Grupo 88342" transform="translate(33.007 117.714)">
            <g id="Grupo_88341" data-name="Grupo 88341">
              <path id="Trazado_121699" data-name="Trazado 121699" d="M365.355,229.349c-.407-.212-6.372-3.291-13.566-6.082a.974.974,0,0,0-1.324.958h0a.976.976,0,0,0,.623.854c7.235,2.812,13.279,5.931,13.38,5.983a.965.965,0,1,0,.888-1.714Z" transform="translate(-350.463 -223.201)" fill="#8f2d00"/>
            </g>
          </g>
          <g id="Grupo_88344" data-name="Grupo 88344" transform="translate(36.911 113.349)">
            <g id="Grupo_88343" data-name="Grupo 88343">
              <path id="Trazado_121700" data-name="Trazado 121700" d="M359.962,231.162a.991.991,0,0,1-.16-.258c-1.581-3.779-6.785-8.4-6.837-8.447a.965.965,0,1,1,1.278-1.446c.228.2,5.59,4.964,7.34,9.148a.965.965,0,0,1-1.62,1Z" transform="translate(-352.639 -220.768)" fill="#8f2d00"/>
            </g>
          </g>
          <g id="Grupo_88351" data-name="Grupo 88351" transform="translate(36.447 173.297)">
            <g id="Grupo_88350" data-name="Grupo 88350">
              <g id="Grupo_88349" data-name="Grupo 88349">
                <g id="Grupo_88348" data-name="Grupo 88348">
                  <g id="Grupo_88347" data-name="Grupo 88347">
                    <g id="Grupo_88346" data-name="Grupo 88346">
                      <g id="Grupo_88345" data-name="Grupo 88345">
                        <path id="Trazado_121701" data-name="Trazado 121701" d="M371.021,254.175c.592.982,2.792,6.344,3.052,6.683,4.5,5.884,13.294,4.727,16.183,8.533,0,0,22.026,18.56,16.6,20.73-2.991,1.193-7.408-1.269-10.769-3.716.118.319.237.606.355.881,2.473,5.746,11.49,12.31,8.091,16.163s-8.8-2.085-8.8-2.085-2.216,4.6-9.215,1.559a6.123,6.123,0,0,1-7.314,1.613s-4.2,3.779-8.382.691c-3.553-2.627-10.282-15-18.435-35.886C356.249,262.483,361.094,257.748,371.021,254.175Z" transform="translate(-352.38 -254.175)" fill="#b5591d"/>
                      </g>
                    </g>
                  </g>
                </g>
              </g>
            </g>
          </g>
          <path id="Trazado_121702" data-name="Trazado 121702" d="M383.03,159.293s-22.031,9.5-35.188,60.318c0,0,17.2,12.9,39.278,12.285,0,0,13.979-28.873,17.444-45.627S401.092,152.029,383.03,159.293Z" transform="translate(-319.539 -157.603)" fill="#7f7134"/>
          <g id="Grupo_88352" data-name="Grupo 88352" transform="translate(70.523 31.216)">
            <path id="Trazado_121703" data-name="Trazado 121703" d="M372.242,215.056a1.155,1.155,0,0,1-.185-.038.981.981,0,0,1-.644-1.226c3.568-11.517,13.206-37.887,13.3-38.153a.978.978,0,0,1,1.838.673c-.1.264-9.719,26.589-13.27,38.059A.98.98,0,0,1,372.242,215.056Z" transform="translate(-371.369 -174.998)" fill="#594e1e"/>
          </g>
        </g>
      </g>
    </g>
  </g>
</svg>
