<svg xmlns="http://www.w3.org/2000/svg" width="56.033" height="55.084" viewBox="0 0 56.033 55.084">
  <g id="Grupo_137441" data-name="Grupo 137441" transform="translate(-302.5 -4456.5)">
    <g id="Grupo_137439" data-name="Grupo 137439">
      <path id="Trazado_122023" data-name="Trazado 122023" d="M1459.307,476.531c0,14.935,10.67,17.553,27.635,17.553s27.4-2.144,27.4-17.078S1503.907,440,1486.942,440,1459.307,461.6,1459.307,476.531Z" transform="translate(-1156.307 4017)" fill="#00cbae" stroke="rgba(0,0,0,0)" stroke-width="1"/>
      <g id="Grupo_89016" data-name="Grupo 89016" transform="translate(25.428 3270.466)">
        <path id="Trazado_122019" data-name="Trazado 122019" d="M323.433,1199.712a1.918,1.918,0,0,0-1.977-1.923c-.984-.047-1.967-.107-2.947-.221a33.109,33.109,0,0,1-9.5-2.519c-1.048-.458-2-1.1-3.066-1.515h-.657a4.7,4.7,0,0,0-.589.248,29.354,29.354,0,0,1-6.991,2.853c-.441.122-.634.409-.546.77s.426.526.885.4a28.963,28.963,0,0,0,7-2.823,1,1,0,0,1,1.135,0,27.2,27.2,0,0,0,5.352,2.339,36.3,36.3,0,0,0,9.868,1.7c.532.021.756.208.8.683.066.8.133,1.61.17,2.416a50.846,50.846,0,0,1-.478,9.825,36.14,36.14,0,0,1-2.724,9.623,23.293,23.293,0,0,1-13.078,12.662,1.1,1.1,0,0,1-.865.035A23.054,23.054,0,0,1,292.8,1223.08a38.377,38.377,0,0,1-3.943-16.069,50.631,50.631,0,0,1,.159-7.178c.055-.605.225-.786.841-.815a37.017,37.017,0,0,0,5.137-.543.609.609,0,0,0,.562-.714.623.623,0,0,0-.773-.488,42.605,42.605,0,0,1-5.222.528,1.8,1.8,0,0,0-1.7,1.465,12.631,12.631,0,0,0-.154,1.427,53.9,53.9,0,0,0,.067,8.531,40.913,40.913,0,0,0,2.4,11.015c2.706,7.109,7.376,12.338,14.559,15.155a2.265,2.265,0,0,0,1.746,0,24.588,24.588,0,0,0,13.907-13.566,38.463,38.463,0,0,0,2.892-11.055A53.884,53.884,0,0,0,323.433,1199.712Z" transform="translate(0)"/>
        <path id="Trazado_122020" data-name="Trazado 122020" d="M300.107,1211.738c-.108,1.323-.2,2.648-.176,3.774a44.572,44.572,0,0,0,.241,4.874,32.716,32.716,0,0,0,2.307,9.435,19.632,19.632,0,0,0,11.2,11.22,1.835,1.835,0,0,0,1.394.016,19.491,19.491,0,0,0,4.716-2.608,20.6,20.6,0,0,0,6.834-9.435,39.316,39.316,0,0,0,2.04-17.368,1.577,1.577,0,0,0-1.54-1.48c-.9-.071-1.8-.1-2.7-.215a23.951,23.951,0,0,1-9.033-2.862,1.836,1.836,0,0,0-2.008.009,19.8,19.8,0,0,1-3.847,1.7,28.5,28.5,0,0,1-7.848,1.367A1.589,1.589,0,0,0,300.107,1211.738Zm4.95-.635a25.168,25.168,0,0,0,8.9-2.913.773.773,0,0,1,.867-.007,25.389,25.389,0,0,0,9.465,2.993c.883.111,1.771.162,2.659.206a.471.471,0,0,1,.511.506c.1,1.283.183,2.566.167,3.855a36.2,36.2,0,0,1-2.141,12.829,19.11,19.11,0,0,1-7.56,9.684,18.262,18.262,0,0,1-3.211,1.62.8.8,0,0,1-.627,0,17.975,17.975,0,0,1-9.716-8.9,29.086,29.086,0,0,1-2.8-9.289,43.322,43.322,0,0,1-.315-8.886c.018-.287.066-.573.069-.859a.491.491,0,0,1,.544-.561A30.293,30.293,0,0,0,305.056,1211.1Z" transform="translate(-8.781 -9.424)"/>
        <path id="Trazado_122021" data-name="Trazado 122021" d="M329.162,1250.74a8.387,8.387,0,0,0,6.349-3.372c.392-.493.416-.852.1-1.11-.34-.277-.659-.164-1.074.363a7.238,7.238,0,0,1-5.038,2.845,7.421,7.421,0,1,1,6.384-9.094,7.673,7.673,0,0,1-.032,3.576.6.6,0,0,0,.24.684.588.588,0,0,0,.657.026c.252-.132.29-.385.346-.622a8.662,8.662,0,1,0-17.055-1.052A8.813,8.813,0,0,0,329.162,1250.74Z" transform="translate(-23.045 -28.347)"/>
        <path id="Trazado_122022" data-name="Trazado 122022" d="M340.893,1244.112q-1.514,1.634-3.022,3.272c-.291.315-.566.836-.894.875-.383.046-.659-.515-.982-.81a2.515,2.515,0,1,0-3.516,3.6c.926.921,1.874,1.819,2.814,2.726a2.512,2.512,0,0,0,3.679-.163c1.878-2.04,3.769-4.068,5.64-6.114a2.517,2.517,0,1,0-3.72-3.383Zm2.55,2.278c-.876.969-1.769,1.922-2.654,2.882-.971,1.052-1.938,2.107-2.912,3.155a.959.959,0,0,1-1.6.052q-1.337-1.281-2.663-2.573a.877.877,0,0,1-.239-1.026.894.894,0,0,1,.77-.568,1.128,1.128,0,0,1,.817.37c.449.436.892.879,1.347,1.309a.835.835,0,0,0,1.383-.044c1.462-1.572,2.914-3.153,4.375-4.727a.875.875,0,0,1,1.317-.184A.854.854,0,0,1,343.443,1246.39Z" transform="translate(-31.349 -35.293)"/>
      </g>
    </g>
  </g>
</svg>
