<svg xmlns="http://www.w3.org/2000/svg" xmlns:xlink="http://www.w3.org/1999/xlink" width="324.804" height="326.083" viewBox="0 0 324.804 326.083">
  <defs>
    <linearGradient id="linear-gradient" y1="0.5" x2="1" y2="0.5" gradientUnits="objectBoundingBox">
      <stop offset="0" stop-color="#00b99e"/>
      <stop offset="1" stop-color="#00b99e"/>
    </linearGradient>
  </defs>
  <g id="Grupo_137395" data-name="Grupo 137395" transform="translate(-958.196 -4879.461)">
    <g id="Grupo_136731" data-name="Grupo 136731">
      <g id="Grupo_78398" data-name="Grupo 78398" transform="translate(-500.113 4535)">
        <path id="Trazado_114225" data-name="Trazado 114225" d="M1746.461,614.139c-34.665,74.511-93.974,62.811-178.617,23.434s-131.713-74.291-97.048-148.8,137.938-160.406,222.58-121.029S1781.125,539.627,1746.461,614.139Z" transform="translate(0 0.868)" fill="none" stroke="#ef3c79" stroke-miterlimit="10" stroke-width="2"/>
        <path id="Trazado_114226" data-name="Trazado 114226" d="M1777.823,556.012c0,82.18-58.71,96.59-152.064,96.59S1475,640.8,1475,558.622,1532.4,355,1625.759,355,1777.823,473.832,1777.823,556.012Z" transform="translate(4.791)" fill="#cedbef" stroke="rgba(0,0,0,0)" stroke-width="1"/>
        <path id="Trazado_114227" data-name="Trazado 114227" d="M1702.038,430.4c0,7.93-5.665,9.32-14.673,9.32s-14.547-1.138-14.547-9.068S1678.358,411,1687.365,411,1702.038,422.467,1702.038,430.4Z" transform="translate(65.178 17.095)" fill="#00cbae" stroke="rgba(0,0,0,0)" stroke-width="1"/>
        <path id="Trazado_114228" data-name="Trazado 114228" d="M1488.527,459.4c0,7.93-5.665,9.32-14.672,9.32s-14.547-1.138-14.547-9.068S1464.847,440,1473.854,440,1488.527,451.467,1488.527,459.4Z" transform="translate(0 25.948)" fill="#0d4aad" stroke="rgba(0,0,0,0)" stroke-width="1"/>
      </g>
      <g id="Grupo_136730" data-name="Grupo 136730" transform="translate(1000.148 4983.544)">
        <g id="CtRHaZ" transform="translate(11.844 6.259)">
          <g id="Grupo_88356" data-name="Grupo 88356" transform="translate(0 0)">
            <path id="Trazado_121705" data-name="Trazado 121705" d="M4398.259,3277.2a.7.7,0,0,0,1.1.639.726.726,0,0,1,1.023.007.611.611,0,0,0,.813-.01.644.644,0,0,0,.252-.777.671.671,0,0,1,.283-.927.664.664,0,0,0,.255-.841.644.644,0,0,0-.683-.454c-.461.042-.654-.167-.768-.574a.643.643,0,0,0-.665-.479.625.625,0,0,0-.656.483c-.115.473-.4.552-.839.585a.662.662,0,0,0-.5,1.116C4398.3,3276.36,4398.545,3276.706,4398.259,3277.2Zm52.824-33.388a.583.583,0,0,0,.461-.193c.5-.678.956-.722,1.5-.023a.631.631,0,0,0,.979.027.649.649,0,0,0,.047-.982c-.409-.455-.846-.884-1.3-1.3a.64.64,0,0,0-.931-.017c-.467.431-.909.89-1.346,1.351a.65.65,0,0,0-.079.759A.665.665,0,0,0,4451.083,3243.809Z" transform="translate(-4397.682 -3222.497)" fill="#fefefe"/>
            <path id="Trazado_121706" data-name="Trazado 121706" d="M4440.828,3325.563c-.316-.015-.633-.043-.952-.044q-10.028,0-20.056,0c0-3.062-.018-6.124-.008-9.187a10.849,10.849,0,0,1,.154-1.606,17.986,17.986,0,0,1,14.561-15.188c.619-.124.748.091.847.611a5.535,5.535,0,0,0,8.414,3.614,5.735,5.735,0,0,0,2.641-5.041,14.857,14.857,0,0,1,3.265.708c-.118.574.193.866.684,1.046a14.594,14.594,0,0,1,2.575,1.238,17.514,17.514,0,0,1,8.7,13.183c.458,3.523.144,7.091.156,10.64l-20.546,0C4441.121,3325.526,4440.974,3325.55,4440.828,3325.563Z" transform="translate(-4411.513 -3258.496)" fill="#8282fe"/>
            <path id="Trazado_121707" data-name="Trazado 121707" d="M4462.211,3206.973a11.417,11.417,0,0,1-5.157,5.428c-.306.155-.285.288-.134.554a4.491,4.491,0,0,1-4.484,6.677c-.484-.065-.553.169-.665.536a15.458,15.458,0,0,1-7.533,9.606.583.583,0,0,0-.36.633c.03.414.028.83.038,1.246a5.732,5.732,0,0,1-2.64,5.042,5.535,5.535,0,0,1-8.414-3.614c-.1-.52-.229-.734-.847-.611a17.986,17.986,0,0,0-14.56,15.188,10.929,10.929,0,0,0-.155,1.607c-.009,3.062,0,6.124.008,9.186-.093.462-.332.776-.846.711a.717.717,0,0,1-.652-.826c.066-3.466-.155-6.936.135-10.4a20.973,20.973,0,0,1,1.354-5.366,20.309,20.309,0,0,1,6-7.752,19.453,19.453,0,0,1,8.909-3.885c.231-.038.527.016.512-.362-.012-.276.093-.568-.271-.753a15.21,15.21,0,0,1-5.888-5.592,16.091,16.091,0,0,1-1.743-4.125c-.112-.376-.23-.5-.64-.473a4.473,4.473,0,0,1-3.682-7.694.806.806,0,0,0,.268-.647,24.161,24.161,0,0,1,.364-5.185,11.194,11.194,0,0,1,.75-2.541,18.344,18.344,0,0,1,2.588-4.426,17.939,17.939,0,0,1,9.894-6.259,17.462,17.462,0,0,1,6.2-.308c.55.069.855.316.871.882-.169.566-.591.653-1.1.588a16.279,16.279,0,0,0-3.808-.033,16.051,16.051,0,0,0-14.265,15.47c-.011.435-.2.98.092,1.267.179.174.734-.011,1.113-.074.409-.068.905.309,1.183,0a3.424,3.424,0,0,0,.427-1.227.352.352,0,0,1,.021-.07c.213-.38.116-.591-.332-.624a2.943,2.943,0,0,1-.359-.067c-.5-.1-.926-.318-.795-.921.127-.583.561-.644,1.087-.523a23.87,23.87,0,0,0,3.846.554,22.75,22.75,0,0,0,12.2-2.505.6.6,0,0,0,.385-.785,10.693,10.693,0,0,1,.06-4.3,11.7,11.7,0,0,1,3.3-5.851,11.883,11.883,0,0,1,6.833-2.887,11.194,11.194,0,0,1,11.7,9.694A12.6,12.6,0,0,1,4462.211,3206.973Zm-9.749,9.123c-.059.53-.1,1.062-.181,1.59-.052.349.07.455.412.5a2.958,2.958,0,0,0,3.292-2.817,2.681,2.681,0,0,0-.429-1.8.569.569,0,0,0-.763-.312c-.765.2-1.873.044-2.251.511C4452.152,3214.248,4452.459,3215.3,4452.462,3216.1Zm-7.7-5.146,0,0a12.705,12.705,0,0,1-2.65-3.456c-.484-1-.505-1.007-1.492-.507a32.389,32.389,0,0,1-5.332,1.886c-.242.017-.487.013-.725.054a24.352,24.352,0,0,1-6.5.293c-1.395-.141-1.395-.135-1.766,1.272-1.513,5.663-.62,10.845,3.309,15.287a11.315,11.315,0,0,0,14.519,2.362c4.813-2.883,7.243-8.662,6.816-14.219a.381.381,0,0,0-.395-.411,16.624,16.624,0,0,1-2.7-.661l.01,0-.122-.08a15.321,15.321,0,0,1-2.849-1.73Zm-10.512,21.321a4.059,4.059,0,0,0,8.1,0v-1.588a.267.267,0,0,0-.088-.02c-.188.042-.377.082-.564.132a12.545,12.545,0,0,1-6.085.167C4434.117,3230.631,4434.113,3230.646,4434.251,3232.272Zm17.784-39.328a9.584,9.584,0,1,0,9.581,9.587A9.6,9.6,0,0,0,4452.035,3192.944Zm-28.5,25.246c.843.013.842-.006.739-.862a15.545,15.545,0,0,1,.018-4.321c.109-.683-.089-.873-.723-.861a3.08,3.08,0,0,0-3,3.018A3.022,3.022,0,0,0,4423.532,3218.19Z" transform="translate(-4409.003 -3191.431)"/>
            <path id="Trazado_121708" data-name="Trazado 121708" d="M4455.155,3197.72a11.707,11.707,0,0,0-3.3,5.85,10.7,10.7,0,0,0-.06,4.3.605.605,0,0,1-.384.785,22.765,22.765,0,0,1-12.2,2.5,23.843,23.843,0,0,1-3.844-.553c-.528-.121-.96-.061-1.087.522-.131.6.292.818.794.921a2.827,2.827,0,0,0,.36.066c.448.033.544.244.331.624-.011.021-.012.047-.022.07a3.412,3.412,0,0,1-.426,1.227c-.277.308-.772-.069-1.182,0-.38.063-.935.248-1.114.073-.292-.286-.1-.832-.092-1.267a16.049,16.049,0,0,1,14.264-15.469,16.265,16.265,0,0,1,3.808.032c.511.065.932-.022,1.1-.588A15.606,15.606,0,0,1,4455.155,3197.72Z" transform="translate(-4419.669 -3194.8)" fill="#fd8a01"/>
            <path id="Trazado_121709" data-name="Trazado 121709" d="M4398.259,3331.642c.286-.491.038-.838-.384-1.234a.662.662,0,0,1,.5-1.116c.44-.033.724-.112.839-.584a.625.625,0,0,1,.656-.484.644.644,0,0,1,.665.479c.113.408.307.616.768.575a.644.644,0,0,1,.683.453.665.665,0,0,1-.255.842.67.67,0,0,0-.283.927.645.645,0,0,1-.252.777.611.611,0,0,1-.813.01.727.727,0,0,0-1.023-.007A.7.7,0,0,1,4398.259,3331.642Z" transform="translate(-4397.682 -3276.941)" fill="#fd8a01"/>
            <path id="Trazado_121710" data-name="Trazado 121710" d="M4538.88,3243.809a.664.664,0,0,1-.661-.378.649.649,0,0,1,.078-.759c.438-.461.88-.92,1.348-1.351a.638.638,0,0,1,.93.017c.448.416.887.845,1.294,1.3a.648.648,0,0,1-.045.982.63.63,0,0,1-.979-.027c-.545-.7-1.007-.654-1.5.023A.585.585,0,0,1,4538.88,3243.809Z" transform="translate(-4485.479 -3222.497)" fill="#fd8a01"/>
            <path id="Trazado_121711" data-name="Trazado 121711" d="M4535.193,3258.747a.827.827,0,0,1-.172-.134c-.5-.672-.976-.815-1.561-.053a.6.6,0,0,1-.947.09.775.775,0,0,1-.058-1.167c.362-.39.733-.771,1.1-1.157a.869.869,0,0,1,1.391.092c.292.325.615.623.927.93.275.272.484.577.284.969A.742.742,0,0,1,4535.193,3258.747Z" transform="translate(-4481.78 -3231.807)" fill="#8282fe"/>
            <path id="Trazado_121712" data-name="Trazado 121712" d="M4534.974,3371.686c-.094.054-.189.107-.285.159l-.031-.039.266-.177Z" transform="translate(-4483.307 -3304.074)" fill="#fdc498"/>
            <path id="Trazado_121713" data-name="Trazado 121713" d="M4411.059,3316.1a.712.712,0,0,1-1.045.653,2,2,0,0,1-.548-.476c-.276-.335-.508-.3-.762.017a2.332,2.332,0,0,1-.365.356.7.7,0,0,1-.984-1c.413-.449.85-.877,1.295-1.293a.562.562,0,0,1,.741-.09,7.284,7.284,0,0,1,1.593,1.592A.7.7,0,0,1,4411.059,3316.1Z" transform="translate(-4403.593 -3268.151)" fill="#fd8a01"/>
            <path id="Trazado_121714" data-name="Trazado 121714" d="M4512.92,3326.413l-.266.177c-.553.073-.953-.089-1.055-.7-.012-3.548.3-7.116-.155-10.639a17.516,17.516,0,0,0-8.7-13.183,14.523,14.523,0,0,0-2.576-1.239c-.488-.179-.8-.471-.682-1.045.273-.681.769-.515,1.26-.323a18.929,18.929,0,0,1,7.2,4.918,19.28,19.28,0,0,1,5.16,13.324c0,.758.013,1.516.022,2.274-.009,1.817-.021,3.634-.022,5.45A1.865,1.865,0,0,1,4512.92,3326.413Z" transform="translate(-4461.301 -3258.857)"/>
            <path id="Trazado_121715" data-name="Trazado 121715" d="M4541.363,3320.627c.277-.467-.026-.757-.38-1.108a.729.729,0,0,1,.511-1.238c.407-.047.674-.121.791-.556a.7.7,0,0,1,.728-.506.721.721,0,0,1,.707.546.606.606,0,0,0,.679.5.789.789,0,0,1,.778.564.719.719,0,0,1-.349.878.532.532,0,0,0-.236.74.73.73,0,0,1-.262.9.764.764,0,0,1-.988.052.722.722,0,0,0-.917,0C4541.874,3321.719,4541.347,3321.332,4541.363,3320.627Z" transform="translate(-4487.125 -3270.062)" fill="#8282fe"/>
            <path id="Trazado_121716" data-name="Trazado 121716" d="M4464.226,3238.258a16.7,16.7,0,0,0,2.7.66.38.38,0,0,1,.395.412c.427,5.556-2.005,11.335-6.815,14.218a11.317,11.317,0,0,1-14.519-2.362c-3.93-4.443-4.823-9.625-3.311-15.289a8.108,8.108,0,0,0,3.189.006,20.777,20.777,0,0,0,5.8-1.624,32.621,32.621,0,0,0,5.332-1.887c.986-.5,1.007-.489,1.49.506a12.712,12.712,0,0,0,2.651,3.457,7.129,7.129,0,0,0-3.3.445c-.434.168-.712.467-.529.963a.713.713,0,0,0,1.015.429c.139-.046.276-.1.417-.138a4.013,4.013,0,0,1,3.995.9c.3.278.56.658,1.061.432S4464.276,3238.709,4464.226,3238.258Zm-14.88-1.91a5.25,5.25,0,0,0-3.97,1.747.732.732,0,0,0-.056,1.108.67.67,0,0,0,1.043-.01,3.927,3.927,0,0,1,4.613-1.019c.487.181.888.09,1.069-.431.171-.5-.119-.788-.555-.95A5.891,5.891,0,0,0,4449.345,3236.348Zm-.4,6.037c-.006.844.316,1.3.931,1.313.6.011.956-.434.967-1.2.014-.914-.3-1.344-.968-1.333C4449.252,3241.171,4448.951,3241.568,4448.944,3242.385Zm11.456.063c0-.869-.3-1.283-.939-1.287s-.958.408-.958,1.27c0,.825.357,1.287.979,1.267C4460.073,3243.68,4460.4,3243.24,4460.4,3242.448Z" transform="translate(-4425.372 -3216.834)" fill="#fdc498"/>
            <path id="Trazado_121717" data-name="Trazado 121717" d="M4496.461,3195.466a9.584,9.584,0,1,1-9.6,9.555A9.63,9.63,0,0,1,4496.461,3195.466Zm-1.4,6.233.014-.014a7.837,7.837,0,0,0-5.341,3.1c-.185.22-.118.393.036.58a8.069,8.069,0,0,0,5.432,3.112,4.168,4.168,0,0,0,2.38.011,8.048,8.048,0,0,0,5.572-3.165.347.347,0,0,0,.018-.512,7.837,7.837,0,0,0-5.343-3.13,5.045,5.045,0,0,0-2.41-.1C4495.285,3201.571,4495.139,3201.53,4495.064,3201.7Z" transform="translate(-4453.427 -3193.953)" fill="#fd8a01"/>
            <path id="Trazado_121718" data-name="Trazado 121718" d="M4473.134,3300.37a4.059,4.059,0,0,1-8.1,0A12.464,12.464,0,0,0,4473.134,3300.37Z" transform="translate(-4439.782 -3259.528)" fill="#fdc498"/>
            <path id="Trazado_121719" data-name="Trazado 121719" d="M4431.494,3252.727a3.023,3.023,0,0,1-2.966-3.026,3.081,3.081,0,0,1,3-3.019c.634-.011.832.179.723.862a15.564,15.564,0,0,0-.019,4.321C4432.336,3252.722,4432.336,3252.739,4431.494,3252.727Z" transform="translate(-4416.964 -3225.969)" fill="#fdc498"/>
            <path id="Trazado_121720" data-name="Trazado 121720" d="M4473.041,3297.688a12.467,12.467,0,0,1-8.1,0c-.138-1.627-.134-1.64,1.365-1.308a12.557,12.557,0,0,0,6.085-.168c.187-.05.376-.09.563-.132.021-.005.048.01.09.019Z" transform="translate(-4439.689 -3256.848)" fill="#fd8a01"/>
            <path id="Trazado_121721" data-name="Trazado 121721" d="M4489.691,3245.35c.051.451.08.9-.433,1.13s-.756-.154-1.06-.431a4.014,4.014,0,0,0-3.995-.9c-.142.038-.278.092-.418.138a.712.712,0,0,1-1.014-.43c-.183-.5.094-.794.528-.962a7.129,7.129,0,0,1,3.3-.445l0,0,.13.1a15.28,15.28,0,0,0,2.851,1.729l.122.081Z" transform="translate(-4450.837 -3223.926)" fill="#fd8a01"/>
            <path id="Trazado_121722" data-name="Trazado 121722" d="M4513.412,3252.417c0-.8-.309-1.848.082-2.331.377-.466,1.486-.308,2.251-.51a.567.567,0,0,1,.761.311,2.676,2.676,0,0,1,.428,1.8A10.383,10.383,0,0,1,4513.412,3252.417Z" transform="translate(-4469.953 -3227.753)" fill="#fd8a01"/>
            <path id="Trazado_121723" data-name="Trazado 121723" d="M4452.825,3237.966a20.8,20.8,0,0,1-5.8,1.625,8.14,8.14,0,0,1-3.188-.006c.371-1.407.371-1.413,1.766-1.272a24.353,24.353,0,0,0,6.5-.293A7.259,7.259,0,0,1,4452.825,3237.966Z" transform="translate(-4426.533 -3220.521)" fill="#fd8a01"/>
            <path id="Trazado_121724" data-name="Trazado 121724" d="M4513.286,3256a10.374,10.374,0,0,0,3.522-.732,2.956,2.956,0,0,1-3.291,2.817c-.343-.041-.465-.146-.413-.5C4513.184,3257.063,4513.227,3256.531,4513.286,3256Z" transform="translate(-4469.826 -3231.336)" fill="#fdc498"/>
            <path id="Trazado_121725" data-name="Trazado 121725" d="M4501.146,3248.455l-.122-.081Z" transform="translate(-4462.282 -3227.027)" fill="#fdc498"/>
            <path id="Trazado_121726" data-name="Trazado 121726" d="M4493.2,3243.6l-.13-.1Z" transform="translate(-4457.313 -3223.977)" fill="#fdc498"/>
            <path id="Trazado_121727" data-name="Trazado 121727" d="M4454.535,3243.483a5.884,5.884,0,0,1,2.145.446c.434.163.725.453.554.95-.18.521-.581.611-1.068.431a3.926,3.926,0,0,0-4.613,1.019.67.67,0,0,1-1.043.009.732.732,0,0,1,.057-1.107A5.249,5.249,0,0,1,4454.535,3243.483Z" transform="translate(-4430.561 -3223.97)" fill="#fd8a01"/>
            <path id="Trazado_121728" data-name="Trazado 121728" d="M4460.562,3257.546c.005-.817.308-1.215.929-1.224.67-.01.983.419.969,1.333-.013.77-.369,1.216-.967,1.2C4460.878,3258.847,4460.555,3258.391,4460.562,3257.546Z" transform="translate(-4436.989 -3231.994)"/>
            <path id="Trazado_121729" data-name="Trazado 121729" d="M4487.956,3257.608c0,.792-.328,1.23-.92,1.25-.621.019-.975-.441-.978-1.267,0-.862.311-1.275.958-1.271S4487.959,3256.74,4487.956,3257.608Z" transform="translate(-4452.926 -3231.994)"/>
            <path id="Trazado_121730" data-name="Trazado 121730" d="M4507.628,3218.5a4.166,4.166,0,0,1-2.379-.012c-.183-.112-.36-.229-.546-.336a3.584,3.584,0,0,1-1.482-4.507,4.481,4.481,0,0,1,1.9-1.949l-.014.014c.121-.035.275.03.357-.122a5.044,5.044,0,0,1,2.411.1,4.525,4.525,0,0,1,1.926,2.03C4510.545,3215.6,4509.726,3217.41,4507.628,3218.5Z" transform="translate(-4463.471 -3203.965)"/>
            <path id="Trazado_121731" data-name="Trazado 121731" d="M4515.467,3218.854c2.1-1.092,2.916-2.9,2.172-4.778a4.53,4.53,0,0,0-1.926-2.03,7.837,7.837,0,0,1,5.342,3.129.347.347,0,0,1-.017.512A8.051,8.051,0,0,1,4515.467,3218.854Z" transform="translate(-4471.31 -3204.318)" fill="#fefefe"/>
            <path id="Trazado_121732" data-name="Trazado 121732" d="M4499.688,3212.055a4.484,4.484,0,0,0-1.9,1.949,3.583,3.583,0,0,0,1.482,4.507c.186.107.364.225.546.336a8.059,8.059,0,0,1-5.431-3.112c-.155-.187-.223-.361-.037-.58A7.84,7.84,0,0,1,4499.688,3212.055Z" transform="translate(-4458.038 -3204.323)" fill="#fefefe"/>
            <path id="Trazado_121733" data-name="Trazado 121733" d="M4509.1,3211.753c-.082.151-.237.086-.358.121C4508.816,3211.7,4508.963,3211.746,4509.1,3211.753Z" transform="translate(-4467.104 -3204.129)" fill="#fefefe"/>
          </g>
        </g>
        <g id="Grupo_88357" data-name="Grupo 88357" transform="translate(22.625 66.947)">
          <path id="Trazado_121734" data-name="Trazado 121734" d="M4386.572,3392.043a1.168,1.168,0,0,1-.284-.812c0-1.3,1.3-3.208,2.679-5.115,1.665-2.273,3.532-4.466,4.749-4.466a.859.859,0,0,1,.528.2c2.517,2.192,7.875,4.953,12.382,4.953,5.074,0,7.185-1.665,7.185-3.735,0-2.4-3.41-3.856-7.47-5.562-7.145-2.922-17.537-7.267-17.537-17.984,0-9.905,8.444-17.212,21.231-17.212,7.591,0,14.371,2.6,18.268,5.967a1.237,1.237,0,0,1,.325.974c0,1.3-1.1,3.451-2.273,5.237-1.583,2.476-3.45,4.993-4.993,4.993a1.464,1.464,0,0,1-.812-.244,19.155,19.155,0,0,0-10.514-3.37c-4.344,0-6.13,1.38-6.13,3.289,0,2.029,3.044,3.207,6.779,4.75,7.227,2.923,18.269,7.388,18.269,19.161,0,9.906-9.784,17.131-22.327,17.131C4398.914,3400.2,4390.916,3397.036,4386.572,3392.043Z" transform="translate(-4386.289 -3342.151)"/>
          <path id="Trazado_121735" data-name="Trazado 121735" d="M4597.648,3400.751v-41.407h-14.9c-1.624,0-1.624-3.369-1.624-6.779,0-3.37,0-6.7,1.665-6.7h43.681c1.664,0,1.664,3.329,1.664,6.7,0,3.41,0,6.779-1.664,6.779h-14.9v41.367c0,1.705-3.491,1.705-6.982,1.705C4601.139,3402.415,4597.648,3402.415,4597.648,3400.751Z" transform="translate(-4534.359 -3344.851)"/>
          <path id="Trazado_121736" data-name="Trazado 121736" d="M4808.774,3400.873v-53.83a1.1,1.1,0,0,1,1.1-1.136l37.022-.041c1.746,0,1.786,3.329,1.786,6.7,0,3.41-.041,6.779-1.786,6.779H4822.7v7.835h20.013c1.665,0,1.706,2.963,1.706,5.886,0,2.964-.041,5.927-1.706,5.927H4822.7v9.58l24.154-.04c1.786,0,1.826,3.369,1.826,6.779,0,3.329-.041,6.739-1.786,6.739H4809.87A1.163,1.163,0,0,1,4808.774,3400.873Z" transform="translate(-4707.366 -3344.851)"/>
          <path id="Trazado_121737" data-name="Trazado 121737" d="M4991.266,3397.5a.9.9,0,0,1,.041-.325l12.95-54.519c.244-1.015,1.258-1.015,2.273-1.015,1.055,0,2.03,0,2.517.73l19,33.573,19-33.573c.446-.73,1.461-.73,2.476-.73,1.056,0,2.03.041,2.274,1.015l12.949,54.519a.886.886,0,0,1,.041.325c0,1.624-3.532,1.624-7.1,1.624-3.775,0-7.51,0-7.875-1.461l-5.684-26.387-13.965,26.834c-.405.771-1.259.771-2.111.771-.893,0-1.746,0-2.192-.771l-13.884-26.834-5.683,26.387c-.406,1.461-4.141,1.461-7.916,1.461C4994.8,3399.12,4991.266,3399.12,4991.266,3397.5Z" transform="translate(-4846.056 -3341.637)"/>
        </g>
        <g id="Grupo_88358" data-name="Grupo 88358" transform="translate(211.659 47.926)">
          <path id="Trazado_121738" data-name="Trazado 121738" d="M5319.627,3430.215c-.223-.48-.376-.994-.565-1.49a3.206,3.206,0,0,0-3.246-2.268c-.83-.007-1.66-.021-2.489.008a.608.608,0,0,1-.684-.469c-.431-1.1-.9-2.186-1.374-3.266-.166-.372-.159-.559.266-.754,1.233-.57,2.441-1.193,3.652-1.81a2.98,2.98,0,0,0,1.578-4.049q-1.761-4.733-3.519-9.466c-.661-1.771-1.307-3.548-2-5.309a3.014,3.014,0,0,0-3.9-1.723c-1.262.592-2.551,1.132-3.83,1.691-.1.042-.2.139-.317.071a1.96,1.96,0,0,1-.253-1.6q1.052-1.243,2.111-2.483a11.409,11.409,0,0,0,2.65-5.591,1.831,1.831,0,0,1,.425-.893c.871-1.047,1.738-2.1,2.582-3.171a5.152,5.152,0,0,0,.462-5.924,5.078,5.078,0,0,0-5.364-2.541c-.3.046-.437,0-.5-.294a3.114,3.114,0,0,0-2.371-2.431h-1.067c-.025.029-.045.07-.077.081q-6.062,2.176-12.123,4.347-4.419,1.586-8.837,3.18a2.9,2.9,0,0,0-1.966,3.8,6.387,6.387,0,0,0,.36,1c.139.3.073.418-.212.585a5.417,5.417,0,0,0-2.7,5.711,5.532,5.532,0,0,0,4.812,4.484c1.079.134,2.16.249,3.241.351a4.643,4.643,0,0,1,2.322.738,10.823,10.823,0,0,0,3.463,1.474,16.45,16.45,0,0,0,4.1.5c1.018,0,1.3.549,1.539,1.313a.359.359,0,0,1-.16.482,2.931,2.931,0,0,0-1.13,1.88c-.188.928-.408,1.85-.567,2.783a.766.766,0,0,1-.557.657q-11.2,4.529-22.384,9.083c-.364.148-.855.207-1.052.479-.218.3.21.7.258,1.08.005.039.014.078.021.117.136.753.261.823.982.554.11-.041.219-.088.329-.133q6.026-2.408,12.051-4.817c.61-.245.615-.241.824.384.942,2.81,1.873,5.623,2.813,8.434.224.668.223.676-.448.957-5.265,2.2-10.546,4.369-15.815,6.563a1.765,1.765,0,0,0-.786.5c-.261.055-.377.163-.219.446a3.873,3.873,0,0,1,.356.809c.155.553.4.632.949.4q13.6-5.672,27.211-11.3a1.159,1.159,0,0,1,.619-.146c1.429.185,2.859.364,4.29.524a.523.523,0,0,1,.524.43q.737,2.338,1.53,4.659a.529.529,0,0,1-.172.658c-.611.559-1.2,1.147-1.8,1.719a2.964,2.964,0,0,0-.848,3.828,12.362,12.362,0,0,1,.794,2.144h.237c.032-.123.148-.112.233-.145q2.829-1.115,5.659-2.228c3.246-1.271,6.488-2.548,9.741-3.8C5319.759,3430.835,5319.825,3430.643,5319.627,3430.215Zm-13.109-49.053a3.181,3.181,0,0,1,3.035,4.664,20.258,20.258,0,0,1-1.529,2.045,32.26,32.26,0,0,0-1.777-6.387C5306.136,3381.141,5306.322,3381.171,5306.518,3381.162Zm-25.788,16.4a3.227,3.227,0,0,1-2.408-2.91,3.277,3.277,0,0,1,1.469-3.214c.273-.2.393-.194.54.157a39.137,39.137,0,0,0,1.972,4.484c.354.611.75,1.2,1.147,1.827A19.505,19.505,0,0,1,5280.729,3397.562Z" transform="translate(-5269.895 -3376.452)"/>
          <path id="Trazado_121739" data-name="Trazado 121739" d="M5418.239,3452.566c0,.915,0,.915-.884,1.082a4.877,4.877,0,0,0-4.033,4.978c-.016.849-.016.849-.843.849-1.1,0-1.1,0-1.128-1.074a4.838,4.838,0,0,0-4.5-4.791c-.325-.026-.479-.108-.43-.445a.875.875,0,0,0,0-.119,3.08,3.08,0,0,1,.045-1.285c.195-.378.774-.2,1.179-.3a4.925,4.925,0,0,0,3.705-4.78c.018-.994.018-.994.979-.994s.964,0,.991.937a4.827,4.827,0,0,0,4.579,4.951c.306.031.358.138.34.394C5418.227,3452.17,5418.239,3452.369,5418.239,3452.566Z" transform="translate(-5358.856 -3421.585)"/>
          <path id="Trazado_121740" data-name="Trazado 121740" d="M5406.938,3395.955a.739.739,0,0,0,0,.119c.116.64-.08.862-.795.952a4.8,4.8,0,0,0-4.138,4.749,5.58,5.58,0,0,0,0,.711c.021.29-.1.381-.376.369-.474-.02-1.037.149-1.4-.052-.428-.237-.141-.855-.189-1.3a4.851,4.851,0,0,0-4.521-4.529c-.288-.025-.431-.076-.414-.4a4.39,4.39,0,0,1,.047-1.407c.2-.46.829-.225,1.26-.343a4.94,4.94,0,0,0,3.629-4.6,4.118,4.118,0,0,0,0-.711c-.041-.373.1-.484.466-.458.453.033,1-.144,1.338.057.392.235.119.835.165,1.271a4.847,4.847,0,0,0,4.546,4.567c.317.028.413.123.382.421C5406.921,3395.559,5406.938,3395.758,5406.938,3395.955Z" transform="translate(-5351.483 -3384.635)"/>
          <path id="Trazado_121741" data-name="Trazado 121741" d="M5270.781,3494.278c.16.62.482.608,1.028.387,4.183-1.7,8.383-3.367,12.573-5.054.343-.138.5-.122.626.273q1.5,4.583,3.057,9.149c.137.4-.019.509-.333.638q-5.963,2.459-11.922,4.932-2.54,1.053-5.08,2.117c.01-1.3.026-2.606.031-3.91Q5270.777,3498.545,5270.781,3494.278Z" transform="translate(-5270.44 -3450.16)" fill="#4a4a56"/>
          <path id="Trazado_121742" data-name="Trazado 121742" d="M5276.7,3445.693c.917,0,.917,0,.932.924a4.872,4.872,0,0,0,4.579,4.964c.277.029.4.1.361.379a1.439,1.439,0,0,0,0,.178,3.219,3.219,0,0,1-.047,1.286c-.2.4-.78.187-1.186.289a4.943,4.943,0,0,0-3.707,4.9c-.011.862-.011.862-.866.862-1.042,0-1.042,0-1.089-1.007a4.829,4.829,0,0,0-4.552-4.858c-.316-.029-.4-.131-.385-.427a4.116,4.116,0,0,1,.049-1.4c.188-.406.8-.208,1.213-.316a4.941,4.941,0,0,0,3.677-4.805C5275.714,3445.693,5275.714,3445.693,5276.7,3445.693Z" transform="translate(-5270.419 -3421.585)"/>
          <path id="Trazado_121743" data-name="Trazado 121743" d="M5326.486,3392.921a10.84,10.84,0,0,1-2.631,7.176c-.91,1.067-1.818,2.136-2.749,3.185a.6.6,0,0,0-.137.731c.223.525.388,1.077.616,1.6.129.3.054.409-.227.521-.952.379-1.9.767-2.835,1.188-.322.146-.409.017-.506-.237-.208-.553-.451-1.094-.64-1.654a.672.672,0,0,0-.687-.5,39.635,39.635,0,0,1-5-.526,10.536,10.536,0,0,1-7.9-6.644c-.837-2.064-1.637-4.143-2.448-6.218-.351-.9-.158-1.318.74-1.641q10.1-3.636,20.2-7.268c.892-.321,1.295-.143,1.582.744.788,2.437,1.706,4.833,2.366,7.311A10.984,10.984,0,0,1,5326.486,3392.921Z" transform="translate(-5290.284 -3380.385)" fill="#f1a235"/>
          <path id="Trazado_121744" data-name="Trazado 121744" d="M5354.924,3468.324c-2.118-.245-4.234-.5-6.354-.729-.367-.041-.357-.332-.432-.552-1-2.969-1.89-5.979-3.014-8.9-.589-1.529-.109-2.888.051-4.331a2.1,2.1,0,0,1,1.515-1.865c3.316-1.362,6.6-2.8,9.9-4.214,1.023-.438,1.455-.275,1.818.745.194.546.728,1.186.491,1.61-.206.37-1.009.409-1.55.588-.916.3-1.831.618-2.754.9-.3.092-.354.22-.277.509.4,1.516.4,1.52,1.868,1.051,1.014-.325,2.029-.644,3.034-.994.311-.109.448-.078.562.255.275.8.581,1.591.9,2.376.128.319.046.421-.273.523-1.275.409-2.536.866-3.812,1.278-.338.109-.428.24-.288.576.187.452.2,1.125.525,1.33s.9-.211,1.361-.358c.994-.318,1.99-.636,2.972-.988.286-.1.378-.033.469.219.292.816.586,1.632.914,2.434.143.35-.013.443-.3.533-1.2.38-2.4.784-3.6,1.154-.365.113-.5.218-.357.65.464,1.4.44,1.406,1.829.933.951-.324,1.906-.637,2.849-.982.317-.115.442-.035.566.265.641,1.573.605,1.683-.915,2.431q-3.369,1.659-6.733,3.326A1.594,1.594,0,0,1,5354.924,3468.324Z" transform="translate(-5318.746 -3422.766)" fill="#edcbbf"/>
          <path id="Trazado_121745" data-name="Trazado 121745" d="M5328.072,3487.633c.014.174-.137.2-.26.255q-3.653,1.536-7.305,3.075c-.3.127-.4.052-.5-.248q-1.524-4.635-3.086-9.257c-.117-.345-.006-.456.279-.557a11.826,11.826,0,0,0,1.375-.539c.4-.2.52-.089.646.3.692,2.158,1.422,4.3,2.115,6.463.132.413.259.561.728.4,1.328-.462,1.335-.438.887-1.781-.656-1.963-1.3-3.93-1.973-5.886-.127-.368-.056-.515.3-.649,1.033-.391,2.055-.808,3.074-1.232.287-.119.439-.123.555.224,1.019,3.069,2.056,6.132,3.086,9.2C5328.021,3487.469,5328.043,3487.544,5328.072,3487.633Z" transform="translate(-5300.521 -3442.579)" fill="#676b7d"/>
          <path id="Trazado_121746" data-name="Trazado 121746" d="M5368.566,3530.862a1.166,1.166,0,0,1,.39-.8q1.491-1.4,2.975-2.808a1.386,1.386,0,0,1,.564-.306c1.183-.379,2.365-.76,3.541-1.16a5.018,5.018,0,0,1,1.585-.107c.83-.015,1.66,0,2.49-.006a1.116,1.116,0,0,1,.986.436c.377.516.308.75-.275.984q-5.656,2.272-11.312,4.541C5368.874,3531.9,5368.56,3531.672,5368.566,3530.862Z" transform="translate(-5334.211 -3473.718)" fill="#e5812d"/>
          <path id="Trazado_121747" data-name="Trazado 121747" d="M5378.344,3513.89c.049.17-.114.182-.237.224-.988.332-1.979.651-2.961,1-.244.086-.318-.009-.382-.2-.355-1.042-.714-2.083-1.066-3.127-.041-.121-.118-.305.121-.293a5.313,5.313,0,0,0,2.521-.91c.418-.2.561-.112.721.287.37.931.789,1.844,1.186,2.764C5378.276,3513.707,5378.3,3513.781,5378.344,3513.89Z" transform="translate(-5337.526 -3463.815)" fill="#f1a235"/>
          <path id="Trazado_121748" data-name="Trazado 121748" d="M5419.075,3458.753a2.353,2.353,0,0,1,.009,4.707,7.146,7.146,0,0,0-2.361-2.354A7.267,7.267,0,0,0,5419.075,3458.753Z" transform="translate(-5365.601 -3430.097)" fill="#f2bf6d"/>
          <path id="Trazado_121749" data-name="Trazado 121749" d="M5405.454,3404.584a7.473,7.473,0,0,0,2.335-2.339,7.559,7.559,0,0,0,2.35,2.331,7.217,7.217,0,0,0-2.186,2.125c-.143.225-.222.142-.329-.021A7.083,7.083,0,0,0,5405.454,3404.584Z" transform="translate(-5358.255 -3393.265)" fill="#f2bf6d"/>
          <path id="Trazado_121750" data-name="Trazado 121750" d="M5285.768,3461.09a7.849,7.849,0,0,0-1.316,1.054c-.355.391-.681.808-1.053,1.254a7.319,7.319,0,0,0-2.319-2.287,7.409,7.409,0,0,0,2.332-2.358A7.331,7.331,0,0,0,5285.768,3461.09Z" transform="translate(-5277.185 -3430.097)" fill="#f2bf6d"/>
          <path id="Trazado_121751" data-name="Trazado 121751" d="M5355.4,3398.479a13.2,13.2,0,0,0-1.844-6.225c-.173-.307-.2-.458.138-.628.455-.227.86-.8,1.3-.719.4.076.514.763.717,1.191,1.488,3.1,2.307,6.3,1.1,9.707a8.155,8.155,0,0,1-1.668,2.7c-.194.217-.314.226-.51.009-.316-.351-.812-.622-.956-1.026-.167-.465.447-.738.682-1.122A7.008,7.008,0,0,0,5355.4,3398.479Z" transform="translate(-5324.347 -3385.869)"/>
        </g>
        <g id="Grupo_88359" data-name="Grupo 88359" transform="translate(65.752 66.947)">
          <path id="Trazado_121752" data-name="Trazado 121752" d="M4635.593,3436.753a.848.848,0,0,1-.28-1.208,15.384,15.384,0,1,1,24.715,17.707,16.263,16.263,0,0,0-1.652,1.974,5.087,5.087,0,0,0-.926,3c.025,1.495,0,2.99.016,4.486a3.974,3.974,0,0,1-1.717,3.447c-.34.243-.245.534-.243.819a3.854,3.854,0,0,1-2.266,3.733,7.816,7.816,0,0,1-1.05.358H4646.1c-.062-.165-.231-.127-.349-.166a3.814,3.814,0,0,1-2.741-3.752,1.372,1.372,0,0,0-.563-1.244,3.754,3.754,0,0,1-1.414-3.019c-.019-1.461-.066-2.921-.05-4.382a5.4,5.4,0,0,0-1.228-3.467c-.706-.913-1.569-1.684-2.3-2.573a15.579,15.579,0,0,1-3.421-13,.81.81,0,0,1,.735-.744c.7-.053,1.051.316.922,1.1a16.442,16.442,0,0,0-.173,3.081,13.444,13.444,0,0,0,3.419,8.683c.672.782,1.44,1.473,2.066,2.3a7.986,7.986,0,0,1,1.417,2.611.633.633,0,0,0,.714.507c4.071.008,8.143,0,12.213,0a.62.62,0,0,0,.395-.081.574.574,0,0,0,.176-.308,9.311,9.311,0,0,1,2.535-4.123,14.136,14.136,0,0,0,3.531-5.628,13.745,13.745,0,0,0-2.647-13.587,13.153,13.153,0,0,0-9.1-4.7,14.08,14.08,0,0,0-4.593.4,13.627,13.627,0,0,0-5.21,2.7,14.293,14.293,0,0,0-3.607,4.572C4636.463,3436.933,4636.133,3437.066,4635.593,3436.753Z" transform="translate(-4623.401 -3418.231)"/>
          <path id="Trazado_121753" data-name="Trazado 121753" d="M4680.912,3399.618a1.279,1.279,0,0,1,.481,1.159c-.02,1.5-.006,2.992-.01,4.488a2.293,2.293,0,0,1-.048.562.707.707,0,0,1-.758.568.7.7,0,0,1-.708-.568,2.569,2.569,0,0,1-.047-.562c0-1.5.01-2.992-.009-4.488a1.276,1.276,0,0,1,.479-1.159Z" transform="translate(-4654.911 -3399.618)" fill="#020201"/>
          <path id="Trazado_121754" data-name="Trazado 121754" d="M4658.06,3461.512c-.15.126-.329.065-.494.065-4.159,0-8.317-.007-12.475.008-.4,0-.563-.1-.66-.492a8,8,0,0,0-2.215-3.6,17.1,17.1,0,0,1-3.41-4.616,14.192,14.192,0,0,1-1.13-8.489c.131-.79-.051-1.088-.772-1.205.184-.057.236-.208.289-.371.174-.533.356-1.064.536-1.6.678.125.84.029,1.19-.66a13.763,13.763,0,0,1,8.506-7.17,2.5,2.5,0,0,1,.3-.055c-.037.316-.325.385-.536.5a14.829,14.829,0,0,0-6.121,6.17,13.727,13.727,0,0,0-1.58,5.247,14.813,14.813,0,0,0,2.625,10.108,30.171,30.171,0,0,0,2.4,2.763,8.7,8.7,0,0,1,1.817,2.85c.139.4.424.386.74.386q5.082,0,10.163,0C4657.51,3461.361,4657.819,3461.27,4658.06,3461.512Z" transform="translate(-4625.536 -3422.698)" fill="#f7a32f"/>
          <path id="Trazado_121755" data-name="Trazado 121755" d="M4604.3,3480.173c-.824,0-1.65.006-2.476,0-.611-.006-.95-.292-.953-.775s.331-.775.944-.777q2.449-.009,4.9,0c.585,0,.952.325.936.792-.014.451-.366.751-.927.759C4605.916,3480.181,4605.108,3480.173,4604.3,3480.173Z" transform="translate(-4600.872 -3453.694)" fill="#010101"/>
          <path id="Trazado_121756" data-name="Trazado 121756" d="M4745.636,3478.617c.825,0,1.651-.006,2.476,0,.607.006.944.3.933.789-.012.466-.341.759-.915.762q-2.476.013-4.952,0a.814.814,0,0,1-.916-.77c-.007-.468.359-.776.949-.781C4744.02,3478.612,4744.828,3478.617,4745.636,3478.617Z" transform="translate(-4697.66 -3453.694)" fill="#010101"/>
          <path id="Trazado_121757" data-name="Trazado 121757" d="M4629.256,3427.263a.768.768,0,0,1-.467.681.759.759,0,0,1-.894-.2q-.8-.8-1.6-1.6c-.657-.657-1.315-1.309-1.967-1.971a.781.781,0,1,1,1.1-1.086c1.171,1.162,2.334,2.332,3.5,3.5A.956.956,0,0,1,4629.256,3427.263Z" transform="translate(-4616.711 -3415.466)"/>
          <path id="Trazado_121758" data-name="Trazado 121758" d="M4724.752,3428.021a.778.778,0,0,1-.689-.466.737.737,0,0,1,.158-.857c.517-.528,1.042-1.047,1.565-1.571.669-.668,1.334-1.339,2.006-2,.423-.418.883-.459,1.219-.123s.293.8-.125,1.22c-1.152,1.157-2.311,2.309-3.462,3.466A.977.977,0,0,1,4724.752,3428.021Z" transform="translate(-4685.151 -3415.47)"/>
          <path id="Trazado_121759" data-name="Trazado 121759" d="M4629.256,3523.521a.913.913,0,0,1-.292.627c-1.192,1.188-2.378,2.384-3.575,3.569a.777.777,0,1,1-1.108-1.08c1.2-1.208,2.4-2.407,3.607-3.611a.782.782,0,0,1,1.368.494Z" transform="translate(-4616.711 -3483.914)"/>
          <path id="Trazado_121760" data-name="Trazado 121760" d="M4729.227,3527.171a.714.714,0,0,1-.416.732.772.772,0,0,1-.941-.18q-1.072-1.077-2.149-2.152c-.474-.475-.954-.943-1.421-1.422a.775.775,0,0,1-.069-1.181.766.766,0,0,1,1.145.07c1.2,1.185,2.385,2.378,3.576,3.569A.758.758,0,0,1,4729.227,3527.171Z" transform="translate(-4685.15 -3483.903)"/>
          <path id="Trazado_121761" data-name="Trazado 121761" d="M4663.169,3460.389c-3.676-.006-7.352-.022-11.029-.005-.5,0-.723-.1-.892-.615a7.065,7.065,0,0,0-1.65-2.577,19.339,19.339,0,0,1-3.77-5.034,16.1,16.1,0,0,1-1.373-5.019,14.132,14.132,0,0,1,1.427-8.018,14.754,14.754,0,0,1,6.12-6.4c.283-.157.553-.337.829-.506a12.312,12.312,0,0,1,6.513-.153,14.083,14.083,0,0,1,7.132,23.108c-.137.155-.273.31-.417.457A9.907,9.907,0,0,0,4663.169,3460.389Z" transform="translate(-4630.646 -3421.575)" fill="#f8d031"/>
          <path id="Trazado_121762" data-name="Trazado 121762" d="M4666.856,3527.807q5.591-.01,11.18-.023c.293,0,.388.094.38.384-.016.617-.01,1.237.008,1.854.007.272-.091.362-.357.353-.481-.015-.962-.013-1.443,0-.519.013-.8.273-.812.733a.76.76,0,0,0,.8.811,10.469,10.469,0,0,0,1.339,0c.476-.042.509.181.429.55a2.525,2.525,0,0,1-2.412,2.03c-2.627.019-5.254,0-7.882-.006-.8-.287-1-1.015-1.218-1.709a.906.906,0,0,1-.013-.835c1.951-.007,3.9-.018,5.853-.017a.943.943,0,0,0,.891-.4c.292-.463.062-.937-.562-1.167-1.509-.078-3.017-.014-4.525-.033q-.694-.009-1.39,0c-.192,0-.372-.045-.383-.251A4.854,4.854,0,0,1,4666.856,3527.807Z" transform="translate(-4645.91 -3487.353)" fill="#51758b"/>
          <path id="Trazado_121763" data-name="Trazado 121763" d="M4678.581,3556.276a2.224,2.224,0,0,1-2.133,1.744c-1.645.02-3.291.009-4.935,0a1.82,1.82,0,0,1-1.1-.373,3.674,3.674,0,0,1-.412-.588.61.61,0,0,1,.529-.929,2.752,2.752,0,0,1,.412-.02q3.452,0,6.907,0A.946.946,0,0,1,4678.581,3556.276Z" transform="translate(-4648.142 -3506.745)" fill="#51748b"/>
          <path id="Trazado_121764" data-name="Trazado 121764" d="M4677.194,3554.809c-2.576,0-5.152.019-7.727-.009-.818-.009-1.024.218-.583,1.011.065.119.176.215.142.37a2.142,2.142,0,0,1-1.121-1.791c-.027-.294.043-.424.385-.423,2.869.015,5.738.007,8.607.009C4677.355,3553.978,4677.416,3554.148,4677.194,3554.809Z" transform="translate(-4646.755 -3505.277)" fill="#2d5a7d"/>
          <path id="Trazado_121765" data-name="Trazado 121765" d="M4663.44,3527.816c0,.633.025,1.269-.009,1.9-.026.442.1.592.564.584,1.694-.029,3.392-.013,5.087-.009.183,0,.379-.061.543.08q-3.789,0-7.577.014c-.25,0-.38-.055-.375-.341q.025-.954,0-1.908c-.006-.286.127-.348.376-.34C4662.513,3527.813,4662.976,3527.811,4663.44,3527.816Z" transform="translate(-4642.493 -3487.361)" fill="#2d5a7d"/>
          <path id="Trazado_121766" data-name="Trazado 121766" d="M4663.46,3540.9a3.4,3.4,0,0,0,1.23,2.545,2.606,2.606,0,0,1-2.952-1.985c-.09-.379-.074-.636.437-.587C4662.6,3540.909,4663.031,3540.89,4663.46,3540.9Z" transform="translate(-4642.508 -3496.306)" fill="#2d597d"/>
          <path id="Trazado_121767" data-name="Trazado 121767" d="M4668.154,3468.212c.393.545.4.763-.006,1.282-.946,1.222-1.889,2.446-2.845,3.661a2.48,2.48,0,0,1-4,.143c-1.6-1.753-3.2-3.5-4.764-5.281a2.456,2.456,0,0,1,1.448-4.086,2.414,2.414,0,0,1,2.308.854c.842.928,1.692,1.851,2.516,2.8.245.282.361.235.566-.031q2.34-3.042,4.7-6.065a2.39,2.39,0,0,1,2.653-.909,2.435,2.435,0,0,1,1.805,2.147,2.393,2.393,0,0,1-.525,1.781c-.459.6-.933,1.188-1.385,1.794a.876.876,0,0,1-1.2.342.762.762,0,0,1-.236-1.21c.357-.526.769-1.012,1.162-1.512a2.494,2.494,0,0,0,.436-.7.715.715,0,0,0-.248-.874.7.7,0,0,0-.943.02,8.417,8.417,0,0,0-1.155,1.382q-2.136,2.748-4.266,5.5a3.052,3.052,0,0,1-.332.394.891.891,0,0,1-1.369.022c-.6-.545-1.088-1.19-1.64-1.779-.61-.653-1.167-1.354-1.816-1.969-.436-.413-.825-.445-1.175-.106a.814.814,0,0,0,.044,1.194c1.442,1.659,2.964,3.246,4.4,4.911.068.078.145.149.218.22a.888.888,0,0,0,1.521-.081c.944-1.182,1.862-2.384,2.788-3.58a1.029,1.029,0,0,1,.91-.484C4667.9,3468,4668.073,3468.018,4668.154,3468.212Z" transform="translate(-4638.539 -3441.279)"/>
          <path id="Trazado_121768" data-name="Trazado 121768" d="M4671.545,3471.581c-.624-.23-.833-.177-1.239.344-.931,1.192-1.855,2.388-2.786,3.58-.551.708-1.113.739-1.71.081q-2.3-2.539-4.6-5.089a.946.946,0,0,1-.043-1.451.927.927,0,0,1,1.4.192c1.066,1.167,2.121,2.346,3.186,3.515.618.677,1.032.661,1.583-.049l5.119-6.6c.1-.122.187-.248.292-.361a.924.924,0,0,1,1.447,1.148c-.446.61-.923,1.2-1.384,1.8-.422.549-.418.773.005,1.317Z" transform="translate(-4641.932 -3444.647)" fill="#f7a32f"/>
        </g>
        <g id="QuEeu4" transform="translate(108.634 0)">
          <g id="Grupo_88360" data-name="Grupo 88360" transform="translate(0)">
            <path id="Trazado_121769" data-name="Trazado 121769" d="M4783.991,3147.776a1.432,1.432,0,0,1,1.541-1.393,9.279,9.279,0,0,1,1.29-.015.988.988,0,0,1,1.036,1.024.939.939,0,0,1-1.035,1.009c-.76-.061-.753.284-.82.881a5.77,5.77,0,0,0,1.347,4.376c.668.86,1.095,1.667,2.433,1.109a3.473,3.473,0,0,1,2.587.229.424.424,0,0,0,.608-.193q.959-1.441,1.949-2.861a1.675,1.675,0,0,0,.207-1.043c0-.408,0-.816,0-1.224a2.823,2.823,0,0,0-.038-1.075c-.175-.376-.651-.1-.986-.2a.992.992,0,0,1-.826-1.014.926.926,0,0,1,.843-.986,5.532,5.532,0,0,1,1.961.051,1.174,1.174,0,0,1,.993,1,17.519,17.519,0,0,1-.024,4.805,2.932,2.932,0,0,1-.615,1.124c-.593.856-1.173,1.72-1.771,2.573-.171.244-.245.423-.018.7a4.786,4.786,0,0,1,1.108,3.134.836.836,0,0,0,.3.643c1.462,1.454,2.926,2.906,4.372,4.377a.722.722,0,0,0,.835.2,4.023,4.023,0,0,1,1.815-.156c.478.086.521-.115.513-.5a20.434,20.434,0,0,1,.713-6.521,15.336,15.336,0,0,1,1.494-3.405c.47-.782.764-.9,1.619-.635a1.2,1.2,0,0,1,.163,1.688,13.533,13.533,0,0,0-1.889,6.468c-.023.1.012.136.111.109q10.138.01,20.275.018c.861,0,1.722-.016,2.584-.025.905.008,1.811,0,2.715.035.411.017.451-.171.4-.487-.088-.6-.152-1.212-.259-1.813a12.422,12.422,0,0,0-10.756-10.179,13.269,13.269,0,0,0-9.666,2.138c-.58.388-1.111.587-1.721.119-.416-.882-.337-1.222.467-1.772a14.74,14.74,0,0,1,7.063-2.577c.623-.057.8-.245.816-.888a2.006,2.006,0,0,0-1.2-2.246,3.814,3.814,0,0,1-1.664-4.716,4.1,4.1,0,0,1,7.922.7,4.04,4.04,0,0,1-2.405,4.365.834.834,0,0,0-.617.994c.035.519-.164,1.151.068,1.534.251.414.955.22,1.457.311a14.72,14.72,0,0,1,12.567,14.687c.018.726.03,1.452.02,2.177,0,.342.061.489.46.426a4.387,4.387,0,0,1,1.949.177.629.629,0,0,0,.717-.2q2.2-2.226,4.427-4.427a.843.843,0,0,0,.284-.649,4.747,4.747,0,0,1,1.082-3.077.525.525,0,0,0,0-.756c-.655-.923-1.286-1.865-1.927-2.8a2.372,2.372,0,0,1-.489-1.035,20.231,20.231,0,0,1,0-4.544,1.229,1.229,0,0,1,1.177-1.129,10.029,10.029,0,0,1,1.629-.05.979.979,0,0,1,1.01,1.048.921.921,0,0,1-1,.976c-.84-.069-.809.349-.87.981a5.667,5.667,0,0,0,1.261,4.139c.715.948,1.193,1.828,2.636,1.234a3.319,3.319,0,0,1,2.457.236c.316.13.473.055.654-.219.609-.927,1.242-1.839,1.878-2.749a1.253,1.253,0,0,0,.241-.759c-.008-.794-.021-1.588,0-2.382.011-.357-.1-.486-.458-.458a1.885,1.885,0,0,1-.671-.07.926.926,0,0,1-.7-1.03.9.9,0,0,1,.765-.91,5.024,5.024,0,0,1,2.1.053,1.216,1.216,0,0,1,.96,1.117,26.1,26.1,0,0,1-.009,4.484,2.407,2.407,0,0,1-.517,1.095c-.618.895-1.217,1.8-1.853,2.684a.646.646,0,0,0-.008.92,4.925,4.925,0,0,1,.534,5.321,5.014,5.014,0,0,1-4.523,2.979,1.065,1.065,0,0,0-.768.33q-2.706,2.732-5.437,5.439a1.377,1.377,0,0,0-.383.757,5.651,5.651,0,0,1-6.021,4.667c-.526-.028-.581.147-.577.592.019,2.542-.013,5.083.018,7.623a3.243,3.243,0,0,1-1.517,3.06.419.419,0,0,0-.2.5,5.647,5.647,0,0,1-1.153,4.407.859.859,0,0,0-.167.693q.226,1.89.446,3.781c.034.306.126.445.5.468a4.377,4.377,0,0,1,4.511,4.779v1.565a2.524,2.524,0,0,1-1.915,2.875h-12.252c-.016-.107-.1-.128-.186-.167a2.426,2.426,0,0,1-1.489-2.443c.021-.748-.009-1.5.009-2.244a4.212,4.212,0,0,1,2.472-3.91.591.591,0,0,0,.4-.72c-.154-1.1-.279-2.2-.4-3.306a1.068,1.068,0,0,0-.344-.706,5.561,5.561,0,0,1-1.79-4.649c.033-.427-.106-.491-.474-.485-1.065.019-2.132.03-3.2,0-.471-.015-.614.093-.579.592a5.419,5.419,0,0,1-1.871,4.608,1.5,1.5,0,0,0-.543,1.027c-.1.992-.2,1.984-.343,2.97-.052.36.06.5.375.659a4.336,4.336,0,0,1,2.5,4.042c.014.589-.029,1.182.01,1.768a2.662,2.662,0,0,1-1.9,2.966h-12.251a2.949,2.949,0,0,1-1.733-3.263c.038-.4,0-.816.006-1.225a4.407,4.407,0,0,1,4.507-4.731c.389-.021.474-.142.513-.5.138-1.33.314-2.656.49-3.982a1.023,1.023,0,0,0-.191-.756,5.479,5.479,0,0,1-.917-4.071.453.453,0,0,0-.214-.56,3.066,3.066,0,0,1-1.414-2.835c.023-2.609,0-5.218.016-7.828,0-.447-.052-.619-.577-.591a5.651,5.651,0,0,1-6.022-4.666,1.376,1.376,0,0,0-.381-.759q-2.73-2.71-5.437-5.44a1.067,1.067,0,0,0-.769-.327,5.028,5.028,0,0,1-4.527-2.976,4.937,4.937,0,0,1,.571-5.376.572.572,0,0,0,0-.805,27.335,27.335,0,0,1-2.566-4.032v-.136c.134-.05.126-.165.126-.276Zm44.672,16.375a1.017,1.017,0,0,0-.134-.018q-11.191,0-22.38-.016c-.536,0-.506.25-.506.614q.007,9.931,0,19.864c0,1.054.271,1.325,1.32,1.325q7.279,0,14.557,0c2.38,0,4.761-.015,7.142-.023.656.008,1.313.029,1.972.02a1.041,1.041,0,0,0,1.179-1.169q.009-10.07.013-20.142c0-.406-.146-.492-.514-.48C4830.433,3164.151,4829.548,3164.145,4828.663,3164.151Zm-.3,40.4v0c1.722,0,3.443-.012,5.164.008.509.007.758-.125.727-.686-.038-.677,0-1.359-.012-2.038a2.249,2.249,0,0,0-2.217-2.364q-3.633-.093-7.269-.011a2.242,2.242,0,0,0-2.231,2.345c-.014.679.029,1.362-.013,2.038-.037.588.211.73.755.722C4824.968,3204.533,4826.667,3204.549,4828.365,3204.549Zm-19.568,0v0c1.7,0,3.4-.019,5.095.011.576.01.764-.2.736-.755-.033-.655.008-1.314-.012-1.97a2.286,2.286,0,0,0-2.292-2.373q-3.565-.077-7.133-.009a2.264,2.264,0,0,0-2.306,2.348c-.023.679.023,1.36-.014,2.038-.031.582.216.734.762.725C4805.354,3204.533,4807.075,3204.549,4808.8,3204.549Zm-15.1-44.69a3.137,3.137,0,1,0-6.274.05,3.137,3.137,0,0,0,6.274-.05Zm53.138-3.125a3.1,3.1,0,0,0-3.075,3.205,3.137,3.137,0,1,0,3.075-3.205Zm-43.255,13.793V3167.8c0-.867-.064-.927-.97-.917a3.675,3.675,0,1,0,.479,7.323c.374-.041.5-.179.5-.552C4803.57,3172.615,4803.583,3171.571,4803.583,3170.527Zm30.3.021v2.722c0,.963,0,.964.986.954.136,0,.271-.008.407-.021a3.662,3.662,0,0,0,3.193-4.1,3.718,3.718,0,0,0-3.913-3.212c-.459.044-.724.16-.689.73C4833.923,3168.6,4833.881,3169.573,4833.881,3170.549Zm-7.355,17.433c-.953,0-1.909.053-2.856-.017-.71-.052-.832.281-.846.862a3.681,3.681,0,1,0,7.341-.3c-.043-.434-.212-.571-.646-.557C4828.523,3188,4827.524,3187.982,4826.526,3187.982Zm-15.623,0h-2.789c-.874,0-.935.063-.933.955a3.677,3.677,0,1,0,7.329-.452c-.047-.412-.226-.52-.615-.511C4812.9,3188,4811.9,3187.982,4810.9,3187.982Zm-12.035-21.776a1.363,1.363,0,0,0-.13-.2q-1.707-1.71-3.417-3.417c-.167-.169-.268-.076-.366.077a5.249,5.249,0,0,1-1.576,1.575c-.2.126-.234.226-.049.408q1.837,1.82,3.657,3.656c.212.214.308.171.424-.092a5.516,5.516,0,0,1,1.242-1.771C4798.73,3166.374,4798.8,3166.288,4798.868,3166.206Zm39.729-.014a1.656,1.656,0,0,0,.145.183,5.827,5.827,0,0,1,1.355,1.926c.142.318.277.11.394-.007,1.2-1.2,2.395-2.4,3.6-3.59.223-.219.217-.328-.051-.5a4.559,4.559,0,0,1-1.476-1.472c-.21-.341-.352-.216-.554-.012-1.05,1.059-2.109,2.11-3.162,3.166C4838.757,3165.984,4838.681,3166.092,4838.6,3166.192Zm-19.854-23.175a2.042,2.042,0,0,0,2.015-2.053,2.03,2.03,0,0,0-4.061.038A2.021,2.021,0,0,0,4818.742,3143.018Zm-10.489,51.029c-.133,1.034-.256,2.017-.387,3-.05.381.214.323.43.32.971-.006,1.944-.038,2.916-.019.4.008.505-.183.538-.516.057-.607.1-1.216.2-1.818.049-.314-.028-.41-.338-.373A6.143,6.143,0,0,1,4808.253,3194.046Zm19.07,3.321v-.031c.429,0,.861-.029,1.288.008.468.04.663-.094.585-.594-.114-.735-.2-1.477-.271-2.217-.031-.312-.156-.309-.4-.213a4.818,4.818,0,0,1-1.989.327c-.461-.019-1.141-.223-1.331,0-.29.333.035.939.071,1.432.1,1.293.108,1.292,1.369,1.292Z" transform="translate(-4783.886 -3136.9)" fill="#030303"/>
            <path id="Trazado_121770" data-name="Trazado 121770" d="M4783.991,3170.579l.021,3.689c0,.111.008.226-.126.276V3170.6l.047-.045Z" transform="translate(-4783.886 -3159.703)" fill="#9c9595"/>
            <path id="Trazado_121771" data-name="Trazado 121771" d="M4851.528,3188.3a13.536,13.536,0,0,1,1.889-6.468,1.2,1.2,0,0,0-.163-1.688,13.993,13.993,0,0,1,1.962-1.928c.61.468,1.141.268,1.722-.119a13.27,13.27,0,0,1,9.664-2.139c.02.159.139.22.264.281a12.979,12.979,0,0,1,4.448,3.475,14.85,14.85,0,0,1,3.186,8.688c-.862.009-1.723.026-2.583.025q-10.138-.006-20.277-.017Zm8.276-8.325a3.356,3.356,0,1,0,3.388,3.345A3.369,3.369,0,0,0,4859.8,3179.974Zm9.511,6.712a3.356,3.356,0,1,0-3.361-3.375A3.37,3.37,0,0,0,4869.315,3186.686Z" transform="translate(-4829.722 -3163.25)" fill="#ecdfda"/>
            <path id="Trazado_121772" data-name="Trazado 121772" d="M4874.4,3243.1c-2.38.008-4.761.022-7.141.023q-7.277.006-14.557,0c-1.049,0-1.32-.271-1.32-1.324q0-9.932,0-19.864c0-.363-.029-.616.506-.614q11.19.031,22.38.017a1.036,1.036,0,0,1,.134.018Zm-8.432-5.019c.252.875.5,1.067,1.386,1.07,1.155,0,2.311.008,3.466,0a2.129,2.129,0,0,0,2.3-2.224q.042-2.412,0-4.826a2.1,2.1,0,0,0-2.251-2.188q-6.355-.009-12.711,0a2.118,2.118,0,0,0-2.229,2.217c-.02,1.586-.017,3.172,0,4.758a2.144,2.144,0,0,0,2.264,2.262c1.224.012,2.447.007,3.67,0,.837,0,1.122-.242,1.312-1.058Zm-7.674-11.7c.475,0,.95.022,1.423-.006a.936.936,0,0,0,.961-.939.957.957,0,0,0-.888-1.081c-.969-.047-1.943-.043-2.912-.005a1.015,1.015,0,0,0,.062,2.028C4857.389,3226.407,4857.841,3226.389,4858.292,3226.387Zm12.405,0c.474,0,.949.021,1.421,0a1.015,1.015,0,0,0,.028-2.028q-1.421-.054-2.842,0a1.015,1.015,0,0,0,.04,2.027C4869.794,3226.408,4870.247,3226.389,4870.7,3226.387Z" transform="translate(-4829.619 -3194.109)" fill="#ccbdb8"/>
            <path id="Trazado_121773" data-name="Trazado 121773" d="M4922.788,3243.117l0-21.744c.884-.007,1.769,0,2.652-.027.367-.011.514.074.513.481q-.017,10.071-.012,20.141a1.041,1.041,0,0,1-1.18,1.169C4924.1,3243.147,4923.444,3243.126,4922.788,3243.117Z" transform="translate(-4878.008 -3194.123)" fill="#9c9595"/>
            <path id="Trazado_121774" data-name="Trazado 121774" d="M4909.555,3335.959c-1.7,0-3.4-.017-5.1.01-.544.008-.793-.135-.756-.722.043-.677,0-1.359.013-2.037a2.243,2.243,0,0,1,2.231-2.346q3.633-.078,7.269.011a2.249,2.249,0,0,1,2.217,2.363c.012.679-.026,1.361.012,2.038.031.561-.218.693-.726.687-1.722-.021-3.443-.008-5.164-.008Z" transform="translate(-4865.075 -3268.31)" fill="#fbb23f"/>
            <path id="Trazado_121775" data-name="Trazado 121775" d="M4848.7,3335.961c-1.722,0-3.443-.017-5.164.01-.547.009-.793-.143-.762-.725.038-.677-.01-1.359.014-2.038a2.264,2.264,0,0,1,2.305-2.349q3.566-.062,7.133.009a2.287,2.287,0,0,1,2.292,2.374c.02.656-.021,1.315.012,1.97.028.552-.16.766-.737.756-1.7-.03-3.4-.011-5.093-.011Z" transform="translate(-4823.788 -3268.311)" fill="#fbb23f"/>
            <path id="Trazado_121776" data-name="Trazado 121776" d="M4906.188,3188.758a14.842,14.842,0,0,0-3.186-8.688,12.978,12.978,0,0,0-4.446-3.475c-.125-.062-.246-.123-.264-.281a12.421,12.421,0,0,1,10.755,10.178c.106.6.171,1.21.26,1.814.047.316.007.5-.4.487C4908,3188.754,4907.092,3188.766,4906.188,3188.758Z" transform="translate(-4861.411 -3163.608)" fill="#ccbdb8"/>
            <path id="Trazado_121777" data-name="Trazado 121777" d="M4801.14,3201.545a3.137,3.137,0,1,1-3.157-3.129A3.111,3.111,0,0,1,4801.14,3201.545Z" transform="translate(-4791.326 -3178.584)" fill="#fbb23f"/>
            <path id="Trazado_121778" data-name="Trazado 121778" d="M4972.7,3198.424a3.132,3.132,0,0,1,3.2,3.1,3.136,3.136,0,0,1-6.272.109A3.1,3.1,0,0,1,4972.7,3198.424Z" transform="translate(-4909.747 -3178.59)" fill="#fbb23f"/>
            <path id="Trazado_121779" data-name="Trazado 121779" d="M4835.305,3233.56c0,1.044-.012,2.087.006,3.131.006.374-.124.511-.5.553a3.675,3.675,0,1,1-.478-7.323c.9-.01.97.05.97.917Z" transform="translate(-4815.609 -3199.932)" fill="#fbb23f"/>
            <path id="Trazado_121780" data-name="Trazado 121780" d="M4938.929,3233.566c0-.975.043-1.953-.016-2.925-.033-.57.232-.687.69-.73a3.72,3.72,0,0,1,3.914,3.212,3.662,3.662,0,0,1-3.195,4.1c-.134.014-.271.02-.407.021-.987.01-.987.009-.987-.955Z" transform="translate(-4888.934 -3199.918)" fill="#fbb23f"/>
            <path id="Trazado_121781" data-name="Trazado 121781" d="M4908.372,3295.309c1,0,2,.021,2.993-.01.433-.013.6.123.645.556a3.681,3.681,0,1,1-7.34.3c.014-.581.134-.914.846-.861C4906.462,3295.363,4907.418,3295.309,4908.372,3295.309Z" transform="translate(-4865.731 -3244.227)" fill="#fbb23f"/>
            <path id="Trazado_121782" data-name="Trazado 121782" d="M4859.868,3295.341c1,0,2,.015,2.993-.006.39-.01.567.1.616.51a3.678,3.678,0,1,1-7.331.452c0-.893.06-.955.934-.956Z" transform="translate(-4832.85 -3244.259)" fill="#fbb23f"/>
            <path id="Trazado_121783" data-name="Trazado 121783" d="M4818.467,3220.027c-.073.082-.138.167-.216.242a5.519,5.519,0,0,0-1.242,1.771c-.116.263-.212.306-.425.093q-1.821-1.836-3.655-3.657c-.186-.183-.148-.281.048-.407a5.254,5.254,0,0,0,1.576-1.575c.1-.153.2-.246.366-.077q1.708,1.711,3.417,3.418A1.4,1.4,0,0,1,4818.467,3220.027Z" transform="translate(-4803.484 -3190.72)" fill="#9c9595"/>
            <path id="Trazado_121784" data-name="Trazado 121784" d="M4953.6,3220.054c.083-.1.161-.208.252-.3,1.054-1.057,2.112-2.108,3.162-3.167.2-.2.342-.329.554.013a4.542,4.542,0,0,0,1.476,1.472c.268.167.273.276.051.5-1.207,1.19-2.4,2.394-3.6,3.59-.117.117-.253.325-.395.007a5.8,5.8,0,0,0-1.356-1.926A1.637,1.637,0,0,1,4953.6,3220.054Z" transform="translate(-4898.887 -3190.761)" fill="#9c9595"/>
            <path id="Trazado_121785" data-name="Trazado 121785" d="M4887.709,3147.372a2.022,2.022,0,0,1-2.046-2.016,2.03,2.03,0,1,1,2.046,2.016Z" transform="translate(-4852.853 -3141.253)" fill="#fbb23f"/>
            <path id="Trazado_121786" data-name="Trazado 121786" d="M4858.646,3314.168a6.151,6.151,0,0,0,3.356.593c.309-.037.386.059.338.373-.093.6-.14,1.211-.2,1.819-.032.332-.135.523-.538.515-.971-.019-1.944.013-2.916.019-.216,0-.48.06-.429-.321C4858.392,3316.186,4858.514,3315.2,4858.646,3314.168Z" transform="translate(-4834.28 -3257.021)" fill="#9c9595"/>
            <path id="Trazado_121787" data-name="Trazado 121787" d="M4913.924,3317.943h-.679c-1.261,0-1.273,0-1.37-1.292-.035-.492-.36-1.1-.071-1.431.19-.219.87-.015,1.331,0a4.816,4.816,0,0,0,1.99-.327c.242-.1.369-.1.4.212.074.741.158,1.483.271,2.218.079.5-.117.633-.584.593-.428-.036-.858-.008-1.287-.008Z" transform="translate(-4870.486 -3257.475)" fill="#9c9595"/>
            <path id="Trazado_121788" data-name="Trazado 121788" d="M4851.514,3214.6l.112.109C4851.527,3214.736,4851.492,3214.7,4851.514,3214.6Z" transform="translate(-4829.708 -3189.552)" fill="#ccbdb8"/>
            <path id="Trazado_121789" data-name="Trazado 121789" d="M4870.125,3188.775a3.356,3.356,0,1,1-3.366,3.367A3.37,3.37,0,0,1,4870.125,3188.775Zm.044,2.05a1.308,1.308,0,1,0-.062,2.615,1.308,1.308,0,1,0,.062-2.615Z" transform="translate(-4840.043 -3172.052)" fill="#030303"/>
            <path id="Trazado_121790" data-name="Trazado 121790" d="M4899.639,3195.487a3.356,3.356,0,1,1,3.4-3.337A3.374,3.374,0,0,1,4899.639,3195.487Zm.05-4.662a1.308,1.308,0,1,0,1.3,1.3A1.325,1.325,0,0,0,4899.689,3190.824Z" transform="translate(-4860.046 -3172.052)" fill="#030303"/>
            <path id="Trazado_121791" data-name="Trazado 121791" d="M4872.691,3256.144c-.187.816-.474,1.053-1.31,1.058-1.224.005-2.447.011-3.67,0a2.144,2.144,0,0,1-2.264-2.261c-.017-1.585-.019-3.173,0-4.758a2.117,2.117,0,0,1,2.229-2.217q6.356-.011,12.711,0a2.1,2.1,0,0,1,2.252,2.188q.046,2.412,0,4.826a2.13,2.13,0,0,1-2.3,2.223c-1.156.009-2.312,0-3.468,0-.889,0-1.133-.195-1.385-1.07a1.194,1.194,0,0,1,1.4-.979c1.043.044,2.088-.01,3.13.021.461.014.58-.15.57-.587q-.042-2.041-.018-4.083c0-.4-.14-.495-.515-.494q-6.022.016-12.046,0c-.373,0-.522.091-.518.491q.025,2.041-.014,4.083c-.008.434.113.6.572.589,1.111-.029,2.225.014,3.335-.018A1.115,1.115,0,0,1,4872.691,3256.144Z" transform="translate(-4839.145 -3212.156)" fill="#030303"/>
            <path id="Trazado_121792" data-name="Trazado 121792" d="M4876.993,3260.455a1.115,1.115,0,0,0-1.3-.988c-1.11.031-2.224-.011-3.334.018-.459.012-.58-.155-.572-.589q.041-2.041.016-4.083c-.005-.4.144-.492.517-.491q6.023.016,12.045,0c.375,0,.519.1.514.494-.014,1.361-.01,2.722.02,4.083.009.437-.109.6-.571.586-1.042-.031-2.087.023-3.129-.021a1.2,1.2,0,0,0-1.4.979Z" transform="translate(-4843.447 -3216.468)" fill="#9c9595"/>
            <path id="Trazado_121793" data-name="Trazado 121793" d="M4867.858,3232.7c-.452,0-.9.02-1.355,0a1.015,1.015,0,0,1-.062-2.028c.97-.038,1.943-.042,2.912.005a.958.958,0,0,1,.888,1.08.936.936,0,0,1-.961.939C4868.808,3232.72,4868.332,3232.7,4867.858,3232.7Z" transform="translate(-4839.183 -3200.419)" fill="#030303"/>
            <path id="Trazado_121794" data-name="Trazado 121794" d="M4906.392,3232.7c-.452,0-.9.02-1.354,0a1.015,1.015,0,0,1-.041-2.028c.947-.038,1.9-.037,2.842,0a.989.989,0,0,1,.957,1.031.978.978,0,0,1-.983,1C4907.34,3232.719,4906.866,3232.7,4906.392,3232.7Z" transform="translate(-4865.313 -3200.419)" fill="#030303"/>
            <path id="Trazado_121795" data-name="Trazado 121795" d="M4874.511,3195.133a1.308,1.308,0,1,1-.061,2.616,1.308,1.308,0,1,1,.061-2.616Z" transform="translate(-4844.385 -3176.359)" fill="#9c9595"/>
            <path id="Trazado_121796" data-name="Trazado 121796" d="M4904,3195.132a1.308,1.308,0,1,1-1.362,1.308A1.331,1.331,0,0,1,4904,3195.132Z" transform="translate(-4864.354 -3176.359)" fill="#9c9595"/>
          </g>
        </g>
        <g id="rZiz4f" transform="translate(131.989 91.849)">
          <g id="Grupo_88361" data-name="Grupo 88361" transform="translate(0 0)">
            <path id="Trazado_121797" data-name="Trazado 121797" d="M4936.292,3500.066a.987.987,0,0,1,.9,1.134q0,12.03,0,24.061a3.039,3.039,0,0,1-.207,1.294c-.182.394.029.382.3.38.8-.006,1.6-.012,2.4,0a1.368,1.368,0,0,1,1.521,1.523,16.29,16.29,0,0,1-.089,3.051,3.83,3.83,0,0,1-3.576,3.175c-2.578.091-5.16.049-7.739.052a.922.922,0,0,1-1.006-.9c.174-.719.378-.894,1.117-.9,2.34-.01,4.682,0,7.023-.02a2.237,2.237,0,0,0,2.464-2.452c0-.4-.029-.8.009-1.2.04-.426-.113-.526-.528-.525q-10.717.012-21.435-.017c-.451,0-.558.125-.578.565a2.2,2.2,0,0,1-2.214,2.291q-4.2.083-8.4,0a2.189,2.189,0,0,1-2.2-2.241c-.022-.5-.162-.616-.653-.615q-10.657.026-21.312.011c-.12,0-.241.005-.361,0-.148,0-.221.071-.214.215a10.826,10.826,0,0,0,.088,2.33c.292,1.11,1.133,1.65,2.531,1.651q10.745,0,21.492,0h19.813c.92,0,1.1.131,1.3.9a.982.982,0,0,1-1.128.9q-20.856,0-41.71-.01a3.972,3.972,0,0,1-4.056-3.007c-.028-.077-.039-.153-.131-.176v-3.723a1.955,1.955,0,0,1,1.985-.906c.77.051,1.546.01,2.391.01a5.385,5.385,0,0,1-.352-2.432q0-14.978,0-29.955a3.339,3.339,0,0,1,2.4-3.519,4.527,4.527,0,0,1,1.309-.125q12.337,0,24.677.013c.525,0,.631-.128.66-.647a2.129,2.129,0,0,0-.929-2.141,2.665,2.665,0,0,1-1.028-1.224c-.547-1.382,1.008-4.041,2.483-4.215a4.613,4.613,0,0,1,2.085.465,1.078,1.078,0,0,0,1.169-.119.926.926,0,0,1,.262-.146,1.539,1.539,0,0,0,1.086-1.47,4.152,4.152,0,0,1,.265-1.1,1.932,1.932,0,0,1,1.771-1.4,16.49,16.49,0,0,1,1.918-.011,2.009,2.009,0,0,1,1.89,1.492,2.9,2.9,0,0,1,.163.7,2.12,2.12,0,0,0,1.492,1.993,1.177,1.177,0,0,0,1.008.083,10.664,10.664,0,0,1,1.375-.415,1.986,1.986,0,0,1,2.287.886c.325.5.628,1.021.9,1.553a2,2,0,0,1-.353,2.38,2.758,2.758,0,0,1-.564.536,2.184,2.184,0,0,0-.957,2.365c.025.354.146.432.466.429,1.361-.012,2.723-.009,4.083,0a3.292,3.292,0,0,1,3.534,3.517c.01.86,0,1.721,0,2.581a.943.943,0,0,1-.891,1.071c-.7-.15-.926-.405-.94-1.157-.02-.92.006-1.842-.016-2.761a1.321,1.321,0,0,0-1.159-1.383c-1.035-.052-2.074-.013-3.131-.013.061.311.1.6.176.888s-.3.646.017.819a2.277,2.277,0,0,0,.942.055c.1,0,.2,0,.3,0,.821.008,1.075.253,1.085,1.077.018,1.679.042,3.36.043,5.039q0,11.465,0,22.928c0,.16.006.321-.007.48-.058.8-.336,1.062-1.133,1.062q-22,0-44,0c-.831,0-1.147-.287-1.155-1.1-.014-1.82,0-3.641,0-5.461a1.006,1.006,0,0,1,.9-1.146c.811.236.924.4.927,1.313,0,1.3.035,2.6-.015,3.9-.022.59.15.714.724.714q20.628-.03,41.258-.008c.567,0,.674-.166.674-.694q-.025-12.82-.013-25.64c0-.12-.01-.241,0-.36.019-.235-.088-.318-.315-.309-.7.025-1.436-.17-1.98.51-.12.15-.384.194-.59.268a2.747,2.747,0,0,1-2.032-.278,1.875,1.875,0,0,0-1.888.189,1.594,1.594,0,0,0-.959,1.366,4.3,4.3,0,0,1-.244,1.048,2.023,2.023,0,0,1-1.923,1.531c-.6.028-1.2.028-1.8,0a1.972,1.972,0,0,1-1.889-1.484c-.15-.517-.26-1.047-.359-1.576a.8.8,0,0,0-.366-.575c-.836-.56-1.671-1.024-2.681-.389a1.7,1.7,0,0,1-.4.123,2.089,2.089,0,0,1-2.309-.538.592.592,0,0,0-.472-.2c-.5.007-1,0-1.5,0-.11,0-.244-.04-.31.1a4.853,4.853,0,0,0,.445,1.638c.817.506,1.6,1.181,2.662.55a3.009,3.009,0,0,1,.8-.238,2.009,2.009,0,0,1,2.289.891c.3.468.583.955.847,1.447a2.048,2.048,0,0,1-.386,2.579c-.353.354-.736.677-1.106,1.013a.651.651,0,0,0-.3.485c-.03,1-.152,2.011.955,2.6a2.241,2.241,0,0,1,.523.492,2.027,2.027,0,0,1,.348,2.434,17.489,17.489,0,0,1-.9,1.553,1.983,1.983,0,0,1-2.244.859c-.521-.132-1.029-.315-1.545-.47-.169-.051-.338-.146-.519-.039-.8.472-1.817.725-1.784,1.969a3.019,3.019,0,0,1-.226.928,1.994,1.994,0,0,1-1.854,1.455c-.618.032-1.241.032-1.86,0a2.006,2.006,0,0,1-1.887-1.493,4.683,4.683,0,0,1-.249-1.048,1.631,1.631,0,0,0-.986-1.415,1.694,1.694,0,0,0-1.827-.169,2.871,2.871,0,0,1-.574.167,2.185,2.185,0,0,1-2.916-1.133c-1.494-2.343-1.1-2.987.775-4.611.15-.129.387-.222.381-.438-.029-.872.373-1.855-.67-2.476a4.027,4.027,0,0,1-.825-.782,1.951,1.951,0,0,1-.343-2.328,16.955,16.955,0,0,1,.93-1.606,1.986,1.986,0,0,1,2.3-.851c.5.133.993.3,1.488.456.173.055.353.146.521.041.761-.473,1.756-.681,1.791-1.91.013-.5.064-.672-.529-.668q-6.694.039-13.393,0c-.593,0-.758.124-.754.743.026,5.665.016,11.329.015,16.993,0,.908-.125,1.085-.9,1.317-.762-.213-.927-.448-.927-1.367q0-9.007,0-18.013c0-1.247.236-1.487,1.465-1.487h21.079c.824,0,.824,0,.831-.786a.985.985,0,0,1,.024-.358c.261-.605-.071-.623-.544-.622q-10.69.015-21.379.007c-.62,0-1.242-.016-1.861.013a1.375,1.375,0,0,0-1.36,1.333c-.015.179-.014.359-.014.539q0,15.191,0,30.381a5.824,5.824,0,0,0,.021.66,1.388,1.388,0,0,0,1.264,1.237c.22.022.44.016.66.016h44.078c.8,0,1.6.008,2.4-.022a1.358,1.358,0,0,0,1.358-1.328c.018-.24.012-.48.012-.72q0-11.558,0-23.116c0-.2-.009-.4.006-.6A.979.979,0,0,1,4936.292,3500.066Zm-35.886,5.453a2.849,2.849,0,0,1-1.236,2.945c-.956.727-.872.766-.307,1.864.311.6.66.776,1.255.469a3.362,3.362,0,0,1,3.854.446,1.79,1.79,0,0,0,.259.149,2.209,2.209,0,0,1,1.186,1.7c.067.433.18.86.269,1.291a.431.431,0,0,0,.5.392c2-.067,1.571.391,1.993-1.575a2.355,2.355,0,0,1,1.072-1.718c.312-.179.638-.338.93-.547a2.794,2.794,0,0,1,2.884-.293c1.221.492,1.211.42,1.914-.688.34-.538.309-.9-.219-1.231a3.362,3.362,0,0,1-1.562-3.608,2.212,2.212,0,0,0,0-.36,2.067,2.067,0,0,1,.8-1.728c.368-.308.711-.646,1.07-.963a.391.391,0,0,0,.1-.574c-1.091-1.752-.448-1.552-2.348-.986-.114.034-.224.083-.339.118a2.337,2.337,0,0,1-1.741-.156c-1.519-.7-2.719-1.618-2.74-3.482,0-.019-.016-.038-.016-.057-.026-.515-.309-.637-.8-.628-1.437.024-1.449,0-1.724,1.412a2.215,2.215,0,0,1-.636,1.513c-1.32.955-2.577,1.991-4.46,1.166-1.219-.534-.938-.561-1.62.6-.553.946-.627.745.222,1.437C4899.988,3503.259,4900.7,3504.159,4900.406,3505.519Zm14.117-15.635a2.736,2.736,0,0,1-1.3,3.028c-.08.055-.136.151-.219.2-.537.334-.547.7-.211,1.231.691,1.092.681,1.163,1.92.667a2.742,2.742,0,0,1,2.828.281,4.421,4.421,0,0,0,.625.355,2.52,2.52,0,0,1,1.438,2.063c.21,1.444.24,1.416,1.685,1.447.519.011.8-.136.822-.664a3.6,3.6,0,0,1,2.525-3.364.728.728,0,0,0,.1-.063,2.168,2.168,0,0,1,2.008-.189c.446.173.917.28,1.369.439a.381.381,0,0,0,.5-.179c1-1.343.991-1.436-.294-2.525-.091-.078-.179-.158-.272-.236a2.057,2.057,0,0,1-.74-1.459c-.13-1.622-.111-3.193,1.546-4.152.018-.01.027-.031.044-.041.537-.343.516-.716.184-1.236-.681-1.071-.669-1.139-1.867-.662a2.821,2.821,0,0,1-2.938-.311,3.262,3.262,0,0,0-.519-.3,2.635,2.635,0,0,1-1.478-2.034c-.379-1.857,0-1.41-1.824-1.48-.378-.014-.6.077-.653.5-.047.395-.162.781-.243,1.171a4.32,4.32,0,0,1-3.869,2.732,3.234,3.234,0,0,1-.521-.131c-.268-.082-.528-.186-.8-.261-1.07-.3-.842-.46-1.411.545-.613,1.082-.778.79.324,1.707A2.831,2.831,0,0,1,4914.523,3489.884Zm-4.077,38.865c-1.357,0-2.717-.005-4.075.006-.2,0-.524-.15-.524.271,0,.331.009.659.429.744a1.853,1.853,0,0,0,.356.031q3.835,0,7.671,0a1.324,1.324,0,0,0,.413-.054c.368-.121.352-.441.349-.743,0-.377-.3-.248-.485-.249C4913.2,3528.745,4911.824,3528.75,4910.446,3528.75Z" transform="translate(-4879.705 -3478.883)" fill="#050606"/>
            <path id="Trazado_121798" data-name="Trazado 121798" d="M4900.833,3547.254a1.006,1.006,0,0,0-.9,1.146c0,1.821-.01,3.642,0,5.462.006.81.324,1.1,1.154,1.1q22,0,44,0c.8,0,1.077-.266,1.134-1.062.012-.159.006-.32.006-.48q0-11.464,0-22.928c0-1.679-.023-3.359-.043-5.039-.01-.824-.264-1.069-1.084-1.077-.1,0-.2,0-.3,0-.319-.009-.693.082-.942-.055-.314-.173.059-.533-.018-.819s-.115-.578-.174-.889c1.056,0,2.1-.038,3.13.014a1.323,1.323,0,0,1,1.16,1.382c.021.92,0,1.841.015,2.76.017.753.241,1.009.942,1.158q0,1,0,1.995a.98.98,0,0,0-.936,1.05c-.014.2-.006.4-.006.6v23.116c0,.241,0,.481-.012.721a1.358,1.358,0,0,1-1.357,1.328c-.8.029-1.6.022-2.4.022h-44.079c-.221,0-.442.005-.661-.016a1.387,1.387,0,0,1-1.264-1.237,5.933,5.933,0,0,1-.021-.659q0-15.191,0-30.382c0-.18,0-.36.012-.539a1.377,1.377,0,0,1,1.36-1.333c.619-.03,1.241-.013,1.861-.013q10.69,0,21.379-.007c.473,0,.806.016.545.622a.963.963,0,0,0-.025.358c-.008.786-.007.786-.831.786H4901.4c-1.23,0-1.465.24-1.465,1.487q0,9.007,0,18.013c0,.919.165,1.153.927,1.367Q4900.847,3546.23,4900.833,3547.254Z" transform="translate(-4892.327 -3508.739)" fill="#427e9d"/>
            <path id="Trazado_121799" data-name="Trazado 121799" d="M4930.584,3641.421c-.194-.773-.377-.9-1.3-.9h-19.812q-10.747,0-21.492,0c-1.4,0-2.239-.54-2.53-1.651a10.856,10.856,0,0,1-.089-2.329.185.185,0,0,1,.214-.215c.121,0,.241,0,.361,0q10.657,0,21.312-.013c.492,0,.632.121.655.615a2.189,2.189,0,0,0,2.2,2.241q4.2.083,8.4,0a2.206,2.206,0,0,0,2.216-2.291c.021-.44.126-.566.579-.565q10.716.031,21.432.017c.416,0,.568.1.528.525-.037.4-.006.8-.007,1.2a2.238,2.238,0,0,1-2.465,2.452c-2.342.02-4.683.01-7.024.021-.737,0-.941.179-1.115.9Z" transform="translate(-4883.558 -3586.462)" fill="#a6d7f1"/>
            <path id="Trazado_121800" data-name="Trazado 121800" d="M4906.574,3554.983c.01-.683.018-1.366.027-2.05.772-.231.9-.409.9-1.317,0-5.665.013-11.329-.016-16.993,0-.619.163-.746.757-.743q6.7.04,13.392,0c.593,0,.543.166.528.668-.034,1.229-1.029,1.437-1.791,1.91-.167.1-.348.014-.521-.041-.494-.156-.986-.323-1.487-.455a1.984,1.984,0,0,0-2.3.85,16.742,16.742,0,0,0-.929,1.606,1.952,1.952,0,0,0,.341,2.327,4.085,4.085,0,0,0,.826.783c1.042.621.64,1.6.669,2.475.007.216-.231.309-.38.438-1.873,1.625-2.268,2.269-.774,4.611a2.184,2.184,0,0,0,2.915,1.134,2.818,2.818,0,0,0,.573-.168,1.7,1.7,0,0,1,1.829.169,1.635,1.635,0,0,1,.987,1.416,4.668,4.668,0,0,0,.247,1.048,2.008,2.008,0,0,0,1.888,1.493c.618.03,1.241.029,1.86,0a2,2,0,0,0,1.854-1.454,3.018,3.018,0,0,0,.226-.928c-.033-1.244.988-1.5,1.784-1.969.181-.107.351-.012.518.039.516.154,1.025.337,1.546.47a1.986,1.986,0,0,0,2.244-.859,17.447,17.447,0,0,0,.9-1.554,2.027,2.027,0,0,0-.348-2.434,2.235,2.235,0,0,0-.524-.492c-1.106-.586-.984-1.6-.955-2.6a.655.655,0,0,1,.3-.485c.371-.336.753-.66,1.106-1.014a2.049,2.049,0,0,0,.387-2.578c-.265-.492-.544-.979-.848-1.447a2.007,2.007,0,0,0-2.287-.891,3.012,3.012,0,0,0-.8.238c-1.065.631-1.843-.043-2.662-.549a4.819,4.819,0,0,1-.445-1.638c.067-.144.2-.1.31-.1.5,0,1,0,1.5,0a.588.588,0,0,1,.47.2,2.091,2.091,0,0,0,2.31.539,1.685,1.685,0,0,0,.4-.123c1.009-.635,1.845-.17,2.68.389a.794.794,0,0,1,.366.575c.1.53.209,1.059.359,1.576a1.972,1.972,0,0,0,1.89,1.484c.6.029,1.2.029,1.8,0a2.023,2.023,0,0,0,1.923-1.531,4.356,4.356,0,0,0,.242-1.047,1.591,1.591,0,0,1,.961-1.365,1.872,1.872,0,0,1,1.888-.19,2.748,2.748,0,0,0,2.033.278c.2-.075.468-.118.589-.268.543-.681,1.283-.485,1.98-.51.227-.009.334.074.315.309-.01.119,0,.24,0,.36q0,12.82.013,25.639c0,.528-.106.7-.675.694q-20.629-.023-41.259.008c-.571,0-.746-.123-.723-.713.05-1.3.017-2.6.015-3.9C4907.5,3555.379,4907.384,3555.219,4906.574,3554.983Z" transform="translate(-4898.066 -3516.467)" fill="#f2f2f2"/>
            <path id="Trazado_121801" data-name="Trazado 121801" d="M4940.612,3543.112c.292-1.359-.418-2.259-1.436-3.087-.849-.691-.774-.49-.222-1.436.68-1.165.4-1.137,1.62-.6,1.881.824,3.139-.212,4.46-1.167a2.217,2.217,0,0,0,.636-1.512c.274-1.411.285-1.388,1.723-1.413.488-.008.77.113.8.628,0,.02.018.039.018.057.021,1.863,1.222,2.785,2.739,3.482a2.339,2.339,0,0,0,1.74.156c.115-.036.225-.084.34-.118,1.9-.566,1.256-.765,2.346.986a.391.391,0,0,1-.1.574c-.359.318-.7.655-1.071.963a2.071,2.071,0,0,0-.8,1.728,2.21,2.21,0,0,1,0,.36,3.362,3.362,0,0,0,1.562,3.609c.527.331.559.693.218,1.231-.7,1.107-.691,1.18-1.913.688a2.794,2.794,0,0,0-2.884.293c-.292.208-.618.368-.93.547a2.356,2.356,0,0,0-1.073,1.717c-.422,1.968.007,1.508-1.992,1.576a.433.433,0,0,1-.5-.392c-.088-.431-.2-.856-.267-1.291a2.2,2.2,0,0,0-1.186-1.7,1.812,1.812,0,0,1-.259-.15,3.359,3.359,0,0,0-3.853-.445c-.6.306-.944.136-1.256-.469-.564-1.1-.649-1.138.309-1.865A2.851,2.851,0,0,0,4940.612,3543.112Zm6.428-4.87a4.892,4.892,0,1,0,4.9,4.885A4.877,4.877,0,0,0,4947.04,3538.242Z" transform="translate(-4919.91 -3516.475)" fill="#fac027"/>
            <path id="Trazado_121802" data-name="Trazado 121802" d="M4985.256,3493.822a2.828,2.828,0,0,0-1.24-2.915c-1.1-.917-.936-.625-.324-1.707.57-1.006.342-.843,1.413-.545.268.075.529.179.8.261a3.26,3.26,0,0,0,.521.13,4.319,4.319,0,0,0,3.869-2.731c.081-.391.2-.777.244-1.171.051-.421.275-.513.653-.5,1.824.07,1.445-.376,1.824,1.48a2.635,2.635,0,0,0,1.478,2.035,3.269,3.269,0,0,1,.52.3,2.819,2.819,0,0,0,2.937.311c1.2-.478,1.187-.41,1.867.662.333.521.353.893-.182,1.236-.017.011-.028.031-.044.041-1.657.958-1.678,2.531-1.546,4.152a2.054,2.054,0,0,0,.738,1.458c.092.077.182.158.274.235,1.286,1.089,1.292,1.183.292,2.525a.381.381,0,0,1-.5.179c-.451-.16-.923-.266-1.368-.44a2.17,2.17,0,0,0-2.007.189.858.858,0,0,1-.1.063,3.6,3.6,0,0,0-2.525,3.364c-.026.527-.3.676-.822.664-1.445-.031-1.475,0-1.685-1.447a2.524,2.524,0,0,0-1.439-2.063,4.4,4.4,0,0,1-.625-.356,2.745,2.745,0,0,0-2.828-.281c-1.239.5-1.229.426-1.92-.667-.336-.531-.326-.9.211-1.232.083-.051.138-.147.22-.2A2.73,2.73,0,0,0,4985.256,3493.822Zm11.332.026a4.925,4.925,0,1,0-4.9,4.92A4.887,4.887,0,0,0,4996.588,3493.848Z" transform="translate(-4950.438 -3482.821)" fill="#fac027"/>
            <path id="Trazado_121803" data-name="Trazado 121803" d="M4966.871,3636.337c1.377,0,2.756,0,4.134,0,.187,0,.481-.127.484.25,0,.3.019.622-.349.743a1.341,1.341,0,0,1-.413.053q-3.836,0-7.669,0a1.852,1.852,0,0,1-.357-.031c-.42-.084-.429-.413-.429-.744,0-.422.324-.268.523-.271C4964.154,3636.332,4965.513,3636.337,4966.871,3636.337Z" transform="translate(-4936.129 -3586.47)" fill="#a6d7f1"/>
            <path id="Trazado_121804" data-name="Trazado 121804" d="M4954.759,3547.628a4.892,4.892,0,1,1-4.924,4.84A4.91,4.91,0,0,1,4954.759,3547.628Zm-.075,7.98a3.089,3.089,0,1,0,.106-6.176,3.089,3.089,0,1,0-.106,6.176Z" transform="translate(-4927.631 -3525.862)" fill="#050606"/>
            <path id="Trazado_121805" data-name="Trazado 121805" d="M5004.2,3503.167a4.925,4.925,0,1,1-4.933-4.885A4.89,4.89,0,0,1,5004.2,3503.167Zm-4.947.991c.859,0,1.719-.023,2.577.01.377.015.493-.161.529-.47a3.056,3.056,0,0,0-1.374-3.1,3.105,3.105,0,0,0-4.76,3.151c.06.332.2.422.51.417C4997.576,3504.148,4998.416,3504.159,4999.254,3504.159Zm1.31,1.847h-2.325A2.765,2.765,0,0,0,5000.564,3506.006Z" transform="translate(-4958.052 -3492.14)" fill="#050606"/>
            <path id="Trazado_121806" data-name="Trazado 121806" d="M4958.577,3559.5a3.089,3.089,0,1,1,.108-6.177,3.089,3.089,0,1,1-.108,6.177Z" transform="translate(-4931.523 -3529.754)" fill="#f2f2f2"/>
            <path id="Trazado_121807" data-name="Trazado 121807" d="M5003.2,3508.061c-.839,0-1.679-.011-2.517.006-.316.005-.451-.084-.512-.417a3.106,3.106,0,0,1,4.76-3.151,3.058,3.058,0,0,1,1.374,3.1c-.036.309-.15.485-.529.47C5004.918,3508.038,5004.057,3508.061,5003.2,3508.061Z" transform="translate(-4961.995 -3496.042)" fill="#fdfdfd"/>
            <path id="Trazado_121808" data-name="Trazado 121808" d="M5008.953,3522.678a2.769,2.769,0,0,1-2.324,0Z" transform="translate(-4966.441 -3508.812)" fill="#427e9d"/>
          </g>
        </g>
        <g id="_0Uc0AW" data-name="0Uc0AW" transform="translate(0 66.947)">
          <g id="Grupo_88362" data-name="Grupo 88362">
            <path id="Trazado_121809" data-name="Trazado 121809" d="M4389.2,3371.926a7.953,7.953,0,0,1,1.961,1.036,4.16,4.16,0,0,1-2.568,7.283c-1.542.063-1.542.063-1.542,1.583v13a5.675,5.675,0,0,1,2.4-.636,5.119,5.119,0,0,1,4.028,1.791c3.62,4.045,7.255,8.08,10.825,12.168a8.305,8.305,0,0,1,1.5,9.035c-1.945,4.991-3.879,9.987-5.886,14.952a9.759,9.759,0,0,1-9.4,6.511c-.595.019-.695.2-.692.736a27.748,27.748,0,0,1-.072,4.149,5.336,5.336,0,0,1-3.562,4.46.711.711,0,0,0-.558.807c.031,1.629.022,3.258.009,4.887-.009,1.131-.517,1.647-1.643,1.649q-6.679.013-13.357,0a1.438,1.438,0,0,1-1.653-1.639c-.014-1.656-.016-3.313.005-4.968a.625.625,0,0,0-.469-.707,5.478,5.478,0,0,1-3.728-5.372c-.039-1.084-.034-2.172.005-3.258.019-.53-.071-.736-.68-.744a9.812,9.812,0,0,1-7.551-3.376,10.642,10.642,0,0,1-1.892-3.2q-2.924-7.4-5.829-14.8a8.505,8.505,0,0,1,1.671-9.367c3.34-3.75,6.716-7.471,10-11.266,1.919-2.214,4.105-3.1,6.932-1.886.185-.23.106-.48.106-.7.006-4.344-.013-8.688.023-13.033.005-.681-.223-.782-.822-.777-2.532.022-4.194-1.187-4.636-3.31a4.173,4.173,0,0,1,2.885-4.83c.144-.042.34.034.412-.176Zm-9.146,76.487c-2.6-.011-5.2-.016-7.8-.041-.4,0-.506.155-.5.527.016,1.057.021,2.114,0,3.17-.008.393.129.506.513.5,2.6-.022,5.2-.024,7.8-.032.755.01,1.509.007,2.263.032.36.012.542-.081.535-.489-.022-1.077-.015-2.157,0-3.235,0-.336-.111-.494-.465-.483C4381.613,3448.394,4380.833,3448.4,4380.052,3448.414Zm8.65-51.214a.784.784,0,0,0-.239.028,2.487,2.487,0,0,0-.616,4.081c1.971,2.119,3.969,4.215,5.96,6.318a9.667,9.667,0,0,1,2.094,2.865.563.563,0,0,0,.625.374c1.244-.023,2.489-.024,3.732-.034h2.507a4.864,4.864,0,0,0-.837-1.179q-1.571-1.762-3.139-3.529-3.626-4.075-7.26-8.144A2.343,2.343,0,0,0,4388.7,3397.2Zm5.7,34.559c.321.5.655.99.958,1.5.219.366.366.44.685.058a8.552,8.552,0,0,0,1.356-2.391q2.9-7.324,5.775-14.659a8.294,8.294,0,0,0,.513-1.959c.072-.547-.118-.716-.655-.68-.7.046-1.408.026-2.113.034-1.084-.009-2.174.048-3.252-.046-.855-.077-1.07.233-1.014,1.021a4.471,4.471,0,0,1-.195,1.359c-.527,2.1-1.354,4.113-2,6.181a11.723,11.723,0,0,1-2.7,5.029.46.46,0,0,0-.056.695C4392.609,3429.181,4393.5,3430.472,4394.4,3431.759Zm-11.073,13.794c2.492.357,3.662-1.152,3.718-2.809.037-1.164,0-2.33.015-3.495.008-.416-.129-.591-.557-.571-.73.033-1.461.032-2.191.044-.324-.015-.649-.046-.972-.046q-7.165-.005-14.332,0c-.326,0-.651.012-.978,0-.345-.016-.479.126-.474.477.015,1.248-.046,2.5.029,3.744a2.721,2.721,0,0,0,2.881,2.7c1.927.022,3.854.013,5.781.006C4378.6,3445.587,4380.966,3445.568,4383.325,3445.553Zm3.4-70.815c-2.386-.011-4.771-.031-7.156-.034q-6.546-.008-13.094,0c-1,0-1.68.581-1.682,1.388,0,.825.649,1.368,1.672,1.382.624.007,1.247,0,1.871,0,1.589,0,2,.417,2,2.033,0,1.166.007,2.332,0,3.5,0,.34.028.582.475.53a14,14,0,0,1,7.532,1.556,5.406,5.406,0,0,0,3.2.681,4.674,4.674,0,0,0,2.459-.678c.241-.094.283-.3.281-.531q-.026-2.84-.042-5.678c.273-1.078.667-1.389,1.784-1.413.238-.005.476-.023.714-.036.54.01,1.079.046,1.617.027a1.376,1.376,0,1,0,.071-2.749C4387.859,3374.677,4387.291,3374.729,4386.726,3374.737Zm6.047,59.753c-1.1-1.643-2.206-3.279-3.283-4.934-.272-.416-.525-.313-.88-.156a10.14,10.14,0,0,1-4.187.856q-7.119-.009-14.238,0a9.893,9.893,0,0,1-4.184-.861c-.418-.191-.652-.183-.926.231q-1.726,2.61-3.519,5.177c-.3.434-.187.543.267.7a9.1,9.1,0,0,0,2.966.386q12.489.014,24.977,0c.566,0,1.132-.088,1.7-.135a1.841,1.841,0,0,0,1.024-.161C4393.432,3435.308,4393.428,3435.3,4392.773,3434.49Zm-11.394-45.787a20.78,20.78,0,0,1-6.255-1.907,8.359,8.359,0,0,0-3.911-.521c-.646.04-.9.225-.9.965.034,8.791.022,17.582.022,26.372a21.483,21.483,0,0,0,.1,2.191,6.915,6.915,0,0,0,12.081,3.787,7.554,7.554,0,0,0,1.75-5.185q0-12.738,0-25.477v-.914a11.917,11.917,0,0,1-2.725.689Zm-13.822,15.815c-1.845,1.959-3.547,3.746-5.225,5.555a5.693,5.693,0,0,0-1.3,6.027c.706,2.132,1.408,4.265,2.15,6.385a6.935,6.935,0,0,0,6.481,4.955c5.1.085,10.207.112,15.306-.012a6.5,6.5,0,0,0,6.193-4.373c.923-2.338,1.672-4.746,2.455-7.137a5.518,5.518,0,0,0-1.3-5.8c-1.568-1.693-3.158-3.365-4.746-5.038-.13-.138-.212-.382-.521-.347v.807c0,3.1.021,6.19-.006,9.284a9.737,9.737,0,0,1-18.176,5.037,10.16,10.16,0,0,1-1.311-5.22C4367.561,3411.342,4367.557,3408.039,4367.557,3404.519Zm-13.14,9.117c-1,0-2.008.017-3.01-.008-.4-.009-.513.116-.488.511a7,7,0,0,0,.517,2.123q2.892,7.373,5.808,14.737a8.393,8.393,0,0,0,1.326,2.315c.3.362.429.337.682-.04,1.172-1.76,2.358-3.511,3.573-5.242a.621.621,0,0,0-.083-.954,9.747,9.747,0,0,1-2.23-3.83c-.617-1.849-1.249-3.694-1.867-5.542a9.721,9.721,0,0,1-.708-3.564c.022-.471-.205-.52-.587-.513C4356.372,3413.648,4355.4,3413.635,4354.417,3413.635Zm-2.638-2.775c2.21,0,4.243-.009,6.274.007a.623.623,0,0,0,.68-.422,9.627,9.627,0,0,1,2-2.747c1.994-2.108,3.979-4.226,5.981-6.327a2.571,2.571,0,0,0,.742-2.6,2.434,2.434,0,0,0-4.2-.966c-3.656,4.043-7.261,8.132-10.88,12.209A9.685,9.685,0,0,0,4351.779,3410.86Z" transform="translate(-4348.122 -3371.926)" fill="#020203"/>
            <path id="Trazado_121810" data-name="Trazado 121810" d="M4408.065,3405.817a11.83,11.83,0,0,0,2.726-.689v.915q0,12.738,0,25.477a7.566,7.566,0,0,1-1.749,5.185,6.917,6.917,0,0,1-12.083-3.786,21.511,21.511,0,0,1-.1-2.192c0-8.79.012-17.581-.022-26.372,0-.74.256-.924.9-.964a8.349,8.349,0,0,1,3.912.521,20.763,20.763,0,0,0,6.253,1.907c0,2.214,0,4.428,0,6.642,0,.289.083.6-.117.862a1.379,1.379,0,0,0-1.87-.418,1.287,1.287,0,0,0-.625,1.528,1.232,1.232,0,0,0,.981.975,1.469,1.469,0,0,0,1.6-.7q0,5.615.005,11.228a1.457,1.457,0,0,0-1.6-.681,1.256,1.256,0,0,0-.976.982,1.318,1.318,0,0,0,.627,1.536,1.365,1.365,0,0,0,1.861-.446c.212.294.114.631.115.948.011,1.524,0,3.046,0,4.57l.16,0Zm-4.244,24.976a1.39,1.39,0,0,0-1.373-1.4,1.355,1.355,0,0,0-1.386,1.384,1.379,1.379,0,0,0,2.759.021Zm-2.7-20.9a1.4,1.4,0,0,0-1.453,1.333,1.37,1.37,0,0,0,1.34,1.436,1.345,1.345,0,0,0,1.4-1.283A1.384,1.384,0,0,0,4401.126,3409.895Zm2.7,9.734a1.38,1.38,0,0,0-2.759,0,1.375,1.375,0,0,0,1.333,1.363A1.394,1.394,0,0,0,4403.825,3419.628Z" transform="translate(-4374.646 -3389.041)" fill="#fbe438"/>
            <path id="Trazado_121811" data-name="Trazado 121811" d="M4407.321,3504.28c-.566.047-1.132.135-1.7.135q-12.489.012-24.976,0a9.136,9.136,0,0,1-2.966-.386c-.452-.154-.57-.263-.266-.7q1.787-2.568,3.518-5.176c.273-.414.506-.422.926-.231a9.9,9.9,0,0,0,4.184.861q7.119-.009,14.238,0a10.138,10.138,0,0,0,4.186-.856c.356-.158.609-.26.88.156,1.077,1.654,2.188,3.29,3.284,4.933A8.554,8.554,0,0,0,4407.321,3504.28Z" transform="translate(-4363.979 -3440.457)" fill="#2193ee"/>
            <path id="Trazado_121812" data-name="Trazado 121812" d="M4401.468,3389.09a5.4,5.4,0,0,1-3.2-.682,13.991,13.991,0,0,0-7.531-1.555c-.448.052-.479-.189-.476-.53.01-1.165,0-2.332,0-3.5,0-1.616-.41-2.032-2-2.033-.623,0-1.247.007-1.871,0-1.021-.013-1.674-.557-1.672-1.381,0-.808.679-1.387,1.682-1.388q6.546-.012,13.095,0c2.384,0,4.771.022,7.155.034a3.266,3.266,0,0,1,.01,2.7c-.239.012-.477.03-.715.035-1.117.024-1.513.335-1.785,1.413-.7.008-1.41.036-2.117.014-.452-.014-.62.142-.614.605C4401.462,3384.911,4401.46,3387,4401.468,3389.09Z" transform="translate(-4368.05 -3375.24)" fill="#ccd5da"/>
            <path id="Trazado_121813" data-name="Trazado 121813" d="M4357.759,3463.478c.978,0,1.954.014,2.931-.007.383-.007.608.042.586.513a9.724,9.724,0,0,0,.708,3.564c.619,1.849,1.25,3.693,1.867,5.543a9.758,9.758,0,0,0,2.229,3.829.621.621,0,0,1,.084.954c-1.215,1.732-2.4,3.482-3.574,5.243-.251.378-.382.4-.68.04a8.381,8.381,0,0,1-1.327-2.316q-2.91-7.365-5.807-14.736a7.044,7.044,0,0,1-.518-2.123c-.024-.4.091-.52.487-.511C4355.751,3463.494,4356.755,3463.478,4357.759,3463.478Z" transform="translate(-4351.461 -3421.769)" fill="#2294f0"/>
            <path id="Trazado_121814" data-name="Trazado 121814" d="M4406.542,3525.33c-2.359.015-4.72.035-7.081.043-1.926.007-3.854.018-5.78,0a2.721,2.721,0,0,1-2.881-2.7c-.076-1.244-.014-2.5-.029-3.744-.006-.351.128-.493.474-.477.326.014.651,0,.978,0q7.167,0,14.332,0c.324,0,.647.031.972.046,0,.351,0,.7-.005,1.052C4407.511,3521.531,4407.751,3523.553,4406.542,3525.33Z" transform="translate(-4371.337 -3451.704)" fill="#2295f1"/>
            <path id="Trazado_121815" data-name="Trazado 121815" d="M4356.151,3440.776a9.653,9.653,0,0,1,.594-.846c3.619-4.077,7.225-8.167,10.881-12.21a2.434,2.434,0,0,1,4.2.967,2.57,2.57,0,0,1-.742,2.6c-2,2.1-3.986,4.219-5.981,6.328a9.611,9.611,0,0,0-2,2.746.624.624,0,0,1-.679.423C4360.395,3440.768,4358.362,3440.776,4356.151,3440.776Z" transform="translate(-4352.493 -3401.842)" fill="#2294f0"/>
            <path id="Trazado_121816" data-name="Trazado 121816" d="M4446.331,3481.573c-.9-1.287-1.79-2.578-2.7-3.858a.46.46,0,0,1,.053-.7,11.71,11.71,0,0,0,2.705-5.029c.642-2.068,1.467-4.077,2-6.181a4.391,4.391,0,0,0,.2-1.359c-.057-.788.158-1.1,1.014-1.022,1.077.1,2.167.038,3.252.047a6.128,6.128,0,0,1-.213,1.923c-.436,1.543-1.115,2.989-1.691,4.475C4449.431,3473.782,4447.873,3477.674,4446.331,3481.573Z" transform="translate(-4400.053 -3421.74)" fill="#2294f0"/>
            <path id="Trazado_121817" data-name="Trazado 121817" d="M4446.793,3441.04c-1.244.009-2.49.01-3.733.034a.565.565,0,0,1-.625-.375,9.637,9.637,0,0,0-2.094-2.865c-1.99-2.1-3.987-4.2-5.96-6.318a2.486,2.486,0,0,1,.617-4.081.769.769,0,0,1,.239-.029,1.273,1.273,0,0,0,.163.361c2.768,3.109,5.563,6.2,8.308,9.327A16,16,0,0,1,4446.793,3441.04Z" transform="translate(-4394.656 -3402.133)" fill="#2294f0"/>
            <path id="Trazado_121818" data-name="Trazado 121818" d="M4449.713,3481.595c1.542-3.9,3.1-7.791,4.615-11.7.576-1.485,1.255-2.931,1.691-4.474a6.1,6.1,0,0,0,.213-1.923c.7-.008,1.41.013,2.112-.033.536-.036.726.133.654.68a8.29,8.29,0,0,1-.512,1.959q-2.877,7.333-5.774,14.658a8.6,8.6,0,0,1-1.358,2.39c-.319.383-.467.31-.685-.057C4450.367,3482.585,4450.034,3482.094,4449.713,3481.595Z" transform="translate(-4403.435 -3421.763)" fill="#1565be"/>
            <path id="Trazado_121819" data-name="Trazado 121819" d="M4408.3,3543.914c-2.6.009-5.2.011-7.8.032-.383,0-.521-.11-.513-.5.022-1.056.019-2.113,0-3.169-.007-.373.095-.532.5-.528,2.6.025,5.2.03,7.8.042Q4408.3,3541.85,4408.3,3543.914Z" transform="translate(-4376.362 -3463.298)" fill="#2295f1"/>
            <path id="Trazado_121820" data-name="Trazado 121820" d="M4448.763,3440.808a16.065,16.065,0,0,0-3.084-3.945c-2.746-3.13-5.542-6.218-8.311-9.327a1.363,1.363,0,0,1-.162-.36,2.345,2.345,0,0,1,2.828.78q3.643,4.061,7.26,8.145,1.571,1.763,3.139,3.529a4.874,4.874,0,0,1,.837,1.179Z" transform="translate(-4396.625 -3401.902)" fill="#1565bd"/>
            <path id="Trazado_121821" data-name="Trazado 121821" d="M4425.406,3525.336c1.208-1.777.969-3.8.978-5.777q0-.526.005-1.053c.731-.013,1.461-.012,2.192-.045.427-.02.565.155.558.571-.02,1.165.022,2.331-.017,3.495C4429.068,3524.184,4427.9,3525.694,4425.406,3525.336Z" transform="translate(-4390.201 -3451.709)" fill="#1565bd"/>
            <path id="Trazado_121822" data-name="Trazado 121822" d="M4421.441,3394.1c-.007-2.089-.006-4.178-.032-6.267-.006-.463.162-.619.615-.606.7.022,1.411-.005,2.115-.013q.02,2.839.043,5.678c0,.232-.04.438-.281.532A4.665,4.665,0,0,1,4421.441,3394.1Z" transform="translate(-4388.024 -3380.248)" fill="#5e7a88"/>
            <path id="Trazado_121823" data-name="Trazado 121823" d="M4418.229,3543.907q-.006-2.064-.013-4.128c.781-.015,1.562-.021,2.342-.046.353-.012.468.146.466.482-.012,1.078-.018,2.157,0,3.234.008.409-.173.5-.535.489C4419.737,3543.914,4418.983,3543.916,4418.229,3543.907Z" transform="translate(-4386.287 -3463.291)" fill="#1564b9"/>
            <path id="Trazado_121824" data-name="Trazado 121824" d="M4432.876,3380.759a3.261,3.261,0,0,0-.009-2.7c.566-.01,1.134-.06,1.7-.019a1.375,1.375,0,1,1-.069,2.748C4433.956,3380.8,4433.415,3380.77,4432.876,3380.759Z" transform="translate(-4394.263 -3375.245)" fill="#5e7a88"/>
            <path id="Trazado_121825" data-name="Trazado 121825" d="M4421.146,3408.756v27.022l-.16,0c0-1.524.006-3.046,0-4.571,0-.317.1-.654-.116-.948a1.952,1.952,0,0,0,.089-1.391q0-5.613,0-11.227a1.921,1.921,0,0,0-.086-1.384c.2-.264.116-.573.117-.862.007-2.214,0-4.427,0-6.641Z" transform="translate(-4387.73 -3391.978)" fill="#e2d455"/>
            <path id="Trazado_121826" data-name="Trazado 121826" d="M4443.269,3510.528a8.483,8.483,0,0,1,1.309-1.261c.655.811.657.819-.287,1.1A1.843,1.843,0,0,1,4443.269,3510.528Z" transform="translate(-4399.926 -3446.704)" fill="#1564b9"/>
            <path id="Trazado_121827" data-name="Trazado 121827" d="M4408.869,3461.9a1.38,1.38,0,0,1-2.76-.02,1.353,1.353,0,0,1,1.384-1.383A1.391,1.391,0,0,1,4408.869,3461.9Z" transform="translate(-4379.694 -3420.153)" fill="#060602"/>
            <path id="Trazado_121828" data-name="Trazado 121828" d="M4404.508,3417.7a1.386,1.386,0,0,1,1.29,1.487,1.343,1.343,0,0,1-1.4,1.282,1.369,1.369,0,0,1-1.34-1.435A1.4,1.4,0,0,1,4404.508,3417.7Z" transform="translate(-4378.03 -3396.849)" fill="#060602"/>
            <path id="Trazado_121829" data-name="Trazado 121829" d="M4408.875,3437.432a1.392,1.392,0,0,1-1.423,1.362,1.378,1.378,0,0,1-1.335-1.364,1.379,1.379,0,0,1,2.759,0Z" transform="translate(-4379.698 -3406.844)" fill="#060602"/>
            <path id="Trazado_121830" data-name="Trazado 121830" d="M4417.934,3452.036a1.941,1.941,0,0,1-.091,1.39,1.367,1.367,0,0,1-1.861.447,1.322,1.322,0,0,1-.626-1.536,1.255,1.255,0,0,1,.976-.983A1.456,1.456,0,0,1,4417.934,3452.036Z" transform="translate(-4384.706 -3415.144)" fill="#060602"/>
            <path id="Trazado_121831" data-name="Trazado 121831" d="M4417.831,3424.482a1.922,1.922,0,0,1,.085,1.384,1.47,1.47,0,0,1-1.6.7,1.231,1.231,0,0,1-.981-.975,1.285,1.285,0,0,1,.625-1.528A1.377,1.377,0,0,1,4417.831,3424.482Z" transform="translate(-4384.692 -3400.202)" fill="#060602"/>
          </g>
        </g>
      </g>
    </g>
    <g id="Grupo_78466" data-name="Grupo 78466" transform="matrix(0.996, -0.087, 0.087, 0.996, 988, 4887.455)" style="mix-blend-mode: hard-light;isolation: isolate">
      <path id="Trazado_113489" data-name="Trazado 113489" d="M15.526,7.763A7.763,7.763,0,1,0,7.758,15.52,7.764,7.764,0,0,0,15.526,7.763Z" transform="translate(0 50.509)" opacity="0.5" fill="url(#linear-gradient)"/>
      <path id="Trazado_113490" data-name="Trazado 113490" d="M11.965,5.983a5.983,5.983,0,1,0-5.983,5.984A5.975,5.975,0,0,0,11.965,5.983Z" transform="translate(1.775 26.604)" fill="url(#linear-gradient)"/>
      <path id="Trazado_113491" data-name="Trazado 113491" d="M11.828,5.914a5.914,5.914,0,1,0-5.919,5.908A5.917,5.917,0,0,0,11.828,5.914Z" transform="translate(27.534 78.038)" fill="url(#linear-gradient)"/>
      <path id="Trazado_113492" data-name="Trazado 113492" d="M12.678,6.339a6.339,6.339,0,1,0-6.345,6.339A6.339,6.339,0,0,0,12.678,6.339Z" transform="translate(27.109 51.933)" fill="url(#linear-gradient)"/>
      <path id="Trazado_113493" data-name="Trazado 113493" d="M9.553,4.771A4.777,4.777,0,1,0,4.771,9.543,4.773,4.773,0,0,0,9.553,4.771Z" transform="translate(28.671 27.816)" fill="url(#linear-gradient)"/>
      <path id="Trazado_113494" data-name="Trazado 113494" d="M10.4,5.191a5.2,5.2,0,1,0-5.207,5.2A5.2,5.2,0,0,0,10.4,5.191Z" transform="translate(28.246 1.71)" opacity="0.5" fill="url(#linear-gradient)"/>
      <path id="Trazado_113495" data-name="Trazado 113495" d="M15.387,7.689a7.694,7.694,0,1,0-7.693,7.693A7.687,7.687,0,0,0,15.387,7.689Z" transform="translate(51.434 76.263)" opacity="0.5" fill="url(#linear-gradient)"/>
      <path id="Trazado_113496" data-name="Trazado 113496" d="M16.238,8.118a8.119,8.119,0,1,0-8.119,8.114A8.118,8.118,0,0,0,16.238,8.118Z" transform="translate(51.009 50.154)" opacity="0.5" fill="url(#linear-gradient)"/>
      <path id="Trazado_113497" data-name="Trazado 113497" d="M9.819,4.909A4.91,4.91,0,1,0,4.91,9.825,4.9,4.9,0,0,0,9.819,4.909Z" transform="translate(54.218 27.677)" opacity="0.5" fill="url(#linear-gradient)"/>
      <path id="Trazado_113498" data-name="Trazado 113498" d="M10.414,5.191a5.207,5.207,0,1,0-5.207,5.2A5.2,5.2,0,0,0,10.414,5.191Z" transform="translate(53.921 1.71)" fill="url(#linear-gradient)"/>
      <path id="Trazado_113499" data-name="Trazado 113499" d="M5.982,2.991A2.991,2.991,0,1,0,3,5.983,2.99,2.99,0,0,0,5.982,2.991Z" transform="translate(81.816 80.96)" fill="url(#linear-gradient)"/>
      <path id="Trazado_113500" data-name="Trazado 113500" d="M11.116,5.557A5.558,5.558,0,1,0,5.558,11.11,5.556,5.556,0,0,0,11.116,5.557Z" transform="translate(79.255 52.715)" fill="url(#linear-gradient)"/>
      <path id="Trazado_113501" data-name="Trazado 113501" d="M13.252,6.62a6.626,6.626,0,1,0-6.621,6.626A6.622,6.622,0,0,0,13.252,6.62Z" transform="translate(78.181 25.966)" opacity="0.5" fill="url(#linear-gradient)"/>
      <path id="Trazado_113502" data-name="Trazado 113502" d="M13.814,6.9a6.907,6.907,0,1,0-6.907,6.913A6.905,6.905,0,0,0,13.814,6.9Z" transform="translate(77.906)" opacity="0.5" fill="url(#linear-gradient)"/>
      <path id="Trazado_113503" data-name="Trazado 113503" d="M5.983,2.991A2.991,2.991,0,1,0,3,5.983,2.99,2.99,0,0,0,5.983,2.991Z" transform="translate(107.501 80.96)" fill="url(#linear-gradient)"/>
      <path id="Trazado_113504" data-name="Trazado 113504" d="M11.1,5.557A5.552,5.552,0,1,0,5.558,11.11,5.553,5.553,0,0,0,11.1,5.557Z" transform="translate(104.94 52.715)" opacity="0.5" fill="url(#linear-gradient)"/>
      <path id="Trazado_113505" data-name="Trazado 113505" d="M13.252,6.62a6.626,6.626,0,1,0-6.621,6.626A6.629,6.629,0,0,0,13.252,6.62Z" transform="translate(103.867 25.966)" fill="url(#linear-gradient)"/>
    </g>
  </g>
</svg>
