<svg xmlns="http://www.w3.org/2000/svg" width="73" height="73" viewBox="0 0 73 73">
  <g id="Grupo_137417" data-name="Grupo 137417" transform="translate(-235 -3641)">
    <circle id="Elipse_4721" data-name="Elipse 4721" cx="36.5" cy="36.5" r="36.5" transform="translate(235 3641)" fill="#fff"/>
    <g id="AsT5Sp" transform="translate(-1872.069 74.559)">
      <g id="Grupo_87878" data-name="Grupo 87878" transform="translate(2120.069 3579.442)">
        <path id="Trazado_121626" data-name="Trazado 121626" d="M2120.861,3587.349c-.676-.262-.784-.413-.785-1.1,0-.9,0-1.8,0-2.7,0-.677.281-.962.95-.962q15.539,0,31.078,0c.677,0,.958.281.962.951.005.9,0,1.8,0,2.7,0,.7-.1.845-.762,1.1v11.838c.552-.369,1.058-.689,1.539-1.043a.636.636,0,0,0,.181-.423q.416-5.112.814-10.226.288-3.62.585-7.24a.769.769,0,0,1,.822-.792q1.915-.019,3.83,0c.542,0,.815.3.85.867q.351,5.856.7,11.712c.016.26.045.519.076.872.358-.235.665-.431.965-.636a.867.867,0,0,1,.958-.157.9.9,0,0,1,.444.909q-.007,8.839-.01,17.677a1.081,1.081,0,0,0,.368.9c.449.4.868.844,1.288,1.281a.788.788,0,0,1,.006,1.246c-.145.156-.294.309-.451.451-.2.183-.339.338-.193.661a.536.536,0,0,0,.59.362c1.482,0,1.542.063,1.542,1.545,0,.753.007,1.506,0,2.259-.008.608-.3.888-.913.9a5.379,5.379,0,0,1-.589,0,.54.54,0,0,0-.635.367c-.151.338.023.475.208.659,1,1,1,1.127.014,2.118-.532.532-1.061,1.068-1.6,1.6a.817.817,0,0,1-1.352.013,5.116,5.116,0,0,1-.415-.418.5.5,0,0,0-.666-.17c-.318.128-.344.319-.343.6,0,1.449-.077,1.523-1.517,1.523h-38.1c-1.034,0-1.228-.193-1.228-1.229q0-11.391-.007-22.783a1.174,1.174,0,0,1,.571-1.155.579.579,0,0,0,.213-.433C2120.864,3596.452,2120.861,3591.918,2120.861,3587.349ZM2135,3624.99v-.568q0-3.117,0-6.235c0-.769.261-1.029,1.031-1.03q6.038,0,12.076,0c.769,0,1.03.261,1.031,1.031q0,3.142,0,6.284v.507h4.3c-.584-.562-1.083-1.029-1.568-1.509-1.033-1.024-1.032-1.131-.015-2.149.187-.187.35-.326.2-.659a.541.541,0,0,0-.636-.366,5.288,5.288,0,0,1-.687,0,.769.769,0,0,1-.808-.8q-.023-1.546,0-3.093a.768.768,0,0,1,.8-.81c.31-.015.622,0,.933-.007.23-.009.544-.511.466-.725a1.965,1.965,0,0,0-1.276-.844h-29.184v10.976Zm-13.315-21.223h40.766v-9.454c-.188.121-.325.207-.46.3q-6.1,4.064-12.2,8.132a.906.906,0,0,1-1,.181.935.935,0,0,1-.438-.963c.006-2.356,0-4.713,0-7.069v-.593c-.217.135-.367.223-.512.319q-6.082,4.051-12.162,8.1c-.322.215-.64.414-1.04.2a.948.948,0,0,1-.428-.969c.006-2.356,0-4.713,0-7.069v-.583c-.185.111-.3.172-.4.243-3.8,2.53-7.577,5.08-11.4,7.57a1.382,1.382,0,0,0-.759,1.583C2121.662,3603.707,2121.669,3603.72,2121.687,3603.767Zm4.676-6.149-.019-.1h-.427c-.9,0-1.127-.228-1.127-1.13q0-3.658,0-7.314c0-.705.276-.98.98-.982q2.16-.006,4.319,0c.705,0,.981.276.982.98,0,1.636,0,3.272,0,4.908,0,.137.015.274.027.478.711-.473,1.374-.889,2-1.351a.849.849,0,0,0,.312-.578c.029-1.145.012-2.291.015-3.436,0-.735.269-1,1.009-1q2.111,0,4.221,0c.8,0,1.052.254,1.053,1.058q0,3.657,0,7.314c0,.8-.254,1.053-1.056,1.055-.944,0-1.887,0-2.838,0v3.191a2.182,2.182,0,0,0,.208-.106c1.932-1.287,3.868-2.569,5.787-3.875a.771.771,0,0,0,.246-.562c.017-2.372.008-4.745.012-7.117,0-.674.282-.955.955-.957q2.208-.007,4.417,0a.8.8,0,0,1,.908.9c.009.687,0,1.375,0,2.062v1.272c1.108-.562,1.571-.274,1.571.886q0,3.486,0,6.971v.51a1.044,1.044,0,0,0,.8-1.173c-.03-3.878-.016-7.756-.016-11.634v-.547h-28.237v12.867Zm31.419,27.367h1.572c0-.27,0-.512,0-.754,0-.618.151-.8.724-1a10.153,10.153,0,0,0,1.214-.518.826.826,0,0,1,1.1.179c.185.206.343.435.5.64l1.227-1.2c-.194-.175-.383-.331-.554-.5a.846.846,0,0,1-.2-1.218,11.531,11.531,0,0,0,.5-1.223.854.854,0,0,1,.909-.661c.273.007.547,0,.831,0v-1.572c-.274,0-.517,0-.76,0-.606-.006-.791-.158-1-.735a8.431,8.431,0,0,0-.5-1.17.837.837,0,0,1,.169-1.145c.207-.183.442-.334.609-.459l-1.217-1.269c-.156.19-.3.393-.469.566-.439.442-.662.46-1.22.191a11.107,11.107,0,0,0-1.127-.473c-.586-.206-.738-.387-.744-.989,0-.256,0-.512,0-.766h-1.571c0,.263,0,.491,0,.719,0,.648-.146.823-.746,1.037a8.737,8.737,0,0,0-1.17.5.833.833,0,0,1-1.142-.185,7.609,7.609,0,0,1-.452-.639l-1.3,1.217c.206.171.406.314.578.484.47.465.487.679.21,1.258a12.533,12.533,0,0,0-.5,1.224.843.843,0,0,1-.877.636c-.288,0-.575,0-.862,0v1.572c.264,0,.5,0,.746,0,.642.005.809.145,1.026.76a9.07,9.07,0,0,0,.5,1.168.844.844,0,0,1-.162,1.109c-.2.2-.4.407-.561.568l1.108,1.179c.172-.195.324-.387.5-.559.459-.46.674-.477,1.26-.194a10.112,10.112,0,0,0,1.177.479.854.854,0,0,1,.671.9C2157.777,3624.414,2157.782,3624.688,2157.782,3624.985Zm-6.308-40.792h-29.788v1.515h29.788Zm-29.809,25.108h37.98c.164,0,.328-.008.491,0a.776.776,0,0,1,.783.78c.018.293-.021.592.017.882a.594.594,0,0,0,.246.395c.4.227,1.27-.3,1.3-.812.042-.662.01-1.33.01-2.005h-40.829Zm21.943,15.69v-6.223h-3.083v6.223Zm-17.215-35.309v6.262c.8,0,1.565.017,2.33-.006a.813.813,0,0,0,.778-.857q0-1.349,0-2.7v-2.7Zm29.282,7.15a.818.818,0,0,0,.21-.046q2.042-1.355,4.076-2.721a.433.433,0,0,0,.183-.306c-.03-.829-.083-1.656-.13-2.491h-3.9C2155.968,3593.134,2155.823,3594.966,2155.676,3596.831Zm-17.572-.906v-6.266h-3.082c0,.8,0,1.549,0,2.3.7.321.765.424.765,1.23,0,.909,0,1.817,0,2.739Zm5.562-.419c.608-.4,1.16-.769,1.71-1.138.46-.31,1.093-.53,1.328-.963a3.892,3.892,0,0,0,.08-1.638c0-.278,0-.556,0-.834v-1.247h-3.118Zm3.868,29.486v-6.241h-2.293v6.241Zm-10.984-19.586h-9.365v1.513h9.365Zm20.424,0h-9.365v1.514h9.365Zm-20.366,13.344v6.224h2.3v-6.224Zm-.076-6.316V3610.9h-9.347v1.529Zm23.385-22.8c-.081-1.324-.159-2.6-.237-3.878h-3.123c-.1,1.3-.2,2.576-.3,3.878Zm-21.741,15.76v1.512h7.8V3605.4Zm-.009,7.013h7.793V3610.9h-7.793Zm21.416-28.265-.184-3.093h-2.467c-.081,1.047-.16,2.061-.24,3.093Zm-11.989,28.3c1.39,0,2.756,0,4.123,0a.338.338,0,0,0,.215-.088c.472-.458.938-.924,1.459-1.44h-5.8Zm11-5.525h3.872v-1.508h-3.872Zm-33.045,5.5V3610.9h-3.862v1.516Zm-3.865-7.025v1.512h3.868v-1.512Zm33.282,5.5c.283.2.3.811.84.551.229-.112.528-.159.361-.551Zm1.2,14.106c.175-.467-.235-.578-.45-.555a2.61,2.61,0,0,0-.829.42l.073.134Z" transform="translate(-2120.069 -3579.441)" fill="#12263f"/>
        <path id="Trazado_121627" data-name="Trazado 121627" d="M2218.4,3673.976c-.43-.458-1.2-.316-1.351-1.052-1.413.364-1.983,1.689-1.41,3.425l-1.292.746a3.93,3.93,0,0,1,2.848-5.869l-.146-.451,1.375-.688c.283.58.572,1.124.81,1.688a.79.79,0,0,1-.036.561C2218.971,3672.855,2218.7,3673.359,2218.4,3673.976Z" transform="translate(-2179.221 -3636.647)" fill="#12263f"/>
        <path id="Trazado_121628" data-name="Trazado 121628" d="M2223.848,3679.27l1.328-.771a3.8,3.8,0,0,1,.117,3.7,3.9,3.9,0,0,1-2.937,2.156c-.027.044-.045.061-.042.07.042.122.087.243.146.4l-1.379.694c-.285-.58-.566-1.11-.8-1.66a.787.787,0,0,1,.013-.561c.231-.535.505-1.052.794-1.638.462.358,1.118.354,1.431.989C2223.792,3682.458,2224.476,3680.915,2223.848,3679.27Z" transform="translate(-2183.283 -3641.958)" fill="#12263f"/>
      </g>
    </g>
  </g>
</svg>
