<svg xmlns="http://www.w3.org/2000/svg" width="72" height="72" viewBox="0 0 72 72">
  <g id="Grupo_137450" data-name="Grupo 137450" transform="translate(-190 -877)">
    <circle id="Elipse_4736" data-name="Elipse 4736" cx="36" cy="36" r="36" transform="translate(190 877)" fill="#ef3c79"/>
    <path id="Trazado_122014" data-name="Trazado 122014" d="M-751.751,93.915q0,1.158,0,2.315a11.572,11.572,0,0,0,0,2.409q0,1.156,0,2.312a11.6,11.6,0,0,0,0,2.411q0,1.156,0,2.312a10.772,10.772,0,0,0,0,2.323q0,1.2,0,2.4a10.85,10.85,0,0,0,0,2.323v2.313c-.106.386-.016.786-.086,1.175-.138.453-.661.7-.656,1.231a8.886,8.886,0,0,0-.164,2.323,9.875,9.875,0,0,0,.172,2.4c-.031.446.374.636.56.954a3.9,3.9,0,0,1,.177,1.368,3.583,3.583,0,0,1-.2,1.357,1.965,1.965,0,0,1-1.864.971q-11.893-.027-23.785,0a7,7,0,0,1-4.379-1.482c-.079-.06-.165-.113-.247-.169l-.692-.677a8.207,8.207,0,0,1-1.4-2.4l-.249-.858-.153-1.461a10.82,10.82,0,0,0,0-2.321q0-1.158,0-2.315a11.564,11.564,0,0,0,0-2.409q0-1.156,0-2.312a11.6,11.6,0,0,0,0-2.411v-2.312a10.842,10.842,0,0,0,0-2.325q0-1.2,0-2.4a10.851,10.851,0,0,0,0-2.323l0-2.313a4.41,4.41,0,0,0,.07-1.036.1.1,0,0,0,0-.166l.018-.172a3.479,3.479,0,0,0,.329-1.033,6.233,6.233,0,0,1,1.378-2.319l.6-.607a9.255,9.255,0,0,1,2.323-1.377,11.938,11.938,0,0,1,3.6-.4q11.244.009,22.487,0a3.963,3.963,0,0,1,1.14.164,3.065,3.065,0,0,1,.85.851,3.793,3.793,0,0,1,.176,1.367A10.748,10.748,0,0,0-751.751,93.915Zm-23.529,23.53H-777.6a2.306,2.306,0,0,0-2.378,2.309,2.264,2.264,0,0,0,2.295,2.328l2.4.006a11.052,11.052,0,0,0,2.326,0h2.4a11.022,11.022,0,0,0,2.326,0h2.312a11.89,11.89,0,0,0,2.414,0h2.312a11.674,11.674,0,0,0,2.33.005,12.953,12.953,0,0,0,1.788.026c.284,0,.394-.1.368-.4-.055-.651-.07-1.306-.1-1.959.032-.665.054-1.33.1-1.994.019-.27-.076-.346-.333-.338-.581.019-1.163.015-1.744.02h-16.494Zm7.044-16.495h7.046c.615,0,1.23.008,1.845.014.312,0,.49-.135.493-.457q.006-.708,0-1.415c0-.32-.181-.462-.492-.46l-1.845.014h-11.772l-1.8-.013a.461.461,0,0,0-.524.526q0,.642,0,1.283a.458.458,0,0,0,.525.523l1.8-.014h4.725Zm7.047,4.712,1.8.014a.47.47,0,0,0,.541-.551c-.012-.428-.006-.857,0-1.285a.432.432,0,0,0-.5-.5c-.614.006-1.229.009-1.843.013h-11.77c-.6,0-1.2-.006-1.8-.015a.454.454,0,0,0-.526.518q0,.642,0,1.283a.469.469,0,0,0,.524.531c.6,0,1.2-.007,1.8-.012h11.773Z" transform="translate(994.235 805.491)" fill="#fff"/>
  </g>
</svg>
